<?xml version="1.0" standalone="no"?><!DOCTYPE svg PUBLIC "-//W3C//DTD SVG 1.1//EN" "http://www.w3.org/Graphics/SVG/1.1/DTD/svg11.dtd" ><svg xmlns="http://www.w3.org/2000/svg"><metadata></metadata><defs><font id="OlegZhuravlev,GladkikhIvan: Bender: 2009" horiz-adv-x="2345"><font-face font-family="Bender" font-weight="400" font-stretch="normal" units-per-em="1000" panose-1="2 0 5 3 2 0 0 2 0 4" ascent="920" descent="-180" x-height="4" bbox="-70 -285 2345 955" underline-thickness="50" underline-position="-75" unicode-range="U+0020-2122" /><missing-glyph horiz-adv-x="300"  /><glyph glyph-name="space" unicode=" " d="" /><glyph glyph-name="exclam" unicode="!" d="M91 125 l-1 575 l70 0 l-1 -575 l-68 0 ZM104 -10 l-24 24 l0 42 l24 24 l42 0 l24 -24 l0 -42 l-24 -24 l-42 0 Z" /><glyph glyph-name="quotedbl" unicode="&quot;" d="M41 447 l-11 253 l70 0 l-11 -253 l-48 0 ZM186 447 l-11 253 l70 0 l-11 -253 l-48 0 Z" /><glyph glyph-name="numbersign" unicode="#" d="M127 0 l-67 0 l76 192 l-136 0 l0 65 l160 0 l75 186 l-133 0 l0 65 l157 0 l77 192 l67 0 l-76 -192 l203 0 l77 192 l67 0 l-76 -192 l136 0 l0 -65 l-161 0 l-74 -186 l133 0 l0 -65 l-158 0 l-76 -192 l-67 0 l76 192 l-204 0 l-76 -192 ZM302 443 l-73 -186 l202 0 l75 186 l-204 0 Z" /><glyph glyph-name="dollar" unicode="$" d="M150 65 l225 0 l64 64 l0 95 l-14 26 l-358 174 l-27 56 l0 118 l102 102 l98 0 l0 70 l65 0 l0 -70 l99 0 l98 -33 l-20 -60 l-90 28 l-223 0 l-64 -64 l0 -72 l12 -25 l356 -173 l31 -58 l0 -141 l-102 -102 l-98 0 l0 -70 l-65 0 l0 70 l-96 0 l-101 34 l21 61 l87 -30 Z" /><glyph glyph-name="percent" unicode="%" d="M61 28 l529 685 l49 -38 l-528 -686 l-50 39 ZM463 290 l126 0 l82 -82 l0 -126 l-82 -82 l-126 0 l-82 82 l0 126 l82 82 ZM562 225 l-72 0 l-44 -44 l0 -72 l44 -44 l72 0 l44 44 l0 72 l-44 44 ZM112 700 l126 0 l82 -82 l0 -126 l-82 -82 l-126 0 l-82 82 l0 126 l82 82 ZM211 635 l-72 0 l-44 -44 l0 -72 l44 -44 l72 0 l44 44 l0 72 l-44 44 Z" /><glyph glyph-name="ampersand" unicode="&amp;" d="M547 -12 l-96 107 l-95 -95 l-223 0 l-103 102 l0 138 l154 152 l-86 96 l0 110 l103 102 l204 0 l103 -103 l0 -95 l-65 0 l0 68 l-65 65 l-150 0 l-65 -65 l0 -57 l290 -323 l91 90 l46 -46 l-93 -93 l98 -110 l-48 -43 ZM160 65 l170 0 l78 78 l-181 201 l-132 -131 l0 -83 l65 -65 Z" /><glyph glyph-name="quotesingle" unicode="&#39;" d="M41 447 l-11 253 l70 0 l-11 -253 l-48 0 Z" /><glyph glyph-name="parenleft" unicode="(" d="M105 544 l0 -552 l47 -74 l98 -36 l-22 -60 l-117 42 l-71 114 l0 580 l71 114 l117 42 l22 -60 l-98 -36 l-47 -74 Z" /><glyph glyph-name="parenright" unicode=")" d="M145 -8 l0 552 l-47 74 l-98 36 l22 60 l117 -42 l71 -114 l0 -580 l-71 -114 l-117 -42 l-22 60 l98 36 l47 74 Z" /><glyph glyph-name="asterisk" unicode="*" d="M156 592 l0 108 l65 0 l0 -108 l92 54 l34 -57 l-93 -55 l93 -55 l-34 -57 l-92 54 l0 -108 l-65 0 l0 108 l-92 -54 l-34 57 l93 55 l-93 55 l34 57 l92 -54 Z" /><glyph glyph-name="plus" unicode="+" d="M202 560 l65 0 l0 -183 l183 0 l0 -65 l-183 0 l0 -182 l-65 0 l0 182 l-182 0 l0 65 l182 0 l0 183 Z" /><glyph glyph-name="comma" unicode="," d="M0 -180 l55 240 l75 0 l-85 -240 l-45 0 Z" /><glyph glyph-name="hyphen" unicode="-" d="M20 312 l0 65 l410 0 l0 -65 l-410 0 Z" /><glyph glyph-name="period" unicode="." d="M54 -10 l-24 24 l0 42 l24 24 l42 0 l24 -24 l0 -42 l-24 -24 l-42 0 Z" /><glyph glyph-name="slash" unicode="/" d="M0 20 l453 692 l53 -33 l-453 -693 l-53 34 Z" /><glyph glyph-name="zero" unicode="0" d="M125 125 l305 497 l-14 13 l-226 0 l-65 -64 l0 -446 ZM479 575 l-305 -497 l14 -13 l226 0 l65 64 l0 446 ZM442 700 l102 -102 l0 -496 l-103 -102 l-279 0 l-102 102 l0 496 l103 102 l279 0 Z" /><glyph glyph-name="one" unicode="1" d="M340 0 l-297 0 l0 65 l116 0 l0 544 l-93 -93 l-46 46 l139 139 l65 0 l0 -636 l116 0 l0 -65 Z" /><glyph glyph-name="two" unicode="2" d="M128 635 l-88 -28 l-20 61 l103 32 l281 0 l102 -103 l0 -181 l-93 -93 l-327 -214 l0 -44 l420 0 l0 -65 l-485 0 l0 144 l347 227 l73 74 l0 126 l-63 64 l-250 0 Z" /><glyph glyph-name="three" unicode="3" d="M111 0 l-101 34 l21 61 l87 -30 l248 0 l64 63 l0 154 l-63 63 l-216 0 l0 69 l250 221 l-380 0 l0 65 l474 0 l0 -66 l-254 -224 l152 0 l102 -102 l0 -206 l-103 -102 l-281 0 Z" /><glyph glyph-name="four" unicode="4" d="M473 236 l73 0 l0 -65 l-73 0 l0 -171 l-65 0 l0 171 l-398 0 l0 88 l398 443 l65 0 l0 -466 ZM408 236 l0 366 l-329 -366 l329 0 Z" /><glyph glyph-name="five" unicode="5" d="M59 700 l460 0 l0 -65 l-395 0 l0 -217 l293 0 l102 -102 l0 -214 l-103 -102 l-265 0 l-101 34 l21 61 l87 -30 l230 0 l66 65 l0 158 l-65 65 l-330 0 l0 347 Z" /><glyph glyph-name="six" unicode="6" d="M60 103 l0 494 l102 103 l282 0 l98 -33 l-22 -61 l-89 29 l-243 0 l-63 -64 l0 -157 l33 11 l284 0 l103 -105 l0 -218 l-103 -102 l-279 0 l-103 103 ZM415 360 l-257 0 l-33 -11 l0 -219 l65 -65 l225 0 l65 65 l0 163 l-65 67 Z" /><glyph glyph-name="seven" unicode="7" d="M249 175 l0 -175 l-65 0 l0 191 l236 401 l0 43 l-410 0 l0 65 l475 0 l0 -125 l-236 -400 Z" /><glyph glyph-name="eight" unicode="8" d="M478 268 l-64 64 l-224 0 l-65 -65 l0 -138 l65 -64 l222 0 l66 65 l0 138 ZM410 635 l-217 0 l-63 -63 l0 -115 l61 -60 l221 0 l61 60 l0 112 l-63 66 ZM440 0 l-277 0 l-103 102 l0 193 l70 70 l-65 64 l0 169 l102 102 l273 0 l98 -102 l0 -169 l-65 -64 l70 -70 l0 -193 l-103 -102 Z" /><glyph glyph-name="nine" unicode="9" d="M525 597 l0 -494 l-102 -103 l-282 0 l-98 33 l22 61 l89 -29 l243 0 l63 64 l0 157 l-33 -11 l-284 0 l-103 105 l0 218 l103 102 l279 0 l103 -103 ZM170 340 l257 0 l33 11 l0 219 l-65 65 l-225 0 l-65 -65 l0 -163 l65 -67 Z" /><glyph glyph-name="colon" unicode=":" d="M54 -10 l-24 24 l0 42 l24 24 l42 0 l24 -24 l0 -42 l-24 -24 l-42 0 ZM54 378 l-24 24 l0 42 l24 24 l42 0 l24 -24 l0 -42 l-24 -24 l-42 0 Z" /><glyph glyph-name="semicolon" unicode=";" d="M60 378 l-24 24 l0 42 l24 24 l42 0 l24 -24 l0 -42 l-24 -24 l-42 0 ZM0 -180 l55 240 l75 0 l-85 -240 l-45 0 Z" /><glyph glyph-name="less" unicode="&lt;" d="M20 240 l0 46 l276 237 l43 -49 l-245 -211 l245 -211 l-43 -49 l-276 237 Z" /><glyph glyph-name="equal" unicode="=" d="M20 403 l0 65 l410 0 l0 -65 l-410 0 ZM20 222 l0 65 l410 0 l0 -65 l-410 0 Z" /><glyph glyph-name="greater" unicode="&gt;" d="M329 286 l0 -46 l-276 -237 l-43 49 l245 211 l-245 211 l43 49 l276 -237 Z" /><glyph glyph-name="question" unicode="?" d="M145 635 l-98 -98 l-47 46 l118 117 l284 0 l102 -102 l0 -184 l-215 -180 l0 -109 l-65 0 l0 144 l215 180 l0 122 l-64 64 l-230 0 ZM235 -12 l-24 24 l0 42 l24 24 l42 0 l24 -24 l0 -42 l-24 -24 l-42 0 Z" /><glyph glyph-name="at" unicode="@" d="M809 578 l0 -429 l-83 -82 l-147 0 l-16 50 l-54 -54 l-176 0 l-83 82 l0 110 l83 82 l216 0 l0 72 l-45 44 l-134 0 l-87 -30 l-21 61 l101 34 l168 0 l83 -82 l0 -264 l13 -40 l72 0 l45 44 l0 374 l-95 85 l-419 0 l-95 -85 l0 -514 l95 -85 l446 0 l0 -65 l-470 0 l-136 122 l0 570 l136 122 l467 0 l136 -122 ZM481 128 l68 66 l0 78 l-189 0 l-45 -44 l0 -56 l45 -44 l121 0 Z" /><glyph glyph-name="A" unicode="A" d="M155 212 l-72 -222 l-63 20 l223 690 l92 0 l223 -690 l-63 -20 l-72 222 l-268 0 ZM176 277 l226 0 l-113 350 l-113 -350 Z" /><glyph glyph-name="B" unicode="B" d="M495 370 l70 -71 l0 -196 l-103 -103 l-382 0 l0 700 l381 0 l83 -83 l0 -198 l-49 -49 ZM500 273 l-63 64 l-292 0 l0 -272 l292 0 l63 63 l0 145 ZM145 635 l0 -233 l290 0 l44 44 l0 145 l-44 44 l-290 0 Z" /><glyph glyph-name="C" unicode="C" d="M426 65 l76 76 l47 -46 l-95 -95 l-291 0 l-103 103 l0 494 l103 103 l279 0 l103 -103 l0 -112 l-65 0 l0 85 l-65 65 l-225 0 l-65 -65 l0 -440 l65 -65 l236 0 Z" /><glyph glyph-name="D" unicode="D" d="M80 700 l383 0 l103 -104 l0 -492 l-103 -104 l-383 0 l0 700 ZM501 569 l-65 66 l-291 0 l0 -570 l291 0 l65 66 l0 438 Z" /><glyph glyph-name="E" unicode="E" d="M80 0 l0 700 l433 0 l0 -65 l-368 0 l0 -232 l326 0 l0 -65 l-326 0 l0 -273 l368 0 l0 -65 l-433 0 Z" /><glyph glyph-name="F" unicode="F" d="M80 0 l0 700 l433 0 l0 -65 l-368 0 l0 -240 l326 0 l0 -65 l-326 0 l0 -330 l-65 0 Z" /><glyph glyph-name="G" unicode="G" d="M545 598 l0 -113 l-65 0 l0 86 l-63 64 l-229 0 l-63 -64 l0 -442 l63 -64 l229 0 l63 64 l0 167 l-168 0 l0 65 l233 0 l0 -259 l-102 -102 l-281 0 l-102 102 l0 496 l102 102 l281 0 l102 -102 Z" /><glyph glyph-name="H" unicode="H" d="M500 396 l0 304 l65 0 l0 -700 l-65 0 l0 331 l-355 0 l0 -331 l-65 0 l0 700 l65 0 l0 -304 l355 0 Z" /><glyph glyph-name="I" unicode="I" d="M327 0 l-297 0 l0 65 l116 0 l0 570 l-116 0 l0 65 l297 0 l0 -65 l-116 0 l0 -570 l116 0 l0 -65 Z" /><glyph glyph-name="J" unicode="J" d="M117 0 l-117 117 l47 46 l99 -98 l181 0 l65 65 l0 505 l-168 0 l0 65 l233 0 l0 -597 l-103 -103 l-237 0 Z" /><glyph glyph-name="K" unicode="K" d="M314 409 l249 -384 l-54 -35 l-241 371 l-123 -129 l0 -232 l-65 0 l0 700 l65 0 l0 -374 l365 384 l47 -45 l-243 -256 Z" /><glyph glyph-name="L" unicode="L" d="M80 0 l0 700 l65 0 l0 -635 l368 0 l0 -65 l-433 0 Z" /><glyph glyph-name="M" unicode="M" d="M444 166 l-56 0 l-243 415 l0 -581 l-65 0 l0 700 l72 0 l264 -451 l264 451 l72 0 l0 -700 l-65 0 l0 581 l-243 -415 Z" /><glyph glyph-name="N" unicode="N" d="M493 0 l-348 587 l0 -587 l-65 0 l0 700 l73 0 l348 -587 l0 587 l65 0 l0 -700 l-73 0 Z" /><glyph glyph-name="O" unicode="O" d="M173 700 l289 0 l113 -103 l0 -494 l-113 -103 l-289 0 l-113 103 l0 494 l113 103 ZM510 570 l-72 65 l-241 0 l-72 -65 l0 -440 l72 -65 l241 0 l72 65 l0 440 Z" /><glyph glyph-name="P" unicode="P" d="M145 267 l0 -267 l-65 0 l0 700 l382 0 l103 -102 l0 -229 l-103 -102 l-317 0 ZM434 635 l-289 0 l0 -303 l289 0 l66 65 l0 173 l-66 65 Z" /><glyph glyph-name="Q" unicode="Q" d="M285 0 l-112 0 l-113 103 l0 494 l113 103 l289 0 l113 -103 l0 -494 l-113 -103 l-112 0 l0 -138 l-65 0 l0 138 ZM350 65 l88 0 l72 65 l0 440 l-72 65 l-241 0 l-72 -65 l0 -440 l72 -65 l88 0 l0 60 l65 0 l0 -60 Z" /><glyph glyph-name="R" unicode="R" d="M145 274 l0 -274 l-65 0 l0 700 l382 0 l103 -102 l0 -222 l-103 -102 l-141 0 l242 -242 l-46 -47 l-288 289 l-84 0 ZM434 635 l-289 0 l0 -296 l289 0 l66 65 l0 166 l-66 65 Z" /><glyph glyph-name="S" unicode="S" d="M392 635 l-223 0 l-64 -64 l0 -72 l12 -25 l356 -173 l31 -58 l0 -141 l-102 -102 l-259 0 l-101 34 l21 61 l87 -30 l225 0 l64 64 l0 95 l-14 26 l-358 174 l-27 56 l0 118 l102 102 l262 0 l98 -33 l-20 -60 l-90 28 Z" /><glyph glyph-name="T" unicode="T" d="M285 635 l0 -635 l-65 0 l0 635 l-220 0 l0 65 l505 0 l0 -65 l-220 0 Z" /><glyph glyph-name="U" unicode="U" d="M173 0 l-103 102 l0 598 l65 0 l0 -570 l66 -65 l223 0 l66 65 l0 570 l65 0 l0 -598 l-103 -102 l-279 0 Z" /><glyph glyph-name="V" unicode="V" d="M337 0 l-88 0 l-229 689 l63 21 l210 -631 l210 631 l63 -21 l-229 -689 Z" /><glyph glyph-name="W" unicode="W" d="M418 679 l72 0 l163 -566 l171 597 l64 -18 l-198 -692 l-74 0 l-162 564 l-162 -564 l-74 0 l-198 692 l64 18 l171 -597 l163 566 Z" /><glyph glyph-name="X" unicode="X" d="M75 710 l197 -300 l197 300 l55 -36 l-213 -324 l211 -324 l-55 -36 l-195 300 l-195 -300 l-55 36 l211 324 l-213 324 l55 36 Z" /><glyph glyph-name="Y" unicode="Y" d="M312 0 l-65 0 l0 264 l-237 412 l58 34 l212 -368 l212 368 l58 -34 l-238 -413 l0 -263 Z" /><glyph glyph-name="Z" unicode="Z" d="M106 65 l384 0 l0 -65 l-470 0 l0 62 l389 573 l-384 0 l0 65 l470 0 l0 -64 l-389 -571 Z" /><glyph glyph-name="bracketleft" unicode="[" d="M224 -168 l-184 0 l0 868 l184 0 l0 -65 l-119 0 l0 -738 l119 0 l0 -65 Z" /><glyph glyph-name="backslash" unicode="\" d="M53 712 l453 -692 l-53 -34 l-453 693 l53 33 Z" /><glyph glyph-name="bracketright" unicode="]" d="M184 700 l0 -868 l-184 0 l0 65 l119 0 l0 738 l-119 0 l0 65 l184 0 Z" /><glyph glyph-name="asciicircum" unicode="^" d="M212 700 l46 0 l212 -288 l-52 -38 l-183 247 l-183 -247 l-52 38 l212 288 Z" /><glyph glyph-name="underscore" unicode="_" d="M0 -65 l0 65 l446 0 l0 -65 l-446 0 Z" /><glyph glyph-name="grave" unicode="`" d="M69 700 l141 -220 l-56 0 l-164 220 l79 0 Z" /><glyph glyph-name="a" unicode="a" d="M473 451 l0 -331 l28 -113 l-62 -15 l-16 64 l-56 -56 l-234 0 l-83 82 l0 145 l83 82 l275 0 l0 115 l-45 44 l-192 0 l-87 -30 l-21 61 l101 34 l226 0 l83 -82 ZM341 65 l67 67 l0 112 l-248 0 l-45 -44 l0 -91 l45 -44 l181 0 Z" /><glyph glyph-name="b" unicode="b" d="M144 501 l32 32 l243 0 l82 -82 l0 -369 l-82 -82 l-258 0 l-82 82 l0 517 l-29 88 l61 20 l33 -101 l0 -105 ZM144 408 l0 -300 l43 -43 l206 0 l43 43 l0 317 l-43 43 l-189 0 l-60 -60 Z" /><glyph glyph-name="c" unicode="c" d="M376 65 l88 28 l20 -61 l-102 -32 l-240 0 l-82 83 l0 367 l82 83 l258 0 l82 -83 l0 -110 l-65 0 l0 86 l-43 42 l-206 0 l-43 -42 l0 -319 l43 -42 l208 0 Z" /><glyph glyph-name="d" unicode="d" d="M417 408 l-60 60 l-189 0 l-43 -43 l0 -317 l43 -43 l182 0 l67 67 l0 276 ZM417 501 l0 199 l65 0 l0 -580 l28 -113 l-62 -15 l-16 64 l-56 -56 l-235 0 l-81 81 l0 371 l81 81 l244 0 l32 -32 Z" /><glyph glyph-name="e" unicode="e" d="M376 65 l88 28 l20 -61 l-102 -32 l-240 0 l-82 82 l0 369 l82 82 l258 0 l82 -82 l0 -147 l-82 -81 l-275 0 l0 -114 l44 -44 l207 0 ZM169 468 l-44 -44 l0 -136 l248 0 l44 44 l0 92 l-44 44 l-204 0 Z" /><glyph glyph-name="f" unicode="f" d="M105 402 l-85 0 l0 65 l85 0 l0 151 l83 82 l133 0 l102 -34 l-22 -61 l-87 30 l-101 0 l-43 -43 l0 -125 l169 0 l0 -65 l-169 0 l0 -402 l-65 0 l0 402 Z" /><glyph glyph-name="g" unicode="g" d="M155 125 l-20 19 l-16 -16 l0 -46 l23 -23 l278 0 l60 -60 l0 -107 l-60 -60 l-295 0 l-75 73 l44 46 l56 -54 l242 0 l23 23 l0 51 l-23 23 l-279 0 l-60 60 l0 102 l35 35 l-35 35 l0 225 l82 82 l225 0 l113 28 l15 -62 l-63 -16 l55 -55 l0 -221 l-82 -82 l-243 0 ZM348 468 l-186 0 l-44 -44 l0 -171 l63 -63 l190 0 l44 44 l0 167 l-67 67 Z" /><glyph glyph-name="h" unicode="h" d="M144 408 l0 -408 l-65 0 l0 599 l-29 88 l61 20 l33 -101 l0 -105 l32 32 l242 0 l82 -82 l0 -451 l-65 0 l0 425 l-43 43 l-188 0 l-60 -60 Z" /><glyph glyph-name="i" unicode="i" d="M79 433 l-29 88 l61 20 l33 -101 l0 -440 l-65 0 l0 433 ZM90 605 l-24 24 l0 42 l24 24 l42 0 l24 -24 l0 -42 l-24 -24 l-42 0 Z" /><glyph glyph-name="j" unicode="j" d="M91 -127 l-140 -51 l-21 61 l116 40 l31 45 l0 465 l-29 88 l61 20 l33 -101 l0 -486 l-51 -81 ZM88 605 l-24 24 l0 42 l24 24 l42 0 l24 -24 l0 -42 l-24 -24 l-42 0 Z" /><glyph glyph-name="k" unicode="k" d="M144 606 l0 -329 l301 266 l43 -48 l-208 -184 l213 -282 l-52 -39 l-210 278 l-87 -76 l0 -192 l-65 0 l0 599 l-29 88 l61 20 l33 -101 Z" /><glyph glyph-name="l" unicode="l" d="M144 606 l0 -606 l-65 0 l0 599 l-29 88 l61 20 l33 -101 Z" /><glyph glyph-name="m" unicode="m" d="M78 0 l0 413 l-28 113 l62 15 l16 -64 l56 56 l192 0 l49 -49 l49 49 l215 0 l82 -83 l0 -450 l-65 0 l0 423 l-45 45 l-160 0 l-44 -44 l0 -424 l-65 0 l0 423 l-45 45 l-137 0 l-67 -67 l0 -401 l-65 0 Z" /><glyph glyph-name="n" unicode="n" d="M78 0 l0 413 l-28 113 l62 15 l16 -64 l56 56 l235 0 l82 -82 l0 -451 l-65 0 l0 423 l-45 45 l-181 0 l-67 -67 l0 -401 l-65 0 Z" /><glyph glyph-name="o" unicode="o" d="M487 83 l-82 -83 l-263 0 l-82 83 l0 367 l82 83 l263 0 l82 -83 l0 -367 ZM169 65 l209 0 l44 45 l0 313 l-44 45 l-209 0 l-44 -45 l0 -313 l44 -45 Z" /><glyph glyph-name="p" unicode="p" d="M143 125 l60 -60 l189 0 l43 43 l0 317 l-43 43 l-182 0 l-67 -67 l0 -276 ZM143 32 l0 -200 l-65 0 l0 581 l-28 113 l62 15 l16 -64 l56 56 l235 0 l81 -81 l0 -371 l-81 -81 l-244 0 l-32 32 Z" /><glyph glyph-name="q" unicode="q" d="M417 32 l-32 -32 l-243 0 l-82 82 l0 369 l82 82 l258 0 l82 -82 l0 -517 l29 -88 l-61 -20 l-33 101 l0 105 ZM417 125 l0 300 l-43 43 l-206 0 l-43 -43 l0 -317 l43 -43 l189 0 l60 60 Z" /><glyph glyph-name="r" unicode="r" d="M335 468 l-125 0 l-67 -67 l0 -401 l-65 0 l0 413 l-28 113 l62 15 l16 -64 l56 56 l178 0 l97 -95 l-45 -47 l-79 77 Z" /><glyph glyph-name="s" unicode="s" d="M380 170 l-11 22 l-306 108 l-31 60 l0 91 l82 82 l232 0 l101 -34 l-21 -61 l-87 30 l-197 0 l-45 -45 l0 -47 l11 -23 l306 -108 l31 -59 l0 -104 l-82 -82 l-232 0 l-101 32 l20 62 l89 -29 l196 0 l45 45 l0 60 Z" /><glyph glyph-name="t" unicode="t" d="M115 445 l-95 0 l0 65 l95 0 l0 160 l65 0 l0 -160 l170 0 l0 -65 l-170 0 l0 -336 l44 -44 l94 0 l90 28 l20 -61 l-102 -32 l-129 0 l-82 82 l0 363 Z" /><glyph glyph-name="u" unicode="u" d="M483 533 l0 -413 l28 -113 l-62 -15 l-16 64 l-56 -56 l-235 0 l-82 82 l0 451 l65 0 l0 -423 l45 -45 l181 0 l67 67 l0 401 l65 0 Z" /><glyph glyph-name="v" unicode="v" d="M283 0 l-66 0 l-207 519 l60 24 l180 -453 l180 453 l60 -24 l-207 -519 Z" /><glyph glyph-name="w" unicode="w" d="M329 511 l70 0 l128 -400 l128 432 l63 -19 l-156 -524 l-68 0 l-130 406 l-130 -406 l-68 0 l-156 524 l63 19 l128 -432 l128 400 Z" /><glyph glyph-name="x" unicode="x" d="M226 323 l163 220 l53 -39 l-176 -238 l175 -237 l-53 -39 l-162 219 l-162 -219 l-53 39 l175 237 l-176 238 l53 39 l163 -220 Z" /><glyph glyph-name="y" unicode="y" d="M214 -168 l-128 0 l0 65 l103 0 l27 27 l25 76 l-18 0 l-213 518 l62 25 l193 -471 l157 471 l61 -20 l-210 -632 l-59 -59 Z" /><glyph glyph-name="z" unicode="z" d="M346 468 l-324 0 l0 65 l410 0 l0 -65 l-326 -403 l324 0 l0 -65 l-410 0 l0 64 l326 404 Z" /><glyph glyph-name="braceleft" unicode="{" d="M108 169 l-88 77 l0 44 l88 77 l0 207 l69 109 l127 31 l15 -62 l-103 -25 l-43 -66 l0 -225 l-78 -68 l78 -68 l0 -225 l43 -66 l103 -25 l-15 -62 l-127 31 l-69 109 l0 207 Z" /><glyph glyph-name="bar" unicode="|" d="M146 -168 l-66 0 l0 868 l66 0 l0 -868 Z" /><glyph glyph-name="braceright" unicode="}" d="M299 246 l-88 -77 l0 -207 l-69 -109 l-127 -31 l-15 62 l103 25 l43 66 l0 225 l78 68 l-78 68 l0 225 l-43 66 l-103 25 l15 62 l127 -31 l69 -109 l0 -207 l88 -77 l0 -44 Z" /><glyph glyph-name="asciitilde" unicode="~" d="M377 363 l-103 -103 l-137 0 l-117 117 l47 46 l99 -98 l81 0 l103 103 l137 0 l117 -117 l-47 -46 l-99 98 l-81 0 Z" /><glyph glyph-name="cent" unicode="¢" d="M310 533 l90 0 l82 -83 l0 -110 l-65 0 l0 86 l-43 42 l-206 0 l-43 -42 l0 -319 l43 -42 l208 0 l88 28 l20 -61 l-102 -32 l-73 0 l0 -70 l-65 0 l0 70 l-102 0 l-82 83 l0 367 l82 83 l103 0 l0 70 l65 0 l0 -70 Z" /><glyph glyph-name="currency" unicode="¤" d="M404 635 l-289 0 l0 -250 l289 0 l66 65 l0 120 l-66 65 ZM394 295 l81 -223 l69 -23 l-21 -62 l-102 34 l-79 219 l-227 0 l0 -240 l-65 0 l0 240 l-50 0 l0 55 l50 0 l0 35 l-50 0 l0 55 l50 0 l0 315 l382 0 l103 -102 l0 -176 l-93 -92 l-327 0 l0 -35 l279 0 Z" /><glyph glyph-name="yen" unicode="¥" d="M85 263 l0 65 l125 0 l-200 348 l58 34 l212 -368 l212 368 l58 -34 l-201 -348 l125 0 l0 -65 l-162 0 l0 -48 l162 0 l0 -65 l-162 0 l0 -150 l-65 0 l0 150 l-162 0 l0 65 l162 0 l0 48 l-162 0 Z" /><glyph glyph-name="brokenbar" unicode="¦" d="M146 700 l0 -372 l-66 0 l0 372 l66 0 ZM146 -168 l-66 0 l0 372 l66 0 l0 -372 Z" /><glyph glyph-name="section" unicode="§" d="M110 237 l12 -22 l206 -94 l75 82 l0 93 l-12 22 l-207 93 l-74 -81 l0 -93 ZM45 223 l0 132 l78 84 l-32 15 l-31 58 l0 106 l82 82 l230 0 l101 -34 l-21 -61 l-87 30 l-196 0 l-44 -45 l0 -65 l13 -22 l299 -135 l31 -58 l0 -132 l-77 -84 l31 -15 l31 -58 l0 -107 l-82 -82 l-230 0 l-101 34 l21 61 l87 -30 l196 0 l44 45 l0 65 l-13 23 l-299 135 l-31 58 Z" /><glyph glyph-name="copyright" unicode="©" d="M799 577 l0 -454 l-136 -123 l-467 0 l-136 123 l0 454 l136 123 l467 0 l136 -123 ZM734 153 l0 394 l-98 88 l-413 0 l-98 -88 l0 -394 l98 -88 l413 0 l98 88 ZM494 210 l88 28 l20 -61 l-102 -32 l-165 0 l-82 83 l0 244 l82 83 l184 0 l82 -83 l0 -75 l-65 0 l0 49 l-43 44 l-132 0 l-43 -44 l0 -192 l43 -44 l133 0 Z" /><glyph glyph-name="guillemotleft" unicode="«" d="M544 3 l-303 260 l303 260 l43 -49 l-245 -211 l245 -211 l-43 -49 ZM323 3 l-303 260 l303 260 l43 -49 l-245 -211 l245 -211 l-43 -49 Z" /><glyph glyph-name="logicalnot" unicode="¬" d="M324 212 l0 100 l-304 0 l0 65 l370 0 l0 -165 l-66 0 Z" /><glyph glyph-name="uni00AD" unicode="­" d="M20 312 l0 65 l410 0 l0 -65 l-410 0 Z" /><glyph glyph-name="registered" unicode="®" d="M552 449 l-42 41 l-178 0 l0 -129 l178 0 q26 26 42 41 l0 47 ZM617 473 l0 -95 l-83 -82 l-42 0 l123 -123 l-46 -47 l-170 170 l-67 0 l0 -151 l-65 0 l0 410 l267 0 l83 -82 ZM799 577 l0 -454 l-136 -123 l-467 0 l-136 123 l0 454 l136 123 l467 0 l136 -123 ZM734 153 l0 394 l-98 88 l-413 0 l-98 -88 l0 -394 l98 -88 l413 0 l98 88 Z" /><glyph glyph-name="degree" unicode="°" d="M112 700 l126 0 l82 -82 l0 -126 l-82 -82 l-126 0 l-82 82 l0 126 l82 82 ZM211 635 l-72 0 l-44 -44 l0 -72 l44 -44 l72 0 l44 44 l0 72 l-44 44 Z" /><glyph glyph-name="plusminus" unicode="±" d="M202 560 l65 0 l0 -163 l183 0 l0 -65 l-183 0 l0 -162 l-65 0 l0 162 l-182 0 l0 65 l182 0 l0 163 ZM30 70 l0 60 l410 0 l0 -60 l-410 0 Z" /><glyph glyph-name="mu" unicode="µ" d="M483 533 l0 -413 l28 -113 l-62 -15 l-16 64 l-56 -56 l-235 0 l-17 17 l0 -185 l-65 0 l0 701 l65 0 l0 -423 l45 -45 l181 0 l67 67 l0 401 l65 0 Z" /><glyph glyph-name="paragraph" unicode="¶" d="M314 -168 l-65 0 l0 350 l-116 0 l-103 105 l0 311 l103 102 l181 0 l0 -868 ZM441 -168 l-65 0 l0 868 l65 0 l0 -868 Z" /><glyph glyph-name="periodcentered" unicode="·" d="M129 305 l-24 24 l0 42 l24 24 l42 0 l24 -24 l0 -42 l-24 -24 l-42 0 Z" /><glyph glyph-name="guillemotright" unicode="»" d="M356 263 l-303 -260 l-43 49 l245 211 l-245 211 l43 49 l303 -260 ZM577 263 l-303 -260 l-43 49 l245 211 l-245 211 l43 49 l303 -260 Z" /><glyph glyph-name="Agrave" unicode="À" d="M155 212 l-72 -222 l-63 20 l223 690 l92 0 l223 -690 l-63 -20 l-72 222 l-268 0 ZM176 277 l226 0 l-113 350 l-113 -350 ZM206 945 l128 -200 l-56 0 l-151 200 l79 0 Z" /><glyph glyph-name="Aacute" unicode="Á" d="M155 212 l-72 -222 l-63 20 l223 690 l92 0 l223 -690 l-63 -20 l-72 222 l-268 0 ZM176 277 l226 0 l-113 350 l-113 -350 ZM243 745 l128 200 l79 0 l-151 -200 l-56 0 Z" /><glyph glyph-name="Acircumflex" unicode="Â" d="M155 212 l-72 -222 l-63 20 l223 690 l92 0 l223 -690 l-63 -20 l-72 222 l-268 0 ZM176 277 l226 0 l-113 350 l-113 -350 ZM134 745 l120 135 l0 -75 l-64 -60 l-56 0 ZM387 745 l-64 60 l0 75 l120 -135 l-56 0 Z" /><glyph glyph-name="Atilde" unicode="Ã" d="M155 212 l-72 -222 l-63 20 l223 690 l92 0 l223 -690 l-63 -20 l-72 222 l-268 0 ZM176 277 l226 0 l-113 350 l-113 -350 ZM335 815 l-76 -70 l-61 0 l-84 84 l47 46 l66 -65 l11 0 l76 70 l61 0 l84 -84 l-47 -46 l-66 65 l-11 0 Z" /><glyph glyph-name="Adieresis" unicode="Ä" d="M155 212 l-72 -222 l-63 20 l223 690 l92 0 l223 -690 l-63 -20 l-72 222 l-268 0 ZM176 277 l226 0 l-113 350 l-113 -350 ZM178 768 l-24 24 l0 42 l24 24 l42 0 l24 -24 l0 -42 l-24 -24 l-42 0 ZM358 768 l-24 24 l0 42 l24 24 l42 0 l24 -24 l0 -42 l-24 -24 l-42 0 Z" /><glyph glyph-name="Aring" unicode="Å" d="M248 845 l81 0 l62 -62 l0 -81 l-43 -43 l210 -649 l-63 -20 l-72 222 l-268 0 l-72 -222 l-63 20 l209 648 l-43 44 l0 81 l62 62 ZM176 277 l226 0 l-113 350 l-113 -350 ZM307 785 l-37 0 l-24 -24 l0 -37 l24 -24 l37 0 l24 24 l0 37 l-24 24 Z" /><glyph glyph-name="AE" unicode="Æ" d="M435 0 l0 212 l-252 0 l-114 -222 l-59 30 l348 680 l480 0 l0 -65 l-338 0 l0 -232 l296 0 l0 -65 l-296 0 l0 -273 l338 0 l0 -65 l-403 0 ZM399 635 l-183 -358 l219 0 l0 358 l-36 0 Z" /><glyph glyph-name="Ccedilla" unicode="Ç" d="M260 -89 l0 89 l-97 0 l-103 103 l0 494 l103 103 l279 0 l103 -103 l0 -112 l-65 0 l0 85 l-65 65 l-225 0 l-65 -65 l0 -440 l65 -65 l236 0 l76 76 l47 -46 l-95 -95 l-129 0 l0 -24 l35 0 l62 -62 l0 -80 l-62 -62 l-115 0 l0 65 l88 0 l24 24 l0 26 l-24 24 l-73 0 Z" /><glyph glyph-name="Egrave" unicode="È" d="M80 0 l0 700 l433 0 l0 -65 l-368 0 l0 -232 l326 0 l0 -65 l-326 0 l0 -273 l368 0 l0 -65 l-433 0 ZM230 955 l128 -200 l-56 0 l-151 200 l79 0 Z" /><glyph glyph-name="Eacute" unicode="É" d="M80 0 l0 700 l433 0 l0 -65 l-368 0 l0 -232 l326 0 l0 -65 l-326 0 l0 -273 l368 0 l0 -65 l-433 0 ZM266 755 l128 200 l79 0 l-151 -200 l-56 0 Z" /><glyph glyph-name="Ecircumflex" unicode="Ê" d="M80 0 l0 700 l433 0 l0 -65 l-368 0 l0 -232 l326 0 l0 -65 l-326 0 l0 -273 l368 0 l0 -65 l-433 0 ZM144 745 l120 135 l0 -75 l-64 -60 l-56 0 ZM397 745 l-64 60 l0 75 l120 -135 l-56 0 Z" /><glyph glyph-name="Edieresis" unicode="Ë" d="M80 0 l0 700 l433 0 l0 -65 l-368 0 l0 -232 l326 0 l0 -65 l-326 0 l0 -273 l368 0 l0 -65 l-433 0 ZM190 788 l-24 24 l0 42 l24 24 l42 0 l24 -24 l0 -42 l-24 -24 l-42 0 ZM370 788 l-24 24 l0 42 l24 24 l42 0 l24 -24 l0 -42 l-24 -24 l-42 0 Z" /><glyph glyph-name="Igrave" unicode="Ì" d="M327 0 l-297 0 l0 65 l116 0 l0 570 l-116 0 l0 65 l297 0 l0 -65 l-116 0 l0 -570 l116 0 l0 -65 ZM96 955 l128 -200 l-56 0 l-151 200 l79 0 Z" /><glyph glyph-name="Iacute" unicode="Í" d="M327 0 l-297 0 l0 65 l116 0 l0 570 l-116 0 l0 65 l297 0 l0 -65 l-116 0 l0 -570 l116 0 l0 -65 ZM142 755 l128 200 l79 0 l-151 -200 l-56 0 Z" /><glyph glyph-name="Icircumflex" unicode="Î" d="M327 0 l-297 0 l0 65 l116 0 l0 570 l-116 0 l0 65 l297 0 l0 -65 l-116 0 l0 -570 l116 0 l0 -65 ZM24 745 l120 135 l0 -75 l-64 -60 l-56 0 ZM277 745 l-64 60 l0 75 l120 -135 l-56 0 Z" /><glyph glyph-name="Idieresis" unicode="Ï" d="M327 0 l-297 0 l0 65 l116 0 l0 570 l-116 0 l0 65 l297 0 l0 -65 l-116 0 l0 -570 l116 0 l0 -65 ZM68 775 l-24 24 l0 42 l24 24 l42 0 l24 -24 l0 -42 l-24 -24 l-42 0 ZM248 775 l-24 24 l0 42 l24 24 l42 0 l24 -24 l0 -42 l-24 -24 l-42 0 Z" /><glyph glyph-name="Ntilde" unicode="Ñ" d="M493 0 l-348 587 l0 -587 l-65 0 l0 700 l73 0 l348 -587 l0 587 l65 0 l0 -700 l-73 0 ZM373 815 l-76 -70 l-61 0 l-84 84 l47 46 l66 -65 l11 0 l76 70 l61 0 l84 -84 l-47 -46 l-66 65 l-11 0 Z" /><glyph glyph-name="Ograve" unicode="Ò" d="M173 700 l289 0 l113 -103 l0 -494 l-113 -103 l-289 0 l-113 103 l0 494 l113 103 ZM510 570 l-72 65 l-241 0 l-72 -65 l0 -440 l72 -65 l241 0 l72 65 l0 440 ZM244 955 l128 -200 l-56 0 l-151 200 l79 0 Z" /><glyph glyph-name="Oacute" unicode="Ó" d="M173 700 l289 0 l113 -103 l0 -494 l-113 -103 l-289 0 l-113 103 l0 494 l113 103 ZM510 570 l-72 65 l-241 0 l-72 -65 l0 -440 l72 -65 l241 0 l72 65 l0 440 ZM281 755 l128 200 l79 0 l-151 -200 l-56 0 Z" /><glyph glyph-name="Ocircumflex" unicode="Ô" d="M462 700 l113 -103 l0 -494 l-113 -103 l-289 0 l-113 103 l0 494 l113 103 l289 0 ZM438 635 l-241 0 l-72 -65 l0 -440 l72 -65 l241 0 l72 65 l0 440 l-72 65 ZM167 745 l120 135 l0 -75 l-64 -60 l-56 0 ZM420 745 l-64 60 l0 75 l120 -135 l-56 0 Z" /><glyph glyph-name="Otilde" unicode="Õ" d="M173 700 l289 0 l113 -103 l0 -494 l-113 -103 l-289 0 l-113 103 l0 494 l113 103 ZM510 570 l-72 65 l-241 0 l-72 -65 l0 -440 l72 -65 l241 0 l72 65 l0 440 ZM373 815 l-76 -70 l-61 0 l-84 84 l47 46 l66 -65 l11 0 l76 70 l61 0 l84 -84 l-47 -46 l-66 65 l-11 0 Z" /><glyph glyph-name="Odieresis" unicode="Ö" d="M173 700 l289 0 l113 -103 l0 -494 l-113 -103 l-289 0 l-113 103 l0 494 l113 103 ZM510 570 l-72 65 l-241 0 l-72 -65 l0 -440 l72 -65 l241 0 l72 65 l0 440 ZM207 788 l-24 24 l0 42 l24 24 l42 0 l24 -24 l0 -42 l-24 -24 l-42 0 ZM387 788 l-24 24 l0 42 l24 24 l42 0 l24 -24 l0 -42 l-24 -24 l-42 0 Z" /><glyph glyph-name="multiply" unicode="×" d="M19 474 l46 46 l130 -130 l129 130 l46 -46 l-129 -130 l128 -128 l-46 -46 l-128 128 l-129 -128 l-46 46 l129 128 l-130 130 Z" /><glyph glyph-name="Oslash" unicode="Ø" d="M65 20 l32 49 l-37 34 l0 494 l113 103 l289 0 l30 -28 l26 40 l53 -33 l-32 -49 l36 -33 l0 -494 l-113 -103 l-289 0 l-29 26 l-26 -40 l-53 34 ZM125 570 l0 -440 l7 -7 l324 495 l-18 17 l-241 0 l-72 -65 ZM510 570 l-7 6 l-324 -496 l18 -15 l241 0 l72 65 l0 440 Z" /><glyph glyph-name="Ugrave" unicode="Ù" d="M173 0 l-103 102 l0 598 l65 0 l0 -570 l66 -65 l223 0 l66 65 l0 570 l65 0 l0 -598 l-103 -102 l-279 0 ZM258 935 l128 -200 l-56 0 l-151 200 l79 0 Z" /><glyph glyph-name="Uacute" unicode="Ú" d="M173 0 l-103 102 l0 598 l65 0 l0 -570 l66 -65 l223 0 l66 65 l0 570 l65 0 l0 -598 l-103 -102 l-279 0 ZM275 735 l128 200 l79 0 l-151 -200 l-56 0 Z" /><glyph glyph-name="Ucircumflex" unicode="Û" d="M173 0 l-103 102 l0 598 l65 0 l0 -570 l66 -65 l223 0 l66 65 l0 570 l65 0 l0 -598 l-103 -102 l-279 0 ZM158 745 l120 135 l0 -75 l-64 -60 l-56 0 ZM411 745 l-64 60 l0 75 l120 -135 l-56 0 Z" /><glyph glyph-name="Udieresis" unicode="Ü" d="M173 0 l-103 102 l0 598 l65 0 l0 -570 l66 -65 l223 0 l66 65 l0 570 l65 0 l0 -598 l-103 -102 l-279 0 ZM202 768 l-24 24 l0 42 l24 24 l42 0 l24 -24 l0 -42 l-24 -24 l-42 0 ZM382 768 l-24 24 l0 42 l24 24 l42 0 l24 -24 l0 -42 l-24 -24 l-42 0 Z" /><glyph glyph-name="Yacute" unicode="Ý" d="M312 0 l-65 0 l0 264 l-237 412 l58 34 l212 -368 l212 368 l58 -34 l-238 -413 l0 -263 ZM244 735 l128 200 l79 0 l-151 -200 l-56 0 Z" /><glyph glyph-name="germandbls" unicode="ß" d="M145 591 l0 -591 l-65 0 l0 617 l83 83 l278 0 l83 -83 l0 -101 l-130 -114 l0 -47 l11 -23 l119 -42 l31 -59 l0 -149 l-82 -82 l-162 0 l-101 32 l20 62 l89 -29 l126 0 l45 45 l0 105 l-11 22 l-119 42 l-31 60 l0 91 l130 114 l0 47 l-44 44 l-226 0 l-44 -44 Z" /><glyph glyph-name="agrave" unicode="à" d="M473 451 l0 -331 l28 -113 l-62 -15 l-16 64 l-56 -56 l-234 0 l-83 82 l0 145 l83 82 l275 0 l0 115 l-45 44 l-192 0 l-87 -30 l-21 61 l101 34 l226 0 l83 -82 ZM341 65 l67 67 l0 112 l-248 0 l-45 -44 l0 -91 l45 -44 l181 0 ZM197 778 l128 -200 l-56 0 l-151 200 l79 0 Z" /><glyph glyph-name="aacute" unicode="á" d="M473 451 l0 -331 l28 -113 l-62 -15 l-16 64 l-56 -56 l-234 0 l-83 82 l0 145 l83 82 l275 0 l0 115 l-45 44 l-192 0 l-87 -30 l-21 61 l101 34 l226 0 l83 -82 ZM341 65 l67 67 l0 112 l-248 0 l-45 -44 l0 -91 l45 -44 l181 0 ZM237 578 l128 200 l79 0 l-151 -200 l-56 0 Z" /><glyph glyph-name="acircumflex" unicode="â" d="M473 451 l0 -331 l28 -113 l-62 -15 l-16 64 l-56 -56 l-234 0 l-83 82 l0 145 l83 82 l275 0 l0 115 l-45 44 l-192 0 l-87 -30 l-21 61 l101 34 l226 0 l83 -82 ZM341 65 l67 67 l0 112 l-248 0 l-45 -44 l0 -91 l45 -44 l181 0 ZM124 578 l120 135 l69 0 l120 -135 l-56 0 l-99 93 l-98 -93 l-56 0 Z" /><glyph glyph-name="atilde" unicode="ã" d="M473 451 l0 -331 l28 -113 l-62 -15 l-16 64 l-56 -56 l-234 0 l-83 82 l0 145 l83 82 l275 0 l0 115 l-45 44 l-192 0 l-87 -30 l-21 61 l101 34 l226 0 l83 -82 ZM341 65 l67 67 l0 112 l-248 0 l-45 -44 l0 -91 l45 -44 l181 0 ZM316 648 l-76 -70 l-61 0 l-84 84 l47 46 l66 -65 l11 0 l76 70 l61 0 l84 -84 l-47 -46 l-66 65 l-11 0 Z" /><glyph glyph-name="adieresis" unicode="ä" d="M473 451 l0 -331 l28 -113 l-62 -15 l-16 64 l-56 -56 l-234 0 l-83 82 l0 145 l83 82 l275 0 l0 115 l-45 44 l-192 0 l-87 -30 l-21 61 l101 34 l226 0 l83 -82 ZM341 65 l67 67 l0 112 l-248 0 l-45 -44 l0 -91 l45 -44 l181 0 ZM168 605 l-24 24 l0 42 l24 24 l42 0 l24 -24 l0 -42 l-24 -24 l-42 0 ZM348 605 l-24 24 l0 42 l24 24 l42 0 l24 -24 l0 -42 l-24 -24 l-42 0 Z" /><glyph glyph-name="aring" unicode="å" d="M473 451 l0 -331 l28 -113 l-62 -15 l-16 64 l-56 -56 l-234 0 l-83 82 l0 145 l83 82 l275 0 l0 115 l-45 44 l-192 0 l-87 -30 l-21 61 l101 34 l226 0 l83 -82 ZM341 65 l67 67 l0 112 l-248 0 l-45 -44 l0 -91 l45 -44 l181 0 ZM231 783 l81 0 l62 -62 l0 -81 l-62 -62 l-81 0 l-62 62 l0 81 l62 62 ZM290 723 l-37 0 l-24 -24 l0 -37 l24 -24 l37 0 l24 24 l0 37 l-24 24 Z" /><glyph glyph-name="ae" unicode="æ" d="M684 65 l88 28 l20 -61 l-102 -32 l-220 0 l-62 61 l-61 -61 l-214 0 l-83 82 l0 135 l83 82 l255 0 l0 125 l-45 44 l-172 0 l-87 -30 l-21 61 l101 34 l206 0 l50 -50 l50 50 l238 0 l82 -82 l0 -136 l-82 -81 l-255 0 l0 -125 l44 -44 l187 0 ZM497 468 l-44 -44 l0 -125 l228 0 l44 44 l0 81 l-44 44 l-184 0 ZM321 65 l67 67 l0 102 l-228 0 l-45 -44 l0 -81 l45 -44 l161 0 Z" /><glyph glyph-name="ccedilla" unicode="ç" d="M235 -89 l0 89 l-93 0 l-82 83 l0 367 l82 83 l258 0 l82 -83 l0 -110 l-65 0 l0 86 l-43 42 l-206 0 l-43 -42 l0 -319 l43 -42 l208 0 l88 28 l20 -61 l-102 -32 l-82 0 l0 -24 l35 0 l62 -62 l0 -80 l-62 -62 l-115 0 l0 65 l88 0 l24 24 l0 26 l-24 24 l-73 0 Z" /><glyph glyph-name="egrave" unicode="è" d="M376 65 l88 28 l20 -61 l-102 -32 l-240 0 l-82 82 l0 369 l82 82 l258 0 l82 -82 l0 -147 l-82 -81 l-275 0 l0 -114 l44 -44 l207 0 ZM169 468 l-44 -44 l0 -136 l248 0 l44 44 l0 92 l-44 44 l-204 0 ZM182 778 l128 -200 l-56 0 l-151 200 l79 0 Z" /><glyph glyph-name="eacute" unicode="é" d="M376 65 l88 28 l20 -61 l-102 -32 l-240 0 l-82 82 l0 369 l82 82 l258 0 l82 -82 l0 -147 l-82 -81 l-275 0 l0 -114 l44 -44 l207 0 ZM169 468 l-44 -44 l0 -136 l248 0 l44 44 l0 92 l-44 44 l-204 0 ZM238 578 l128 200 l79 0 l-151 -200 l-56 0 Z" /><glyph glyph-name="ecircumflex" unicode="ê" d="M376 65 l88 28 l20 -61 l-102 -32 l-240 0 l-82 82 l0 369 l82 82 l258 0 l82 -82 l0 -147 l-82 -81 l-275 0 l0 -114 l44 -44 l207 0 ZM169 468 l-44 -44 l0 -136 l248 0 l44 44 l0 92 l-44 44 l-204 0 ZM116 578 l120 135 l69 0 l120 -135 l-56 0 l-99 93 l-98 -93 l-56 0 Z" /><glyph glyph-name="edieresis" unicode="ë" d="M376 65 l88 28 l20 -61 l-102 -32 l-240 0 l-82 82 l0 369 l82 82 l258 0 l82 -82 l0 -147 l-82 -81 l-275 0 l0 -114 l44 -44 l207 0 ZM169 468 l-44 -44 l0 -136 l248 0 l44 44 l0 92 l-44 44 l-204 0 ZM160 605 l-24 24 l0 42 l24 24 l42 0 l24 -24 l0 -42 l-24 -24 l-42 0 ZM340 605 l-24 24 l0 42 l24 24 l42 0 l24 -24 l0 -42 l-24 -24 l-42 0 Z" /><glyph glyph-name="igrave" unicode="ì" d="M79 433 l-29 88 l61 20 l33 -101 l0 -440 l-65 0 l0 433 ZM23 778 l128 -200 l-56 0 l-151 200 l79 0 Z" /><glyph glyph-name="iacute" unicode="í" d="M79 433 l-29 88 l61 20 l33 -101 l0 -440 l-65 0 l0 433 ZM50 578 l128 200 l79 0 l-151 -200 l-56 0 Z" /><glyph glyph-name="icircumflex" unicode="î" d="M79 433 l-29 88 l61 20 l33 -101 l0 -440 l-65 0 l0 433 ZM-43 578 l120 135 l69 0 l120 -135 l-56 0 l-99 93 l-98 -93 l-56 0 Z" /><glyph glyph-name="idieresis" unicode="ï" d="M8 605 l-24 24 l0 42 l24 24 l42 0 l24 -24 l0 -42 l-24 -24 l-42 0 ZM172 605 l-24 24 l0 42 l24 24 l42 0 l24 -24 l0 -42 l-24 -24 l-42 0 ZM79 433 l-29 88 l61 20 l33 -101 l0 -440 l-65 0 l0 433 Z" /><glyph glyph-name="ntilde" unicode="ñ" d="M78 0 l0 413 l-28 113 l62 15 l16 -64 l56 56 l235 0 l82 -82 l0 -451 l-65 0 l0 423 l-45 45 l-181 0 l-67 -67 l0 -401 l-65 0 ZM344 648 l-76 -70 l-61 0 l-84 84 l47 46 l66 -65 l11 0 l76 70 l61 0 l84 -84 l-47 -46 l-66 65 l-11 0 Z" /><glyph glyph-name="ograve" unicode="ò" d="M487 83 l-82 -83 l-263 0 l-82 83 l0 367 l82 83 l263 0 l82 -83 l0 -367 ZM169 65 l209 0 l44 45 l0 313 l-44 45 l-209 0 l-44 -45 l0 -313 l44 -45 ZM180 778 l128 -200 l-56 0 l-151 200 l79 0 Z" /><glyph glyph-name="oacute" unicode="ó" d="M487 83 l-82 -83 l-263 0 l-82 83 l0 367 l82 83 l263 0 l82 -83 l0 -367 ZM169 65 l209 0 l44 45 l0 313 l-44 45 l-209 0 l-44 -45 l0 -313 l44 -45 ZM246 578 l128 200 l79 0 l-151 -200 l-56 0 Z" /><glyph glyph-name="ocircumflex" unicode="ô" d="M487 83 l-82 -83 l-263 0 l-82 83 l0 367 l82 83 l263 0 l82 -83 l0 -367 ZM169 65 l209 0 l44 45 l0 313 l-44 45 l-209 0 l-44 -45 l0 -313 l44 -45 ZM124 578 l120 135 l69 0 l120 -135 l-56 0 l-99 93 l-98 -93 l-56 0 Z" /><glyph glyph-name="otilde" unicode="õ" d="M487 83 l-82 -83 l-263 0 l-82 83 l0 367 l82 83 l263 0 l82 -83 l0 -367 ZM169 65 l209 0 l44 45 l0 313 l-44 45 l-209 0 l-44 -45 l0 -313 l44 -45 ZM333 648 l-76 -70 l-61 0 l-84 84 l47 46 l66 -65 l11 0 l76 70 l61 0 l84 -84 l-47 -46 l-66 65 l-11 0 Z" /><glyph glyph-name="odieresis" unicode="ö" d="M487 83 l-82 -83 l-263 0 l-82 83 l0 367 l82 83 l263 0 l82 -83 l0 -367 ZM169 65 l209 0 l44 45 l0 313 l-44 45 l-209 0 l-44 -45 l0 -313 l44 -45 ZM162 605 l-24 24 l0 42 l24 24 l42 0 l24 -24 l0 -42 l-24 -24 l-42 0 ZM342 605 l-24 24 l0 42 l24 24 l42 0 l24 -24 l0 -42 l-24 -24 l-42 0 Z" /><glyph glyph-name="divide" unicode="÷" d="M20 377 l430 0 l0 -65 l-430 0 l0 65 ZM213 160 l-24 24 l0 42 l24 24 l42 0 l24 -24 l0 -42 l-24 -24 l-42 0 ZM213 440 l-24 24 l0 42 l24 24 l42 0 l24 -24 l0 -42 l-24 -24 l-42 0 Z" /><glyph glyph-name="oslash" unicode="ø" d="M50 28 l28 36 l-18 19 l0 367 l82 83 l263 0 l19 -20 l23 30 l50 -38 l-29 -37 l19 -18 l0 -367 l-82 -83 l-263 0 l-20 19 l-22 -29 l-50 38 ZM169 65 l209 0 l44 45 l0 298 l-260 -337 l7 -6 ZM125 423 l0 -298 l259 336 l-6 7 l-209 0 l-44 -45 Z" /><glyph glyph-name="ugrave" unicode="ù" d="M483 533 l0 -413 l28 -113 l-62 -15 l-16 64 l-56 -56 l-235 0 l-82 82 l0 451 l65 0 l0 -423 l45 -45 l181 0 l67 67 l0 401 l65 0 ZM197 758 l128 -200 l-56 0 l-151 200 l79 0 Z" /><glyph glyph-name="uacute" unicode="ú" d="M483 533 l0 -413 l28 -113 l-62 -15 l-16 64 l-56 -56 l-235 0 l-82 82 l0 451 l65 0 l0 -423 l45 -45 l181 0 l67 67 l0 401 l65 0 ZM243 558 l128 200 l79 0 l-151 -200 l-56 0 Z" /><glyph glyph-name="ucircumflex" unicode="û" d="M483 533 l0 -413 l28 -113 l-62 -15 l-16 64 l-56 -56 l-235 0 l-82 82 l0 451 l65 0 l0 -423 l45 -45 l181 0 l67 67 l0 401 l65 0 ZM117 578 l120 135 l69 0 l120 -135 l-56 0 l-99 93 l-98 -93 l-56 0 Z" /><glyph glyph-name="udieresis" unicode="ü" d="M483 533 l0 -413 l28 -113 l-62 -15 l-16 64 l-56 -56 l-235 0 l-82 82 l0 451 l65 0 l0 -423 l45 -45 l181 0 l67 67 l0 401 l65 0 ZM160 585 l-24 24 l0 42 l24 24 l42 0 l24 -24 l0 -42 l-24 -24 l-42 0 ZM340 585 l-24 24 l0 42 l24 24 l42 0 l24 -24 l0 -42 l-24 -24 l-42 0 Z" /><glyph glyph-name="yacute" unicode="ý" d="M214 -168 l-128 0 l0 65 l103 0 l27 27 l25 76 l-18 0 l-213 518 l62 25 l193 -471 l157 471 l61 -20 l-210 -632 l-59 -59 ZM214 558 l128 200 l79 0 l-151 -200 l-56 0 Z" /><glyph glyph-name="ydieresis" unicode="ÿ" d="M214 -168 l-128 0 l0 65 l103 0 l27 27 l25 76 l-18 0 l-213 518 l62 25 l193 -471 l157 471 l61 -20 l-210 -632 l-59 -59 ZM138 585 l-24 24 l0 42 l24 24 l42 0 l24 -24 l0 -42 l-24 -24 l-42 0 ZM318 585 l-24 24 l0 42 l24 24 l42 0 l24 -24 l0 -42 l-24 -24 l-42 0 Z" /><glyph glyph-name="Amacron" unicode="&#x100;" d="M155 212 l-72 -222 l-63 20 l223 690 l92 0 l223 -690 l-63 -20 l-72 222 l-268 0 ZM176 277 l226 0 l-113 350 l-113 -350 ZM153 765 l0 65 l272 0 l0 -65 l-272 0 Z" /><glyph glyph-name="amacron" unicode="&#x101;" d="M473 451 l0 -331 l28 -113 l-62 -15 l-16 64 l-56 -56 l-234 0 l-83 82 l0 145 l83 82 l275 0 l0 115 l-45 44 l-192 0 l-87 -30 l-21 61 l101 34 l226 0 l83 -82 ZM341 65 l67 67 l0 112 l-248 0 l-45 -44 l0 -91 l45 -44 l181 0 ZM140 598 l0 65 l272 0 l0 -65 l-272 0 Z" /><glyph glyph-name="Abreve" unicode="&#x102;" d="M155 212 l-72 -222 l-63 20 l223 690 l92 0 l223 -690 l-63 -20 l-72 222 l-268 0 ZM176 277 l226 0 l-113 350 l-113 -350 ZM446 832 l-61 -60 l-192 0 l-61 60 l0 89 l65 0 l0 -61 l23 -23 l138 0 l23 23 l0 61 l65 0 l0 -89 Z" /><glyph glyph-name="abreve" unicode="&#x103;" d="M473 451 l0 -331 l28 -113 l-62 -15 l-16 64 l-56 -56 l-234 0 l-83 82 l0 145 l83 82 l275 0 l0 115 l-45 44 l-192 0 l-87 -30 l-21 61 l101 34 l226 0 l83 -82 ZM341 65 l67 67 l0 112 l-248 0 l-45 -44 l0 -91 l45 -44 l181 0 ZM428 670 l-61 -60 l-181 0 l-61 60 l0 89 l65 0 l0 -61 l23 -23 l127 0 l23 23 l0 61 l65 0 l0 -89 Z" /><glyph glyph-name="Aogonek" unicode="&#x104;" d="M405 -8 l67 67 l-49 153 l-268 0 l-72 -222 l-63 20 l223 690 l92 0 l213 -658 l-78 -77 l0 -44 l24 -24 l98 0 l0 -65 l-125 0 l-62 62 l0 98 ZM176 277 l226 0 l-113 350 l-113 -350 Z" /><glyph glyph-name="aogonek" unicode="&#x105;" d="M473 451 l0 -331 l29 -115 l-92 -72 l0 -24 l24 -21 l105 0 l0 -56 l-125 0 l-62 59 l0 62 l81 63 l-10 40 l-56 -56 l-234 0 l-83 82 l0 145 l83 82 l275 0 l0 115 l-45 44 l-192 0 l-87 -30 l-21 61 l101 34 l226 0 l83 -82 ZM341 65 l67 67 l0 112 l-248 0 l-45 -44 l0 -91 l45 -44 l181 0 Z" /><glyph glyph-name="Cacute" unicode="&#x106;" d="M426 65 l76 76 l47 -46 l-95 -95 l-291 0 l-103 103 l0 494 l103 103 l279 0 l103 -103 l0 -112 l-65 0 l0 85 l-65 65 l-225 0 l-65 -65 l0 -440 l65 -65 l236 0 ZM267 755 l128 200 l79 0 l-151 -200 l-56 0 Z" /><glyph glyph-name="cacute" unicode="&#x107;" d="M376 65 l88 28 l20 -61 l-102 -32 l-240 0 l-82 83 l0 367 l82 83 l258 0 l82 -83 l0 -110 l-65 0 l0 86 l-43 42 l-206 0 l-43 -42 l0 -319 l43 -42 l208 0 ZM238 578 l128 200 l79 0 l-151 -200 l-56 0 Z" /><glyph glyph-name="Ccaron" unicode="&#x10c;" d="M426 65 l76 76 l47 -46 l-95 -95 l-291 0 l-103 103 l0 494 l103 103 l279 0 l103 -103 l0 -112 l-65 0 l0 85 l-65 65 l-225 0 l-65 -65 l0 -440 l65 -65 l236 0 ZM269 745 l-120 135 l56 0 l98 -93 l99 93 l56 0 l-120 -135 l-69 0 Z" /><glyph glyph-name="ccaron" unicode="&#x10d;" d="M376 65 l88 28 l20 -61 l-102 -32 l-240 0 l-82 83 l0 367 l82 83 l258 0 l82 -83 l0 -110 l-65 0 l0 86 l-43 42 l-206 0 l-43 -42 l0 -319 l43 -42 l208 0 ZM245 578 l-120 135 l56 0 l98 -93 l99 93 l56 0 l-120 -135 l-69 0 Z" /><glyph glyph-name="Dcaron" unicode="&#x10e;" d="M80 700 l383 0 l103 -104 l0 -492 l-103 -104 l-383 0 l0 700 ZM501 569 l-65 66 l-291 0 l0 -570 l291 0 l65 66 l0 438 ZM269 745 l-120 135 l56 0 l98 -93 l99 93 l56 0 l-120 -135 l-69 0 Z" /><glyph glyph-name="dcaron" unicode="&#x10f;" d="M417 408 l-60 60 l-189 0 l-43 -43 l0 -317 l43 -43 l182 0 l67 67 l0 276 ZM417 501 l0 199 l65 0 l0 -580 l28 -113 l-62 -15 l-16 64 l-56 -56 l-235 0 l-81 81 l0 371 l81 81 l244 0 l32 -32 ZM518 460 l55 240 l75 0 l-85 -240 l-45 0 Z" /><glyph glyph-name="Dcroat" unicode="&#x110;" d="M-5 383 l85 0 l0 317 l383 0 l103 -104 l0 -492 l-103 -104 l-383 0 l0 318 l-85 0 l0 65 ZM501 569 l-65 66 l-291 0 l0 -252 l169 0 l0 -65 l-169 0 l0 -253 l291 0 l65 66 l0 438 Z" /><glyph glyph-name="dcroat" unicode="&#x111;" d="M248 589 l169 0 l0 111 l65 0 l0 -111 l85 0 l0 -65 l-85 0 l0 -404 l28 -113 l-62 -15 l-16 64 l-56 -56 l-235 0 l-81 81 l0 291 l81 81 l244 0 l32 -32 l0 103 l-169 0 l0 65 ZM417 328 l-60 60 l-189 0 l-43 -43 l0 -237 l43 -43 l182 0 l67 67 l0 196 Z" /><glyph glyph-name="Emacron" unicode="&#x112;" d="M80 0 l0 700 l433 0 l0 -65 l-368 0 l0 -232 l326 0 l0 -65 l-326 0 l0 -273 l368 0 l0 -65 l-433 0 ZM164 765 l0 65 l272 0 l0 -65 l-272 0 Z" /><glyph glyph-name="emacron" unicode="&#x113;" d="M376 65 l88 28 l20 -61 l-102 -32 l-240 0 l-82 82 l0 369 l82 82 l258 0 l82 -82 l0 -147 l-82 -81 l-275 0 l0 -114 l44 -44 l207 0 ZM169 468 l-44 -44 l0 -136 l248 0 l44 44 l0 92 l-44 44 l-204 0 ZM140 598 l0 65 l272 0 l0 -65 l-272 0 Z" /><glyph glyph-name="Edotaccent" unicode="&#x116;" d="M80 0 l0 700 l433 0 l0 -65 l-368 0 l0 -232 l326 0 l0 -65 l-326 0 l0 -273 l368 0 l0 -65 l-433 0 ZM274 788 l-24 24 l0 42 l24 24 l42 0 l24 -24 l0 -42 l-24 -24 l-42 0 Z" /><glyph glyph-name="edotaccent" unicode="&#x117;" d="M376 65 l88 28 l20 -61 l-102 -32 l-240 0 l-82 82 l0 369 l82 82 l258 0 l82 -82 l0 -147 l-82 -81 l-275 0 l0 -114 l44 -44 l207 0 ZM169 468 l-44 -44 l0 -136 l248 0 l44 44 l0 92 l-44 44 l-204 0 ZM244 605 l-24 24 l0 42 l24 24 l42 0 l24 -24 l0 -42 l-24 -24 l-42 0 Z" /><glyph glyph-name="Eogonek" unicode="&#x118;" d="M80 0 l0 700 l433 0 l0 -65 l-368 0 l0 -232 l326 0 l0 -65 l-326 0 l0 -273 l368 0 l0 -65 l-197 0 l0 -79 l24 -24 l98 0 l0 -65 l-125 0 l-62 62 l0 106 l-171 0 Z" /><glyph glyph-name="eogonek" unicode="&#x119;" d="M376 65 l88 28 l20 -61 l-102 -32 l-82 0 l0 -79 l24 -24 l98 0 l0 -65 l-125 0 l-62 62 l0 106 l-93 0 l-82 82 l0 369 l82 82 l258 0 l82 -82 l0 -147 l-82 -81 l-275 0 l0 -114 l44 -44 l207 0 ZM169 468 l-44 -44 l0 -136 l248 0 l44 44 l0 92 l-44 44 l-204 0 Z" /><glyph glyph-name="Ecaron" unicode="&#x11a;" d="M80 0 l0 700 l433 0 l0 -65 l-368 0 l0 -232 l326 0 l0 -65 l-326 0 l0 -273 l368 0 l0 -65 l-433 0 ZM269 745 l-120 135 l56 0 l98 -93 l99 93 l56 0 l-120 -135 l-69 0 Z" /><glyph glyph-name="ecaron" unicode="&#x11b;" d="M376 65 l88 28 l20 -61 l-102 -32 l-240 0 l-82 82 l0 369 l82 82 l258 0 l82 -82 l0 -147 l-82 -81 l-275 0 l0 -114 l44 -44 l207 0 ZM169 468 l-44 -44 l0 -136 l248 0 l44 44 l0 92 l-44 44 l-204 0 ZM245 578 l-120 135 l56 0 l98 -93 l99 93 l56 0 l-120 -135 l-69 0 Z" /><glyph glyph-name="Gbreve" unicode="&#x11e;" d="M545 598 l0 -113 l-65 0 l0 86 l-63 64 l-229 0 l-63 -64 l0 -442 l63 -64 l229 0 l63 64 l0 167 l-168 0 l0 65 l233 0 l0 -259 l-102 -102 l-281 0 l-102 102 l0 496 l102 102 l281 0 l102 -102 ZM456 832 l-61 -60 l-192 0 l-61 60 l0 89 l65 0 l0 -61 l23 -23 l138 0 l23 23 l0 61 l65 0 l0 -89 Z" /><glyph glyph-name="gbreve" unicode="&#x11f;" d="M155 125 l-20 19 l-16 -16 l0 -46 l23 -23 l278 0 l60 -60 l0 -107 l-60 -60 l-295 0 l-75 73 l44 46 l56 -54 l242 0 l23 23 l0 51 l-23 23 l-279 0 l-60 60 l0 102 l35 35 l-35 35 l0 225 l82 82 l225 0 l113 28 l15 -62 l-63 -16 l55 -55 l0 -221 l-82 -82 l-243 0 ZM348 468 l-186 0 l-44 -44 l0 -171 l63 -63 l190 0 l44 44 l0 167 l-67 67 ZM421 670 l-61 -60 l-181 0 l-61 60 l0 89 l65 0 l0 -61 l23 -23 l127 0 l23 23 l0 61 l65 0 l0 -89 Z" /><glyph glyph-name="Gcommaaccent" unicode="&#x122;" d="M545 598 l0 -113 l-65 0 l0 86 l-63 64 l-229 0 l-63 -64 l0 -442 l63 -64 l229 0 l63 64 l0 167 l-168 0 l0 65 l233 0 l0 -259 l-102 -102 l-281 0 l-102 102 l0 496 l102 102 l281 0 l102 -102 ZM222 -275 l55 240 l75 0 l-85 -240 l-45 0 Z" /><glyph glyph-name="gcommaaccent" unicode="&#x123;" d="M155 125 l-20 19 l-16 -16 l0 -46 l23 -23 l278 0 l60 -60 l0 -107 l-60 -60 l-295 0 l-75 73 l44 46 l56 -54 l242 0 l23 23 l0 51 l-23 23 l-279 0 l-60 60 l0 102 l35 35 l-35 35 l0 225 l82 82 l225 0 l113 28 l15 -62 l-63 -16 l55 -55 l0 -221 l-82 -82 l-243 0 ZM348 468 l-186 0 l-44 -44 l0 -171 l63 -63 l190 0 l44 44 l0 167 l-67 67 ZM355 818 l-55 -240 l-75 0 l85 240 l45 0 Z" /><glyph glyph-name="imacron" unicode="&#x12b;" d="M79 433 l-29 88 l61 20 l33 -101 l0 -440 l-65 0 l0 433 ZM-28 598 l0 65 l272 0 l0 -65 l-272 0 Z" /><glyph glyph-name="Iogonek" unicode="&#x12e;" d="M146 0 l-116 0 l0 65 l116 0 l0 570 l-116 0 l0 65 l297 0 l0 -65 l-116 0 l0 -570 l116 0 l0 -65 l-116 0 l0 -79 l24 -24 l98 0 l0 -65 l-125 0 l-62 62 l0 106 Z" /><glyph glyph-name="iogonek" unicode="&#x12f;" d="M79 433 l-29 88 l61 20 l33 -101 l0 -435 l-92 -72 l0 -24 l24 -21 l105 0 l0 -56 l-125 0 l-62 59 l0 62 l85 66 l0 414 ZM90 605 l-24 24 l0 42 l24 24 l42 0 l24 -24 l0 -42 l-24 -24 l-42 0 Z" /><glyph glyph-name="Idotaccent" unicode="&#x130;" d="M327 0 l-297 0 l0 65 l116 0 l0 570 l-116 0 l0 65 l297 0 l0 -65 l-116 0 l0 -570 l116 0 l0 -65 ZM157 775 l-24 24 l0 42 l24 24 l42 0 l24 -24 l0 -42 l-24 -24 l-42 0 Z" /><glyph glyph-name="dotlessi" unicode="&#x131;" d="M79 433 l-29 88 l61 20 l33 -101 l0 -440 l-65 0 l0 433 Z" /><glyph glyph-name="Kcommaaccent" unicode="&#x136;" d="M314 409 l249 -384 l-54 -35 l-241 371 l-123 -129 l0 -232 l-65 0 l0 700 l65 0 l0 -374 l365 384 l47 -45 l-243 -256 ZM222 -275 l55 240 l75 0 l-85 -240 l-45 0 Z" /><glyph glyph-name="kcommaaccent" unicode="&#x137;" d="M144 606 l0 -329 l301 266 l43 -48 l-208 -184 l213 -282 l-52 -39 l-210 278 l-87 -76 l0 -192 l-65 0 l0 599 l-29 88 l61 20 l33 -101 ZM180 -275 l55 240 l75 0 l-85 -240 l-45 0 Z" /><glyph glyph-name="Lacute" unicode="&#x139;" d="M80 0 l0 700 l65 0 l0 -635 l368 0 l0 -65 l-433 0 ZM80 745 l128 200 l79 0 l-151 -200 l-56 0 Z" /><glyph glyph-name="lacute" unicode="&#x13a;" d="M144 606 l0 -606 l-65 0 l0 599 l-29 88 l61 20 l33 -101 ZM50 745 l128 200 l79 0 l-151 -200 l-56 0 Z" /><glyph glyph-name="Lcommaaccent" unicode="&#x13b;" d="M80 0 l0 700 l65 0 l0 -635 l368 0 l0 -65 l-433 0 ZM214 -275 l55 240 l75 0 l-85 -240 l-45 0 Z" /><glyph glyph-name="lcommaaccent" unicode="&#x13c;" d="M144 606 l0 -606 l-65 0 l0 599 l-29 88 l61 20 l33 -101 ZM26 -275 l55 240 l75 0 l-85 -240 l-45 0 Z" /><glyph glyph-name="Lcaron" unicode="&#x13d;" d="M80 0 l0 700 l65 0 l0 -635 l368 0 l0 -65 l-433 0 ZM78 735 l-120 135 l56 0 l98 -93 l99 93 l56 0 l-120 -135 l-69 0 Z" /><glyph glyph-name="lcaron" unicode="&#x13e;" d="M144 606 l0 -606 l-65 0 l0 599 l-29 88 l61 20 l33 -101 ZM180 460 l55 240 l75 0 l-85 -240 l-45 0 Z" /><glyph glyph-name="Lslash" unicode="&#x141;" d="M270 491 l0 -80 l-125 -92 l0 -254 l368 0 l0 -65 l-433 0 l0 272 l-100 -73 l0 82 l100 72 l0 347 l65 0 l0 -300 l125 91 Z" /><glyph glyph-name="lslash" unicode="&#x142;" d="M270 466 l0 -80 l-126 -92 l0 -294 l-65 0 l0 246 l-99 -72 l0 82 l99 71 l0 272 l-29 88 l61 20 l33 -101 l0 -232 l126 92 Z" /><glyph glyph-name="Nacute" unicode="&#x143;" d="M493 0 l-348 587 l0 -587 l-65 0 l0 700 l73 0 l348 -587 l0 587 l65 0 l0 -700 l-73 0 ZM284 735 l128 200 l79 0 l-151 -200 l-56 0 Z" /><glyph glyph-name="nacute" unicode="&#x144;" d="M78 0 l0 413 l-28 113 l62 15 l16 -64 l56 56 l235 0 l82 -82 l0 -451 l-65 0 l0 423 l-45 45 l-181 0 l-67 -67 l0 -401 l-65 0 ZM262 578 l128 200 l79 0 l-151 -200 l-56 0 Z" /><glyph glyph-name="Ncommaaccent" unicode="&#x145;" d="M493 0 l-348 587 l0 -587 l-65 0 l0 700 l73 0 l348 -587 l0 587 l65 0 l0 -700 l-73 0 ZM233 -275 l55 240 l75 0 l-85 -240 l-45 0 Z" /><glyph glyph-name="ncommaaccent" unicode="&#x146;" d="M78 0 l0 413 l-28 113 l62 15 l16 -64 l56 56 l235 0 l82 -82 l0 -451 l-65 0 l0 423 l-45 45 l-181 0 l-67 -67 l0 -401 l-65 0 ZM209 -275 l55 240 l75 0 l-85 -240 l-45 0 Z" /><glyph glyph-name="Ncaron" unicode="&#x147;" d="M493 0 l-348 587 l0 -587 l-65 0 l0 700 l73 0 l348 -587 l0 587 l65 0 l0 -700 l-73 0 ZM295 725 l-120 135 l56 0 l98 -93 l99 93 l56 0 l-120 -135 l-69 0 Z" /><glyph glyph-name="ncaron" unicode="&#x148;" d="M78 0 l0 413 l-28 113 l62 15 l16 -64 l56 56 l235 0 l82 -82 l0 -451 l-65 0 l0 423 l-45 45 l-181 0 l-67 -67 l0 -401 l-65 0 ZM263 578 l-120 135 l56 0 l98 -93 l99 93 l56 0 l-120 -135 l-69 0 Z" /><glyph glyph-name="Omacron" unicode="&#x14c;" d="M173 700 l289 0 l113 -103 l0 -494 l-113 -103 l-289 0 l-113 103 l0 494 l113 103 ZM510 570 l-72 65 l-241 0 l-72 -65 l0 -440 l72 -65 l241 0 l72 65 l0 440 ZM180 765 l0 65 l272 0 l0 -65 l-272 0 Z" /><glyph glyph-name="omacron" unicode="&#x14d;" d="M487 83 l-82 -83 l-263 0 l-82 83 l0 367 l82 83 l263 0 l82 -83 l0 -367 ZM169 65 l209 0 l44 45 l0 313 l-44 45 l-209 0 l-44 -45 l0 -313 l44 -45 ZM137 598 l0 65 l272 0 l0 -65 l-272 0 Z" /><glyph glyph-name="Ohungarumlaut" unicode="&#x150;" d="M173 700 l289 0 l113 -103 l0 -494 l-113 -103 l-289 0 l-113 103 l0 494 l113 103 ZM510 570 l-72 65 l-241 0 l-72 -65 l0 -440 l72 -65 l241 0 l72 65 l0 440 ZM208 755 l128 200 l79 0 l-151 -200 l-56 0 ZM354 755 l128 200 l79 0 l-151 -200 l-56 0 Z" /><glyph glyph-name="ohungarumlaut" unicode="&#x151;" d="M487 83 l-82 -83 l-263 0 l-82 83 l0 367 l82 83 l263 0 l82 -83 l0 -367 ZM169 65 l209 0 l44 45 l0 313 l-44 45 l-209 0 l-44 -45 l0 -313 l44 -45 ZM173 578 l128 200 l79 0 l-151 -200 l-56 0 ZM319 578 l128 200 l79 0 l-151 -200 l-56 0 Z" /><glyph glyph-name="OE" unicode="&#x152;" d="M173 0 l-113 103 l0 494 l113 103 l720 0 l0 -65 l-368 0 l0 -232 l326 0 l0 -65 l-326 0 l0 -273 l368 0 l0 -65 l-720 0 ZM125 130 l72 -65 l263 0 l0 570 l-263 0 l-72 -65 l0 -440 Z" /><glyph glyph-name="oe" unicode="&#x153;" d="M698 65 l88 28 l20 -61 l-102 -32 l-220 0 l-50 50 l-49 -50 l-243 0 l-82 83 l0 367 l82 83 l243 0 l49 -50 l50 50 l238 0 l82 -82 l0 -147 l-82 -81 l-255 0 l0 -114 l44 -44 l187 0 ZM169 65 l189 0 l44 45 l0 313 l-44 45 l-189 0 l-44 -45 l0 -313 l44 -45 ZM511 468 l-44 -44 l0 -136 l228 0 l44 44 l0 92 l-44 44 l-184 0 Z" /><glyph glyph-name="Racute" unicode="&#x154;" d="M145 274 l0 -274 l-65 0 l0 700 l382 0 l103 -102 l0 -222 l-103 -102 l-141 0 l242 -242 l-46 -47 l-288 289 l-84 0 ZM434 635 l-289 0 l0 -296 l289 0 l66 65 l0 166 l-66 65 ZM254 755 l128 200 l79 0 l-151 -200 l-56 0 Z" /><glyph glyph-name="racute" unicode="&#x155;" d="M335 468 l-125 0 l-67 -67 l0 -401 l-65 0 l0 413 l-28 113 l62 15 l16 -64 l56 56 l178 0 l97 -95 l-45 -47 l-79 77 ZM229 578 l128 200 l79 0 l-151 -200 l-56 0 Z" /><glyph glyph-name="Rcommaaccent" unicode="&#x156;" d="M145 274 l0 -274 l-65 0 l0 700 l382 0 l103 -102 l0 -222 l-103 -102 l-141 0 l242 -242 l-46 -47 l-288 289 l-84 0 ZM434 635 l-289 0 l0 -296 l289 0 l66 65 l0 166 l-66 65 ZM214 -275 l55 240 l75 0 l-85 -240 l-45 0 Z" /><glyph glyph-name="rcommaaccent" unicode="&#x157;" d="M335 468 l-125 0 l-67 -67 l0 -401 l-65 0 l0 413 l-28 113 l62 15 l16 -64 l56 56 l178 0 l97 -95 l-45 -47 l-79 77 ZM27 -275 l55 240 l75 0 l-85 -240 l-45 0 Z" /><glyph glyph-name="Rcaron" unicode="&#x158;" d="M145 274 l0 -274 l-65 0 l0 700 l382 0 l103 -102 l0 -222 l-103 -102 l-141 0 l242 -242 l-46 -47 l-288 289 l-84 0 ZM434 635 l-289 0 l0 -296 l289 0 l66 65 l0 166 l-66 65 ZM278 745 l-120 135 l56 0 l98 -93 l99 93 l56 0 l-120 -135 l-69 0 Z" /><glyph glyph-name="rcaron" unicode="&#x159;" d="M335 468 l-125 0 l-67 -67 l0 -401 l-65 0 l0 413 l-28 113 l62 15 l16 -64 l56 56 l178 0 l97 -95 l-45 -47 l-79 77 ZM240 578 l-120 135 l56 0 l98 -93 l99 93 l56 0 l-120 -135 l-69 0 Z" /><glyph glyph-name="Sacute" unicode="&#x15a;" d="M392 635 l-223 0 l-64 -64 l0 -72 l12 -25 l356 -173 l31 -58 l0 -141 l-102 -102 l-259 0 l-101 34 l21 61 l87 -30 l225 0 l64 64 l0 95 l-14 26 l-358 174 l-27 56 l0 118 l102 102 l262 0 l98 -33 l-20 -60 l-90 28 ZM223 755 l128 200 l79 0 l-151 -200 l-56 0 Z" /><glyph glyph-name="sacute" unicode="&#x15b;" d="M380 170 l-11 22 l-306 108 l-31 60 l0 91 l82 82 l232 0 l101 -34 l-21 -61 l-87 30 l-197 0 l-45 -45 l0 -47 l11 -23 l306 -108 l31 -59 l0 -104 l-82 -82 l-232 0 l-101 32 l20 62 l89 -29 l196 0 l45 45 l0 60 ZM204 578 l128 200 l79 0 l-151 -200 l-56 0 Z" /><glyph glyph-name="Scedilla" unicode="&#x15e;" d="M392 635 l-223 0 l-64 -64 l0 -72 l12 -25 l356 -173 l31 -58 l0 -141 l-102 -102 l-259 0 l-101 34 l21 61 l87 -30 l225 0 l64 64 l0 95 l-14 26 l-358 174 l-27 56 l0 118 l102 102 l262 0 l98 -33 l-20 -60 l-90 28 ZM180 -285 l55 240 l75 0 l-85 -240 l-45 0 Z" /><glyph glyph-name="scedilla" unicode="&#x15f;" d="M380 170 l-11 22 l-306 108 l-31 60 l0 91 l82 82 l232 0 l101 -34 l-21 -61 l-87 30 l-197 0 l-45 -45 l0 -47 l11 -23 l306 -108 l31 -59 l0 -104 l-82 -82 l-232 0 l-101 32 l20 62 l89 -29 l196 0 l45 45 l0 60 ZM155 -285 l55 240 l75 0 l-85 -240 l-45 0 Z" /><glyph glyph-name="Scaron" unicode="&#x160;" d="M392 635 l-223 0 l-64 -64 l0 -72 l12 -25 l356 -173 l31 -58 l0 -141 l-102 -102 l-259 0 l-101 34 l21 61 l87 -30 l225 0 l64 64 l0 95 l-14 26 l-358 174 l-27 56 l0 118 l102 102 l262 0 l98 -33 l-20 -60 l-90 28 ZM246 745 l-120 135 l56 0 l98 -93 l99 93 l56 0 l-120 -135 l-69 0 Z" /><glyph glyph-name="scaron" unicode="&#x161;" d="M380 170 l-11 22 l-306 108 l-31 60 l0 91 l82 82 l232 0 l101 -34 l-21 -61 l-87 30 l-197 0 l-45 -45 l0 -47 l11 -23 l306 -108 l31 -59 l0 -104 l-82 -82 l-232 0 l-101 32 l20 62 l89 -29 l196 0 l45 45 l0 60 ZM206 578 l-120 135 l56 0 l98 -93 l99 93 l56 0 l-120 -135 l-69 0 Z" /><glyph glyph-name="Tcommaaccent" unicode="&#x162;" d="M285 635 l0 -635 l-65 0 l0 635 l-220 0 l0 65 l505 0 l0 -65 l-220 0 ZM165 -285 l55 240 l75 0 l-85 -240 l-45 0 Z" /><glyph glyph-name="tcommaaccent" unicode="&#x163;" d="M115 445 l-95 0 l0 65 l95 0 l0 160 l65 0 l0 -160 l170 0 l0 -65 l-170 0 l0 -336 l44 -44 l94 0 l90 28 l20 -61 l-102 -32 l-129 0 l-82 82 l0 363 ZM180 -285 l55 240 l75 0 l-85 -240 l-45 0 Z" /><glyph glyph-name="Tcaron" unicode="&#x164;" d="M285 635 l0 -635 l-65 0 l0 635 l-220 0 l0 65 l505 0 l0 -65 l-220 0 ZM217 745 l-120 135 l56 0 l98 -93 l99 93 l56 0 l-120 -135 l-69 0 Z" /><glyph glyph-name="tcaron" unicode="&#x165;" d="M115 445 l-95 0 l0 65 l95 0 l0 160 l65 0 l0 -160 l160 0 l0 -65 l-160 0 l0 -336 l44 -44 l94 0 l90 28 l20 -61 l-102 -32 l-129 0 l-82 82 l0 363 ZM355 460 l55 240 l75 0 l-85 -240 l-45 0 Z" /><glyph glyph-name="Umacron" unicode="&#x16a;" d="M173 0 l-103 102 l0 598 l65 0 l0 -570 l66 -65 l223 0 l66 65 l0 570 l65 0 l0 -598 l-103 -102 l-279 0 ZM178 765 l0 65 l272 0 l0 -65 l-272 0 Z" /><glyph glyph-name="umacron" unicode="&#x16b;" d="M483 533 l0 -413 l28 -113 l-62 -15 l-16 64 l-56 -56 l-235 0 l-82 82 l0 451 l65 0 l0 -423 l45 -45 l181 0 l67 67 l0 401 l65 0 ZM136 598 l0 65 l272 0 l0 -65 l-272 0 Z" /><glyph glyph-name="Uring" unicode="&#x16e;" d="M173 0 l-103 102 l0 598 l65 0 l0 -570 l66 -65 l223 0 l66 65 l0 570 l65 0 l0 -598 l-103 -102 l-279 0 ZM272 940 l81 0 l62 -62 l0 -81 l-62 -62 l-81 0 l-62 62 l0 81 l62 62 ZM331 880 l-37 0 l-24 -24 l0 -37 l24 -24 l37 0 l24 24 l0 37 l-24 24 Z" /><glyph glyph-name="uring" unicode="&#x16f;" d="M483 533 l0 -413 l28 -113 l-62 -15 l-16 64 l-56 -56 l-235 0 l-82 82 l0 451 l65 0 l0 -423 l45 -45 l181 0 l67 67 l0 401 l65 0 ZM231 773 l81 0 l62 -62 l0 -81 l-62 -62 l-81 0 l-62 62 l0 81 l62 62 ZM290 713 l-37 0 l-24 -24 l0 -37 l24 -24 l37 0 l24 24 l0 37 l-24 24 Z" /><glyph glyph-name="Uhungarumlaut" unicode="&#x170;" d="M173 0 l-103 102 l0 598 l65 0 l0 -570 l66 -65 l223 0 l66 65 l0 570 l65 0 l0 -598 l-103 -102 l-279 0 ZM202 735 l128 200 l79 0 l-151 -200 l-56 0 ZM348 735 l128 200 l79 0 l-151 -200 l-56 0 Z" /><glyph glyph-name="uhungarumlaut" unicode="&#x171;" d="M483 533 l0 -413 l28 -113 l-62 -15 l-16 64 l-56 -56 l-235 0 l-82 82 l0 451 l65 0 l0 -423 l45 -45 l181 0 l67 67 l0 401 l65 0 ZM170 558 l128 200 l79 0 l-151 -200 l-56 0 ZM316 558 l128 200 l79 0 l-151 -200 l-56 0 Z" /><glyph glyph-name="Uogonek" unicode="&#x172;" d="M173 0 l-103 102 l0 598 l65 0 l0 -570 l66 -65 l223 0 l66 65 l0 570 l65 0 l0 -598 l-103 -102 l-109 0 l0 -79 l24 -24 l98 0 l0 -65 l-125 0 l-62 62 l0 106 l-105 0 Z" /><glyph glyph-name="uogonek" unicode="&#x173;" d="M443 16 l-10 40 l-56 -56 l-235 0 l-82 82 l0 451 l65 0 l0 -423 l45 -45 l181 0 l67 67 l0 401 l65 0 l0 -413 l29 -115 l-92 -72 l0 -24 l24 -21 l105 0 l0 -56 l-125 0 l-62 59 l0 62 l81 63 Z" /><glyph glyph-name="Ydieresis" unicode="&#x178;" d="M312 0 l-65 0 l0 264 l-237 412 l58 34 l212 -368 l212 368 l58 -34 l-238 -413 l0 -263 ZM169 768 l-24 24 l0 42 l24 24 l42 0 l24 -24 l0 -42 l-24 -24 l-42 0 ZM349 768 l-24 24 l0 42 l24 24 l42 0 l24 -24 l0 -42 l-24 -24 l-42 0 Z" /><glyph glyph-name="Zacute" unicode="&#x179;" d="M106 65 l384 0 l0 -65 l-470 0 l0 62 l389 573 l-384 0 l0 65 l470 0 l0 -64 l-389 -571 ZM221 755 l128 200 l79 0 l-151 -200 l-56 0 Z" /><glyph glyph-name="zacute" unicode="&#x17a;" d="M346 468 l-324 0 l0 65 l410 0 l0 -65 l-326 -403 l324 0 l0 -65 l-410 0 l0 64 l326 404 ZM195 578 l128 200 l79 0 l-151 -200 l-56 0 Z" /><glyph glyph-name="Zdotaccent" unicode="&#x17b;" d="M106 65 l384 0 l0 -65 l-470 0 l0 62 l389 573 l-384 0 l0 65 l470 0 l0 -64 l-389 -571 ZM244 775 l-24 24 l0 42 l24 24 l42 0 l24 -24 l0 -42 l-24 -24 l-42 0 Z" /><glyph glyph-name="zdotaccent" unicode="&#x17c;" d="M346 468 l-324 0 l0 65 l410 0 l0 -65 l-326 -403 l324 0 l0 -65 l-410 0 l0 64 l326 404 ZM211 605 l-24 24 l0 42 l24 24 l42 0 l24 -24 l0 -42 l-24 -24 l-42 0 Z" /><glyph glyph-name="Zcaron" unicode="&#x17d;" d="M106 65 l384 0 l0 -65 l-470 0 l0 62 l389 573 l-384 0 l0 65 l470 0 l0 -64 l-389 -571 ZM231 745 l-120 135 l56 0 l98 -93 l99 93 l56 0 l-120 -135 l-69 0 Z" /><glyph glyph-name="zcaron" unicode="&#x17e;" d="M346 468 l-324 0 l0 65 l410 0 l0 -65 l-326 -403 l324 0 l0 -65 l-410 0 l0 64 l326 404 ZM196 578 l-120 135 l56 0 l98 -93 l99 93 l56 0 l-120 -135 l-69 0 Z" /><glyph glyph-name="Scommaaccent" unicode="&#x218;" d="M392 635 l-223 0 l-64 -64 l0 -72 l12 -25 l356 -173 l31 -58 l0 -141 l-102 -102 l-259 0 l-101 34 l21 61 l87 -30 l225 0 l64 64 l0 95 l-14 26 l-358 174 l-27 56 l0 118 l102 102 l262 0 l98 -33 l-20 -60 l-90 28 ZM180 -285 l55 240 l75 0 l-85 -240 l-45 0 Z" /><glyph glyph-name="scommaaccent" unicode="&#x219;" d="M380 170 l-11 22 l-306 108 l-31 60 l0 91 l82 82 l232 0 l101 -34 l-21 -61 l-87 30 l-197 0 l-45 -45 l0 -47 l11 -23 l306 -108 l31 -59 l0 -104 l-82 -82 l-232 0 l-101 32 l20 62 l89 -29 l196 0 l45 45 l0 60 ZM155 -285 l55 240 l75 0 l-85 -240 l-45 0 Z" /><glyph glyph-name="afii10023" unicode="&#x401;" d="M80 0 l0 700 l433 0 l0 -65 l-368 0 l0 -232 l326 0 l0 -65 l-326 0 l0 -273 l368 0 l0 -65 l-433 0 ZM190 788 l-24 24 l0 42 l24 24 l42 0 l24 -24 l0 -42 l-24 -24 l-42 0 ZM370 788 l-24 24 l0 42 l24 24 l42 0 l24 -24 l0 -42 l-24 -24 l-42 0 Z" /><glyph glyph-name="afii10051" unicode="&#x402;" d="M607 72 l-51 -81 l-140 -51 l-21 61 l116 40 l31 45 l0 239 l-43 42 l-275 0 l-34 -11 l0 -356 l-65 0 l0 635 l-145 0 l0 65 l355 0 l0 -65 l-145 0 l0 -211 l28 8 l307 0 l82 -83 l0 -277 Z" /><glyph glyph-name="afii10052" unicode="&#x403;" d="M145 635 l0 -635 l-65 0 l0 700 l432 0 l0 -65 l-367 0 ZM245 745 l100 170 l75 0 l-110 -170 l-65 0 Z" /><glyph glyph-name="afii10053" unicode="&#x404;" d="M426 65 l76 76 l47 -46 l-95 -95 l-291 0 l-103 103 l0 494 l103 103 l279 0 l103 -103 l0 -112 l-65 0 l0 85 l-65 65 l-225 0 l-65 -65 l0 -186 l286 0 l0 -65 l-286 0 l0 -189 l65 -65 l236 0 Z" /><glyph glyph-name="afii10054" unicode="&#x405;" d="M392 635 l-223 0 l-64 -64 l0 -72 l12 -25 l356 -173 l31 -58 l0 -141 l-102 -102 l-259 0 l-101 34 l21 61 l87 -30 l225 0 l64 64 l0 95 l-14 26 l-358 174 l-27 56 l0 118 l102 102 l262 0 l98 -33 l-20 -60 l-90 28 Z" /><glyph glyph-name="uni0406" unicode="&#x406;" d="M327 0 l-297 0 l0 65 l116 0 l0 570 l-116 0 l0 65 l297 0 l0 -65 l-116 0 l0 -570 l116 0 l0 -65 Z" /><glyph glyph-name="afii10056" unicode="&#x407;" d="M327 0 l-297 0 l0 65 l116 0 l0 570 l-116 0 l0 65 l297 0 l0 -65 l-116 0 l0 -570 l116 0 l0 -65 ZM68 775 l-24 24 l0 42 l24 24 l42 0 l24 -24 l0 -42 l-24 -24 l-42 0 ZM248 775 l-24 24 l0 42 l24 24 l42 0 l24 -24 l0 -42 l-24 -24 l-42 0 Z" /><glyph glyph-name="afii10057" unicode="&#x408;" d="M117 0 l-117 117 l47 46 l99 -98 l181 0 l65 65 l0 505 l-168 0 l0 65 l233 0 l0 -597 l-103 -103 l-237 0 Z" /><glyph glyph-name="afii10058" unicode="&#x409;" d="M483 0 l0 635 l-245 0 l-60 -547 l-63 -68 l-95 -30 l-20 62 l78 25 l38 41 l64 582 l368 0 l0 -283 l287 0 l102 -104 l0 -209 l-102 -104 l-352 0 ZM872 285 l-65 67 l-259 0 l0 -287 l259 0 l65 67 l0 153 Z" /><glyph glyph-name="afii10059" unicode="&#x40a;" d="M470 409 l0 291 l65 0 l0 -291 l287 0 l102 -104 l0 -201 l-102 -104 l-352 0 l0 344 l-325 0 l0 -344 l-65 0 l0 700 l65 0 l0 -291 l325 0 ZM859 277 l-65 67 l-259 0 l0 -279 l259 0 l65 67 l0 145 Z" /><glyph glyph-name="afii10060" unicode="&#x40b;" d="M335 635 l-145 0 l0 -211 l28 8 l307 0 l82 -83 l0 -349 l-65 0 l0 325 l-43 42 l-275 0 l-34 -11 l0 -356 l-65 0 l0 635 l-145 0 l0 65 l355 0 l0 -65 Z" /><glyph glyph-name="afii10061" unicode="&#x40c;" d="M146 700 l0 -318 l113 0 l175 294 l106 34 l20 -63 l-81 -26 l-161 -271 l162 -271 l80 -26 l-20 -63 l-106 34 l-175 293 l-113 0 l0 -317 l-66 0 l0 700 l66 0 ZM235 710 l100 170 l75 0 l-110 -170 l-65 0 Z" /><glyph glyph-name="afii10062" unicode="&#x40e;" d="M459 812 l-61 -60 l-231 0 l-61 60 l0 89 l65 0 l0 -61 l23 -23 l177 0 l23 23 l0 61 l65 0 l0 -89 ZM269 149 l-269 534 l57 29 l244 -485 l199 485 l58 -24 l-258 -628 l-62 -60 l-138 0 l0 65 l113 0 l35 34 l21 50 Z" /><glyph glyph-name="afii10145" unicode="&#x40f;" d="M355 0 l0 -168 l-65 0 l0 168 l-210 0 l0 698 l65 0 l0 -633 l354 0 l0 633 l65 0 l0 -698 l-209 0 Z" /><glyph glyph-name="afii10017" unicode="&#x410;" d="M155 212 l-72 -222 l-63 20 l223 690 l92 0 l223 -690 l-63 -20 l-72 222 l-268 0 ZM176 277 l226 0 l-113 350 l-113 -350 Z" /><glyph glyph-name="afii10018" unicode="&#x411;" d="M80 0 l0 700 l443 0 l0 -65 l-378 0 l0 -218 l318 0 l102 -104 l0 -209 l-102 -104 l-383 0 ZM500 285 l-65 67 l-290 0 l0 -287 l290 0 l65 67 l0 153 Z" /><glyph glyph-name="afii10019" unicode="&#x412;" d="M495 370 l70 -71 l0 -196 l-103 -103 l-382 0 l0 700 l381 0 l83 -83 l0 -198 l-49 -49 ZM500 273 l-63 64 l-292 0 l0 -272 l292 0 l63 63 l0 145 ZM145 635 l0 -233 l290 0 l44 44 l0 145 l-44 44 l-290 0 Z" /><glyph glyph-name="afii10020" unicode="&#x413;" d="M145 635 l0 -635 l-65 0 l0 700 l432 0 l0 -65 l-367 0 Z" /><glyph glyph-name="afii10021" unicode="&#x414;" d="M636 65 l0 -233 l-65 0 l0 168 l-506 0 l0 -168 l-65 0 l0 233 l63 0 l46 82 l61 553 l393 0 l0 -635 l73 0 ZM172 127 l-35 -62 l361 0 l0 570 l-270 0 q-8 -75 -26.5 -239.5 q-18.5 -164.5 -29.5 -268.5 Z" /><glyph glyph-name="afii10022" unicode="&#x415;" d="M80 0 l0 700 l433 0 l0 -65 l-368 0 l0 -232 l326 0 l0 -65 l-326 0 l0 -273 l368 0 l0 -65 l-433 0 Z" /><glyph glyph-name="afii10024" unicode="&#x416;" d="M382 382 l0 318 l65 0 l0 -318 l71 0 l175 294 l106 34 l20 -63 l-81 -26 l-161 -271 l162 -271 l80 -26 l-20 -63 l-106 34 l-175 293 l-71 0 l0 -317 l-65 0 l0 317 l-71 0 l-175 -293 l-106 -34 l-20 63 l80 26 l162 271 l-161 271 l-81 26 l20 63 l106 -34 l175 -294 l71 0 Z" /><glyph glyph-name="afii10025" unicode="&#x417;" d="M412 450 l0 125 l-59 60 l-234 0 l-87 -30 l-22 61 l102 34 l269 0 l96 -96 l0 -183 l-63 -62 l70 -72 l0 -185 l-102 -102 l-284 0 l-98 33 l22 61 l89 -29 l243 0 l65 65 l0 129 l-65 67 l-201 0 l0 65 l202 0 l57 59 Z" /><glyph glyph-name="afii10026" unicode="&#x418;" d="M501 587 l-347 -587 l-74 0 l0 700 l65 0 l0 -587 l347 587 l74 0 l0 -700 l-65 0 l0 587 Z" /><glyph glyph-name="afii10027" unicode="&#x419;" d="M499 832 l-61 -60 l-231 0 l-61 60 l0 89 l65 0 l0 -61 l23 -23 l177 0 l23 23 l0 61 l65 0 l0 -89 ZM501 587 l-347 -587 l-74 0 l0 700 l65 0 l0 -587 l347 587 l74 0 l0 -700 l-65 0 l0 587 Z" /><glyph glyph-name="afii10028" unicode="&#x41a;" d="M146 700 l0 -318 l113 0 l175 294 l106 34 l20 -63 l-81 -26 l-161 -271 l162 -271 l80 -26 l-20 -63 l-106 34 l-175 293 l-113 0 l0 -317 l-66 0 l0 700 l66 0 Z" /><glyph glyph-name="afii10029" unicode="&#x41b;" d="M578 700 l0 -700 l-65 0 l0 635 l-275 0 l-60 -547 l-63 -68 l-95 -30 l-20 62 l78 25 l38 41 l64 582 l398 0 Z" /><glyph glyph-name="afii10030" unicode="&#x41c;" d="M444 166 l-56 0 l-243 415 l0 -581 l-65 0 l0 700 l72 0 l264 -451 l264 451 l72 0 l0 -700 l-65 0 l0 581 l-243 -415 Z" /><glyph glyph-name="afii10031" unicode="&#x41d;" d="M500 396 l0 304 l65 0 l0 -700 l-65 0 l0 331 l-355 0 l0 -331 l-65 0 l0 700 l65 0 l0 -304 l355 0 Z" /><glyph glyph-name="afii10032" unicode="&#x41e;" d="M173 700 l289 0 l113 -103 l0 -494 l-113 -103 l-289 0 l-113 103 l0 494 l113 103 ZM510 570 l-72 65 l-241 0 l-72 -65 l0 -440 l72 -65 l241 0 l72 65 l0 440 Z" /><glyph glyph-name="afii10033" unicode="&#x41f;" d="M145 635 l0 -635 l-65 0 l0 700 l485 0 l0 -700 l-65 0 l0 635 l-355 0 Z" /><glyph glyph-name="afii10034" unicode="&#x420;" d="M145 267 l0 -267 l-65 0 l0 700 l382 0 l103 -102 l0 -229 l-103 -102 l-317 0 ZM434 635 l-289 0 l0 -303 l289 0 l66 65 l0 173 l-66 65 Z" /><glyph glyph-name="afii10035" unicode="&#x421;" d="M426 65 l76 76 l47 -46 l-95 -95 l-291 0 l-103 103 l0 494 l103 103 l279 0 l103 -103 l0 -112 l-65 0 l0 85 l-65 65 l-225 0 l-65 -65 l0 -440 l65 -65 l236 0 Z" /><glyph glyph-name="afii10036" unicode="&#x422;" d="M285 635 l0 -635 l-65 0 l0 635 l-220 0 l0 65 l505 0 l0 -65 l-220 0 Z" /><glyph glyph-name="afii10037" unicode="&#x423;" d="M269 149 l-269 534 l57 29 l244 -485 l199 485 l58 -24 l-258 -628 l-62 -60 l-138 0 l0 65 l113 0 l35 34 l21 50 Z" /><glyph glyph-name="afii10038" unicode="&#x424;" d="M153 650 l217 0 l0 115 l65 0 l0 -115 l217 0 l103 -103 l0 -354 l-103 -103 l-217 0 l0 -115 l-65 0 l0 115 l-217 0 l-103 103 l0 354 l103 103 ZM625 585 l-190 0 l0 -430 l190 0 l65 65 l0 300 l-65 65 ZM370 585 l-190 0 l-65 -65 l0 -300 l65 -65 l190 0 l0 430 Z" /><glyph glyph-name="afii10039" unicode="&#x425;" d="M75 710 l197 -300 l197 300 l55 -36 l-213 -324 l211 -324 l-55 -36 l-195 300 l-195 -300 l-55 36 l211 324 l-213 324 l55 36 Z" /><glyph glyph-name="afii10040" unicode="&#x426;" d="M80 0 l0 698 l65 0 l0 -633 l354 0 l0 633 l65 0 l0 -633 l84 0 l0 -233 l-65 0 l0 168 l-503 0 Z" /><glyph glyph-name="afii10041" unicode="&#x427;" d="M477 344 l0 356 l65 0 l0 -700 l-65 0 l0 276 l-28 -8 l-307 0 l-82 83 l0 349 l65 0 l0 -325 l43 -42 l275 0 l34 11 Z" /><glyph glyph-name="afii10042" unicode="&#x428;" d="M897 0 l-817 0 l0 700 l64 0 l0 -635 l312 0 l0 635 l65 0 l0 -635 l311 0 l0 635 l65 0 l0 -700 Z" /><glyph glyph-name="afii10043" unicode="&#x429;" d="M80 0 l0 700 l65 0 l0 -635 l312 0 l0 635 l65 0 l0 -635 l311 0 l0 635 l65 0 l0 -635 l84 0 l0 -233 l-65 0 l0 168 l-837 0 Z" /><glyph glyph-name="afii10044" unicode="&#x42a;" d="M158 0 l0 635 l-158 0 l0 65 l223 0 l0 -283 l317 0 l102 -104 l0 -209 l-102 -104 l-382 0 ZM577 285 l-65 67 l-289 0 l0 -287 l289 0 l65 67 l0 153 Z" /><glyph glyph-name="afii10045" unicode="&#x42b;" d="M677 0 l0 700 l65 0 l0 -700 l-65 0 ZM80 0 l0 700 l65 0 l0 -283 l317 0 l102 -104 l0 -209 l-102 -104 l-382 0 ZM499 285 l-65 67 l-289 0 l0 -287 l289 0 l65 67 l0 153 Z" /><glyph glyph-name="afii10046" unicode="&#x42c;" d="M80 0 l0 700 l65 0 l0 -283 l317 0 l102 -104 l0 -209 l-102 -104 l-382 0 ZM499 285 l-65 67 l-289 0 l0 -287 l289 0 l65 67 l0 153 Z" /><glyph glyph-name="afii10047" unicode="&#x42d;" d="M77 141 l76 -76 l236 0 l65 65 l0 189 l-286 0 l0 65 l286 0 l0 186 l-65 65 l-225 0 l-65 -65 l0 -85 l-65 0 l0 112 l103 103 l279 0 l103 -103 l0 -494 l-103 -103 l-291 0 l-95 95 l47 46 Z" /><glyph glyph-name="afii10048" unicode="&#x42e;" d="M434 700 l258 0 l113 -103 l0 -494 l-113 -103 l-258 0 l-113 103 l0 228 l-176 0 l0 -331 l-65 0 l0 700 l65 0 l0 -304 l176 0 l0 201 l113 103 ZM740 570 l-72 65 l-210 0 l-72 -65 l0 -440 l72 -65 l210 0 l72 65 l0 440 Z" /><glyph glyph-name="afii10049" unicode="&#x42f;" d="M464 0 l0 266 l-151 0 l-150 -242 l-102 -34 l-21 62 l80 27 l116 187 l-89 0 l-103 102 l0 230 l103 102 l382 0 l0 -700 l-65 0 ZM464 635 l-289 0 l-66 -65 l0 -174 l66 -65 l289 0 l0 304 Z" /><glyph glyph-name="afii10065" unicode="&#x430;" d="M473 451 l0 -331 l28 -113 l-62 -15 l-16 64 l-56 -56 l-234 0 l-83 82 l0 145 l83 82 l275 0 l0 115 l-45 44 l-192 0 l-87 -30 l-21 61 l101 34 l226 0 l83 -82 ZM341 65 l67 67 l0 112 l-248 0 l-45 -44 l0 -91 l45 -44 l181 0 Z" /><glyph glyph-name="afii10066" unicode="&#x431;" d="M125 460 l32 32 l248 0 l82 -82 l0 -328 l-82 -82 l-263 0 l-82 82 l0 486 l116 116 l208 36 l79 79 l46 -47 l-92 -92 l-208 -36 l-84 -84 l0 -80 ZM125 367 l0 -258 l44 -44 l209 0 l44 44 l0 274 l-44 44 l-193 0 l-60 -60 Z" /><glyph glyph-name="afii10067" unicode="&#x432;" d="M465 468 l0 -159 l-32 -32 l49 -49 l0 -147 l-81 -81 l-341 0 l0 533 l340 0 l65 -65 ZM400 441 l-27 27 l-248 0 l0 -158 l248 0 l27 27 l0 104 ZM417 200 l-46 45 l-246 0 l0 -180 l248 0 l44 44 l0 91 Z" /><glyph glyph-name="afii10068" unicode="&#x433;" d="M126 468 l0 -468 l-66 0 l0 533 l370 0 l0 -65 l-304 0 Z" /><glyph glyph-name="afii10069" unicode="&#x434;" d="M472 0 l-407 0 l0 -140 l-65 0 l0 205 l52 0 l46 77 l40 391 l342 0 l0 -468 l57 0 l0 -205 l-65 0 l0 140 ZM166 132 l-39 -67 l288 0 l0 403 l-214 0 l-35 -336 Z" /><glyph glyph-name="afii10070" unicode="&#x435;" d="M376 65 l88 28 l20 -61 l-102 -32 l-240 0 l-82 82 l0 369 l82 82 l258 0 l82 -82 l0 -147 l-82 -81 l-275 0 l0 -114 l44 -44 l207 0 ZM169 468 l-44 -44 l0 -136 l248 0 l44 44 l0 92 l-44 44 l-204 0 Z" /><glyph glyph-name="afii10072" unicode="&#x436;" d="M387 233 l0 -233 l-65 0 l0 233 l-56 0 l-147 -201 l-79 -42 l-30 57 l62 33 l137 186 l-137 187 l-62 33 l30 57 l79 -42 l148 -203 l55 0 l0 235 l65 0 l0 -235 l55 0 l148 203 l79 42 l30 -57 l-62 -33 l-137 -187 l137 -186 l62 -33 l-30 -57 l-79 42 l-147 201 l-56 0 Z" /><glyph glyph-name="afii10073" unicode="&#x437;" d="M425 317 l-44 -45 l49 -49 l0 -141 l-82 -82 l-236 0 l-102 32 l20 61 l90 -28 l201 0 l44 44 l0 86 l-45 45 l-199 0 l0 65 l202 0 l37 36 l0 87 l-40 40 l-195 0 q-10 -3 -42.5 -14 q-32.5 -11 -45.5 -15 l-20 60 l101 34 l229 0 l78 -78 l0 -138 Z" /><glyph glyph-name="afii10074" unicode="&#x438;" d="M150 0 l-71 0 l0 433 l-29 88 l61 20 l33 -101 l0 -333 l285 426 l71 0 l0 -533 l-65 0 l0 426 l-285 -426 Z" /><glyph glyph-name="afii10075" unicode="&#x439;" d="M461 670 l-61 -60 l-221 0 l-61 60 l0 89 l65 0 l0 -61 l23 -23 l167 0 l23 23 l0 61 l65 0 l0 -89 ZM150 0 l-71 0 l0 433 l-29 88 l61 20 l33 -101 l0 -333 l285 426 l71 0 l0 -533 l-65 0 l0 426 l-285 -426 Z" /><glyph glyph-name="afii10076" unicode="&#x43a;" d="M125 533 l0 -235 l94 0 l148 203 l79 42 l30 -57 l-62 -33 l-137 -187 l137 -186 l62 -33 l-30 -57 l-79 42 l-147 201 l-95 0 l0 -233 l-65 0 l0 533 l65 0 Z" /><glyph glyph-name="afii10077" unicode="&#x43b;" d="M493 533 l0 -533 l-65 0 l0 468 l-216 0 l-40 -384 l-66 -67 l-87 -27 l-19 63 l65 20 l44 45 l44 415 l340 0 Z" /><glyph glyph-name="afii10078" unicode="&#x43c;" d="M333 201 l201 332 l72 0 l0 -533 l-65 0 l0 420 l-179 -294 l-58 0 l-179 294 l0 -420 l-65 0 l0 533 l72 0 l201 -332 Z" /><glyph glyph-name="afii10079" unicode="&#x43d;" d="M79 0 l0 433 l-29 88 l61 20 l33 -101 l0 -136 l292 0 l0 229 l65 0 l0 -533 l-65 0 l0 239 l-292 0 l0 -239 l-65 0 Z" /><glyph glyph-name="afii10080" unicode="&#x43e;" d="M487 83 l-82 -83 l-263 0 l-82 83 l0 367 l82 83 l263 0 l82 -83 l0 -367 ZM169 65 l209 0 l44 45 l0 313 l-44 45 l-209 0 l-44 -45 l0 -313 l44 -45 Z" /><glyph glyph-name="afii10081" unicode="&#x43f;" d="M125 468 l0 -468 l-65 0 l0 508 l25 25 l372 0 l25 -25 l0 -508 l-65 0 l0 468 l-292 0 Z" /><glyph glyph-name="afii10082" unicode="&#x440;" d="M143 125 l60 -60 l189 0 l43 43 l0 317 l-43 43 l-182 0 l-67 -67 l0 -276 ZM143 32 l1 -200 l-66 0 l0 581 l-28 113 l62 15 l16 -64 l56 56 l235 0 l81 -81 l0 -371 l-81 -81 l-244 0 l-32 32 Z" /><glyph glyph-name="afii10083" unicode="&#x441;" d="M376 65 l88 28 l20 -61 l-102 -32 l-240 0 l-82 83 l0 367 l82 83 l258 0 l82 -83 l0 -110 l-65 0 l0 86 l-43 42 l-206 0 l-43 -42 l0 -319 l43 -42 l208 0 Z" /><glyph glyph-name="afii10084" unicode="&#x442;" d="M0 533 l421 0 l0 -65 l-178 0 l0 -468 l-65 0 l0 468 l-178 0 l0 65 Z" /><glyph glyph-name="afii10085" unicode="&#x443;" d="M214 -168 l-128 0 l0 65 l103 0 l27 27 l25 76 l-18 0 l-213 518 l62 25 l193 -471 l157 471 l61 -20 l-210 -632 l-59 -59 Z" /><glyph glyph-name="afii10086" unicode="&#x444;" d="M325 523 l0 78 l-29 88 l61 20 l33 -101 l0 -85 l28 10 l156 0 l81 -81 l0 -371 l-81 -81 l-156 0 l-28 9 l0 -177 l-65 0 l0 177 l-28 -9 l-156 0 l-81 81 l0 371 l81 81 l156 0 l28 -10 ZM325 76 l0 380 l-33 12 l-123 0 l-44 -44 l0 -315 l44 -44 l123 0 l33 11 ZM390 456 l0 -380 l33 -11 l123 0 l44 44 l0 315 l-44 44 l-123 0 l-33 -12 Z" /><glyph glyph-name="afii10087" unicode="&#x445;" d="M226 323 l163 220 l53 -39 l-176 -238 l175 -237 l-53 -39 l-162 219 l-162 -219 l-53 39 l175 237 l-176 238 l53 39 l163 -220 Z" /><glyph glyph-name="afii10088" unicode="&#x446;" d="M480 0 l-420 0 l0 533 l65 0 l0 -468 l292 0 l0 468 l65 0 l0 -468 l63 0 l0 -205 l-65 0 l0 140 Z" /><glyph glyph-name="afii10089" unicode="&#x447;" d="M395 268 l0 265 l65 0 l0 -533 l-65 0 l0 200 l-28 -8 l-236 0 l-81 81 l0 260 l65 0 l0 -232 l44 -44 l202 0 l34 11 Z" /><glyph glyph-name="afii10090" unicode="&#x448;" d="M753 0 l-693 0 l0 533 l65 0 l0 -468 l249 0 l0 468 l65 0 l0 -468 l249 0 l0 468 l65 0 l0 -533 Z" /><glyph glyph-name="afii10091" unicode="&#x449;" d="M751 0 l-691 0 l0 533 l65 0 l0 -468 l249 0 l0 468 l65 0 l0 -468 l249 0 l0 468 l65 0 l0 -468 l63 0 l0 -205 l-65 0 l0 140 Z" /><glyph glyph-name="afii10092" unicode="&#x44a;" d="M155 0 l0 468 l-145 0 l0 65 l210 0 l0 -205 l276 0 l82 -82 l0 -164 l-82 -82 l-341 0 ZM513 219 l-44 44 l-249 0 l0 -198 l249 0 l44 44 l0 110 Z" /><glyph glyph-name="afii10093" unicode="&#x44b;" d="M633 533 l0 -533 l-65 0 l0 533 l65 0 ZM60 0 l0 533 l65 0 l0 -205 l276 0 l82 -82 l0 -164 l-82 -82 l-341 0 ZM418 219 l-44 44 l-249 0 l0 -198 l249 0 l44 44 l0 110 Z" /><glyph glyph-name="afii10094" unicode="&#x44c;" d="M60 0 l0 533 l65 0 l0 -205 l276 0 l82 -82 l0 -164 l-82 -82 l-341 0 ZM418 219 l-44 44 l-249 0 l0 -198 l249 0 l44 44 l0 110 Z" /><glyph glyph-name="afii10095" unicode="&#x44d;" d="M50 93 l88 -28 l208 0 l43 42 l0 125 l-250 0 l0 66 l250 0 l0 128 l-43 42 l-206 0 l-43 -42 l0 -86 l-65 0 l0 110 l82 83 l258 0 l82 -83 l0 -367 l-82 -83 l-240 0 l-102 32 l20 61 Z" /><glyph glyph-name="afii10096" unicode="&#x44e;" d="M655 83 l-82 -83 l-253 0 l-82 83 l0 156 l-113 0 l0 -239 l-65 0 l0 533 l65 0 l0 -229 l113 0 l0 146 l82 83 l253 0 l82 -83 l0 -367 ZM347 65 l199 0 l44 44 l0 315 l-44 44 l-199 0 l-44 -44 l0 -315 l44 -44 Z" /><glyph glyph-name="afii10097" unicode="&#x44f;" d="M392 210 l-122 0 l-133 -179 l-77 -41 l-30 57 l60 32 l97 131 l-71 0 l-81 80 l0 163 l81 80 l341 0 l0 -533 l-65 0 l0 210 ZM142 275 l250 0 l0 193 l-250 0 l-42 -43 l0 -107 l42 -43 Z" /><glyph glyph-name="afii10071" unicode="&#x451;" d="M376 65 l88 28 l20 -61 l-102 -32 l-240 0 l-82 82 l0 369 l82 82 l258 0 l82 -82 l0 -147 l-82 -81 l-275 0 l0 -114 l44 -44 l207 0 ZM169 468 l-44 -44 l0 -136 l248 0 l44 44 l0 92 l-44 44 l-204 0 ZM160 605 l-24 24 l0 42 l24 24 l42 0 l24 -24 l0 -42 l-24 -24 l-42 0 ZM340 605 l-24 24 l0 42 l24 24 l42 0 l24 -24 l0 -42 l-24 -24 l-42 0 Z" /><glyph glyph-name="afii10099" unicode="&#x452;" d="M441 86 l0 259 l-43 43 l-188 0 l-60 -60 l0 -328 l-65 0 l0 524 l-85 0 l0 65 l85 0 l0 10 l-29 88 l61 20 l33 -101 l0 -17 l169 0 l0 -65 l-169 0 l0 -103 l32 32 l242 0 l82 -82 l0 -299 l-51 -81 l-140 -51 l-21 61 l116 40 l31 45 Z" /><glyph glyph-name="afii10100" unicode="&#x453;" d="M126 468 l0 -468 l-66 0 l0 533 l370 0 l0 -65 l-304 0 ZM200 578 l100 170 l75 0 l-110 -170 l-65 0 Z" /><glyph glyph-name="afii10101" unicode="&#x454;" d="M376 65 l88 28 l20 -61 l-102 -32 l-240 0 l-82 83 l0 367 l82 83 l258 0 l82 -83 l0 -110 l-65 0 l0 86 l-43 42 l-206 0 l-43 -42 l0 -128 l250 0 l0 -66 l-250 0 l0 -125 l43 -42 l208 0 Z" /><glyph glyph-name="afii10102" unicode="&#x455;" d="M380 170 l-11 22 l-306 108 l-31 60 l0 91 l82 82 l232 0 l101 -34 l-21 -61 l-87 30 l-197 0 l-45 -45 l0 -47 l11 -23 l306 -108 l31 -59 l0 -104 l-82 -82 l-232 0 l-101 32 l20 62 l89 -29 l196 0 l45 45 l0 60 Z" /><glyph glyph-name="afii10103" unicode="&#x456;" d="M79 433 l-29 88 l61 20 l33 -101 l0 -440 l-65 0 l0 433 ZM90 605 l-24 24 l0 42 l24 24 l42 0 l24 -24 l0 -42 l-24 -24 l-42 0 Z" /><glyph glyph-name="afii10104" unicode="&#x457;" d="M8 605 l-24 24 l0 42 l24 24 l42 0 l24 -24 l0 -42 l-24 -24 l-42 0 ZM172 605 l-24 24 l0 42 l24 24 l42 0 l24 -24 l0 -42 l-24 -24 l-42 0 ZM79 433 l-29 88 l61 20 l33 -101 l0 -440 l-65 0 l0 433 Z" /><glyph glyph-name="afii10105" unicode="&#x458;" d="M91 -127 l-140 -51 l-21 61 l116 40 l31 45 l0 465 l-29 88 l61 20 l33 -101 l0 -486 l-51 -81 ZM88 605 l-24 24 l0 42 l24 24 l42 0 l24 -24 l0 -42 l-24 -24 l-42 0 Z" /><glyph glyph-name="afii10106" unicode="&#x459;" d="M398 0 l0 468 l-186 0 l-40 -384 l-66 -67 l-87 -27 l-19 63 l65 20 l44 45 l44 415 l310 0 l0 -205 l246 0 l82 -82 l0 -164 l-82 -82 l-311 0 ZM726 219 l-44 44 l-219 0 l0 -198 l219 0 l44 44 l0 110 Z" /><glyph glyph-name="afii10107" unicode="&#x45a;" d="M406 0 l0 254 l-262 0 l0 -254 l-65 0 l0 433 l-29 88 l61 20 l33 -101 l0 -121 l262 0 l0 214 l65 0 l0 -214 l246 0 l82 -82 l0 -155 l-82 -82 l-311 0 ZM734 210 l-44 44 l-219 0 l0 -189 l219 0 l44 44 l0 101 Z" /><glyph glyph-name="afii10108" unicode="&#x45b;" d="M319 524 l-169 0 l0 -98 l32 32 l242 0 l82 -82 l0 -376 l-65 0 l0 350 l-43 43 l-188 0 l-60 -60 l0 -333 l-65 0 l0 524 l-85 0 l0 65 l85 0 l0 10 l-29 88 l61 20 l33 -101 l0 -17 l169 0 l0 -65 Z" /><glyph glyph-name="afii10109" unicode="&#x45c;" d="M125 533 l0 -235 l94 0 l148 203 l79 42 l30 -57 l-62 -33 l-137 -187 l137 -186 l62 -33 l-30 -57 l-79 42 l-147 201 l-95 0 l0 -233 l-65 0 l0 533 l65 0 ZM200 543 l100 170 l75 0 l-110 -170 l-65 0 Z" /><glyph glyph-name="afii10110" unicode="&#x45e;" d="M427 657 l-61 -60 l-221 0 l-61 60 l0 89 l65 0 l0 -61 l23 -23 l167 0 l23 23 l0 61 l65 0 l0 -89 ZM214 -168 l-128 0 l0 65 l103 0 l27 27 l25 76 l-18 0 l-213 518 l62 25 l193 -471 l157 471 l61 -20 l-210 -632 l-59 -59 Z" /><glyph glyph-name="afii10193" unicode="&#x45f;" d="M304 0 l0 -140 l-65 0 l0 140 l-179 0 l0 533 l65 0 l0 -468 l292 0 l0 468 l65 0 l0 -533 l-178 0 Z" /><glyph glyph-name="afii10050" unicode="&#x490;" d="M512 635 l-367 0 l0 -635 l-65 0 l0 700 l366 0 l0 90 l66 0 l0 -155 Z" /><glyph glyph-name="afii10098" unicode="&#x491;" d="M430 468 l-304 0 l0 -468 l-66 0 l0 533 l304 0 l0 80 l66 0 l0 -145 Z" /><glyph glyph-name="endash" unicode="&#x2013;" d="M20 267 l0 66 l486 0 l0 -66 l-486 0 Z" /><glyph glyph-name="emdash" unicode="&#x2014;" d="M20 267 l0 66 l672 0 l0 -66 l-672 0 Z" /><glyph glyph-name="quoteleft" unicode="&#x2018;" d="M130 700 l-55 -240 l-75 0 l85 240 l45 0 Z" /><glyph glyph-name="quoteright" unicode="&#x2019;" d="M10 460 l55 240 l75 0 l-85 -240 l-45 0 Z" /><glyph glyph-name="quotesinglbase" unicode="&#x201a;" d="M10 -180 l55 240 l75 0 l-85 -240 l-45 0 Z" /><glyph glyph-name="quotedblleft" unicode="&#x201c;" d="M265 700 l-55 -240 l-75 0 l85 240 l45 0 ZM130 700 l-55 -240 l-75 0 l85 240 l45 0 Z" /><glyph glyph-name="quotedblright" unicode="&#x201d;" d="M10 460 l55 240 l75 0 l-85 -240 l-45 0 ZM145 460 l55 240 l75 0 l-85 -240 l-45 0 Z" /><glyph glyph-name="quotedblbase" unicode="&#x201e;" d="M10 -180 l55 240 l75 0 l-85 -240 l-45 0 ZM145 -180 l55 240 l75 0 l-85 -240 l-45 0 Z" /><glyph glyph-name="dagger" unicode="&#x2020;" d="M0 405 l0 65 l172 0 l0 230 l66 0 l0 -230 l172 0 l0 -65 l-172 0 l0 -573 l-66 0 l0 573 l-172 0 Z" /><glyph glyph-name="daggerdbl" unicode="&#x2021;" d="M0 405 l0 65 l172 0 l0 230 l66 0 l0 -230 l172 0 l0 -65 l-172 0 l0 -278 l172 0 l0 -65 l-172 0 l0 -230 l-66 0 l0 230 l-172 0 l0 65 l172 0 l0 278 l-172 0 Z" /><glyph glyph-name="bullet" unicode="&#x2022;" d="M132 495 l126 0 l82 -82 l0 -126 l-82 -82 l-126 0 l-82 82 l0 126 l82 82 Z" /><glyph glyph-name="ellipsis" unicode="&#x2026;" d="M54 -10 l-24 24 l0 42 l24 24 l42 0 l24 -24 l0 -42 l-24 -24 l-42 0 ZM204 -10 l-24 24 l0 42 l24 24 l42 0 l24 -24 l0 -42 l-24 -24 l-42 0 ZM354 -10 l-24 24 l0 42 l24 24 l42 0 l24 -24 l0 -42 l-24 -24 l-42 0 Z" /><glyph glyph-name="perthousand" unicode="&#x2030;" d="M61 28 l529 685 l49 -38 l-528 -686 l-50 39 ZM463 290 l126 0 l82 -82 l0 -126 l-82 -82 l-126 0 l-82 82 l0 126 l82 82 ZM562 225 l-72 0 l-44 -44 l0 -72 l44 -44 l72 0 l44 44 l0 72 l-44 44 ZM112 700 l126 0 l82 -82 l0 -126 l-82 -82 l-126 0 l-82 82 l0 126 l82 82 ZM211 635 l-72 0 l-44 -44 l0 -72 l44 -44 l72 0 l44 44 l0 72 l-44 44 ZM803 290 l126 0 l82 -82 l0 -126 l-82 -82 l-126 0 l-82 82 l0 126 l82 82 ZM902 225 l-72 0 l-44 -44 l0 -72 l44 -44 l72 0 l44 44 l0 72 l-44 44 Z" /><glyph glyph-name="guilsinglleft" unicode="&#x2039;" d="M20 240 l0 46 l276 237 l43 -49 l-245 -211 l245 -211 l-43 -49 l-276 237 Z" /><glyph glyph-name="guilsinglright" unicode="&#x203a;" d="M329 286 l0 -46 l-276 -237 l-43 49 l245 211 l-245 211 l43 49 l276 -237 Z" /><glyph glyph-name="Euro" unicode="&#x20ac;" d="M0 380 l0 60 l60 0 l0 157 l103 103 l279 0 l103 -103 l0 -112 l-65 0 l0 85 l-65 65 l-225 0 l-65 -65 l0 -130 l295 0 l0 -60 l-295 0 l0 -60 l285 0 l0 -60 l-285 0 l0 -130 l65 -65 l236 0 l76 76 l47 -46 l-95 -95 l-291 0 l-103 103 l0 157 l-70 0 l0 60 l70 0 l0 60 l-60 0 Z" /><glyph glyph-name="afii61352" unicode="&#x2116;" d="M628 300 l0 65 l272 0 l0 -65 l-272 0 ZM701 700 l126 0 l82 -82 l0 -126 l-82 -82 l-126 0 l-82 82 l0 126 l82 82 ZM800 635 l-72 0 l-44 -44 l0 -72 l44 -44 l72 0 l44 44 l0 72 l-44 44 ZM492 0 l-347 587 l0 -587 l-65 0 l0 700 l74 0 l347 -587 l0 587 l65 0 l0 -700 l-74 0 Z" /><glyph glyph-name="trademark" unicode="&#x2122;" d="M0 700 l305 0 l0 -65 l-120 0 l0 -265 l-65 0 l0 265 l-120 0 l0 65 ZM535 454 l-56 0 l-79 126 l0 -210 l-65 0 l0 330 l69 0 l104 -165 l103 165 l68 0 l0 -330 l-65 0 l0 210 l-79 -126 Z" /></font>
</defs>
</svg>
