<?xml version="1.0" standalone="no"?><!DOCTYPE svg PUBLIC "-//W3C//DTD SVG 1.1//EN" "http://www.w3.org/Graphics/SVG/1.1/DTD/svg11.dtd" ><svg xmlns="http://www.w3.org/2000/svg"><metadata></metadata><defs><font id="2.000;ADBO;SourceHanSansCN-Light;ADOBE" horiz-adv-x="1000"><font-face font-family="Source Han Sans CN Light" font-weight="300" font-stretch="normal" units-per-em="1000" panose-1="2 11 3 0 0 0 0 0 0 0" ascent="1160" descent="-288" x-height="0" bbox="-962 -277 964 1053" underline-thickness="50" underline-position="-125" unicode-range="U+0020-ff40" /><missing-glyph horiz-adv-x="1000" d="M100 -120 l0 1000 l800 0 l0 -1000 l-800 0 ZM500 421 l318 409 l-636 0 l318 -409 ZM532 380 l318 -409 l0 818 l-318 -409 ZM182 -70 l636 0 l-318 409 l-318 -409 ZM150 789 l0 -818 l318 409 l-318 409 Z" /><glyph glyph-name="nonbreakingspace" unicode="  " d="" /><glyph glyph-name="exclam" unicode="!" d="M126 203 l-8 455 l-1 84 l60 0 l-1 -84 l-7 -455 l-43 0 ZM147 -13 q-19 0 -35 14.5 q-16 14.5 -16 39.5 q0 26 16 40.5 q16 14.5 35 14.5 q20 0 35.5 -14.5 q15.5 -14.5 15.5 -40.5 q0 -25 -15.5 -39.5 q-15.5 -14.5 -35.5 -14.5 Z" /><glyph glyph-name="quotedbl" unicode="&quot;" d="M104 517 l-12 168 l-1 82 l66 0 l-1 -82 l-11 -168 l-41 0 ZM269 517 l-12 168 l-1 82 l66 0 l-1 -82 l-12 -168 l-40 0 Z" /><glyph glyph-name="numbersign" unicode="#" d="M102 0 l28 235 l-90 0 l0 45 l96 0 l23 182 l-97 0 l0 46 l101 0 l28 212 l43 0 l-27 -212 l161 0 l28 212 l43 0 l-28 -212 l90 0 l0 -46 l-94 0 l-22 -182 l94 0 l0 -45 l-101 0 l-27 -235 l-44 0 l28 235 l-161 0 l-29 -235 l-43 0 ZM179 280 l162 0 l23 182 l-162 0 l-23 -182 Z" /><glyph glyph-name="dollar" unicode="$" d="M250 -122 l0 110 q-55 5 -104.5 29.5 q-49.5 24.5 -81.5 55.5 l30 41 q32 -29 76.5 -53 q44.5 -24 99.5 -24 q68 0 104 36.5 q36 36.5 36 94.5 q0 53 -23 86 q-23 33 -59 55.5 q-36 22.5 -77 42 q-41 19.5 -77 43 q-36 23.5 -59 59 q-23 35.5 -23 91.5 q0 71 44.5 119 q44.5 48 113.5 56 l0 110 l48 0 l0 -110 q54 -4 89 -26.5 q35 -22.5 63 -53.5 l-33 -36 q-31 32 -61 49 q-30 17 -80 17 q-56 0 -90.5 -34.5 q-34.5 -34.5 -34.5 -87.5 q0 -46 23 -75.5 q23 -29.5 59 -49.5 q36 -20 76.5 -39 q40.5 -19 76.5 -44.5 q36 -25.5 59 -65 q23 -39.5 23 -102.5 q0 -79 -47.5 -127.5 q-47.5 -48.5 -122.5 -56.5 l0 -110 l-48 0 Z" /><glyph glyph-name="percent" unicode="%" d="M201 284 q-73 0 -115.5 60 q-42.5 60 -42.5 171 q0 109 42.5 168 q42.5 59 115.5 59 q74 0 116 -59 q42 -59 42 -168 q0 -111 -42 -171 q-42 -60 -116 -60 ZM201 324 q50 0 80 50 q30 50 30 141 q0 91 -30 139 q-30 48 -80 48 q-49 0 -79 -48 q-30 -48 -30 -139 q0 -91 30 -141 q30 -50 79 -50 ZM221 -13 l406 755 l46 0 l-406 -755 l-46 0 ZM696 -13 q-73 0 -116 59.5 q-43 59.5 -43 170.5 q0 110 43 169 q43 59 116 59 q72 0 115 -59 q43 -59 43 -169 q0 -111 -43 -170.5 q-43 -59.5 -115 -59.5 ZM696 27 q49 0 79 49.5 q30 49.5 30 140.5 q0 92 -30 140 q-30 48 -79 48 q-50 0 -80 -48 q-30 -48 -30 -140 q0 -91 30 -140.5 q30 -49.5 80 -49.5 Z" /><glyph glyph-name="ampersand" unicode="&amp;" d="M191 579 q0 -34 10.5 -72 q10.5 -38 28.5 -77 q37 26 68.5 52.5 q31.5 26.5 51 56.5 q19.5 30 19.5 66 q0 35 -17.5 63.5 q-17.5 28.5 -59.5 28.5 q-47 0 -74 -34.5 q-27 -34.5 -27 -83.5 ZM252 -13 q-60 0 -108.5 25 q-48.5 25 -76.5 69.5 q-28 44.5 -28 104.5 q0 48 21 86 q21 38 55 69 q34 31 72 58 q-22 47 -35.5 92 q-13.5 45 -13.5 87 q0 47 19.5 84 q19.5 37 54.5 58.5 q35 21.5 81 21.5 q61 0 93.5 -38 q32.5 -38 32.5 -96 q0 -47 -24.5 -85 q-24.5 -38 -63 -70.5 q-38.5 -32.5 -79.5 -63.5 q38 -66 91 -128.5 q53 -62.5 108 -110.5 q38 48 66 107.5 q28 59.5 47 126.5 l55 0 q-22 -74 -53.5 -142 q-31.5 -68 -75.5 -125 q77 -58 140 -80 l-18 -50 q-35 11 -75 33 q-40 22 -83 56 q-40 -40 -90 -64.5 q-50 -24.5 -112 -24.5 ZM98 189 q0 -46 21.5 -80.5 q21.5 -34.5 58 -53.5 q36.5 -19 80.5 -19 q44 0 83.5 20 q39.5 20 73.5 53 q-58 52 -111.5 116.5 q-53.5 64.5 -93.5 131.5 q-46 -36 -79 -76.5 q-33 -40.5 -33 -91.5 Z" /><glyph glyph-name="quotesingle" unicode="&#39;" d="M104 517 l-12 168 l-1 82 l66 0 l-1 -82 l-11 -168 l-41 0 Z" /><glyph glyph-name="parenleft" unicode="(" d="M242 -193 q-68 110 -107 232.5 q-39 122.5 -39 268.5 q0 146 39 269 q39 123 107 233 l36 -19 q-65 -106 -98.5 -229.5 q-33.5 -123.5 -33.5 -253.5 q0 -130 33.5 -254 q33.5 -124 98.5 -229 l-36 -18 Z" /><glyph glyph-name="parenright" unicode=")" d="M73 -193 l-36 18 q65 105 98.5 229 q33.5 124 33.5 254 q0 130 -33.5 253.5 q-33.5 123.5 -98.5 229.5 l36 19 q68 -110 107 -233 q39 -123 39 -269 q0 -146 -39 -268.5 q-39 -122.5 -107 -232.5 Z" /><glyph glyph-name="asterisk" unicode="*" d="M148 502 l-33 23 l61 100 l-102 40 l12 38 l107 -29 l9 115 l40 0 l7 -114 l107 28 l12 -38 l-102 -40 l62 -100 l-33 -23 l-73 92 l-74 -92 Z" /><glyph glyph-name="plus" unicode="+" d="M242 120 l0 222 l-205 0 l0 47 l205 0 l0 222 l51 0 l0 -222 l204 0 l0 -47 l-204 0 l0 -222 l-51 0 Z" /><glyph glyph-name="comma" unicode="," d="M70 -176 l-17 38 q40 21 64 55.5 q24 34.5 24 78.5 q-3 -1 -6 -1 q-3 0 -6 0 q-21 0 -36.5 13 q-15.5 13 -15.5 38 q0 24 16.5 37 q16.5 13 36.5 13 q27 0 43.5 -23 q16.5 -23 16.5 -63 q0 -62 -33.5 -110.5 q-33.5 -48.5 -86.5 -75.5 Z" /><glyph glyph-name="cid00014" unicode="-­&#x2011;" d="M45 252 l0 49 l246 0 l0 -49 l-246 0 Z" /><glyph glyph-name="period" unicode="." d="M125 -13 q-20 0 -35.5 14.5 q-15.5 14.5 -15.5 39.5 q0 26 15.5 40.5 q15.5 14.5 35.5 14.5 q20 0 35.5 -14.5 q15.5 -14.5 15.5 -40.5 q0 -25 -15.5 -39.5 q-15.5 -14.5 -35.5 -14.5 Z" /><glyph glyph-name="slash" unicode="/" d="M10 -177 l329 964 l48 0 l-330 -964 l-47 0 Z" /><glyph glyph-name="zero" unicode="0" d="M268 -13 q-100 0 -157.5 94 q-57.5 94 -57.5 286 q0 190 57.5 282.5 q57.5 92.5 157.5 92.5 q99 0 156.5 -92.5 q57.5 -92.5 57.5 -282.5 q0 -192 -57.5 -286 q-57.5 -94 -156.5 -94 ZM268 36 q71 0 113.5 82.5 q42.5 82.5 42.5 248.5 q0 163 -42.5 244.5 q-42.5 81.5 -113.5 81.5 q-71 0 -114 -81.5 q-43 -81.5 -43 -244.5 q0 -166 43 -248.5 q43 -82.5 114 -82.5 Z" /><glyph glyph-name="one" unicode="1" d="M92 0 l0 51 l165 0 l0 593 l-127 0 l0 39 q44 8 78.5 19.5 q34.5 11.5 60.5 26.5 l47 0 l0 -678 l152 0 l0 -51 l-376 0 Z" /><glyph glyph-name="two" unicode="2" d="M45 0 l0 36 q124 107 199.5 194 q75.5 87 110.5 161 q35 74 35 140 q0 68 -36 115 q-36 47 -113 47 q-47 0 -88.5 -26 q-41.5 -26 -73.5 -65 l-37 35 q41 46 90 75.5 q49 29.5 115 29.5 q95 0 148.5 -57 q53.5 -57 53.5 -152 q0 -115 -83 -233 q-83 -118 -229 -254 q30 2 61 4 q31 2 59 2 l227 0 l0 -52 l-439 0 Z" /><glyph glyph-name="three" unicode="3" d="M258 -13 q-56 0 -98.5 15 q-42.5 15 -74 38 q-31.5 23 -54.5 47 l33 39 q32 -34 77 -61.5 q45 -27.5 115 -27.5 q71 0 116.5 43 q45.5 43 45.5 114 q0 73 -55.5 118 q-55.5 45 -186.5 45 l0 49 q80 0 127.5 21 q47.5 21 68 56.5 q20.5 35.5 20.5 78.5 q0 59 -37.5 94.5 q-37.5 35.5 -100.5 36.5 q-47 -1 -88.5 -22.5 q-41.5 -21.5 -71.5 -53.5 l-34 40 q38 35 85.5 60 q47.5 25 109.5 25 q56 0 100.5 -21 q44.5 -21 70.5 -60 q26 -39 26 -95 q0 -70 -37.5 -115 q-37.5 -45 -96.5 -65 l0 -5 q44 -9 80.5 -34 q36.5 -25 58 -63.5 q21.5 -38.5 21.5 -90.5 q0 -63 -29 -109.5 q-29 -46.5 -79 -71.5 q-50 -25 -112 -25 Z" /><glyph glyph-name="four" unicode="4" d="M86 257 l256 0 l0 269 q0 25 1.5 60.5 q1.5 35.5 3.5 60.5 l-5 0 q-27 -52 -58 -101 l-198 -289 ZM342 0 l0 208 l-323 0 l0 37 l322 484 l57 0 l0 -472 l103 0 l0 -49 l-103 0 l0 -208 l-56 0 Z" /><glyph glyph-name="five" unicode="5" d="M253 -13 q-56 0 -98 14 q-42 14 -72.5 36 q-30.5 22 -54.5 45 l32 41 q32 -33 76 -59.5 q44 -26.5 115 -26.5 q46 0 84.5 24 q38.5 24 62 68 q23.5 44 23.5 103 q0 87 -45 137 q-45 50 -122 50 q-40 0 -69 -12.5 q-29 -12.5 -60 -33.5 l-38 23 l25 333 l333 0 l0 -51 l-281 0 l-21 -245 q26 16 55.5 25.5 q29.5 9.5 66.5 9.5 q60 0 109 -25 q49 -25 78 -76.5 q29 -51.5 29 -132.5 q0 -79 -33 -134 q-33 -55 -85 -84 q-52 -29 -110 -29 Z" /><glyph glyph-name="six" unicode="6" d="M284 402 q-36 0 -80.5 -23.5 q-44.5 -23.5 -86.5 -80.5 q7 -120 50.5 -191 q43.5 -71 126.5 -71 q40 0 71 24 q31 24 49.5 65.5 q18.5 41.5 18.5 94.5 q0 80 -35.5 131 q-35.5 51 -113.5 51 ZM293 -13 q-106 0 -170 91.5 q-64 91.5 -64 265.5 q0 110 21.5 186.5 q21.5 76.5 58 123 q36.5 46.5 84 67.5 q47.5 21 98.5 21 q51 0 89 -19 q38 -19 66 -51 l-35 -38 q-23 29 -54 43.5 q-31 14.5 -65 14.5 q-54 0 -100.5 -32 q-46.5 -32 -75 -106 q-28.5 -74 -30.5 -200 q36 44 82 69.5 q46 25.5 94 25.5 q93 0 145.5 -58 q52.5 -58 52.5 -171 q0 -68 -27 -120.5 q-27 -52.5 -72 -82.5 q-45 -30 -98 -30 Z" /><glyph glyph-name="seven" unicode="7" d="M205 0 q5 109 18 200.5 q13 91.5 38 172 q25 80.5 63.5 155 q38.5 74.5 92.5 150.5 l-369 0 l0 51 l440 0 l0 -35 q-65 -85 -106 -164 q-41 -79 -64.5 -160.5 q-23.5 -81.5 -34.5 -172 q-11 -90.5 -15 -197.5 l-63 0 Z" /><glyph glyph-name="eight" unicode="8" d="M271 -13 q-65 0 -116.5 25.5 q-51.5 25.5 -80.5 69.5 q-29 44 -29 99 q0 50 21 90.5 q21 40.5 53 70 q32 29.5 65 47.5 l0 4 q-39 26 -69.5 67 q-30.5 41 -30.5 99 q0 53 25 93.5 q25 40.5 67.5 63.5 q42.5 23 95.5 23 q61 0 104 -25 q43 -25 66 -68 q23 -43 23 -98 q0 -40 -16.5 -75 q-16.5 -35 -39.5 -62 q-23 -27 -44 -44 l0 -5 q31 -18 59.5 -43.5 q28.5 -25.5 46.5 -61 q18 -35.5 18 -85.5 q0 -52 -27.5 -93.5 q-27.5 -41.5 -76.5 -66.5 q-49 -25 -114 -25 ZM322 383 q89 74 89 163 q0 40 -16.5 73 q-16.5 33 -47.5 53 q-31 20 -76 20 q-57 0 -94 -37.5 q-37 -37.5 -37 -95.5 q0 -49 26.5 -81.5 q26.5 -32.5 68.5 -54.5 q42 -22 87 -40 ZM271 34 q73 0 116.5 40.5 q43.5 40.5 43.5 98.5 q0 56 -30 90.5 q-30 34.5 -78.5 58.5 q-48.5 24 -103.5 45 q-52 -31 -85.5 -77.5 q-33.5 -46.5 -33.5 -105.5 q0 -42 22 -76 q22 -34 61 -54 q39 -20 88 -20 Z" /><glyph glyph-name="nine" unicode="9" d="M104 509 q0 -79 35 -130.5 q35 -51.5 111 -51.5 q41 0 85.5 25.5 q44.5 25.5 84.5 81.5 q-4 119 -48 189.5 q-44 70.5 -130 70.5 q-39 0 -70.5 -24 q-31.5 -24 -49.5 -66 q-18 -42 -18 -95 ZM222 -13 q-53 0 -92.5 19.5 q-39.5 19.5 -68.5 50.5 l35 38 q50 -58 127 -58 q51 0 95 32.5 q44 32.5 72 107 q28 74.5 31 200.5 q-36 -43 -81.5 -70 q-45.5 -27 -96.5 -27 q-91 0 -144 59 q-53 59 -53 170 q0 69 27 121.5 q27 52.5 72 82 q45 29.5 98 29.5 q106 0 170.5 -86.5 q64.5 -86.5 64.5 -251.5 q0 -115 -21 -195 q-21 -80 -57 -129 q-36 -49 -82 -71 q-46 -22 -96 -22 Z" /><glyph glyph-name="colon" unicode=":" d="M125 405 q-20 0 -35.5 14.5 q-15.5 14.5 -15.5 39.5 q0 26 15.5 40.5 q15.5 14.5 35.5 14.5 q20 0 35.5 -14.5 q15.5 -14.5 15.5 -40.5 q0 -25 -15.5 -39.5 q-15.5 -14.5 -35.5 -14.5 ZM125 -13 q-20 0 -35.5 14.5 q-15.5 14.5 -15.5 39.5 q0 26 15.5 40.5 q15.5 14.5 35.5 14.5 q20 0 35.5 -14.5 q15.5 -14.5 15.5 -40.5 q0 -25 -15.5 -39.5 q-15.5 -14.5 -35.5 -14.5 Z" /><glyph glyph-name="semicolon" unicode=";" d="M125 405 q-20 0 -35.5 14.5 q-15.5 14.5 -15.5 39.5 q0 26 15.5 40.5 q15.5 14.5 35.5 14.5 q20 0 35.5 -14.5 q15.5 -14.5 15.5 -40.5 q0 -25 -15.5 -39.5 q-15.5 -14.5 -35.5 -14.5 ZM70 -176 l-17 38 q40 21 64 55.5 q24 34.5 24 78.5 q-3 -1 -6 -1 q-3 0 -6 0 q-21 0 -36.5 13 q-15.5 13 -15.5 38 q0 24 16.5 37 q16.5 13 36.5 13 q27 0 43.5 -23 q16.5 -23 16.5 -63 q0 -62 -33.5 -110.5 q-33.5 -48.5 -86.5 -75.5 Z" /><glyph glyph-name="less" unicode="&lt;" d="M497 158 l-460 182 l0 55 l460 182 l0 -54 l-252 -96 l-147 -57 l0 -4 l147 -57 l252 -97 l0 -54 Z" /><glyph glyph-name="equal" unicode="=" d="M37 457 l0 46 l460 0 l0 -46 l-460 0 ZM37 228 l0 47 l460 0 l0 -47 l-460 0 Z" /><glyph glyph-name="greater" unicode="&gt;" d="M37 158 l0 54 l252 97 l148 57 l0 4 l-148 57 l-252 96 l0 54 l460 -182 l0 -55 l-460 -182 Z" /><glyph glyph-name="question" unicode="?" d="M179 203 q-7 54 6.5 96 q13.5 42 38.5 77 q25 35 51 66.5 q26 31.5 44 65 q18 33.5 18 73.5 q0 49 -29.5 86.5 q-29.5 37.5 -92.5 37.5 q-39 0 -75.5 -18 q-36.5 -18 -63.5 -51 l-35 32 q33 37 77.5 62 q44.5 25 102.5 25 q82 0 128.5 -48 q46.5 -48 46.5 -122 q0 -45 -18.5 -81.5 q-18.5 -36.5 -45 -70 q-26.5 -33.5 -52 -67.5 q-25.5 -34 -40 -73.5 q-14.5 -39.5 -8.5 -89.5 l-53 0 ZM209 -13 q-20 0 -35 14.5 q-15 14.5 -15 39.5 q0 26 15 40.5 q15 14.5 35 14.5 q20 0 36 -14.5 q16 -14.5 16 -40.5 q0 -25 -16 -39.5 q-16 -14.5 -36 -14.5 Z" /><glyph glyph-name="at" unicode="@" d="M433 -163 q-107 0 -192.5 45.5 q-85.5 45.5 -134.5 131.5 q-49 86 -49 210 q0 109 36 197.5 q36 88.5 98 152 q62 63.5 142.5 97.5 q80.5 34 168.5 34 q108 0 187 -44.5 q79 -44.5 121.5 -124.5 q42.5 -80 42.5 -186 q0 -71 -19 -125.5 q-19 -54.5 -50 -91 q-31 -36.5 -67.5 -55 q-36.5 -18.5 -71.5 -18.5 q-44 0 -74 20.5 q-30 20.5 -34 63.5 l-2 0 q-29 -31 -63.5 -54 q-34.5 -23 -72.5 -23 q-52 0 -90 38.5 q-38 38.5 -38 114.5 q0 41 14 84.5 q14 43.5 41 81 q27 37.5 65.5 61 q38.5 23.5 87.5 23.5 q60 0 91 -54 l2 0 l11 45 l42 0 l-40 -211 q-18 -74 -1.5 -109.5 q16.5 -35.5 66.5 -35.5 q36 0 72 28.5 q36 28.5 60 82.5 q24 54 24 130 q0 95 -36.5 165.5 q-36.5 70.5 -105.5 109.5 q-69 39 -166 39 q-75 0 -145.5 -30.5 q-70.5 -30.5 -126.5 -87.5 q-56 -57 -88.5 -137 q-32.5 -80 -32.5 -178 q0 -108 42 -185.5 q42 -77.5 117 -119 q75 -41.5 173 -41.5 q54 0 100 14.5 q46 14.5 84 38.5 l20 -39 q-94 -58 -208 -58 ZM408 112 q26 0 55 17.5 q29 17.5 61 54.5 l34 188 q-19 30 -37 41.5 q-18 11.5 -43 11.5 q-36 0 -65 -18.5 q-29 -18.5 -49.5 -48 q-20.5 -29.5 -31.5 -65 q-11 -35.5 -11 -70.5 q0 -61 25.5 -86 q25.5 -25 61.5 -25 Z" /><glyph glyph-name="A" unicode="A" d="M212 425 l-45 -132 l252 0 l-44 132 q-22 64 -41 124 q-19 60 -39 126 l-4 0 q-19 -66 -38 -126 q-19 -60 -41 -124 ZM8 0 l255 729 l62 0 l255 -729 l-64 0 l-81 245 l-284 0 l-83 -245 l-60 0 Z" /><glyph glyph-name="B" unicode="B" d="M106 0 l0 729 l201 0 q110 0 176.5 -42.5 q66.5 -42.5 66.5 -134.5 q0 -56 -28.5 -99 q-28.5 -43 -82.5 -60 l0 -5 q70 -12 112.5 -56 q42.5 -44 42.5 -119 q0 -106 -74.5 -159.5 q-74.5 -53.5 -197.5 -53.5 l-216 0 ZM166 411 l122 0 q108 0 155 36 q47 36 47 98 q0 74 -49.5 104.5 q-49.5 30.5 -146.5 30.5 l-128 0 l0 -269 ZM166 50 l142 0 q106 0 166.5 39 q60.5 39 60.5 124 q0 77 -59 113.5 q-59 36.5 -168 36.5 l-142 0 l0 -313 Z" /><glyph glyph-name="C" unicode="C" d="M368 -13 q-90 0 -159.5 46 q-69.5 46 -109 130.5 q-39.5 84.5 -39.5 201.5 q0 117 40 201.5 q40 84.5 111 130 q71 45.5 163 45.5 q65 0 114 -26.5 q49 -26.5 78 -61.5 l-34 -39 q-29 33 -68.5 53 q-39.5 20 -89.5 20 q-77 0 -133.5 -39 q-56.5 -39 -87 -111 q-30.5 -72 -30.5 -171 q0 -99 30 -172.5 q30 -73.5 86 -113.5 q56 -40 132 -40 q56 0 99 22.5 q43 22.5 82 65.5 l34 -38 q-42 -49 -94.5 -76.5 q-52.5 -27.5 -123.5 -27.5 Z" /><glyph glyph-name="D" unicode="D" d="M106 0 l0 729 l172 0 q112 0 186 -44 q74 -44 111 -125 q37 -81 37 -193 q0 -111 -37 -193.5 q-37 -82.5 -110.5 -128 q-73.5 -45.5 -185.5 -45.5 l-173 0 ZM166 51 l106 0 q96 0 157.5 39.5 q61.5 39.5 90.5 111 q29 71.5 29 165.5 q0 95 -29 165 q-29 70 -90.5 108.5 q-61.5 38.5 -157.5 38.5 l-106 0 l0 -628 Z" /><glyph glyph-name="E" unicode="E" d="M106 0 l0 729 l403 0 l0 -51 l-343 0 l0 -266 l289 0 l0 -51 l-289 0 l0 -309 l354 0 l0 -52 l-414 0 Z" /><glyph glyph-name="F" unicode="F" d="M106 0 l0 729 l402 0 l0 -51 l-342 0 l0 -281 l289 0 l0 -51 l-289 0 l0 -346 l-60 0 Z" /><glyph glyph-name="G" unicode="G" d="M376 -13 q-93 0 -164.5 46 q-71.5 46 -111.5 130.5 q-40 84.5 -40 201.5 q0 117 41 201.5 q41 84.5 114.5 130 q73.5 45.5 169.5 45.5 q74 0 123 -28 q49 -28 79 -60 l-35 -39 q-28 30 -67.5 51.5 q-39.5 21.5 -98.5 21.5 q-81 0 -140 -39 q-59 -39 -91 -111 q-32 -72 -32 -171 q0 -99 30.5 -172.5 q30.5 -73.5 88.5 -113.5 q58 -40 140 -40 q47 0 88.5 13.5 q41.5 13.5 66.5 38.5 l0 219 l-169 0 l0 51 l227 0 l0 -293 q-34 -37 -90 -60 q-56 -23 -129 -23 Z" /><glyph glyph-name="H" unicode="H" d="M106 0 l0 729 l60 0 l0 -316 l379 0 l0 316 l60 0 l0 -729 l-60 0 l0 361 l-379 0 l0 -361 l-60 0 Z" /><glyph glyph-name="I" unicode="I" d="M106 0 l0 729 l60 0 l0 -729 l-60 0 Z" /><glyph glyph-name="J" unicode="J" d="M227 -13 q-125 0 -185 109 l45 30 q27 -46 60 -65.5 q33 -19.5 78 -19.5 q65 0 96.5 39.5 q31.5 39.5 31.5 127.5 l0 521 l60 0 l0 -527 q0 -60 -18.5 -108.5 q-18.5 -48.5 -59 -77.5 q-40.5 -29 -108.5 -29 Z" /><glyph glyph-name="K" unicode="K" d="M106 0 l0 729 l60 0 l0 -396 l2 0 l342 396 l71 0 l-232 -271 l265 -458 l-69 0 l-236 411 l-143 -165 l0 -246 l-60 0 Z" /><glyph glyph-name="L" unicode="L" d="M106 0 l0 729 l60 0 l0 -677 l332 0 l0 -52 l-392 0 Z" /><glyph glyph-name="M" unicode="M" d="M106 0 l0 729 l80 0 l150 -419 q14 -40 28.5 -80 q14.5 -40 28.5 -80 l4 0 q14 40 27.5 80 q13.5 40 26.5 80 l150 419 l80 0 l0 -729 l-57 0 l0 462 q0 45 2.5 100 q2.5 55 4.5 101 l-4 0 l-57 -163 l-153 -422 l-48 0 l-154 422 l-57 163 l-4 0 q2 -46 4.5 -101 q2.5 -55 2.5 -100 l0 -462 l-55 0 Z" /><glyph glyph-name="N" unicode="N" d="M106 0 l0 729 l62 0 l298 -501 l81 -147 l5 0 q-3 54 -5.5 108.5 q-2.5 54.5 -2.5 107.5 l0 432 l57 0 l0 -729 l-62 0 l-297 502 l-82 146 l-5 0 q2 -52 5 -104 q3 -52 3 -107 l0 -437 l-57 0 Z" /><glyph glyph-name="O" unicode="O" d="M362 -13 q-88 0 -156 46.5 q-68 46.5 -107 132 q-39 85.5 -39 201.5 q0 116 39 200 q39 84 107 129.5 q68 45.5 156 45.5 q89 0 157.5 -45.5 q68.5 -45.5 107 -129.5 q38.5 -84 38.5 -200 q0 -116 -38.5 -201.5 q-38.5 -85.5 -107 -132 q-68.5 -46.5 -157.5 -46.5 ZM362 41 q73 0 127 40 q54 40 84 113.5 q30 73.5 30 172.5 q0 99 -30 171 q-30 72 -84 111 q-54 39 -127 39 q-72 0 -125.5 -39 q-53.5 -39 -83.5 -111 q-30 -72 -30 -171 q0 -99 30 -172.5 q30 -73.5 83.5 -113.5 q53.5 -40 125.5 -40 Z" /><glyph glyph-name="P" unicode="P" d="M106 0 l0 729 l189 0 q83 0 142.5 -20 q59.5 -20 91.5 -64.5 q32 -44.5 32 -120.5 q0 -109 -70 -162.5 q-70 -53.5 -192 -53.5 l-133 0 l0 -308 l-60 0 ZM166 358 l121 0 q108 0 160.5 39 q52.5 39 52.5 127 q0 89 -54 122 q-54 33 -163 33 l-117 0 l0 -321 Z" /><glyph glyph-name="Q" unicode="Q" d="M362 38 q73 0 127 40.5 q54 40.5 84 114.5 q30 74 30 174 q0 99 -30 171 q-30 72 -84 111 q-54 39 -127 39 q-72 0 -125.5 -39 q-53.5 -39 -83.5 -111 q-30 -72 -30 -171 q0 -100 30 -174 q30 -74 83.5 -114.5 q53.5 -40.5 125.5 -40.5 ZM578 -174 q-94 0 -156.5 46.5 q-62.5 46.5 -90.5 116.5 q-80 8 -141 56.5 q-61 48.5 -95.5 130.5 q-34.5 82 -34.5 191 q0 116 39 200 q39 84 107 129.5 q68 45.5 156 45.5 q89 0 157.5 -45.5 q68.5 -45.5 107 -129.5 q38.5 -84 38.5 -200 q0 -108 -34 -189.5 q-34 -81.5 -94 -130.5 q-60 -49 -140 -58 q24 -53 73 -81.5 q49 -28.5 114 -28.5 q25 0 43 3 q18 3 31 7 l13 -50 q-15 -5 -39.5 -9 q-24.5 -4 -53.5 -4 Z" /><glyph glyph-name="R" unicode="R" d="M106 0 l0 729 l213 0 q73 0 127.5 -19 q54.5 -19 85 -62 q30.5 -43 30.5 -114 q0 -87 -49.5 -137 q-49.5 -50 -132.5 -63 l197 -334 l-68 0 l-194 329 l-149 0 l0 -329 l-60 0 ZM166 379 l139 0 q95 0 145.5 38 q50.5 38 50.5 117 q0 80 -50.5 112.5 q-50.5 32.5 -145.5 32.5 l-139 0 l0 -300 Z" /><glyph glyph-name="S" unicode="S" d="M299 -13 q-79 0 -141.5 30 q-62.5 30 -106.5 79 l37 42 q40 -45 94.5 -71 q54.5 -26 116.5 -26 q81 0 128 39 q47 39 47 101 q0 44 -17 70.5 q-17 26.5 -46.5 44 q-29.5 17.5 -65.5 33.5 l-109 48 q-32 15 -66.5 37 q-34.5 22 -58 57 q-23.5 35 -23.5 88 q0 54 28 95.5 q28 41.5 77 64.5 q49 23 111 23 q66 0 119 -25 q53 -25 87 -63 l-34 -39 q-32 33 -75 53 q-43 20 -97 20 q-70 0 -112.5 -34 q-42.5 -34 -42.5 -90 q0 -41 20 -67 q20 -26 49 -42 q29 -16 55 -28 l109 -48 q42 -18 76.5 -42 q34.5 -24 55.5 -60 q21 -36 21 -92 q0 -56 -29 -101 q-29 -45 -82 -71 q-53 -26 -125 -26 Z" /><glyph glyph-name="T" unicode="T" d="M261 0 l0 678 l-229 0 l0 51 l520 0 l0 -51 l-230 0 l0 -678 l-61 0 Z" /><glyph glyph-name="U" unicode="U" d="M352 -13 q-49 0 -94 14.5 q-45 14.5 -80 48.5 q-35 34 -55 91.5 q-20 57.5 -20 143.5 l0 444 l60 0 l0 -441 q0 -95 26 -149 q26 -54 69.5 -76 q43.5 -22 93.5 -22 q52 0 95.5 22 q43.5 22 70.5 76 q27 54 27 149 l0 441 l57 0 l0 -444 q0 -86 -20.5 -143.5 q-20.5 -57.5 -55.5 -91.5 q-35 -34 -80 -48.5 q-45 -14.5 -94 -14.5 Z" /><glyph glyph-name="V" unicode="V" d="M243 0 l-239 729 l64 0 l131 -419 q20 -66 36.5 -122 q16.5 -56 38.5 -122 l4 0 q23 66 39.5 122 q16.5 56 37.5 122 l130 419 l61 0 l-237 -729 l-66 0 Z" /><glyph glyph-name="W" unicode="W" d="M193 0 l-163 729 l62 0 l88 -422 q13 -59 25 -118.5 q12 -59.5 24 -119.5 l4 0 q14 60 28 119.5 q14 59.5 28 118.5 l111 422 l59 0 l112 -422 q14 -59 28 -118.5 q14 -59.5 28 -119.5 l5 0 q11 60 22.5 119.5 q11.5 59.5 23.5 118.5 l89 422 l58 0 l-160 -729 l-68 0 l-129 487 q-9 44 -18.5 83 q-9.5 39 -19.5 82 l-4 0 q-9 -43 -19.5 -82 q-10.5 -39 -20.5 -83 l-125 -487 l-68 0 Z" /><glyph glyph-name="X" unicode="X" d="M19 0 l217 377 l-203 352 l66 0 l115 -208 q15 -25 28 -48 q13 -23 31 -53 l4 0 q17 30 28.5 53 q11.5 23 25.5 48 l115 208 l62 0 l-203 -355 l218 -374 l-65 0 l-123 218 q-15 26 -31 54.5 q-16 28.5 -36 61.5 l-4 0 q-16 -33 -31.5 -61.5 q-15.5 -28.5 -29.5 -54.5 l-122 -218 l-62 0 Z" /><glyph glyph-name="Y" unicode="Y" d="M221 0 l0 293 l-219 436 l64 0 l107 -223 q20 -40 38 -78.5 q18 -38.5 38 -79.5 l4 0 q21 41 41 79.5 q20 38.5 37 78.5 l107 223 l62 0 l-219 -436 l0 -293 l-60 0 Z" /><glyph glyph-name="Z" unicode="Z" d="M54 0 l0 35 l412 643 l-375 0 l0 51 l449 0 l0 -35 l-411 -642 l416 0 l0 -52 l-491 0 Z" /><glyph glyph-name="bracketleft" unicode="[" d="M108 -168 l0 952 l181 0 l0 -36 l-136 0 l0 -880 l136 0 l0 -36 l-181 0 Z" /><glyph glyph-name="backslash" unicode="\" d="M337 -177 l-329 964 l47 0 l329 -964 l-47 0 Z" /><glyph glyph-name="bracketright" unicode="]" d="M26 -168 l0 36 l136 0 l0 880 l-136 0 l0 36 l181 0 l0 -952 l-181 0 Z" /><glyph glyph-name="asciicircum" unicode="^" d="M72 319 l167 423 l57 0 l167 -423 l-54 0 l-83 220 l-56 146 l-5 0 l-56 -146 l-83 -220 l-54 0 Z" /><glyph glyph-name="underscore" unicode="_" d="M13 -132 l0 47 l528 0 l0 -47 l-528 0 Z" /><glyph glyph-name="grave" unicode="`" d="M325 635 l-162 168 l43 38 l151 -176 l-32 -30 Z" /><glyph glyph-name="a" unicode="a" d="M218 -13 q-64 0 -109.5 36.5 q-45.5 36.5 -45.5 110.5 q0 89 82 135 q82 46 258 66 q1 40 -8.5 76.5 q-9.5 36.5 -36 60.5 q-26.5 24 -77.5 24 q-52 0 -96 -20 q-44 -20 -72 -41 l-26 42 q21 14 51.5 30.5 q30.5 16.5 69 28 q38.5 11.5 81.5 11.5 q64 0 101.5 -27.5 q37.5 -27.5 54 -75 q16.5 -47.5 16.5 -106.5 l0 -338 l-49 0 l-6 68 l-2 0 q-40 -33 -87.5 -57 q-47.5 -24 -98.5 -24 ZM230 36 q44 0 85 21 q41 21 88 62 l0 173 q-105 -12 -166.5 -32.5 q-61.5 -20.5 -88.5 -51 q-27 -30.5 -27 -71.5 q0 -55 32.5 -78 q32.5 -23 76.5 -23 Z" /><glyph glyph-name="b" unicode="b" d="M314 -13 q-37 0 -79 18 q-42 18 -79 49 l-2 0 l-7 -54 l-47 0 l0 795 l58 0 l0 -228 l-3 -102 q40 34 86 58 q46 24 94 24 q107 0 160.5 -74.5 q53.5 -74.5 53.5 -197.5 q0 -91 -32.5 -155.5 q-32.5 -64.5 -86 -98.5 q-53.5 -34 -116.5 -34 ZM309 38 q52 0 92 29.5 q40 29.5 63 83 q23 53.5 23 124.5 q0 64 -16 114 q-16 50 -51.5 78.5 q-35.5 28.5 -95.5 28.5 q-38 0 -79.5 -22 q-41.5 -22 -86.5 -63 l0 -308 q41 -36 81.5 -50.5 q40.5 -14.5 69.5 -14.5 Z" /><glyph glyph-name="c" unicode="c" d="M300 -13 q-69 0 -124.5 33 q-55.5 33 -87.5 95.5 q-32 62.5 -32 150.5 q0 89 34.5 152 q34.5 63 90.5 96 q56 33 122 33 q53 0 90.5 -20 q37.5 -20 65.5 -45 l-33 -40 q-25 23 -54.5 38.5 q-29.5 15.5 -67.5 15.5 q-53 0 -95.5 -29 q-42.5 -29 -67 -81 q-24.5 -52 -24.5 -120 q0 -68 23 -119.5 q23 -51.5 65 -80.5 q42 -29 98 -29 q41 0 76.5 17.5 q35.5 17.5 62.5 41.5 l29 -40 q-35 -30 -78 -49.5 q-43 -19.5 -93 -19.5 Z" /><glyph glyph-name="d" unicode="d" d="M277 -13 q-100 0 -160.5 72.5 q-60.5 72.5 -60.5 206.5 q0 86 33 149 q33 63 86.5 97.5 q53.5 34.5 116.5 34.5 q48 0 84 -17 q36 -17 75 -48 l-4 96 l0 217 l58 0 l0 -795 l-48 0 l-6 67 l-3 0 q-32 -32 -75.5 -56 q-43.5 -24 -95.5 -24 ZM287 38 q43 0 81.5 21.5 q38.5 21.5 78.5 62.5 l0 308 q-40 36 -75.5 51 q-35.5 15 -73.5 15 q-51 0 -91.5 -30 q-40.5 -30 -64.5 -82 q-24 -52 -24 -118 q0 -103 44 -165.5 q44 -62.5 125 -62.5 Z" /><glyph glyph-name="e" unicode="e" d="M304 -13 q-69 0 -125 33.5 q-56 33.5 -89.5 96 q-33.5 62.5 -33.5 149.5 q0 87 33.5 150 q33.5 63 87 97 q53.5 34 113.5 34 q97 0 151.5 -65.5 q54.5 -65.5 54.5 -182.5 q0 -22 -3 -42 l-378 0 q2 -65 26.5 -115 q24.5 -50 68 -78 q43.5 -28 100.5 -28 q43 0 77.5 12.5 q34.5 12.5 64.5 33.5 l22 -43 q-32 -20 -72 -36 q-40 -16 -98 -16 ZM115 303 l328 0 q0 97 -41 145.5 q-41 48.5 -111 48.5 q-43 0 -81.5 -23 q-38.5 -23 -63.5 -66.5 q-25 -43.5 -31 -104.5 Z" /><glyph glyph-name="f" unicode="f" d="M109 0 l0 484 l-74 0 l0 44 l74 5 l0 112 q0 80 35 121.5 q35 41.5 102 41.5 q20 0 40.5 -4.5 q20.5 -4.5 39.5 -12.5 l-14 -47 q-33 15 -63 15 q-43 0 -62.5 -30.5 q-19.5 -30.5 -19.5 -86.5 l0 -109 l121 0 l0 -49 l-121 0 l0 -484 l-58 0 Z" /><glyph glyph-name="g" unicode="g" d="M275 -254 q-100 0 -160 39.5 q-60 39.5 -60 106.5 q0 35 21.5 68.5 q21.5 33.5 58.5 58.5 l0 5 q-20 12 -34 33.5 q-14 21.5 -14 52.5 q0 35 20.5 60.5 q20.5 25.5 38.5 38.5 l0 4 q-25 21 -46.5 59 q-21.5 38 -21.5 86 q0 56 26 98.5 q26 42.5 69.5 66.5 q43.5 24 95.5 24 q22 0 40 -4.5 q18 -4.5 31 -9.5 l182 0 l0 -48 l-120 0 q24 -21 39.5 -54 q15.5 -33 15.5 -74 q0 -55 -25 -97.5 q-25 -42.5 -67.5 -66.5 q-42.5 -24 -95.5 -24 q-22 0 -45 6 q-23 6 -41 16 q-16 -13 -29 -30.5 q-13 -17.5 -13 -43.5 q0 -28 21 -47.5 q21 -19.5 79 -19.5 l112 0 q91 0 134.5 -29.5 q43.5 -29.5 43.5 -93.5 q0 -46 -31.5 -87.5 q-31.5 -41.5 -89 -67.5 q-57.5 -26 -135.5 -26 ZM269 213 q35 0 65 18 q30 18 48.5 51 q18.5 33 18.5 76 q0 66 -39 104 q-39 38 -93 38 q-55 0 -94 -38 q-39 -38 -39 -104 q0 -43 18.5 -76 q18.5 -33 49 -51 q30.5 -18 65.5 -18 ZM282 -210 q58 0 101 19 q43 19 66.5 48.5 q23.5 29.5 23.5 61.5 q0 43 -31 60.5 q-31 17.5 -90 17.5 l-109 0 q-9 0 -28 2.5 q-19 2.5 -39 6.5 q-34 -24 -50 -52 q-16 -28 -16 -55 q0 -49 45 -79 q45 -30 127 -30 Z" /><glyph glyph-name="h" unicode="h" d="M100 0 l0 795 l58 0 l0 -228 l-1 -116 q41 41 84 68.5 q43 27.5 98 27.5 q83 0 122.5 -51.5 q39.5 -51.5 39.5 -154.5 l0 -341 l-58 0 l0 333 q0 83 -27.5 122.5 q-27.5 39.5 -89.5 39.5 q-46 0 -83.5 -24 q-37.5 -24 -84.5 -72 l0 -399 l-58 0 Z" /><glyph glyph-name="i" unicode="i" d="M100 0 l0 533 l58 0 l0 -533 l-58 0 ZM130 658 q-20 0 -33.5 13.5 q-13.5 13.5 -13.5 35.5 q0 21 13.5 33.5 q13.5 12.5 33.5 12.5 q20 0 33 -12.5 q13 -12.5 13 -33.5 q0 -22 -13 -35.5 q-13 -13.5 -33 -13.5 Z" /><glyph glyph-name="j" unicode="j" d="M33 -251 q-20 0 -39 4 q-19 4 -32 10 l13 46 q11 -4 25 -7.5 q14 -3.5 30 -3.5 q44 0 57 32 q13 32 13 82 l0 621 l59 0 l0 -623 q0 -79 -30.5 -120 q-30.5 -41 -95.5 -41 ZM128 658 q-20 0 -33 13.5 q-13 13.5 -13 35.5 q0 21 13 33.5 q13 12.5 33 12.5 q20 0 33 -12.5 q13 -12.5 13 -33.5 q0 -22 -13 -35.5 q-13 -13.5 -33 -13.5 Z" /><glyph glyph-name="k" unicode="k" d="M100 0 l0 795 l58 0 l0 -576 l2 0 l255 314 l66 0 l-174 -211 l202 -322 l-64 0 l-172 280 l-115 -136 l0 -144 l-58 0 Z" /><glyph glyph-name="l" unicode="l" d="M171 -13 q-71 0 -71 92 l0 716 l58 0 l0 -722 q0 -36 24 -36 q3 0 7 0.5 q4 0.5 12 1.5 l9 -46 q-7 -2 -16 -4 q-9 -2 -23 -2 Z" /><glyph glyph-name="m" unicode="m" d="M100 0 l0 533 l48 0 l7 -81 l2 0 q36 40 79.5 67.5 q43.5 27.5 88.5 27.5 q64 0 98.5 -29.5 q34.5 -29.5 48.5 -78.5 q45 49 89.5 78.5 q44.5 29.5 90.5 29.5 q160 0 160 -206 l0 -341 l-58 0 l0 333 q0 83 -28 122.5 q-28 39.5 -87 39.5 q-36 0 -73.5 -24 q-37.5 -24 -80.5 -72 l0 -399 l-58 0 l0 333 q0 83 -28 122.5 q-28 39.5 -87 39.5 q-70 0 -154 -96 l0 -399 l-58 0 Z" /><glyph glyph-name="n" unicode="n" d="M100 0 l0 533 l48 0 l7 -81 l2 0 q41 40 84 67.5 q43 27.5 98 27.5 q83 0 122.5 -51.5 q39.5 -51.5 39.5 -154.5 l0 -341 l-58 0 l0 333 q0 83 -27.5 122.5 q-27.5 39.5 -89.5 39.5 q-46 0 -83.5 -24 q-37.5 -24 -84.5 -72 l0 -399 l-58 0 Z" /><glyph glyph-name="o" unicode="o" d="M297 -13 q-64 0 -119 33 q-55 33 -88.5 95.5 q-33.5 62.5 -33.5 150.5 q0 89 33.5 152 q33.5 63 88.5 96 q55 33 119 33 q65 0 119.5 -33 q54.5 -33 88 -96 q33.5 -63 33.5 -152 q0 -88 -33.5 -150.5 q-33.5 -62.5 -88 -95.5 q-54.5 -33 -119.5 -33 ZM297 37 q52 0 93 29 q41 29 64.5 80.5 q23.5 51.5 23.5 119.5 q0 68 -23.5 120 q-23.5 52 -64.5 81 q-41 29 -93 29 q-52 0 -92.5 -29 q-40.5 -29 -64 -81 q-23.5 -52 -23.5 -120 q0 -68 23.5 -119.5 q23.5 -51.5 64 -80.5 q40.5 -29 92.5 -29 Z" /><glyph glyph-name="p" unicode="p" d="M100 -238 l0 771 l48 0 l7 -65 l2 0 q39 30 84 54.5 q45 24.5 94 24.5 q107 0 160.5 -74.5 q53.5 -74.5 53.5 -197.5 q0 -91 -32.5 -155.5 q-32.5 -64.5 -86 -98.5 q-53.5 -34 -116.5 -34 q-37 0 -76.5 17 q-39.5 17 -80.5 48 l1 -98 l0 -192 l-58 0 ZM309 38 q52 0 92 29.5 q40 29.5 63 83 q23 53.5 23 124.5 q0 64 -16 114 q-16 50 -51.5 78.5 q-35.5 28.5 -95.5 28.5 q-38 0 -78.5 -22 q-40.5 -22 -87.5 -63 l0 -308 q43 -36 82.5 -50.5 q39.5 -14.5 68.5 -14.5 Z" /><glyph glyph-name="q" unicode="q" d="M447 -238 l0 203 l4 104 q-35 -34 -78.5 -58 q-43.5 -24 -95.5 -24 q-100 0 -160.5 72.5 q-60.5 72.5 -60.5 206.5 q0 86 33 149 q33 63 86.5 97.5 q53.5 34.5 116.5 34.5 q48 0 84 -17 q36 -17 73 -47 l2 0 l7 50 l47 0 l0 -771 l-58 0 ZM287 38 q43 0 81.5 21.5 q38.5 21.5 78.5 62.5 l0 308 q-40 36 -75.5 51 q-35.5 15 -73.5 15 q-51 0 -91.5 -30 q-40.5 -30 -64.5 -82 q-24 -52 -24 -118 q0 -103 44 -165.5 q44 -62.5 125 -62.5 Z" /><glyph glyph-name="r" unicode="r" d="M100 0 l0 533 l48 0 l7 -99 l2 0 q27 50 66 81.5 q39 31.5 85 31.5 q31 0 54 -12 l-12 -52 q-13 5 -23 7 q-10 2 -26 2 q-35 0 -74.5 -30 q-39.5 -30 -68.5 -104 l0 -358 l-58 0 Z" /><glyph glyph-name="s" unicode="s" d="M231 -13 q-58 0 -108.5 21.5 q-50.5 21.5 -87.5 51.5 l31 42 q35 -28 74 -47.5 q39 -19.5 94 -19.5 q61 0 91.5 30 q30.5 30 30.5 71 q0 32 -19.5 53 q-19.5 21 -49 35.5 q-29.5 14.5 -60.5 25.5 q-39 14 -76.5 32 q-37.5 18 -62 46.5 q-24.5 28.5 -24.5 74.5 q0 39 20 72 q20 33 59.5 52.5 q39.5 19.5 95.5 19.5 q44 0 85 -16.5 q41 -16.5 70 -40.5 l-31 -40 q-27 20 -56.5 34 q-29.5 14 -68.5 14 q-60 0 -88 -28 q-28 -28 -28 -64 q0 -29 17 -48 q17 -19 44.5 -31.5 q27.5 -12.5 58.5 -24.5 q41 -15 80.5 -33 q39.5 -18 65.5 -48 q26 -30 26 -82 q0 -41 -21 -75.5 q-21 -34.5 -62 -55.5 q-41 -21 -100 -21 Z" /><glyph glyph-name="t" unicode="t" d="M250 -13 q-79 0 -108 45.5 q-29 45.5 -29 119.5 l0 332 l-83 0 l0 44 l85 5 l7 154 l49 0 l0 -154 l153 0 l0 -49 l-153 0 l0 -336 q0 -50 18 -80.5 q18 -30.5 71 -30.5 q15 0 33 4.5 q18 4.5 32 11.5 l14 -46 q-23 -8 -47 -14 q-24 -6 -42 -6 Z" /><glyph glyph-name="u" unicode="u" d="M253 -13 q-83 0 -122 51 q-39 51 -39 154 l0 341 l58 0 l0 -334 q0 -82 27.5 -121 q27.5 -39 88.5 -39 q47 0 84 25 q37 25 82 79 l0 390 l58 0 l0 -533 l-49 0 l-5 88 l-3 0 q-39 -45 -81.5 -73 q-42.5 -28 -98.5 -28 Z" /><glyph glyph-name="v" unicode="v" d="M211 0 l-198 533 l63 0 l115 -327 q13 -39 26.5 -78.5 q13.5 -39.5 26.5 -75.5 l4 0 q13 36 26.5 75.5 q13.5 39.5 26.5 78.5 l116 327 l59 0 l-196 -533 l-69 0 Z" /><glyph glyph-name="w" unicode="w" d="M182 0 l-156 533 l62 0 l93 -336 q9 -38 18 -73.5 q9 -35.5 16 -71.5 l5 0 q10 36 19 72 q9 36 19 73 l95 336 l64 0 l95 -336 q10 -38 19.5 -73.5 q9.5 -35.5 19.5 -71.5 l4 0 q9 36 18 71.5 q9 35.5 19 73.5 l91 336 l57 0 l-150 -533 l-75 0 l-90 321 q-11 38 -20 75.5 q-9 37.5 -20 77.5 l-5 0 q-9 -40 -18.5 -78 q-9.5 -38 -22.5 -77 l-87 -319 l-70 0 Z" /><glyph glyph-name="x" unicode="x" d="M15 0 l180 279 l-165 254 l64 0 l82 -131 q14 -22 28 -44 q14 -22 29 -44 l4 0 q14 22 27 44 q13 22 26 44 l79 131 l61 0 l-165 -260 l180 -273 l-65 0 l-91 141 q-13 25 -28.5 49.5 q-15.5 24.5 -32.5 47.5 l-5 0 q-15 -23 -29.5 -47.5 q-14.5 -24.5 -30.5 -49.5 l-86 -141 l-62 0 Z" /><glyph glyph-name="y" unicode="y" d="M85 -240 q-33 0 -57 11 l13 49 q8 -3 20 -5.5 q12 -2.5 23 -2.5 q48 0 81 38.5 q33 38.5 52 96.5 l14 45 l-218 541 l63 0 l124 -326 q13 -34 27.5 -74 q14.5 -40 28.5 -76 l5 0 q12 36 24.5 76 q12.5 40 23.5 74 l109 326 l59 0 l-208 -595 q-15 -46 -39.5 -86.5 q-24.5 -40.5 -60 -66 q-35.5 -25.5 -84.5 -25.5 Z" /><glyph glyph-name="z" unicode="z" d="M32 0 l0 31 l307 453 l-274 0 l0 49 l349 0 l0 -31 l-307 -452 l317 0 l0 -50 l-392 0 Z" /><glyph glyph-name="braceleft" unicode="{" d="M249 -168 q-63 0 -93.5 29 q-30.5 29 -30.5 113 q0 62 4.5 114.5 q4.5 52.5 4.5 109.5 q0 23 -7.5 43.5 q-7.5 20.5 -28 33.5 q-20.5 13 -59.5 13 l0 40 q39 0 59.5 13 q20.5 13 28 33 q7.5 20 7.5 41 q0 59 -4.5 112 q-4.5 53 -4.5 114 q0 85 30.5 114 q30.5 29 93.5 29 l40 0 l0 -36 l-33 0 q-49 0 -66 -27 q-17 -27 -17 -85 q0 -52 3.5 -101 q3.5 -49 3.5 -109 q0 -49 -12.5 -77.5 q-12.5 -28.5 -46.5 -38.5 l0 -4 q34 -10 46.5 -39 q12.5 -29 12.5 -78 q0 -59 -3.5 -107.5 q-3.5 -48.5 -3.5 -101.5 q0 -57 17 -84.5 q17 -27.5 66 -27.5 l33 0 l0 -36 l-40 0 Z" /><glyph glyph-name="bar" unicode="|" d="M105 -277 l0 1108 l44 0 l0 -1108 l-44 0 Z" /><glyph glyph-name="braceright" unicode="}" d="M26 -168 l0 36 l33 0 q49 0 65.5 27.5 q16.5 27.5 16.5 84.5 q0 53 -3 101.5 q-3 48.5 -3 107.5 q0 49 12.5 78 q12.5 29 46.5 39 l0 4 q-34 10 -46.5 38.5 q-12.5 28.5 -12.5 77.5 q0 60 3 109 q3 49 3 101 q0 58 -16.5 85 q-16.5 27 -65.5 27 l-33 0 l0 36 l40 0 q62 0 93 -29 q31 -29 31 -114 q0 -61 -4.5 -114 q-4.5 -53 -4.5 -112 q0 -21 7.5 -41 q7.5 -20 28.5 -33 q21 -13 59 -13 l0 -40 q-38 0 -59 -13 q-21 -13 -28.5 -33.5 q-7.5 -20.5 -7.5 -43.5 q0 -57 4.5 -109.5 q4.5 -52.5 4.5 -114.5 q0 -84 -31 -113 q-31 -29 -93 -29 l-40 0 Z" /><glyph glyph-name="asciitilde" unicode="~" d="M366 293 q-32 0 -58.5 15 q-26.5 15 -49.5 34 q-23 19 -45.5 34 q-22.5 15 -46.5 15 q-24 0 -45.5 -15.5 q-21.5 -15.5 -41.5 -53.5 l-35 23 q26 48 58.5 70.5 q32.5 22.5 66.5 22.5 q32 0 58.5 -15 q26.5 -15 49.5 -34 q23 -19 45 -34 q22 -15 46 -15 q25 0 46.5 15.5 q21.5 15.5 40.5 53.5 l36 -24 q-25 -47 -58.5 -69.5 q-33.5 -22.5 -66.5 -22.5 Z" /><glyph glyph-name="exclamdown" unicode="¡" d="M117 -209 l1 84 l8 455 l43 0 l7 -455 l1 -84 l-60 0 ZM147 437 q-19 0 -35 15.5 q-16 15.5 -16 40.5 q0 25 16 39.5 q16 14.5 35 14.5 q20 0 35.5 -14.5 q15.5 -14.5 15.5 -39.5 q0 -25 -15.5 -40.5 q-15.5 -15.5 -35.5 -15.5 Z" /><glyph glyph-name="cent" unicode="¢" d="M284 -32 l0 120 q-63 7 -111.5 38.5 q-48.5 31.5 -76.5 86.5 q-28 55 -28 131 q0 77 29 131.5 q29 54.5 78.5 86.5 q49.5 32 108.5 39 l0 122 l42 0 l0 -120 q50 -1 86 -21 q36 -20 63 -45 l-31 -37 q-25 23 -55 38 q-30 15 -63 15 l0 -417 q40 2 73.5 19 q33.5 17 58.5 39 l29 -37 q-33 -30 -73.5 -49.5 q-40.5 -19.5 -87.5 -21.5 l0 -118 l-42 0 ZM127 344 q0 -84 42.5 -139 q42.5 -55 114.5 -66 l0 411 q-70 -13 -113.5 -68 q-43.5 -55 -43.5 -138 Z" /><glyph glyph-name="sterling" unicode="£" d="M62 0 l0 36 q60 34 88.5 90.5 q28.5 56.5 28.5 120.5 q0 20 -2.5 38.5 q-2.5 18.5 -7.5 37.5 l-110 0 l0 41 l74 3 l25 0 q-12 41 -23 80.5 q-11 39.5 -11 81.5 q0 89 52 140.5 q52 51.5 140 51.5 q57 0 97 -23.5 q40 -23.5 65 -56.5 l-37 -35 q-22 28 -51.5 46 q-29.5 18 -72.5 18 q-66 0 -100.5 -40.5 q-34.5 -40.5 -34.5 -100.5 q0 -42 11.5 -81.5 q11.5 -39.5 22.5 -80.5 l181 0 l0 -44 l-171 0 q4 -18 6 -37 q2 -19 2 -39 q0 -67 -20 -110.5 q-20 -43.5 -57 -80.5 l0 -4 l323 0 l0 -52 l-418 0 Z" /><glyph glyph-name="currency" unicode="¤" d="M66 123 l-33 36 l72 74 q-41 53 -41 131 q0 80 41 133 l-72 75 l33 35 l74 -76 q55 47 128 47 q71 0 126 -47 l74 76 l34 -35 l-73 -75 q20 -26 31 -59.5 q11 -33.5 11 -73.5 q0 -39 -11 -72 q-11 -33 -31 -59 l73 -74 l-34 -36 l-74 76 q-25 -23 -58 -35.5 q-33 -12.5 -68 -12.5 q-74 0 -128 48 l-74 -76 ZM268 198 q40 0 73 21 q33 21 53.5 58.5 q20.5 37.5 20.5 86.5 q0 49 -20.5 86.5 q-20.5 37.5 -53.5 59 q-33 21.5 -73 21.5 q-40 0 -74 -21.5 q-34 -21.5 -54 -59 q-20 -37.5 -20 -86.5 q0 -49 20 -86.5 q20 -37.5 54 -58.5 q34 -21 74 -21 Z" /><glyph glyph-name="yen" unicode="¥" d="M237 0 l0 182 l-183 0 l0 40 l183 0 l0 77 l-183 0 l0 41 l166 0 l-189 368 l63 0 l100 -209 q17 -37 34.5 -74 q17.5 -37 36.5 -78 l5 0 q20 41 37 78 q17 37 36 74 l101 209 l60 0 l-191 -368 l167 0 l0 -41 l-184 0 l0 -77 l184 0 l0 -40 l-184 0 l0 -182 l-59 0 Z" /><glyph glyph-name="brokenbar" unicode="¦" d="M105 311 l0 520 l44 0 l0 -520 l-44 0 ZM105 -277 l0 519 l44 0 l0 -519 l-44 0 Z" /><glyph glyph-name="section" unicode="§" d="M664 678 q-19 15 -63 32.5 q-44 17.5 -102 17.5 q-39 0 -69 -15.5 q-30 -15.5 -47 -39 q-17 -23.5 -17 -46.5 q0 -35 23 -57 q23 -22 61.5 -35.5 q38.5 -13.5 84.5 -25.5 q89 -22 136.5 -60 q47.5 -38 47.5 -99 q0 -41 -17 -79 q-17 -38 -44 -61 q15 -13 26.5 -39 q11.5 -26 11.5 -58 q0 -45 -26 -83.5 q-26 -38.5 -73 -62 q-47 -23.5 -112 -23.5 q-63 0 -106.5 13.5 q-43.5 13.5 -70.5 37.5 l26 42 q19 -16 56.5 -33 q37.5 -17 98.5 -17 q74 0 114.5 35.5 q40.5 35.5 40.5 84.5 q0 29 -14 51 q-14 22 -51 41 q-37 19 -107 39 q-102 30 -147 67 q-45 37 -45 99 q0 26 16.5 60.5 q16.5 34.5 54.5 66.5 q-19 14 -28.5 39 q-9.5 25 -9.5 46 q0 41 23.5 76.5 q23.5 35.5 68.5 57 q45 21.5 108 21.5 q61 0 106 -16.5 q45 -16.5 68 -32.5 l-23 -44 ZM331 407 q0 -19 9 -37.5 q9 -18.5 41 -37.5 q32 -19 101 -42 q69 -22 99.5 -35 q30.5 -13 44.5 -22 q20 20 31 47.5 q11 27.5 11 55.5 q0 35 -20.5 58.5 q-20.5 23.5 -54 38.5 q-33.5 15 -72 26.5 q-38.5 11.5 -75 22 q-36.5 10.5 -62.5 25.5 q-28 -25 -40.5 -51 q-12.5 -26 -12.5 -49 Z" /><glyph glyph-name="dieresis" unicode="¨" d="M197 660 q-19 0 -31.5 12.5 q-12.5 12.5 -12.5 30.5 q0 19 12.5 32 q12.5 13 31.5 13 q19 0 31.5 -13 q12.5 -13 12.5 -32 q0 -18 -12.5 -30.5 q-12.5 -12.5 -31.5 -12.5 ZM397 660 q-19 0 -31.5 12.5 q-12.5 12.5 -12.5 30.5 q0 19 12.5 32 q12.5 13 31.5 13 q19 0 31.5 -13 q12.5 -13 12.5 -32 q0 -18 -12.5 -30.5 q-12.5 -12.5 -31.5 -12.5 Z" /><glyph glyph-name="copyright" unicode="©" d="M411 -12 q-72 0 -136 26 q-64 26 -113 74.5 q-49 48.5 -77.5 116.5 q-28.5 68 -28.5 152 q0 84 28.5 151.5 q28.5 67.5 77.5 115.5 q49 48 113 73.5 q64 25.5 136 25.5 q72 0 136 -25.5 q64 -25.5 113 -73.5 q49 -48 77.5 -115.5 q28.5 -67.5 28.5 -151.5 q0 -84 -28.5 -152 q-28.5 -68 -77.5 -116.5 q-49 -48.5 -113 -74.5 q-64 -26 -136 -26 ZM411 23 q63 0 119.5 24 q56.5 24 100 68.5 q43.5 44.5 68.5 105.5 q25 61 25 136 q0 74 -25 135 q-25 61 -68.5 104.5 q-43.5 43.5 -100 67 q-56.5 23.5 -119.5 23.5 q-63 0 -120 -23.5 q-57 -23.5 -100.5 -67 q-43.5 -43.5 -68.5 -104.5 q-25 -61 -25 -135 q0 -75 25 -136 q25 -61 68.5 -105.5 q43.5 -44.5 100.5 -68.5 q57 -24 120 -24 ZM417 138 q-53 0 -97.5 26 q-44.5 26 -71 75 q-26.5 49 -26.5 118 q0 65 28 111.5 q28 46.5 74 71.5 q46 25 98 25 q45 0 76.5 -17.5 q31.5 -17.5 57.5 -44.5 l-28 -32 q-25 23 -49 35.5 q-24 12.5 -56 12.5 q-65 0 -106.5 -44.5 q-41.5 -44.5 -41.5 -117.5 q0 -80 39.5 -127 q39.5 -47 105.5 -47 q39 0 69 16 q30 16 55 38 l24 -35 q-29 -26 -63.5 -45 q-34.5 -19 -87.5 -19 Z" /><glyph glyph-name="ordfeminine" unicode="ª" d="M153 438 q-48 0 -78 27 q-30 27 -30 74 q0 59 54.5 90 q54.5 31 171.5 42 q0 41 -15 69 q-15 28 -59 28 q-33 0 -65.5 -13.5 q-32.5 -13.5 -52.5 -27.5 l-19 34 q23 16 61 31.5 q38 15.5 81 15.5 q65 0 91 -38 q26 -38 26 -103 l0 -220 l-38 0 l-7 43 l-4 0 q-23 -20 -52.5 -36 q-29.5 -16 -64.5 -16 ZM166 478 q50 0 105 52 l0 108 q-99 -10 -138.5 -34.5 q-39.5 -24.5 -39.5 -60.5 q0 -34 19.5 -49.5 q19.5 -15.5 53.5 -15.5 Z" /><glyph glyph-name="guillemotleft" unicode="«" d="M200 78 l-152 178 l0 47 l152 177 l30 -26 l-135 -175 l135 -177 l-30 -24 ZM360 78 l-152 178 l0 47 l152 177 l29 -26 l-134 -175 l134 -177 l-29 -24 Z" /><glyph glyph-name="logicalnot" unicode="¬" d="M446 120 l0 222 l-409 0 l0 47 l460 0 l0 -269 l-51 0 Z" /><glyph glyph-name="registered" unicode="®" d="M225 358 q-55 0 -101.5 27 q-46.5 27 -74 75.5 q-27.5 48.5 -27.5 112.5 q0 64 27.5 112.5 q27.5 48.5 74 76 q46.5 27.5 101.5 27.5 q55 0 101 -27.5 q46 -27.5 74 -76 q28 -48.5 28 -112.5 q0 -64 -28 -112.5 q-28 -48.5 -74 -75.5 q-46 -27 -101 -27 ZM225 391 q46 0 83.5 23.5 q37.5 23.5 60 64.5 q22.5 41 22.5 94 q0 53 -22.5 94 q-22.5 41 -60 65 q-37.5 24 -83.5 24 q-47 0 -85 -24 q-38 -24 -60.5 -65 q-22.5 -41 -22.5 -94 q0 -53 22.5 -94 q22.5 -41 60.5 -64.5 q38 -23.5 85 -23.5 ZM148 463 l0 228 l79 0 q32 0 58 -15.5 q26 -15.5 26 -56.5 q0 -20 -12 -38 q-12 -18 -31 -23 l54 -95 l-43 0 l-43 83 l-50 0 l0 -83 l-38 0 ZM186 577 l31 0 q25 0 39.5 9 q14.5 9 14.5 31 q0 18 -11 29.5 q-11 11.5 -40 11.5 l-34 0 l0 -81 Z" /><glyph glyph-name="macron" unicode="¯" d="M159 670 l0 45 l277 0 l0 -45 l-277 0 Z" /><glyph glyph-name="degree" unicode="°" d="M175 491 q-33 0 -62.5 16 q-29.5 16 -48 46 q-18.5 30 -18.5 71 q0 42 18.5 72 q18.5 30 48 46 q29.5 16 62.5 16 q34 0 63 -16 q29 -16 47.5 -46 q18.5 -30 18.5 -72 q0 -41 -18.5 -71 q-18.5 -30 -47.5 -46 q-29 -16 -63 -16 ZM175 529 q38 0 62.5 27.5 q24.5 27.5 24.5 67.5 q0 41 -24.5 68.5 q-24.5 27.5 -62.5 27.5 q-39 0 -63.5 -27.5 q-24.5 -27.5 -24.5 -68.5 q0 -40 24.5 -67.5 q24.5 -27.5 63.5 -27.5 Z" /><glyph glyph-name="plusminus" unicode="±" d="M525 463 l0 -288 l-50 0 l0 288 l-343 0 l0 49 l343 0 l0 288 l50 0 l0 -288 l343 0 l0 -49 l-343 0 ZM870 23 l-738 0 l0 50 l738 0 l0 -50 Z" /><glyph glyph-name="twosuperior" unicode="²" d="M62 447 l0 30 q73 67 119.5 114.5 q46.5 47.5 69 85 q22.5 37.5 22.5 72.5 q0 47 -25 74 q-25 27 -68 27 q-29 0 -54.5 -20 q-25.5 -20 -44.5 -48 l-31 28 q22 35 58 58.5 q36 23.5 78 23.5 q61 0 98.5 -34.5 q37.5 -34.5 37.5 -102.5 q0 -44 -23 -84.5 q-23 -40.5 -64 -84 q-41 -43.5 -94 -96.5 l206 0 l0 -43 l-285 0 Z" /><glyph glyph-name="threesuperior" unicode="³" d="M197 434 q-51 0 -91 24 q-40 24 -63 58 l36 27 q20 -31 50.5 -50 q30.5 -19 67.5 -19 q40 0 68.5 23.5 q28.5 23.5 28.5 65.5 q0 42 -39.5 64 q-39.5 22 -108.5 22 l0 35 q62 0 96.5 26 q34.5 26 34.5 63 q0 35 -24 57 q-24 22 -65 22 q-25 0 -50.5 -16 q-25.5 -16 -45.5 -42 l-31 28 q24 30 57 50 q33 20 76 20 q55 0 94 -30.5 q39 -30.5 39 -83.5 q0 -40 -23.5 -67.5 q-23.5 -27.5 -58.5 -41.5 q38 -8 68 -35.5 q30 -27.5 30 -72.5 q0 -60 -42 -93.5 q-42 -33.5 -104 -33.5 Z" /><glyph glyph-name="acute" unicode="´" d="M269 635 l-32 30 l151 176 l43 -38 l-162 -168 Z" /><glyph glyph-name="mu" unicode="µ" d="M100 -199 l0 732 l58 0 l0 -334 q0 -76 26.5 -118 q26.5 -42 86.5 -42 q27 0 53.5 8 q26.5 8 54 33.5 q27.5 25.5 57.5 77.5 l0 375 l58 0 q-1 -115 -2.5 -230 q-1.5 -115 -1.5 -225 q0 -21 10 -31 q10 -10 25 -10 q12 0 32 7 l9 -46 q-10 -4 -22 -7.5 q-12 -3.5 -29 -3.5 q-40 0 -57 26 q-17 26 -19 84 l-2 0 q-33 -56 -75 -82.5 q-42 -26.5 -89 -26.5 q-39 0 -69 12 q-30 12 -52 51 q1 -58 1 -97.5 q0 -39.5 1.5 -74 q1.5 -34.5 4.5 -78.5 l-59 0 Z" /><glyph glyph-name="paragraph" unicode="¶" d="M487 291 q-40 0 -82.5 13.5 q-42.5 13.5 -79 40.5 q-36.5 27 -58.5 68.5 q-22 41.5 -22 97.5 q0 43 13.5 87 q13.5 44 48 80.5 q34.5 36.5 95.5 58.5 q61 22 154 22 q50 0 78 -2 q28 -2 44 -6 l0 -809 l-47 0 l0 771 l-87 0 l0 -771 l-47 0 l0 349 l-10 0 Z" /><glyph glyph-name="cedilla" unicode="¸" d="M218 -245 l-7 37 q71 5 97.5 18.5 q26.5 13.5 26.5 38.5 q0 23 -20 36 q-20 13 -67 20 l46 97 l44 0 l-33 -74 q36 -9 57.5 -26 q21.5 -17 21.5 -50 q0 -45 -43 -68.5 q-43 -23.5 -123 -28.5 Z" /><glyph glyph-name="onesuperior" unicode="¹" d="M194 447 l0 355 l-92 0 l0 33 q33 7 56 17.5 q23 10.5 43 26.5 l42 0 l0 -432 l-49 0 Z" /><glyph glyph-name="ordmasculine" unicode="º" d="M199 438 q-45 0 -82 22 q-37 22 -59.5 63.5 q-22.5 41.5 -22.5 99.5 q0 59 22.5 100.5 q22.5 41.5 59.5 63 q37 21.5 82 21.5 q45 0 82 -21.5 q37 -21.5 59 -63 q22 -41.5 22 -100.5 q0 -58 -22 -99.5 q-22 -41.5 -59 -63.5 q-37 -22 -82 -22 ZM199 479 q52 0 83 40.5 q31 40.5 31 103.5 q0 65 -31 105 q-31 40 -83 40 q-52 0 -83 -40 q-31 -40 -31 -105 q0 -63 31 -103.5 q31 -40.5 83 -40.5 Z" /><glyph glyph-name="guillemotright" unicode="»" d="M89 78 l-30 24 l135 177 l-135 175 l30 26 l152 -177 l0 -47 l-152 -178 ZM250 78 l-30 24 l134 177 l-134 175 l30 26 l152 -177 l0 -47 l-152 -178 Z" /><glyph glyph-name="onequarter" unicode="¼" d="M170 297 l0 355 l-92 0 l0 34 q32 7 55.5 17 q23.5 10 43.5 26 l42 0 l0 -432 l-49 0 ZM197 -13 l406 755 l47 0 l-406 -755 l-47 0 ZM556 162 l138 0 l0 93 l5 116 l-5 0 l-60 -91 l-78 -118 ZM694 0 l0 124 l-195 0 l0 25 l193 283 l48 0 l0 -270 l64 0 l0 -38 l-64 0 l0 -124 l-46 0 Z" /><glyph glyph-name="onehalf" unicode="½" d="M170 297 l0 355 l-92 0 l0 34 q32 7 55.5 17 q23.5 10 43.5 26 l42 0 l0 -432 l-49 0 ZM172 -13 l406 755 l47 0 l-406 -755 l-47 0 ZM536 0 l0 30 q72 67 119 114.5 q47 47.5 69.5 85 q22.5 37.5 22.5 72.5 q0 47 -25 74 q-25 27 -68 27 q-29 0 -54.5 -19.5 q-25.5 -19.5 -43.5 -47.5 l-32 28 q22 34 58.5 57.5 q36.5 23.5 77.5 23.5 q61 0 98.5 -34.5 q37.5 -34.5 37.5 -102.5 q0 -44 -23 -84.5 q-23 -40.5 -64 -84 q-41 -43.5 -94 -96.5 l206 0 l0 -43 l-285 0 Z" /><glyph glyph-name="threequarters" unicode="¾" d="M197 284 q-52 0 -92 24.5 q-40 24.5 -63 58.5 l36 27 q20 -31 50.5 -50.5 q30.5 -19.5 67.5 -19.5 q40 0 68.5 23.5 q28.5 23.5 28.5 65.5 q0 42 -39.5 64.5 q-39.5 22.5 -108.5 22.5 l0 34 q63 0 97.5 26.5 q34.5 26.5 34.5 62.5 q0 35 -24.5 57 q-24.5 22 -65.5 22 q-25 0 -50 -16 q-25 -16 -45 -41 l-32 28 q24 30 57.5 49.5 q33.5 19.5 75.5 19.5 q55 0 94 -30.5 q39 -30.5 39 -83.5 q0 -40 -23.5 -67 q-23.5 -27 -58.5 -41 q38 -8 68.5 -35.5 q30.5 -27.5 30.5 -72.5 q0 -60 -42.5 -94 q-42.5 -34 -103.5 -34 ZM247 -13 l406 755 l46 0 l-406 -755 l-46 0 ZM576 162 l138 0 l0 93 l5 116 l-5 0 l-60 -91 l-78 -118 ZM714 0 l0 124 l-195 0 l0 25 l192 283 l48 0 l0 -270 l65 0 l0 -38 l-65 0 l0 -124 l-45 0 Z" /><glyph glyph-name="questiondown" unicode="¿" d="M230 -222 q-81 0 -128 48.5 q-47 48.5 -47 122.5 q0 45 18.5 81.5 q18.5 36.5 45 69.5 q26.5 33 51.5 67.5 q25 34.5 40 74 q15 39.5 9 88.5 l53 0 q7 -54 -6.5 -96 q-13.5 -42 -38.5 -77 q-25 -35 -51 -66.5 q-26 -31.5 -44 -64.5 q-18 -33 -18 -73 q0 -50 29.5 -87.5 q29.5 -37.5 91.5 -37.5 q40 0 76 18.5 q36 18.5 64 50.5 l35 -32 q-33 -37 -77 -62 q-44 -25 -103 -25 ZM242 437 q-20 0 -35.5 15.5 q-15.5 15.5 -15.5 40.5 q0 25 15.5 39.5 q15.5 14.5 35.5 14.5 q20 0 35.5 -14.5 q15.5 -14.5 15.5 -39.5 q0 -25 -15.5 -40.5 q-15.5 -15.5 -35.5 -15.5 Z" /><glyph glyph-name="Agrave" unicode="À" d="M212 425 l-45 -132 l252 0 l-44 132 q-22 64 -41 124 q-19 60 -39 126 l-4 0 q-19 -66 -38 -126 q-19 -60 -41 -124 ZM8 0 l255 729 l62 0 l255 -729 l-64 0 l-81 245 l-284 0 l-83 -245 l-60 0 ZM315 780 l-151 125 l36 43 l142 -138 l-27 -30 Z" /><glyph glyph-name="Aacute" unicode="Á" d="M212 425 l-45 -132 l252 0 l-44 132 q-22 64 -41 124 q-19 60 -39 126 l-4 0 q-19 -66 -38 -126 q-19 -60 -41 -124 ZM8 0 l255 729 l62 0 l255 -729 l-64 0 l-81 245 l-284 0 l-83 -245 l-60 0 ZM271 780 l-26 30 l142 138 l36 -43 l-152 -125 Z" /><glyph glyph-name="Acircumflex" unicode="Â" d="M212 425 l-45 -132 l252 0 l-44 132 q-22 64 -41 124 q-19 60 -39 126 l-4 0 q-19 -66 -38 -126 q-19 -60 -41 -124 ZM8 0 l255 729 l62 0 l255 -729 l-64 0 l-81 245 l-284 0 l-83 -245 l-60 0 ZM167 781 l-26 23 l123 125 l59 0 l123 -125 l-26 -23 l-125 107 l-4 0 l-124 -107 Z" /><glyph glyph-name="Atilde" unicode="Ã" d="M212 425 l-45 -132 l252 0 l-44 132 q-22 64 -41 124 q-19 60 -39 126 l-4 0 q-19 -66 -38 -126 q-19 -60 -41 -124 ZM8 0 l255 729 l62 0 l255 -729 l-64 0 l-81 245 l-284 0 l-83 -245 l-60 0 ZM378 793 q-32 0 -54.5 13 q-22.5 13 -40 30 q-17.5 17 -35 30 q-17.5 13 -39.5 13 q-23 0 -39.5 -22 q-16.5 -22 -20.5 -60 l-41 4 q2 53 28 89 q26 36 72 36 q32 0 54.5 -13 q22.5 -13 40 -30 q17.5 -17 35 -30 q17.5 -13 39.5 -13 q24 0 40 22 q16 22 20 60 l42 -3 q-2 -55 -28 -90.5 q-26 -35.5 -73 -35.5 Z" /><glyph glyph-name="Adieresis" unicode="Ä" d="M212 425 l-45 -132 l252 0 l-44 132 q-22 64 -41 124 q-19 60 -39 126 l-4 0 q-19 -66 -38 -126 q-19 -60 -41 -124 ZM8 0 l255 729 l62 0 l255 -729 l-64 0 l-81 245 l-284 0 l-83 -245 l-60 0 ZM183 801 q-18 0 -30.5 12 q-12.5 12 -12.5 31 q0 20 12.5 31.5 q12.5 11.5 30.5 11.5 q19 0 32 -11.5 q13 -11.5 13 -31.5 q0 -19 -13 -31 q-13 -12 -32 -12 ZM403 801 q-19 0 -31.5 12 q-12.5 12 -12.5 31 q0 20 12.5 31.5 q12.5 11.5 31.5 11.5 q18 0 30.5 -11.5 q12.5 -11.5 12.5 -31.5 q0 -19 -12.5 -31 q-12.5 -12 -30.5 -12 Z" /><glyph glyph-name="Aring" unicode="Å" d="M212 425 l-45 -132 l252 0 l-44 132 q-22 64 -41 124 q-19 60 -39 126 l-4 0 q-19 -66 -38 -126 q-19 -60 -41 -124 ZM8 0 l255 729 l62 0 l255 -729 l-64 0 l-81 245 l-284 0 l-83 -245 l-60 0 ZM293 806 q25 0 43 16.5 q18 16.5 18 48.5 q0 30 -18 47.5 q-18 17.5 -43 17.5 q-25 0 -43.5 -17.5 q-18.5 -17.5 -18.5 -47.5 q0 -32 18.5 -48.5 q18.5 -16.5 43.5 -16.5 ZM293 775 q-42 0 -70.5 26.5 q-28.5 26.5 -28.5 69.5 q0 44 28.5 70 q28.5 26 70.5 26 q41 0 70 -26 q29 -26 29 -70 q0 -43 -29 -69.5 q-29 -26.5 -70 -26.5 Z" /><glyph glyph-name="AE" unicode="Æ" d="M315 426 l-78 -143 l215 0 l0 396 l-4 0 q-32 -61 -65.5 -124.5 q-33.5 -63.5 -67.5 -128.5 ZM21 0 l398 729 l417 0 l0 -51 l-323 0 l0 -266 l268 0 l0 -51 l-268 0 l0 -309 l334 0 l0 -52 l-395 0 l0 234 l-241 0 l-127 -234 l-63 0 Z" /><glyph glyph-name="Ccedilla" unicode="Ç" d="M289 -245 l-8 37 q72 5 98 18.5 q26 13.5 26 38.5 q0 23 -20 36 q-20 13 -66 20 l39 82 q-87 3 -154.5 49.5 q-67.5 46.5 -105.5 130.5 q-38 84 -38 198 q0 117 40 201.5 q40 84.5 111 130 q71 45.5 163 45.5 q65 0 114 -26.5 q49 -26.5 78 -61.5 l-34 -39 q-29 33 -68.5 53 q-39.5 20 -89.5 20 q-77 0 -133.5 -39 q-56.5 -39 -87 -111 q-30.5 -72 -30.5 -171 q0 -99 30 -172.5 q30 -73.5 86 -113.5 q56 -40 132 -40 q56 0 99 22.5 q43 22.5 82 65.5 l34 -38 q-37 -43 -81.5 -69.5 q-44.5 -26.5 -102.5 -32.5 l-27 -61 q36 -9 57.5 -26 q21.5 -17 21.5 -50 q0 -45 -42.5 -68.5 q-42.5 -23.5 -122.5 -28.5 Z" /><glyph glyph-name="Egrave" unicode="È" d="M106 0 l0 729 l403 0 l0 -51 l-343 0 l0 -266 l289 0 l0 -51 l-289 0 l0 -309 l354 0 l0 -52 l-414 0 ZM343 780 l-151 125 l36 43 l142 -138 l-27 -30 Z" /><glyph glyph-name="Eacute" unicode="É" d="M106 0 l0 729 l403 0 l0 -51 l-343 0 l0 -266 l289 0 l0 -51 l-289 0 l0 -309 l354 0 l0 -52 l-414 0 ZM299 780 l-26 30 l142 138 l36 -43 l-152 -125 Z" /><glyph glyph-name="Ecircumflex" unicode="Ê" d="M106 0 l0 729 l403 0 l0 -51 l-343 0 l0 -266 l289 0 l0 -51 l-289 0 l0 -309 l354 0 l0 -52 l-414 0 ZM195 781 l-26 23 l123 125 l59 0 l123 -125 l-26 -23 l-125 107 l-4 0 l-124 -107 Z" /><glyph glyph-name="Edieresis" unicode="Ë" d="M106 0 l0 729 l403 0 l0 -51 l-343 0 l0 -266 l289 0 l0 -51 l-289 0 l0 -309 l354 0 l0 -52 l-414 0 ZM211 801 q-18 0 -30.5 12 q-12.5 12 -12.5 31 q0 20 12.5 31.5 q12.5 11.5 30.5 11.5 q19 0 32 -11.5 q13 -11.5 13 -31.5 q0 -19 -13 -31 q-13 -12 -32 -12 ZM431 801 q-19 0 -31.5 12 q-12.5 12 -12.5 31 q0 20 12.5 31.5 q12.5 11.5 31.5 11.5 q18 0 30.5 -11.5 q12.5 -11.5 12.5 -31.5 q0 -19 -12.5 -31 q-12.5 -12 -30.5 -12 Z" /><glyph glyph-name="Igrave" unicode="Ì" d="M106 0 l0 729 l60 0 l0 -729 l-60 0 ZM158 780 l-152 125 l36 43 l142 -138 l-26 -30 Z" /><glyph glyph-name="Iacute" unicode="Í" d="M106 0 l0 729 l60 0 l0 -729 l-60 0 ZM114 780 l-26 30 l142 138 l36 -43 l-152 -125 Z" /><glyph glyph-name="Icircumflex" unicode="Î" d="M106 0 l0 729 l60 0 l0 -729 l-60 0 ZM10 781 l-26 23 l122 125 l60 0 l123 -125 l-27 -23 l-123 107 l-5 0 l-124 -107 Z" /><glyph glyph-name="Idieresis" unicode="Ï" d="M106 0 l0 729 l60 0 l0 -729 l-60 0 ZM27 801 q-19 0 -31.5 12 q-12.5 12 -12.5 31 q0 20 12.5 31.5 q12.5 11.5 31.5 11.5 q19 0 31 -11.5 q12 -11.5 12 -31.5 q0 -19 -12 -31 q-12 -12 -31 -12 ZM246 801 q-19 0 -31.5 12 q-12.5 12 -12.5 31 q0 20 12.5 31.5 q12.5 11.5 31.5 11.5 q19 0 31 -11.5 q12 -11.5 12 -31.5 q0 -19 -12 -31 q-12 -12 -31 -12 Z" /><glyph glyph-name="Eth" unicode="Ð" d="M129 0 l0 365 l-89 0 l0 37 l89 3 l0 324 l172 0 q112 0 186 -44 q74 -44 111 -125 q37 -81 37 -193 q0 -111 -36.5 -193.5 q-36.5 -82.5 -110.5 -128 q-74 -45.5 -185 -45.5 l-174 0 ZM189 51 l106 0 q96 0 157.5 39.5 q61.5 39.5 91 111 q29.5 71.5 29.5 165.5 q0 95 -29.5 165 q-29.5 70 -91 108.5 q-61.5 38.5 -157.5 38.5 l-106 0 l0 -274 l177 0 l0 -40 l-177 0 l0 -314 Z" /><glyph glyph-name="Ntilde" unicode="Ñ" d="M106 0 l0 729 l62 0 l298 -501 l81 -147 l5 0 q-3 54 -5.5 108.5 q-2.5 54.5 -2.5 107.5 l0 432 l57 0 l0 -729 l-62 0 l-297 502 l-82 146 l-5 0 q2 -52 5 -104 q3 -52 3 -107 l0 -437 l-57 0 ZM453 793 q-32 0 -54.5 13 q-22.5 13 -40.5 30 q-18 17 -35.5 30 q-17.5 13 -39.5 13 q-23 0 -39.5 -22 q-16.5 -22 -20.5 -60 l-41 4 q2 53 28 89 q26 36 72 36 q32 0 54.5 -13 q22.5 -13 40 -30 q17.5 -17 35 -30 q17.5 -13 39.5 -13 q24 0 40 22 q16 22 20 60 l42 -3 q-2 -55 -28.5 -90.5 q-26.5 -35.5 -71.5 -35.5 Z" /><glyph glyph-name="Ograve" unicode="Ò" d="M362 -13 q-88 0 -156 46.5 q-68 46.5 -107 132 q-39 85.5 -39 201.5 q0 116 39 200 q39 84 107 129.5 q68 45.5 156 45.5 q89 0 157.5 -45.5 q68.5 -45.5 107 -129.5 q38.5 -84 38.5 -200 q0 -116 -38.5 -201.5 q-38.5 -85.5 -107 -132 q-68.5 -46.5 -157.5 -46.5 ZM362 41 q73 0 127 40 q54 40 84 113.5 q30 73.5 30 172.5 q0 99 -30 171 q-30 72 -84 111 q-54 39 -127 39 q-72 0 -125.5 -39 q-53.5 -39 -83.5 -111 q-30 -72 -30 -171 q0 -99 30 -172.5 q30 -73.5 83.5 -113.5 q53.5 -40 125.5 -40 ZM385 780 l-152 125 l36 43 l142 -138 l-26 -30 Z" /><glyph glyph-name="Oacute" unicode="Ó" d="M362 -13 q-88 0 -156 46.5 q-68 46.5 -107 132 q-39 85.5 -39 201.5 q0 116 39 200 q39 84 107 129.5 q68 45.5 156 45.5 q89 0 157.5 -45.5 q68.5 -45.5 107 -129.5 q38.5 -84 38.5 -200 q0 -116 -38.5 -201.5 q-38.5 -85.5 -107 -132 q-68.5 -46.5 -157.5 -46.5 ZM362 41 q73 0 127 40 q54 40 84 113.5 q30 73.5 30 172.5 q0 99 -30 171 q-30 72 -84 111 q-54 39 -127 39 q-72 0 -125.5 -39 q-53.5 -39 -83.5 -111 q-30 -72 -30 -171 q0 -99 30 -172.5 q30 -73.5 83.5 -113.5 q53.5 -40 125.5 -40 ZM341 780 l-26 30 l142 138 l36 -43 l-152 -125 Z" /><glyph glyph-name="Ocircumflex" unicode="Ô" d="M362 -13 q-88 0 -156 46.5 q-68 46.5 -107 132 q-39 85.5 -39 201.5 q0 116 39 200 q39 84 107 129.5 q68 45.5 156 45.5 q89 0 157.5 -45.5 q68.5 -45.5 107 -129.5 q38.5 -84 38.5 -200 q0 -116 -38.5 -201.5 q-38.5 -85.5 -107 -132 q-68.5 -46.5 -157.5 -46.5 ZM362 41 q73 0 127 40 q54 40 84 113.5 q30 73.5 30 172.5 q0 99 -30 171 q-30 72 -84 111 q-54 39 -127 39 q-72 0 -125.5 -39 q-53.5 -39 -83.5 -111 q-30 -72 -30 -171 q0 -99 30 -172.5 q30 -73.5 83.5 -113.5 q53.5 -40 125.5 -40 ZM236 781 l-26 23 l123 125 l60 0 l122 -125 l-26 -23 l-124 107 l-5 0 l-124 -107 Z" /><glyph glyph-name="Otilde" unicode="Õ" d="M362 -13 q-88 0 -156 46.5 q-68 46.5 -107 132 q-39 85.5 -39 201.5 q0 116 39 200 q39 84 107 129.5 q68 45.5 156 45.5 q89 0 157.5 -45.5 q68.5 -45.5 107 -129.5 q38.5 -84 38.5 -200 q0 -116 -38.5 -201.5 q-38.5 -85.5 -107 -132 q-68.5 -46.5 -157.5 -46.5 ZM362 41 q73 0 127 40 q54 40 84 113.5 q30 73.5 30 172.5 q0 99 -30 171 q-30 72 -84 111 q-54 39 -127 39 q-72 0 -125.5 -39 q-53.5 -39 -83.5 -111 q-30 -72 -30 -171 q0 -99 30 -172.5 q30 -73.5 83.5 -113.5 q53.5 -40 125.5 -40 ZM448 793 q-32 0 -54.5 13 q-22.5 13 -40 30 q-17.5 17 -35 30 q-17.5 13 -39.5 13 q-23 0 -40 -22 q-17 -22 -20 -60 l-42 4 q3 53 29 89 q26 36 72 36 q32 0 54 -13 q22 -13 39.5 -30 q17.5 -17 35.5 -30 q18 -13 40 -13 q23 0 39 22 q16 22 20 60 l42 -3 q-2 -55 -28 -90.5 q-26 -35.5 -72 -35.5 Z" /><glyph glyph-name="Odieresis" unicode="Ö" d="M362 -13 q-88 0 -156 46.5 q-68 46.5 -107 132 q-39 85.5 -39 201.5 q0 116 39 200 q39 84 107 129.5 q68 45.5 156 45.5 q89 0 157.5 -45.5 q68.5 -45.5 107 -129.5 q38.5 -84 38.5 -200 q0 -116 -38.5 -201.5 q-38.5 -85.5 -107 -132 q-68.5 -46.5 -157.5 -46.5 ZM362 41 q73 0 127 40 q54 40 84 113.5 q30 73.5 30 172.5 q0 99 -30 171 q-30 72 -84 111 q-54 39 -127 39 q-72 0 -125.5 -39 q-53.5 -39 -83.5 -111 q-30 -72 -30 -171 q0 -99 30 -172.5 q30 -73.5 83.5 -113.5 q53.5 -40 125.5 -40 ZM253 801 q-19 0 -31 12 q-12 12 -12 31 q0 20 12 31.5 q12 11.5 31 11.5 q19 0 31.5 -11.5 q12.5 -11.5 12.5 -31.5 q0 -19 -12.5 -31 q-12.5 -12 -31.5 -12 ZM472 801 q-19 0 -31 12 q-12 12 -12 31 q0 20 12 31.5 q12 11.5 31 11.5 q19 0 31.5 -11.5 q12.5 -11.5 12.5 -31.5 q0 -19 -12.5 -31 q-12.5 -12 -31.5 -12 Z" /><glyph glyph-name="multiply" unicode="×" d="M500 339 l-283 -283 l-35 34 l284 284 l-284 282 l36 35 l282 -283 l283 283 l35 -34 l-283 -283 l283 -284 l-35 -34 l-283 283 Z" /><glyph glyph-name="Oslash" unicode="Ø" d="M96 -27 l-36 27 l78 104 q-35 49 -54.5 115.5 q-19.5 66.5 -19.5 147.5 q0 116 38.5 200 q38.5 84 107 129.5 q68.5 45.5 157.5 45.5 q115 0 194 -76 l68 90 l36 -27 l-73 -97 q37 -49 57.5 -115.5 q20.5 -66.5 20.5 -149.5 q0 -116 -39 -201.5 q-39 -85.5 -107.5 -132 q-68.5 -46.5 -156.5 -46.5 q-59 0 -109.5 21 q-50.5 21 -89.5 61 l-72 -96 ZM126 367 q0 -64 13 -118 q13 -54 37 -95 l350 465 q-63 69 -159 69 q-72 0 -126.5 -39 q-54.5 -39 -84.5 -111 q-30 -72 -30 -171 ZM367 41 q72 0 126 40 q54 40 84 113.5 q30 73.5 30 172.5 q0 66 -13.5 120.5 q-13.5 54.5 -39.5 94.5 l-351 -466 q32 -36 73.5 -55.5 q41.5 -19.5 90.5 -19.5 Z" /><glyph glyph-name="Ugrave" unicode="Ù" d="M352 -13 q-49 0 -94 14.5 q-45 14.5 -80 48.5 q-35 34 -55 91.5 q-20 57.5 -20 143.5 l0 444 l60 0 l0 -441 q0 -95 26 -149 q26 -54 69.5 -76 q43.5 -22 93.5 -22 q52 0 95.5 22 q43.5 22 70.5 76 q27 54 27 149 l0 441 l57 0 l0 -444 q0 -86 -20.5 -143.5 q-20.5 -57.5 -55.5 -91.5 q-35 -34 -80 -48.5 q-45 -14.5 -94 -14.5 ZM374 780 l-152 125 l36 43 l142 -138 l-26 -30 Z" /><glyph glyph-name="Uacute" unicode="Ú" d="M352 -13 q-49 0 -94 14.5 q-45 14.5 -80 48.5 q-35 34 -55 91.5 q-20 57.5 -20 143.5 l0 444 l60 0 l0 -441 q0 -95 26 -149 q26 -54 69.5 -76 q43.5 -22 93.5 -22 q52 0 95.5 22 q43.5 22 70.5 76 q27 54 27 149 l0 441 l57 0 l0 -444 q0 -86 -20.5 -143.5 q-20.5 -57.5 -55.5 -91.5 q-35 -34 -80 -48.5 q-45 -14.5 -94 -14.5 ZM330 780 l-26 30 l142 138 l36 -43 l-152 -125 Z" /><glyph glyph-name="Ucircumflex" unicode="Û" d="M352 -13 q-49 0 -94 14.5 q-45 14.5 -80 48.5 q-35 34 -55 91.5 q-20 57.5 -20 143.5 l0 444 l60 0 l0 -441 q0 -95 26 -149 q26 -54 69.5 -76 q43.5 -22 93.5 -22 q52 0 95.5 22 q43.5 22 70.5 76 q27 54 27 149 l0 441 l57 0 l0 -444 q0 -86 -20.5 -143.5 q-20.5 -57.5 -55.5 -91.5 q-35 -34 -80 -48.5 q-45 -14.5 -94 -14.5 ZM225 781 l-26 23 l123 125 l60 0 l122 -125 l-26 -23 l-124 107 l-5 0 l-124 -107 Z" /><glyph glyph-name="Udieresis" unicode="Ü" d="M352 -13 q-49 0 -94 14.5 q-45 14.5 -80 48.5 q-35 34 -55 91.5 q-20 57.5 -20 143.5 l0 444 l60 0 l0 -441 q0 -95 26 -149 q26 -54 69.5 -76 q43.5 -22 93.5 -22 q52 0 95.5 22 q43.5 22 70.5 76 q27 54 27 149 l0 441 l57 0 l0 -444 q0 -86 -20.5 -143.5 q-20.5 -57.5 -55.5 -91.5 q-35 -34 -80 -48.5 q-45 -14.5 -94 -14.5 ZM242 801 q-19 0 -31 12 q-12 12 -12 31 q0 20 12 31.5 q12 11.5 31 11.5 q19 0 31.5 -11.5 q12.5 -11.5 12.5 -31.5 q0 -19 -12.5 -31 q-12.5 -12 -31.5 -12 ZM461 801 q-19 0 -31 12 q-12 12 -12 31 q0 20 12 31.5 q12 11.5 31 11.5 q19 0 31.5 -11.5 q12.5 -11.5 12.5 -31.5 q0 -19 -12.5 -31 q-12.5 -12 -31.5 -12 Z" /><glyph glyph-name="Yacute" unicode="Ý" d="M221 0 l0 293 l-219 436 l64 0 l107 -223 q20 -40 38 -78.5 q18 -38.5 38 -79.5 l4 0 q21 41 41 79.5 q20 38.5 37 78.5 l107 223 l62 0 l-219 -436 l0 -293 l-60 0 ZM229 780 l-27 30 l143 138 l36 -43 l-152 -125 Z" /><glyph glyph-name="Thorn" unicode="Þ" d="M106 0 l0 729 l60 0 l0 -128 l144 0 q82 0 140.5 -20 q58.5 -20 90 -65 q31.5 -45 31.5 -121 q0 -109 -70 -162 q-70 -53 -192 -53 l-144 0 l0 -180 l-60 0 ZM166 230 l132 0 q108 0 160.5 39 q52.5 39 52.5 126 q0 89 -53 122.5 q-53 33.5 -160 33.5 l-132 0 l0 -321 Z" /><glyph glyph-name="germandbls" unicode="ß" d="M412 -13 q-44 0 -82 15 q-38 15 -70 41 l27 42 q31 -25 60.5 -37.5 q29.5 -12.5 63.5 -12.5 q53 0 80.5 32.5 q27.5 32.5 27.5 72.5 q0 37 -16.5 61 q-16.5 24 -42.5 40.5 q-26 16.5 -55.5 30.5 q-29.5 14 -55.5 31 q-26 17 -42.5 42.5 q-16.5 25.5 -16.5 65.5 q0 40 16 68.5 q16 28.5 37.5 53.5 q21.5 25 37.5 52 q16 27 16 64 q0 47 -26.5 77 q-26.5 30 -76.5 30 q-62 0 -99 -46 q-37 -46 -37 -141 l0 -569 l-58 0 l0 585 q0 103 52.5 162 q52.5 59 142.5 59 q76 0 118 -44 q42 -44 42 -108 q0 -42 -16 -73 q-16 -31 -37.5 -56 q-21.5 -25 -37.5 -50.5 q-16 -25.5 -16 -57.5 q0 -31 16.5 -50.5 q16.5 -19.5 42.5 -34 q26 -14.5 55 -29 q29 -14.5 55 -34.5 q26 -20 42.5 -50 q16.5 -30 16.5 -76 q0 -44 -21 -79.5 q-21 -35.5 -57.5 -56 q-36.5 -20.5 -85.5 -20.5 Z" /><glyph glyph-name="agrave" unicode="à" d="M218 -13 q-64 0 -109.5 36.5 q-45.5 36.5 -45.5 110.5 q0 89 82 135 q82 46 258 66 q1 40 -8.5 76.5 q-9.5 36.5 -36 60.5 q-26.5 24 -77.5 24 q-52 0 -96 -20 q-44 -20 -72 -41 l-26 42 q21 14 51.5 30.5 q30.5 16.5 69 28 q38.5 11.5 81.5 11.5 q64 0 101.5 -27.5 q37.5 -27.5 54 -75 q16.5 -47.5 16.5 -106.5 l0 -338 l-49 0 l-6 68 l-2 0 q-40 -33 -87.5 -57 q-47.5 -24 -98.5 -24 ZM230 36 q44 0 85 21 q41 21 88 62 l0 173 q-105 -12 -166.5 -32.5 q-61.5 -20.5 -88.5 -51 q-27 -30.5 -27 -71.5 q0 -55 32.5 -78 q32.5 -23 76.5 -23 ZM319 635 l-161 168 l42 38 l151 -176 l-32 -30 Z" /><glyph glyph-name="aacute" unicode="á" d="M218 -13 q-64 0 -109.5 36.5 q-45.5 36.5 -45.5 110.5 q0 89 82 135 q82 46 258 66 q1 40 -8.5 76.5 q-9.5 36.5 -36 60.5 q-26.5 24 -77.5 24 q-52 0 -96 -20 q-44 -20 -72 -41 l-26 42 q21 14 51.5 30.5 q30.5 16.5 69 28 q38.5 11.5 81.5 11.5 q64 0 101.5 -27.5 q37.5 -27.5 54 -75 q16.5 -47.5 16.5 -106.5 l0 -338 l-49 0 l-6 68 l-2 0 q-40 -33 -87.5 -57 q-47.5 -24 -98.5 -24 ZM230 36 q44 0 85 21 q41 21 88 62 l0 173 q-105 -12 -166.5 -32.5 q-61.5 -20.5 -88.5 -51 q-27 -30.5 -27 -71.5 q0 -55 32.5 -78 q32.5 -23 76.5 -23 ZM264 635 l-32 30 l151 176 l42 -38 l-161 -168 Z" /><glyph glyph-name="acircumflex" unicode="â" d="M218 -13 q-64 0 -109.5 36.5 q-45.5 36.5 -45.5 110.5 q0 89 82 135 q82 46 258 66 q1 40 -8.5 76.5 q-9.5 36.5 -36 60.5 q-26.5 24 -77.5 24 q-52 0 -96 -20 q-44 -20 -72 -41 l-26 42 q21 14 51.5 30.5 q30.5 16.5 69 28 q38.5 11.5 81.5 11.5 q64 0 101.5 -27.5 q37.5 -27.5 54 -75 q16.5 -47.5 16.5 -106.5 l0 -338 l-49 0 l-6 68 l-2 0 q-40 -33 -87.5 -57 q-47.5 -24 -98.5 -24 ZM230 36 q44 0 85 21 q41 21 88 62 l0 173 q-105 -12 -166.5 -32.5 q-61.5 -20.5 -88.5 -51 q-27 -30.5 -27 -71.5 q0 -55 32.5 -78 q32.5 -23 76.5 -23 ZM135 658 l128 159 l57 0 l128 -159 l-28 -25 l-126 135 l-4 0 l-127 -135 l-28 25 Z" /><glyph glyph-name="atilde" unicode="ã" d="M218 -13 q-64 0 -109.5 36.5 q-45.5 36.5 -45.5 110.5 q0 89 82 135 q82 46 258 66 q1 40 -8.5 76.5 q-9.5 36.5 -36 60.5 q-26.5 24 -77.5 24 q-52 0 -96 -20 q-44 -20 -72 -41 l-26 42 q21 14 51.5 30.5 q30.5 16.5 69 28 q38.5 11.5 81.5 11.5 q64 0 101.5 -27.5 q37.5 -27.5 54 -75 q16.5 -47.5 16.5 -106.5 l0 -338 l-49 0 l-6 68 l-2 0 q-40 -33 -87.5 -57 q-47.5 -24 -98.5 -24 ZM230 36 q44 0 85 21 q41 21 88 62 l0 173 q-105 -12 -166.5 -32.5 q-61.5 -20.5 -88.5 -51 q-27 -30.5 -27 -71.5 q0 -55 32.5 -78 q32.5 -23 76.5 -23 ZM375 641 q-31 0 -53 15.5 q-22 15.5 -39.5 36 q-17.5 20.5 -35 36 q-17.5 15.5 -39.5 15.5 q-28 0 -41.5 -28 q-13.5 -28 -15.5 -72 l-43 3 q2 37 12 69 q10 32 31.5 52.5 q21.5 20.5 57.5 20.5 q31 0 52.5 -15.5 q21.5 -15.5 39 -36 q17.5 -20.5 35.5 -36 q18 -15.5 40 -15.5 q28 0 41 29 q13 29 15 70 l43 -3 q-2 -35 -12 -67.5 q-10 -32.5 -31 -53 q-21 -20.5 -57 -20.5 Z" /><glyph glyph-name="adieresis" unicode="ä" d="M218 -13 q-64 0 -109.5 36.5 q-45.5 36.5 -45.5 110.5 q0 89 82 135 q82 46 258 66 q1 40 -8.5 76.5 q-9.5 36.5 -36 60.5 q-26.5 24 -77.5 24 q-52 0 -96 -20 q-44 -20 -72 -41 l-26 42 q21 14 51.5 30.5 q30.5 16.5 69 28 q38.5 11.5 81.5 11.5 q64 0 101.5 -27.5 q37.5 -27.5 54 -75 q16.5 -47.5 16.5 -106.5 l0 -338 l-49 0 l-6 68 l-2 0 q-40 -33 -87.5 -57 q-47.5 -24 -98.5 -24 ZM230 36 q44 0 85 21 q41 21 88 62 l0 173 q-105 -12 -166.5 -32.5 q-61.5 -20.5 -88.5 -51 q-27 -30.5 -27 -71.5 q0 -55 32.5 -78 q32.5 -23 76.5 -23 ZM191 660 q-18 0 -31 12.5 q-13 12.5 -13 30.5 q0 19 13 32 q13 13 31 13 q19 0 32 -13 q13 -13 13 -32 q0 -18 -13 -30.5 q-13 -12.5 -32 -12.5 ZM392 660 q-19 0 -32 12.5 q-13 12.5 -13 30.5 q0 19 13 32 q13 13 32 13 q18 0 31 -13 q13 -13 13 -32 q0 -18 -13 -30.5 q-13 -12.5 -31 -12.5 Z" /><glyph glyph-name="aring" unicode="å" d="M218 -13 q-64 0 -109.5 36.5 q-45.5 36.5 -45.5 110.5 q0 89 82 135 q82 46 258 66 q1 40 -8.5 76.5 q-9.5 36.5 -36 60.5 q-26.5 24 -77.5 24 q-52 0 -96 -20 q-44 -20 -72 -41 l-26 42 q21 14 51.5 30.5 q30.5 16.5 69 28 q38.5 11.5 81.5 11.5 q64 0 101.5 -27.5 q37.5 -27.5 54 -75 q16.5 -47.5 16.5 -106.5 l0 -338 l-49 0 l-6 68 l-2 0 q-40 -33 -87.5 -57 q-47.5 -24 -98.5 -24 ZM230 36 q44 0 85 21 q41 21 88 62 l0 173 q-105 -12 -166.5 -32.5 q-61.5 -20.5 -88.5 -51 q-27 -30.5 -27 -71.5 q0 -55 32.5 -78 q32.5 -23 76.5 -23 ZM292 609 q-49 0 -80 29.5 q-31 29.5 -31 76.5 q0 47 31 76.5 q31 29.5 80 29.5 q48 0 79 -29.5 q31 -29.5 31 -76.5 q0 -47 -31 -76.5 q-31 -29.5 -79 -29.5 ZM292 640 q29 0 49.5 20.5 q20.5 20.5 20.5 54.5 q0 34 -20.5 54.5 q-20.5 20.5 -49.5 20.5 q-30 0 -50.5 -20.5 q-20.5 -20.5 -20.5 -54.5 q0 -34 20.5 -54.5 q20.5 -20.5 50.5 -20.5 Z" /><glyph glyph-name="ae" unicode="æ" d="M226 -13 q-64 0 -109.5 36.5 q-45.5 36.5 -45.5 109.5 q0 89 82 136 q82 47 253 66 q1 40 -8.5 76.5 q-9.5 36.5 -36 60.5 q-26.5 24 -77.5 24 q-48 0 -91 -20 q-43 -20 -71 -41 l-26 42 q20 14 50 30.5 q30 16.5 67 28 q37 11.5 76 11.5 q64 0 103 -35 q39 -35 52 -94 q29 59 77.5 94 q48.5 35 105.5 35 q95 0 147.5 -66 q52.5 -66 52.5 -183 q0 -10 -0.5 -20.5 q-0.5 -10.5 -2.5 -20.5 l-363 0 q0 -65 24.5 -114.5 q24.5 -49.5 66 -77.5 q41.5 -28 93.5 -28 q43 0 75 12.5 q32 12.5 62 33.5 l24 -44 q-33 -20 -71 -36 q-38 -16 -96 -16 q-47 0 -82.5 15.5 q-35.5 15.5 -61.5 40 q-26 24.5 -46 51.5 q-52 -50 -112 -78.5 q-60 -28.5 -111 -28.5 ZM238 36 q41 0 94 26 q53 26 96 73 q-11 23 -16.5 58 q-5.5 35 -5.5 70 l-1 29 q-149 -18 -212.5 -55.5 q-63.5 -37.5 -63.5 -99.5 q0 -55 32.5 -78 q32.5 -23 76.5 -23 ZM461 299 l313 0 q0 98 -39.5 148 q-39.5 50 -108.5 50 q-42 0 -77.5 -25 q-35.5 -25 -58.5 -69.5 q-23 -44.5 -29 -103.5 Z" /><glyph glyph-name="ccedilla" unicode="ç" d="M210 -245 l-8 37 q71 5 97 18.5 q26 13.5 26 38.5 q0 23 -19.5 36 q-19.5 13 -65.5 20 l39 83 q-64 5 -114.5 39 q-50.5 34 -79.5 94.5 q-29 60.5 -29 144.5 q0 89 34.5 152 q34.5 63 90.5 96 q56 33 122 33 q53 0 90.5 -20 q37.5 -20 65.5 -45 l-33 -40 q-25 23 -54.5 38.5 q-29.5 15.5 -67.5 15.5 q-53 0 -95.5 -29 q-42.5 -29 -67 -81 q-24.5 -52 -24.5 -120 q0 -68 23 -119.5 q23 -51.5 65 -80.5 q42 -29 98 -29 q41 0 76.5 17.5 q35.5 17.5 62.5 41.5 l29 -40 q-31 -26 -68 -44.5 q-37 -18.5 -80 -23.5 l-27 -60 q36 -9 57 -26 q21 -17 21 -50 q0 -45 -42 -68.5 q-42 -23.5 -122 -28.5 Z" /><glyph glyph-name="egrave" unicode="è" d="M304 -13 q-69 0 -125 33.5 q-56 33.5 -89.5 96 q-33.5 62.5 -33.5 149.5 q0 87 33.5 150 q33.5 63 87 97 q53.5 34 113.5 34 q97 0 151.5 -65.5 q54.5 -65.5 54.5 -182.5 q0 -22 -3 -42 l-378 0 q2 -65 26.5 -115 q24.5 -50 68 -78 q43.5 -28 100.5 -28 q43 0 77.5 12.5 q34.5 12.5 64.5 33.5 l22 -43 q-32 -20 -72 -36 q-40 -16 -98 -16 ZM115 303 l328 0 q0 97 -41 145.5 q-41 48.5 -111 48.5 q-43 0 -81.5 -23 q-38.5 -23 -63.5 -66.5 q-25 -43.5 -31 -104.5 ZM318 635 l-162 168 l43 38 l150 -176 l-31 -30 Z" /><glyph glyph-name="eacute" unicode="é" d="M304 -13 q-69 0 -125 33.5 q-56 33.5 -89.5 96 q-33.5 62.5 -33.5 149.5 q0 87 33.5 150 q33.5 63 87 97 q53.5 34 113.5 34 q97 0 151.5 -65.5 q54.5 -65.5 54.5 -182.5 q0 -22 -3 -42 l-378 0 q2 -65 26.5 -115 q24.5 -50 68 -78 q43.5 -28 100.5 -28 q43 0 77.5 12.5 q34.5 12.5 64.5 33.5 l22 -43 q-32 -20 -72 -36 q-40 -16 -98 -16 ZM115 303 l328 0 q0 97 -41 145.5 q-41 48.5 -111 48.5 q-43 0 -81.5 -23 q-38.5 -23 -63.5 -66.5 q-25 -43.5 -31 -104.5 ZM262 635 l-32 30 l151 176 l42 -38 l-161 -168 Z" /><glyph glyph-name="ecircumflex" unicode="ê" d="M304 -13 q-69 0 -125 33.5 q-56 33.5 -89.5 96 q-33.5 62.5 -33.5 149.5 q0 87 33.5 150 q33.5 63 87 97 q53.5 34 113.5 34 q97 0 151.5 -65.5 q54.5 -65.5 54.5 -182.5 q0 -22 -3 -42 l-378 0 q2 -65 26.5 -115 q24.5 -50 68 -78 q43.5 -28 100.5 -28 q43 0 77.5 12.5 q34.5 12.5 64.5 33.5 l22 -43 q-32 -20 -72 -36 q-40 -16 -98 -16 ZM115 303 l328 0 q0 97 -41 145.5 q-41 48.5 -111 48.5 q-43 0 -81.5 -23 q-38.5 -23 -63.5 -66.5 q-25 -43.5 -31 -104.5 ZM133 658 l129 159 l56 0 l129 -159 l-29 -25 l-126 135 l-4 0 l-127 -135 l-28 25 Z" /><glyph glyph-name="edieresis" unicode="ë" d="M304 -13 q-69 0 -125 33.5 q-56 33.5 -89.5 96 q-33.5 62.5 -33.5 149.5 q0 87 33.5 150 q33.5 63 87 97 q53.5 34 113.5 34 q97 0 151.5 -65.5 q54.5 -65.5 54.5 -182.5 q0 -22 -3 -42 l-378 0 q2 -65 26.5 -115 q24.5 -50 68 -78 q43.5 -28 100.5 -28 q43 0 77.5 12.5 q34.5 12.5 64.5 33.5 l22 -43 q-32 -20 -72 -36 q-40 -16 -98 -16 ZM115 303 l328 0 q0 97 -41 145.5 q-41 48.5 -111 48.5 q-43 0 -81.5 -23 q-38.5 -23 -63.5 -66.5 q-25 -43.5 -31 -104.5 ZM189 660 q-18 0 -31 12.5 q-13 12.5 -13 30.5 q0 19 13 32 q13 13 31 13 q19 0 32 -13 q13 -13 13 -32 q0 -18 -13 -30.5 q-13 -12.5 -32 -12.5 ZM390 660 q-19 0 -31.5 12.5 q-12.5 12.5 -12.5 30.5 q0 19 12.5 32 q12.5 13 31.5 13 q19 0 31.5 -13 q12.5 -13 12.5 -32 q0 -18 -12.5 -30.5 q-12.5 -12.5 -31.5 -12.5 Z" /><glyph glyph-name="igrave" unicode="ì" d="M100 0 l0 533 l58 0 l0 -533 l-58 0 ZM158 635 l-162 168 l43 38 l150 -176 l-31 -30 Z" /><glyph glyph-name="iacute" unicode="í" d="M100 0 l0 533 l58 0 l0 -533 l-58 0 ZM102 635 l-32 30 l151 176 l43 -38 l-162 -168 Z" /><glyph glyph-name="icircumflex" unicode="î" d="M100 0 l0 533 l58 0 l0 -533 l-58 0 ZM-27 658 l128 159 l58 0 l128 -159 l-28 -25 l-127 135 l-5 0 l-126 -135 l-28 25 Z" /><glyph glyph-name="idieresis" unicode="ï" d="M100 0 l0 533 l58 0 l0 -533 l-58 0 ZM30 660 q-19 0 -32 12.5 q-13 12.5 -13 30.5 q0 19 13 32 q13 13 32 13 q18 0 31 -13 q13 -13 13 -32 q0 -18 -13 -30.5 q-13 -12.5 -31 -12.5 ZM230 660 q-19 0 -31.5 12.5 q-12.5 12.5 -12.5 30.5 q0 19 12.5 32 q12.5 13 31.5 13 q19 0 31.5 -13 q12.5 -13 12.5 -32 q0 -18 -12.5 -30.5 q-12.5 -12.5 -31.5 -12.5 Z" /><glyph glyph-name="eth" unicode="ð" d="M121 244 q0 -61 24 -108 q24 -47 64 -73 q40 -26 88 -26 q58 0 95.5 32 q37.5 32 55.5 87 q18 55 18 123 q0 36 -3 67 q-40 59 -82 77.5 q-42 18.5 -82 18.5 q-58 0 -97.5 -27 q-39.5 -27 -60 -72 q-20.5 -45 -20.5 -99 ZM296 -13 q-60 0 -113 30.5 q-53 30.5 -86 88.5 q-33 58 -33 138 q0 73 29 128.5 q29 55.5 81 87 q52 31.5 120 31.5 q46 0 87.5 -20.5 q41.5 -20.5 72.5 -61.5 q-15 78 -48 136 q-33 58 -78 103 l-157 -82 l-19 34 l145 75 q-30 26 -63.5 48 q-33.5 22 -69.5 42 l27 38 q41 -22 79.5 -47 q38.5 -25 73.5 -57 l158 82 l18 -33 l-146 -76 q66 -67 107.5 -162 q41.5 -95 41.5 -229 q0 -89 -28.5 -155 q-28.5 -66 -79.5 -102.5 q-51 -36.5 -119 -36.5 Z" /><glyph glyph-name="ntilde" unicode="ñ" d="M100 0 l0 533 l48 0 l7 -81 l2 0 q41 40 84 67.5 q43 27.5 98 27.5 q83 0 122.5 -51.5 q39.5 -51.5 39.5 -154.5 l0 -341 l-58 0 l0 333 q0 83 -27.5 122.5 q-27.5 39.5 -89.5 39.5 q-46 0 -83.5 -24 q-37.5 -24 -84.5 -72 l0 -399 l-58 0 ZM400 641 q-31 0 -52.5 15.5 q-21.5 15.5 -39 36 q-17.5 20.5 -35 36 q-17.5 15.5 -39.5 15.5 q-29 0 -42 -28 q-13 -28 -15 -72 l-43 3 q2 37 11.5 69 q9.5 32 31 52.5 q21.5 20.5 58.5 20.5 q30 0 52 -15.5 q22 -15.5 39.5 -36 q17.5 -20.5 35 -36 q17.5 -15.5 39.5 -15.5 q29 0 42 29 q13 29 15 70 l43 -3 q-2 -35 -12 -67.5 q-10 -32.5 -31 -53 q-21 -20.5 -58 -20.5 Z" /><glyph glyph-name="ograve" unicode="ò" d="M297 -13 q-64 0 -119 33 q-55 33 -88.5 95.5 q-33.5 62.5 -33.5 150.5 q0 89 33.5 152 q33.5 63 88.5 96 q55 33 119 33 q65 0 119.5 -33 q54.5 -33 88 -96 q33.5 -63 33.5 -152 q0 -88 -33.5 -150.5 q-33.5 -62.5 -88 -95.5 q-54.5 -33 -119.5 -33 ZM297 37 q52 0 93 29 q41 29 64.5 80.5 q23.5 51.5 23.5 119.5 q0 68 -23.5 120 q-23.5 52 -64.5 81 q-41 29 -93 29 q-52 0 -92.5 -29 q-40.5 -29 -64 -81 q-23.5 -52 -23.5 -120 q0 -68 23.5 -119.5 q23.5 -51.5 64 -80.5 q40.5 -29 92.5 -29 ZM325 635 l-162 168 l43 38 l151 -176 l-32 -30 Z" /><glyph glyph-name="oacute" unicode="ó" d="M297 -13 q-64 0 -119 33 q-55 33 -88.5 95.5 q-33.5 62.5 -33.5 150.5 q0 89 33.5 152 q33.5 63 88.5 96 q55 33 119 33 q65 0 119.5 -33 q54.5 -33 88 -96 q33.5 -63 33.5 -152 q0 -88 -33.5 -150.5 q-33.5 -62.5 -88 -95.5 q-54.5 -33 -119.5 -33 ZM297 37 q52 0 93 29 q41 29 64.5 80.5 q23.5 51.5 23.5 119.5 q0 68 -23.5 120 q-23.5 52 -64.5 81 q-41 29 -93 29 q-52 0 -92.5 -29 q-40.5 -29 -64 -81 q-23.5 -52 -23.5 -120 q0 -68 23.5 -119.5 q23.5 -51.5 64 -80.5 q40.5 -29 92.5 -29 ZM269 635 l-32 30 l151 176 l43 -38 l-162 -168 Z" /><glyph glyph-name="ocircumflex" unicode="ô" d="M297 -13 q-64 0 -119 33 q-55 33 -88.5 95.5 q-33.5 62.5 -33.5 150.5 q0 89 33.5 152 q33.5 63 88.5 96 q55 33 119 33 q65 0 119.5 -33 q54.5 -33 88 -96 q33.5 -63 33.5 -152 q0 -88 -33.5 -150.5 q-33.5 -62.5 -88 -95.5 q-54.5 -33 -119.5 -33 ZM297 37 q52 0 93 29 q41 29 64.5 80.5 q23.5 51.5 23.5 119.5 q0 68 -23.5 120 q-23.5 52 -64.5 81 q-41 29 -93 29 q-52 0 -92.5 -29 q-40.5 -29 -64 -81 q-23.5 -52 -23.5 -120 q0 -68 23.5 -119.5 q23.5 -51.5 64 -80.5 q40.5 -29 92.5 -29 ZM140 658 l128 159 l58 0 l128 -159 l-28 -25 l-127 135 l-4 0 l-127 -135 l-28 25 Z" /><glyph glyph-name="otilde" unicode="õ" d="M297 -13 q-64 0 -119 33 q-55 33 -88.5 95.5 q-33.5 62.5 -33.5 150.5 q0 89 33.5 152 q33.5 63 88.5 96 q55 33 119 33 q65 0 119.5 -33 q54.5 -33 88 -96 q33.5 -63 33.5 -152 q0 -88 -33.5 -150.5 q-33.5 -62.5 -88 -95.5 q-54.5 -33 -119.5 -33 ZM297 37 q52 0 93 29 q41 29 64.5 80.5 q23.5 51.5 23.5 119.5 q0 68 -23.5 120 q-23.5 52 -64.5 81 q-41 29 -93 29 q-52 0 -92.5 -29 q-40.5 -29 -64 -81 q-23.5 -52 -23.5 -120 q0 -68 23.5 -119.5 q23.5 -51.5 64 -80.5 q40.5 -29 92.5 -29 ZM380 641 q-31 0 -52.5 15.5 q-21.5 15.5 -39 36 q-17.5 20.5 -35 36 q-17.5 15.5 -39.5 15.5 q-28 0 -42 -28 q-14 -28 -16 -72 l-42 3 q2 37 12 69 q10 32 31.5 52.5 q21.5 20.5 57.5 20.5 q31 0 52.5 -15.5 q21.5 -15.5 39 -36 q17.5 -20.5 35.5 -36 q18 -15.5 40 -15.5 q27 0 40.5 29 q13.5 29 15.5 70 l43 -3 q-2 -35 -12 -67.5 q-10 -32.5 -31 -53 q-21 -20.5 -58 -20.5 Z" /><glyph glyph-name="odieresis" unicode="ö" d="M297 -13 q-64 0 -119 33 q-55 33 -88.5 95.5 q-33.5 62.5 -33.5 150.5 q0 89 33.5 152 q33.5 63 88.5 96 q55 33 119 33 q65 0 119.5 -33 q54.5 -33 88 -96 q33.5 -63 33.5 -152 q0 -88 -33.5 -150.5 q-33.5 -62.5 -88 -95.5 q-54.5 -33 -119.5 -33 ZM297 37 q52 0 93 29 q41 29 64.5 80.5 q23.5 51.5 23.5 119.5 q0 68 -23.5 120 q-23.5 52 -64.5 81 q-41 29 -93 29 q-52 0 -92.5 -29 q-40.5 -29 -64 -81 q-23.5 -52 -23.5 -120 q0 -68 23.5 -119.5 q23.5 -51.5 64 -80.5 q40.5 -29 92.5 -29 ZM197 660 q-19 0 -31.5 12.5 q-12.5 12.5 -12.5 30.5 q0 19 12.5 32 q12.5 13 31.5 13 q19 0 31.5 -13 q12.5 -13 12.5 -32 q0 -18 -12.5 -30.5 q-12.5 -12.5 -31.5 -12.5 ZM397 660 q-19 0 -31.5 12.5 q-12.5 12.5 -12.5 30.5 q0 19 12.5 32 q12.5 13 31.5 13 q19 0 31.5 -13 q12.5 -13 12.5 -32 q0 -18 -12.5 -30.5 q-12.5 -12.5 -31.5 -12.5 Z" /><glyph glyph-name="divide" unicode="÷" d="M500 694 q26 0 45 -19 q19 -19 19 -45 q0 -26 -19 -45 q-19 -19 -45 -19 q-26 0 -45 19 q-19 19 -19 45 q0 26 19 45 q19 19 45 19 ZM868 349 l-736 0 l0 49 l736 0 l0 -49 ZM500 181 q26 0 45 -19 q19 -19 19 -45 q0 -26 -19 -45 q-19 -19 -45 -19 q-26 0 -45 19 q-19 19 -19 45 q0 26 19 45 q19 19 45 19 Z" /><glyph glyph-name="oslash" unicode="ø" d="M115 268 q0 -43 9.5 -80.5 q9.5 -37.5 26.5 -66.5 l267 323 q-48 53 -121 53 q-52 0 -93 -29 q-41 -29 -65 -80.5 q-24 -51.5 -24 -119.5 ZM82 -25 l-31 25 l63 76 q-27 35 -42.5 83 q-15.5 48 -15.5 107 q0 89 33.5 152 q33.5 63 88.5 96 q55 33 119 33 q92 0 156 -61 l59 71 l32 -25 l-63 -76 q26 -35 41.5 -83 q15.5 -48 15.5 -107 q0 -88 -33.5 -150.5 q-33.5 -62.5 -88 -95.5 q-54.5 -33 -119.5 -33 q-90 0 -155 60 l-60 -72 ZM297 36 q52 0 93.5 29 q41.5 29 65.5 80.5 q24 51.5 24 118.5 q0 87 -37 147 l-267 -322 q50 -53 121 -53 Z" /><glyph glyph-name="ugrave" unicode="ù" d="M253 -13 q-83 0 -122 51 q-39 51 -39 154 l0 341 l58 0 l0 -334 q0 -82 27.5 -121 q27.5 -39 88.5 -39 q47 0 84 25 q37 25 82 79 l0 390 l58 0 l0 -533 l-49 0 l-5 88 l-3 0 q-39 -45 -81.5 -73 q-42.5 -28 -98.5 -28 ZM321 635 l-161 168 l42 38 l151 -176 l-32 -30 Z" /><glyph glyph-name="uacute" unicode="ú" d="M253 -13 q-83 0 -122 51 q-39 51 -39 154 l0 341 l58 0 l0 -334 q0 -82 27.5 -121 q27.5 -39 88.5 -39 q47 0 84 25 q37 25 82 79 l0 390 l58 0 l0 -533 l-49 0 l-5 88 l-3 0 q-39 -45 -81.5 -73 q-42.5 -28 -98.5 -28 ZM266 635 l-32 30 l150 176 l43 -38 l-161 -168 Z" /><glyph glyph-name="ucircumflex" unicode="û" d="M253 -13 q-83 0 -122 51 q-39 51 -39 154 l0 341 l58 0 l0 -334 q0 -82 27.5 -121 q27.5 -39 88.5 -39 q47 0 84 25 q37 25 82 79 l0 390 l58 0 l0 -533 l-49 0 l-5 88 l-3 0 q-39 -45 -81.5 -73 q-42.5 -28 -98.5 -28 ZM136 658 l129 159 l57 0 l128 -159 l-28 -25 l-127 135 l-4 0 l-126 -135 l-29 25 Z" /><glyph glyph-name="udieresis" unicode="ü" d="M253 -13 q-83 0 -122 51 q-39 51 -39 154 l0 341 l58 0 l0 -334 q0 -82 27.5 -121 q27.5 -39 88.5 -39 q47 0 84 25 q37 25 82 79 l0 390 l58 0 l0 -533 l-49 0 l-5 88 l-3 0 q-39 -45 -81.5 -73 q-42.5 -28 -98.5 -28 ZM193 660 q-19 0 -31.5 12.5 q-12.5 12.5 -12.5 30.5 q0 19 12.5 32 q12.5 13 31.5 13 q19 0 31.5 -13 q12.5 -13 12.5 -32 q0 -18 -12.5 -30.5 q-12.5 -12.5 -31.5 -12.5 ZM394 660 q-19 0 -32 12.5 q-13 12.5 -13 30.5 q0 19 13 32 q13 13 32 13 q18 0 31 -13 q13 -13 13 -32 q0 -18 -13 -30.5 q-13 -12.5 -31 -12.5 Z" /><glyph glyph-name="yacute" unicode="ý" d="M85 -240 q-33 0 -57 11 l13 49 q8 -3 20 -5.5 q12 -2.5 23 -2.5 q48 0 81 38.5 q33 38.5 52 96.5 l14 45 l-218 541 l63 0 l124 -326 q13 -34 27.5 -74 q14.5 -40 28.5 -76 l5 0 q12 36 24.5 76 q12.5 40 23.5 74 l109 326 l59 0 l-208 -595 q-15 -46 -39.5 -86.5 q-24.5 -40.5 -60 -66 q-35.5 -25.5 -84.5 -25.5 ZM229 635 l-32 30 l151 176 l43 -38 l-162 -168 Z" /><glyph glyph-name="thorn" unicode="þ" d="M100 -238 l0 1033 l58 0 l0 -325 q39 30 83.5 53.5 q44.5 23.5 91.5 23.5 q107 0 161.5 -74.5 q54.5 -74.5 54.5 -197.5 q0 -91 -32.5 -155.5 q-32.5 -64.5 -86 -98.5 q-53.5 -34 -116.5 -34 q-38 0 -77 16.5 q-39 16.5 -79 47.5 l0 -289 l-58 0 ZM309 38 q52 0 92 29.5 q40 29.5 63 83 q23 53.5 23 124.5 q0 64 -16 114 q-16 50 -51.5 78.5 q-35.5 28.5 -95.5 28.5 q-38 0 -78.5 -22 q-40.5 -22 -87.5 -63 l0 -308 q43 -36 82.5 -50.5 q39.5 -14.5 68.5 -14.5 Z" /><glyph glyph-name="ydieresis" unicode="ÿ" d="M85 -240 q-33 0 -57 11 l13 49 q8 -3 20 -5.5 q12 -2.5 23 -2.5 q48 0 81 38.5 q33 38.5 52 96.5 l14 45 l-218 541 l63 0 l124 -326 q13 -34 27.5 -74 q14.5 -40 28.5 -76 l5 0 q12 36 24.5 76 q12.5 40 23.5 74 l109 326 l59 0 l-208 -595 q-15 -46 -39.5 -86.5 q-24.5 -40.5 -60 -66 q-35.5 -25.5 -84.5 -25.5 ZM157 660 q-19 0 -31.5 12.5 q-12.5 12.5 -12.5 30.5 q0 19 12.5 32 q12.5 13 31.5 13 q19 0 31.5 -13 q12.5 -13 12.5 -32 q0 -18 -12.5 -30.5 q-12.5 -12.5 -31.5 -12.5 ZM358 660 q-19 0 -31.5 12.5 q-12.5 12.5 -12.5 30.5 q0 19 12.5 32 q12.5 13 31.5 13 q19 0 31 -13 q12 -13 12 -32 q0 -18 -12 -30.5 q-12 -12.5 -31 -12.5 Z" /><glyph glyph-name="cid00190" unicode="&#x100;" d="M212 425 l-45 -132 l252 0 l-44 132 q-22 64 -41 124 q-19 60 -39 126 l-4 0 q-19 -66 -38 -126 q-19 -60 -41 -124 ZM8 0 l255 729 l62 0 l255 -729 l-64 0 l-81 245 l-284 0 l-83 -245 l-60 0 ZM154 821 l0 45 l279 0 l0 -45 l-279 0 Z" /><glyph glyph-name="cid00191" unicode="&#x101;" d="M218 -13 q-64 0 -109.5 36.5 q-45.5 36.5 -45.5 110.5 q0 89 82 135 q82 46 258 66 q1 40 -8.5 76.5 q-9.5 36.5 -36 60.5 q-26.5 24 -77.5 24 q-52 0 -96 -20 q-44 -20 -72 -41 l-26 42 q21 14 51.5 30.5 q30.5 16.5 69 28 q38.5 11.5 81.5 11.5 q64 0 101.5 -27.5 q37.5 -27.5 54 -75 q16.5 -47.5 16.5 -106.5 l0 -338 l-49 0 l-6 68 l-2 0 q-40 -33 -87.5 -57 q-47.5 -24 -98.5 -24 ZM230 36 q44 0 85 21 q41 21 88 62 l0 173 q-105 -12 -166.5 -32.5 q-61.5 -20.5 -88.5 -51 q-27 -30.5 -27 -71.5 q0 -55 32.5 -78 q32.5 -23 76.5 -23 ZM153 670 l0 45 l277 0 l0 -45 l-277 0 Z" /><glyph glyph-name="cid00192" unicode="&#x102;" d="M212 425 l-45 -132 l252 0 l-44 132 q-22 64 -41 124 q-19 60 -39 126 l-4 0 q-19 -66 -38 -126 q-19 -60 -41 -124 ZM8 0 l255 729 l62 0 l255 -729 l-64 0 l-81 245 l-284 0 l-83 -245 l-60 0 ZM293 785 q-49 0 -81.5 20.5 q-32.5 20.5 -49.5 52.5 q-17 32 -21 65 l39 8 q7 -42 34 -73 q27 -31 79 -31 q53 0 80 31 q27 31 33 73 l40 -8 q-4 -33 -21 -65 q-17 -32 -49.5 -52.5 q-32.5 -20.5 -82.5 -20.5 Z" /><glyph glyph-name="cid00193" unicode="&#x103;" d="M218 -13 q-64 0 -109.5 36.5 q-45.5 36.5 -45.5 110.5 q0 89 82 135 q82 46 258 66 q1 40 -8.5 76.5 q-9.5 36.5 -36 60.5 q-26.5 24 -77.5 24 q-52 0 -96 -20 q-44 -20 -72 -41 l-26 42 q21 14 51.5 30.5 q30.5 16.5 69 28 q38.5 11.5 81.5 11.5 q64 0 101.5 -27.5 q37.5 -27.5 54 -75 q16.5 -47.5 16.5 -106.5 l0 -338 l-49 0 l-6 68 l-2 0 q-40 -33 -87.5 -57 q-47.5 -24 -98.5 -24 ZM230 36 q44 0 85 21 q41 21 88 62 l0 173 q-105 -12 -166.5 -32.5 q-61.5 -20.5 -88.5 -51 q-27 -30.5 -27 -71.5 q0 -55 32.5 -78 q32.5 -23 76.5 -23 ZM292 632 q-57 0 -92.5 25.5 q-35.5 25.5 -53 63.5 q-17.5 38 -21.5 75 l41 6 q5 -30 19.5 -59.5 q14.5 -29.5 41 -48.5 q26.5 -19 65.5 -19 q39 0 65 19 q26 19 41 48.5 q15 29.5 19 59.5 l41 -6 q-3 -37 -20.5 -75 q-17.5 -38 -53 -63.5 q-35.5 -25.5 -92.5 -25.5 Z" /><glyph glyph-name="cid00194" unicode="&#x110;" d="M129 0 l0 365 l-89 0 l0 37 l89 3 l0 324 l172 0 q112 0 186 -44 q74 -44 111 -125 q37 -81 37 -193 q0 -111 -36.5 -193.5 q-36.5 -82.5 -110.5 -128 q-74 -45.5 -185 -45.5 l-174 0 ZM189 51 l106 0 q96 0 157.5 39.5 q61.5 39.5 91 111 q29.5 71.5 29.5 165.5 q0 95 -29.5 165 q-29.5 70 -91 108.5 q-61.5 38.5 -157.5 38.5 l-106 0 l0 -274 l177 0 l0 -40 l-177 0 l0 -314 Z" /><glyph glyph-name="dcroat" unicode="&#x111;" d="M277 -13 q-100 0 -160.5 67.5 q-60.5 67.5 -60.5 191.5 q0 80 33 139 q33 59 86.5 91 q53.5 32 116.5 32 q48 0 84 -17 q36 -17 75 -48 l-4 97 l0 101 l-185 0 l0 40 l185 0 l0 114 l58 0 l0 -114 l83 0 l0 -35 l-83 -5 l0 -641 l-49 0 l-6 66 l-2 0 q-32 -32 -75 -55.5 q-43 -23.5 -96 -23.5 ZM287 38 q43 0 81.5 21.5 q38.5 21.5 78.5 62.5 l0 269 q-40 36 -75.5 51 q-35.5 15 -73.5 15 q-51 0 -91.5 -28 q-40.5 -28 -64.5 -75.5 q-24 -47.5 -24 -106.5 q0 -94 44 -151.5 q44 -57.5 125 -57.5 Z" /><glyph glyph-name="cid00196" unicode="&#x112;" d="M106 0 l0 729 l403 0 l0 -51 l-343 0 l0 -266 l289 0 l0 -51 l-289 0 l0 -309 l354 0 l0 -52 l-414 0 ZM182 821 l0 45 l279 0 l0 -45 l-279 0 Z" /><glyph glyph-name="cid00197" unicode="&#x113;" d="M304 -13 q-69 0 -125 33.5 q-56 33.5 -89.5 96 q-33.5 62.5 -33.5 149.5 q0 87 33.5 150 q33.5 63 87 97 q53.5 34 113.5 34 q97 0 151.5 -65.5 q54.5 -65.5 54.5 -182.5 q0 -22 -3 -42 l-378 0 q2 -65 26.5 -115 q24.5 -50 68 -78 q43.5 -28 100.5 -28 q43 0 77.5 12.5 q34.5 12.5 64.5 33.5 l22 -43 q-32 -20 -72 -36 q-40 -16 -98 -16 ZM115 303 l328 0 q0 97 -41 145.5 q-41 48.5 -111 48.5 q-43 0 -81.5 -23 q-38.5 -23 -63.5 -66.5 q-25 -43.5 -31 -104.5 ZM151 670 l0 45 l278 0 l0 -45 l-278 0 Z" /><glyph glyph-name="cid00198" unicode="&#x11a;" d="M106 0 l0 729 l403 0 l0 -51 l-343 0 l0 -266 l289 0 l0 -51 l-289 0 l0 -309 l354 0 l0 -52 l-414 0 ZM292 785 l-123 125 l26 23 l124 -107 l4 0 l125 107 l26 -23 l-123 -125 l-59 0 Z" /><glyph glyph-name="cid00199" unicode="&#x11b;" d="M304 -13 q-69 0 -125 33.5 q-56 33.5 -89.5 96 q-33.5 62.5 -33.5 149.5 q0 87 33.5 150 q33.5 63 87 97 q53.5 34 113.5 34 q97 0 151.5 -65.5 q54.5 -65.5 54.5 -182.5 q0 -22 -3 -42 l-378 0 q2 -65 26.5 -115 q24.5 -50 68 -78 q43.5 -28 100.5 -28 q43 0 77.5 12.5 q34.5 12.5 64.5 33.5 l22 -43 q-32 -20 -72 -36 q-40 -16 -98 -16 ZM115 303 l328 0 q0 97 -41 145.5 q-41 48.5 -111 48.5 q-43 0 -81.5 -23 q-38.5 -23 -63.5 -66.5 q-25 -43.5 -31 -104.5 ZM262 635 l-129 158 l28 25 l127 -136 l4 0 l126 136 l29 -25 l-129 -158 l-56 0 Z" /><glyph glyph-name="cid00200" unicode="&#x128;" d="M106 0 l0 729 l60 0 l0 -729 l-60 0 ZM221 793 q-31 0 -53.5 13 q-22.5 13 -40 30 q-17.5 17 -35 30 q-17.5 13 -40.5 13 q-23 0 -39.5 -22 q-16.5 -22 -19.5 -60 l-42 4 q2 53 28 89 q26 36 72 36 q32 0 54.5 -13 q22.5 -13 40 -30 q17.5 -17 35 -30 q17.5 -13 39.5 -13 q24 0 40 22 q16 22 20 60 l42 -3 q-3 -55 -28.5 -90.5 q-25.5 -35.5 -72.5 -35.5 Z" /><glyph glyph-name="cid00201" unicode="&#x129;" d="M100 0 l0 533 l58 0 l0 -533 l-58 0 ZM213 641 q-31 0 -53 15.5 q-22 15.5 -39.5 36 q-17.5 20.5 -35 36 q-17.5 15.5 -39.5 15.5 q-28 0 -41.5 -28 q-13.5 -28 -15.5 -72 l-43 3 q3 37 12.5 69 q9.5 32 31 52.5 q21.5 20.5 58.5 20.5 q30 0 51.5 -15.5 q21.5 -15.5 39 -36 q17.5 -20.5 35.5 -36 q18 -15.5 40 -15.5 q28 0 41.5 29 q13.5 29 15.5 70 l42 -3 q-2 -35 -12 -67.5 q-10 -32.5 -31 -53 q-21 -20.5 -57 -20.5 Z" /><glyph glyph-name="cid00202" unicode="&#x12a;" d="M106 0 l0 729 l60 0 l0 -729 l-60 0 ZM-3 821 l0 45 l279 0 l0 -45 l-279 0 Z" /><glyph glyph-name="cid00203" unicode="&#x12b;" d="M100 0 l0 533 l58 0 l0 -533 l-58 0 ZM-9 670 l0 45 l277 0 l0 -45 l-277 0 Z" /><glyph glyph-name="cid00204" unicode="&#x143;" d="M106 0 l0 729 l62 0 l298 -501 l81 -147 l5 0 q-3 54 -5.5 108.5 q-2.5 54.5 -2.5 107.5 l0 432 l57 0 l0 -729 l-62 0 l-297 502 l-82 146 l-5 0 q2 -52 5 -104 q3 -52 3 -107 l0 -437 l-57 0 ZM346 780 l-27 30 l142 138 l36 -43 l-151 -125 Z" /><glyph glyph-name="cid00205" unicode="&#x144;" d="M100 0 l0 533 l48 0 l7 -81 l2 0 q41 40 84 67.5 q43 27.5 98 27.5 q83 0 122.5 -51.5 q39.5 -51.5 39.5 -154.5 l0 -341 l-58 0 l0 333 q0 83 -27.5 122.5 q-27.5 39.5 -89.5 39.5 q-46 0 -83.5 -24 q-37.5 -24 -84.5 -72 l0 -399 l-58 0 ZM289 635 l-31 30 l150 176 l43 -38 l-162 -168 Z" /><glyph glyph-name="cid00206" unicode="&#x147;" d="M106 0 l0 729 l62 0 l298 -501 l81 -147 l5 0 q-3 54 -5.5 108.5 q-2.5 54.5 -2.5 107.5 l0 432 l57 0 l0 -729 l-62 0 l-297 502 l-82 146 l-5 0 q2 -52 5 -104 q3 -52 3 -107 l0 -437 l-57 0 ZM338 785 l-123 125 l26 23 l124 -107 l4 0 l125 107 l26 -23 l-123 -125 l-59 0 Z" /><glyph glyph-name="cid00207" unicode="&#x148;" d="M100 0 l0 533 l48 0 l7 -81 l2 0 q41 40 84 67.5 q43 27.5 98 27.5 q83 0 122.5 -51.5 q39.5 -51.5 39.5 -154.5 l0 -341 l-58 0 l0 333 q0 83 -27.5 122.5 q-27.5 39.5 -89.5 39.5 q-46 0 -83.5 -24 q-37.5 -24 -84.5 -72 l0 -399 l-58 0 ZM289 635 l-129 158 l29 25 l126 -136 l4 0 l127 136 l28 -25 l-129 -158 l-56 0 Z" /><glyph glyph-name="cid00208" unicode="&#x14c;" d="M362 -13 q-88 0 -156 46.5 q-68 46.5 -107 132 q-39 85.5 -39 201.5 q0 116 39 200 q39 84 107 129.5 q68 45.5 156 45.5 q89 0 157.5 -45.5 q68.5 -45.5 107 -129.5 q38.5 -84 38.5 -200 q0 -116 -38.5 -201.5 q-38.5 -85.5 -107 -132 q-68.5 -46.5 -157.5 -46.5 ZM362 41 q73 0 127 40 q54 40 84 113.5 q30 73.5 30 172.5 q0 99 -30 171 q-30 72 -84 111 q-54 39 -127 39 q-72 0 -125.5 -39 q-53.5 -39 -83.5 -111 q-30 -72 -30 -171 q0 -99 30 -172.5 q30 -73.5 83.5 -113.5 q53.5 -40 125.5 -40 ZM223 821 l0 45 l279 0 l0 -45 l-279 0 Z" /><glyph glyph-name="cid00209" unicode="&#x14d;" d="M297 -13 q-64 0 -119 33 q-55 33 -88.5 95.5 q-33.5 62.5 -33.5 150.5 q0 89 33.5 152 q33.5 63 88.5 96 q55 33 119 33 q65 0 119.5 -33 q54.5 -33 88 -96 q33.5 -63 33.5 -152 q0 -88 -33.5 -150.5 q-33.5 -62.5 -88 -95.5 q-54.5 -33 -119.5 -33 ZM297 37 q52 0 93 29 q41 29 64.5 80.5 q23.5 51.5 23.5 119.5 q0 68 -23.5 120 q-23.5 52 -64.5 81 q-41 29 -93 29 q-52 0 -92.5 -29 q-40.5 -29 -64 -81 q-23.5 -52 -23.5 -120 q0 -68 23.5 -119.5 q23.5 -51.5 64 -80.5 q40.5 -29 92.5 -29 ZM159 670 l0 45 l277 0 l0 -45 l-277 0 Z" /><glyph glyph-name="cid00210" unicode="&#x14e;" d="M362 -13 q-88 0 -156 46.5 q-68 46.5 -107 132 q-39 85.5 -39 201.5 q0 116 39 200 q39 84 107 129.5 q68 45.5 156 45.5 q89 0 157.5 -45.5 q68.5 -45.5 107 -129.5 q38.5 -84 38.5 -200 q0 -116 -38.5 -201.5 q-38.5 -85.5 -107 -132 q-68.5 -46.5 -157.5 -46.5 ZM362 41 q73 0 127 40 q54 40 84 113.5 q30 73.5 30 172.5 q0 99 -30 171 q-30 72 -84 111 q-54 39 -127 39 q-72 0 -125.5 -39 q-53.5 -39 -83.5 -111 q-30 -72 -30 -171 q0 -99 30 -172.5 q30 -73.5 83.5 -113.5 q53.5 -40 125.5 -40 ZM362 785 q-49 0 -81.5 20.5 q-32.5 20.5 -49.5 52.5 q-17 32 -21 65 l40 8 q7 -42 34 -73 q27 -31 78 -31 q53 0 80 31 q27 31 33 73 l41 -8 q-4 -33 -21.5 -65 q-17.5 -32 -50 -52.5 q-32.5 -20.5 -82.5 -20.5 Z" /><glyph glyph-name="cid00211" unicode="&#x14f;" d="M297 -13 q-64 0 -119 33 q-55 33 -88.5 95.5 q-33.5 62.5 -33.5 150.5 q0 89 33.5 152 q33.5 63 88.5 96 q55 33 119 33 q65 0 119.5 -33 q54.5 -33 88 -96 q33.5 -63 33.5 -152 q0 -88 -33.5 -150.5 q-33.5 -62.5 -88 -95.5 q-54.5 -33 -119.5 -33 ZM297 37 q52 0 93 29 q41 29 64.5 80.5 q23.5 51.5 23.5 119.5 q0 68 -23.5 120 q-23.5 52 -64.5 81 q-41 29 -93 29 q-52 0 -92.5 -29 q-40.5 -29 -64 -81 q-23.5 -52 -23.5 -120 q0 -68 23.5 -119.5 q23.5 -51.5 64 -80.5 q40.5 -29 92.5 -29 ZM297 632 q-57 0 -92.5 25.5 q-35.5 25.5 -53 63.5 q-17.5 38 -21.5 75 l42 6 q4 -30 18.5 -59.5 q14.5 -29.5 41 -48.5 q26.5 -19 65.5 -19 q39 0 65.5 19 q26.5 19 41.5 48.5 q15 29.5 19 59.5 l41 -6 q-4 -37 -21.5 -75 q-17.5 -38 -52.5 -63.5 q-35 -25.5 -93 -25.5 Z" /><glyph glyph-name="OE" unicode="&#x152;" d="M407 0 q-113 0 -190.5 45.5 q-77.5 45.5 -117 128 q-39.5 82.5 -39.5 193.5 q0 112 39.5 193 q39.5 81 117.5 125 q78 44 192 44 l454 0 l0 -51 l-323 0 l0 -266 l268 0 l0 -51 l-268 0 l0 -309 l334 0 l0 -52 l-467 0 ZM414 51 l66 0 l0 628 l-66 0 q-98 0 -163 -38.5 q-65 -38.5 -96.5 -108.5 q-31.5 -70 -31.5 -165 q0 -94 31.5 -165.5 q31.5 -71.5 96.5 -111 q65 -39.5 163 -39.5 Z" /><glyph glyph-name="oe" unicode="&#x153;" d="M291 -13 q-62 0 -116 33 q-54 33 -86.5 95.5 q-32.5 62.5 -32.5 150.5 q0 89 33 152 q33 63 86.5 96 q53.5 33 116.5 33 q64 0 120 -38.5 q56 -38.5 84 -114.5 q29 71 81 112 q52 41 115 41 q95 0 149 -66 q54 -66 54 -183 q0 -10 -0.5 -20.5 q-0.5 -10.5 -2.5 -20.5 l-368 0 q1 -65 25.5 -114.5 q24.5 -49.5 66.5 -77.5 q42 -28 94 -28 q42 0 76 12.5 q34 12.5 65 33.5 l22 -44 q-31 -20 -71 -36 q-40 -16 -98 -16 q-68 0 -123 41 q-55 41 -85 110 q-30 -75 -82.5 -113 q-52.5 -38 -122.5 -38 ZM292 37 q51 0 90.5 29 q39.5 29 62.5 80.5 q23 51.5 23 119.5 q0 68 -23 120 q-23 52 -62.5 81 q-39.5 29 -90.5 29 q-51 0 -90.5 -29 q-39.5 -29 -62 -81 q-22.5 -52 -22.5 -120 q0 -68 22.5 -119.5 q22.5 -51.5 62 -80.5 q39.5 -29 90.5 -29 ZM524 299 l318 0 q0 98 -41 148 q-41 50 -110 50 q-42 0 -78 -25 q-36 -25 -59.5 -69.5 q-23.5 -44.5 -29.5 -103.5 Z" /><glyph glyph-name="cid00214" unicode="&#x168;" d="M352 -13 q-49 0 -94 14.5 q-45 14.5 -80 48.5 q-35 34 -55 91.5 q-20 57.5 -20 143.5 l0 444 l60 0 l0 -441 q0 -95 26 -149 q26 -54 69.5 -76 q43.5 -22 93.5 -22 q52 0 95.5 22 q43.5 22 70.5 76 q27 54 27 149 l0 441 l57 0 l0 -444 q0 -86 -20.5 -143.5 q-20.5 -57.5 -55.5 -91.5 q-35 -34 -80 -48.5 q-45 -14.5 -94 -14.5 ZM437 793 q-32 0 -54.5 13 q-22.5 13 -40.5 30 q-18 17 -35 30 q-17 13 -39 13 q-24 0 -40.5 -22 q-16.5 -22 -19.5 -60 l-42 4 q3 53 29 89 q26 36 72 36 q32 0 54 -13 q22 -13 39.5 -30 q17.5 -17 35 -30 q17.5 -13 39.5 -13 q24 0 40 22 q16 22 20 60 l42 -3 q-2 -55 -28 -90.5 q-26 -35.5 -72 -35.5 Z" /><glyph glyph-name="cid00215" unicode="&#x169;" d="M253 -13 q-83 0 -122 51 q-39 51 -39 154 l0 341 l58 0 l0 -334 q0 -82 27.5 -121 q27.5 -39 88.5 -39 q47 0 84 25 q37 25 82 79 l0 390 l58 0 l0 -533 l-49 0 l-5 88 l-3 0 q-39 -45 -81.5 -73 q-42.5 -28 -98.5 -28 ZM377 641 q-31 0 -53 15.5 q-22 15.5 -39.5 36 q-17.5 20.5 -35 36 q-17.5 15.5 -39.5 15.5 q-29 0 -42 -28 q-13 -28 -15 -72 l-43 3 q2 37 11.5 69 q9.5 32 31.5 52.5 q22 20.5 58 20.5 q31 0 52.5 -15.5 q21.5 -15.5 39 -36 q17.5 -20.5 35.5 -36 q18 -15.5 40 -15.5 q28 0 41 29 q13 29 15 70 l43 -3 q-2 -35 -12 -67.5 q-10 -32.5 -31 -53 q-21 -20.5 -57 -20.5 Z" /><glyph glyph-name="cid00216" unicode="&#x16a;" d="M352 -13 q-49 0 -94 14.5 q-45 14.5 -80 48.5 q-35 34 -55 91.5 q-20 57.5 -20 143.5 l0 444 l60 0 l0 -441 q0 -95 26 -149 q26 -54 69.5 -76 q43.5 -22 93.5 -22 q52 0 95.5 22 q43.5 22 70.5 76 q27 54 27 149 l0 441 l57 0 l0 -444 q0 -86 -20.5 -143.5 q-20.5 -57.5 -55.5 -91.5 q-35 -34 -80 -48.5 q-45 -14.5 -94 -14.5 ZM212 821 l0 45 l279 0 l0 -45 l-279 0 Z" /><glyph glyph-name="cid00217" unicode="&#x16b;" d="M253 -13 q-83 0 -122 51 q-39 51 -39 154 l0 341 l58 0 l0 -334 q0 -82 27.5 -121 q27.5 -39 88.5 -39 q47 0 84 25 q37 25 82 79 l0 390 l58 0 l0 -533 l-49 0 l-5 88 l-3 0 q-39 -45 -81.5 -73 q-42.5 -28 -98.5 -28 ZM154 670 l0 45 l278 0 l0 -45 l-278 0 Z" /><glyph glyph-name="cid00218" unicode="&#x16c;" d="M352 -13 q-49 0 -94 14.5 q-45 14.5 -80 48.5 q-35 34 -55 91.5 q-20 57.5 -20 143.5 l0 444 l60 0 l0 -441 q0 -95 26 -149 q26 -54 69.5 -76 q43.5 -22 93.5 -22 q52 0 95.5 22 q43.5 22 70.5 76 q27 54 27 149 l0 441 l57 0 l0 -444 q0 -86 -20.5 -143.5 q-20.5 -57.5 -55.5 -91.5 q-35 -34 -80 -48.5 q-45 -14.5 -94 -14.5 ZM351 785 q-49 0 -81.5 20.5 q-32.5 20.5 -49.5 52.5 q-17 32 -21 65 l40 8 q7 -42 33.5 -73 q26.5 -31 78.5 -31 q53 0 80 31 q27 31 33 73 l41 -8 q-4 -33 -21.5 -65 q-17.5 -32 -50 -52.5 q-32.5 -20.5 -82.5 -20.5 Z" /><glyph glyph-name="cid00219" unicode="&#x16d;" d="M253 -13 q-83 0 -122 51 q-39 51 -39 154 l0 341 l58 0 l0 -334 q0 -82 27.5 -121 q27.5 -39 88.5 -39 q47 0 84 25 q37 25 82 79 l0 390 l58 0 l0 -533 l-49 0 l-5 88 l-3 0 q-39 -45 -81.5 -73 q-42.5 -28 -98.5 -28 ZM293 632 q-57 0 -92.5 25.5 q-35.5 25.5 -53 63.5 q-17.5 38 -21.5 75 l42 6 q4 -30 18.5 -59.5 q14.5 -29.5 41 -48.5 q26.5 -19 65.5 -19 q40 0 66 19 q26 19 41 48.5 q15 29.5 19 59.5 l41 -6 q-4 -37 -21.5 -75 q-17.5 -38 -52.5 -63.5 q-35 -25.5 -93 -25.5 Z" /><glyph glyph-name="florin" unicode="&#x192;" d="M87 -108 q-22 0 -40.5 5 q-18.5 5 -32.5 13 l14 44 q14 -7 28 -9.5 q14 -2.5 30 -2.5 q58 0 83.5 50.5 q25.5 50.5 33.5 129.5 l30 280 l-103 0 l0 43 l74 4 l35 0 l7 69 q11 105 49.5 164.5 q38.5 59.5 116.5 59.5 q27 0 47.5 -6 q20.5 -6 36.5 -14 l-15 -46 q-13 6 -29 11 q-16 5 -39 5 q-37 0 -59.5 -24.5 q-22.5 -24.5 -34 -63 q-11.5 -38.5 -16.5 -82.5 l-8 -73 l150 0 l0 -47 l-155 0 l-31 -287 q-11 -102 -49.5 -162.5 q-38.5 -60.5 -122.5 -60.5 Z" /><glyph glyph-name="cid00221" unicode="&#x1a0;" d="M367 -13 q-89 0 -157.5 46.5 q-68.5 46.5 -107 132 q-38.5 85.5 -38.5 201.5 q0 116 38.5 200 q38.5 84 107 129.5 q68.5 45.5 157.5 45.5 q76 0 138 -35 q102 19 102 96 q0 15 -3.5 31.5 q-3.5 16.5 -11.5 29.5 l50 24 q22 -39 22 -81 q0 -52 -32 -84 q-32 -32 -83 -46 q56 -47 88.5 -126.5 q32.5 -79.5 32.5 -183.5 q0 -116 -39 -201.5 q-39 -85.5 -107.5 -132 q-68.5 -46.5 -156.5 -46.5 ZM367 41 q72 0 126 40 q54 40 84 113.5 q30 73.5 30 172.5 q0 99 -30 171 q-30 72 -84 111 q-54 39 -126 39 q-72 0 -126.5 -39 q-54.5 -39 -84.5 -111 q-30 -72 -30 -171 q0 -99 30 -172.5 q30 -73.5 84.5 -113.5 q54.5 -40 126.5 -40 Z" /><glyph glyph-name="cid00222" unicode="&#x1a1;" d="M297 -13 q-64 0 -119 33 q-55 33 -88.5 95.5 q-33.5 62.5 -33.5 150.5 q0 89 33.5 152 q33.5 63 88.5 96 q55 33 119 33 q55 0 103 -24 q52 10 79 36 q27 26 27 72 q0 14 -4 30 q-4 16 -12 29 l48 25 q22 -39 22 -80 q0 -42 -17 -70 q-17 -28 -44 -44.5 q-27 -16.5 -56 -25.5 q43 -35 69 -93.5 q26 -58.5 26 -135.5 q0 -88 -33.5 -150.5 q-33.5 -62.5 -88 -95.5 q-54.5 -33 -119.5 -33 ZM297 37 q52 0 93 29 q41 29 64.5 80.5 q23.5 51.5 23.5 119.5 q0 68 -23.5 120 q-23.5 52 -64.5 81 q-41 29 -93 29 q-52 0 -92.5 -29 q-40.5 -29 -64 -81 q-23.5 -52 -23.5 -120 q0 -68 23.5 -119.5 q23.5 -51.5 64 -80.5 q40.5 -29 92.5 -29 Z" /><glyph glyph-name="cid00223" unicode="&#x1af;" d="M602 698 l0 -413 q0 -86 -20.5 -143.5 q-20.5 -57.5 -55.5 -91.5 q-35 -34 -80 -48.5 q-45 -14.5 -94 -14.5 q-49 0 -94 14.5 q-45 14.5 -80 48.5 q-35 34 -55 91.5 q-20 57.5 -20 143.5 l0 444 l60 0 l0 -441 q0 -95 26 -149 q26 -54 69.5 -76 q43.5 -22 93.5 -22 q52 0 95.5 22 q43.5 22 70.5 76 q27 54 27 149 l0 441 l16 0 q53 8 78.5 30 q25.5 22 25.5 66 q0 15 -4 31.5 q-4 16.5 -12 29.5 l51 24 q10 -19 15.5 -39.5 q5.5 -20.5 5.5 -41.5 q0 -40 -17 -66.5 q-17 -26.5 -44 -41.5 q-27 -15 -58 -23 Z" /><glyph glyph-name="cid00224" unicode="&#x1b0;" d="M490 506 l0 -506 l-49 0 l-5 88 l-3 0 q-39 -45 -81.5 -73 q-42.5 -28 -98.5 -28 q-83 0 -122 51 q-39 51 -39 154 l0 341 l58 0 l0 -334 q0 -82 27.5 -121 q27.5 -39 88.5 -39 q47 0 84 25 q37 25 82 79 l0 390 l12 0 q42 8 68 33 q26 25 26 77 q0 29 -16 58 l48 25 q11 -19 17 -39 q6 -20 6 -41 q0 -44 -16 -72.5 q-16 -28.5 -39.5 -44 q-23.5 -15.5 -47.5 -23.5 Z" /><glyph glyph-name="cid00225" unicode="&#x1cd;" d="M212 425 l-45 -132 l252 0 l-44 132 q-22 64 -41 124 q-19 60 -39 126 l-4 0 q-19 -66 -38 -126 q-19 -60 -41 -124 ZM8 0 l255 729 l62 0 l255 -729 l-64 0 l-81 245 l-284 0 l-83 -245 l-60 0 ZM264 785 l-123 125 l26 23 l124 -107 l4 0 l125 107 l26 -23 l-123 -125 l-59 0 Z" /><glyph glyph-name="cid00226" unicode="&#x1ce;" d="M218 -13 q-64 0 -109.5 36.5 q-45.5 36.5 -45.5 110.5 q0 89 82 135 q82 46 258 66 q1 40 -8.5 76.5 q-9.5 36.5 -36 60.5 q-26.5 24 -77.5 24 q-52 0 -96 -20 q-44 -20 -72 -41 l-26 42 q21 14 51.5 30.5 q30.5 16.5 69 28 q38.5 11.5 81.5 11.5 q64 0 101.5 -27.5 q37.5 -27.5 54 -75 q16.5 -47.5 16.5 -106.5 l0 -338 l-49 0 l-6 68 l-2 0 q-40 -33 -87.5 -57 q-47.5 -24 -98.5 -24 ZM230 36 q44 0 85 21 q41 21 88 62 l0 173 q-105 -12 -166.5 -32.5 q-61.5 -20.5 -88.5 -51 q-27 -30.5 -27 -71.5 q0 -55 32.5 -78 q32.5 -23 76.5 -23 ZM263 635 l-128 158 l28 25 l127 -136 l4 0 l126 136 l28 -25 l-128 -158 l-57 0 Z" /><glyph glyph-name="cid00227" unicode="&#x1cf;" d="M106 0 l0 729 l60 0 l0 -729 l-60 0 ZM106 785 l-122 125 l26 23 l124 -107 l5 0 l123 107 l27 -23 l-123 -125 l-60 0 Z" /><glyph glyph-name="cid00228" unicode="&#x1d0;" d="M100 0 l0 533 l58 0 l0 -533 l-58 0 ZM101 635 l-128 158 l28 25 l126 -136 l5 0 l127 136 l28 -25 l-128 -158 l-58 0 Z" /><glyph glyph-name="cid00229" unicode="&#x1d1;" d="M362 -13 q-88 0 -156 46.5 q-68 46.5 -107 132 q-39 85.5 -39 201.5 q0 116 39 200 q39 84 107 129.5 q68 45.5 156 45.5 q89 0 157.5 -45.5 q68.5 -45.5 107 -129.5 q38.5 -84 38.5 -200 q0 -116 -38.5 -201.5 q-38.5 -85.5 -107 -132 q-68.5 -46.5 -157.5 -46.5 ZM362 41 q73 0 127 40 q54 40 84 113.5 q30 73.5 30 172.5 q0 99 -30 171 q-30 72 -84 111 q-54 39 -127 39 q-72 0 -125.5 -39 q-53.5 -39 -83.5 -111 q-30 -72 -30 -171 q0 -99 30 -172.5 q30 -73.5 83.5 -113.5 q53.5 -40 125.5 -40 ZM333 785 l-123 125 l26 23 l124 -107 l5 0 l124 107 l26 -23 l-122 -125 l-60 0 Z" /><glyph glyph-name="cid00230" unicode="&#x1d2;" d="M297 -13 q-64 0 -119 33 q-55 33 -88.5 95.5 q-33.5 62.5 -33.5 150.5 q0 89 33.5 152 q33.5 63 88.5 96 q55 33 119 33 q65 0 119.5 -33 q54.5 -33 88 -96 q33.5 -63 33.5 -152 q0 -88 -33.5 -150.5 q-33.5 -62.5 -88 -95.5 q-54.5 -33 -119.5 -33 ZM297 37 q52 0 93 29 q41 29 64.5 80.5 q23.5 51.5 23.5 119.5 q0 68 -23.5 120 q-23.5 52 -64.5 81 q-41 29 -93 29 q-52 0 -92.5 -29 q-40.5 -29 -64 -81 q-23.5 -52 -23.5 -120 q0 -68 23.5 -119.5 q23.5 -51.5 64 -80.5 q40.5 -29 92.5 -29 ZM268 635 l-128 158 l28 25 l127 -136 l4 0 l127 136 l28 -25 l-128 -158 l-58 0 Z" /><glyph glyph-name="cid00231" unicode="&#x1d3;" d="M352 -13 q-49 0 -94 14.5 q-45 14.5 -80 48.5 q-35 34 -55 91.5 q-20 57.5 -20 143.5 l0 444 l60 0 l0 -441 q0 -95 26 -149 q26 -54 69.5 -76 q43.5 -22 93.5 -22 q52 0 95.5 22 q43.5 22 70.5 76 q27 54 27 149 l0 441 l57 0 l0 -444 q0 -86 -20.5 -143.5 q-20.5 -57.5 -55.5 -91.5 q-35 -34 -80 -48.5 q-45 -14.5 -94 -14.5 ZM322 785 l-123 125 l26 23 l124 -107 l5 0 l124 107 l26 -23 l-122 -125 l-60 0 Z" /><glyph glyph-name="cid00232" unicode="&#x1d4;" d="M253 -13 q-83 0 -122 51 q-39 51 -39 154 l0 341 l58 0 l0 -334 q0 -82 27.5 -121 q27.5 -39 88.5 -39 q47 0 84 25 q37 25 82 79 l0 390 l58 0 l0 -533 l-49 0 l-5 88 l-3 0 q-39 -45 -81.5 -73 q-42.5 -28 -98.5 -28 ZM265 635 l-129 158 l29 25 l126 -136 l4 0 l127 136 l28 -25 l-128 -158 l-57 0 Z" /><glyph glyph-name="cid00233" unicode="&#x1d5;" d="M352 -13 q-49 0 -94 14.5 q-45 14.5 -80 48.5 q-35 34 -55 91.5 q-20 57.5 -20 143.5 l0 444 l60 0 l0 -441 q0 -95 26 -149 q26 -54 69.5 -76 q43.5 -22 93.5 -22 q52 0 95.5 22 q43.5 22 70.5 76 q27 54 27 149 l0 441 l57 0 l0 -444 q0 -86 -20.5 -143.5 q-20.5 -57.5 -55.5 -91.5 q-35 -34 -80 -48.5 q-45 -14.5 -94 -14.5 ZM242 801 q-18 0 -29.5 11 q-11.5 11 -11.5 30 q0 19 11.5 30.5 q11.5 11.5 29.5 11.5 q18 0 30 -11.5 q12 -11.5 12 -30.5 q0 -19 -12 -30 q-12 -11 -30 -11 ZM212 948 l0 40 l279 0 l0 -40 l-279 0 ZM461 801 q-18 0 -29.5 11 q-11.5 11 -11.5 30 q0 19 11.5 30.5 q11.5 11.5 29.5 11.5 q18 0 30 -11.5 q12 -11.5 12 -30.5 q0 -19 -12 -30 q-12 -11 -30 -11 Z" /><glyph glyph-name="cid00234" unicode="&#x1d6;" d="M253 -13 q-83 0 -122 51 q-39 51 -39 154 l0 341 l58 0 l0 -334 q0 -82 27.5 -121 q27.5 -39 88.5 -39 q47 0 84 25 q37 25 82 79 l0 390 l58 0 l0 -533 l-49 0 l-5 88 l-3 0 q-39 -45 -81.5 -73 q-42.5 -28 -98.5 -28 ZM193 660 q-17 0 -29.5 12.5 q-12.5 12.5 -12.5 29.5 q0 17 12.5 29.5 q12.5 12.5 29.5 12.5 q18 0 30 -12.5 q12 -12.5 12 -29.5 q0 -17 -12 -29.5 q-12 -12.5 -30 -12.5 ZM153 829 l0 39 l279 0 l0 -39 l-279 0 ZM394 660 q-18 0 -30.5 12.5 q-12.5 12.5 -12.5 29.5 q0 17 12.5 29.5 q12.5 12.5 30.5 12.5 q17 0 29 -12.5 q12 -12.5 12 -29.5 q0 -17 -12 -29.5 q-12 -12.5 -29 -12.5 Z" /><glyph glyph-name="cid00235" unicode="&#x1d7;" d="M352 -13 q-49 0 -94 14.5 q-45 14.5 -80 48.5 q-35 34 -55 91.5 q-20 57.5 -20 143.5 l0 444 l60 0 l0 -441 q0 -95 26 -149 q26 -54 69.5 -76 q43.5 -22 93.5 -22 q52 0 95.5 22 q43.5 22 70.5 76 q27 54 27 149 l0 441 l57 0 l0 -444 q0 -86 -20.5 -143.5 q-20.5 -57.5 -55.5 -91.5 q-35 -34 -80 -48.5 q-45 -14.5 -94 -14.5 ZM242 801 q-18 0 -29.5 11 q-11.5 11 -11.5 30 q0 19 11.5 30.5 q11.5 11.5 29.5 11.5 q18 0 30 -11.5 q12 -11.5 12 -30.5 q0 -19 -12 -30 q-12 -11 -30 -11 ZM347 911 l-29 21 l105 121 l39 -30 l-115 -112 ZM461 801 q-18 0 -29.5 11 q-11.5 11 -11.5 30 q0 19 11.5 30.5 q11.5 11.5 29.5 11.5 q18 0 30 -11.5 q12 -11.5 12 -30.5 q0 -19 -12 -30 q-12 -11 -30 -11 Z" /><glyph glyph-name="cid00236" unicode="&#x1d8;" d="M253 -13 q-83 0 -122 51 q-39 51 -39 154 l0 341 l58 0 l0 -334 q0 -82 27.5 -121 q27.5 -39 88.5 -39 q47 0 84 25 q37 25 82 79 l0 390 l58 0 l0 -533 l-49 0 l-5 88 l-3 0 q-39 -45 -81.5 -73 q-42.5 -28 -98.5 -28 ZM193 660 q-17 0 -29.5 12.5 q-12.5 12.5 -12.5 29.5 q0 17 12.5 29.5 q12.5 12.5 29.5 12.5 q18 0 30 -12.5 q12 -12.5 12 -29.5 q0 -17 -12 -29.5 q-12 -12.5 -30 -12.5 ZM278 776 l-28 22 l94 118 l38 -29 l-104 -111 ZM394 660 q-18 0 -30.5 12.5 q-12.5 12.5 -12.5 29.5 q0 17 12.5 29.5 q12.5 12.5 30.5 12.5 q17 0 29 -12.5 q12 -12.5 12 -29.5 q0 -17 -12 -29.5 q-12 -12.5 -29 -12.5 Z" /><glyph glyph-name="cid00237" unicode="&#x1d9;" d="M352 -13 q-49 0 -94 14.5 q-45 14.5 -80 48.5 q-35 34 -55 91.5 q-20 57.5 -20 143.5 l0 444 l60 0 l0 -441 q0 -95 26 -149 q26 -54 69.5 -76 q43.5 -22 93.5 -22 q52 0 95.5 22 q43.5 22 70.5 76 q27 54 27 149 l0 441 l57 0 l0 -444 q0 -86 -20.5 -143.5 q-20.5 -57.5 -55.5 -91.5 q-35 -34 -80 -48.5 q-45 -14.5 -94 -14.5 ZM326 921 l-115 104 l25 25 l113 -86 l5 0 l113 86 l25 -25 l-114 -104 l-52 0 ZM242 801 q-18 0 -29.5 11 q-11.5 11 -11.5 30 q0 19 11.5 30.5 q11.5 11.5 29.5 11.5 q18 0 30 -11.5 q12 -11.5 12 -30.5 q0 -19 -12 -30 q-12 -11 -30 -11 ZM461 801 q-18 0 -29.5 11 q-11.5 11 -11.5 30 q0 19 11.5 30.5 q11.5 11.5 29.5 11.5 q18 0 30 -11.5 q12 -11.5 12 -30.5 q0 -19 -12 -30 q-12 -11 -30 -11 Z" /><glyph glyph-name="cid00238" unicode="&#x1da;" d="M253 -13 q-83 0 -122 51 q-39 51 -39 154 l0 341 l58 0 l0 -334 q0 -82 27.5 -121 q27.5 -39 88.5 -39 q47 0 84 25 q37 25 82 79 l0 390 l58 0 l0 -533 l-49 0 l-5 88 l-3 0 q-39 -45 -81.5 -73 q-42.5 -28 -98.5 -28 ZM269 789 l-106 102 l25 23 l103 -85 l4 0 l104 85 l25 -23 l-106 -102 l-49 0 ZM193 660 q-17 0 -29.5 12.5 q-12.5 12.5 -12.5 29.5 q0 17 12.5 29.5 q12.5 12.5 29.5 12.5 q18 0 30 -12.5 q12 -12.5 12 -29.5 q0 -17 -12 -29.5 q-12 -12.5 -30 -12.5 ZM394 660 q-18 0 -30.5 12.5 q-12.5 12.5 -12.5 29.5 q0 17 12.5 29.5 q12.5 12.5 30.5 12.5 q17 0 29 -12.5 q12 -12.5 12 -29.5 q0 -17 -12 -29.5 q-12 -12.5 -29 -12.5 Z" /><glyph glyph-name="cid00239" unicode="&#x1db;" d="M352 -13 q-49 0 -94 14.5 q-45 14.5 -80 48.5 q-35 34 -55 91.5 q-20 57.5 -20 143.5 l0 444 l60 0 l0 -441 q0 -95 26 -149 q26 -54 69.5 -76 q43.5 -22 93.5 -22 q52 0 95.5 22 q43.5 22 70.5 76 q27 54 27 149 l0 441 l57 0 l0 -444 q0 -86 -20.5 -143.5 q-20.5 -57.5 -55.5 -91.5 q-35 -34 -80 -48.5 q-45 -14.5 -94 -14.5 ZM242 801 q-18 0 -29.5 11 q-11.5 11 -11.5 30 q0 19 11.5 30.5 q11.5 11.5 29.5 11.5 q18 0 30 -11.5 q12 -11.5 12 -30.5 q0 -19 -12 -30 q-12 -11 -30 -11 ZM357 911 l-116 112 l39 30 l105 -121 l-28 -21 ZM461 801 q-18 0 -29.5 11 q-11.5 11 -11.5 30 q0 19 11.5 30.5 q11.5 11.5 29.5 11.5 q18 0 30 -11.5 q12 -11.5 12 -30.5 q0 -19 -12 -30 q-12 -11 -30 -11 Z" /><glyph glyph-name="cid00240" unicode="&#x1dc;" d="M253 -13 q-83 0 -122 51 q-39 51 -39 154 l0 341 l58 0 l0 -334 q0 -82 27.5 -121 q27.5 -39 88.5 -39 q47 0 84 25 q37 25 82 79 l0 390 l58 0 l0 -533 l-49 0 l-5 88 l-3 0 q-39 -45 -81.5 -73 q-42.5 -28 -98.5 -28 ZM193 660 q-17 0 -29.5 12.5 q-12.5 12.5 -12.5 29.5 q0 17 12.5 29.5 q12.5 12.5 29.5 12.5 q18 0 30 -12.5 q12 -12.5 12 -29.5 q0 -17 -12 -29.5 q-12 -12.5 -30 -12.5 ZM308 776 l-103 111 l37 29 l94 -118 l-28 -22 ZM394 660 q-18 0 -30.5 12.5 q-12.5 12.5 -12.5 29.5 q0 17 12.5 29.5 q12.5 12.5 30.5 12.5 q17 0 29 -12.5 q12 -12.5 12 -29.5 q0 -17 -12 -29.5 q-12 -12.5 -29 -12.5 Z" /><glyph glyph-name="cid00241" unicode="&#x1f8;" d="M106 0 l0 729 l62 0 l298 -501 l81 -147 l5 0 q-3 54 -5.5 108.5 q-2.5 54.5 -2.5 107.5 l0 432 l57 0 l0 -729 l-62 0 l-297 502 l-82 146 l-5 0 q2 -52 5 -104 q3 -52 3 -107 l0 -437 l-57 0 ZM389 780 l-151 125 l36 43 l142 -138 l-27 -30 Z" /><glyph glyph-name="cid00242" unicode="&#x1f9;" d="M100 0 l0 533 l48 0 l7 -81 l2 0 q41 40 84 67.5 q43 27.5 98 27.5 q83 0 122.5 -51.5 q39.5 -51.5 39.5 -154.5 l0 -341 l-58 0 l0 333 q0 83 -27.5 122.5 q-27.5 39.5 -89.5 39.5 q-46 0 -83.5 -24 q-37.5 -24 -84.5 -72 l0 -399 l-58 0 ZM345 635 l-161 168 l42 38 l151 -176 l-32 -30 Z" /><glyph glyph-name="cid00243" unicode="&#x251;" d="M277 -13 q-100 0 -160.5 72.5 q-60.5 72.5 -60.5 206.5 q0 86 33 149 q33 63 87 97.5 q54 34.5 117 34.5 q47 0 83 -17 q36 -17 73 -48 l2 0 l5 51 l49 0 l0 -460 q0 -19 6.5 -27.5 q6.5 -8.5 16.5 -8.5 q4 0 8 0.5 q4 0.5 11 1.5 l10 -46 q-8 -2 -16.5 -4 q-8.5 -2 -21.5 -2 q-30 0 -47.5 17.5 q-17.5 17.5 -20.5 63.5 l-2 0 q-32 -32 -75.5 -56.5 q-43.5 -24.5 -96.5 -24.5 ZM287 38 q43 0 81.5 21.5 q38.5 21.5 78.5 62.5 l0 308 q-40 36 -75.5 51 q-35.5 15 -73.5 15 q-51 0 -91.5 -30 q-40.5 -30 -64.5 -82 q-24 -52 -24 -118 q0 -103 44 -165.5 q44 -62.5 125 -62.5 Z" /><glyph glyph-name="cid00244" unicode="&#x261;" d="M286 -252 q-53 0 -100.5 15.5 q-47.5 15.5 -88.5 42.5 l25 43 q40 -28 81.5 -40.5 q41.5 -12.5 82.5 -12.5 q80 0 120 45.5 q40 45.5 41 123.5 l1 117 q-32 -32 -75.5 -56.5 q-43.5 -24.5 -95.5 -24.5 q-100 0 -160.5 71 q-60.5 71 -60.5 201 q0 85 33 146 q33 61 87 94.5 q54 33.5 117 33.5 q47 0 83 -17 q36 -17 71 -46 l2 0 l7 49 l49 0 l0 -573 q0 -97 -57 -154.5 q-57 -57.5 -162 -57.5 ZM287 52 q43 0 81.5 21.5 q38.5 21.5 78.5 62.5 l0 294 q-40 36 -75.5 51 q-35.5 15 -73.5 15 q-51 0 -92 -29 q-41 -29 -65 -79.5 q-24 -50.5 -24 -114.5 q0 -100 44.5 -160.5 q44.5 -60.5 125.5 -60.5 Z" /><glyph glyph-name="caron" unicode="&#x2c7;" d="M475 817 l57 0 l-233 -375 l-234 375 l54 0 l181 -291 l175 291 Z" /><glyph glyph-name="cid00246" unicode="&#x2c9;" d="M310 701 l379 0 l0 -37 l-379 0 l0 37 Z" /><glyph glyph-name="cid00247" unicode="&#x2ca;" d="M448 850 l24 -29 l-309 -301 l-35 42 l320 288 Z" /><glyph glyph-name="cid00248" unicode="&#x2cb;" d="M148 802 l339 -277 l-28 -29 l-344 265 l33 41 Z" /><glyph glyph-name="dotaccent" unicode="&#x2d9;" d="M250 296 q-40 0 -63.5 26.5 q-23.5 26.5 -24.5 59.5 q0 34 23.5 63 q23.5 29 64.5 29 q41 -1 64.5 -29 q23.5 -28 23.5 -63 q0 -34 -23.5 -60 q-23.5 -26 -64.5 -26 Z" /><glyph glyph-name="cid00250" unicode="&#x2ea;" d="M228 383 l246 0 l0 -49 l-297 0 l0 505 l51 0 l0 -456 Z" /><glyph glyph-name="cid00251" unicode="&#x2eb;" d="M474 630 l0 -48 l-246 0 l0 -248 l-51 0 l0 505 l51 0 l0 -209 l246 0 Z" /><glyph glyph-name="cid00252" unicode="&#x300;" d="M148 702 l339 -277 l-28 -29 l-344 265 l33 41 Z" /><glyph glyph-name="cid00253" unicode="&#x301;" d="M448 750 l24 -29 l-309 -301 l-35 42 l320 288 Z" /><glyph glyph-name="cid00254" unicode="&#x304;" d="M-139 670 l0 45 l278 0 l0 -45 l-278 0 Z" /><glyph glyph-name="cid00255" unicode="&#x307;" d="M300 665 q-40 0 -63.5 26 q-23.5 26 -24.5 60 q0 34 23.5 62.5 q23.5 28.5 64.5 28.5 q41 0 64.5 -28 q23.5 -28 23.5 -63 q0 -34 -23.5 -60 q-23.5 -26 -64.5 -26 Z" /><glyph glyph-name="cid00256" unicode="&#x30c;" d="M475 717 l57 0 l-233 -375 l-234 375 l54 0 l181 -291 l175 291 Z" /><glyph glyph-name="cid00257" unicode="&#x391;" d="M212 425 l-45 -132 l252 0 l-44 132 q-22 64 -41 124 q-19 60 -39 126 l-4 0 q-19 -66 -38 -126 q-19 -60 -41 -124 ZM8 0 l255 729 l62 0 l255 -729 l-64 0 l-81 245 l-284 0 l-83 -245 l-60 0 Z" /><glyph glyph-name="cid00258" unicode="&#x392;" d="M106 0 l0 729 l201 0 q110 0 176.5 -42.5 q66.5 -42.5 66.5 -134.5 q0 -56 -28.5 -99 q-28.5 -43 -82.5 -60 l0 -5 q70 -12 112.5 -56 q42.5 -44 42.5 -119 q0 -106 -74.5 -159.5 q-74.5 -53.5 -197.5 -53.5 l-216 0 ZM166 411 l122 0 q108 0 155 36 q47 36 47 98 q0 74 -49.5 104.5 q-49.5 30.5 -146.5 30.5 l-128 0 l0 -269 ZM166 50 l142 0 q106 0 166.5 39 q60.5 39 60.5 124 q0 77 -59 113.5 q-59 36.5 -168 36.5 l-142 0 l0 -313 Z" /><glyph glyph-name="cid00259" unicode="&#x393;" d="M106 0 l0 729 l402 0 l0 -51 l-342 0 l0 -678 l-60 0 Z" /><glyph glyph-name="cid00260" unicode="&#x394;" d="M31 0 l0 35 l249 694 l65 0 l249 -694 l0 -35 l-563 0 ZM96 52 l431 0 l-131 372 l-81 242 l-5 0 l-83 -242 l-131 -372 Z" /><glyph glyph-name="cid00261" unicode="&#x395;" d="M106 0 l0 729 l403 0 l0 -51 l-343 0 l0 -266 l289 0 l0 -51 l-289 0 l0 -309 l354 0 l0 -52 l-414 0 Z" /><glyph glyph-name="cid00262" unicode="&#x396;" d="M54 0 l0 35 l412 643 l-375 0 l0 51 l449 0 l0 -35 l-411 -642 l416 0 l0 -52 l-491 0 Z" /><glyph glyph-name="cid00263" unicode="&#x397;" d="M106 0 l0 729 l60 0 l0 -316 l379 0 l0 316 l60 0 l0 -729 l-60 0 l0 361 l-379 0 l0 -361 l-60 0 Z" /><glyph glyph-name="cid00264" unicode="&#x398;" d="M231 361 l0 52 l264 0 l0 -52 l-264 0 ZM362 -13 q-88 0 -156 46.5 q-68 46.5 -107 132 q-39 85.5 -39 201.5 q0 116 39 200 q39 84 107 129.5 q68 45.5 156 45.5 q89 0 157.5 -45.5 q68.5 -45.5 107 -129.5 q38.5 -84 38.5 -200 q0 -116 -38.5 -201.5 q-38.5 -85.5 -107 -132 q-68.5 -46.5 -157.5 -46.5 ZM362 41 q73 0 127 40 q54 40 84 113.5 q30 73.5 30 172.5 q0 99 -30 171 q-30 72 -84 111 q-54 39 -127 39 q-72 0 -125.5 -39 q-53.5 -39 -83.5 -111 q-30 -72 -30 -171 q0 -99 30 -172.5 q30 -73.5 83.5 -113.5 q53.5 -40 125.5 -40 Z" /><glyph glyph-name="cid00265" unicode="&#x399;" d="M106 0 l0 729 l60 0 l0 -729 l-60 0 Z" /><glyph glyph-name="cid00266" unicode="&#x39a;" d="M106 0 l0 729 l60 0 l0 -396 l2 0 l342 396 l71 0 l-232 -271 l265 -458 l-69 0 l-236 411 l-143 -165 l0 -246 l-60 0 Z" /><glyph glyph-name="cid00267" unicode="&#x39b;" d="M4 0 l236 729 l68 0 l238 -729 l-64 0 l-131 419 q-20 67 -36.5 122.5 q-16.5 55.5 -39.5 121.5 l-4 0 q-22 -66 -38.5 -121.5 q-16.5 -55.5 -36.5 -122.5 l-131 -419 l-61 0 Z" /><glyph glyph-name="cid00268" unicode="&#x39c;" d="M106 0 l0 729 l80 0 l150 -419 q14 -40 28.5 -80 q14.5 -40 28.5 -80 l4 0 q14 40 27.5 80 q13.5 40 26.5 80 l150 419 l80 0 l0 -729 l-57 0 l0 462 q0 45 2.5 100 q2.5 55 4.5 101 l-4 0 l-57 -163 l-153 -422 l-48 0 l-154 422 l-57 163 l-4 0 q2 -46 4.5 -101 q2.5 -55 2.5 -100 l0 -462 l-55 0 Z" /><glyph glyph-name="cid00269" unicode="&#x39d;" d="M106 0 l0 729 l62 0 l298 -501 l81 -147 l5 0 q-3 54 -5.5 108.5 q-2.5 54.5 -2.5 107.5 l0 432 l57 0 l0 -729 l-62 0 l-297 502 l-82 146 l-5 0 q2 -52 5 -104 q3 -52 3 -107 l0 -437 l-57 0 Z" /><glyph glyph-name="cid00270" unicode="&#x39e;" d="M53 0 l0 52 l466 0 l0 -52 l-466 0 ZM139 361 l0 51 l294 0 l0 -51 l-294 0 ZM64 678 l0 51 l444 0 l0 -51 l-444 0 Z" /><glyph glyph-name="cid00271" unicode="&#x39f;" d="M362 -13 q-88 0 -156 46.5 q-68 46.5 -107 132 q-39 85.5 -39 201.5 q0 116 39 200 q39 84 107 129.5 q68 45.5 156 45.5 q89 0 157.5 -45.5 q68.5 -45.5 107 -129.5 q38.5 -84 38.5 -200 q0 -116 -38.5 -201.5 q-38.5 -85.5 -107 -132 q-68.5 -46.5 -157.5 -46.5 ZM362 41 q73 0 127 40 q54 40 84 113.5 q30 73.5 30 172.5 q0 99 -30 171 q-30 72 -84 111 q-54 39 -127 39 q-72 0 -125.5 -39 q-53.5 -39 -83.5 -111 q-30 -72 -30 -171 q0 -99 30 -172.5 q30 -73.5 83.5 -113.5 q53.5 -40 125.5 -40 Z" /><glyph glyph-name="cid00272" unicode="&#x3a0;" d="M106 0 l0 729 l493 0 l0 -729 l-60 0 l0 678 l-373 0 l0 -678 l-60 0 Z" /><glyph glyph-name="cid00273" unicode="&#x3a1;" d="M106 0 l0 729 l189 0 q83 0 142.5 -20 q59.5 -20 91.5 -64.5 q32 -44.5 32 -120.5 q0 -109 -70 -162.5 q-70 -53.5 -192 -53.5 l-133 0 l0 -308 l-60 0 ZM166 358 l121 0 q108 0 160.5 39 q52.5 39 52.5 127 q0 89 -54 122 q-54 33 -163 33 l-117 0 l0 -321 Z" /><glyph glyph-name="cid00274" unicode="&#x3a3;" d="M51 0 l0 35 l263 336 l-257 323 l0 35 l457 0 l0 -51 l-380 0 l242 -306 l-246 -320 l418 0 l0 -52 l-497 0 Z" /><glyph glyph-name="cid00275" unicode="&#x3a4;" d="M261 0 l0 678 l-229 0 l0 51 l520 0 l0 -51 l-230 0 l0 -678 l-61 0 Z" /><glyph glyph-name="cid00276" unicode="&#x3a5;" d="M221 0 l0 293 l-219 436 l64 0 l107 -223 q20 -40 38 -78.5 q18 -38.5 38 -79.5 l4 0 q21 41 41 79.5 q20 38.5 37 78.5 l107 223 l62 0 l-219 -436 l0 -293 l-60 0 Z" /><glyph glyph-name="cid00277" unicode="&#x3a6;" d="M361 -24 l0 107 q-93 3 -162 38 q-69 35 -107.5 98 q-38.5 63 -38.5 148 q0 85 38.5 147 q38.5 62 107.5 96 q69 34 162 36 l0 108 l54 0 l0 -108 q94 -2 163 -36.5 q69 -34.5 107 -96 q38 -61.5 38 -146.5 q0 -85 -38 -148 q-38 -63 -107 -98 q-69 -35 -163 -38 l0 -107 l-54 0 ZM113 367 q0 -68 30.5 -120.5 q30.5 -52.5 86 -82.5 q55.5 -30 131.5 -32 l0 466 q-76 -2 -131.5 -31 q-55.5 -29 -86 -80 q-30.5 -51 -30.5 -120 ZM662 367 q0 103 -66 165.5 q-66 62.5 -181 65.5 l0 -466 q77 2 132 32 q55 30 85 82.5 q30 52.5 30 120.5 Z" /><glyph glyph-name="cid00278" unicode="&#x3a7;" d="M19 0 l217 377 l-203 352 l66 0 l115 -208 q15 -25 28 -48 q13 -23 31 -53 l4 0 q17 30 28.5 53 q11.5 23 25.5 48 l115 208 l62 0 l-203 -355 l218 -374 l-65 0 l-123 218 q-15 26 -31 54.5 q-16 28.5 -36 61.5 l-4 0 q-16 -33 -31.5 -61.5 q-15.5 -28.5 -29.5 -54.5 l-122 -218 l-62 0 Z" /><glyph glyph-name="cid00279" unicode="&#x3a8;" d="M344 0 l0 285 q-127 3 -198 67 q-71 64 -71 198 l0 179 l60 0 l0 -177 q0 -108 53 -161.5 q53 -53.5 156 -56.5 l0 395 l58 0 l0 -395 q104 2 157 55.5 q53 53.5 53 162.5 l0 177 l59 0 l0 -179 q0 -135 -70.5 -198.5 q-70.5 -63.5 -198.5 -66.5 l0 -285 l-58 0 Z" /><glyph glyph-name="cid00280" unicode="&#x3a9;" d="M51 0 l0 51 l155 0 l0 4 q-34 34 -66.5 80.5 q-32.5 46.5 -53.5 108.5 q-21 62 -21 142 q0 103 37 183 q37 80 105.5 126.5 q68.5 46.5 160.5 46.5 q92 0 160 -46.5 q68 -46.5 105 -126.5 q37 -80 37 -183 q0 -80 -20.5 -142 q-20.5 -62 -53 -108.5 q-32.5 -46.5 -67.5 -80.5 l0 -4 l156 0 l0 -51 l-242 0 l0 44 q44 32 81.5 79 q37.5 47 60.5 112 q23 65 23 150 q0 86 -28.5 154.5 q-28.5 68.5 -82 108.5 q-53.5 40 -129.5 40 q-76 0 -130 -40 q-54 -40 -82.5 -108.5 q-28.5 -68.5 -28.5 -154.5 q0 -85 23 -150 q23 -65 60.5 -112 q37.5 -47 81.5 -79 l0 -44 l-241 0 Z" /><glyph glyph-name="cid00281" unicode="&#x3b1;" d="M257 -13 q-88 0 -144.5 67.5 q-56.5 67.5 -56.5 199.5 q0 93 32.5 158.5 q32.5 65.5 86 100 q53.5 34.5 114.5 34.5 q35 0 69 -15 q34 -15 61.5 -49.5 q27.5 -34.5 41.5 -91.5 l2 0 l26 142 l58 0 q-15 -74 -30 -155 q-15 -81 -25.5 -155.5 q-10.5 -74.5 -10.5 -127.5 q0 -27 15.5 -42.5 q15.5 -15.5 37.5 -15.5 q10 0 20 2.5 q10 2.5 18 5.5 l10 -46 q-10 -4 -23.5 -8 q-13.5 -4 -33.5 -4 q-43 0 -70 29.5 q-27 29.5 -20 87.5 l-4 0 q-64 -117 -174 -117 ZM267 38 q40 0 77 26 q37 26 62 68.5 q25 42.5 29 93.5 l8 105 q-16 71 -42 106 q-26 35 -54.5 47 q-28.5 12 -54.5 12 q-45 0 -85 -28 q-40 -28 -65 -82 q-25 -54 -25 -132 q0 -100 39.5 -158 q39.5 -58 110.5 -58 Z" /><glyph glyph-name="cid00282" unicode="&#x3b2;" d="M96 -199 l0 756 q0 73 22.5 129.5 q22.5 56.5 68 89 q45.5 32.5 114.5 32.5 q49 0 91 -20.5 q42 -20.5 68.5 -62 q26.5 -41.5 26.5 -104.5 q0 -61 -30.5 -110 q-30.5 -49 -84.5 -82 l0 -5 q88 -10 136 -67.5 q48 -57.5 48 -145.5 q0 -69 -29 -119 q-29 -50 -76.5 -77.5 q-47.5 -27.5 -102.5 -27.5 q-52 0 -104 19.5 q-52 19.5 -93 66.5 q2 -70 2.5 -135.5 q0.5 -65.5 0.5 -136.5 l-58 0 ZM339 38 q44 0 79 21.5 q35 21.5 56 60.5 q21 39 21 93 q0 74 -42.5 123 q-42.5 49 -130.5 49 q-14 0 -29.5 -1.5 q-15.5 -1.5 -31.5 -5.5 l-10 48 q64 14 102.5 45 q38.5 31 56.5 70 q18 39 18 77 q0 71 -37.5 106 q-37.5 35 -87.5 35 q-68 0 -109 -54.5 q-41 -54.5 -41 -161.5 q-1 -103 -1 -206.5 q0 -103.5 0 -207.5 q43 -54 92 -72.5 q49 -18.5 95 -18.5 Z" /><glyph glyph-name="cid00283" unicode="&#x3b3;" d="M224 -199 q2 26 2.5 44.5 q0.5 18.5 0.5 37 q0 18.5 0 44.5 q0 74 -19 158 q-19 84 -50.5 167 q-31.5 83 -70 155 q-38.5 72 -77.5 122 l58 18 q28 -38 57.5 -92.5 q29.5 -54.5 56 -118 q26.5 -63.5 47 -131.5 q20.5 -68 30.5 -133 l5 0 q38 73 73 149.5 q35 76.5 59.5 154.5 q24.5 78 31.5 157 l59 0 q-13 -89 -39 -170 q-26 -81 -68 -168 q-42 -87 -107 -194 q5 -46 7.5 -99.5 q2.5 -53.5 2.5 -100.5 l-59 0 Z" /><glyph glyph-name="cid00284" unicode="&#x3b4;" d="M296 -13 q-57 0 -110.5 29 q-53.5 29 -87.5 83 q-34 54 -34 129 q0 68 29.5 121 q29.5 53 81 88.5 q51.5 35.5 115.5 52.5 q-43 30 -81 61 q-38 31 -61.5 66 q-23.5 35 -23.5 76 q0 46 39.5 80.5 q39.5 34.5 126.5 34.5 q47 0 101 -10 q54 -10 125 -34 l-16 -50 q-74 27 -124 36.5 q-50 9.5 -88 9.5 q-56 0 -81 -21 q-25 -21 -25 -47 q0 -33 22.5 -61.5 q22.5 -28.5 60 -56 q37.5 -27.5 81.5 -60.5 q45 -33 85.5 -71 q40.5 -38 66 -86.5 q25.5 -48.5 25.5 -115.5 q0 -76 -26.5 -133 q-26.5 -57 -77.5 -89 q-51 -32 -123 -32 ZM122 231 q0 -59 25 -102.5 q25 -43.5 65 -67.5 q40 -24 85 -24 q58 0 94.5 26.5 q36.5 26.5 54.5 72 q18 45.5 18 103.5 q0 51 -18 89.5 q-18 38.5 -47.5 70 q-29.5 31.5 -65.5 59.5 q-100 -22 -155.5 -82 q-55.5 -60 -55.5 -145 Z" /><glyph glyph-name="cid00285" unicode="&#x3b5;" d="M270 -13 q-97 0 -155.5 43.5 q-58.5 43.5 -58.5 114.5 q0 59 35 91.5 q35 32.5 79 43.5 l0 5 q-42 17 -64 49.5 q-22 32.5 -22 72.5 q0 47 26 78 q26 31 69.5 46.5 q43.5 15.5 95.5 15.5 q49 0 90.5 -16.5 q41.5 -16.5 77.5 -43.5 l-26 -41 q-34 25 -68 38 q-34 13 -73 13 q-55 0 -94 -23.5 q-39 -23.5 -39 -72.5 q0 -42 34 -70 q34 -28 110 -28 q15 0 29 0.5 q14 0.5 34 1.5 l0 -51 q-23 2 -41.5 2.5 q-18.5 0.5 -37.5 0.5 q-76 0 -115.5 -28.5 q-39.5 -28.5 -39.5 -79.5 q0 -52 43 -82.5 q43 -30.5 118 -30.5 q45 0 81.5 13.5 q36.5 13.5 76.5 47.5 l28 -42 q-47 -37 -90.5 -52.5 q-43.5 -15.5 -102.5 -15.5 Z" /><glyph glyph-name="cid00286" unicode="&#x3b6;" d="M384 -202 l-48 24 q32 38 43 57 q11 19 11 42 q0 17 -10 28.5 q-10 11.5 -38 21 q-28 9.5 -83 20.5 q-55 11 -101 37 q-46 26 -73.5 77.5 q-27.5 51.5 -27.5 138.5 q0 55 20 113 q20 58 53.5 115.5 q33.5 57.5 74.5 110 q41 52.5 84 95 q43 42.5 81 71.5 q-26 0 -62.5 0 q-36.5 0 -76 -0.5 q-39.5 -0.5 -77 -1 q-37.5 -0.5 -64.5 -2.5 l0 50 l347 0 l0 -50 l-4 0 q-40 -30 -84 -74 q-44 -44 -85 -96.5 q-41 -52.5 -74 -109 q-33 -56.5 -52.5 -112.5 q-19.5 -56 -19.5 -107 q0 -72 23 -114 q23 -42 62.5 -63 q39.5 -21 89.5 -30 q75 -14 113.5 -35.5 q38.5 -21.5 38.5 -72.5 q0 -23 -14.5 -57 q-14.5 -34 -46.5 -76 Z" /><glyph glyph-name="cid00287" unicode="&#x3b7;" d="M439 -199 q2 133 3 269.5 q1 136.5 1 262.5 q0 83 -23 122.5 q-23 39.5 -76 39.5 q-34 0 -63 -12.5 q-29 -12.5 -58 -42.5 q-29 -30 -65 -84 l0 -356 l-58 0 l0 395 q0 32 -0.5 65 q-0.5 33 -5.5 73 l54 0 l7 -120 l2 0 q44 71 91.5 102.5 q47.5 31.5 108.5 31.5 q74 0 107 -51.5 q33 -51.5 33 -154.5 l0 -540 l-58 0 Z" /><glyph glyph-name="cid00288" unicode="&#x3b8;" d="M282 -13 q-100 0 -155.5 98 q-55.5 98 -55.5 315 q0 197 55.5 302.5 q55.5 105.5 155.5 105.5 q100 0 155.5 -105.5 q55.5 -105.5 55.5 -302.5 q0 -217 -55.5 -315 q-55.5 -98 -155.5 -98 ZM282 758 q-64 0 -106.5 -82 q-42.5 -82 -45.5 -251 l304 0 q-3 169 -45 251 q-42 82 -107 82 ZM282 37 q44 0 77.5 33.5 q33.5 33.5 53.5 109 q20 75.5 21 200.5 l-304 0 q2 -125 21.5 -200.5 q19.5 -75.5 53.5 -109 q34 -33.5 77 -33.5 Z" /><glyph glyph-name="cid00289" unicode="&#x3b9;" d="M178 -13 q-78 0 -78 98 l0 448 l59 0 q-1 -115 -3 -230 q-2 -115 -2 -225 q0 -21 9.5 -31 q9.5 -10 24.5 -10 q14 0 32 7 l9 -46 q-9 -4 -21.5 -7.5 q-12.5 -3.5 -29.5 -3.5 Z" /><glyph glyph-name="cid00290" unicode="&#x3ba;" d="M100 0 l0 395 q0 32 -1 69 q-1 37 -9 69 l58 0 q5 -19 7.5 -52.5 q2.5 -33.5 2.5 -68.5 l0 -198 l4 0 q44 79 98.5 148.5 q54.5 69.5 113.5 118.5 q59 49 114 66 l6 -56 q-45 -17 -95.5 -57 q-50.5 -40 -102.5 -102 q27 -52 63.5 -111.5 q36.5 -59.5 79 -117 q42.5 -57.5 84.5 -103.5 l-63 -8 q-32 37 -68.5 87 q-36.5 50 -70.5 104.5 q-34 54.5 -60 104.5 q-17 -22 -33.5 -45.5 q-16.5 -23.5 -33.5 -49.5 q-22 -33 -30 -75.5 q-8 -42.5 -10 -91.5 l0 -26 l-54 0 Z" /><glyph glyph-name="cid00291" unicode="&#x3bb;" d="M80 -8 l-61 8 l233 550 l-8 26 q-28 89 -59 135 q-31 46 -82 46 q-20 0 -36 -5 q-16 -5 -28 -13 l-18 51 q16 8 37.5 13 q21.5 5 50.5 5 q49 0 82.5 -27 q33.5 -27 59.5 -79 q26 -52 50 -128 l208 -574 l-61 0 l-167 481 l-5 0 l-196 -489 Z" /><glyph glyph-name="cid00292" unicode="&#x3bc;" d="M100 -199 l0 732 l58 0 l0 -334 q0 -76 26.5 -118 q26.5 -42 86.5 -42 q27 0 53.5 8 q26.5 8 54 33.5 q27.5 25.5 57.5 77.5 l0 375 l58 0 q-1 -115 -2.5 -230 q-1.5 -115 -1.5 -225 q0 -21 10 -31 q10 -10 25 -10 q12 0 32 7 l9 -46 q-10 -4 -22 -7.5 q-12 -3.5 -29 -3.5 q-40 0 -57 26 q-17 26 -19 84 l-2 0 q-33 -56 -75 -82.5 q-42 -26.5 -89 -26.5 q-39 0 -69 12 q-30 12 -52 51 q1 -58 1 -97.5 q0 -39.5 1.5 -74 q1.5 -34.5 4.5 -78.5 l-59 0 Z" /><glyph glyph-name="cid00293" unicode="&#x3bd;" d="M219 0 q-21 98 -52 193 q-31 95 -70.5 181 q-39.5 86 -86.5 155 l58 18 q30 -46 58.5 -105.5 q28.5 -59.5 53.5 -125 q25 -65.5 44.5 -131 q19.5 -65.5 32.5 -125.5 l5 0 q36 73 68.5 153 q32.5 80 56 162 q23.5 82 30.5 158 l59 0 q-19 -138 -68.5 -266.5 q-49.5 -128.5 -127.5 -266.5 l-61 0 Z" /><glyph glyph-name="cid00294" unicode="&#x3be;" d="M393 -202 l-48 24 q32 38 43.5 57 q11.5 19 11.5 42 q0 17 -11 29 q-11 12 -39 21.5 q-28 9.5 -81 19.5 q-57 11 -105.5 34 q-48.5 23 -77.5 66.5 q-29 43.5 -29 114.5 q0 56 24 101 q24 45 63 76.5 q39 31.5 85 43.5 l0 4 q-49 21 -83.5 63 q-34.5 42 -34.5 103 q0 54 25.5 92.5 q25.5 38.5 68.5 59.5 q-33 0 -58 0 q-25 0 -49.5 -1 q-24.5 -1 -59.5 -3 l0 50 l409 0 l0 -50 l-125 0 q-38 0 -72.5 -17 q-34.5 -17 -56 -50.5 q-21.5 -33.5 -21.5 -81.5 q0 -45 25 -79 q25 -34 61 -53.5 q36 -19.5 70 -19.5 q20 0 33.5 1 q13.5 1 34.5 5 l0 -55 q-19 4 -35.5 4.5 q-16.5 0.5 -36.5 0.5 q-50 0 -97.5 -22 q-47.5 -22 -78 -64 q-30.5 -42 -30.5 -103 q0 -60 26 -94.5 q26 -34.5 68.5 -51.5 q42.5 -17 91.5 -26 q77 -14 113.5 -35.5 q36.5 -21.5 36.5 -72.5 q0 -23 -14.5 -57 q-14.5 -34 -46.5 -76 Z" /><glyph glyph-name="cid00295" unicode="&#x3bf;" d="M292 -13 q-66 0 -119.5 32.5 q-53.5 32.5 -85 95 q-31.5 62.5 -31.5 151.5 q0 90 31.5 153 q31.5 63 85 95.5 q53.5 32.5 119.5 32.5 q66 0 119.5 -32.5 q53.5 -32.5 84.5 -95.5 q31 -63 31 -153 q0 -89 -31 -151.5 q-31 -62.5 -84.5 -95 q-53.5 -32.5 -119.5 -32.5 ZM292 37 q81 0 127.5 62.5 q46.5 62.5 46.5 166.5 q0 104 -46.5 167 q-46.5 63 -127.5 63 q-82 0 -128.5 -63 q-46.5 -63 -46.5 -167 q0 -104 46.5 -166.5 q46.5 -62.5 128.5 -62.5 Z" /><glyph glyph-name="pi" unicode="&#x3c0;" d="M519 -13 q-51 0 -74 27 q-23 27 -23 84 q0 25 1 69 q1 44 2 99 q1 55 2 111 q1 56 2 105 l-221 0 q0 -120 -10.5 -245 q-10.5 -125 -21.5 -240 l-60 3 q17 116 27.5 240.5 q10.5 124.5 10.5 241.5 l-127 0 l0 46 l75 5 l494 0 l0 -51 l-111 0 q-3 -50 -4.5 -108 q-1.5 -58 -2 -113.5 q-0.5 -55.5 -1 -100 q-0.5 -44.5 -0.5 -68.5 q0 -55 51 -55 q11 0 44 6 l9 -46 q-13 -4 -27.5 -7 q-14.5 -3 -34.5 -3 Z" /><glyph glyph-name="cid00297" unicode="&#x3c1;" d="M95 -199 l0 480 q0 88 31 147 q31 59 82.5 89 q51.5 30 112.5 30 q110 0 165.5 -73.5 q55.5 -73.5 55.5 -198.5 q0 -91 -31.5 -155.5 q-31.5 -64.5 -81.5 -98.5 q-50 -34 -106 -34 q-47 0 -89.5 18.5 q-42.5 18.5 -83.5 64.5 q1 -51 1.5 -92.5 q0.5 -41.5 1.5 -83.5 q1 -42 1 -93 l-59 0 ZM318 38 q46 0 83 29.5 q37 29.5 59 83 q22 53.5 22 124.5 q0 64 -17 114 q-17 50 -52.5 78.5 q-35.5 28.5 -93.5 28.5 q-44 0 -82.5 -24 q-38.5 -24 -62 -73.5 q-23.5 -49.5 -23.5 -127.5 l0 -148 q44 -53 85.5 -69 q41.5 -16 81.5 -16 Z" /><glyph glyph-name="cid00298" unicode="&#x3c2;" d="M334 -197 l-49 24 q32 38 46.5 63 q14.5 25 14.5 50 q0 26 -16.5 45 q-16.5 19 -69.5 34 q-37 13 -73.5 31 q-36.5 18 -66 47 q-29.5 29 -47 73.5 q-17.5 44.5 -17.5 109.5 q0 86 31 145.5 q31 59.5 82.5 90.5 q51.5 31 112.5 31 q54 0 89 -20 q35 -20 62 -45 l-33 -40 q-25 23 -51.5 38.5 q-26.5 15.5 -64.5 15.5 q-48 0 -85.5 -27 q-37.5 -27 -59.5 -75.5 q-22 -48.5 -22 -113.5 q0 -71 24.5 -112.5 q24.5 -41.5 64 -63.5 q39.5 -22 82.5 -36 q62 -19 87.5 -43.5 q25.5 -24.5 25.5 -74.5 q0 -27 -17.5 -66 q-17.5 -39 -49.5 -81 Z" /><glyph glyph-name="cid00299" unicode="&#x3c3;" d="M289 -13 q-62 0 -115.5 32 q-53.5 32 -85.5 93 q-32 61 -32 149 q0 94 33.5 154 q33.5 60 87.5 89 q54 29 115 29 l286 0 l0 -52 q-46 3 -88.5 5 q-42.5 2 -88.5 2 l0 -4 q54 -30 84.5 -88 q30.5 -58 30.5 -140 q0 -86 -30.5 -146 q-30.5 -60 -82 -91.5 q-51.5 -31.5 -114.5 -31.5 ZM289 37 q49 0 87 27.5 q38 27.5 60 77.5 q22 50 22 117 q0 59 -19.5 110 q-19.5 51 -56.5 82.5 q-37 31.5 -91 31.5 q-73 0 -123.5 -55.5 q-50.5 -55.5 -50.5 -166.5 q0 -68 23 -118.5 q23 -50.5 62 -78 q39 -27.5 87 -27.5 Z" /><glyph glyph-name="cid00300" unicode="&#x3c4;" d="M308 -13 q-50 0 -70.5 27 q-20.5 27 -20.5 84 l0 386 l-188 0 l0 44 l74 5 l361 0 l0 -49 l-189 0 q-2 -100 -2.5 -198 q-0.5 -98 -0.5 -194 q0 -55 46 -55 q12 0 25 2.5 q13 2.5 24 6.5 l10 -47 q-12 -4 -30.5 -8 q-18.5 -4 -38.5 -4 Z" /><glyph glyph-name="cid00301" unicode="&#x3c5;" d="M270 -13 q-84 0 -137.5 47.5 q-53.5 47.5 -53.5 156.5 q0 51 2 102 q2 51 2 102 q0 32 -1 65 q-1 33 -7 73 l57 0 q6 -28 7 -57 q1 -29 1 -64 q0 -33 -1.5 -73 q-1.5 -40 -3.5 -79 q-2 -39 -2 -71 q0 -57 19.5 -90 q19.5 -33 51.5 -47.5 q32 -14.5 68 -14.5 q65 0 110 54 q45 54 45 169 q0 65 -9.5 131.5 q-9.5 66.5 -38.5 139.5 l57 16 q26 -72 38.5 -142.5 q12.5 -70.5 12.5 -144.5 q0 -90 -29 -150.5 q-29 -60.5 -78 -91.5 q-49 -31 -110 -31 Z" /><glyph glyph-name="cid00302" unicode="&#x3c6;" d="M334 -199 l0 188 q-54 2 -103.5 21 q-49.5 19 -89 54.5 q-39.5 35.5 -62.5 86.5 q-23 51 -23 117 q0 65 23 116 q23 51 62.5 86 q39.5 35 89 54 q49.5 19 103.5 20 l0 143 l56 0 l0 -143 q74 -1 137.5 -33.5 q63.5 -32.5 102 -93.5 q38.5 -61 38.5 -149 q0 -88 -39.5 -149.5 q-39.5 -61.5 -103 -94 q-63.5 -32.5 -135.5 -35.5 l0 -188 l-56 0 ZM117 268 q0 -70 30 -121.5 q30 -51.5 79.5 -80 q49.5 -28.5 107.5 -30.5 l0 461 q-58 -1 -107.5 -29.5 q-49.5 -28.5 -79.5 -79 q-30 -50.5 -30 -120.5 ZM608 268 q0 70 -28.5 121 q-28.5 51 -77.5 79 q-49 28 -112 29 l0 -461 q59 2 108.5 30.5 q49.5 28.5 79.5 80 q30 51.5 30 121.5 Z" /><glyph glyph-name="cid00303" unicode="&#x3c7;" d="M68 -212 l-57 13 l216 379 l-211 349 l58 18 l180 -313 l4 0 l157 299 l63 0 l-192 -352 l228 -375 l-56 -18 l-200 342 l-4 0 l-186 -342 Z" /><glyph glyph-name="cid00304" unicode="&#x3c8;" d="M335 -199 l0 186 q-125 2 -189 69 q-64 67 -64 183 l0 156 q0 32 -1 65 q-1 33 -6 73 l58 0 q4 -28 4.5 -57 q0.5 -29 0.5 -64 q0 -32 -0.5 -66.5 q-0.5 -34.5 -1 -63.5 q-0.5 -29 -0.5 -45 q0 -94 51.5 -147 q51.5 -53 147.5 -53 l0 650 l56 0 l0 -650 q101 3 157 66 q56 63 56 184 q0 43 -4.5 80.5 q-4.5 37.5 -14.5 76.5 q-10 39 -29 87 l57 16 q26 -71 38.5 -129.5 q12.5 -58.5 12.5 -130.5 q0 -142 -73.5 -219 q-73.5 -77 -199.5 -81 l0 -186 l-56 0 Z" /><glyph glyph-name="cid00305" unicode="&#x3c9;" d="M236 -13 q-47 0 -87 27.5 q-40 27.5 -63.5 84.5 q-23.5 57 -23.5 143 q0 94 30.5 167.5 q30.5 73.5 75.5 137.5 l51 -28 q-32 -44 -54.5 -86.5 q-22.5 -42.5 -34 -90.5 q-11.5 -48 -11.5 -110 q0 -95 35.5 -145 q35.5 -50 84.5 -50 q28 0 52.5 13.5 q24.5 13.5 40.5 46 q16 32.5 16 89.5 q0 32 -1 67.5 q-1 35.5 -5 76.5 l67 0 q-4 -41 -5 -76.5 q-1 -35.5 -1 -67.5 q0 -57 16 -89.5 q16 -32.5 41 -46 q25 -13.5 52 -13.5 q51 0 85 49.5 q34 49.5 34 155.5 q0 60 -10 105.5 q-10 45.5 -31 86.5 q-21 41 -53 87 l52 26 q31 -44 53.5 -89 q22.5 -45 35 -96.5 q12.5 -51.5 12.5 -117.5 q0 -132 -48 -194.5 q-48 -62.5 -123 -62.5 q-45 0 -83 23 q-38 23 -58 72 l-4 0 q-19 -49 -56.5 -72 q-37.5 -23 -81.5 -23 Z" /><glyph glyph-name="cid00306" unicode="&#x401;" d="M106 0 l0 729 l403 0 l0 -51 l-343 0 l0 -266 l289 0 l0 -51 l-289 0 l0 -309 l354 0 l0 -52 l-414 0 ZM211 801 q-18 0 -30.5 12 q-12.5 12 -12.5 31 q0 20 12.5 31.5 q12.5 11.5 30.5 11.5 q19 0 32 -11.5 q13 -11.5 13 -31.5 q0 -19 -13 -31 q-13 -12 -32 -12 ZM431 801 q-19 0 -31.5 12 q-12.5 12 -12.5 31 q0 20 12.5 31.5 q12.5 11.5 31.5 11.5 q18 0 30.5 -11.5 q12.5 -11.5 12.5 -31.5 q0 -19 -12.5 -31 q-12.5 -12 -30.5 -12 Z" /><glyph glyph-name="cid00307" unicode="&#x410;" d="M212 425 l-45 -132 l252 0 l-44 132 q-22 64 -41 124 q-19 60 -39 126 l-4 0 q-19 -66 -38 -126 q-19 -60 -41 -124 ZM8 0 l255 729 l62 0 l255 -729 l-64 0 l-81 245 l-284 0 l-83 -245 l-60 0 Z" /><glyph glyph-name="cid00308" unicode="&#x411;" d="M106 0 l0 729 l429 0 l0 -51 l-369 0 l0 -266 l157 0 q78 0 137 -20 q59 -20 91.5 -63 q32.5 -43 32.5 -113 q0 -108 -67 -162 q-67 -54 -190 -54 l-221 0 ZM166 50 l147 0 q106 0 159 39.5 q53 39.5 53 124.5 q0 79 -54.5 114.5 q-54.5 35.5 -161.5 35.5 l-143 0 l0 -314 Z" /><glyph glyph-name="cid00309" unicode="&#x412;" d="M106 0 l0 729 l201 0 q110 0 176.5 -42.5 q66.5 -42.5 66.5 -134.5 q0 -56 -28.5 -99 q-28.5 -43 -82.5 -60 l0 -5 q70 -12 112.5 -56 q42.5 -44 42.5 -119 q0 -106 -74.5 -159.5 q-74.5 -53.5 -197.5 -53.5 l-216 0 ZM166 411 l122 0 q108 0 155 36 q47 36 47 98 q0 74 -49.5 104.5 q-49.5 30.5 -146.5 30.5 l-128 0 l0 -269 ZM166 50 l142 0 q106 0 166.5 39 q60.5 39 60.5 124 q0 77 -59 113.5 q-59 36.5 -168 36.5 l-142 0 l0 -313 Z" /><glyph glyph-name="cid00310" unicode="&#x413;" d="M106 0 l0 729 l402 0 l0 -51 l-342 0 l0 -678 l-60 0 Z" /><glyph glyph-name="cid00311" unicode="&#x414;" d="M224 306 q-20 -108 -40 -167 q-20 -59 -43 -87 l377 0 l0 626 l-233 0 q-12 -70 -21 -128.5 q-9 -58.5 -18 -116.5 q-9 -58 -22 -127 ZM94 0 l0 -208 l-51 0 l-8 225 l0 35 l34 0 q14 6 30 30.5 q16 24.5 33.5 80 q17.5 55.5 36.5 155.5 q14 76 24.5 138.5 q10.5 62.5 21 126.5 q10.5 64 22.5 146 l341 0 l0 -677 l78 0 l0 -35 l-9 -225 l-51 0 l0 208 l-502 0 Z" /><glyph glyph-name="cid00312" unicode="&#x415;" d="M106 0 l0 729 l403 0 l0 -51 l-343 0 l0 -266 l289 0 l0 -51 l-289 0 l0 -309 l354 0 l0 -52 l-414 0 Z" /><glyph glyph-name="cid00313" unicode="&#x416;" d="M9 0 l228 388 l-85 191 q-20 47 -37.5 69 q-17.5 22 -32.5 28.5 q-15 6.5 -31 6.5 q-11 0 -24 -5 l-10 59 q13 5 31 5 q29 0 53.5 -10.5 q24.5 -10.5 48 -40 q23.5 -29.5 49.5 -86.5 l88 -193 l114 0 l0 317 l57 0 l0 -317 l115 0 l88 193 q26 57 49.5 86.5 q23.5 29.5 48 40 q24.5 10.5 53.5 10.5 q18 0 31 -5 l-11 -59 q-12 5 -23 5 q-16 0 -31.5 -6.5 q-15.5 -6.5 -32 -28.5 q-16.5 -22 -37.5 -69 l-86 -191 l228 -388 l-67 0 l-206 362 l-119 0 l0 -362 l-57 0 l0 362 l-118 0 l-206 -362 l-68 0 Z" /><glyph glyph-name="cid00314" unicode="&#x417;" d="M309 -13 q-82 0 -143.5 26 q-61.5 26 -114.5 82 l36 42 q52 -53 102 -74.5 q50 -21.5 120 -21.5 q52 0 95.5 19 q43.5 19 70 55.5 q26.5 36.5 26.5 88.5 q0 81 -60 120 q-60 39 -166 39 l-75 0 l0 48 l53 0 q110 0 159.5 37 q49.5 37 49.5 107 q0 65 -46 99 q-46 34 -115 34 q-53 0 -100.5 -20 q-47.5 -20 -80.5 -53 l-33 40 q35 38 91.5 62.5 q56.5 24.5 123.5 24.5 q62 0 111.5 -21.5 q49.5 -21.5 78.5 -62 q29 -40.5 29 -98.5 q0 -60 -30 -105 q-30 -45 -86 -62 l0 -5 q68 -12 112 -59 q44 -47 44 -125 q0 -68 -34.5 -116.5 q-34.5 -48.5 -91.5 -74.5 q-57 -26 -126 -26 Z" /><glyph glyph-name="cid00315" unicode="&#x418;" d="M106 0 l0 729 l59 0 l0 -432 q0 -53 -2.5 -107.5 q-2.5 -54.5 -4.5 -108.5 l4 0 l82 144 l304 504 l63 0 l0 -729 l-60 0 l0 437 q0 55 2.5 107 q2.5 52 5.5 104 l-5 0 l-82 -144 l-303 -504 l-63 0 Z" /><glyph glyph-name="cid00316" unicode="&#x419;" d="M106 0 l0 729 l59 0 l0 -432 q0 -53 -2.5 -107.5 q-2.5 -54.5 -4.5 -108.5 l4 0 l82 144 l304 504 l63 0 l0 -729 l-60 0 l0 437 q0 55 2.5 107 q2.5 52 5.5 104 l-5 0 l-82 -144 l-303 -504 l-63 0 ZM362 787 q-57 0 -89.5 21.5 q-32.5 21.5 -47 54 q-14.5 32.5 -17.5 66.5 l53 0 q2 -40 25 -72 q23 -32 76 -32 q55 0 77.5 32 q22.5 32 23.5 72 l54 0 q-2 -34 -17 -66.5 q-15 -32.5 -47.5 -54 q-32.5 -21.5 -90.5 -21.5 Z" /><glyph glyph-name="cid00317" unicode="&#x41a;" d="M106 0 l0 729 l60 0 l0 -317 l146 0 l106 193 q32 59 55 88 q23 29 45 39 q22 10 51 10 q16 0 31 -5 l-11 -56 q-7 2 -13 2 q-6 0 -11 0 q-15 0 -29 -6.5 q-14 -6.5 -30.5 -28.5 q-16.5 -22 -41.5 -69 l-105 -191 l257 -388 l-67 0 l-238 362 l-145 0 l0 -362 l-60 0 Z" /><glyph glyph-name="cid00318" unicode="&#x41b;" d="M57 -13 q-12 0 -25 2 q-13 2 -27 7 l15 57 q15 -7 31 -7 q20 0 37 14 q17 14 33.5 58 q16.5 44 33.5 133 q23 119 43.5 235 q20.5 116 42.5 243 l337 0 l0 -729 l-60 0 l0 678 l-229 0 q-20 -110 -38.5 -217.5 q-18.5 -107.5 -38.5 -215.5 q-15 -80 -30.5 -131 q-15.5 -51 -33.5 -78.5 q-18 -27.5 -40.5 -38 q-22.5 -10.5 -50.5 -10.5 Z" /><glyph glyph-name="cid00319" unicode="&#x41c;" d="M106 0 l0 729 l80 0 l150 -419 q14 -40 28.5 -80 q14.5 -40 28.5 -80 l4 0 q14 40 27.5 80 q13.5 40 26.5 80 l150 419 l80 0 l0 -729 l-57 0 l0 462 q0 45 2.5 100 q2.5 55 4.5 101 l-4 0 l-57 -163 l-153 -422 l-48 0 l-154 422 l-57 163 l-4 0 q2 -46 4.5 -101 q2.5 -55 2.5 -100 l0 -462 l-55 0 Z" /><glyph glyph-name="cid00320" unicode="&#x41d;" d="M106 0 l0 729 l60 0 l0 -316 l379 0 l0 316 l60 0 l0 -729 l-60 0 l0 361 l-379 0 l0 -361 l-60 0 Z" /><glyph glyph-name="cid00321" unicode="&#x41e;" d="M362 -13 q-88 0 -156 46.5 q-68 46.5 -107 132 q-39 85.5 -39 201.5 q0 116 39 200 q39 84 107 129.5 q68 45.5 156 45.5 q89 0 157.5 -45.5 q68.5 -45.5 107 -129.5 q38.5 -84 38.5 -200 q0 -116 -38.5 -201.5 q-38.5 -85.5 -107 -132 q-68.5 -46.5 -157.5 -46.5 ZM362 41 q73 0 127 40 q54 40 84 113.5 q30 73.5 30 172.5 q0 99 -30 171 q-30 72 -84 111 q-54 39 -127 39 q-72 0 -125.5 -39 q-53.5 -39 -83.5 -111 q-30 -72 -30 -171 q0 -99 30 -172.5 q30 -73.5 83.5 -113.5 q53.5 -40 125.5 -40 Z" /><glyph glyph-name="cid00322" unicode="&#x41f;" d="M106 0 l0 729 l493 0 l0 -729 l-60 0 l0 678 l-373 0 l0 -678 l-60 0 Z" /><glyph glyph-name="cid00323" unicode="&#x420;" d="M106 0 l0 729 l189 0 q83 0 142.5 -20 q59.5 -20 91.5 -64.5 q32 -44.5 32 -120.5 q0 -109 -70 -162.5 q-70 -53.5 -192 -53.5 l-133 0 l0 -308 l-60 0 ZM166 358 l121 0 q108 0 160.5 39 q52.5 39 52.5 127 q0 89 -54 122 q-54 33 -163 33 l-117 0 l0 -321 Z" /><glyph glyph-name="cid00324" unicode="&#x421;" d="M368 -13 q-90 0 -159.5 46 q-69.5 46 -109 130.5 q-39.5 84.5 -39.5 201.5 q0 117 40 201.5 q40 84.5 111 130 q71 45.5 163 45.5 q65 0 114 -26.5 q49 -26.5 78 -61.5 l-34 -39 q-29 33 -68.5 53 q-39.5 20 -89.5 20 q-77 0 -133.5 -39 q-56.5 -39 -87 -111 q-30.5 -72 -30.5 -171 q0 -99 30 -172.5 q30 -73.5 86 -113.5 q56 -40 132 -40 q56 0 99 22.5 q43 22.5 82 65.5 l34 -38 q-42 -49 -94.5 -76.5 q-52.5 -27.5 -123.5 -27.5 Z" /><glyph glyph-name="cid00325" unicode="&#x422;" d="M261 0 l0 678 l-229 0 l0 51 l520 0 l0 -51 l-230 0 l0 -678 l-61 0 Z" /><glyph glyph-name="cid00326" unicode="&#x423;" d="M139 -13 q-20 0 -34 2.5 q-14 2.5 -28 7.5 l15 56 q18 -8 42 -8 q41 0 64.5 17 q23.5 17 40.5 54 l17 46 l-248 567 l63 0 l159 -374 l53 -130 l4 0 l49 130 l147 374 l63 0 l-246 -611 q-25 -61 -62 -96 q-37 -35 -99 -35 Z" /><glyph glyph-name="cid00327" unicode="&#x424;" d="M370 -13 l0 108 q-151 2 -234 73.5 q-83 71.5 -83 198.5 q0 126 83 196 q83 70 234 72 l0 107 l54 0 l0 -107 q151 -2 234.5 -72 q83.5 -70 83.5 -196 q0 -127 -83.5 -198.5 q-83.5 -71.5 -234.5 -73.5 l0 -108 l-54 0 ZM112 367 q0 -102 66 -162 q66 -60 192 -62 l0 443 q-126 -1 -192 -59.5 q-66 -58.5 -66 -159.5 ZM682 367 q0 103 -66.5 161 q-66.5 58 -191.5 58 l0 -443 q126 2 192 62 q66 60 66 162 Z" /><glyph glyph-name="cid00328" unicode="&#x425;" d="M19 0 l217 377 l-203 352 l66 0 l115 -208 q15 -25 28 -48 q13 -23 31 -53 l4 0 q17 30 28.5 53 q11.5 23 25.5 48 l115 208 l62 0 l-203 -355 l218 -374 l-65 0 l-123 218 q-15 26 -31 54.5 q-16 28.5 -36 61.5 l-4 0 q-16 -33 -31.5 -61.5 q-15.5 -28.5 -29.5 -54.5 l-122 -218 l-62 0 Z" /><glyph glyph-name="cid00329" unicode="&#x426;" d="M603 -208 l0 208 l-497 0 l0 729 l60 0 l0 -677 l358 0 l0 677 l61 0 l0 -677 l77 0 l0 -35 l-7 -225 l-52 0 Z" /><glyph glyph-name="cid00330" unicode="&#x427;" d="M480 0 l0 341 q-27 -5 -62 -8.5 q-35 -3.5 -81 -3.5 q-80 0 -138.5 21.5 q-58.5 21.5 -90 70.5 q-31.5 49 -31.5 132 l0 176 l59 0 l0 -176 q0 -66 24.5 -103.5 q24.5 -37.5 71 -53 q46.5 -15.5 111.5 -15.5 q44 0 78 3.5 q34 3.5 59 8.5 l0 336 l60 0 l0 -729 l-60 0 Z" /><glyph glyph-name="cid00331" unicode="&#x428;" d="M106 0 l0 729 l59 0 l0 -677 l273 0 l0 677 l59 0 l0 -677 l273 0 l0 677 l59 0 l0 -729 l-723 0 Z" /><glyph glyph-name="cid00332" unicode="&#x429;" d="M106 0 l0 729 l59 0 l0 -677 l273 0 l0 677 l59 0 l0 -677 l273 0 l0 677 l59 0 l0 -677 l78 0 l0 -35 l-8 -225 l-52 0 l0 208 l-741 0 Z" /><glyph glyph-name="cid00333" unicode="&#x42a;" d="M275 0 l0 678 l-243 0 l0 51 l303 0 l0 -313 l139 0 q78 0 138 -21 q60 -21 94 -65 q34 -44 34 -113 q0 -109 -68.5 -163 q-68.5 -54 -190.5 -54 l-206 0 ZM335 50 l134 0 q105 0 158.5 40 q53.5 40 53.5 125 q0 77 -56.5 114 q-56.5 37 -163.5 37 l-126 0 l0 -316 Z" /><glyph glyph-name="cid00334" unicode="&#x42b;" d="M106 0 l0 729 l60 0 l0 -313 l131 0 q119 0 191 -47 q72 -47 72 -152 q0 -109 -68.5 -163 q-68.5 -54 -190.5 -54 l-195 0 ZM166 50 l122 0 q105 0 158.5 40 q53.5 40 53.5 125 q0 79 -54.5 115 q-54.5 36 -161.5 36 l-118 0 l0 -316 ZM690 0 l0 729 l60 0 l0 -729 l-60 0 Z" /><glyph glyph-name="cid00335" unicode="&#x42c;" d="M106 0 l0 729 l60 0 l0 -313 l152 0 q79 0 138 -20.5 q59 -20.5 91.5 -64.5 q32.5 -44 32.5 -114 q0 -109 -68.5 -163 q-68.5 -54 -190.5 -54 l-215 0 ZM166 50 l142 0 q105 0 158.5 40 q53.5 40 53.5 125 q0 79 -54 115 q-54 36 -161 36 l-139 0 l0 -316 Z" /><glyph glyph-name="cid00336" unicode="&#x42d;" d="M271 -13 q-76 0 -131.5 27.5 q-55.5 27.5 -99.5 76.5 l35 38 q41 -43 87.5 -65.5 q46.5 -22.5 105.5 -22.5 q109 0 173 82 q64 82 66 238 l-330 0 l0 51 l329 0 q-8 131 -69.5 203.5 q-61.5 72.5 -168.5 72.5 q-51 0 -96 -20 q-45 -20 -77 -53 l-35 39 q32 35 88 61.5 q56 26.5 122 26.5 q91 0 157.5 -43.5 q66.5 -43.5 103 -127.5 q36.5 -84 36.5 -206 q0 -120 -37.5 -204.5 q-37.5 -84.5 -104 -129 q-66.5 -44.5 -154.5 -44.5 Z" /><glyph glyph-name="cid00337" unicode="&#x42e;" d="M634 41 q70 0 120.5 40 q50.5 40 78.5 113.5 q28 73.5 28 172.5 q0 99 -28 171 q-28 72 -78.5 111 q-50.5 39 -120.5 39 q-69 0 -120 -39 q-51 -39 -79 -111 q-28 -72 -28 -171 q0 -99 28 -172.5 q28 -73.5 79 -113.5 q51 -40 120 -40 ZM634 -13 q-86 0 -150.5 46.5 q-64.5 46.5 -100.5 130.5 q-36 84 -36 197 l-181 0 l0 -361 l-60 0 l0 729 l60 0 l0 -316 l183 0 q7 102 44.5 176 q37.5 74 99 113.5 q61.5 39.5 141.5 39.5 q86 0 151 -45.5 q65 -45.5 102 -129.5 q37 -84 37 -200 q0 -116 -37 -201.5 q-37 -85.5 -102 -132 q-65 -46.5 -151 -46.5 Z" /><glyph glyph-name="cid00338" unicode="&#x42f;" d="M461 0 l0 329 l-158 0 l-204 -329 l-70 0 l212 334 q-77 14 -126.5 63 q-49.5 49 -49.5 137 q0 71 30.5 114 q30.5 43 85 62 q54.5 19 127.5 19 l213 0 l0 -729 l-60 0 ZM321 379 l140 0 l0 300 l-140 0 q-94 0 -144.5 -32.5 q-50.5 -32.5 -50.5 -112.5 q0 -79 50.5 -117 q50.5 -38 144.5 -38 Z" /><glyph glyph-name="cid00339" unicode="&#x430;" d="M218 -13 q-64 0 -109.5 36.5 q-45.5 36.5 -45.5 110.5 q0 89 82 135 q82 46 258 66 q1 40 -8.5 76.5 q-9.5 36.5 -36 60.5 q-26.5 24 -77.5 24 q-52 0 -96 -20 q-44 -20 -72 -41 l-26 42 q21 14 51.5 30.5 q30.5 16.5 69 28 q38.5 11.5 81.5 11.5 q64 0 101.5 -27.5 q37.5 -27.5 54 -75 q16.5 -47.5 16.5 -106.5 l0 -338 l-49 0 l-6 68 l-2 0 q-40 -33 -87.5 -57 q-47.5 -24 -98.5 -24 ZM230 36 q44 0 85 21 q41 21 88 62 l0 173 q-105 -12 -166.5 -32.5 q-61.5 -20.5 -88.5 -51 q-27 -30.5 -27 -71.5 q0 -55 32.5 -78 q32.5 -23 76.5 -23 Z" /><glyph glyph-name="cid00340" unicode="&#x431;" d="M121 311 q0 -127 47 -200.5 q47 -73.5 142 -73.5 q47 0 84.5 29 q37.5 29 59.5 81 q22 52 22 119 q0 59 -19 104.5 q-19 45.5 -56.5 72 q-37.5 26.5 -92.5 26.5 q-44 0 -91.5 -24 q-47.5 -24 -94.5 -86 q-1 -11 -1 -23 q0 -12 0 -25 ZM310 -13 q-116 0 -181 85.5 q-65 85.5 -65 245.5 q0 114 15 191.5 q15 77.5 43.5 126.5 q28.5 49 69 76.5 q40.5 27.5 92.5 42 q52 14.5 114 24.5 q29 5 45 8.5 q16 3.5 28.5 8.5 q12.5 5 28.5 13 l13 -56 q-22 -13 -46.5 -20 q-24.5 -7 -56.5 -12 q-67 -11 -118 -24.5 q-51 -13.5 -86 -42.5 q-35 -29 -55.5 -85.5 q-20.5 -56.5 -26.5 -152.5 q40 50 91 76 q51 26 104 26 q67 0 115.5 -31.5 q48.5 -31.5 75.5 -88 q27 -56.5 27 -132.5 q0 -86 -31.5 -148.5 q-31.5 -62.5 -83 -96.5 q-51.5 -34 -112.5 -34 Z" /><glyph glyph-name="cid00341" unicode="&#x432;" d="M100 0 l0 533 l195 0 q86 0 137 -31.5 q51 -31.5 51 -100.5 q0 -49 -25.5 -76.5 q-25.5 -27.5 -63.5 -39.5 l0 -4 q29 -6 54.5 -21.5 q25.5 -15.5 41.5 -41.5 q16 -26 16 -66 q0 -78 -56 -115 q-56 -37 -149 -37 l-201 0 ZM158 303 l118 0 q80 0 113.5 25 q33.5 25 33.5 68 q0 44 -32.5 68 q-32.5 24 -104.5 24 l-128 0 l0 -185 ZM158 46 l133 0 q156 0 156 109 q0 48 -42 75 q-42 27 -122 27 l-125 0 l0 -211 Z" /><glyph glyph-name="cid00342" unicode="&#x433;" d="M100 0 l0 533 l316 0 l0 -49 l-258 0 l0 -484 l-58 0 Z" /><glyph glyph-name="cid00343" unicode="&#x434;" d="M181 277 q-10 -97 -27 -149 q-17 -52 -37 -78 l284 0 l0 434 l-196 0 l-24 -207 ZM83 0 l0 -190 l-51 0 l-6 205 l0 35 l22 0 q16 8 30 28.5 q14 20.5 27 68.5 q13 48 24 139 l30 247 l301 0 l0 -483 l73 0 l0 -35 l-6 -205 l-50 0 l0 190 l-394 0 Z" /><glyph glyph-name="cid00344" unicode="&#x435;" d="M304 -13 q-69 0 -125 33.5 q-56 33.5 -89.5 96 q-33.5 62.5 -33.5 149.5 q0 87 33.5 150 q33.5 63 87 97 q53.5 34 113.5 34 q97 0 151.5 -65.5 q54.5 -65.5 54.5 -182.5 q0 -22 -3 -42 l-378 0 q2 -65 26.5 -115 q24.5 -50 68 -78 q43.5 -28 100.5 -28 q43 0 77.5 12.5 q34.5 12.5 64.5 33.5 l22 -43 q-32 -20 -72 -36 q-40 -16 -98 -16 ZM115 303 l328 0 q0 97 -41 145.5 q-41 48.5 -111 48.5 q-43 0 -81.5 -23 q-38.5 -23 -63.5 -66.5 q-25 -43.5 -31 -104.5 Z" /><glyph glyph-name="cid00345" unicode="&#x436;" d="M18 0 l167 281 l-49 125 q-20 53 -39.5 68 q-19.5 15 -41.5 15 q-5 0 -8 -0.5 q-3 -0.5 -8 -2.5 l-13 56 q12 5 27 5 q37 0 68 -23 q31 -23 59 -92 l49 -129 l101 0 l0 230 l53 0 l0 -230 l101 0 l50 129 q27 69 58.5 92 q31.5 23 67.5 23 q17 0 27 -5 l-12 -56 q-5 2 -8 2.5 q-3 0.5 -9 0.5 q-21 0 -41 -15 q-20 -15 -40 -68 l-49 -125 l168 -281 l-65 0 l-143 254 l-105 0 l0 -254 l-53 0 l0 254 l-104 0 l-145 -254 l-63 0 Z" /><glyph glyph-name="cid00346" unicode="&#x437;" d="M245 -13 q-56 0 -105.5 15.5 q-49.5 15.5 -94.5 53.5 l29 40 q38 -34 79.5 -47 q41.5 -13 87.5 -13 q41 0 74.5 13.5 q33.5 13.5 53.5 39 q20 25.5 20 60.5 q0 53 -42 80.5 q-42 27.5 -119 27.5 l-69 0 l0 46 l55 0 q76 0 114 26.5 q38 26.5 38 72.5 q0 49 -35.5 72 q-35.5 23 -89.5 23 q-51 0 -85.5 -13.5 q-34.5 -13.5 -67.5 -37.5 l-28 39 q35 27 79 44.5 q44 17.5 104 17.5 q49 0 90 -15.5 q41 -15.5 66 -46.5 q25 -31 25 -78 q0 -41 -24.5 -73 q-24.5 -32 -65.5 -49 l0 -5 q47 -11 81 -43.5 q34 -32.5 34 -91.5 q0 -47 -27.5 -83 q-27.5 -36 -74 -55.5 q-46.5 -19.5 -102.5 -19.5 Z" /><glyph glyph-name="cid00347" unicode="&#x438;" d="M100 0 l0 533 l57 0 l0 -257 q0 -43 -2 -95 q-2 -52 -4 -105 l4 0 q16 25 37.5 58 q21.5 33 37.5 58 l231 341 l55 0 l0 -533 l-57 0 l0 256 q0 44 2.5 96 q2.5 52 4.5 105 l-5 0 q-16 -25 -37.5 -58 q-21.5 -33 -37.5 -57 l-231 -342 l-55 0 Z" /><glyph glyph-name="cid00348" unicode="&#x439;" d="M100 0 l0 533 l57 0 l0 -257 q0 -43 -2 -95 q-2 -52 -4 -105 l4 0 q16 25 37.5 58 q21.5 33 37.5 58 l231 341 l55 0 l0 -533 l-57 0 l0 256 q0 44 2.5 96 q2.5 52 4.5 105 l-5 0 q-16 -25 -37.5 -58 q-21.5 -33 -37.5 -57 l-231 -342 l-55 0 ZM310 635 q-61 0 -96.5 25.5 q-35.5 25.5 -51 63.5 q-15.5 38 -18.5 75 l51 0 q1 -32 12 -60.5 q11 -28.5 36 -46.5 q25 -18 67 -18 q43 0 67.5 18 q24.5 18 35 46.5 q10.5 28.5 11.5 60.5 l51 0 q-2 -37 -17.5 -75 q-15.5 -38 -50.5 -63.5 q-35 -25.5 -97 -25.5 Z" /><glyph glyph-name="cid00349" unicode="&#x43a;" d="M100 0 l0 533 l58 0 l0 -230 l125 0 l56 129 q21 49 40.5 73.5 q19.5 24.5 40.5 33 q21 8.5 45 8.5 q17 0 27 -5 l-12 -56 q-5 2 -8 2.5 q-3 0.5 -9 0.5 q-21 0 -39.5 -14.5 q-18.5 -14.5 -41.5 -68.5 l-54 -125 l182 -281 l-64 0 l-160 254 l-128 0 l0 -254 l-58 0 Z" /><glyph glyph-name="cid00350" unicode="&#x43b;" d="M55 -13 q-24 0 -42 7 l13 55 q5 -1 10.5 -2.5 q5.5 -1.5 12.5 -1.5 q32 0 51.5 31 q19.5 31 26.5 98 q11 90 22 179.5 q11 89.5 21 179.5 l296 0 l0 -533 l-58 0 l0 484 l-192 0 q-9 -81 -18.5 -161.5 q-9.5 -80.5 -19.5 -161.5 q-21 -174 -123 -174 Z" /><glyph glyph-name="cid00351" unicode="&#x43c;" d="M100 0 l0 533 l67 0 l123 -281 q13 -34 26.5 -67.5 q13.5 -33.5 25.5 -67.5 l5 0 q14 34 28 67.5 q14 33.5 26 67.5 l120 281 l68 0 l0 -533 l-55 0 l0 288 q0 32 2.5 77 q2.5 45 4.5 85 l-4 0 q-12 -29 -24.5 -58 q-12.5 -29 -24.5 -57 l-120 -283 l-47 0 l-121 283 q-12 28 -24.5 57 q-12.5 29 -23.5 58 l-5 0 q2 -40 4.5 -85 q2.5 -45 2.5 -77 l0 -288 l-54 0 Z" /><glyph glyph-name="cid00352" unicode="&#x43d;" d="M100 0 l0 533 l58 0 l0 -227 l297 0 l0 227 l58 0 l0 -533 l-58 0 l0 253 l-297 0 l0 -253 l-58 0 Z" /><glyph glyph-name="cid00353" unicode="&#x43e;" d="M297 -13 q-64 0 -119 33 q-55 33 -88.5 95.5 q-33.5 62.5 -33.5 150.5 q0 89 33.5 152 q33.5 63 88.5 96 q55 33 119 33 q65 0 119.5 -33 q54.5 -33 88 -96 q33.5 -63 33.5 -152 q0 -88 -33.5 -150.5 q-33.5 -62.5 -88 -95.5 q-54.5 -33 -119.5 -33 ZM297 37 q52 0 93 29 q41 29 64.5 80.5 q23.5 51.5 23.5 119.5 q0 68 -23.5 120 q-23.5 52 -64.5 81 q-41 29 -93 29 q-52 0 -92.5 -29 q-40.5 -29 -64 -81 q-23.5 -52 -23.5 -120 q0 -68 23.5 -119.5 q23.5 -51.5 64 -80.5 q40.5 -29 92.5 -29 Z" /><glyph glyph-name="cid00354" unicode="&#x43f;" d="M100 0 l0 533 l402 0 l0 -533 l-58 0 l0 484 l-286 0 l0 -484 l-58 0 Z" /><glyph glyph-name="cid00355" unicode="&#x440;" d="M100 -238 l0 771 l48 0 l7 -65 l2 0 q39 30 84 54.5 q45 24.5 94 24.5 q107 0 160.5 -74.5 q53.5 -74.5 53.5 -197.5 q0 -91 -32.5 -155.5 q-32.5 -64.5 -86 -98.5 q-53.5 -34 -116.5 -34 q-37 0 -76.5 17 q-39.5 17 -80.5 48 l1 -98 l0 -192 l-58 0 ZM309 38 q52 0 92 29.5 q40 29.5 63 83 q23 53.5 23 124.5 q0 64 -16 114 q-16 50 -51.5 78.5 q-35.5 28.5 -95.5 28.5 q-38 0 -78.5 -22 q-40.5 -22 -87.5 -63 l0 -308 q43 -36 82.5 -50.5 q39.5 -14.5 68.5 -14.5 Z" /><glyph glyph-name="cid00356" unicode="&#x441;" d="M300 -13 q-69 0 -124.5 33 q-55.5 33 -87.5 95.5 q-32 62.5 -32 150.5 q0 89 34.5 152 q34.5 63 90.5 96 q56 33 122 33 q53 0 90.5 -20 q37.5 -20 65.5 -45 l-33 -40 q-25 23 -54.5 38.5 q-29.5 15.5 -67.5 15.5 q-53 0 -95.5 -29 q-42.5 -29 -67 -81 q-24.5 -52 -24.5 -120 q0 -68 23 -119.5 q23 -51.5 65 -80.5 q42 -29 98 -29 q41 0 76.5 17.5 q35.5 17.5 62.5 41.5 l29 -40 q-35 -30 -78 -49.5 q-43 -19.5 -93 -19.5 Z" /><glyph glyph-name="cid00357" unicode="&#x442;" d="M217 0 l0 484 l-188 0 l0 49 l435 0 l0 -49 l-188 0 l0 -484 l-59 0 Z" /><glyph glyph-name="cid00358" unicode="&#x443;" d="M85 -240 q-33 0 -57 11 l13 49 q8 -3 20 -5.5 q12 -2.5 23 -2.5 q48 0 81 38.5 q33 38.5 52 96.5 l14 45 l-218 541 l63 0 l124 -326 q13 -34 27.5 -74 q14.5 -40 28.5 -76 l5 0 q12 36 24.5 76 q12.5 40 23.5 74 l109 326 l59 0 l-208 -595 q-15 -46 -39.5 -86.5 q-24.5 -40.5 -60 -66 q-35.5 -25.5 -84.5 -25.5 Z" /><glyph glyph-name="cid00359" unicode="&#x444;" d="M366 -238 l0 188 l1 81 q-22 -19 -49.5 -31.5 q-27.5 -12.5 -60.5 -12.5 q-91 0 -146 72.5 q-55 72.5 -55 206.5 q0 86 27 149 q27 63 73 97.5 q46 34.5 101 34.5 q31 0 58 -12.5 q27 -12.5 52 -30.5 l-1 79 l0 212 l58 0 l0 -212 l-2 -81 q27 20 58 32.5 q31 12.5 61 12.5 q96 0 144 -74.5 q48 -74.5 48 -197.5 q0 -91 -27.5 -155.5 q-27.5 -64.5 -72.5 -98.5 q-45 -34 -100 -34 q-25 0 -53.5 11.5 q-28.5 11.5 -57.5 31.5 l2 -80 l0 -188 l-58 0 ZM266 38 q27 0 51 10 q24 10 50 35 l0 370 q-25 24 -51.5 33.5 q-26.5 9.5 -53.5 9.5 q-41 0 -74 -30 q-33 -30 -51.5 -82 q-18.5 -52 -18.5 -118 q0 -103 38.5 -165.5 q38.5 -62.5 109.5 -62.5 ZM528 38 q43 0 75.5 29.5 q32.5 29.5 51 83 q18.5 53.5 18.5 124.5 q0 64 -14.5 114 q-14.5 50 -46 78.5 q-31.5 28.5 -82.5 28.5 q-25 0 -52 -9 q-27 -9 -56 -35 l0 -371 q29 -25 57.5 -34 q28.5 -9 48.5 -9 Z" /><glyph glyph-name="cid00360" unicode="&#x445;" d="M15 0 l180 279 l-165 254 l64 0 l82 -131 q14 -22 28 -44 q14 -22 29 -44 l4 0 q14 22 27 44 q13 22 26 44 l79 131 l61 0 l-165 -260 l180 -273 l-65 0 l-91 141 q-13 25 -28.5 49.5 q-15.5 24.5 -32.5 47.5 l-5 0 q-15 -23 -29.5 -47.5 q-14.5 -24.5 -30.5 -49.5 l-86 -141 l-62 0 Z" /><glyph glyph-name="cid00361" unicode="&#x446;" d="M512 -190 l0 190 l-412 0 l0 533 l58 0 l0 -483 l278 0 l0 483 l58 0 l0 -483 l74 0 l0 -35 l-7 -205 l-49 0 Z" /><glyph glyph-name="cid00362" unicode="&#x447;" d="M391 0 l0 227 q-21 -4 -36.5 -6.5 q-15.5 -2.5 -32 -4 q-16.5 -1.5 -42.5 -1.5 q-103 0 -156 41 q-53 41 -53 135 l0 142 l58 0 l0 -142 q0 -68 39.5 -97 q39.5 -29 122.5 -29 q27 0 49.5 2.5 q22.5 2.5 50.5 9.5 l0 256 l58 0 l0 -533 l-58 0 Z" /><glyph glyph-name="cid00363" unicode="&#x448;" d="M100 0 l0 533 l58 0 l0 -483 l215 0 l0 483 l57 0 l0 -483 l215 0 l0 483 l58 0 l0 -533 l-603 0 Z" /><glyph glyph-name="cid00364" unicode="&#x449;" d="M100 0 l0 533 l58 0 l0 -483 l215 0 l0 483 l57 0 l0 -483 l215 0 l0 483 l58 0 l0 -483 l74 0 l0 -35 l-6 -205 l-51 0 l0 190 l-620 0 Z" /><glyph glyph-name="cid00365" unicode="&#x44a;" d="M231 0 l0 484 l-202 0 l0 49 l260 0 l0 -209 l104 0 q95 0 150 -39.5 q55 -39.5 55 -121.5 q0 -82 -55 -122.5 q-55 -40.5 -150 -40.5 l-162 0 ZM289 49 l94 0 q79 0 117.5 27.5 q38.5 27.5 38.5 86.5 q0 59 -38.5 86 q-38.5 27 -117.5 27 l-94 0 l0 -227 Z" /><glyph glyph-name="cid00366" unicode="&#x44b;" d="M100 0 l0 533 l58 0 l0 -209 l92 0 q94 0 149 -39.5 q55 -39.5 55 -121.5 q0 -82 -55 -122.5 q-55 -40.5 -149 -40.5 l-150 0 ZM158 49 l81 0 q80 0 118.5 27.5 q38.5 27.5 38.5 86.5 q0 59 -38.5 86 q-38.5 27 -118.5 27 l-81 0 l0 -227 ZM556 0 l0 533 l59 0 l0 -533 l-59 0 Z" /><glyph glyph-name="cid00367" unicode="&#x44c;" d="M100 0 l0 533 l58 0 l0 -209 l119 0 q95 0 149.5 -39.5 q54.5 -39.5 54.5 -121.5 q0 -82 -54.5 -122.5 q-54.5 -40.5 -149.5 -40.5 l-177 0 ZM158 49 l109 0 q79 0 117.5 27.5 q38.5 27.5 38.5 86.5 q0 59 -38.5 86 q-38.5 27 -117.5 27 l-109 0 l0 -227 Z" /><glyph glyph-name="cid00368" unicode="&#x44d;" d="M201 -13 q-54 0 -97.5 19.5 q-43.5 19.5 -75.5 49.5 l27 38 q27 -25 62.5 -41.5 q35.5 -16.5 79.5 -16.5 q85 0 135.5 56.5 q50.5 56.5 52.5 164.5 l-258 0 l0 46 l256 0 q-8 95 -57 144.5 q-49 49.5 -120 49.5 q-46 0 -77.5 -15.5 q-31.5 -15.5 -57.5 -38.5 l-31 38 q27 26 67 46 q40 20 102 20 q63 0 116 -30.5 q53 -30.5 85 -92.5 q32 -62 32 -158 q0 -93 -31.5 -155 q-31.5 -62 -85.5 -93 q-54 -31 -124 -31 Z" /><glyph glyph-name="cid00369" unicode="&#x44e;" d="M516 37 q50 0 87 29 q37 29 58 80.5 q21 51.5 21 119.5 q0 68 -21 120 q-21 52 -58 81 q-37 29 -87 29 q-50 0 -88.5 -29 q-38.5 -29 -60 -81 q-21.5 -52 -21.5 -120 q0 -68 21.5 -119.5 q21.5 -51.5 60 -80.5 q38.5 -29 88.5 -29 ZM518 -13 q-63 0 -113.5 31 q-50.5 31 -81 89.5 q-30.5 58.5 -34.5 141.5 l-131 0 l0 -249 l-58 0 l0 533 l58 0 l0 -231 l132 0 q7 78 38 133 q31 55 80.5 83.5 q49.5 28.5 109.5 28.5 q63 0 113.5 -33 q50.5 -33 80.5 -96 q30 -63 30 -152 q0 -88 -30 -150.5 q-30 -62.5 -80.5 -95.5 q-50.5 -33 -113.5 -33 Z" /><glyph glyph-name="cid00370" unicode="&#x44f;" d="M396 0 l0 228 l-116 0 l-1 0 l-168 -228 l-66 0 l174 234 q-58 11 -98 47.5 q-40 36.5 -40 102.5 q0 55 26.5 87.5 q26.5 32.5 72.5 47 q46 14.5 104 14.5 l170 0 l0 -533 l-58 0 ZM297 274 l99 0 l0 211 l-99 0 q-72 0 -114 -24 q-42 -24 -42 -78 q0 -54 42 -81.5 q42 -27.5 114 -27.5 Z" /><glyph glyph-name="cid00371" unicode="&#x451;" d="M304 -13 q-69 0 -125 33.5 q-56 33.5 -89.5 96 q-33.5 62.5 -33.5 149.5 q0 87 33.5 150 q33.5 63 87 97 q53.5 34 113.5 34 q97 0 151.5 -65.5 q54.5 -65.5 54.5 -182.5 q0 -22 -3 -42 l-378 0 q2 -65 26.5 -115 q24.5 -50 68 -78 q43.5 -28 100.5 -28 q43 0 77.5 12.5 q34.5 12.5 64.5 33.5 l22 -43 q-32 -20 -72 -36 q-40 -16 -98 -16 ZM115 303 l328 0 q0 97 -41 145.5 q-41 48.5 -111 48.5 q-43 0 -81.5 -23 q-38.5 -23 -63.5 -66.5 q-25 -43.5 -31 -104.5 ZM189 660 q-18 0 -31 12.5 q-13 12.5 -13 30.5 q0 19 13 32 q13 13 31 13 q19 0 32 -13 q13 -13 13 -32 q0 -18 -13 -30.5 q-13 -12.5 -32 -12.5 ZM390 660 q-19 0 -31.5 12.5 q-12.5 12.5 -12.5 30.5 q0 19 12.5 32 q12.5 13 31.5 13 q19 0 31.5 -13 q12.5 -13 12.5 -32 q0 -18 -12.5 -30.5 q-12.5 -12.5 -31.5 -12.5 Z" /><glyph glyph-name="cid00628" unicode="&#x1e3e;" d="M106 0 l0 729 l80 0 l150 -419 q14 -40 28.5 -80 q14.5 -40 28.5 -80 l4 0 q14 40 27.5 80 q13.5 40 26.5 80 l150 419 l80 0 l0 -729 l-57 0 l0 462 q0 45 2.5 100 q2.5 55 4.5 101 l-4 0 l-57 -163 l-153 -422 l-48 0 l-154 422 l-57 163 l-4 0 q2 -46 4.5 -101 q2.5 -55 2.5 -100 l0 -462 l-55 0 ZM371 780 l-27 30 l142 138 l36 -43 l-151 -125 Z" /><glyph glyph-name="cid00629" unicode="&#x1e3f;" d="M100 0 l0 533 l48 0 l7 -81 l2 0 q36 40 79.5 67.5 q43.5 27.5 88.5 27.5 q64 0 98.5 -29.5 q34.5 -29.5 48.5 -78.5 q45 49 89.5 78.5 q44.5 29.5 90.5 29.5 q160 0 160 -206 l0 -341 l-58 0 l0 333 q0 83 -28 122.5 q-28 39.5 -87 39.5 q-36 0 -73.5 -24 q-37.5 -24 -80.5 -72 l0 -399 l-58 0 l0 333 q0 83 -28 122.5 q-28 39.5 -87 39.5 q-70 0 -154 -96 l0 -399 l-58 0 ZM433 635 l-31 30 l150 176 l43 -38 l-162 -168 Z" /><glyph glyph-name="cid00630" unicode="&#x1ea0;" d="M212 425 l-45 -132 l252 0 l-44 132 q-22 64 -41 124 q-19 60 -39 126 l-4 0 q-19 -66 -38 -126 q-19 -60 -41 -124 ZM8 0 l255 729 l62 0 l255 -729 l-64 0 l-81 245 l-284 0 l-83 -245 l-60 0 ZM293 -218 q-20 0 -33 13 q-13 13 -13 36 q0 21 13 33.5 q13 12.5 33 12.5 q20 0 33.5 -12.5 q13.5 -12.5 13.5 -33.5 q0 -23 -13.5 -36 q-13.5 -13 -33.5 -13 Z" /><glyph glyph-name="cid00631" unicode="&#x1ea1;" d="M218 -13 q-64 0 -109.5 36.5 q-45.5 36.5 -45.5 110.5 q0 89 82 135 q82 46 258 66 q1 40 -8.5 76.5 q-9.5 36.5 -36 60.5 q-26.5 24 -77.5 24 q-52 0 -96 -20 q-44 -20 -72 -41 l-26 42 q21 14 51.5 30.5 q30.5 16.5 69 28 q38.5 11.5 81.5 11.5 q64 0 101.5 -27.5 q37.5 -27.5 54 -75 q16.5 -47.5 16.5 -106.5 l0 -338 l-49 0 l-6 68 l-2 0 q-40 -33 -87.5 -57 q-47.5 -24 -98.5 -24 ZM230 36 q44 0 85 21 q41 21 88 62 l0 173 q-105 -12 -166.5 -32.5 q-61.5 -20.5 -88.5 -51 q-27 -30.5 -27 -71.5 q0 -55 32.5 -78 q32.5 -23 76.5 -23 ZM271 -218 q-20 0 -33 13 q-13 13 -13 36 q0 21 13 33.5 q13 12.5 33 12.5 q20 0 33 -12.5 q13 -12.5 13 -33.5 q0 -23 -13 -36 q-13 -13 -33 -13 Z" /><glyph glyph-name="cid00632" unicode="&#x1ea2;" d="M212 425 l-45 -132 l252 0 l-44 132 q-22 64 -41 124 q-19 60 -39 126 l-4 0 q-19 -66 -38 -126 q-19 -60 -41 -124 ZM8 0 l255 729 l62 0 l255 -729 l-64 0 l-81 245 l-284 0 l-83 -245 l-60 0 ZM264 777 l-9 32 q29 9 49 22 q20 13 20 36 q0 25 -24.5 38 q-24.5 13 -70.5 14 l6 39 q59 -1 98.5 -21 q39.5 -20 39.5 -63 q0 -29 -15.5 -48 q-15.5 -19 -40.5 -30.5 q-25 -11.5 -53 -18.5 Z" /><glyph glyph-name="cid00633" unicode="&#x1ea3;" d="M218 -13 q-64 0 -109.5 36.5 q-45.5 36.5 -45.5 110.5 q0 89 82 135 q82 46 258 66 q1 40 -8.5 76.5 q-9.5 36.5 -36 60.5 q-26.5 24 -77.5 24 q-52 0 -96 -20 q-44 -20 -72 -41 l-26 42 q21 14 51.5 30.5 q30.5 16.5 69 28 q38.5 11.5 81.5 11.5 q64 0 101.5 -27.5 q37.5 -27.5 54 -75 q16.5 -47.5 16.5 -106.5 l0 -338 l-49 0 l-6 68 l-2 0 q-40 -33 -87.5 -57 q-47.5 -24 -98.5 -24 ZM230 36 q44 0 85 21 q41 21 88 62 l0 173 q-105 -12 -166.5 -32.5 q-61.5 -20.5 -88.5 -51 q-27 -30.5 -27 -71.5 q0 -55 32.5 -78 q32.5 -23 76.5 -23 ZM263 637 l-10 33 q29 9 49 22.5 q20 13.5 20 37.5 q0 25 -24.5 38.5 q-24.5 13.5 -69.5 14.5 l3 42 q60 -1 100.5 -23 q40.5 -22 40.5 -67 q0 -29 -16 -48.5 q-16 -19.5 -40.5 -31 q-24.5 -11.5 -52.5 -18.5 Z" /><glyph glyph-name="cid00634" unicode="&#x1ea4;" d="M212 425 l-45 -132 l252 0 l-44 132 q-22 64 -41 124 q-19 60 -39 126 l-4 0 q-19 -66 -38 -126 q-19 -60 -41 -124 ZM412 847 l-26 26 l105 107 l33 -33 l-112 -100 ZM8 0 l255 729 l62 0 l255 -729 l-64 0 l-81 245 l-284 0 l-83 -245 l-60 0 ZM187 781 l-25 23 l105 95 l52 0 l105 -95 l-24 -23 l-105 76 l-4 0 l-104 -76 Z" /><glyph glyph-name="cid00635" unicode="&#x1ea5;" d="M218 -13 q-64 0 -109.5 36.5 q-45.5 36.5 -45.5 110.5 q0 89 82 135 q82 46 258 66 q1 40 -8.5 76.5 q-9.5 36.5 -36 60.5 q-26.5 24 -77.5 24 q-52 0 -96 -20 q-44 -20 -72 -41 l-26 42 q21 14 51.5 30.5 q30.5 16.5 69 28 q38.5 11.5 81.5 11.5 q64 0 101.5 -27.5 q37.5 -27.5 54 -75 q16.5 -47.5 16.5 -106.5 l0 -338 l-49 0 l-6 68 l-2 0 q-40 -33 -87.5 -57 q-47.5 -24 -98.5 -24 ZM230 36 q44 0 85 21 q41 21 88 62 l0 173 q-105 -12 -166.5 -32.5 q-61.5 -20.5 -88.5 -51 q-27 -30.5 -27 -71.5 q0 -55 32.5 -78 q32.5 -23 76.5 -23 ZM174 634 l-22 27 l115 102 l49 0 l115 -102 l-22 -27 l-115 83 l-4 0 l-116 -83 ZM418 705 l-28 23 l102 130 l38 -29 l-112 -124 Z" /><glyph glyph-name="cid00636" unicode="&#x1ea6;" d="M212 425 l-45 -132 l252 0 l-44 132 q-22 64 -41 124 q-19 60 -39 126 l-4 0 q-19 -66 -38 -126 q-19 -60 -41 -124 ZM175 847 l-94 104 l33 29 l86 -110 l-25 -23 ZM8 0 l255 729 l62 0 l255 -729 l-64 0 l-81 245 l-284 0 l-83 -245 l-60 0 ZM187 781 l-25 23 l105 95 l52 0 l105 -95 l-24 -23 l-105 76 l-4 0 l-104 -76 Z" /><glyph glyph-name="cid00637" unicode="&#x1ea7;" d="M218 -13 q-64 0 -109.5 36.5 q-45.5 36.5 -45.5 110.5 q0 89 82 135 q82 46 258 66 q1 40 -8.5 76.5 q-9.5 36.5 -36 60.5 q-26.5 24 -77.5 24 q-52 0 -96 -20 q-44 -20 -72 -41 l-26 42 q21 14 51.5 30.5 q30.5 16.5 69 28 q38.5 11.5 81.5 11.5 q64 0 101.5 -27.5 q37.5 -27.5 54 -75 q16.5 -47.5 16.5 -106.5 l0 -338 l-49 0 l-6 68 l-2 0 q-40 -33 -87.5 -57 q-47.5 -24 -98.5 -24 ZM230 36 q44 0 85 21 q41 21 88 62 l0 173 q-105 -12 -166.5 -32.5 q-61.5 -20.5 -88.5 -51 q-27 -30.5 -27 -71.5 q0 -55 32.5 -78 q32.5 -23 76.5 -23 ZM174 634 l-22 27 l115 102 l49 0 l115 -102 l-22 -27 l-115 83 l-4 0 l-116 -83 ZM165 705 l-130 120 l38 33 l120 -125 l-28 -28 Z" /><glyph glyph-name="cid00638" unicode="&#x1ea8;" d="M212 425 l-45 -132 l252 0 l-44 132 q-22 64 -41 124 q-19 60 -39 126 l-4 0 q-19 -66 -38 -126 q-19 -60 -41 -124 ZM410 838 l-12 31 q23 6 39 16.5 q16 10.5 16 29.5 q0 24 -19.5 34.5 q-19.5 10.5 -60.5 11.5 l6 36 q53 -2 87 -19.5 q34 -17.5 34 -56.5 q0 -26 -13.5 -42.5 q-13.5 -16.5 -34 -26 q-20.5 -9.5 -42.5 -14.5 ZM8 0 l255 729 l62 0 l255 -729 l-64 0 l-81 245 l-284 0 l-83 -245 l-60 0 ZM187 781 l-25 23 l105 95 l52 0 l105 -95 l-24 -23 l-105 76 l-4 0 l-104 -76 Z" /><glyph glyph-name="cid00639" unicode="&#x1ea9;" d="M218 -13 q-64 0 -109.5 36.5 q-45.5 36.5 -45.5 110.5 q0 89 82 135 q82 46 258 66 q1 40 -8.5 76.5 q-9.5 36.5 -36 60.5 q-26.5 24 -77.5 24 q-52 0 -96 -20 q-44 -20 -72 -41 l-26 42 q21 14 51.5 30.5 q30.5 16.5 69 28 q38.5 11.5 81.5 11.5 q64 0 101.5 -27.5 q37.5 -27.5 54 -75 q16.5 -47.5 16.5 -106.5 l0 -338 l-49 0 l-6 68 l-2 0 q-40 -33 -87.5 -57 q-47.5 -24 -98.5 -24 ZM230 36 q44 0 85 21 q41 21 88 62 l0 173 q-105 -12 -166.5 -32.5 q-61.5 -20.5 -88.5 -51 q-27 -30.5 -27 -71.5 q0 -55 32.5 -78 q32.5 -23 76.5 -23 ZM174 634 l-22 27 l115 102 l49 0 l115 -102 l-22 -27 l-115 83 l-4 0 l-116 -83 ZM409 699 l-10 31 q23 7 38 18.5 q15 11.5 15 30.5 q0 24 -18.5 35.5 q-18.5 11.5 -59.5 14.5 l4 34 q53 -1 87 -19.5 q34 -18.5 34 -58.5 q0 -26 -13.5 -43 q-13.5 -17 -34 -26.5 q-20.5 -9.5 -42.5 -16.5 Z" /><glyph glyph-name="cid00640" unicode="&#x1eaa;" d="M212 425 l-45 -132 l252 0 l-44 132 q-22 64 -41 124 q-19 60 -39 126 l-4 0 q-19 -66 -38 -126 q-19 -60 -41 -124 ZM8 0 l255 729 l62 0 l255 -729 l-64 0 l-81 245 l-284 0 l-83 -245 l-60 0 ZM187 781 l-25 23 l105 93 l52 0 l105 -93 l-24 -23 l-105 75 l-4 0 l-104 -75 ZM369 930 q-28 0 -48 8.5 q-20 8.5 -36 20 q-16 11.5 -31.5 20 q-15.5 8.5 -35.5 8.5 q-22 0 -31.5 -14.5 q-9.5 -14.5 -12.5 -39.5 l-37 3 q2 35 19 63.5 q17 28.5 62 28.5 q28 0 47.5 -8.5 q19.5 -8.5 35.5 -20 q16 -11.5 32 -20 q16 -8.5 35 -8.5 q22 0 31.5 14.5 q9.5 14.5 13.5 39.5 l36 -3 q-1 -22 -8.5 -43.5 q-7.5 -21.5 -24.5 -35 q-17 -13.5 -47 -13.5 Z" /><glyph glyph-name="cid00641" unicode="&#x1eab;" d="M218 -13 q-64 0 -109.5 36.5 q-45.5 36.5 -45.5 110.5 q0 89 82 135 q82 46 258 66 q1 40 -8.5 76.5 q-9.5 36.5 -36 60.5 q-26.5 24 -77.5 24 q-52 0 -96 -20 q-44 -20 -72 -41 l-26 42 q21 14 51.5 30.5 q30.5 16.5 69 28 q38.5 11.5 81.5 11.5 q64 0 101.5 -27.5 q37.5 -27.5 54 -75 q16.5 -47.5 16.5 -106.5 l0 -338 l-49 0 l-6 68 l-2 0 q-40 -33 -87.5 -57 q-47.5 -24 -98.5 -24 ZM230 36 q44 0 85 21 q41 21 88 62 l0 173 q-105 -12 -166.5 -32.5 q-61.5 -20.5 -88.5 -51 q-27 -30.5 -27 -71.5 q0 -55 32.5 -78 q32.5 -23 76.5 -23 ZM174 634 l-22 27 l115 100 l49 0 l115 -100 l-22 -27 l-115 82 l-4 0 l-116 -82 ZM367 784 q-33 0 -57.5 12 q-24.5 12 -46 23.5 q-21.5 11.5 -45.5 11.5 q-17 0 -25 -12.5 q-8 -12.5 -11 -37.5 l-37 3 q3 34 18.5 60.5 q15.5 26.5 52.5 26.5 q34 0 58 -11.5 q24 -11.5 45.5 -23.5 q21.5 -12 45.5 -12 q17 0 25 12.5 q8 12.5 11 37.5 l37 -3 q-3 -33 -18.5 -60 q-15.5 -27 -52.5 -27 Z" /><glyph glyph-name="cid00642" unicode="&#x1eac;" d="M212 425 l-45 -132 l252 0 l-44 132 q-22 64 -41 124 q-19 60 -39 126 l-4 0 q-19 -66 -38 -126 q-19 -60 -41 -124 ZM8 0 l255 729 l62 0 l255 -729 l-64 0 l-81 245 l-284 0 l-83 -245 l-60 0 ZM167 781 l-26 23 l123 125 l59 0 l123 -125 l-26 -23 l-125 107 l-4 0 l-124 -107 ZM293 -218 q-20 0 -33 13 q-13 13 -13 36 q0 21 13 33.5 q13 12.5 33 12.5 q20 0 33.5 -12.5 q13.5 -12.5 13.5 -33.5 q0 -23 -13.5 -36 q-13.5 -13 -33.5 -13 Z" /><glyph glyph-name="cid00643" unicode="&#x1ead;" d="M218 -13 q-64 0 -109.5 36.5 q-45.5 36.5 -45.5 110.5 q0 89 82 135 q82 46 258 66 q1 40 -8.5 76.5 q-9.5 36.5 -36 60.5 q-26.5 24 -77.5 24 q-52 0 -96 -20 q-44 -20 -72 -41 l-26 42 q21 14 51.5 30.5 q30.5 16.5 69 28 q38.5 11.5 81.5 11.5 q64 0 101.5 -27.5 q37.5 -27.5 54 -75 q16.5 -47.5 16.5 -106.5 l0 -338 l-49 0 l-6 68 l-2 0 q-40 -33 -87.5 -57 q-47.5 -24 -98.5 -24 ZM230 36 q44 0 85 21 q41 21 88 62 l0 173 q-105 -12 -166.5 -32.5 q-61.5 -20.5 -88.5 -51 q-27 -30.5 -27 -71.5 q0 -55 32.5 -78 q32.5 -23 76.5 -23 ZM135 658 l128 159 l57 0 l128 -159 l-28 -25 l-126 135 l-4 0 l-127 -135 l-28 25 ZM271 -218 q-20 0 -33 13 q-13 13 -13 36 q0 21 13 33.5 q13 12.5 33 12.5 q20 0 33 -12.5 q13 -12.5 13 -33.5 q0 -23 -13 -36 q-13 -13 -33 -13 Z" /><glyph glyph-name="cid00644" unicode="&#x1eae;" d="M212 425 l-45 -132 l252 0 l-44 132 q-22 64 -41 124 q-19 60 -39 126 l-4 0 q-19 -66 -38 -126 q-19 -60 -41 -124 ZM8 0 l255 729 l62 0 l255 -729 l-64 0 l-81 245 l-284 0 l-83 -245 l-60 0 ZM293 785 q-49 0 -81.5 20.5 q-32.5 20.5 -49.5 52.5 q-17 32 -21 65 l38 8 q6 -43 34 -74.5 q28 -31.5 80 -31.5 q53 0 80.5 31.5 q27.5 31.5 34.5 74.5 l38 -8 q-4 -33 -21 -65 q-17 -32 -49.5 -52.5 q-32.5 -20.5 -82.5 -20.5 ZM290 889 l-30 23 l105 118 l39 -29 l-114 -112 Z" /><glyph glyph-name="cid00645" unicode="&#x1eaf;" d="M218 -13 q-64 0 -109.5 36.5 q-45.5 36.5 -45.5 110.5 q0 89 82 135 q82 46 258 66 q1 40 -8.5 76.5 q-9.5 36.5 -36 60.5 q-26.5 24 -77.5 24 q-52 0 -96 -20 q-44 -20 -72 -41 l-26 42 q21 14 51.5 30.5 q30.5 16.5 69 28 q38.5 11.5 81.5 11.5 q64 0 101.5 -27.5 q37.5 -27.5 54 -75 q16.5 -47.5 16.5 -106.5 l0 -338 l-49 0 l-6 68 l-2 0 q-40 -33 -87.5 -57 q-47.5 -24 -98.5 -24 ZM230 36 q44 0 85 21 q41 21 88 62 l0 173 q-105 -12 -166.5 -32.5 q-61.5 -20.5 -88.5 -51 q-27 -30.5 -27 -71.5 q0 -55 32.5 -78 q32.5 -23 76.5 -23 ZM292 632 q-57 0 -92.5 25.5 q-35.5 25.5 -53 63.5 q-17.5 38 -21.5 75 l39 6 q5 -31 20 -60.5 q15 -29.5 42 -49 q27 -19.5 66 -19.5 q40 0 66.5 19.5 q26.5 19.5 41.5 49 q15 29.5 19 60.5 l39 -6 q-3 -37 -20.5 -75 q-17.5 -38 -53 -63.5 q-35.5 -25.5 -92.5 -25.5 ZM279 743 l-29 24 l93 128 l39 -31 l-103 -121 Z" /><glyph glyph-name="cid00646" unicode="&#x1eb0;" d="M212 425 l-45 -132 l252 0 l-44 132 q-22 64 -41 124 q-19 60 -39 126 l-4 0 q-19 -66 -38 -126 q-19 -60 -41 -124 ZM8 0 l255 729 l62 0 l255 -729 l-64 0 l-81 245 l-284 0 l-83 -245 l-60 0 ZM293 785 q-49 0 -81.5 20.5 q-32.5 20.5 -49.5 52.5 q-17 32 -21 65 l38 8 q6 -43 34 -74.5 q28 -31.5 80 -31.5 q53 0 80.5 31.5 q27.5 31.5 34.5 74.5 l38 -8 q-4 -33 -21 -65 q-17 -32 -49.5 -52.5 q-32.5 -20.5 -82.5 -20.5 ZM297 889 l-114 112 l39 29 l104 -118 l-29 -23 Z" /><glyph glyph-name="cid00647" unicode="&#x1eb1;" d="M218 -13 q-64 0 -109.5 36.5 q-45.5 36.5 -45.5 110.5 q0 89 82 135 q82 46 258 66 q1 40 -8.5 76.5 q-9.5 36.5 -36 60.5 q-26.5 24 -77.5 24 q-52 0 -96 -20 q-44 -20 -72 -41 l-26 42 q21 14 51.5 30.5 q30.5 16.5 69 28 q38.5 11.5 81.5 11.5 q64 0 101.5 -27.5 q37.5 -27.5 54 -75 q16.5 -47.5 16.5 -106.5 l0 -338 l-49 0 l-6 68 l-2 0 q-40 -33 -87.5 -57 q-47.5 -24 -98.5 -24 ZM230 36 q44 0 85 21 q41 21 88 62 l0 173 q-105 -12 -166.5 -32.5 q-61.5 -20.5 -88.5 -51 q-27 -30.5 -27 -71.5 q0 -55 32.5 -78 q32.5 -23 76.5 -23 ZM292 632 q-57 0 -92.5 25.5 q-35.5 25.5 -53 63.5 q-17.5 38 -21.5 75 l39 6 q5 -31 20 -60.5 q15 -29.5 42 -49 q27 -19.5 66 -19.5 q40 0 66.5 19.5 q26.5 19.5 41.5 49 q15 29.5 19 60.5 l39 -6 q-3 -37 -20.5 -75 q-17.5 -38 -53 -63.5 q-35.5 -25.5 -92.5 -25.5 ZM304 743 l-103 121 l39 31 l93 -128 l-29 -24 Z" /><glyph glyph-name="cid00648" unicode="&#x1eb2;" d="M212 425 l-45 -132 l252 0 l-44 132 q-22 64 -41 124 q-19 60 -39 126 l-4 0 q-19 -66 -38 -126 q-19 -60 -41 -124 ZM8 0 l255 729 l62 0 l255 -729 l-64 0 l-81 245 l-284 0 l-83 -245 l-60 0 ZM293 785 q-49 0 -81.5 20.5 q-32.5 20.5 -49.5 52.5 q-17 32 -21 65 l38 8 q6 -43 34 -74.5 q28 -31.5 80 -31.5 q53 0 80.5 31.5 q27.5 31.5 34.5 74.5 l38 -8 q-4 -33 -21 -65 q-17 -32 -49.5 -52.5 q-32.5 -20.5 -82.5 -20.5 ZM273 884 l-11 31 q23 6 39 16 q16 10 16 29 q0 25 -20 35.5 q-20 10.5 -60 11.5 l6 36 q53 -2 87 -19.5 q34 -17.5 34 -56.5 q0 -26 -13.5 -42.5 q-13.5 -16.5 -34.5 -26 q-21 -9.5 -43 -14.5 Z" /><glyph glyph-name="cid00649" unicode="&#x1eb3;" d="M218 -13 q-64 0 -109.5 36.5 q-45.5 36.5 -45.5 110.5 q0 89 82 135 q82 46 258 66 q1 40 -8.5 76.5 q-9.5 36.5 -36 60.5 q-26.5 24 -77.5 24 q-52 0 -96 -20 q-44 -20 -72 -41 l-26 42 q21 14 51.5 30.5 q30.5 16.5 69 28 q38.5 11.5 81.5 11.5 q64 0 101.5 -27.5 q37.5 -27.5 54 -75 q16.5 -47.5 16.5 -106.5 l0 -338 l-49 0 l-6 68 l-2 0 q-40 -33 -87.5 -57 q-47.5 -24 -98.5 -24 ZM230 36 q44 0 85 21 q41 21 88 62 l0 173 q-105 -12 -166.5 -32.5 q-61.5 -20.5 -88.5 -51 q-27 -30.5 -27 -71.5 q0 -55 32.5 -78 q32.5 -23 76.5 -23 ZM292 632 q-57 0 -92.5 25.5 q-35.5 25.5 -53 63.5 q-17.5 38 -21.5 75 l39 6 q5 -31 20 -60.5 q15 -29.5 42 -49 q27 -19.5 66 -19.5 q40 0 66.5 19.5 q26.5 19.5 41.5 49 q15 29.5 19 60.5 l39 -6 q-3 -37 -20.5 -75 q-17.5 -38 -53 -63.5 q-35.5 -25.5 -92.5 -25.5 ZM266 748 l-9 32 q27 6 44.5 18 q17.5 12 17.5 31 q0 47 -89 50 l4 41 q57 -3 94.5 -22.5 q37.5 -19.5 37.5 -61.5 q0 -27 -15 -45 q-15 -18 -38 -28 q-23 -10 -47 -15 Z" /><glyph glyph-name="cid00650" unicode="&#x1eb4;" d="M212 425 l-45 -132 l252 0 l-44 132 q-22 64 -41 124 q-19 60 -39 126 l-4 0 q-19 -66 -38 -126 q-19 -60 -41 -124 ZM8 0 l255 729 l62 0 l255 -729 l-64 0 l-81 245 l-284 0 l-83 -245 l-60 0 ZM293 786 q-49 0 -81.5 17.5 q-32.5 17.5 -49.5 44 q-17 26.5 -20 53.5 l38 7 q5 -33 32 -58 q27 -25 81 -25 q54 0 81 25 q27 25 33 58 l38 -7 q-3 -27 -20 -53.5 q-17 -26.5 -49.5 -44 q-32.5 -17.5 -82.5 -17.5 ZM369 932 q-28 0 -48 8.5 q-20 8.5 -36 20 q-16 11.5 -31.5 20 q-15.5 8.5 -35.5 8.5 q-22 0 -31.5 -14.5 q-9.5 -14.5 -12.5 -39.5 l-37 3 q2 23 9.5 44 q7.5 21 24.5 34.5 q17 13.5 47 13.5 q28 0 47.5 -8.5 q19.5 -8.5 35.5 -20 q16 -11.5 32 -20 q16 -8.5 35 -8.5 q22 0 31.5 14.5 q9.5 14.5 13.5 39.5 l36 -3 q-1 -34 -18 -63 q-17 -29 -62 -29 Z" /><glyph glyph-name="cid00651" unicode="&#x1eb5;" d="M218 -13 q-64 0 -109.5 36.5 q-45.5 36.5 -45.5 110.5 q0 89 82 135 q82 46 258 66 q1 40 -8.5 76.5 q-9.5 36.5 -36 60.5 q-26.5 24 -77.5 24 q-52 0 -96 -20 q-44 -20 -72 -41 l-26 42 q21 14 51.5 30.5 q30.5 16.5 69 28 q38.5 11.5 81.5 11.5 q64 0 101.5 -27.5 q37.5 -27.5 54 -75 q16.5 -47.5 16.5 -106.5 l0 -338 l-49 0 l-6 68 l-2 0 q-40 -33 -87.5 -57 q-47.5 -24 -98.5 -24 ZM230 36 q44 0 85 21 q41 21 88 62 l0 173 q-105 -12 -166.5 -32.5 q-61.5 -20.5 -88.5 -51 q-27 -30.5 -27 -71.5 q0 -55 32.5 -78 q32.5 -23 76.5 -23 ZM292 632 q-53 0 -86 18 q-33 18 -49 44.5 q-16 26.5 -20 52.5 l39 7 q5 -30 33 -56.5 q28 -26.5 83 -26.5 q55 0 83 26.5 q28 26.5 32 56.5 l39 -7 q-3 -26 -19.5 -52.5 q-16.5 -26.5 -49 -44.5 q-32.5 -18 -85.5 -18 ZM367 784 q-33 0 -57.5 11.5 q-24.5 11.5 -46 23 q-21.5 11.5 -45.5 11.5 q-17 0 -25 -12.5 q-8 -12.5 -11 -36.5 l-38 3 q2 34 18.5 60 q16.5 26 53.5 26 q34 0 58 -11.5 q24 -11.5 45.5 -23 q21.5 -11.5 45.5 -11.5 q17 0 25 12.5 q8 12.5 11 37.5 l38 -4 q-2 -32 -18 -59 q-16 -27 -54 -27 Z" /><glyph glyph-name="cid00652" unicode="&#x1eb6;" d="M212 425 l-45 -132 l252 0 l-44 132 q-22 64 -41 124 q-19 60 -39 126 l-4 0 q-19 -66 -38 -126 q-19 -60 -41 -124 ZM8 0 l255 729 l62 0 l255 -729 l-64 0 l-81 245 l-284 0 l-83 -245 l-60 0 ZM293 785 q-49 0 -81.5 20.5 q-32.5 20.5 -49.5 52.5 q-17 32 -21 65 l39 8 q7 -42 34 -73 q27 -31 79 -31 q53 0 80 31 q27 31 33 73 l40 -8 q-4 -33 -21 -65 q-17 -32 -49.5 -52.5 q-32.5 -20.5 -82.5 -20.5 ZM293 -218 q-20 0 -33 13 q-13 13 -13 36 q0 21 13 33.5 q13 12.5 33 12.5 q20 0 33.5 -12.5 q13.5 -12.5 13.5 -33.5 q0 -23 -13.5 -36 q-13.5 -13 -33.5 -13 Z" /><glyph glyph-name="cid00653" unicode="&#x1eb7;" d="M218 -13 q-64 0 -109.5 36.5 q-45.5 36.5 -45.5 110.5 q0 89 82 135 q82 46 258 66 q1 40 -8.5 76.5 q-9.5 36.5 -36 60.5 q-26.5 24 -77.5 24 q-52 0 -96 -20 q-44 -20 -72 -41 l-26 42 q21 14 51.5 30.5 q30.5 16.5 69 28 q38.5 11.5 81.5 11.5 q64 0 101.5 -27.5 q37.5 -27.5 54 -75 q16.5 -47.5 16.5 -106.5 l0 -338 l-49 0 l-6 68 l-2 0 q-40 -33 -87.5 -57 q-47.5 -24 -98.5 -24 ZM230 36 q44 0 85 21 q41 21 88 62 l0 173 q-105 -12 -166.5 -32.5 q-61.5 -20.5 -88.5 -51 q-27 -30.5 -27 -71.5 q0 -55 32.5 -78 q32.5 -23 76.5 -23 ZM292 632 q-57 0 -92.5 25.5 q-35.5 25.5 -53 63.5 q-17.5 38 -21.5 75 l41 6 q5 -30 19.5 -59.5 q14.5 -29.5 41 -48.5 q26.5 -19 65.5 -19 q39 0 65 19 q26 19 41 48.5 q15 29.5 19 59.5 l41 -6 q-3 -37 -20.5 -75 q-17.5 -38 -53 -63.5 q-35.5 -25.5 -92.5 -25.5 ZM271 -218 q-20 0 -33 13 q-13 13 -13 36 q0 21 13 33.5 q13 12.5 33 12.5 q20 0 33 -12.5 q13 -12.5 13 -33.5 q0 -23 -13 -36 q-13 -13 -33 -13 Z" /><glyph glyph-name="cid00654" unicode="&#x1eb8;" d="M106 0 l0 729 l403 0 l0 -51 l-343 0 l0 -266 l289 0 l0 -51 l-289 0 l0 -309 l354 0 l0 -52 l-414 0 ZM331 -218 q-20 0 -33 13 q-13 13 -13 36 q0 21 13 33.5 q13 12.5 33 12.5 q20 0 33 -12.5 q13 -12.5 13 -33.5 q0 -23 -13 -36 q-13 -13 -33 -13 Z" /><glyph glyph-name="cid00655" unicode="&#x1eb9;" d="M304 -13 q-69 0 -125 33.5 q-56 33.5 -89.5 96 q-33.5 62.5 -33.5 149.5 q0 87 33.5 150 q33.5 63 87 97 q53.5 34 113.5 34 q97 0 151.5 -65.5 q54.5 -65.5 54.5 -182.5 q0 -22 -3 -42 l-378 0 q2 -65 26.5 -115 q24.5 -50 68 -78 q43.5 -28 100.5 -28 q43 0 77.5 12.5 q34.5 12.5 64.5 33.5 l22 -43 q-32 -20 -72 -36 q-40 -16 -98 -16 ZM115 303 l328 0 q0 97 -41 145.5 q-41 48.5 -111 48.5 q-43 0 -81.5 -23 q-38.5 -23 -63.5 -66.5 q-25 -43.5 -31 -104.5 ZM290 -218 q-20 0 -33 13 q-13 13 -13 36 q0 21 13 33.5 q13 12.5 33 12.5 q20 0 33 -12.5 q13 -12.5 13 -33.5 q0 -23 -13 -36 q-13 -13 -33 -13 Z" /><glyph glyph-name="cid00656" unicode="&#x1eba;" d="M106 0 l0 729 l403 0 l0 -51 l-343 0 l0 -266 l289 0 l0 -51 l-289 0 l0 -309 l354 0 l0 -52 l-414 0 ZM292 777 l-9 32 q29 9 49 22 q20 13 20 36 q0 25 -24.5 38 q-24.5 13 -70.5 14 l6 39 q59 -1 98.5 -21 q39.5 -20 39.5 -63 q0 -29 -15.5 -48 q-15.5 -19 -40.5 -30.5 q-25 -11.5 -53 -18.5 Z" /><glyph glyph-name="cid00657" unicode="&#x1ebb;" d="M304 -13 q-69 0 -125 33.5 q-56 33.5 -89.5 96 q-33.5 62.5 -33.5 149.5 q0 87 33.5 150 q33.5 63 87 97 q53.5 34 113.5 34 q97 0 151.5 -65.5 q54.5 -65.5 54.5 -182.5 q0 -22 -3 -42 l-378 0 q2 -65 26.5 -115 q24.5 -50 68 -78 q43.5 -28 100.5 -28 q43 0 77.5 12.5 q34.5 12.5 64.5 33.5 l22 -43 q-32 -20 -72 -36 q-40 -16 -98 -16 ZM115 303 l328 0 q0 97 -41 145.5 q-41 48.5 -111 48.5 q-43 0 -81.5 -23 q-38.5 -23 -63.5 -66.5 q-25 -43.5 -31 -104.5 ZM261 637 l-10 33 q30 9 49.5 22.5 q19.5 13.5 19.5 37.5 q0 25 -24.5 38.5 q-24.5 13.5 -69.5 14.5 l3 42 q60 -1 100.5 -23 q40.5 -22 40.5 -67 q0 -29 -16 -48.5 q-16 -19.5 -40.5 -31 q-24.5 -11.5 -52.5 -18.5 Z" /><glyph glyph-name="cid00658" unicode="&#x1ebc;" d="M106 0 l0 729 l403 0 l0 -51 l-343 0 l0 -266 l289 0 l0 -51 l-289 0 l0 -309 l354 0 l0 -52 l-414 0 ZM406 793 q-32 0 -54.5 13 q-22.5 13 -40 30 q-17.5 17 -35 30 q-17.5 13 -39.5 13 q-23 0 -39.5 -22 q-16.5 -22 -20.5 -60 l-41 4 q2 53 28 89 q26 36 72 36 q32 0 54.5 -13 q22.5 -13 40 -30 q17.5 -17 35 -30 q17.5 -13 39.5 -13 q24 0 39.5 22 q15.5 22 20.5 60 l41 -3 q-1 -55 -27 -90.5 q-26 -35.5 -73 -35.5 Z" /><glyph glyph-name="cid00659" unicode="&#x1ebd;" d="M304 -13 q-69 0 -125 33.5 q-56 33.5 -89.5 96 q-33.5 62.5 -33.5 149.5 q0 87 33.5 150 q33.5 63 87 97 q53.5 34 113.5 34 q97 0 151.5 -65.5 q54.5 -65.5 54.5 -182.5 q0 -22 -3 -42 l-378 0 q2 -65 26.5 -115 q24.5 -50 68 -78 q43.5 -28 100.5 -28 q43 0 77.5 12.5 q34.5 12.5 64.5 33.5 l22 -43 q-32 -20 -72 -36 q-40 -16 -98 -16 ZM115 303 l328 0 q0 97 -41 145.5 q-41 48.5 -111 48.5 q-43 0 -81.5 -23 q-38.5 -23 -63.5 -66.5 q-25 -43.5 -31 -104.5 ZM373 641 q-31 0 -53 15.5 q-22 15.5 -39.5 36 q-17.5 20.5 -35 36 q-17.5 15.5 -39.5 15.5 q-28 0 -41.5 -28 q-13.5 -28 -15.5 -72 l-43 3 q2 37 12 69 q10 32 31.5 52.5 q21.5 20.5 57.5 20.5 q31 0 52.5 -15.5 q21.5 -15.5 39 -36 q17.5 -20.5 35.5 -36 q18 -15.5 40 -15.5 q29 0 42 29 q13 29 14 70 l43 -3 q-1 -35 -11 -67.5 q-10 -32.5 -31 -53 q-21 -20.5 -58 -20.5 Z" /><glyph glyph-name="cid00660" unicode="&#x1ebe;" d="M106 0 l0 729 l403 0 l0 -51 l-343 0 l0 -266 l289 0 l0 -51 l-289 0 l0 -309 l354 0 l0 -52 l-414 0 ZM215 781 l-25 23 l105 95 l52 0 l105 -95 l-24 -23 l-105 76 l-4 0 l-104 -76 ZM440 847 l-26 26 l105 107 l33 -33 l-112 -100 Z" /><glyph glyph-name="cid00661" unicode="&#x1ebf;" d="M304 -13 q-69 0 -125 33.5 q-56 33.5 -89.5 96 q-33.5 62.5 -33.5 149.5 q0 87 33.5 150 q33.5 63 87 97 q53.5 34 113.5 34 q97 0 151.5 -65.5 q54.5 -65.5 54.5 -182.5 q0 -22 -3 -42 l-378 0 q2 -65 26.5 -115 q24.5 -50 68 -78 q43.5 -28 100.5 -28 q43 0 77.5 12.5 q34.5 12.5 64.5 33.5 l22 -43 q-32 -20 -72 -36 q-40 -16 -98 -16 ZM115 303 l328 0 q0 97 -41 145.5 q-41 48.5 -111 48.5 q-43 0 -81.5 -23 q-38.5 -23 -63.5 -66.5 q-25 -43.5 -31 -104.5 ZM172 634 l-22 27 l115 102 l49 0 l115 -102 l-22 -27 l-115 83 l-4 0 l-116 -83 ZM417 705 l-28 23 l101 130 l38 -29 l-111 -124 Z" /><glyph glyph-name="cid00662" unicode="&#x1ec0;" d="M106 0 l0 729 l403 0 l0 -51 l-343 0 l0 -266 l289 0 l0 -51 l-289 0 l0 -309 l354 0 l0 -52 l-414 0 ZM215 781 l-25 23 l105 95 l52 0 l105 -95 l-24 -23 l-105 76 l-4 0 l-104 -76 ZM203 847 l-94 104 l33 29 l86 -110 l-25 -23 Z" /><glyph glyph-name="cid00663" unicode="&#x1ec1;" d="M304 -13 q-69 0 -125 33.5 q-56 33.5 -89.5 96 q-33.5 62.5 -33.5 149.5 q0 87 33.5 150 q33.5 63 87 97 q53.5 34 113.5 34 q97 0 151.5 -65.5 q54.5 -65.5 54.5 -182.5 q0 -22 -3 -42 l-378 0 q2 -65 26.5 -115 q24.5 -50 68 -78 q43.5 -28 100.5 -28 q43 0 77.5 12.5 q34.5 12.5 64.5 33.5 l22 -43 q-32 -20 -72 -36 q-40 -16 -98 -16 ZM115 303 l328 0 q0 97 -41 145.5 q-41 48.5 -111 48.5 q-43 0 -81.5 -23 q-38.5 -23 -63.5 -66.5 q-25 -43.5 -31 -104.5 ZM172 634 l-22 27 l115 102 l49 0 l115 -102 l-22 -27 l-115 83 l-4 0 l-116 -83 ZM163 705 l-130 120 l38 33 l120 -125 l-28 -28 Z" /><glyph glyph-name="cid00664" unicode="&#x1ec2;" d="M106 0 l0 729 l403 0 l0 -51 l-343 0 l0 -266 l289 0 l0 -51 l-289 0 l0 -309 l354 0 l0 -52 l-414 0 ZM215 781 l-25 23 l105 95 l52 0 l105 -95 l-24 -23 l-105 76 l-4 0 l-104 -76 ZM437 838 l-11 31 q23 6 39 16.5 q16 10.5 16 29.5 q0 24 -19.5 34.5 q-19.5 10.5 -60.5 11.5 l6 36 q53 -2 87 -19.5 q34 -17.5 34 -56.5 q0 -39 -29 -57 q-29 -18 -62 -26 Z" /><glyph glyph-name="cid00665" unicode="&#x1ec3;" d="M304 -13 q-69 0 -125 33.5 q-56 33.5 -89.5 96 q-33.5 62.5 -33.5 149.5 q0 87 33.5 150 q33.5 63 87 97 q53.5 34 113.5 34 q97 0 151.5 -65.5 q54.5 -65.5 54.5 -182.5 q0 -22 -3 -42 l-378 0 q2 -65 26.5 -115 q24.5 -50 68 -78 q43.5 -28 100.5 -28 q43 0 77.5 12.5 q34.5 12.5 64.5 33.5 l22 -43 q-32 -20 -72 -36 q-40 -16 -98 -16 ZM115 303 l328 0 q0 97 -41 145.5 q-41 48.5 -111 48.5 q-43 0 -81.5 -23 q-38.5 -23 -63.5 -66.5 q-25 -43.5 -31 -104.5 ZM172 634 l-22 27 l115 102 l49 0 l115 -102 l-22 -27 l-115 83 l-4 0 l-116 -83 ZM407 699 l-9 31 q23 7 37.5 18.5 q14.5 11.5 14.5 30.5 q0 24 -18.5 35.5 q-18.5 11.5 -59.5 14.5 l5 34 q52 -1 86.5 -19.5 q34.5 -18.5 34.5 -58.5 q0 -26 -13.5 -43 q-13.5 -17 -34.5 -26.5 q-21 -9.5 -43 -16.5 Z" /><glyph glyph-name="cid00666" unicode="&#x1ec4;" d="M106 0 l0 729 l403 0 l0 -51 l-343 0 l0 -266 l289 0 l0 -51 l-289 0 l0 -309 l354 0 l0 -52 l-414 0 ZM215 781 l-25 23 l105 93 l52 0 l105 -93 l-24 -23 l-105 75 l-4 0 l-104 -75 ZM397 930 q-28 0 -48 8.5 q-20 8.5 -36 20 q-16 11.5 -31.5 20 q-15.5 8.5 -35.5 8.5 q-22 0 -31.5 -14.5 q-9.5 -14.5 -12.5 -39.5 l-37 3 q2 35 19 63.5 q17 28.5 62 28.5 q28 0 47.5 -8.5 q19.5 -8.5 35.5 -20 q16 -11.5 32 -20 q16 -8.5 35 -8.5 q22 0 31.5 14.5 q9.5 14.5 12.5 39.5 l37 -3 q-1 -22 -8.5 -43.5 q-7.5 -21.5 -24.5 -35 q-17 -13.5 -47 -13.5 Z" /><glyph glyph-name="cid00667" unicode="&#x1ec5;" d="M304 -13 q-69 0 -125 33.5 q-56 33.5 -89.5 96 q-33.5 62.5 -33.5 149.5 q0 87 33.5 150 q33.5 63 87 97 q53.5 34 113.5 34 q97 0 151.5 -65.5 q54.5 -65.5 54.5 -182.5 q0 -22 -3 -42 l-378 0 q2 -65 26.5 -115 q24.5 -50 68 -78 q43.5 -28 100.5 -28 q43 0 77.5 12.5 q34.5 12.5 64.5 33.5 l22 -43 q-32 -20 -72 -36 q-40 -16 -98 -16 ZM115 303 l328 0 q0 97 -41 145.5 q-41 48.5 -111 48.5 q-43 0 -81.5 -23 q-38.5 -23 -63.5 -66.5 q-25 -43.5 -31 -104.5 ZM172 634 l-22 27 l115 100 l49 0 l115 -100 l-22 -27 l-115 82 l-4 0 l-116 -82 ZM365 784 q-33 0 -57.5 12 q-24.5 12 -46 23.5 q-21.5 11.5 -45.5 11.5 q-17 0 -25 -12.5 q-8 -12.5 -11 -37.5 l-36 3 q2 34 18 60.5 q16 26.5 53 26.5 q33 0 57.5 -11.5 q24.5 -11.5 45.5 -23.5 q21 -12 45 -12 q18 0 25.5 12.5 q7.5 12.5 11.5 37.5 l36 -3 q-2 -33 -17.5 -60 q-15.5 -27 -53.5 -27 Z" /><glyph glyph-name="cid00668" unicode="&#x1ec6;" d="M106 0 l0 729 l403 0 l0 -51 l-343 0 l0 -266 l289 0 l0 -51 l-289 0 l0 -309 l354 0 l0 -52 l-414 0 ZM195 781 l-26 23 l123 125 l59 0 l123 -125 l-26 -23 l-125 107 l-4 0 l-124 -107 ZM331 -218 q-20 0 -33 13 q-13 13 -13 36 q0 21 13 33.5 q13 12.5 33 12.5 q20 0 33 -12.5 q13 -12.5 13 -33.5 q0 -23 -13 -36 q-13 -13 -33 -13 Z" /><glyph glyph-name="cid00669" unicode="&#x1ec7;" d="M304 -13 q-69 0 -125 33.5 q-56 33.5 -89.5 96 q-33.5 62.5 -33.5 149.5 q0 87 33.5 150 q33.5 63 87 97 q53.5 34 113.5 34 q97 0 151.5 -65.5 q54.5 -65.5 54.5 -182.5 q0 -22 -3 -42 l-378 0 q2 -65 26.5 -115 q24.5 -50 68 -78 q43.5 -28 100.5 -28 q43 0 77.5 12.5 q34.5 12.5 64.5 33.5 l22 -43 q-32 -20 -72 -36 q-40 -16 -98 -16 ZM115 303 l328 0 q0 97 -41 145.5 q-41 48.5 -111 48.5 q-43 0 -81.5 -23 q-38.5 -23 -63.5 -66.5 q-25 -43.5 -31 -104.5 ZM133 658 l129 159 l56 0 l129 -159 l-29 -25 l-126 135 l-4 0 l-127 -135 l-28 25 ZM290 -218 q-20 0 -33 13 q-13 13 -13 36 q0 21 13 33.5 q13 12.5 33 12.5 q20 0 33 -12.5 q13 -12.5 13 -33.5 q0 -23 -13 -36 q-13 -13 -33 -13 Z" /><glyph glyph-name="cid00670" unicode="&#x1ec8;" d="M106 0 l0 729 l60 0 l0 -729 l-60 0 ZM107 777 l-9 32 q29 9 48.5 22 q19.5 13 19.5 36 q0 49 -93 52 l5 39 q59 -1 98 -21 q39 -20 39 -63 q0 -29 -15.5 -48 q-15.5 -19 -40 -30.5 q-24.5 -11.5 -52.5 -18.5 Z" /><glyph glyph-name="cid00671" unicode="&#x1ec9;" d="M100 0 l0 533 l58 0 l0 -533 l-58 0 ZM101 637 l-10 33 q29 9 49 22.5 q20 13.5 20 37.5 q0 50 -94 53 l3 42 q60 -1 100.5 -23 q40.5 -22 40.5 -67 q0 -29 -16 -48.5 q-16 -19.5 -40.5 -31 q-24.5 -11.5 -52.5 -18.5 Z" /><glyph glyph-name="cid00672" unicode="&#x1eca;" d="M106 0 l0 729 l60 0 l0 -729 l-60 0 ZM137 -218 q-20 0 -33.5 13 q-13.5 13 -13.5 36 q0 21 13.5 33.5 q13.5 12.5 33.5 12.5 q19 0 32.5 -12.5 q13.5 -12.5 13.5 -33.5 q0 -23 -13.5 -36 q-13.5 -13 -32.5 -13 Z" /><glyph glyph-name="cid00673" unicode="&#x1ecb;" d="M100 0 l0 533 l58 0 l0 -533 l-58 0 ZM130 658 q-20 0 -33.5 13.5 q-13.5 13.5 -13.5 35.5 q0 21 13.5 33.5 q13.5 12.5 33.5 12.5 q20 0 33 -12.5 q13 -12.5 13 -33.5 q0 -22 -13 -35.5 q-13 -13.5 -33 -13.5 ZM128 -218 q-20 0 -33 13 q-13 13 -13 36 q0 21 13 33.5 q13 12.5 33 12.5 q20 0 33 -12.5 q13 -12.5 13 -33.5 q0 -23 -13 -36 q-13 -13 -33 -13 Z" /><glyph glyph-name="cid00674" unicode="&#x1ecc;" d="M362 -13 q-88 0 -156 46.5 q-68 46.5 -107 132 q-39 85.5 -39 201.5 q0 116 39 200 q39 84 107 129.5 q68 45.5 156 45.5 q89 0 157.5 -45.5 q68.5 -45.5 107 -129.5 q38.5 -84 38.5 -200 q0 -116 -38.5 -201.5 q-38.5 -85.5 -107 -132 q-68.5 -46.5 -157.5 -46.5 ZM362 41 q73 0 127 40 q54 40 84 113.5 q30 73.5 30 172.5 q0 99 -30 171 q-30 72 -84 111 q-54 39 -127 39 q-72 0 -125.5 -39 q-53.5 -39 -83.5 -111 q-30 -72 -30 -171 q0 -99 30 -172.5 q30 -73.5 83.5 -113.5 q53.5 -40 125.5 -40 ZM362 -218 q-19 0 -32.5 13 q-13.5 13 -13.5 36 q0 21 13.5 33.5 q13.5 12.5 32.5 12.5 q20 0 33.5 -12.5 q13.5 -12.5 13.5 -33.5 q0 -23 -13.5 -36 q-13.5 -13 -33.5 -13 Z" /><glyph glyph-name="cid00675" unicode="&#x1ecd;" d="M297 -13 q-64 0 -119 33 q-55 33 -88.5 95.5 q-33.5 62.5 -33.5 150.5 q0 89 33.5 152 q33.5 63 88.5 96 q55 33 119 33 q65 0 119.5 -33 q54.5 -33 88 -96 q33.5 -63 33.5 -152 q0 -88 -33.5 -150.5 q-33.5 -62.5 -88 -95.5 q-54.5 -33 -119.5 -33 ZM297 37 q52 0 93 29 q41 29 64.5 80.5 q23.5 51.5 23.5 119.5 q0 68 -23.5 120 q-23.5 52 -64.5 81 q-41 29 -93 29 q-52 0 -92.5 -29 q-40.5 -29 -64 -81 q-23.5 -52 -23.5 -120 q0 -68 23.5 -119.5 q23.5 -51.5 64 -80.5 q40.5 -29 92.5 -29 ZM297 -218 q-19 0 -33 13 q-14 13 -14 36 q0 21 14 33.5 q14 12.5 33 12.5 q20 0 33.5 -12.5 q13.5 -12.5 13.5 -33.5 q0 -23 -13.5 -36 q-13.5 -13 -33.5 -13 Z" /><glyph glyph-name="cid00676" unicode="&#x1ece;" d="M362 -13 q-88 0 -156 46.5 q-68 46.5 -107 132 q-39 85.5 -39 201.5 q0 116 39 200 q39 84 107 129.5 q68 45.5 156 45.5 q89 0 157.5 -45.5 q68.5 -45.5 107 -129.5 q38.5 -84 38.5 -200 q0 -116 -38.5 -201.5 q-38.5 -85.5 -107 -132 q-68.5 -46.5 -157.5 -46.5 ZM362 41 q73 0 127 40 q54 40 84 113.5 q30 73.5 30 172.5 q0 99 -30 171 q-30 72 -84 111 q-54 39 -127 39 q-72 0 -125.5 -39 q-53.5 -39 -83.5 -111 q-30 -72 -30 -171 q0 -99 30 -172.5 q30 -73.5 83.5 -113.5 q53.5 -40 125.5 -40 ZM334 777 l-10 32 q29 9 49 22 q20 13 20 36 q0 49 -94 52 l6 39 q58 -1 97.5 -21 q39.5 -20 39.5 -63 q0 -29 -15.5 -48 q-15.5 -19 -40 -30.5 q-24.5 -11.5 -52.5 -18.5 Z" /><glyph glyph-name="cid00677" unicode="&#x1ecf;" d="M297 -13 q-64 0 -119 33 q-55 33 -88.5 95.5 q-33.5 62.5 -33.5 150.5 q0 89 33.5 152 q33.5 63 88.5 96 q55 33 119 33 q65 0 119.5 -33 q54.5 -33 88 -96 q33.5 -63 33.5 -152 q0 -88 -33.5 -150.5 q-33.5 -62.5 -88 -95.5 q-54.5 -33 -119.5 -33 ZM297 37 q52 0 93 29 q41 29 64.5 80.5 q23.5 51.5 23.5 119.5 q0 68 -23.5 120 q-23.5 52 -64.5 81 q-41 29 -93 29 q-52 0 -92.5 -29 q-40.5 -29 -64 -81 q-23.5 -52 -23.5 -120 q0 -68 23.5 -119.5 q23.5 -51.5 64 -80.5 q40.5 -29 92.5 -29 ZM268 637 l-9 33 q29 9 48.5 22.5 q19.5 13.5 19.5 37.5 q0 50 -93 53 l3 42 q60 -1 100 -23 q40 -22 40 -67 q0 -44 -33.5 -66 q-33.5 -22 -75.5 -32 Z" /><glyph glyph-name="cid00678" unicode="&#x1ed0;" d="M362 -13 q-88 0 -156 46.5 q-68 46.5 -107 132 q-39 85.5 -39 201.5 q0 116 39 200 q39 84 107 129.5 q68 45.5 156 45.5 q89 0 157.5 -45.5 q68.5 -45.5 107 -129.5 q38.5 -84 38.5 -200 q0 -116 -38.5 -201.5 q-38.5 -85.5 -107 -132 q-68.5 -46.5 -157.5 -46.5 ZM362 41 q73 0 127 40 q54 40 84 113.5 q30 73.5 30 172.5 q0 99 -30 171 q-30 72 -84 111 q-54 39 -127 39 q-72 0 -125.5 -39 q-53.5 -39 -83.5 -111 q-30 -72 -30 -171 q0 -99 30 -172.5 q30 -73.5 83.5 -113.5 q53.5 -40 125.5 -40 ZM257 781 l-26 23 l106 95 l52 0 l104 -95 l-24 -23 l-104 76 l-5 0 l-103 -76 ZM481 847 l-26 26 l106 107 l32 -33 l-112 -100 Z" /><glyph glyph-name="cid00679" unicode="&#x1ed1;" d="M297 -13 q-64 0 -119 33 q-55 33 -88.5 95.5 q-33.5 62.5 -33.5 150.5 q0 89 33.5 152 q33.5 63 88.5 96 q55 33 119 33 q65 0 119.5 -33 q54.5 -33 88 -96 q33.5 -63 33.5 -152 q0 -88 -33.5 -150.5 q-33.5 -62.5 -88 -95.5 q-54.5 -33 -119.5 -33 ZM297 37 q52 0 93 29 q41 29 64.5 80.5 q23.5 51.5 23.5 119.5 q0 68 -23.5 120 q-23.5 52 -64.5 81 q-41 29 -93 29 q-52 0 -92.5 -29 q-40.5 -29 -64 -81 q-23.5 -52 -23.5 -120 q0 -68 23.5 -119.5 q23.5 -51.5 64 -80.5 q40.5 -29 92.5 -29 ZM180 634 l-22 27 l114 102 l50 0 l115 -102 l-23 -27 l-115 83 l-4 0 l-115 -83 ZM424 705 l-28 23 l101 130 l38 -29 l-111 -124 Z" /><glyph glyph-name="cid00680" unicode="&#x1ed2;" d="M362 -13 q-88 0 -156 46.5 q-68 46.5 -107 132 q-39 85.5 -39 201.5 q0 116 39 200 q39 84 107 129.5 q68 45.5 156 45.5 q89 0 157.5 -45.5 q68.5 -45.5 107 -129.5 q38.5 -84 38.5 -200 q0 -116 -38.5 -201.5 q-38.5 -85.5 -107 -132 q-68.5 -46.5 -157.5 -46.5 ZM362 41 q73 0 127 40 q54 40 84 113.5 q30 73.5 30 172.5 q0 99 -30 171 q-30 72 -84 111 q-54 39 -127 39 q-72 0 -125.5 -39 q-53.5 -39 -83.5 -111 q-30 -72 -30 -171 q0 -99 30 -172.5 q30 -73.5 83.5 -113.5 q53.5 -40 125.5 -40 ZM257 781 l-26 23 l106 95 l52 0 l104 -95 l-24 -23 l-104 76 l-5 0 l-103 -76 ZM245 847 l-94 104 l32 29 l87 -110 l-25 -23 Z" /><glyph glyph-name="cid00681" unicode="&#x1ed3;" d="M297 -13 q-64 0 -119 33 q-55 33 -88.5 95.5 q-33.5 62.5 -33.5 150.5 q0 89 33.5 152 q33.5 63 88.5 96 q55 33 119 33 q65 0 119.5 -33 q54.5 -33 88 -96 q33.5 -63 33.5 -152 q0 -88 -33.5 -150.5 q-33.5 -62.5 -88 -95.5 q-54.5 -33 -119.5 -33 ZM297 37 q52 0 93 29 q41 29 64.5 80.5 q23.5 51.5 23.5 119.5 q0 68 -23.5 120 q-23.5 52 -64.5 81 q-41 29 -93 29 q-52 0 -92.5 -29 q-40.5 -29 -64 -81 q-23.5 -52 -23.5 -120 q0 -68 23.5 -119.5 q23.5 -51.5 64 -80.5 q40.5 -29 92.5 -29 ZM180 634 l-22 27 l114 102 l50 0 l115 -102 l-23 -27 l-115 83 l-4 0 l-115 -83 ZM170 705 l-129 120 l38 33 l119 -125 l-28 -28 Z" /><glyph glyph-name="cid00682" unicode="&#x1ed4;" d="M362 -13 q-88 0 -156 46.5 q-68 46.5 -107 132 q-39 85.5 -39 201.5 q0 116 39 200 q39 84 107 129.5 q68 45.5 156 45.5 q89 0 157.5 -45.5 q68.5 -45.5 107 -129.5 q38.5 -84 38.5 -200 q0 -116 -38.5 -201.5 q-38.5 -85.5 -107 -132 q-68.5 -46.5 -157.5 -46.5 ZM362 41 q73 0 127 40 q54 40 84 113.5 q30 73.5 30 172.5 q0 99 -30 171 q-30 72 -84 111 q-54 39 -127 39 q-72 0 -125.5 -39 q-53.5 -39 -83.5 -111 q-30 -72 -30 -171 q0 -99 30 -172.5 q30 -73.5 83.5 -113.5 q53.5 -40 125.5 -40 ZM257 781 l-26 23 l106 95 l52 0 l104 -95 l-24 -23 l-104 76 l-5 0 l-103 -76 ZM479 838 l-12 31 q23 6 39.5 16.5 q16.5 10.5 16.5 29.5 q0 24 -20 34.5 q-20 10.5 -61 11.5 l7 36 q53 -2 87 -19.5 q34 -17.5 34 -56.5 q0 -39 -29 -57 q-29 -18 -62 -26 Z" /><glyph glyph-name="cid00683" unicode="&#x1ed5;" d="M297 -13 q-64 0 -119 33 q-55 33 -88.5 95.5 q-33.5 62.5 -33.5 150.5 q0 89 33.5 152 q33.5 63 88.5 96 q55 33 119 33 q65 0 119.5 -33 q54.5 -33 88 -96 q33.5 -63 33.5 -152 q0 -88 -33.5 -150.5 q-33.5 -62.5 -88 -95.5 q-54.5 -33 -119.5 -33 ZM297 37 q52 0 93 29 q41 29 64.5 80.5 q23.5 51.5 23.5 119.5 q0 68 -23.5 120 q-23.5 52 -64.5 81 q-41 29 -93 29 q-52 0 -92.5 -29 q-40.5 -29 -64 -81 q-23.5 -52 -23.5 -120 q0 -68 23.5 -119.5 q23.5 -51.5 64 -80.5 q40.5 -29 92.5 -29 ZM180 634 l-22 27 l114 102 l50 0 l115 -102 l-23 -27 l-115 83 l-4 0 l-115 -83 ZM414 699 l-9 31 q23 7 38 18.5 q15 11.5 15 30.5 q0 24 -19 35.5 q-19 11.5 -59 14.5 l4 34 q53 -1 87 -19.5 q34 -18.5 34 -58.5 q0 -26 -13.5 -43 q-13.5 -17 -34.5 -26.5 q-21 -9.5 -43 -16.5 Z" /><glyph glyph-name="cid00684" unicode="&#x1ed6;" d="M362 -13 q-88 0 -156 46.5 q-68 46.5 -107 132 q-39 85.5 -39 201.5 q0 116 39 200 q39 84 107 129.5 q68 45.5 156 45.5 q89 0 157.5 -45.5 q68.5 -45.5 107 -129.5 q38.5 -84 38.5 -200 q0 -116 -38.5 -201.5 q-38.5 -85.5 -107 -132 q-68.5 -46.5 -157.5 -46.5 ZM362 41 q73 0 127 40 q54 40 84 113.5 q30 73.5 30 172.5 q0 99 -30 171 q-30 72 -84 111 q-54 39 -127 39 q-72 0 -125.5 -39 q-53.5 -39 -83.5 -111 q-30 -72 -30 -171 q0 -99 30 -172.5 q30 -73.5 83.5 -113.5 q53.5 -40 125.5 -40 ZM257 781 l-26 23 l106 93 l52 0 l104 -93 l-24 -23 l-104 75 l-5 0 l-103 -75 ZM438 930 q-28 0 -48 8.5 q-20 8.5 -36 20 q-16 11.5 -31.5 20 q-15.5 8.5 -35.5 8.5 q-22 0 -31.5 -14.5 q-9.5 -14.5 -12.5 -39.5 l-36 3 q2 35 18.5 63.5 q16.5 28.5 61.5 28.5 q28 0 47.5 -8.5 q19.5 -8.5 35.5 -20 q16 -11.5 32 -20 q16 -8.5 36 -8.5 q21 0 31 14.5 q10 14.5 13 39.5 l37 -3 q-1 -22 -8.5 -43.5 q-7.5 -21.5 -24.5 -35 q-17 -13.5 -48 -13.5 Z" /><glyph glyph-name="cid00685" unicode="&#x1ed7;" d="M297 -13 q-64 0 -119 33 q-55 33 -88.5 95.5 q-33.5 62.5 -33.5 150.5 q0 89 33.5 152 q33.5 63 88.5 96 q55 33 119 33 q65 0 119.5 -33 q54.5 -33 88 -96 q33.5 -63 33.5 -152 q0 -88 -33.5 -150.5 q-33.5 -62.5 -88 -95.5 q-54.5 -33 -119.5 -33 ZM297 37 q52 0 93 29 q41 29 64.5 80.5 q23.5 51.5 23.5 119.5 q0 68 -23.5 120 q-23.5 52 -64.5 81 q-41 29 -93 29 q-52 0 -92.5 -29 q-40.5 -29 -64 -81 q-23.5 -52 -23.5 -120 q0 -68 23.5 -119.5 q23.5 -51.5 64 -80.5 q40.5 -29 92.5 -29 ZM180 634 l-22 27 l114 100 l50 0 l115 -100 l-23 -27 l-115 82 l-4 0 l-115 -82 ZM372 784 q-32 0 -57 12 q-25 12 -46.5 23.5 q-21.5 11.5 -44.5 11.5 q-18 0 -25.5 -12.5 q-7.5 -12.5 -11.5 -37.5 l-36 3 q3 34 18.5 60.5 q15.5 26.5 52.5 26.5 q34 0 58 -11.5 q24 -11.5 45.5 -23.5 q21.5 -12 45.5 -12 q17 0 25 12.5 q8 12.5 11 37.5 l36 -3 q-3 -33 -18 -60 q-15 -27 -53 -27 Z" /><glyph glyph-name="cid00686" unicode="&#x1ed8;" d="M362 -13 q-88 0 -156 46.5 q-68 46.5 -107 132 q-39 85.5 -39 201.5 q0 116 39 200 q39 84 107 129.5 q68 45.5 156 45.5 q89 0 157.5 -45.5 q68.5 -45.5 107 -129.5 q38.5 -84 38.5 -200 q0 -116 -38.5 -201.5 q-38.5 -85.5 -107 -132 q-68.5 -46.5 -157.5 -46.5 ZM362 41 q73 0 127 40 q54 40 84 113.5 q30 73.5 30 172.5 q0 99 -30 171 q-30 72 -84 111 q-54 39 -127 39 q-72 0 -125.5 -39 q-53.5 -39 -83.5 -111 q-30 -72 -30 -171 q0 -99 30 -172.5 q30 -73.5 83.5 -113.5 q53.5 -40 125.5 -40 ZM236 781 l-26 23 l123 125 l60 0 l122 -125 l-26 -23 l-124 107 l-5 0 l-124 -107 ZM362 -218 q-19 0 -32.5 13 q-13.5 13 -13.5 36 q0 21 13.5 33.5 q13.5 12.5 32.5 12.5 q20 0 33.5 -12.5 q13.5 -12.5 13.5 -33.5 q0 -23 -13.5 -36 q-13.5 -13 -33.5 -13 Z" /><glyph glyph-name="cid00687" unicode="&#x1ed9;" d="M297 -13 q-64 0 -119 33 q-55 33 -88.5 95.5 q-33.5 62.5 -33.5 150.5 q0 89 33.5 152 q33.5 63 88.5 96 q55 33 119 33 q65 0 119.5 -33 q54.5 -33 88 -96 q33.5 -63 33.5 -152 q0 -88 -33.5 -150.5 q-33.5 -62.5 -88 -95.5 q-54.5 -33 -119.5 -33 ZM297 37 q52 0 93 29 q41 29 64.5 80.5 q23.5 51.5 23.5 119.5 q0 68 -23.5 120 q-23.5 52 -64.5 81 q-41 29 -93 29 q-52 0 -92.5 -29 q-40.5 -29 -64 -81 q-23.5 -52 -23.5 -120 q0 -68 23.5 -119.5 q23.5 -51.5 64 -80.5 q40.5 -29 92.5 -29 ZM140 658 l128 159 l58 0 l128 -159 l-28 -25 l-127 135 l-4 0 l-127 -135 l-28 25 ZM297 -218 q-19 0 -33 13 q-14 13 -14 36 q0 21 14 33.5 q14 12.5 33 12.5 q20 0 33.5 -12.5 q13.5 -12.5 13.5 -33.5 q0 -23 -13.5 -36 q-13.5 -13 -33.5 -13 Z" /><glyph glyph-name="cid00688" unicode="&#x1eda;" d="M367 -13 q-89 0 -157.5 46.5 q-68.5 46.5 -107 132 q-38.5 85.5 -38.5 201.5 q0 116 38.5 200 q38.5 84 107 129.5 q68.5 45.5 157.5 45.5 q76 0 138 -35 q102 19 102 96 q0 15 -3.5 31.5 q-3.5 16.5 -11.5 29.5 l50 24 q22 -39 22 -81 q0 -52 -32 -84 q-32 -32 -83 -46 q56 -47 88.5 -126.5 q32.5 -79.5 32.5 -183.5 q0 -116 -39 -201.5 q-39 -85.5 -107.5 -132 q-68.5 -46.5 -156.5 -46.5 ZM367 41 q72 0 126 40 q54 40 84 113.5 q30 73.5 30 172.5 q0 99 -30 171 q-30 72 -84 111 q-54 39 -126 39 q-72 0 -126.5 -39 q-54.5 -39 -84.5 -111 q-30 -72 -30 -171 q0 -99 30 -172.5 q30 -73.5 84.5 -113.5 q54.5 -40 126.5 -40 ZM345 780 l-27 30 l142 138 l36 -43 l-151 -125 Z" /><glyph glyph-name="cid00689" unicode="&#x1edb;" d="M297 -13 q-64 0 -119 33 q-55 33 -88.5 95.5 q-33.5 62.5 -33.5 150.5 q0 89 33.5 152 q33.5 63 88.5 96 q55 33 119 33 q55 0 103 -24 q52 10 79 36 q27 26 27 72 q0 14 -4 30 q-4 16 -12 29 l48 25 q22 -39 22 -80 q0 -42 -17 -70 q-17 -28 -44 -44.5 q-27 -16.5 -56 -25.5 q43 -35 69 -93.5 q26 -58.5 26 -135.5 q0 -88 -33.5 -150.5 q-33.5 -62.5 -88 -95.5 q-54.5 -33 -119.5 -33 ZM297 37 q52 0 93 29 q41 29 64.5 80.5 q23.5 51.5 23.5 119.5 q0 68 -23.5 120 q-23.5 52 -64.5 81 q-41 29 -93 29 q-52 0 -92.5 -29 q-40.5 -29 -64 -81 q-23.5 -52 -23.5 -120 q0 -68 23.5 -119.5 q23.5 -51.5 64 -80.5 q40.5 -29 92.5 -29 ZM270 635 l-32 30 l151 176 l43 -38 l-162 -168 Z" /><glyph glyph-name="cid00690" unicode="&#x1edc;" d="M367 -13 q-89 0 -157.5 46.5 q-68.5 46.5 -107 132 q-38.5 85.5 -38.5 201.5 q0 116 38.5 200 q38.5 84 107 129.5 q68.5 45.5 157.5 45.5 q76 0 138 -35 q102 19 102 96 q0 15 -3.5 31.5 q-3.5 16.5 -11.5 29.5 l50 24 q22 -39 22 -81 q0 -52 -32 -84 q-32 -32 -83 -46 q56 -47 88.5 -126.5 q32.5 -79.5 32.5 -183.5 q0 -116 -39 -201.5 q-39 -85.5 -107.5 -132 q-68.5 -46.5 -156.5 -46.5 ZM367 41 q72 0 126 40 q54 40 84 113.5 q30 73.5 30 172.5 q0 99 -30 171 q-30 72 -84 111 q-54 39 -126 39 q-72 0 -126.5 -39 q-54.5 -39 -84.5 -111 q-30 -72 -30 -171 q0 -99 30 -172.5 q30 -73.5 84.5 -113.5 q54.5 -40 126.5 -40 ZM388 780 l-152 125 l37 43 l142 -138 l-27 -30 Z" /><glyph glyph-name="cid00691" unicode="&#x1edd;" d="M297 -13 q-64 0 -119 33 q-55 33 -88.5 95.5 q-33.5 62.5 -33.5 150.5 q0 89 33.5 152 q33.5 63 88.5 96 q55 33 119 33 q55 0 103 -24 q52 10 79 36 q27 26 27 72 q0 14 -4 30 q-4 16 -12 29 l48 25 q22 -39 22 -80 q0 -42 -17 -70 q-17 -28 -44 -44.5 q-27 -16.5 -56 -25.5 q43 -35 69 -93.5 q26 -58.5 26 -135.5 q0 -88 -33.5 -150.5 q-33.5 -62.5 -88 -95.5 q-54.5 -33 -119.5 -33 ZM297 37 q52 0 93 29 q41 29 64.5 80.5 q23.5 51.5 23.5 119.5 q0 68 -23.5 120 q-23.5 52 -64.5 81 q-41 29 -93 29 q-52 0 -92.5 -29 q-40.5 -29 -64 -81 q-23.5 -52 -23.5 -120 q0 -68 23.5 -119.5 q23.5 -51.5 64 -80.5 q40.5 -29 92.5 -29 ZM326 635 l-162 168 l43 38 l151 -176 l-32 -30 Z" /><glyph glyph-name="cid00692" unicode="&#x1ede;" d="M367 -13 q-89 0 -157.5 46.5 q-68.5 46.5 -107 132 q-38.5 85.5 -38.5 201.5 q0 116 38.5 200 q38.5 84 107 129.5 q68.5 45.5 157.5 45.5 q76 0 138 -35 q102 19 102 96 q0 15 -3.5 31.5 q-3.5 16.5 -11.5 29.5 l50 24 q22 -39 22 -81 q0 -52 -32 -84 q-32 -32 -83 -46 q56 -47 88.5 -126.5 q32.5 -79.5 32.5 -183.5 q0 -116 -39 -201.5 q-39 -85.5 -107.5 -132 q-68.5 -46.5 -156.5 -46.5 ZM338 777 l-10 32 q30 9 49 22 q19 13 19 36 q0 49 -93 52 l5 39 q59 -1 98.5 -21 q39.5 -20 39.5 -63 q0 -29 -15.5 -48 q-15.5 -19 -40 -30.5 q-24.5 -11.5 -52.5 -18.5 ZM367 41 q72 0 126 40 q54 40 84 113.5 q30 73.5 30 172.5 q0 99 -30 171 q-30 72 -84 111 q-54 39 -126 39 q-72 0 -126.5 -39 q-54.5 -39 -84.5 -111 q-30 -72 -30 -171 q0 -99 30 -172.5 q30 -73.5 84.5 -113.5 q54.5 -40 126.5 -40 Z" /><glyph glyph-name="cid00693" unicode="&#x1edf;" d="M297 -13 q-64 0 -119 33 q-55 33 -88.5 95.5 q-33.5 62.5 -33.5 150.5 q0 89 33.5 152 q33.5 63 88.5 96 q55 33 119 33 q55 0 103 -24 q52 10 79 36 q27 26 27 72 q0 14 -4 30 q-4 16 -12 29 l48 25 q22 -39 22 -80 q0 -42 -17 -70 q-17 -28 -44 -44.5 q-27 -16.5 -56 -25.5 q43 -35 69 -93.5 q26 -58.5 26 -135.5 q0 -88 -33.5 -150.5 q-33.5 -62.5 -88 -95.5 q-54.5 -33 -119.5 -33 ZM268 637 l-8 33 q29 9 48.5 22.5 q19.5 13.5 19.5 37.5 q0 50 -94 53 l4 42 q60 -1 99.5 -23 q39.5 -22 39.5 -67 q0 -44 -33.5 -66 q-33.5 -22 -75.5 -32 ZM297 37 q52 0 93 29 q41 29 64.5 80.5 q23.5 51.5 23.5 119.5 q0 68 -23.5 120 q-23.5 52 -64.5 81 q-41 29 -93 29 q-52 0 -92.5 -29 q-40.5 -29 -64 -81 q-23.5 -52 -23.5 -120 q0 -68 23.5 -119.5 q23.5 -51.5 64 -80.5 q40.5 -29 92.5 -29 Z" /><glyph glyph-name="cid00694" unicode="&#x1ee0;" d="M367 -13 q-89 0 -157.5 46.5 q-68.5 46.5 -107 132 q-38.5 85.5 -38.5 201.5 q0 116 38.5 200 q38.5 84 107 129.5 q68.5 45.5 157.5 45.5 q76 0 138 -35 q102 19 102 96 q0 15 -3.5 31.5 q-3.5 16.5 -11.5 29.5 l50 24 q22 -39 22 -81 q0 -52 -32 -84 q-32 -32 -83 -46 q56 -47 88.5 -126.5 q32.5 -79.5 32.5 -183.5 q0 -116 -39 -201.5 q-39 -85.5 -107.5 -132 q-68.5 -46.5 -156.5 -46.5 ZM367 41 q72 0 126 40 q54 40 84 113.5 q30 73.5 30 172.5 q0 99 -30 171 q-30 72 -84 111 q-54 39 -126 39 q-72 0 -126.5 -39 q-54.5 -39 -84.5 -111 q-30 -72 -30 -171 q0 -99 30 -172.5 q30 -73.5 84.5 -113.5 q54.5 -40 126.5 -40 ZM448 793 q-32 0 -54.5 13 q-22.5 13 -40 30 q-17.5 17 -35 30 q-17.5 13 -39.5 13 q-24 0 -40 -22 q-16 -22 -20 -60 l-41 4 q2 53 28 89 q26 36 72 36 q32 0 54.5 -13 q22.5 -13 40 -30 q17.5 -17 35 -30 q17.5 -13 39.5 -13 q24 0 39.5 22 q15.5 22 19.5 60 l42 -3 q-1 -55 -27.5 -90.5 q-26.5 -35.5 -72.5 -35.5 Z" /><glyph glyph-name="cid00695" unicode="&#x1ee1;" d="M297 -13 q-64 0 -119 33 q-55 33 -88.5 95.5 q-33.5 62.5 -33.5 150.5 q0 89 33.5 152 q33.5 63 88.5 96 q55 33 119 33 q55 0 103 -24 q52 10 79 36 q27 26 27 72 q0 14 -4 30 q-4 16 -12 29 l48 25 q22 -39 22 -80 q0 -42 -17 -70 q-17 -28 -44 -44.5 q-27 -16.5 -56 -25.5 q43 -35 69 -93.5 q26 -58.5 26 -135.5 q0 -88 -33.5 -150.5 q-33.5 -62.5 -88 -95.5 q-54.5 -33 -119.5 -33 ZM297 37 q52 0 93 29 q41 29 64.5 80.5 q23.5 51.5 23.5 119.5 q0 68 -23.5 120 q-23.5 52 -64.5 81 q-41 29 -93 29 q-52 0 -92.5 -29 q-40.5 -29 -64 -81 q-23.5 -52 -23.5 -120 q0 -68 23.5 -119.5 q23.5 -51.5 64 -80.5 q40.5 -29 92.5 -29 ZM373 641 q-31 0 -52.5 15.5 q-21.5 15.5 -39 36 q-17.5 20.5 -35 36 q-17.5 15.5 -39.5 15.5 q-28 0 -42 -28 q-14 -28 -16 -72 l-42 3 q2 37 12 69 q10 32 31.5 52.5 q21.5 20.5 57.5 20.5 q31 0 52.5 -15.5 q21.5 -15.5 39 -36 q17.5 -20.5 35.5 -36 q18 -15.5 40 -15.5 q27 0 40.5 29 q13.5 29 15.5 70 l43 -3 q-2 -35 -12 -67.5 q-10 -32.5 -31 -53 q-21 -20.5 -58 -20.5 Z" /><glyph glyph-name="cid00696" unicode="&#x1ee2;" d="M367 -13 q-89 0 -157.5 46.5 q-68.5 46.5 -107 132 q-38.5 85.5 -38.5 201.5 q0 116 38.5 200 q38.5 84 107 129.5 q68.5 45.5 157.5 45.5 q76 0 138 -35 q102 19 102 96 q0 15 -3.5 31.5 q-3.5 16.5 -11.5 29.5 l50 24 q22 -39 22 -81 q0 -52 -32 -84 q-32 -32 -83 -46 q56 -47 88.5 -126.5 q32.5 -79.5 32.5 -183.5 q0 -116 -39 -201.5 q-39 -85.5 -107.5 -132 q-68.5 -46.5 -156.5 -46.5 ZM361 -218 q-20 0 -33 13 q-13 13 -13 36 q0 21 13 33.5 q13 12.5 33 12.5 q20 0 33 -12.5 q13 -12.5 13 -33.5 q0 -23 -13 -36 q-13 -13 -33 -13 ZM367 41 q72 0 126 40 q54 40 84 113.5 q30 73.5 30 172.5 q0 99 -30 171 q-30 72 -84 111 q-54 39 -126 39 q-72 0 -126.5 -39 q-54.5 -39 -84.5 -111 q-30 -72 -30 -171 q0 -99 30 -172.5 q30 -73.5 84.5 -113.5 q54.5 -40 126.5 -40 Z" /><glyph glyph-name="cid00697" unicode="&#x1ee3;" d="M297 -13 q-64 0 -119 33 q-55 33 -88.5 95.5 q-33.5 62.5 -33.5 150.5 q0 89 33.5 152 q33.5 63 88.5 96 q55 33 119 33 q55 0 103 -24 q52 10 79 36 q27 26 27 72 q0 14 -4 30 q-4 16 -12 29 l48 25 q22 -39 22 -80 q0 -42 -17 -70 q-17 -28 -44 -44.5 q-27 -16.5 -56 -25.5 q43 -35 69 -93.5 q26 -58.5 26 -135.5 q0 -88 -33.5 -150.5 q-33.5 -62.5 -88 -95.5 q-54.5 -33 -119.5 -33 ZM298 -218 q-20 0 -33.5 13 q-13.5 13 -13.5 36 q0 21 13.5 33.5 q13.5 12.5 33.5 12.5 q20 0 33 -12.5 q13 -12.5 13 -33.5 q0 -23 -13 -36 q-13 -13 -33 -13 ZM297 37 q52 0 93 29 q41 29 64.5 80.5 q23.5 51.5 23.5 119.5 q0 68 -23.5 120 q-23.5 52 -64.5 81 q-41 29 -93 29 q-52 0 -92.5 -29 q-40.5 -29 -64 -81 q-23.5 -52 -23.5 -120 q0 -68 23.5 -119.5 q23.5 -51.5 64 -80.5 q40.5 -29 92.5 -29 Z" /><glyph glyph-name="cid00698" unicode="&#x1ee4;" d="M352 -13 q-49 0 -94 14.5 q-45 14.5 -80 48.5 q-35 34 -55 91.5 q-20 57.5 -20 143.5 l0 444 l60 0 l0 -441 q0 -95 26 -149 q26 -54 69.5 -76 q43.5 -22 93.5 -22 q52 0 95.5 22 q43.5 22 70.5 76 q27 54 27 149 l0 441 l57 0 l0 -444 q0 -86 -20.5 -143.5 q-20.5 -57.5 -55.5 -91.5 q-35 -34 -80 -48.5 q-45 -14.5 -94 -14.5 ZM351 -218 q-19 0 -32.5 13 q-13.5 13 -13.5 36 q0 21 13.5 33.5 q13.5 12.5 32.5 12.5 q20 0 33.5 -12.5 q13.5 -12.5 13.5 -33.5 q0 -23 -13.5 -36 q-13.5 -13 -33.5 -13 Z" /><glyph glyph-name="cid00699" unicode="&#x1ee5;" d="M253 -13 q-83 0 -122 51 q-39 51 -39 154 l0 341 l58 0 l0 -334 q0 -82 27.5 -121 q27.5 -39 88.5 -39 q47 0 84 25 q37 25 82 79 l0 390 l58 0 l0 -533 l-49 0 l-5 88 l-3 0 q-39 -45 -81.5 -73 q-42.5 -28 -98.5 -28 ZM301 -218 q-20 0 -33 13 q-13 13 -13 36 q0 21 13 33.5 q13 12.5 33 12.5 q20 0 33 -12.5 q13 -12.5 13 -33.5 q0 -23 -13 -36 q-13 -13 -33 -13 Z" /><glyph glyph-name="cid00700" unicode="&#x1ee6;" d="M352 -13 q-49 0 -94 14.5 q-45 14.5 -80 48.5 q-35 34 -55 91.5 q-20 57.5 -20 143.5 l0 444 l60 0 l0 -441 q0 -95 26 -149 q26 -54 69.5 -76 q43.5 -22 93.5 -22 q52 0 95.5 22 q43.5 22 70.5 76 q27 54 27 149 l0 441 l57 0 l0 -444 q0 -86 -20.5 -143.5 q-20.5 -57.5 -55.5 -91.5 q-35 -34 -80 -48.5 q-45 -14.5 -94 -14.5 ZM323 777 l-10 32 q29 9 49 22 q20 13 20 36 q0 25 -24.5 38 q-24.5 13 -69.5 14 l6 39 q58 -1 97.5 -21 q39.5 -20 39.5 -63 q0 -29 -15.5 -48 q-15.5 -19 -40 -30.5 q-24.5 -11.5 -52.5 -18.5 Z" /><glyph glyph-name="cid00701" unicode="&#x1ee7;" d="M253 -13 q-83 0 -122 51 q-39 51 -39 154 l0 341 l58 0 l0 -334 q0 -82 27.5 -121 q27.5 -39 88.5 -39 q47 0 84 25 q37 25 82 79 l0 390 l58 0 l0 -533 l-49 0 l-5 88 l-3 0 q-39 -45 -81.5 -73 q-42.5 -28 -98.5 -28 ZM264 637 l-9 33 q29 9 49 22.5 q20 13.5 20 37.5 q0 25 -24.5 38.5 q-24.5 13.5 -70.5 14.5 l4 42 q60 -1 100 -23 q40 -22 40 -67 q0 -44 -33.5 -66 q-33.5 -22 -75.5 -32 Z" /><glyph glyph-name="cid00702" unicode="&#x1ee8;" d="M602 698 l0 -413 q0 -86 -20.5 -143.5 q-20.5 -57.5 -55.5 -91.5 q-35 -34 -80 -48.5 q-45 -14.5 -94 -14.5 q-49 0 -94 14.5 q-45 14.5 -80 48.5 q-35 34 -55 91.5 q-20 57.5 -20 143.5 l0 444 l60 0 l0 -441 q0 -95 26 -149 q26 -54 69.5 -76 q43.5 -22 93.5 -22 q52 0 95.5 22 q43.5 22 70.5 76 q27 54 27 149 l0 441 l16 0 q53 8 78.5 30 q25.5 22 25.5 66 q0 15 -4 31.5 q-4 16.5 -12 29.5 l51 24 q10 -19 15.5 -39.5 q5.5 -20.5 5.5 -41.5 q0 -40 -17 -66.5 q-17 -26.5 -44 -41.5 q-27 -15 -58 -23 ZM331 780 l-26 30 l142 138 l37 -43 l-153 -125 Z" /><glyph glyph-name="cid00703" unicode="&#x1ee9;" d="M490 506 l0 -506 l-49 0 l-5 88 l-3 0 q-39 -45 -81.5 -73 q-42.5 -28 -98.5 -28 q-83 0 -122 51 q-39 51 -39 154 l0 341 l58 0 l0 -334 q0 -82 27.5 -121 q27.5 -39 88.5 -39 q47 0 84 25 q37 25 82 79 l0 390 l12 0 q42 8 68 33 q26 25 26 77 q0 29 -16 58 l48 25 q11 -19 17 -39 q6 -20 6 -41 q0 -44 -16 -72.5 q-16 -28.5 -39.5 -44 q-23.5 -15.5 -47.5 -23.5 ZM265 635 l-32 30 l151 176 l42 -38 l-161 -168 Z" /><glyph glyph-name="cid00704" unicode="&#x1eea;" d="M602 698 l0 -413 q0 -86 -20.5 -143.5 q-20.5 -57.5 -55.5 -91.5 q-35 -34 -80 -48.5 q-45 -14.5 -94 -14.5 q-49 0 -94 14.5 q-45 14.5 -80 48.5 q-35 34 -55 91.5 q-20 57.5 -20 143.5 l0 444 l60 0 l0 -441 q0 -95 26 -149 q26 -54 69.5 -76 q43.5 -22 93.5 -22 q52 0 95.5 22 q43.5 22 70.5 76 q27 54 27 149 l0 441 l16 0 q53 8 78.5 30 q25.5 22 25.5 66 q0 15 -4 31.5 q-4 16.5 -12 29.5 l51 24 q10 -19 15.5 -39.5 q5.5 -20.5 5.5 -41.5 q0 -40 -17 -66.5 q-17 -26.5 -44 -41.5 q-27 -15 -58 -23 ZM376 780 l-153 125 l37 43 l142 -138 l-26 -30 Z" /><glyph glyph-name="cid00705" unicode="&#x1eeb;" d="M490 506 l0 -506 l-49 0 l-5 88 l-3 0 q-39 -45 -81.5 -73 q-42.5 -28 -98.5 -28 q-83 0 -122 51 q-39 51 -39 154 l0 341 l58 0 l0 -334 q0 -82 27.5 -121 q27.5 -39 88.5 -39 q47 0 84 25 q37 25 82 79 l0 390 l12 0 q42 8 68 33 q26 25 26 77 q0 29 -16 58 l48 25 q11 -19 17 -39 q6 -20 6 -41 q0 -44 -16 -72.5 q-16 -28.5 -39.5 -44 q-23.5 -15.5 -47.5 -23.5 ZM320 635 l-161 168 l43 38 l150 -176 l-32 -30 Z" /><glyph glyph-name="cid00706" unicode="&#x1eec;" d="M602 698 l0 -413 q0 -86 -20.5 -143.5 q-20.5 -57.5 -55.5 -91.5 q-35 -34 -80 -48.5 q-45 -14.5 -94 -14.5 q-49 0 -94 14.5 q-45 14.5 -80 48.5 q-35 34 -55 91.5 q-20 57.5 -20 143.5 l0 444 l60 0 l0 -441 q0 -95 26 -149 q26 -54 69.5 -76 q43.5 -22 93.5 -22 q52 0 95.5 22 q43.5 22 70.5 76 q27 54 27 149 l0 441 l16 0 q53 8 78.5 30 q25.5 22 25.5 66 q0 15 -4 31.5 q-4 16.5 -12 29.5 l51 24 q10 -19 15.5 -39.5 q5.5 -20.5 5.5 -41.5 q0 -40 -17 -66.5 q-17 -26.5 -44 -41.5 q-27 -15 -58 -23 ZM324 777 l-9 32 q29 9 48.5 22 q19.5 13 19.5 36 q0 49 -93 52 l5 39 q59 -1 98.5 -21 q39.5 -20 39.5 -63 q0 -29 -15.5 -48 q-15.5 -19 -40.5 -30.5 q-25 -11.5 -53 -18.5 Z" /><glyph glyph-name="cid00707" unicode="&#x1eed;" d="M490 506 l0 -506 l-49 0 l-5 88 l-3 0 q-39 -45 -81.5 -73 q-42.5 -28 -98.5 -28 q-83 0 -122 51 q-39 51 -39 154 l0 341 l58 0 l0 -334 q0 -82 27.5 -121 q27.5 -39 88.5 -39 q47 0 84 25 q37 25 82 79 l0 390 l12 0 q42 8 68 33 q26 25 26 77 q0 29 -16 58 l48 25 q11 -19 17 -39 q6 -20 6 -41 q0 -44 -16 -72.5 q-16 -28.5 -39.5 -44 q-23.5 -15.5 -47.5 -23.5 ZM264 637 l-10 33 q29 9 49 22.5 q20 13.5 20 37.5 q0 25 -24.5 38.5 q-24.5 13.5 -69.5 14.5 l3 42 q60 -1 100.5 -23 q40.5 -22 40.5 -67 q0 -29 -16 -48.5 q-16 -19.5 -40.5 -31 q-24.5 -11.5 -52.5 -18.5 Z" /><glyph glyph-name="cid00708" unicode="&#x1eee;" d="M602 698 l0 -413 q0 -86 -20.5 -143.5 q-20.5 -57.5 -55.5 -91.5 q-35 -34 -80 -48.5 q-45 -14.5 -94 -14.5 q-49 0 -94 14.5 q-45 14.5 -80 48.5 q-35 34 -55 91.5 q-20 57.5 -20 143.5 l0 444 l60 0 l0 -441 q0 -95 26 -149 q26 -54 69.5 -76 q43.5 -22 93.5 -22 q52 0 95.5 22 q43.5 22 70.5 76 q27 54 27 149 l0 441 l16 0 q53 8 78.5 30 q25.5 22 25.5 66 q0 15 -4 31.5 q-4 16.5 -12 29.5 l51 24 q10 -19 15.5 -39.5 q5.5 -20.5 5.5 -41.5 q0 -40 -17 -66.5 q-17 -26.5 -44 -41.5 q-27 -15 -58 -23 ZM438 793 q-31 0 -53.5 13 q-22.5 13 -40 30 q-17.5 17 -35 30 q-17.5 13 -39.5 13 q-24 0 -40.5 -22 q-16.5 -22 -19.5 -60 l-41 4 q2 53 28 89 q26 36 72 36 q32 0 54.5 -13 q22.5 -13 40 -30 q17.5 -17 34.5 -30 q17 -13 39 -13 q25 0 40.5 22 q15.5 22 19.5 60 l42 -3 q-2 -55 -28 -90.5 q-26 -35.5 -73 -35.5 Z" /><glyph glyph-name="cid00709" unicode="&#x1eef;" d="M490 506 l0 -506 l-49 0 l-5 88 l-3 0 q-39 -45 -81.5 -73 q-42.5 -28 -98.5 -28 q-83 0 -122 51 q-39 51 -39 154 l0 341 l58 0 l0 -334 q0 -82 27.5 -121 q27.5 -39 88.5 -39 q47 0 84 25 q37 25 82 79 l0 390 l12 0 q42 8 68 33 q26 25 26 77 q0 29 -16 58 l48 25 q11 -19 17 -39 q6 -20 6 -41 q0 -44 -16 -72.5 q-16 -28.5 -39.5 -44 q-23.5 -15.5 -47.5 -23.5 ZM374 641 q-31 0 -52.5 15.5 q-21.5 15.5 -39.5 36 q-18 20.5 -35 36 q-17 15.5 -39 15.5 q-29 0 -42 -28 q-13 -28 -15 -72 l-44 3 q2 37 12 69 q10 32 31.5 52.5 q21.5 20.5 58.5 20.5 q30 0 52 -15.5 q22 -15.5 39.5 -36 q17.5 -20.5 35 -36 q17.5 -15.5 39.5 -15.5 q29 0 42 29 q13 29 14 70 l44 -3 q-2 -35 -12 -67.5 q-10 -32.5 -31 -53 q-21 -20.5 -58 -20.5 Z" /><glyph glyph-name="cid00710" unicode="&#x1ef0;" d="M602 698 l0 -413 q0 -86 -20.5 -143.5 q-20.5 -57.5 -55.5 -91.5 q-35 -34 -80 -48.5 q-45 -14.5 -94 -14.5 q-49 0 -94 14.5 q-45 14.5 -80 48.5 q-35 34 -55 91.5 q-20 57.5 -20 143.5 l0 444 l60 0 l0 -441 q0 -95 26 -149 q26 -54 69.5 -76 q43.5 -22 93.5 -22 q52 0 95.5 22 q43.5 22 70.5 76 q27 54 27 149 l0 441 l16 0 q53 8 78.5 30 q25.5 22 25.5 66 q0 15 -4 31.5 q-4 16.5 -12 29.5 l51 24 q10 -19 15.5 -39.5 q5.5 -20.5 5.5 -41.5 q0 -40 -17 -66.5 q-17 -26.5 -44 -41.5 q-27 -15 -58 -23 ZM351 -218 q-19 0 -32.5 13 q-13.5 13 -13.5 36 q0 21 13.5 33.5 q13.5 12.5 32.5 12.5 q20 0 33.5 -12.5 q13.5 -12.5 13.5 -33.5 q0 -23 -13.5 -36 q-13.5 -13 -33.5 -13 Z" /><glyph glyph-name="cid00711" unicode="&#x1ef1;" d="M490 506 l0 -506 l-49 0 l-5 88 l-3 0 q-39 -45 -81.5 -73 q-42.5 -28 -98.5 -28 q-83 0 -122 51 q-39 51 -39 154 l0 341 l58 0 l0 -334 q0 -82 27.5 -121 q27.5 -39 88.5 -39 q47 0 84 25 q37 25 82 79 l0 390 l12 0 q42 8 68 33 q26 25 26 77 q0 29 -16 58 l48 25 q11 -19 17 -39 q6 -20 6 -41 q0 -44 -16 -72.5 q-16 -28.5 -39.5 -44 q-23.5 -15.5 -47.5 -23.5 ZM305 -218 q-20 0 -33 13 q-13 13 -13 36 q0 21 13 33.5 q13 12.5 33 12.5 q20 0 33 -12.5 q13 -12.5 13 -33.5 q0 -23 -13 -36 q-13 -13 -33 -13 Z" /><glyph glyph-name="cid00712" unicode="&#x1ef2;" d="M221 0 l0 293 l-219 436 l64 0 l107 -223 q20 -40 38 -78.5 q18 -38.5 38 -79.5 l4 0 q21 41 41 79.5 q20 38.5 37 78.5 l107 223 l62 0 l-219 -436 l0 -293 l-60 0 ZM273 780 l-152 125 l37 43 l141 -138 l-26 -30 Z" /><glyph glyph-name="cid00713" unicode="&#x1ef3;" d="M85 -240 q-33 0 -57 11 l13 49 q8 -3 20 -5.5 q12 -2.5 23 -2.5 q48 0 81 38.5 q33 38.5 52 96.5 l14 45 l-218 541 l63 0 l124 -326 q13 -34 27.5 -74 q14.5 -40 28.5 -76 l5 0 q12 36 24.5 76 q12.5 40 23.5 74 l109 326 l59 0 l-208 -595 q-15 -46 -39.5 -86.5 q-24.5 -40.5 -60 -66 q-35.5 -25.5 -84.5 -25.5 ZM286 635 l-163 168 l43 38 l151 -176 l-31 -30 Z" /><glyph glyph-name="cid00714" unicode="&#x1ef4;" d="M221 0 l0 293 l-219 436 l64 0 l107 -223 q20 -40 38 -78.5 q18 -38.5 38 -79.5 l4 0 q21 41 41 79.5 q20 38.5 37 78.5 l107 223 l62 0 l-219 -436 l0 -293 l-60 0 ZM253 -218 q-20 0 -33 13 q-13 13 -13 36 q0 21 13 33.5 q13 12.5 33 12.5 q20 0 33 -12.5 q13 -12.5 13 -33.5 q0 -23 -13 -36 q-13 -13 -33 -13 Z" /><glyph glyph-name="cid00715" unicode="&#x1ef5;" d="M85 -240 q-33 0 -57 11 l13 49 q8 -3 20 -5.5 q12 -2.5 23 -2.5 q48 0 81 38.5 q33 38.5 52 96.5 l14 45 l-218 541 l63 0 l124 -326 q13 -34 27.5 -74 q14.5 -40 28.5 -76 l5 0 q12 36 24.5 76 q12.5 40 23.5 74 l109 326 l59 0 l-208 -595 q-15 -46 -39.5 -86.5 q-24.5 -40.5 -60 -66 q-35.5 -25.5 -84.5 -25.5 ZM407 -216 q-20 0 -33 13 q-13 13 -13 36 q0 20 13 33 q13 13 33 13 q20 0 33 -13 q13 -13 13 -33 q0 -23 -13 -36 q-13 -13 -33 -13 Z" /><glyph glyph-name="cid00716" unicode="&#x1ef6;" d="M221 0 l0 293 l-219 436 l64 0 l107 -223 q20 -40 38 -78.5 q18 -38.5 38 -79.5 l4 0 q21 41 41 79.5 q20 38.5 37 78.5 l107 223 l62 0 l-219 -436 l0 -293 l-60 0 ZM222 777 l-9 32 q29 9 48.5 22 q19.5 13 19.5 36 q0 49 -94 52 l6 39 q59 -1 98 -21 q39 -20 39 -63 q0 -29 -15.5 -48 q-15.5 -19 -40 -30.5 q-24.5 -11.5 -52.5 -18.5 Z" /><glyph glyph-name="cid00717" unicode="&#x1ef7;" d="M85 -240 q-33 0 -57 11 l13 49 q8 -3 20 -5.5 q12 -2.5 23 -2.5 q48 0 81 38.5 q33 38.5 52 96.5 l14 45 l-218 541 l63 0 l124 -326 q13 -34 27.5 -74 q14.5 -40 28.5 -76 l5 0 q12 36 24.5 76 q12.5 40 23.5 74 l109 326 l59 0 l-208 -595 q-15 -46 -39.5 -86.5 q-24.5 -40.5 -60 -66 q-35.5 -25.5 -84.5 -25.5 ZM228 637 l-10 33 q30 9 49.5 22.5 q19.5 13.5 19.5 37.5 q0 50 -94 53 l4 42 q59 -1 99.5 -23 q40.5 -22 40.5 -67 q0 -44 -33.5 -66 q-33.5 -22 -75.5 -32 Z" /><glyph glyph-name="cid00718" unicode="&#x1ef8;" d="M221 0 l0 293 l-219 436 l64 0 l107 -223 q20 -40 38 -78.5 q18 -38.5 38 -79.5 l4 0 q21 41 41 79.5 q20 38.5 37 78.5 l107 223 l62 0 l-219 -436 l0 -293 l-60 0 ZM336 793 q-32 0 -54.5 13 q-22.5 13 -40 30 q-17.5 17 -35 30 q-17.5 13 -39.5 13 q-24 0 -40 -22 q-16 -22 -20 -60 l-41 4 q2 53 28 89 q26 36 72 36 q32 0 54.5 -13 q22.5 -13 40 -30 q17.5 -17 35 -30 q17.5 -13 39.5 -13 q24 0 39.5 22 q15.5 22 19.5 60 l43 -3 q-2 -55 -28.5 -90.5 q-26.5 -35.5 -72.5 -35.5 Z" /></font>
</defs>
</svg>
