<?xml version="1.0" standalone="no"?><!DOCTYPE svg PUBLIC "-//W3C//DTD SVG 1.1//EN" "http://www.w3.org/Graphics/SVG/1.1/DTD/svg11.dtd" ><svg xmlns="http://www.w3.org/2000/svg"><metadata></metadata><defs><font id="OlegZhuravlev,GladkikhIvan: Bender Black Italic: 2009" horiz-adv-x="2345"><font-face font-family="Bender" font-weight="900" font-stretch="normal" units-per-em="1000" panose-1="2 0 5 3 2 0 0 9 0 4" ascent="920" descent="-180" x-height="4" bbox="-78 -330 2454 974" underline-thickness="50" underline-position="-75" unicode-range="U+0020-2122" /><missing-glyph horiz-adv-x="330"  /><glyph glyph-name="space" unicode=" " d="" /><glyph glyph-name="exclam" unicode="!" d="M96 210 l80 500 l168 0 l-96 -500 l-152 0 ZM54 27 l15 85 l50 42 l81 0 l39 -42 l-15 -85 l-49 -42 l-86 0 l-35 42 Z" /><glyph glyph-name="quotedbl" unicode="&quot;" d="M106 390 l39 320 l142 0 l-75 -320 l-106 0 ZM308 390 l39 320 l142 0 l-75 -320 l-106 0 Z" /><glyph glyph-name="numbersign" unicode="#" d="M196 558 l160 0 l87 152 l151 0 l-87 -152 l120 0 l87 152 l151 0 l-87 -152 l110 0 l-24 -135 l-163 0 l-77 -136 l108 0 l-24 -135 l-161 0 l-85 -152 l-151 0 l85 152 l-120 0 l-85 -152 l-151 0 l85 152 l-109 0 l24 135 l162 0 l77 136 l-107 0 l24 135 ZM430 423 l-77 -136 l120 0 l77 136 l-120 0 Z" /><glyph glyph-name="dollar" unicode="$" d="M485 710 l56 0 l135 -49 l-71 -139 l-119 43 l-172 0 l-40 -34 l-4 -25 l8 -27 l295 -138 l28 -79 l-24 -135 l-149 -127 l-68 0 l-13 -70 l-139 0 l13 70 l-57 0 l-136 49 l72 139 l118 -43 l173 0 l40 34 l4 25 l-8 27 l-294 138 l-29 79 l24 135 l150 127 l68 0 l12 70 l139 0 l-12 -70 Z" /><glyph glyph-name="percent" unicode="%" d="M641 215 l-27 -23 l-9 -54 l19 -23 l54 0 l27 23 l9 54 l-19 23 l-54 0 ZM735 735 l103 -91 l-633 -669 l-103 91 l633 669 ZM616 330 l146 0 l80 -97 l-24 -136 l-114 -97 l-146 0 l-80 97 l24 136 l114 97 ZM262 595 l-27 -23 l-9 -54 l19 -23 l54 0 l27 23 l9 54 l-19 23 l-54 0 ZM237 710 l146 0 l80 -97 l-24 -136 l-114 -97 l-146 0 l-80 97 l24 136 l114 97 Z" /><glyph glyph-name="ampersand" unicode="&amp;" d="M334 517 l175 -250 l83 64 l79 -109 l-85 -65 l58 -82 l-126 -95 l-57 80 l-77 -60 l-236 0 l-106 127 l22 128 l165 138 l-58 81 l19 109 l151 127 l214 0 l105 -127 l-21 -123 l-155 0 l14 83 l-26 32 l-96 0 l-38 -32 l-4 -26 ZM230 135 l108 0 l46 35 l-83 120 l-89 -75 l-8 -48 l26 -32 Z" /><glyph glyph-name="quotesingle" unicode="&#39;" d="M106 390 l39 320 l142 0 l-75 -320 l-106 0 Z" /><glyph glyph-name="parenleft" unicode="(" d="M23 -36 l108 614 l110 138 l153 49 l22 -136 l-90 -29 l-46 -59 l-95 -540 l25 -59 l80 -29 l-70 -136 l-136 49 l-61 138 Z" /><glyph glyph-name="parenright" unicode=")" d="M367 578 l-108 -614 l-109 -138 l-154 -49 l-21 136 l89 29 l47 59 l95 540 l-26 59 l-80 29 l70 136 l137 -49 l60 -138 Z" /><glyph glyph-name="asterisk" unicode="*" d="M378 622 l92 48 l39 -97 l-101 -53 l82 -53 l-73 -97 l-75 48 l-15 -88 l-110 0 l15 88 l-91 -48 l-39 97 l100 53 l-81 53 l73 97 l74 -48 l16 88 l110 0 l-16 -88 Z" /><glyph glyph-name="plus" unicode="+" d="M280 580 l144 0 l-30 -168 l168 0 l-24 -135 l-168 0 l-29 -167 l-144 0 l29 167 l-168 0 l24 135 l168 0 l30 168 Z" /><glyph glyph-name="comma" unicode="," d="M-41 -180 l115 290 l145 0 l-156 -290 l-104 0 Z" /><glyph glyph-name="hyphen" unicode="-" d="M58 277 l24 135 l460 0 l-24 -135 l-460 0 Z" /><glyph glyph-name="period" unicode="." d="M24 27 l15 85 l50 42 l81 0 l39 -42 l-15 -85 l-49 -42 l-86 0 l-35 42 Z" /><glyph glyph-name="slash" unicode="/" d="M110 -30 l-111 82 l572 688 l112 -82 l-573 -688 Z" /><glyph glyph-name="zero" unicode="0" d="M304 710 l277 0 l116 -126 l-80 -458 l-161 -126 l-277 0 l-117 126 l80 458 l162 126 ZM427 135 l54 42 l49 279 l-258 -321 l155 0 ZM332 575 l-54 -42 l-49 -279 l258 321 l-155 0 Z" /><glyph glyph-name="one" unicode="1" d="M214 454 l-33 -28 l-88 106 l210 178 l122 0 l-102 -575 l91 0 l-23 -135 l-337 0 l23 135 l91 0 l56 317 l19 35 l-2 2 l-27 -35 Z" /><glyph glyph-name="two" unicode="2" d="M58 214 l372 189 l50 48 l13 74 l-33 40 l-181 0 l-134 -40 l-19 138 l160 47 l268 0 l104 -128 l-32 -180 l-118 -111 l-286 -146 l359 0 l-25 -145 l-535 0 l37 214 Z" /><glyph glyph-name="three" unicode="3" d="M411 565 l-290 0 l26 145 l534 0 l-22 -122 l-207 -157 l-38 -21 l1 -3 l38 13 l49 0 l105 -127 l-29 -166 l-150 -127 l-284 0 l-136 49 l72 139 l118 -43 l189 0 l46 40 l11 60 l-32 40 l-210 0 l22 126 l187 143 l39 21 l-2 3 l-37 -13 Z" /><glyph glyph-name="four" unicode="4" d="M571 276 l73 0 l-25 -145 l-73 0 l-23 -131 l-155 0 l23 131 l-368 0 l24 141 l473 438 l128 0 l-77 -434 ZM436 452 l-178 -165 l-39 -21 l2 -3 l37 13 l158 0 l31 174 l19 35 l-3 2 l-27 -35 Z" /><glyph glyph-name="five" unicode="5" d="M172 710 l510 0 l-26 -145 l-355 0 l-21 -117 l237 0 l106 -127 l-34 -194 l-150 -127 l-259 0 l-142 50 l71 138 l121 -43 l166 0 l48 40 l14 78 l-34 40 l-324 0 l72 407 Z" /><glyph glyph-name="six" unicode="6" d="M62 128 l80 454 l150 128 l280 0 l135 -48 l-70 -138 l-116 41 l-187 0 l-47 -40 l-16 -89 l66 14 l200 0 l104 -128 l-34 -194 l-149 -128 l-291 0 l-105 128 ZM443 305 l-157 0 l-39 -9 l-20 -111 l33 -40 l155 0 l47 40 l14 80 l-33 40 Z" /><glyph glyph-name="seven" unicode="7" d="M338 164 l-28 -164 l-155 0 l35 202 l275 363 l-366 0 l26 145 l525 0 l-31 -176 l-281 -370 Z" /><glyph glyph-name="eight" unicode="8" d="M343 585 l-47 -40 l-13 -74 q7 -6 19 -17 q12 -11 18 -17 l142 0 q41 29 49 34 l13 74 l-33 40 l-148 0 ZM298 292 l-59 -41 l-12 -65 l34 -41 l156 0 l48 41 l12 65 l-45 41 l-134 0 ZM301 730 l282 0 l106 -127 l-32 -183 l-79 -55 l64 -58 l-32 -180 l-150 -127 l-292 0 l-106 127 l32 180 l84 58 l-59 55 l32 183 l150 127 Z" /><glyph glyph-name="nine" unicode="9" d="M673 582 l-80 -454 l-149 -128 l-280 0 l-136 48 l70 138 l116 -41 l187 0 l47 40 l16 89 l-66 -14 l-200 0 l-104 128 l34 194 l150 128 l291 0 l104 -128 ZM292 405 l157 0 l39 9 l20 111 l-33 40 l-155 0 l-47 -40 l-14 -80 l33 -40 Z" /><glyph glyph-name="colon" unicode=":" d="M24 27 l15 85 l50 42 l81 0 l39 -42 l-15 -85 l-49 -42 l-86 0 l-35 42 ZM82 353 l15 85 l49 42 l81 0 l40 -42 l-15 -85 l-50 -42 l-86 0 l-34 42 Z" /><glyph glyph-name="semicolon" unicode=";" d="M89 353 l15 85 l49 42 l81 0 l40 -42 l-15 -85 l-50 -42 l-86 0 l-34 42 ZM-41 -180 l115 290 l145 0 l-156 -290 l-104 0 Z" /><glyph glyph-name="less" unicode="&lt;" d="M49 223 l14 80 l302 233 l79 -110 l-212 -163 l154 -163 l-117 -110 l-220 233 Z" /><glyph glyph-name="equal" unicode="=" d="M78 388 l22 125 l460 0 l-22 -125 l-460 0 ZM41 177 l22 125 l460 0 l-22 -125 l-460 0 Z" /><glyph glyph-name="greater" unicode="&gt;" d="M412 303 l-14 -80 l-302 -233 l-79 110 l212 163 l-154 163 l117 110 l220 -233 Z" /><glyph glyph-name="question" unicode="?" d="M293 565 l-115 -97 l-87 107 l160 135 l294 0 l104 -127 l-32 -183 l-219 -128 l-10 -62 l-155 0 l22 125 l218 128 l11 63 l-32 39 l-159 0 ZM193 27 l15 85 l50 42 l81 0 l39 -42 l-15 -85 l-49 -42 l-86 0 l-35 42 Z" /><glyph glyph-name="at" unicode="@" d="M709 230 l3 -56 l32 0 l24 20 l55 316 l-59 65 l-397 0 l-83 -65 l-74 -424 l59 -65 l480 0 l-24 -135 l-536 0 l-134 146 l94 532 l186 146 l509 0 l134 -146 l-72 -408 l-127 -107 l-190 0 l-4 75 l-66 -63 l-161 0 l-81 97 l18 101 l115 97 l186 0 l8 45 l-15 19 l-104 0 l-122 -39 l-18 109 l141 45 l169 0 l89 -107 l-35 -198 ZM572 218 l6 33 l-124 0 l-30 -25 l-6 -35 l21 -25 l79 0 l54 52 Z" /><glyph glyph-name="A" unicode="A" d="M354 730 l148 0 l113 -701 l-155 -49 l-26 159 l-225 0 l-77 -159 l-137 49 l359 701 ZM419 274 l-27 166 l0 74 l-4 0 l-26 -74 l-85 -166 l142 0 Z" /><glyph glyph-name="B" unicode="B" d="M485 256 l-46 41 l-182 0 l-27 -152 l197 0 l45 38 l13 73 ZM304 565 l-22 -123 l187 0 l31 21 l14 77 l-21 25 l-189 0 ZM586 370 l64 -58 l-33 -184 l-150 -128 l-417 0 l125 710 l416 0 l89 -108 l-34 -190 l-60 -42 Z" /><glyph glyph-name="C" unicode="C" d="M422 145 l113 96 l87 -106 l-158 -135 l-296 0 l-106 128 l80 454 l151 128 l289 0 l105 -128 l-23 -132 l-155 0 l13 75 l-33 40 l-155 0 l-47 -40 l-60 -340 l33 -40 l162 0 Z" /><glyph glyph-name="D" unicode="D" d="M50 0 l125 710 l418 0 l105 -129 l-80 -452 l-150 -129 l-418 0 ZM533 525 l-33 40 l-196 0 l-74 -420 l196 0 l47 40 l60 340 Z" /><glyph glyph-name="E" unicode="E" d="M50 0 l125 710 l493 0 l-26 -145 l-338 0 l-21 -122 l296 0 l-26 -145 l-296 0 l-27 -153 l338 0 l-25 -145 l-493 0 Z" /><glyph glyph-name="F" unicode="F" d="M50 0 l125 710 l493 0 l-26 -145 l-338 0 l-26 -150 l296 0 l-26 -145 l-296 0 l-47 -270 l-155 0 Z" /><glyph glyph-name="G" unicode="G" d="M415 145 q25 21 47 40 l14 81 l-153 0 l22 125 l308 0 l-46 -264 l-149 -127 l-290 0 l-106 128 l80 454 l151 128 l289 0 l105 -128 l-23 -132 l-155 0 l13 75 l-33 40 l-155 0 l-47 -40 l-60 -340 l33 -40 l155 0 Z" /><glyph glyph-name="H" unicode="H" d="M516 432 l49 278 l155 0 l-125 -710 l-155 0 l50 287 l-235 0 l-50 -287 l-155 0 l125 710 l155 0 l-49 -278 l235 0 Z" /><glyph glyph-name="I" unicode="I" d="M367 0 l-347 0 l23 135 l96 0 l78 440 l-96 0 l24 135 l347 0 l-24 -135 l-96 0 l-78 -440 l96 0 l-23 -135 Z" /><glyph glyph-name="J" unicode="J" d="M132 0 l-118 141 l124 106 l85 -102 l113 0 l47 40 l67 380 l-138 0 l26 145 l293 0 l-103 -582 l-150 -128 l-246 0 Z" /><glyph glyph-name="K" unicode="K" d="M436 389 l158 -325 l-141 -84 l-145 297 l-65 -61 l-38 -216 l-155 0 l125 710 l155 0 l-48 -273 l315 293 l96 -102 l-257 -239 Z" /><glyph glyph-name="L" unicode="L" d="M50 0 l125 710 l155 0 l-100 -565 l328 0 l-25 -145 l-483 0 Z" /><glyph glyph-name="M" unicode="M" d="M318 710 l149 -341 l5 -38 l4 0 l19 38 l269 341 l143 0 l-125 -710 l-155 0 l66 378 l23 67 l-4 0 l-38 -66 l-179 -227 l-106 0 l-99 227 l-14 66 l-4 0 l-1 -67 l-66 -378 l-155 0 l125 710 l143 0 Z" /><glyph glyph-name="N" unicode="N" d="M270 372 l-65 -372 l-155 0 l125 710 l139 0 l167 -373 l14 -66 l4 0 l1 67 l66 372 l155 0 l-125 -710 l-139 0 l-168 373 l-14 66 l-4 0 l-1 -67 Z" /><glyph glyph-name="O" unicode="O" d="M304 710 l297 0 l116 -126 l-80 -458 l-161 -126 l-297 0 l-117 126 l80 458 l162 126 ZM552 523 l-39 42 l-173 0 l-53 -42 l-60 -336 l39 -42 l173 0 l53 42 l60 336 Z" /><glyph glyph-name="P" unicode="P" d="M245 227 l-40 -227 l-155 0 l125 710 l417 0 l105 -127 l-40 -229 l-150 -127 l-262 0 ZM499 565 l-195 0 l-34 -193 l195 0 l47 40 l20 113 l-33 40 Z" /><glyph glyph-name="Q" unicode="Q" d="M255 0 l-76 0 l-117 126 l80 458 l162 126 l297 0 l116 -126 l-80 -458 l-161 -126 l-71 0 l-25 -138 l-150 0 l25 138 ZM552 523 l-39 42 l-173 0 l-53 -42 l-60 -336 l39 -42 l14 0 l11 60 l145 0 l-11 -60 l14 0 l53 42 l60 336 Z" /><glyph glyph-name="R" unicode="R" d="M503 565 l-199 0 l-27 -156 l199 0 l42 37 l15 82 l-30 37 ZM490 253 l135 -169 l-130 -109 l-231 289 l-13 0 l-46 -264 l-155 0 l125 710 l434 0 l91 -110 l-40 -226 l-130 -110 l-36 0 l-32 17 l-2 -3 l30 -25 Z" /><glyph glyph-name="S" unicode="S" d="M104 448 l24 135 l150 127 l263 0 l135 -49 l-71 -139 l-119 43 l-172 0 l-40 -34 l-4 -25 l8 -27 l295 -138 l28 -79 l-24 -135 l-149 -127 l-264 0 l-136 49 l72 139 l118 -43 l173 0 l40 34 l4 25 l-8 27 l-294 138 l-29 79 Z" /><glyph glyph-name="T" unicode="T" d="M449 565 l-99 -565 l-155 0 l99 565 l-195 0 l26 145 l545 0 l-26 -145 l-195 0 Z" /><glyph glyph-name="U" unicode="U" d="M168 0 l-106 127 l103 583 l155 0 l-93 -525 l33 -40 l155 0 l47 40 l93 525 l155 0 l-103 -583 l-150 -127 l-289 0 Z" /><glyph glyph-name="V" unicode="V" d="M370 0 l-154 0 l-106 682 l151 48 l68 -437 l0 -74 l4 0 l26 74 l222 437 l135 -48 l-346 -682 Z" /><glyph glyph-name="W" unicode="W" d="M498 679 l138 0 l46 -322 l2 -69 l4 0 l24 69 l177 373 l137 -44 l-325 -686 l-118 0 l-55 378 l0 69 l-4 0 l-24 -69 l-187 -378 l-118 0 l-85 686 l153 44 l45 -373 l0 -69 l4 0 l26 69 l160 322 Z" /><glyph glyph-name="X" unicode="X" d="M260 735 l110 -217 l5 -38 l4 0 l19 38 l186 217 l116 -91 l-250 -291 l152 -285 l-147 -93 l-115 215 l-5 38 l-4 0 l-19 -38 l-191 -215 l-115 93 l254 285 l-148 291 l148 91 Z" /><glyph glyph-name="Y" unicode="Y" d="M711 665 l-304 -445 l-38 -220 l-155 0 l39 222 l-146 443 l151 70 l97 -295 l0 -69 l4 0 l24 69 l201 295 l127 -70 Z" /><glyph glyph-name="Z" unicode="Z" d="M430 565 l-308 0 l26 145 l527 0 l-21 -115 l-395 -439 l-39 -25 l1 -3 l38 17 l308 0 l-25 -145 l-527 0 l19 113 l396 441 l40 25 l-2 3 l-38 -17 Z" /><glyph glyph-name="bracketleft" unicode="[" d="M177 -43 l104 0 l-24 -135 l-259 0 l158 898 l259 0 l-23 -135 l-104 0 l-111 -628 Z" /><glyph glyph-name="backslash" unicode="\" d="M576 52 l-141 -82 l-329 688 l140 82 l330 -688 Z" /><glyph glyph-name="bracketright" unicode="]" d="M-17 -43 l103 0 l111 628 l-104 0 l23 135 l259 0 l-158 -898 l-258 0 l24 135 Z" /><glyph glyph-name="asciicircum" unicode="^" d="M337 710 l114 0 l171 -286 l-134 -92 l-124 207 l-198 -207 l-102 92 l273 286 Z" /><glyph glyph-name="underscore" unicode="_" d="M-35 -145 l25 145 l506 0 l-26 -145 l-505 0 Z" /><glyph glyph-name="grave" unicode="`" d="M264 710 l100 -230 l-140 0 l-119 230 l159 0 Z" /><glyph glyph-name="a" unicode="a" d="M579 436 l-47 -267 l9 -156 l-128 -28 l-4 78 l-66 -63 l-215 0 l-90 107 l58 329 l127 107 l267 0 l89 -107 ZM399 398 l-135 0 l-23 -19 l-38 -215 l16 -19 l109 0 l54 52 l32 182 l-15 19 Z" /><glyph glyph-name="b" unicode="b" d="M316 580 l-13 -74 l56 37 l169 0 l89 -107 l-61 -349 l-127 -107 l-266 0 l-89 107 l83 472 l-18 119 l155 48 l22 -146 ZM277 361 l-38 -217 l16 -19 l134 0 l22 19 l41 235 l-15 19 l-103 0 l-57 -37 Z" /><glyph glyph-name="c" unicode="c" d="M390 145 l132 40 l20 -138 l-158 -47 l-236 0 l-90 107 l58 329 l127 107 l266 0 l89 -107 l-19 -111 l-155 0 l9 54 l-15 19 l-134 0 l-23 -19 l-38 -215 l16 -19 l151 0 Z" /><glyph glyph-name="d" unicode="d" d="M347 145 l54 52 l29 164 l-43 37 l-103 0 l-23 -19 l-38 -215 l16 -19 l108 0 ZM362 0 l-214 0 l-90 107 l58 329 l127 107 l169 0 l44 -37 l36 204 l155 0 l-96 -541 l9 -156 l-128 -28 l-4 78 l-66 -63 Z" /><glyph glyph-name="e" unicode="e" d="M386 135 l132 40 l19 -129 l-155 -46 l-234 0 l-90 107 l58 329 l127 107 l266 0 l89 -107 l-24 -139 l-115 -97 l-229 0 l-8 -46 l15 -19 l149 0 ZM287 418 l-22 -19 l-13 -74 l158 0 l16 14 l11 60 l-16 19 l-134 0 Z" /><glyph glyph-name="f" unicode="f" d="M97 -16 l59 339 l-90 0 l26 145 l90 0 l24 135 l126 107 l141 0 l141 -47 l-67 -137 l-118 39 l-51 0 l-28 -24 l-13 -73 l135 0 l-26 -145 l-135 0 l-63 -360 l-74 -146 l-137 48 l60 119 Z" /><glyph glyph-name="g" unicode="g" d="M511 -61 l-127 -107 l-224 0 l-142 47 l68 138 l118 -40 l139 0 l23 19 l14 81 l-56 -37 l-169 0 l-90 107 l55 309 l127 107 l266 0 l89 -107 l-91 -517 ZM406 222 l31 177 l-16 19 l-134 0 l-22 -19 l-35 -195 l16 -19 l103 0 l57 37 Z" /><glyph glyph-name="h" unicode="h" d="M214 0 l-155 0 l98 559 l-18 119 l155 48 l22 -146 l-13 -74 l56 37 l169 0 l89 -107 l-76 -436 l-155 0 l66 379 l-15 19 l-103 0 l-57 -37 l-63 -361 Z" /><glyph glyph-name="i" unicode="i" d="M126 381 l-18 119 l154 48 l22 -146 l-70 -402 l-155 0 l67 381 ZM167 627 l13 75 l50 42 l71 0 l39 -42 l-13 -75 l-49 -42 l-76 0 l-35 42 Z" /><glyph glyph-name="j" unicode="j" d="M154 381 l-18 119 l154 48 l22 -146 l-73 -419 l-98 -108 l-195 -65 l-24 139 l140 47 l30 33 l62 352 ZM195 627 l13 75 l50 42 l71 0 l39 -42 l-13 -75 l-49 -42 l-76 0 l-35 42 Z" /><glyph glyph-name="k" unicode="k" d="M157 559 l-18 119 l155 48 l22 -146 l-39 -220 l241 203 l87 -108 l-202 -170 l135 -208 l-134 -97 l-131 201 l-32 -27 l-27 -154 l-155 0 l98 559 Z" /><glyph glyph-name="l" unicode="l" d="M157 559 l-18 119 l155 48 l22 -146 l-102 -580 l-155 0 l98 559 Z" /><glyph glyph-name="m" unicode="m" d="M121 374 l-8 156 l128 28 l4 -78 l66 63 l170 0 l38 -51 l56 51 l221 0 l89 -107 l-76 -436 l-155 0 l66 379 l-15 19 l-98 0 l-32 -29 l-65 -369 l-155 0 l65 369 l-22 29 l-72 0 l-54 -52 l-61 -346 l-155 0 l65 374 Z" /><glyph glyph-name="n" unicode="n" d="M615 436 l-76 -436 l-155 0 l66 379 l-15 19 l-109 0 l-54 -52 l-61 -346 l-155 0 l65 374 l-8 156 l128 28 l4 -78 l66 63 l215 0 l89 -107 Z" /><glyph glyph-name="o" unicode="o" d="M546 108 l-126 -108 l-273 0 l-88 108 l57 327 l126 108 l273 0 l88 -108 l-57 -327 ZM239 145 l139 0 l22 19 l38 215 l-15 19 l-139 0 l-23 -19 l-38 -215 l16 -19 Z" /><glyph glyph-name="p" unicode="p" d="M326 398 l-54 -52 l-29 -164 l43 -37 l103 0 l22 19 l38 215 l-15 19 l-108 0 ZM311 543 l214 0 l89 -107 l-58 -329 l-126 -107 l-169 0 l-44 37 l-36 -205 l-155 0 l95 542 l-8 156 l128 28 l4 -78 l66 63 Z" /><glyph glyph-name="q" unicode="q" d="M360 -37 l13 74 l-56 -37 l-169 0 l-90 107 l62 349 l127 107 l266 0 l89 -107 l-83 -472 l18 -119 l-155 -48 l-22 146 ZM399 182 l38 217 l-16 19 l-134 0 l-22 -19 l-42 -235 l16 -19 l103 0 l57 37 Z" /><glyph glyph-name="r" unicode="r" d="M326 398 l-54 -52 l-61 -346 l-155 0 l65 374 l-8 156 l128 28 l4 -78 l66 63 l188 0 l96 -114 l-121 -105 l-63 74 l-85 0 Z" /><glyph glyph-name="s" unicode="s" d="M238 374 l7 -11 l248 -63 l32 -74 l-21 -119 l-125 -107 l-224 0 l-137 48 l66 130 l122 -43 l128 0 l24 20 l2 15 l-5 12 l-249 63 l-32 74 l20 117 l126 107 l225 0 l137 -48 l-66 -130 l-123 43 l-129 0 l-23 -20 l-3 -14 Z" /><glyph glyph-name="t" unicode="t" d="M176 378 l-90 0 l26 145 l90 0 l27 157 l155 0 l-27 -157 l135 0 l-26 -145 l-135 0 l-37 -209 l20 -24 l52 0 q23 7 76.5 23 q53.5 16 54.5 16 l19 -137 l-158 -47 l-141 0 l-89 107 l48 271 Z" /><glyph glyph-name="u" unicode="u" d="M58 107 l77 436 l155 0 l-67 -379 l16 -19 l109 0 l54 52 l61 346 l155 0 l-66 -374 l9 -156 l-128 -28 l-4 78 l-66 -63 l-215 0 l-90 107 Z" /><glyph glyph-name="v" unicode="v" d="M324 0 l-128 0 l-117 507 l149 56 l65 -286 l0 -74 l4 0 l26 74 l167 286 l129 -56 l-295 -507 Z" /><glyph glyph-name="w" unicode="w" d="M398 255 l-140 -255 l-107 0 l-70 519 l145 44 l31 -238 l0 -69 l4 0 l26 69 l105 192 l134 0 l37 -192 l2 -69 l4 0 l24 69 l115 238 l129 -44 l-252 -519 l-107 0 l-52 255 l1 69 l-4 0 l-25 -69 Z" /><glyph glyph-name="x" unicode="x" d="M381 -26 l-95 151 l-6 38 l-4 0 l-18 -38 l-149 -151 l-102 96 l197 201 l-126 202 l136 95 l95 -153 l5 -38 l4 0 l19 38 l149 153 l102 -95 l-198 -202 l127 -201 l-136 -96 Z" /><glyph glyph-name="y" unicode="y" d="M335 249 l161 314 l133 -47 l-307 -604 l-94 -80 l-185 0 l25 145 l123 0 l20 17 l11 22 l-25 0 l-119 488 l151 59 l76 -314 l1 -69 l4 0 l25 69 Z" /><glyph glyph-name="z" unicode="z" d="M322 408 l-237 0 l24 135 l462 0 l-21 -118 l-292 -279 l-39 -25 l1 -3 l38 17 l237 0 l-23 -135 l-462 0 l20 117 l293 280 l39 25 l-2 3 l-38 -17 Z" /><glyph glyph-name="braceleft" unicode="{" d="M51 238 l12 66 l100 67 l38 215 l106 132 l170 37 l7 -140 l-99 -22 l-36 -44 l-40 -226 l-77 -52 l59 -52 l-40 -226 l21 -44 l91 -22 l-57 -140 l-157 37 l-59 132 l38 215 l-77 67 Z" /><glyph glyph-name="bar" unicode="|" d="M176 -168 l-156 0 l155 878 l156 0 l-155 -878 Z" /><glyph glyph-name="braceright" unicode="}" d="M409 304 l-12 -66 l-99 -67 l-38 -215 l-107 -132 l-168 -37 l-7 140 l98 22 l35 44 l40 226 l77 52 l-59 52 l40 226 l-20 44 l-91 22 l57 140 l156 -37 l60 -132 l-38 -215 l76 -67 Z" /><glyph glyph-name="asciitilde" unicode="~" d="M579 481 l117 -141 l-123 -106 l-85 102 l-8 0 l-151 -128 l-141 0 l-117 141 l124 106 l85 -102 l8 0 l150 128 l141 0 Z" /><glyph glyph-name="uni00A0" unicode=" " d="M1373 160 q-13 -71 -71 -120.5 q-58 -49.5 -129 -49.5 q-71 0 -112 49.5 q-41 49.5 -28 120.5 q12 71 70.5 120.5 q58.5 49.5 129.5 49.5 q71 0 111.5 -49.5 q40.5 -49.5 28.5 -120.5 ZM330 0 l-320 0 l56 320 l264 -320 ZM2010 0 l-320 0 l216 320 l104 -320 ZM2218 160 q-13 -71 -71 -120.5 q-58 -49.5 -129 -49.5 l60 340 q71 0 111.5 -49.5 q40.5 -49.5 28.5 -120.5 ZM1736 320 l-52 -295 l-233 295 l285 0 ZM1370 0 l52 295 l233 -295 l-285 0 ZM716 320 l104 -320 l-160 0 l56 320 ZM1036 320 l-56 -320 l-160 0 l216 320 ZM330 0 l28 160 l292 -160 l-320 0 ZM386 320 l320 0 l-348 -160 l28 160 ZM537 355 l-320 0 l377 320 l-57 -320 ZM930 515 q-12 -71 -70.5 -120.5 q-58.5 -49.5 -129.5 -49.5 q-71 0 -111.5 49.5 q-40.5 49.5 -28.5 120.5 q13 71 71 120.5 q58 49.5 129 49.5 q71 0 112 -49.5 q41 -49.5 28 -120.5 ZM929 675 l320 0 l-217 -320 l-103 320 ZM1397 355 l-320 0 l217 320 l103 -320 ZM1774 675 l-52 -295 l-233 295 l285 0 ZM1407 355 l52 295 l233 -295 l-285 0 ZM2124 675 l-52 -295 l-233 295 l285 0 ZM1757 355 l52 295 l233 -295 l-285 0 ZM2134 675 l320 0 l-217 -320 l-103 320 Z" /><glyph glyph-name="cent" unicode="¢" d="M444 543 l65 0 l89 -107 l-19 -111 l-155 0 l9 54 l-15 19 l-134 0 l-23 -19 l-38 -215 l16 -19 l151 0 l132 40 l20 -138 l-158 -47 l-35 0 l-13 -70 l-139 0 l13 70 l-62 0 l-90 107 l58 329 l127 107 l62 0 l13 70 l139 0 l-13 -70 Z" /><glyph glyph-name="currency" unicode="¤" d="M483 565 l-199 0 l-26 -148 l185 0 l56 36 l14 76 l-30 36 ZM497 290 l37 -149 l84 -28 l-65 -133 l-145 48 l-41 167 l-148 0 l-34 -195 l-155 0 l34 195 l-40 0 l17 95 l40 0 l5 32 l-40 0 l17 95 l40 0 l52 293 l434 0 l91 -110 l-35 -198 l-125 -80 l-279 0 l-5 -32 l261 0 Z" /><glyph glyph-name="yen" unicode="¥" d="M104 240 l17 100 l92 0 l-106 325 l151 70 l97 -295 l0 -69 l4 0 l24 69 l201 295 l127 -70 l-223 -325 l92 0 l-17 -100 l-142 0 l-14 -20 l-3 -20 l152 0 l-18 -100 l-152 0 l-17 -100 l-155 0 l17 100 l-152 0 l18 100 l152 0 l4 22 l-6 18 l-143 0 Z" /><glyph glyph-name="brokenbar" unicode="¦" d="M331 710 l-66 -375 l-156 0 l66 375 l156 0 ZM176 -168 l-156 0 l66 375 l156 0 l-66 -375 Z" /><glyph glyph-name="section" unicode="§" d="M73 230 l23 132 l70 62 l-27 16 l-19 54 l19 109 l126 107 l233 0 l132 -48 l-67 -130 l-118 43 l-137 0 l-23 -19 l-3 -16 l6 -17 l239 -132 l29 -79 l-24 -132 l-70 -62 l27 -16 l20 -54 l-19 -109 l-126 -107 l-233 0 l-133 48 l67 130 l119 -43 l137 0 l23 19 l3 16 l-6 17 l-240 132 l-28 79 ZM385 298 l-95 53 l-48 -43 l-7 -40 l9 -24 l94 -53 l49 43 l7 40 l-9 24 Z" /><glyph glyph-name="copyright" unicode="©" d="M938 564 l-74 -418 l-185 -146 l-479 0 l-135 146 l74 418 l186 146 l479 0 l134 -146 ZM729 200 l54 310 l-59 65 l-367 0 l-83 -65 l-54 -310 l59 -65 l367 0 l83 65 ZM552 290 l104 31 l16 -111 l-118 -35 l-182 0 l-75 93 l30 174 l109 93 l195 0 l75 -93 l-13 -75 l-125 0 l6 32 l-17 21 l-87 0 l-25 -21 l-16 -88 l18 -21 l105 0 Z" /><glyph glyph-name="guillemotleft" unicode="«" d="M494 430 l-216 -167 l157 -167 l-118 -110 l-261 277 l359 277 l79 -110 ZM811 430 l-216 -167 l157 -167 l-118 -110 l-261 277 l359 277 l79 -110 Z" /><glyph glyph-name="logicalnot" unicode="¬" d="M290 177 l17 100 l-249 0 l24 135 l405 0 l-41 -235 l-156 0 Z" /><glyph glyph-name="uni00AD" unicode="­" d="M58 277 l24 135 l460 0 l-24 -135 l-460 0 Z" /><glyph glyph-name="registered" unicode="®" d="M938 564 l-74 -418 l-185 -146 l-479 0 l-135 146 l74 418 l186 146 l479 0 l134 -146 ZM729 200 l54 310 l-59 65 l-367 0 l-83 -65 l-54 -310 l59 -65 l367 0 l83 65 ZM451 435 l-9 -53 l124 0 l18 15 l4 23 l-13 15 l-124 0 ZM609 271 l69 -78 l-24 -18 l-122 0 l-92 107 l-16 0 l-19 -107 l-125 0 l64 360 l336 0 l44 -52 l-27 -149 l-62 -52 l-22 0 l-32 17 l-2 -3 l30 -25 Z" /><glyph glyph-name="degree" unicode="°" d="M262 595 l-27 -23 l-9 -54 l19 -23 l54 0 l27 23 l9 54 l-19 23 l-54 0 ZM237 710 l146 0 l80 -97 l-24 -136 l-114 -97 l-146 0 l-80 97 l24 136 l114 97 Z" /><glyph glyph-name="plusminus" unicode="±" d="M280 580 l144 0 l-25 -140 l168 0 l-24 -135 l-168 0 l-24 -140 l-144 0 l24 140 l-168 0 l24 135 l168 0 l25 140 ZM25 30 l20 115 l460 0 l-20 -115 l-460 0 Z" /><glyph glyph-name="mu" unicode="µ" d="M135 543 l155 0 l-64 -365 l28 -33 l94 0 l54 52 l61 346 l155 0 l-66 -374 l9 -156 l-128 -28 l-4 78 l-66 -63 l-144 0 l-20 24 l-34 -192 l-155 0 l125 711 Z" /><glyph glyph-name="paragraph" unicode="¶" d="M354 -168 l-145 0 l58 330 l-91 0 l-105 130 l51 291 l151 127 l236 0 l-155 -878 ZM589 -168 l-145 0 l155 878 l145 0 l-155 -878 Z" /><glyph glyph-name="periodcentered" unicode="·" d="M125 313 l15 85 l49 42 l81 0 l40 -42 l-15 -85 l-50 -42 l-86 0 l-34 42 Z" /><glyph glyph-name="guillemotright" unicode="»" d="M550 263 l-158 167 l119 110 l261 -277 l-359 -277 l-80 110 l217 167 ZM233 263 l-158 167 l119 110 l261 -277 l-359 -277 l-80 110 l217 167 Z" /><glyph glyph-name="Agrave" unicode="À" d="M414 960 l92 -210 l-140 0 l-111 210 l159 0 ZM344 710 l162 0 l109 -681 l-155 -49 l-26 159 l-225 0 l-77 -159 l-137 49 l349 681 ZM419 274 l-27 166 l0 74 l-4 0 l-26 -74 l-85 -166 l142 0 Z" /><glyph glyph-name="Aacute" unicode="Á" d="M362 750 l166 210 l159 0 l-185 -210 l-140 0 ZM344 710 l162 0 l109 -681 l-155 -49 l-26 159 l-225 0 l-77 -159 l-137 49 l349 681 ZM419 274 l-27 166 l0 74 l-4 0 l-26 -74 l-85 -166 l142 0 Z" /><glyph glyph-name="Acircumflex" unicode="Â" d="M219 750 l205 185 l-27 -154 l-38 -31 l-140 0 ZM504 935 l141 -185 l-140 0 l-28 31 l27 154 ZM344 710 l162 0 l109 -681 l-155 -49 l-26 159 l-225 0 l-77 -159 l-137 49 l349 681 ZM419 274 l-27 166 l0 74 l-4 0 l-26 -74 l-85 -166 l142 0 Z" /><glyph glyph-name="Atilde" unicode="Ã" d="M596 962 l79 -95 l-123 -106 l-58 69 l-99 -76 l-103 0 l-79 95 l124 106 l58 -69 l98 76 l103 0 ZM344 710 l162 0 l109 -681 l-155 -49 l-26 159 l-225 0 l-77 -159 l-137 49 l349 681 ZM419 274 l-27 166 l0 74 l-4 0 l-26 -74 l-85 -166 l142 0 Z" /><glyph glyph-name="Adieresis" unicode="Ä" d="M258 808 l13 75 l50 42 l71 0 l39 -42 l-13 -75 l-49 -42 l-76 0 l-35 42 ZM468 808 l13 75 l50 42 l71 0 l39 -42 l-13 -75 l-49 -42 l-76 0 l-35 42 ZM344 710 l162 0 l109 -681 l-155 -49 l-26 159 l-225 0 l-77 -159 l-137 49 l349 681 ZM419 274 l-27 166 l0 74 l-4 0 l-26 -74 l-85 -166 l142 0 Z" /><glyph glyph-name="Aring" unicode="Å" d="M408 860 l86 0 l68 -82 l-14 -76 l-36 -31 l103 -642 l-155 -49 l-26 159 l-225 0 l-77 -159 l-137 49 l329 642 l-26 31 l14 76 l96 82 ZM419 274 l-27 166 l0 74 l-4 0 l-26 -74 l-85 -166 l142 0 ZM420 770 l-17 -15 l-6 -30 l13 -15 l30 0 l17 15 l6 30 l-13 15 l-30 0 Z" /><glyph glyph-name="AE" unicode="Æ" d="M1066 710 l-26 -145 l-328 0 l-21 -122 l286 0 l-26 -145 l-286 0 l-27 -153 l328 0 l-25 -145 l-483 0 l24 139 l-247 0 l-114 -159 l-122 73 l472 657 l595 0 ZM541 565 l-209 -291 l174 0 l51 291 l-16 0 Z" /><glyph glyph-name="Ccedilla" unicode="Ç" d="M288 -125 l-60 0 l23 125 l-83 0 l-106 128 l80 454 l151 128 l289 0 l105 -128 l-23 -132 l-155 0 l13 75 l-33 40 l-155 0 l-47 -40 l-60 -340 l33 -40 l162 0 l113 96 l87 -106 l-158 -135 l-133 0 l-2 -10 l26 0 l66 -81 l-18 -102 l-95 -81 l-106 0 l20 115 l60 0 l9 7 l3 20 l-6 7 Z" /><glyph glyph-name="Egrave" unicode="È" d="M50 0 l125 710 l493 0 l-26 -145 l-338 0 l-21 -122 l296 0 l-26 -145 l-296 0 l-27 -153 l338 0 l-25 -145 l-493 0 ZM432 960 l92 -210 l-140 0 l-111 210 l159 0 Z" /><glyph glyph-name="Eacute" unicode="É" d="M50 0 l125 710 l493 0 l-26 -145 l-338 0 l-21 -122 l296 0 l-26 -145 l-296 0 l-27 -153 l338 0 l-25 -145 l-493 0 ZM341 750 l166 210 l159 0 l-185 -210 l-140 0 Z" /><glyph glyph-name="Ecircumflex" unicode="Ê" d="M50 0 l125 710 l493 0 l-26 -145 l-338 0 l-21 -122 l296 0 l-26 -145 l-296 0 l-27 -153 l338 0 l-25 -145 l-493 0 ZM215 750 l205 185 l-27 -154 l-38 -31 l-140 0 ZM500 935 l141 -185 l-140 0 l-28 31 l27 154 Z" /><glyph glyph-name="Edieresis" unicode="Ë" d="M50 0 l125 710 l493 0 l-26 -145 l-338 0 l-21 -122 l296 0 l-26 -145 l-296 0 l-27 -153 l338 0 l-25 -145 l-493 0 ZM258 808 l13 75 l50 42 l71 0 l39 -42 l-13 -75 l-49 -42 l-76 0 l-35 42 ZM468 808 l13 75 l50 42 l71 0 l39 -42 l-13 -75 l-49 -42 l-76 0 l-35 42 Z" /><glyph glyph-name="Igrave" unicode="Ì" d="M367 0 l-347 0 l23 135 l96 0 l78 440 l-96 0 l24 135 l347 0 l-24 -135 l-96 0 l-78 -440 l96 0 l-23 -135 ZM305 960 l92 -210 l-140 0 l-111 210 l159 0 Z" /><glyph glyph-name="Iacute" unicode="Í" d="M367 0 l-347 0 l23 135 l96 0 l78 440 l-96 0 l24 135 l347 0 l-24 -135 l-96 0 l-78 -440 l96 0 l-23 -135 ZM252 750 l166 210 l159 0 l-185 -210 l-140 0 Z" /><glyph glyph-name="Icircumflex" unicode="Î" d="M367 0 l-347 0 l23 135 l96 0 l78 440 l-96 0 l24 135 l347 0 l-24 -135 l-96 0 l-78 -440 l96 0 l-23 -135 ZM113 750 l205 185 l-27 -154 l-38 -31 l-140 0 ZM398 935 l141 -185 l-140 0 l-28 31 l27 154 Z" /><glyph glyph-name="Idieresis" unicode="Ï" d="M367 0 l-347 0 l23 135 l96 0 l78 440 l-96 0 l24 135 l347 0 l-24 -135 l-96 0 l-78 -440 l96 0 l-23 -135 ZM150 808 l13 75 l50 42 l71 0 l39 -42 l-13 -75 l-49 -42 l-76 0 l-35 42 ZM360 808 l13 75 l50 42 l71 0 l39 -42 l-13 -75 l-49 -42 l-76 0 l-35 42 Z" /><glyph glyph-name="Ntilde" unicode="Ñ" d="M270 372 l-65 -372 l-155 0 l125 710 l139 0 l167 -373 l14 -66 l4 0 l1 67 l66 372 l155 0 l-125 -710 l-139 0 l-168 373 l-14 66 l-4 0 l-1 -67 ZM612 962 l79 -95 l-123 -106 l-58 69 l-99 -76 l-103 0 l-79 95 l124 106 l58 -69 l98 76 l103 0 Z" /><glyph glyph-name="Ograve" unicode="Ò" d="M304 710 l297 0 l116 -126 l-80 -458 l-161 -126 l-297 0 l-117 126 l80 458 l162 126 ZM552 523 l-39 42 l-173 0 l-53 -42 l-60 -336 l39 -42 l173 0 l53 42 l60 336 ZM451 960 l92 -210 l-140 0 l-111 210 l159 0 Z" /><glyph glyph-name="Oacute" unicode="Ó" d="M304 710 l297 0 l116 -126 l-80 -458 l-161 -126 l-297 0 l-117 126 l80 458 l162 126 ZM552 523 l-39 42 l-173 0 l-53 -42 l-60 -336 l39 -42 l173 0 l53 42 l60 336 ZM376 750 l166 210 l159 0 l-185 -210 l-140 0 Z" /><glyph glyph-name="Ocircumflex" unicode="Ô" d="M304 710 l297 0 l116 -126 l-80 -458 l-161 -126 l-297 0 l-117 126 l80 458 l162 126 ZM552 523 l-39 42 l-173 0 l-53 -42 l-60 -336 l39 -42 l173 0 l53 42 l60 336 ZM256 750 l205 185 l-27 -154 l-38 -31 l-140 0 ZM541 935 l141 -185 l-140 0 l-28 31 l27 154 Z" /><glyph glyph-name="Otilde" unicode="Õ" d="M304 710 l297 0 l116 -126 l-80 -458 l-161 -126 l-297 0 l-117 126 l80 458 l162 126 ZM552 523 l-39 42 l-173 0 l-53 -42 l-60 -336 l39 -42 l173 0 l53 42 l60 336 ZM628 962 l79 -95 l-123 -106 l-58 69 l-99 -76 l-103 0 l-79 95 l124 106 l58 -69 l98 76 l103 0 Z" /><glyph glyph-name="Odieresis" unicode="Ö" d="M304 710 l297 0 l116 -126 l-80 -458 l-161 -126 l-297 0 l-117 126 l80 458 l162 126 ZM552 523 l-39 42 l-173 0 l-53 -42 l-60 -336 l39 -42 l173 0 l53 42 l60 336 ZM285 808 l13 75 l50 42 l71 0 l39 -42 l-13 -75 l-49 -42 l-76 0 l-35 42 ZM495 808 l13 75 l50 42 l71 0 l39 -42 l-13 -75 l-49 -42 l-76 0 l-35 42 Z" /><glyph glyph-name="multiply" unicode="×" d="M91 460 l120 102 l98 -119 l140 119 l78 -96 l-140 -119 l97 -118 l-119 -102 l-98 118 l-139 -118 l-79 95 l140 119 l-98 119 Z" /><glyph glyph-name="Oslash" unicode="Ø" d="M124 -30 l-104 91 l51 54 l-9 11 l80 458 l162 126 l297 0 l12 -14 l42 44 l104 -91 l-52 -55 l10 -10 l-80 -458 l-161 -126 l-297 0 l-14 14 l-41 -44 ZM439 145 l53 42 l39 218 l-243 -260 l151 0 ZM287 523 l-39 -218 l243 260 l-151 0 l-53 -42 Z" /><glyph glyph-name="Ugrave" unicode="Ù" d="M168 0 l-106 127 l103 583 l155 0 l-93 -525 l33 -40 l155 0 l47 40 l93 525 l155 0 l-103 -583 l-150 -127 l-289 0 ZM435 950 l92 -210 l-140 0 l-111 210 l159 0 Z" /><glyph glyph-name="Uacute" unicode="Ú" d="M168 0 l-106 127 l103 583 l155 0 l-93 -525 l33 -40 l155 0 l47 40 l93 525 l155 0 l-103 -583 l-150 -127 l-289 0 ZM364 740 l166 210 l159 0 l-185 -210 l-140 0 Z" /><glyph glyph-name="Ucircumflex" unicode="Û" d="M168 0 l-106 127 l103 583 l155 0 l-93 -525 l33 -40 l155 0 l47 40 l93 525 l155 0 l-103 -583 l-150 -127 l-289 0 ZM230 750 l205 185 l-27 -154 l-38 -31 l-140 0 ZM515 935 l141 -185 l-140 0 l-28 31 l27 154 Z" /><glyph glyph-name="Udieresis" unicode="Ü" d="M168 0 l-106 127 l103 583 l155 0 l-93 -525 l33 -40 l155 0 l47 40 l93 525 l155 0 l-103 -583 l-150 -127 l-289 0 ZM270 808 l13 75 l50 42 l71 0 l39 -42 l-13 -75 l-49 -42 l-76 0 l-35 42 ZM480 808 l13 75 l50 42 l71 0 l39 -42 l-13 -75 l-49 -42 l-76 0 l-35 42 Z" /><glyph glyph-name="Yacute" unicode="Ý" d="M711 665 l-304 -445 l-38 -220 l-155 0 l39 222 l-146 443 l151 70 l97 -295 l0 -69 l4 0 l24 69 l201 295 l127 -70 ZM343 740 l166 210 l159 0 l-185 -210 l-140 0 Z" /><glyph glyph-name="germandbls" unicode="ß" d="M300 540 l-95 -540 l-155 0 l106 602 l127 108 l308 0 l89 -108 l-22 -125 l-138 -83 l-2 -14 l6 -11 l104 -26 l32 -74 l-29 -162 l-125 -107 l-119 0 l-137 48 l66 130 l122 -43 l23 0 l24 20 l10 58 l-6 12 l-104 26 l-32 74 l20 117 l138 83 l3 15 l-21 25 l-164 0 l-29 -25 Z" /><glyph glyph-name="agrave" unicode="à" d="M372 793 l92 -210 l-140 0 l-111 210 l159 0 ZM579 436 l-47 -267 l9 -156 l-128 -28 l-4 78 l-66 -63 l-215 0 l-90 107 l58 329 l127 107 l267 0 l89 -107 ZM399 398 l-135 0 l-23 -19 l-38 -215 l16 -19 l109 0 l54 52 l32 182 l-15 19 Z" /><glyph glyph-name="aacute" unicode="á" d="M309 583 l166 210 l159 0 l-185 -210 l-140 0 ZM579 436 l-47 -267 l9 -156 l-128 -28 l-4 78 l-66 -63 l-215 0 l-90 107 l58 329 l127 107 l267 0 l89 -107 ZM399 398 l-135 0 l-23 -19 l-38 -215 l16 -19 l109 0 l54 52 l32 182 l-15 19 Z" /><glyph glyph-name="acircumflex" unicode="â" d="M181 583 l168 150 l144 0 l114 -150 l-140 0 l-61 69 l-85 -69 l-140 0 ZM579 436 l-47 -267 l9 -156 l-128 -28 l-4 78 l-66 -63 l-215 0 l-90 107 l58 329 l127 107 l267 0 l89 -107 ZM399 398 l-135 0 l-23 -19 l-38 -215 l16 -19 l109 0 l54 52 l32 182 l-15 19 Z" /><glyph glyph-name="atilde" unicode="ã" d="M545 795 l79 -95 l-124 -106 l-58 69 l-98 -76 l-103 0 l-79 95 l123 106 l58 -69 l99 76 l103 0 ZM579 436 l-47 -267 l9 -156 l-128 -28 l-4 78 l-66 -63 l-215 0 l-90 107 l58 329 l127 107 l267 0 l89 -107 ZM399 398 l-135 0 l-23 -19 l-38 -215 l16 -19 l109 0 l54 52 l32 182 l-15 19 Z" /><glyph glyph-name="adieresis" unicode="ä" d="M207 637 l13 75 l49 42 l71 0 l40 -42 l-13 -75 l-50 -42 l-76 0 l-34 42 ZM419 637 l13 75 l49 42 l71 0 l40 -42 l-13 -75 l-50 -42 l-76 0 l-34 42 ZM579 436 l-47 -267 l9 -156 l-128 -28 l-4 78 l-66 -63 l-215 0 l-90 107 l58 329 l127 107 l267 0 l89 -107 ZM399 398 l-135 0 l-23 -19 l-38 -215 l16 -19 l109 0 l54 52 l32 182 l-15 19 Z" /><glyph glyph-name="aring" unicode="å" d="M399 738 l-18 -15 l-5 -30 l12 -15 l30 0 l18 15 l5 30 l-12 15 l-30 0 ZM386 828 l86 0 l68 -82 l-13 -76 l-97 -82 l-86 0 l-67 82 l13 76 l96 82 ZM579 436 l-47 -267 l9 -156 l-128 -28 l-4 78 l-66 -63 l-215 0 l-90 107 l58 329 l127 107 l267 0 l89 -107 ZM399 398 l-135 0 l-23 -19 l-38 -215 l16 -19 l109 0 l54 52 l32 182 l-15 19 Z" /><glyph glyph-name="ae" unicode="æ" d="M664 135 l132 40 l19 -129 l-155 -46 l-219 0 l-51 60 l-62 -60 l-200 0 l-90 107 l22 121 l127 107 l205 0 l9 54 l-16 19 l-123 0 l-132 -40 l-18 129 l155 46 l208 0 l25 -30 l36 30 l251 0 l89 -107 l-22 -129 l-115 -97 l-214 0 l-10 -56 l15 -19 l134 0 ZM580 418 l-22 -19 l-11 -64 l143 0 l16 14 l9 50 l-16 19 l-119 0 ZM364 177 l6 33 l-139 0 l-23 -19 l-8 -47 l16 -19 l94 0 l54 52 Z" /><glyph glyph-name="ccedilla" unicode="ç" d="M390 145 l132 40 l20 -138 l-158 -47 l-236 0 l-90 107 l58 329 l127 107 l266 0 l89 -107 l-19 -111 l-155 0 l9 54 l-15 19 l-134 0 l-23 -19 l-38 -215 l16 -19 l151 0 ZM267 -125 l-60 0 l28 154 l80 0 l-7 -39 l26 0 l66 -81 l-18 -102 l-95 -81 l-106 0 l20 115 l60 0 l9 7 l3 20 l-6 7 Z" /><glyph glyph-name="egrave" unicode="è" d="M386 135 l132 40 l19 -129 l-155 -46 l-234 0 l-90 107 l58 329 l127 107 l266 0 l89 -107 l-24 -139 l-115 -97 l-229 0 l-8 -46 l15 -19 l149 0 ZM287 418 l-22 -19 l-13 -74 l158 0 l16 14 l11 60 l-16 19 l-134 0 ZM377 793 l92 -210 l-140 0 l-111 210 l159 0 Z" /><glyph glyph-name="eacute" unicode="é" d="M386 135 l132 40 l19 -129 l-155 -46 l-234 0 l-90 107 l58 329 l127 107 l266 0 l89 -107 l-24 -139 l-115 -97 l-229 0 l-8 -46 l15 -19 l149 0 ZM287 418 l-22 -19 l-13 -74 l158 0 l16 14 l11 60 l-16 19 l-134 0 ZM311 583 l166 210 l159 0 l-185 -210 l-140 0 Z" /><glyph glyph-name="ecircumflex" unicode="ê" d="M386 135 l132 40 l19 -129 l-155 -46 l-234 0 l-90 107 l58 329 l127 107 l266 0 l89 -107 l-24 -139 l-115 -97 l-229 0 l-8 -46 l15 -19 l149 0 ZM287 418 l-22 -19 l-13 -74 l158 0 l16 14 l11 60 l-16 19 l-134 0 ZM169 583 l168 150 l144 0 l114 -150 l-140 0 l-61 69 l-85 -69 l-140 0 Z" /><glyph glyph-name="edieresis" unicode="ë" d="M386 135 l132 40 l19 -129 l-155 -46 l-234 0 l-90 107 l58 329 l127 107 l266 0 l89 -107 l-24 -139 l-115 -97 l-229 0 l-8 -46 l15 -19 l149 0 ZM287 418 l-22 -19 l-13 -74 l158 0 l16 14 l11 60 l-16 19 l-134 0 ZM207 637 l13 75 l49 42 l71 0 l40 -42 l-13 -75 l-50 -42 l-76 0 l-34 42 ZM419 637 l13 75 l49 42 l71 0 l40 -42 l-13 -75 l-50 -42 l-76 0 l-34 42 Z" /><glyph glyph-name="igrave" unicode="ì" d="M126 381 l-18 119 l154 48 l22 -146 l-70 -402 l-155 0 l67 381 ZM231 793 l92 -210 l-140 0 l-111 210 l159 0 Z" /><glyph glyph-name="iacute" unicode="í" d="M126 381 l-18 119 l154 48 l22 -146 l-70 -402 l-155 0 l67 381 ZM142 583 l166 210 l159 0 l-185 -210 l-140 0 Z" /><glyph glyph-name="icircumflex" unicode="î" d="M126 381 l-18 119 l154 48 l22 -146 l-70 -402 l-155 0 l67 381 ZM26 583 l168 150 l144 0 l114 -150 l-140 0 l-61 69 l-85 -69 l-140 0 Z" /><glyph glyph-name="idieresis" unicode="ï" d="M126 381 l-18 119 l154 48 l22 -146 l-70 -402 l-155 0 l67 381 ZM61 627 l13 75 l50 42 l71 0 l39 -42 l-13 -75 l-49 -42 l-76 0 l-35 42 ZM273 627 l13 75 l50 42 l71 0 l39 -42 l-13 -75 l-49 -42 l-76 0 l-35 42 Z" /><glyph glyph-name="ntilde" unicode="ñ" d="M615 436 l-76 -436 l-155 0 l66 379 l-15 19 l-109 0 l-54 -52 l-61 -346 l-155 0 l65 374 l-8 156 l128 28 l4 -78 l66 63 l215 0 l89 -107 ZM574 795 l79 -95 l-124 -106 l-58 69 l-98 -76 l-103 0 l-79 95 l123 106 l58 -69 l99 76 l103 0 Z" /><glyph glyph-name="ograve" unicode="ò" d="M546 108 l-126 -108 l-273 0 l-88 108 l57 327 l126 108 l273 0 l88 -108 l-57 -327 ZM239 145 l139 0 l22 19 l38 215 l-15 19 l-139 0 l-23 -19 l-38 -215 l16 -19 ZM373 793 l92 -210 l-140 0 l-111 210 l159 0 Z" /><glyph glyph-name="oacute" unicode="ó" d="M546 108 l-126 -108 l-273 0 l-88 108 l57 327 l126 108 l273 0 l88 -108 l-57 -327 ZM239 145 l139 0 l22 19 l38 215 l-15 19 l-139 0 l-23 -19 l-38 -215 l16 -19 ZM313 583 l166 210 l159 0 l-185 -210 l-140 0 Z" /><glyph glyph-name="ocircumflex" unicode="ô" d="M546 108 l-126 -108 l-273 0 l-88 108 l57 327 l126 108 l273 0 l88 -108 l-57 -327 ZM239 145 l139 0 l22 19 l38 215 l-15 19 l-139 0 l-23 -19 l-38 -215 l16 -19 ZM173 583 l168 150 l144 0 l114 -150 l-140 0 l-61 69 l-85 -69 l-140 0 Z" /><glyph glyph-name="otilde" unicode="õ" d="M546 108 l-126 -108 l-273 0 l-88 108 l57 327 l126 108 l273 0 l88 -108 l-57 -327 ZM239 145 l139 0 l22 19 l38 215 l-15 19 l-139 0 l-23 -19 l-38 -215 l16 -19 ZM562 795 l79 -95 l-124 -106 l-58 69 l-98 -76 l-103 0 l-79 95 l123 106 l58 -69 l99 76 l103 0 Z" /><glyph glyph-name="odieresis" unicode="ö" d="M546 108 l-126 -108 l-273 0 l-88 108 l57 327 l126 108 l273 0 l88 -108 l-57 -327 ZM239 145 l139 0 l22 19 l38 215 l-15 19 l-139 0 l-23 -19 l-38 -215 l16 -19 ZM210 637 l13 75 l49 42 l71 0 l40 -42 l-13 -75 l-50 -42 l-76 0 l-34 42 ZM422 637 l13 75 l49 42 l71 0 l40 -42 l-13 -75 l-50 -42 l-76 0 l-34 42 Z" /><glyph glyph-name="divide" unicode="÷" d="M82 412 l480 0 l-24 -135 l-480 0 l24 135 ZM184 113 l15 85 l50 42 l81 0 l39 -42 l-15 -85 l-49 -42 l-86 0 l-35 42 ZM251 492 l15 85 l50 42 l81 0 l39 -42 l-15 -85 l-49 -42 l-86 0 l-35 42 Z" /><glyph glyph-name="oslash" unicode="ø" d="M104 -19 l-74 77 l38 37 l-9 13 l57 327 l126 108 l273 0 l9 -12 l34 32 l74 -77 l-40 -38 l11 -13 l-57 -327 l-126 -108 l-273 0 l-10 12 l-33 -31 ZM378 145 l22 19 l23 130 l-158 -149 l113 0 ZM261 379 l-23 -130 l157 149 l-111 0 l-23 -19 Z" /><glyph glyph-name="ugrave" unicode="ù" d="M58 107 l77 436 l155 0 l-67 -379 l16 -19 l109 0 l54 52 l61 346 l155 0 l-66 -374 l9 -156 l-128 -28 l-4 78 l-66 -63 l-215 0 l-90 107 ZM376 793 l92 -210 l-140 0 l-111 210 l159 0 Z" /><glyph glyph-name="uacute" unicode="ú" d="M58 107 l77 436 l155 0 l-67 -379 l16 -19 l109 0 l54 52 l61 346 l155 0 l-66 -374 l9 -156 l-128 -28 l-4 78 l-66 -63 l-215 0 l-90 107 ZM310 583 l166 210 l159 0 l-185 -210 l-140 0 Z" /><glyph glyph-name="ucircumflex" unicode="û" d="M58 107 l77 436 l155 0 l-67 -379 l16 -19 l109 0 l54 52 l61 346 l155 0 l-66 -374 l9 -156 l-128 -28 l-4 78 l-66 -63 l-215 0 l-90 107 ZM168 583 l168 150 l144 0 l114 -150 l-140 0 l-61 69 l-85 -69 l-140 0 Z" /><glyph glyph-name="udieresis" unicode="ü" d="M58 107 l77 436 l155 0 l-67 -379 l16 -19 l109 0 l54 52 l61 346 l155 0 l-66 -374 l9 -156 l-128 -28 l-4 78 l-66 -63 l-215 0 l-90 107 ZM207 637 l13 75 l49 42 l71 0 l40 -42 l-13 -75 l-50 -42 l-76 0 l-34 42 ZM419 637 l13 75 l49 42 l71 0 l40 -42 l-13 -75 l-50 -42 l-76 0 l-34 42 Z" /><glyph glyph-name="yacute" unicode="ý" d="M335 249 l161 314 l133 -47 l-307 -604 l-94 -80 l-185 0 l25 145 l123 0 l20 17 l11 22 l-25 0 l-119 488 l151 59 l76 -314 l1 -69 l4 0 l25 69 ZM290 583 l166 210 l159 0 l-185 -210 l-140 0 Z" /><glyph glyph-name="ydieresis" unicode="ÿ" d="M335 249 l161 314 l133 -47 l-307 -604 l-94 -80 l-185 0 l25 145 l123 0 l20 17 l11 22 l-25 0 l-119 488 l151 59 l76 -314 l1 -69 l4 0 l25 69 ZM189 637 l13 75 l49 42 l71 0 l40 -42 l-13 -75 l-50 -42 l-76 0 l-34 42 ZM401 637 l13 75 l49 42 l71 0 l40 -42 l-13 -75 l-50 -42 l-76 0 l-34 42 Z" /><glyph glyph-name="Amacron" unicode="&#x100;" d="M279 785 l24 135 l318 0 l-24 -135 l-318 0 ZM344 710 l162 0 l109 -681 l-155 -49 l-26 159 l-225 0 l-77 -159 l-137 49 l349 681 ZM419 274 l-27 166 l0 74 l-4 0 l-26 -74 l-85 -166 l142 0 Z" /><glyph glyph-name="amacron" unicode="&#x101;" d="M227 598 l24 135 l318 0 l-24 -135 l-318 0 ZM579 436 l-47 -267 l9 -156 l-128 -28 l-4 78 l-66 -63 l-215 0 l-90 107 l58 329 l127 107 l267 0 l89 -107 ZM399 398 l-135 0 l-23 -19 l-38 -215 l16 -19 l109 0 l54 52 l32 182 l-15 19 Z" /><glyph glyph-name="Abreve" unicode="&#x102;" d="M642 850 l-101 -85 l-214 0 l-71 85 l22 124 l125 0 l-11 -61 l15 -18 l100 0 l21 18 l11 61 l125 0 l-22 -124 ZM344 710 l162 0 l109 -681 l-155 -49 l-26 159 l-225 0 l-77 -159 l-137 49 l349 681 ZM419 274 l-27 166 l0 74 l-4 0 l-26 -74 l-85 -166 l142 0 Z" /><glyph glyph-name="abreve" unicode="&#x103;" d="M506 618 l-229 0 l-62 75 l18 105 l125 0 l-8 -45 l13 -15 l101 0 l17 15 l8 45 l125 0 l-18 -105 l-90 -75 ZM579 436 l-47 -267 l9 -156 l-128 -28 l-4 78 l-66 -63 l-215 0 l-90 107 l58 329 l127 107 l267 0 l89 -107 ZM399 398 l-135 0 l-23 -19 l-38 -215 l16 -19 l109 0 l54 52 l32 182 l-15 19 Z" /><glyph glyph-name="Aogonek" unicode="&#x104;" d="M473 -35 l-5 -28 l6 -7 l80 0 l-17 -100 l-116 0 l-67 81 l16 91 l78 48 l-14 89 l-225 0 l-77 -159 l-137 49 l349 681 l162 0 l105 -661 l-138 -84 ZM419 274 l-27 166 l0 74 l-4 0 l-26 -74 l-85 -166 l142 0 Z" /><glyph glyph-name="aogonek" unicode="&#x105;" d="M579 436 l-47 -267 l9 -158 l-100 -67 l-3 -14 l7 -7 l79 0 l-16 -93 l-116 0 l-68 74 l12 72 l74 50 l-1 37 l-66 -63 l-215 0 l-90 107 l58 329 l127 107 l267 0 l89 -107 ZM399 398 l-135 0 l-23 -19 l-38 -215 l16 -19 l109 0 l54 52 l32 182 l-15 19 Z" /><glyph glyph-name="Cacute" unicode="&#x106;" d="M422 145 l113 96 l87 -106 l-158 -135 l-296 0 l-106 128 l80 454 l151 128 l289 0 l105 -128 l-23 -132 l-155 0 l13 75 l-33 40 l-155 0 l-47 -40 l-60 -340 l33 -40 l162 0 ZM362 750 l166 210 l159 0 l-185 -210 l-140 0 Z" /><glyph glyph-name="cacute" unicode="&#x107;" d="M390 145 l132 40 l20 -138 l-158 -47 l-236 0 l-90 107 l58 329 l127 107 l266 0 l89 -107 l-19 -111 l-155 0 l9 54 l-15 19 l-134 0 l-23 -19 l-38 -215 l16 -19 l151 0 ZM311 583 l166 210 l159 0 l-185 -210 l-140 0 Z" /><glyph glyph-name="Ccaron" unicode="&#x10c;" d="M422 145 l113 96 l87 -106 l-158 -135 l-296 0 l-106 128 l80 454 l151 128 l289 0 l105 -128 l-23 -132 l-155 0 l13 75 l-33 40 l-155 0 l-47 -40 l-60 -340 l33 -40 l162 0 ZM373 750 l-115 150 l140 0 l61 -69 l85 69 l140 0 l-167 -150 l-144 0 Z" /><glyph glyph-name="ccaron" unicode="&#x10d;" d="M390 145 l132 40 l20 -138 l-158 -47 l-236 0 l-90 107 l58 329 l127 107 l266 0 l89 -107 l-19 -111 l-155 0 l9 54 l-15 19 l-134 0 l-23 -19 l-38 -215 l16 -19 l151 0 ZM311 583 l-114 150 l140 0 l61 -69 l85 69 l140 0 l-168 -150 l-144 0 Z" /><glyph glyph-name="Dcaron" unicode="&#x10e;" d="M50 0 l125 710 l418 0 l105 -129 l-80 -452 l-150 -129 l-418 0 ZM533 525 l-33 40 l-196 0 l-74 -420 l196 0 l47 40 l60 340 ZM366 750 l-115 150 l140 0 l61 -69 l85 69 l140 0 l-167 -150 l-144 0 Z" /><glyph glyph-name="dcaron" unicode="&#x10f;" d="M347 145 l54 52 l29 164 l-43 37 l-103 0 l-23 -19 l-38 -215 l16 -19 l108 0 ZM362 0 l-214 0 l-90 107 l58 329 l127 107 l169 0 l44 -37 l36 204 l155 0 l-96 -541 l9 -156 l-128 -28 l-4 78 l-66 -63 ZM632 420 l116 290 l145 0 l-156 -290 l-105 0 Z" /><glyph glyph-name="Dcroat" unicode="&#x110;" d="M533 525 l-33 40 l-196 0 l-26 -150 l135 0 l-21 -120 l-135 0 l-27 -150 l196 0 l47 40 l60 340 ZM33 415 l90 0 l52 295 l418 0 l105 -129 l-80 -452 l-150 -129 l-418 0 l52 295 l-90 0 l21 120 Z" /><glyph glyph-name="dcroat" unicode="&#x111;" d="M339 610 l135 0 l18 100 l155 0 l-18 -100 l90 0 l-21 -120 l-90 0 l-57 -321 l9 -156 l-128 -28 l-4 78 l-66 -63 l-214 0 l-90 107 l43 239 l126 107 l169 0 l44 -37 l13 74 l-135 0 l21 120 ZM347 145 l54 52 l13 74 l-43 37 l-103 0 l-23 -19 l-22 -125 l16 -19 l108 0 Z" /><glyph glyph-name="Emacron" unicode="&#x112;" d="M50 0 l125 710 l493 0 l-26 -145 l-338 0 l-21 -122 l296 0 l-26 -145 l-296 0 l-27 -153 l338 0 l-25 -145 l-493 0 ZM280 785 l24 135 l318 0 l-24 -135 l-318 0 Z" /><glyph glyph-name="emacron" unicode="&#x113;" d="M386 135 l132 40 l19 -129 l-155 -46 l-234 0 l-90 107 l58 329 l127 107 l266 0 l89 -107 l-24 -139 l-115 -97 l-229 0 l-8 -46 l15 -19 l149 0 ZM287 418 l-22 -19 l-13 -74 l158 0 l16 14 l11 60 l-16 19 l-134 0 ZM228 598 l24 135 l318 0 l-24 -135 l-318 0 Z" /><glyph glyph-name="Edotaccent" unicode="&#x116;" d="M50 0 l125 710 l493 0 l-26 -145 l-338 0 l-21 -122 l296 0 l-26 -145 l-296 0 l-27 -153 l338 0 l-25 -145 l-493 0 ZM352 808 l13 75 l50 42 l71 0 l39 -42 l-13 -75 l-49 -42 l-76 0 l-35 42 Z" /><glyph glyph-name="edotaccent" unicode="&#x117;" d="M386 135 l132 40 l19 -129 l-155 -46 l-234 0 l-90 107 l58 329 l127 107 l266 0 l89 -107 l-24 -139 l-115 -97 l-229 0 l-8 -46 l15 -19 l149 0 ZM287 418 l-22 -19 l-13 -74 l158 0 l16 14 l11 60 l-16 19 l-134 0 ZM306 637 l13 75 l49 42 l71 0 l40 -42 l-13 -75 l-50 -42 l-76 0 l-34 42 Z" /><glyph glyph-name="Eogonek" unicode="&#x118;" d="M50 0 l125 710 l493 0 l-26 -145 l-338 0 l-21 -122 l296 0 l-26 -145 l-296 0 l-27 -153 l338 0 l-25 -145 l-192 0 l-9 -48 l6 -7 l70 0 l-20 -115 l-116 0 l-67 81 l16 89 l-181 0 Z" /><glyph glyph-name="eogonek" unicode="&#x119;" d="M386 135 l132 40 l19 -129 l-155 -46 l-57 0 l-9 -48 l6 -7 l70 0 l-20 -115 l-116 0 l-67 81 l16 89 l-57 0 l-90 107 l58 329 l127 107 l266 0 l89 -107 l-24 -139 l-115 -97 l-229 0 l-8 -46 l15 -19 l149 0 ZM287 418 l-22 -19 l-13 -74 l158 0 l16 14 l11 60 l-16 19 l-134 0 Z" /><glyph glyph-name="Ecaron" unicode="&#x11a;" d="M50 0 l125 710 l493 0 l-26 -145 l-338 0 l-21 -122 l296 0 l-26 -145 l-296 0 l-27 -153 l338 0 l-25 -145 l-493 0 ZM360 750 l-115 150 l140 0 l61 -69 l85 69 l140 0 l-167 -150 l-144 0 Z" /><glyph glyph-name="ecaron" unicode="&#x11b;" d="M386 135 l132 40 l19 -129 l-155 -46 l-234 0 l-90 107 l58 329 l127 107 l266 0 l89 -107 l-24 -139 l-115 -97 l-229 0 l-8 -46 l15 -19 l149 0 ZM287 418 l-22 -19 l-13 -74 l158 0 l16 14 l11 60 l-16 19 l-134 0 ZM311 583 l-114 150 l140 0 l61 -69 l85 69 l140 0 l-168 -150 l-144 0 Z" /><glyph glyph-name="Gbreve" unicode="&#x11e;" d="M415 145 q25 21 47 40 l14 81 l-153 0 l22 125 l308 0 l-46 -264 l-149 -127 l-290 0 l-106 128 l80 454 l151 128 l289 0 l105 -128 l-23 -132 l-155 0 l13 75 l-33 40 l-155 0 l-47 -40 l-60 -340 l33 -40 l155 0 ZM651 850 l-101 -85 l-214 0 l-71 85 l22 124 l125 0 l-11 -61 l15 -18 l100 0 l21 18 l11 61 l125 0 l-22 -124 Z" /><glyph glyph-name="gbreve" unicode="&#x11f;" d="M501 618 l-229 0 l-62 75 l18 105 l125 0 l-8 -45 l13 -15 l101 0 l17 15 l8 45 l125 0 l-18 -105 l-90 -75 ZM511 -61 l-127 -107 l-224 0 l-142 47 l68 138 l118 -40 l139 0 l23 19 l14 81 l-56 -37 l-169 0 l-90 107 l55 309 l127 107 l266 0 l89 -107 l-91 -517 ZM406 222 l31 177 l-16 19 l-134 0 l-22 -19 l-35 -195 l16 -19 l103 0 l57 37 Z" /><glyph glyph-name="Gcommaaccent" unicode="&#x122;" d="M415 145 q25 21 47 40 l14 81 l-153 0 l22 125 l308 0 l-46 -264 l-149 -127 l-290 0 l-106 128 l80 454 l151 128 l289 0 l105 -128 l-23 -132 l-155 0 l13 75 l-33 40 l-155 0 l-47 -40 l-60 -340 l33 -40 l155 0 ZM128 -325 l116 290 l145 0 l-156 -290 l-105 0 Z" /><glyph glyph-name="gcommaaccent" unicode="&#x123;" d="M555 868 l-117 -290 l-145 0 l157 290 l105 0 ZM511 -61 l-127 -107 l-224 0 l-142 47 l68 138 l118 -40 l139 0 l23 19 l14 81 l-56 -37 l-169 0 l-90 107 l55 309 l127 107 l266 0 l89 -107 l-91 -517 ZM406 222 l31 177 l-16 19 l-134 0 l-22 -19 l-35 -195 l16 -19 l103 0 l57 37 Z" /><glyph glyph-name="imacron" unicode="&#x12b;" d="M126 381 l-18 119 l154 48 l22 -146 l-70 -402 l-155 0 l67 381 ZM75 598 l24 135 l318 0 l-24 -135 l-318 0 Z" /><glyph glyph-name="Iogonek" unicode="&#x12e;" d="M135 0 l-115 0 l23 135 l96 0 l78 440 l-96 0 l24 135 l347 0 l-24 -135 l-96 0 l-78 -440 l96 0 l-23 -135 l-112 0 l-9 -48 l6 -7 l70 0 l-20 -115 l-116 0 l-67 81 l16 89 Z" /><glyph glyph-name="iogonek" unicode="&#x12f;" d="M115 -56 l-3 -14 l7 -7 l79 0 l-16 -93 l-116 0 l-68 74 l12 72 l50 33 l66 372 l-18 119 l154 48 l22 -146 l-69 -391 l-100 -67 ZM167 627 l13 75 l50 42 l71 0 l39 -42 l-13 -75 l-49 -42 l-76 0 l-35 42 Z" /><glyph glyph-name="Idotaccent" unicode="&#x130;" d="M367 0 l-347 0 l23 135 l96 0 l78 440 l-96 0 l24 135 l347 0 l-24 -135 l-96 0 l-78 -440 l96 0 l-23 -135 ZM255 808 l13 75 l50 42 l71 0 l39 -42 l-13 -75 l-49 -42 l-76 0 l-35 42 Z" /><glyph glyph-name="dotlessi" unicode="&#x131;" d="M126 381 l-18 119 l154 48 l22 -146 l-70 -402 l-155 0 l67 381 Z" /><glyph glyph-name="Kcommaaccent" unicode="&#x136;" d="M436 389 l158 -325 l-141 -84 l-145 297 l-65 -61 l-38 -216 l-155 0 l125 710 l155 0 l-48 -273 l315 293 l96 -102 l-257 -239 ZM125 -325 l116 290 l145 0 l-156 -290 l-105 0 Z" /><glyph glyph-name="kcommaaccent" unicode="&#x137;" d="M157 559 l-18 119 l155 48 l22 -146 l-39 -220 l241 203 l87 -108 l-202 -170 l135 -208 l-134 -97 l-131 201 l-32 -27 l-27 -154 l-155 0 l98 559 ZM102 -325 l116 290 l145 0 l-156 -290 l-105 0 Z" /><glyph glyph-name="Lacute" unicode="&#x139;" d="M50 0 l125 710 l155 0 l-100 -565 l328 0 l-25 -145 l-483 0 ZM190 750 l166 210 l159 0 l-185 -210 l-140 0 Z" /><glyph glyph-name="lacute" unicode="&#x13a;" d="M157 559 l-18 119 l155 48 l22 -146 l-102 -580 l-155 0 l98 559 ZM172 750 l166 210 l159 0 l-185 -210 l-140 0 Z" /><glyph glyph-name="Lcommaaccent" unicode="&#x13b;" d="M50 0 l125 710 l155 0 l-100 -565 l328 0 l-25 -145 l-483 0 ZM119 -325 l116 290 l145 0 l-156 -290 l-105 0 Z" /><glyph glyph-name="lcommaaccent" unicode="&#x13c;" d="M157 559 l-18 119 l155 48 l22 -146 l-102 -580 l-155 0 l98 559 ZM-48 -325 l115 290 l145 0 l-156 -290 l-104 0 Z" /><glyph glyph-name="Lcaron" unicode="&#x13d;" d="M50 0 l125 710 l155 0 l-100 -565 l328 0 l-25 -145 l-483 0 ZM187 750 l-115 150 l140 0 l61 -69 l85 69 l140 0 l-167 -150 l-144 0 Z" /><glyph glyph-name="lcaron" unicode="&#x13e;" d="M157 559 l-18 119 l155 48 l22 -146 l-102 -580 l-155 0 l98 559 ZM324 420 l116 290 l145 0 l-156 -290 l-105 0 Z" /><glyph glyph-name="Lslash" unicode="&#x141;" d="M390 570 l-30 -169 l-96 -63 l-34 -193 l328 0 l-25 -145 l-483 0 l39 224 l-79 -51 l30 171 l79 51 l56 315 l155 0 l-36 -202 l96 62 Z" /><glyph glyph-name="lslash" unicode="&#x142;" d="M377 498 l-29 -169 l-86 -56 l-48 -273 l-155 0 l28 159 l-90 -58 l30 171 l90 57 l40 230 l-18 119 l155 48 l22 -146 l-25 -138 l86 56 Z" /><glyph glyph-name="Nacute" unicode="&#x143;" d="M270 372 l-65 -372 l-155 0 l125 710 l139 0 l167 -373 l14 -66 l4 0 l1 67 l66 372 l155 0 l-125 -710 l-139 0 l-168 373 l-14 66 l-4 0 l-1 -67 ZM364 740 l166 210 l159 0 l-185 -210 l-140 0 Z" /><glyph glyph-name="nacute" unicode="&#x144;" d="M615 436 l-76 -436 l-155 0 l66 379 l-15 19 l-109 0 l-54 -52 l-61 -346 l-155 0 l65 374 l-8 156 l128 28 l4 -78 l66 63 l215 0 l89 -107 ZM333 583 l166 210 l159 0 l-185 -210 l-140 0 Z" /><glyph glyph-name="Ncommaaccent" unicode="&#x145;" d="M270 372 l-65 -372 l-155 0 l125 710 l139 0 l167 -373 l14 -66 l4 0 l1 67 l66 372 l155 0 l-125 -710 l-139 0 l-168 373 l-14 66 l-4 0 l-1 -67 ZM131 -325 l116 290 l145 0 l-156 -290 l-105 0 Z" /><glyph glyph-name="ncommaaccent" unicode="&#x146;" d="M615 436 l-76 -436 l-155 0 l66 379 l-15 19 l-109 0 l-54 -52 l-61 -346 l-155 0 l65 374 l-8 156 l128 28 l4 -78 l66 63 l215 0 l89 -107 ZM113 -325 l116 290 l145 0 l-156 -290 l-105 0 Z" /><glyph glyph-name="Ncaron" unicode="&#x147;" d="M270 372 l-65 -372 l-155 0 l125 710 l139 0 l167 -373 l14 -66 l4 0 l1 67 l66 372 l155 0 l-125 -710 l-139 0 l-168 373 l-14 66 l-4 0 l-1 -67 ZM380 750 l-115 150 l140 0 l61 -69 l85 69 l140 0 l-167 -150 l-144 0 Z" /><glyph glyph-name="ncaron" unicode="&#x148;" d="M615 436 l-76 -436 l-155 0 l66 379 l-15 19 l-109 0 l-54 -52 l-61 -346 l-155 0 l65 374 l-8 156 l128 28 l4 -78 l66 63 l215 0 l89 -107 ZM344 583 l-114 150 l140 0 l61 -69 l85 69 l140 0 l-168 -150 l-144 0 Z" /><glyph glyph-name="Omacron" unicode="&#x14c;" d="M304 710 l297 0 l116 -126 l-80 -458 l-161 -126 l-297 0 l-117 126 l80 458 l162 126 ZM552 523 l-39 42 l-173 0 l-53 -42 l-60 -336 l39 -42 l173 0 l53 42 l60 336 ZM308 785 l24 135 l318 0 l-24 -135 l-318 0 Z" /><glyph glyph-name="omacron" unicode="&#x14d;" d="M546 108 l-126 -108 l-273 0 l-88 108 l57 327 l126 108 l273 0 l88 -108 l-57 -327 ZM239 145 l139 0 l22 19 l38 215 l-15 19 l-139 0 l-23 -19 l-38 -215 l16 -19 ZM231 598 l24 135 l318 0 l-24 -135 l-318 0 Z" /><glyph glyph-name="Ohungarumlaut" unicode="&#x150;" d="M304 710 l297 0 l116 -126 l-80 -458 l-161 -126 l-297 0 l-117 126 l80 458 l162 126 ZM552 523 l-39 42 l-173 0 l-53 -42 l-60 -336 l39 -42 l173 0 l53 42 l60 336 ZM258 750 l166 210 l159 0 l-185 -210 l-140 0 ZM493 750 l166 210 l159 0 l-185 -210 l-140 0 Z" /><glyph glyph-name="ohungarumlaut" unicode="&#x151;" d="M546 108 l-126 -108 l-273 0 l-88 108 l57 327 l126 108 l273 0 l88 -108 l-57 -327 ZM239 145 l139 0 l22 19 l38 215 l-15 19 l-139 0 l-23 -19 l-38 -215 l16 -19 ZM197 593 l166 210 l159 0 l-185 -210 l-140 0 ZM432 593 l166 210 l159 0 l-185 -210 l-140 0 Z" /><glyph glyph-name="OE" unicode="&#x152;" d="M304 710 l729 0 l-26 -145 l-323 0 l-21 -122 l281 0 l-26 -145 l-281 0 l-27 -153 l323 0 l-25 -145 l-729 0 l-117 126 l80 458 l162 126 ZM455 145 l74 420 l-189 0 l-53 -42 l-60 -336 l39 -42 l189 0 Z" /><glyph glyph-name="oe" unicode="&#x153;" d="M689 135 l132 40 l19 -129 l-155 -46 l-220 0 l-26 30 l-34 -30 l-258 0 l-88 108 l57 327 l126 108 l258 0 l24 -30 l36 30 l252 0 l89 -107 l-24 -139 l-115 -97 l-215 0 l-8 -46 l15 -19 l135 0 ZM239 145 l124 0 l22 19 l38 215 l-15 19 l-124 0 l-23 -19 l-38 -215 l16 -19 ZM604 418 l-22 -19 l-13 -74 l144 0 l16 14 l11 60 l-16 19 l-120 0 Z" /><glyph glyph-name="Racute" unicode="&#x154;" d="M503 565 l-199 0 l-27 -156 l199 0 l42 37 l15 82 l-30 37 ZM490 253 l135 -169 l-130 -109 l-231 289 l-13 0 l-46 -264 l-155 0 l125 710 l434 0 l91 -110 l-40 -226 l-130 -110 l-36 0 l-32 17 l-2 -3 l30 -25 ZM348 750 l166 210 l159 0 l-185 -210 l-140 0 Z" /><glyph glyph-name="racute" unicode="&#x155;" d="M326 398 l-54 -52 l-61 -346 l-155 0 l65 374 l-8 156 l128 28 l4 -78 l66 63 l188 0 l96 -114 l-121 -105 l-63 74 l-85 0 ZM328 583 l166 210 l159 0 l-185 -210 l-140 0 Z" /><glyph glyph-name="Rcommaaccent" unicode="&#x156;" d="M503 565 l-199 0 l-27 -156 l199 0 l42 37 l15 82 l-30 37 ZM490 253 l135 -169 l-130 -109 l-231 289 l-13 0 l-46 -264 l-155 0 l125 710 l434 0 l91 -110 l-40 -226 l-130 -110 l-36 0 l-32 17 l-2 -3 l30 -25 ZM128 -325 l116 290 l145 0 l-156 -290 l-105 0 Z" /><glyph glyph-name="rcommaaccent" unicode="&#x157;" d="M326 398 l-54 -52 l-61 -346 l-155 0 l65 374 l-8 156 l128 28 l4 -78 l66 63 l188 0 l96 -114 l-121 -105 l-63 74 l-85 0 ZM-53 -325 l115 290 l145 0 l-156 -290 l-104 0 Z" /><glyph glyph-name="Rcaron" unicode="&#x158;" d="M503 565 l-199 0 l-27 -156 l199 0 l42 37 l15 82 l-30 37 ZM490 253 l135 -169 l-130 -109 l-231 289 l-13 0 l-46 -264 l-155 0 l125 710 l434 0 l91 -110 l-40 -226 l-130 -110 l-36 0 l-32 17 l-2 -3 l30 -25 ZM368 750 l-115 150 l140 0 l61 -69 l85 69 l140 0 l-167 -150 l-144 0 Z" /><glyph glyph-name="rcaron" unicode="&#x159;" d="M326 398 l-54 -52 l-61 -346 l-155 0 l65 374 l-8 156 l128 28 l4 -78 l66 63 l188 0 l96 -114 l-121 -105 l-63 74 l-85 0 ZM332 583 l-114 150 l140 0 l61 -69 l85 69 l140 0 l-168 -150 l-144 0 Z" /><glyph glyph-name="Sacute" unicode="&#x15a;" d="M104 448 l24 135 l150 127 l263 0 l135 -49 l-71 -139 l-119 43 l-172 0 l-40 -34 l-4 -25 l8 -27 l295 -138 l28 -79 l-24 -135 l-149 -127 l-264 0 l-136 49 l72 139 l118 -43 l173 0 l40 34 l4 25 l-8 27 l-294 138 l-29 79 ZM330 750 l166 210 l159 0 l-185 -210 l-140 0 Z" /><glyph glyph-name="sacute" unicode="&#x15b;" d="M238 374 l7 -11 l248 -63 l32 -74 l-21 -119 l-125 -107 l-224 0 l-137 48 l66 130 l122 -43 l128 0 l24 20 l2 15 l-5 12 l-249 63 l-32 74 l20 117 l126 107 l225 0 l137 -48 l-66 -130 l-123 43 l-129 0 l-23 -20 l-3 -14 ZM271 583 l166 210 l159 0 l-185 -210 l-140 0 Z" /><glyph glyph-name="Scedilla" unicode="&#x15e;" d="M104 448 l24 135 l150 127 l263 0 l135 -49 l-71 -139 l-119 43 l-172 0 l-40 -34 l-4 -25 l8 -27 l295 -138 l28 -79 l-24 -135 l-149 -127 l-264 0 l-136 49 l72 139 l118 -43 l173 0 l40 34 l4 25 l-8 27 l-294 138 l-29 79 ZM101 -330 l116 290 l145 0 l-156 -290 l-105 0 Z" /><glyph glyph-name="scedilla" unicode="&#x15f;" d="M238 374 l7 -11 l248 -63 l32 -74 l-21 -119 l-125 -107 l-224 0 l-137 48 l66 130 l122 -43 l128 0 l24 20 l2 15 l-5 12 l-249 63 l-32 74 l20 117 l126 107 l225 0 l137 -48 l-66 -130 l-123 43 l-129 0 l-23 -20 l-3 -14 ZM75 -330 l116 290 l145 0 l-156 -290 l-105 0 Z" /><glyph glyph-name="Scaron" unicode="&#x160;" d="M104 448 l24 135 l150 127 l263 0 l135 -49 l-71 -139 l-119 43 l-172 0 l-40 -34 l-4 -25 l8 -27 l295 -138 l28 -79 l-24 -135 l-149 -127 l-264 0 l-136 49 l72 139 l118 -43 l173 0 l40 34 l4 25 l-8 27 l-294 138 l-29 79 ZM354 750 l-115 150 l140 0 l61 -69 l85 69 l140 0 l-167 -150 l-144 0 Z" /><glyph glyph-name="scaron" unicode="&#x161;" d="M238 374 l7 -11 l248 -63 l32 -74 l-21 -119 l-125 -107 l-224 0 l-137 48 l66 130 l122 -43 l128 0 l24 20 l2 15 l-5 12 l-249 63 l-32 74 l20 117 l126 107 l225 0 l137 -48 l-66 -130 l-123 43 l-129 0 l-23 -20 l-3 -14 ZM283 583 l-114 150 l140 0 l61 -69 l85 69 l140 0 l-168 -150 l-144 0 Z" /><glyph glyph-name="Tcommaaccent" unicode="&#x162;" d="M449 565 l-99 -565 l-155 0 l99 565 l-195 0 l26 145 l545 0 l-26 -145 l-195 0 ZM86 -330 l116 290 l145 0 l-156 -290 l-105 0 Z" /><glyph glyph-name="tcommaaccent" unicode="&#x163;" d="M176 378 l-90 0 l26 145 l90 0 l27 157 l155 0 l-27 -157 l135 0 l-26 -145 l-135 0 l-37 -209 l20 -24 l52 0 q23 7 76.5 23 q53.5 16 54.5 16 l19 -137 l-158 -47 l-141 0 l-89 107 l48 271 ZM101 -330 l116 290 l145 0 l-156 -290 l-105 0 Z" /><glyph glyph-name="Tcaron" unicode="&#x164;" d="M449 565 l-99 -565 l-155 0 l99 565 l-195 0 l26 145 l545 0 l-26 -145 l-195 0 ZM330 750 l-115 150 l140 0 l61 -69 l85 69 l140 0 l-167 -150 l-144 0 Z" /><glyph glyph-name="tcaron" unicode="&#x165;" d="M176 378 l-90 0 l26 145 l90 0 l27 157 l155 0 l-27 -157 l105 0 l-26 -145 l-105 0 l-37 -209 l20 -24 l52 0 q23 7 76.5 23 q53.5 16 54.5 16 l19 -137 l-158 -47 l-141 0 l-89 107 l48 271 ZM459 420 l116 290 l145 0 l-156 -290 l-105 0 Z" /><glyph glyph-name="Umacron" unicode="&#x16a;" d="M168 0 l-106 127 l103 583 l155 0 l-93 -525 l33 -40 l155 0 l47 40 l93 525 l155 0 l-103 -583 l-150 -127 l-289 0 ZM289 785 l24 135 l318 0 l-24 -135 l-318 0 Z" /><glyph glyph-name="umacron" unicode="&#x16b;" d="M58 107 l77 436 l155 0 l-67 -379 l16 -19 l109 0 l54 52 l61 346 l155 0 l-66 -374 l9 -156 l-128 -28 l-4 78 l-66 -63 l-215 0 l-90 107 ZM230 598 l24 135 l318 0 l-24 -135 l-318 0 Z" /><glyph glyph-name="Uring" unicode="&#x16e;" d="M168 0 l-106 127 l103 583 l155 0 l-93 -525 l33 -40 l155 0 l47 40 l93 525 l155 0 l-103 -583 l-150 -127 l-289 0 ZM476 840 l17 15 l10 55 l95 0 l-14 -78 l-96 -82 l-86 0 l-68 82 l14 78 l95 0 l-10 -55 l13 -15 l30 0 Z" /><glyph glyph-name="uring" unicode="&#x16f;" d="M58 107 l77 436 l155 0 l-67 -379 l16 -19 l109 0 l54 52 l61 346 l155 0 l-66 -374 l9 -156 l-128 -28 l-4 78 l-66 -63 l-215 0 l-90 107 ZM396 733 l-18 -15 l-5 -30 l12 -15 l30 0 l18 15 l5 30 l-12 15 l-30 0 ZM384 823 l86 0 l67 -82 l-13 -76 l-97 -82 l-86 0 l-67 82 l13 76 l97 82 Z" /><glyph glyph-name="Uhungarumlaut" unicode="&#x170;" d="M168 0 l-106 127 l103 583 l155 0 l-93 -525 l33 -40 l155 0 l47 40 l93 525 l155 0 l-103 -583 l-150 -127 l-289 0 ZM248 750 l166 210 l159 0 l-185 -210 l-140 0 ZM483 750 l166 210 l159 0 l-185 -210 l-140 0 Z" /><glyph glyph-name="uhungarumlaut" unicode="&#x171;" d="M58 107 l77 436 l155 0 l-67 -379 l16 -19 l109 0 l54 52 l61 346 l155 0 l-66 -374 l9 -156 l-128 -28 l-4 78 l-66 -63 l-215 0 l-90 107 ZM194 593 l166 210 l159 0 l-185 -210 l-140 0 ZM429 593 l166 210 l159 0 l-185 -210 l-140 0 Z" /><glyph glyph-name="Uogonek" unicode="&#x172;" d="M168 0 l-106 127 l103 583 l155 0 l-93 -525 l33 -40 l155 0 l47 40 l93 525 l155 0 l-103 -583 l-150 -127 l-88 0 l-9 -48 l6 -7 l70 0 l-20 -115 l-116 0 l-67 81 l16 89 l-81 0 Z" /><glyph glyph-name="uogonek" unicode="&#x173;" d="M461 -56 l-3 -14 l7 -7 l79 0 l-16 -93 l-116 0 l-68 74 l12 72 l74 50 l-1 37 l-66 -63 l-215 0 l-90 107 l77 436 l155 0 l-67 -379 l16 -19 l109 0 l54 52 l61 346 l155 0 l-66 -374 l9 -158 l-100 -67 Z" /><glyph glyph-name="Ydieresis" unicode="&#x178;" d="M711 665 l-304 -445 l-38 -220 l-155 0 l39 222 l-146 443 l151 70 l97 -295 l0 -69 l4 0 l24 69 l201 295 l127 -70 ZM250 808 l13 75 l50 42 l71 0 l39 -42 l-13 -75 l-49 -42 l-76 0 l-35 42 ZM460 808 l13 75 l50 42 l71 0 l39 -42 l-13 -75 l-49 -42 l-76 0 l-35 42 Z" /><glyph glyph-name="Zacute" unicode="&#x179;" d="M430 565 l-308 0 l26 145 l527 0 l-21 -115 l-395 -439 l-39 -25 l1 -3 l38 17 l308 0 l-25 -145 l-527 0 l19 113 l396 441 l40 25 l-2 3 l-38 -17 ZM335 750 l166 210 l159 0 l-185 -210 l-140 0 Z" /><glyph glyph-name="zacute" unicode="&#x17a;" d="M322 408 l-237 0 l24 135 l462 0 l-21 -118 l-292 -279 l-39 -25 l1 -3 l38 17 l237 0 l-23 -135 l-462 0 l20 117 l293 280 l39 25 l-2 3 l-38 -17 ZM271 583 l166 210 l159 0 l-185 -210 l-140 0 Z" /><glyph glyph-name="Zdotaccent" unicode="&#x17b;" d="M430 565 l-308 0 l26 145 l527 0 l-21 -115 l-395 -439 l-39 -25 l1 -3 l38 17 l308 0 l-25 -145 l-527 0 l19 113 l396 441 l40 25 l-2 3 l-38 -17 ZM348 808 l13 75 l50 42 l71 0 l39 -42 l-13 -75 l-49 -42 l-76 0 l-35 42 Z" /><glyph glyph-name="zdotaccent" unicode="&#x17c;" d="M322 408 l-237 0 l24 135 l462 0 l-21 -118 l-292 -279 l-39 -25 l1 -3 l38 17 l237 0 l-23 -135 l-462 0 l20 117 l293 280 l39 25 l-2 3 l-38 -17 ZM275 627 l13 75 l50 42 l71 0 l39 -42 l-13 -75 l-49 -42 l-76 0 l-35 42 Z" /><glyph glyph-name="Zcaron" unicode="&#x17d;" d="M430 565 l-308 0 l26 145 l527 0 l-21 -115 l-395 -439 l-39 -25 l1 -3 l38 17 l308 0 l-25 -145 l-527 0 l19 113 l396 441 l40 25 l-2 3 l-38 -17 ZM351 750 l-115 150 l140 0 l61 -69 l85 69 l140 0 l-167 -150 l-144 0 Z" /><glyph glyph-name="zcaron" unicode="&#x17e;" d="M322 408 l-237 0 l24 135 l462 0 l-21 -118 l-292 -279 l-39 -25 l1 -3 l38 17 l237 0 l-23 -135 l-462 0 l20 117 l293 280 l39 25 l-2 3 l-38 -17 ZM283 583 l-114 150 l140 0 l61 -69 l85 69 l140 0 l-168 -150 l-144 0 Z" /><glyph glyph-name="Scommaaccent" unicode="&#x218;" d="M104 448 l24 135 l150 127 l263 0 l135 -49 l-71 -139 l-119 43 l-172 0 l-40 -34 l-4 -25 l8 -27 l295 -138 l28 -79 l-24 -135 l-149 -127 l-264 0 l-136 49 l72 139 l118 -43 l173 0 l40 34 l4 25 l-8 27 l-294 138 l-29 79 ZM101 -330 l116 290 l145 0 l-156 -290 l-105 0 Z" /><glyph glyph-name="scommaaccent" unicode="&#x219;" d="M238 374 l7 -11 l248 -63 l32 -74 l-21 -119 l-125 -107 l-224 0 l-137 48 l66 130 l122 -43 l128 0 l24 20 l2 15 l-5 12 l-249 63 l-32 74 l20 117 l126 107 l225 0 l137 -48 l-66 -130 l-123 43 l-129 0 l-23 -20 l-3 -14 ZM75 -330 l116 290 l145 0 l-156 -290 l-105 0 Z" /><glyph glyph-name="afii10023" unicode="&#x401;" d="M50 0 l125 710 l493 0 l-26 -145 l-338 0 l-21 -122 l296 0 l-26 -145 l-296 0 l-27 -153 l338 0 l-25 -145 l-493 0 ZM258 808 l13 75 l50 42 l71 0 l39 -42 l-13 -75 l-49 -42 l-76 0 l-35 42 ZM468 808 l13 75 l50 42 l71 0 l39 -42 l-13 -75 l-49 -42 l-76 0 l-35 42 Z" /><glyph glyph-name="afii10051" unicode="&#x402;" d="M668 94 l-97 -108 l-170 -56 l-24 139 l114 38 l30 33 l28 158 l-14 17 l-177 0 l-40 -9 l-53 -306 l-155 0 l99 565 l-120 0 l26 145 l395 0 l-26 -145 l-120 0 l-21 -119 l66 14 l217 0 l88 -108 l-46 -258 Z" /><glyph glyph-name="afii10052" unicode="&#x403;" d="M304 565 l-99 -565 l-155 0 l125 710 l482 0 l-26 -145 l-327 0 ZM349 765 l130 170 l145 0 l-150 -170 l-125 0 Z" /><glyph glyph-name="afii10053" unicode="&#x404;" d="M422 145 l113 96 l87 -106 l-158 -135 l-296 0 l-106 128 l80 454 l151 128 l289 0 l105 -128 l-23 -132 l-155 0 l13 75 l-33 40 l-155 0 l-47 -40 l-20 -111 l224 0 l-23 -135 l-224 0 l-17 -94 l33 -40 l162 0 Z" /><glyph glyph-name="afii10054" unicode="&#x405;" d="M104 448 l24 135 l150 127 l263 0 l135 -49 l-71 -139 l-119 43 l-172 0 l-40 -34 l-4 -25 l8 -27 l295 -138 l28 -79 l-24 -135 l-149 -127 l-264 0 l-136 49 l72 139 l118 -43 l173 0 l40 34 l4 25 l-8 27 l-294 138 l-29 79 Z" /><glyph glyph-name="uni0406" unicode="&#x406;" d="M367 0 l-347 0 l23 135 l96 0 l78 440 l-96 0 l24 135 l347 0 l-24 -135 l-96 0 l-78 -440 l96 0 l-23 -135 Z" /><glyph glyph-name="afii10056" unicode="&#x407;" d="M367 0 l-347 0 l23 135 l96 0 l78 440 l-96 0 l24 135 l347 0 l-24 -135 l-96 0 l-78 -440 l96 0 l-23 -135 ZM150 808 l13 75 l50 42 l71 0 l39 -42 l-13 -75 l-49 -42 l-76 0 l-35 42 ZM360 808 l13 75 l50 42 l71 0 l39 -42 l-13 -75 l-49 -42 l-76 0 l-35 42 Z" /><glyph glyph-name="afii10057" unicode="&#x408;" d="M132 0 l-118 141 l124 106 l85 -102 l113 0 l47 40 l67 380 l-138 0 l26 145 l293 0 l-103 -582 l-150 -128 l-246 0 Z" /><glyph glyph-name="afii10058" unicode="&#x409;" d="M741 710 l-42 -238 l232 0 l104 -129 l-38 -214 l-149 -129 l-387 0 l99 565 l-147 0 l-130 -449 l-102 -88 l-148 -48 l-23 138 l99 32 l35 30 l155 530 l442 0 ZM870 286 l-33 41 l-164 0 l-32 -182 l164 0 l47 41 l18 100 Z" /><glyph glyph-name="afii10059" unicode="&#x40a;" d="M410 0 l55 312 l-205 0 l-55 -312 l-155 0 l125 710 l155 0 l-45 -253 l205 0 l45 253 l155 0 l-45 -253 l232 0 l104 -129 l-35 -199 l-149 -129 l-387 0 ZM816 271 l-32 41 l-164 0 l-30 -167 l164 0 l47 41 l15 85 Z" /><glyph glyph-name="afii10060" unicode="&#x40b;" d="M318 306 l-53 -306 l-155 0 l99 565 l-120 0 l26 145 l395 0 l-26 -145 l-120 0 l-21 -119 l66 14 l217 0 l88 -108 l-62 -352 l-155 0 l52 298 l-14 17 l-177 0 l-40 -9 Z" /><glyph glyph-name="afii10061" unicode="&#x40c;" d="M335 432 l188 250 l161 48 l20 -140 l-91 -27 l-157 -208 l88 -208 l82 -27 l-69 -140 l-145 48 l-110 259 l-46 0 l-50 -287 l-156 0 l125 710 l156 0 l-49 -278 l53 0 ZM358 730 l130 170 l145 0 l-150 -170 l-125 0 Z" /><glyph glyph-name="afii10062" unicode="&#x40e;" d="M399 403 l194 332 l131 -58 l-348 -593 l-102 -84 l-169 0 l25 145 l110 0 l21 17 l14 22 l-168 480 l145 71 l117 -332 l1 -69 l4 0 l25 69 ZM646 837 l-101 -85 l-224 0 l-71 85 l22 124 l135 0 l-11 -61 l15 -18 l90 0 l21 18 l11 61 l135 0 l-22 -124 Z" /><glyph glyph-name="afii10145" unicode="&#x40f;" d="M594 0 l-194 0 l-30 -168 l-155 0 l30 168 l-195 0 l125 710 l155 0 l-100 -565 l234 0 l100 565 l155 0 l-125 -710 Z" /><glyph glyph-name="afii10017" unicode="&#x410;" d="M355 730 l146 0 l114 -701 l-155 -49 l-26 159 l-225 0 l-77 -159 l-137 49 l360 701 ZM419 274 l-27 166 l0 74 l-4 0 l-26 -74 l-85 -166 l142 0 Z" /><glyph glyph-name="afii10018" unicode="&#x411;" d="M50 0 l125 710 l503 0 l-26 -145 l-348 0 l-21 -118 l263 0 l105 -129 l-34 -189 l-149 -129 l-418 0 ZM486 261 l-34 41 l-194 0 l-28 -157 l194 0 l48 41 l14 75 Z" /><glyph glyph-name="afii10019" unicode="&#x412;" d="M485 256 l-46 41 l-182 0 l-27 -152 l197 0 l45 38 l13 73 ZM304 565 l-22 -123 l187 0 l31 21 l14 77 l-21 25 l-189 0 ZM586 370 l64 -58 l-33 -184 l-150 -128 l-417 0 l125 710 l416 0 l89 -108 l-34 -190 l-60 -42 Z" /><glyph glyph-name="afii10020" unicode="&#x413;" d="M304 565 l-99 -565 l-155 0 l125 710 l482 0 l-26 -145 l-327 0 Z" /><glyph glyph-name="afii10021" unicode="&#x414;" d="M711 145 l-55 -313 l-155 0 l30 168 l-386 0 l-30 -168 l-154 0 l54 313 l73 0 l50 85 l144 480 l456 0 l-100 -565 l73 0 ZM286 203 l-34 -58 l231 0 l74 420 l-163 0 l-108 -362 Z" /><glyph glyph-name="afii10022" unicode="&#x415;" d="M50 0 l125 710 l493 0 l-26 -145 l-338 0 l-21 -122 l296 0 l-26 -145 l-296 0 l-27 -153 l338 0 l-25 -145 l-493 0 Z" /><glyph glyph-name="afii10024" unicode="&#x416;" d="M317 682 l100 -250 l36 0 l49 278 l155 0 l-49 -278 l36 0 l188 250 l161 48 l20 -140 l-91 -27 l-157 -208 l88 -208 l82 -27 l-69 -140 l-145 48 l-110 259 l-29 0 l-50 -287 l-155 0 l50 287 l-29 0 l-202 -259 l-161 -48 l-19 140 l90 27 l162 208 l-83 208 l-81 27 l68 140 l145 -48 Z" /><glyph glyph-name="afii10025" unicode="&#x417;" d="M280 710 l269 0 l99 -121 l-31 -177 l-76 -53 l64 -58 l-31 -174 l-149 -127 l-276 0 l-141 49 l69 137 l118 -41 l187 0 l47 40 l11 60 l-45 41 l-184 0 l25 145 l189 0 l46 32 l12 68 l-29 34 l-179 0 l-132 -41 l-21 137 l158 49 Z" /><glyph glyph-name="afii10026" unicode="&#x418;" d="M330 710 l-69 -389 l-23 -67 l4 0 l38 66 l301 390 l140 0 l-125 -710 l-155 0 l68 389 l23 67 l-4 0 l-38 -66 l-300 -390 l-140 0 l125 710 l155 0 Z" /><glyph glyph-name="afii10027" unicode="&#x419;" d="M670 850 l-101 -85 l-224 0 l-71 85 l22 124 l135 0 l-11 -61 l15 -18 l90 0 l21 18 l11 61 l135 0 l-22 -124 ZM330 710 l-69 -389 l-23 -67 l4 0 l38 66 l301 390 l140 0 l-125 -710 l-155 0 l68 389 l23 67 l-4 0 l-38 -66 l-300 -390 l-140 0 l125 710 l155 0 Z" /><glyph glyph-name="afii10028" unicode="&#x41a;" d="M335 432 l188 250 l161 48 l20 -140 l-91 -27 l-157 -208 l88 -208 l82 -27 l-69 -140 l-145 48 l-110 259 l-46 0 l-50 -287 l-156 0 l125 710 l156 0 l-49 -278 l53 0 Z" /><glyph glyph-name="afii10029" unicode="&#x41b;" d="M771 710 l-125 -710 l-155 0 l99 565 l-177 0 l-130 -449 l-102 -88 l-148 -48 l-23 138 l99 32 l35 30 l155 530 l472 0 Z" /><glyph glyph-name="afii10030" unicode="&#x41c;" d="M318 710 l149 -341 l5 -38 l4 0 l19 38 l269 341 l143 0 l-125 -710 l-155 0 l66 378 l23 67 l-4 0 l-38 -66 l-179 -227 l-106 0 l-99 227 l-14 66 l-4 0 l-1 -67 l-66 -378 l-155 0 l125 710 l143 0 Z" /><glyph glyph-name="afii10031" unicode="&#x41d;" d="M516 432 l49 278 l155 0 l-125 -710 l-155 0 l50 287 l-235 0 l-50 -287 l-155 0 l125 710 l155 0 l-49 -278 l235 0 Z" /><glyph glyph-name="afii10032" unicode="&#x41e;" d="M304 710 l297 0 l116 -126 l-80 -458 l-161 -126 l-297 0 l-117 126 l80 458 l162 126 ZM552 523 l-39 42 l-173 0 l-53 -42 l-60 -336 l39 -42 l173 0 l53 42 l60 336 Z" /><glyph glyph-name="afii10033" unicode="&#x41f;" d="M304 565 l-99 -565 l-155 0 l125 710 l545 0 l-125 -710 l-155 0 l99 565 l-235 0 Z" /><glyph glyph-name="afii10034" unicode="&#x420;" d="M245 227 l-40 -227 l-155 0 l125 710 l417 0 l105 -127 l-40 -229 l-150 -127 l-262 0 ZM499 565 l-195 0 l-34 -193 l195 0 l47 40 l20 113 l-33 40 Z" /><glyph glyph-name="afii10035" unicode="&#x421;" d="M422 145 l113 96 l87 -106 l-158 -135 l-296 0 l-106 128 l80 454 l151 128 l289 0 l105 -128 l-23 -132 l-155 0 l13 75 l-33 40 l-155 0 l-47 -40 l-60 -340 l33 -40 l162 0 Z" /><glyph glyph-name="afii10036" unicode="&#x422;" d="M449 565 l-99 -565 l-155 0 l99 565 l-195 0 l26 145 l545 0 l-26 -145 l-195 0 Z" /><glyph glyph-name="afii10037" unicode="&#x423;" d="M399 403 l194 332 l131 -58 l-348 -593 l-102 -84 l-169 0 l25 145 l110 0 l21 17 l14 22 l-168 480 l145 71 l117 -332 l1 -69 l4 0 l25 69 Z" /><glyph glyph-name="afii10038" unicode="&#x424;" d="M684 535 l-105 0 l-58 -330 l105 0 l47 40 l44 250 l-33 40 ZM424 535 l-105 0 l-47 -40 l-44 -250 l33 -40 l105 0 l58 330 ZM276 670 l172 0 l18 105 l155 0 l-18 -105 l172 0 l105 -128 l-61 -344 l-150 -128 l-172 0 l-17 -95 l-155 0 l17 95 l-172 0 l-106 128 l61 344 l151 128 Z" /><glyph glyph-name="afii10039" unicode="&#x425;" d="M260 735 l110 -217 l5 -38 l4 0 l19 38 l186 217 l116 -91 l-250 -291 l152 -285 l-147 -93 l-115 215 l-5 38 l-4 0 l-19 -38 l-191 -215 l-115 93 l254 285 l-148 291 l148 91 Z" /><glyph glyph-name="afii10040" unicode="&#x426;" d="M50 0 l125 710 l155 0 l-100 -565 l234 0 l100 565 l155 0 l-100 -565 l84 0 l-55 -313 l-155 0 l30 168 l-473 0 Z" /><glyph glyph-name="afii10041" unicode="&#x427;" d="M485 389 l57 321 l155 0 l-125 -710 l-155 0 l43 249 l-65 -14 l-217 0 l-88 108 l65 367 l155 0 l-55 -313 l14 -17 l177 0 l39 9 Z" /><glyph glyph-name="afii10042" unicode="&#x428;" d="M957 0 l-907 0 l125 710 l154 0 l-100 -565 l222 0 l100 565 l155 0 l-100 -565 l221 0 l100 565 l155 0 l-125 -710 Z" /><glyph glyph-name="afii10043" unicode="&#x429;" d="M50 0 l125 710 l155 0 l-100 -565 l207 0 l100 565 l155 0 l-100 -565 l206 0 l100 565 l155 0 l-100 -565 l84 0 l-55 -313 l-155 0 l30 168 l-807 0 Z" /><glyph glyph-name="afii10044" unicode="&#x42a;" d="M153 0 l99 565 l-143 0 l26 145 l298 0 l-42 -238 l262 0 l104 -129 l-38 -214 l-149 -129 l-417 0 ZM592 286 l-33 41 l-194 0 l-32 -182 l194 0 l47 41 l18 100 Z" /><glyph glyph-name="afii10045" unicode="&#x42b;" d="M679 0 l125 710 l155 0 l-125 -710 l-155 0 ZM489 286 l-33 41 l-194 0 l-32 -182 l194 0 l47 41 l18 100 ZM50 0 l125 710 l155 0 l-42 -238 l262 0 l104 -129 l-38 -214 l-149 -129 l-417 0 Z" /><glyph glyph-name="afii10046" unicode="&#x42c;" d="M489 286 l-33 41 l-194 0 l-32 -182 l194 0 l47 41 l18 100 ZM50 0 l125 710 l155 0 l-42 -238 l262 0 l104 -129 l-38 -214 l-149 -129 l-417 0 Z" /><glyph glyph-name="afii10047" unicode="&#x42d;" d="M148 241 l79 -96 l162 0 l47 40 l17 94 l-224 0 l23 135 l224 0 l20 111 l-33 40 l-155 0 l-47 -40 l-13 -75 l-155 0 l23 132 l151 128 l289 0 l105 -128 l-80 -454 l-150 -128 l-296 0 l-112 135 l125 106 Z" /><glyph glyph-name="afii10048" unicode="&#x42e;" d="M554 710 l281 0 l116 -126 l-80 -458 l-161 -126 l-281 0 l-117 126 l28 161 l-85 0 l-50 -287 l-155 0 l125 710 l155 0 l-49 -278 l85 0 l26 152 l162 126 ZM786 524 l-38 41 l-159 0 l-52 -41 l-60 -338 l38 -41 l159 0 l52 41 l60 338 Z" /><glyph glyph-name="afii10049" unicode="&#x42f;" d="M528 565 l-199 0 l-42 -36 l-17 -96 l30 -36 l199 0 l29 168 ZM227 252 l-33 0 l-92 110 l42 238 l131 110 l434 0 l-125 -710 l-155 0 l44 252 l-40 0 l-214 -224 l-161 -48 l-19 133 l91 27 l97 101 l39 25 l-1 3 l-38 -17 Z" /><glyph glyph-name="afii10065" unicode="&#x430;" d="M579 436 l-47 -267 l9 -156 l-128 -28 l-4 78 l-66 -63 l-215 0 l-90 107 l58 329 l127 107 l267 0 l89 -107 ZM399 398 l-135 0 l-23 -19 l-38 -215 l16 -19 l109 0 l54 52 l32 182 l-15 19 Z" /><glyph glyph-name="afii10066" unicode="&#x431;" d="M280 485 l-7 -40 l56 37 l175 0 l89 -107 l-48 -268 l-125 -107 l-273 0 l-89 107 l75 425 l163 142 l192 36 l110 69 l67 -126 l-130 -81 l-197 -37 l-58 -50 ZM412 337 l-108 0 l-57 -37 l-24 -136 l16 -19 l139 0 l22 19 l28 154 l-16 19 Z" /><glyph glyph-name="afii10067" unicode="&#x432;" d="M265 399 l-11 -59 l134 0 l24 15 l8 44 l-16 19 l-117 0 l-22 -19 ZM130 0 l-75 90 l64 363 l106 90 l285 0 l74 -90 l-25 -145 l-48 -31 l52 -43 l-23 -128 l-124 -106 l-286 0 ZM236 125 l134 0 l22 19 l8 45 l-31 26 l-137 0 l-12 -71 l16 -19 Z" /><glyph glyph-name="afii10068" unicode="&#x433;" d="M387 363 l9 11 l3 14 l-17 20 l-123 0 l-137 -43 l-20 130 l153 48 l219 0 l88 -107 l-20 -117 l-58 -74 l-271 -63 l-11 -12 l-2 -15 l16 -20 l123 0 l138 43 l20 -130 l-153 -48 l-219 0 l-89 107 l21 119 l58 74 l272 63 Z" /><glyph glyph-name="afii10069" unicode="&#x434;" d="M305 710 l213 0 l109 -138 l-82 -465 l-125 -107 l-273 0 l-89 107 l48 268 l125 107 l175 0 l44 -37 l14 80 l-40 50 l-115 0 l-138 -43 l-20 130 l154 48 ZM381 337 l-108 0 l-22 -19 l-28 -154 l16 -19 l139 0 l22 19 l24 136 l-43 37 Z" /><glyph glyph-name="afii10070" unicode="&#x435;" d="M386 135 l132 40 l19 -129 l-155 -46 l-234 0 l-90 107 l58 329 l127 107 l266 0 l89 -107 l-24 -139 l-115 -97 l-229 0 l-8 -46 l15 -19 l149 0 ZM287 418 l-22 -19 l-13 -74 l158 0 l16 14 l11 60 l-16 19 l-134 0 Z" /><glyph glyph-name="afii10072" unicode="&#x436;" d="M348 208 l-170 -179 l-115 -54 l-44 133 l80 38 l117 123 l-69 125 l-71 41 l93 133 l104 -60 l97 -176 l37 211 l155 0 l-37 -211 l159 176 l126 60 l45 -133 l-85 -41 l-113 -125 l73 -123 l68 -38 l-92 -133 l-95 54 l-108 179 l-36 -208 l-155 0 l36 208 Z" /><glyph glyph-name="afii10073" unicode="&#x437;" d="M157 0 l-139 46 l63 129 l118 -40 l147 0 l23 19 l5 31 l-28 25 l-173 0 l22 125 l168 0 l37 23 l6 36 l-13 14 l-144 0 l-128 -41 l-21 126 l157 50 l227 0 l85 -103 l-22 -127 l-62 -40 l52 -44 l-22 -122 l-125 -107 l-233 0 Z" /><glyph glyph-name="afii10074" unicode="&#x438;" d="M58 107 l77 436 l155 0 l-67 -379 l16 -19 l109 0 l54 52 l61 346 l155 0 l-66 -374 l9 -156 l-128 -28 l-4 78 l-66 -63 l-215 0 l-90 107 Z" /><glyph glyph-name="afii10075" unicode="&#x439;" d="M509 618 l-239 0 l-62 75 l18 105 l135 0 l-8 -45 l13 -15 l91 0 l17 15 l8 45 l135 0 l-18 -105 l-90 -75 ZM58 107 l77 436 l155 0 l-67 -379 l16 -19 l109 0 l54 52 l61 346 l155 0 l-66 -374 l9 -156 l-128 -28 l-4 78 l-66 -63 l-215 0 l-90 107 Z" /><glyph glyph-name="afii10076" unicode="&#x43a;" d="M253 332 l11 0 l159 176 l126 60 l45 -133 l-85 -41 l-113 -125 l73 -123 l68 -38 l-92 -133 l-95 54 l-107 178 l-12 0 l-36 -207 l-155 0 l95 543 l155 0 l-37 -211 Z" /><glyph glyph-name="afii10077" unicode="&#x43b;" d="M647 543 l-95 -543 l-155 0 l70 398 l-114 0 l-88 -291 l-91 -80 l-139 -47 l-25 138 l80 27 l39 34 l109 364 l409 0 Z" /><glyph glyph-name="afii10078" unicode="&#x43c;" d="M235 228 l-40 -228 l-155 0 l95 543 l143 0 l103 -243 l6 -38 l4 0 l18 38 l189 243 l143 0 l-95 -543 l-155 0 l40 228 l23 67 l-4 0 l-38 -66 l-95 -122 l-112 0 l-51 122 l-14 66 l-4 0 l-1 -67 Z" /><glyph glyph-name="afii10079" unicode="&#x43d;" d="M128 396 l-18 119 l155 48 l22 -146 l-13 -75 l172 0 l35 201 l155 0 l-95 -543 l-155 0 l34 197 l-172 0 l-34 -197 l-155 0 l69 396 Z" /><glyph glyph-name="afii10080" unicode="&#x43e;" d="M546 108 l-126 -108 l-273 0 l-88 108 l57 327 l126 108 l273 0 l88 -108 l-57 -327 ZM239 145 l139 0 l22 19 l38 215 l-15 19 l-139 0 l-23 -19 l-38 -215 l16 -19 Z" /><glyph glyph-name="afii10081" unicode="&#x43f;" d="M615 436 l-76 -436 l-155 0 l66 379 l-15 19 l-109 0 l-54 -52 l-61 -346 l-155 0 l65 374 l-8 156 l128 28 l4 -78 l66 63 l215 0 l89 -107 Z" /><glyph glyph-name="afii10082" unicode="&#x440;" d="M326 398 l-54 -52 l-29 -164 l43 -37 l103 0 l22 19 l38 215 l-15 19 l-108 0 ZM311 543 l214 0 l89 -107 l-58 -329 l-126 -107 l-169 0 l-44 37 l-36 -205 l-155 0 l95 542 l-8 156 l128 28 l4 -78 l66 63 Z" /><glyph glyph-name="afii10083" unicode="&#x441;" d="M390 145 l132 40 l20 -138 l-158 -47 l-236 0 l-90 107 l58 329 l127 107 l266 0 l89 -107 l-19 -111 l-155 0 l9 54 l-15 19 l-134 0 l-23 -19 l-38 -215 l16 -19 l151 0 Z" /><glyph glyph-name="afii10084" unicode="&#x442;" d="M121 374 l-8 156 l128 28 l4 -78 l66 63 l170 0 l38 -51 l56 51 l221 0 l89 -107 l-76 -436 l-155 0 l66 379 l-15 19 l-98 0 l-32 -29 l-65 -369 l-155 0 l65 369 l-22 29 l-72 0 l-54 -52 l-61 -346 l-155 0 l65 374 Z" /><glyph glyph-name="afii10085" unicode="&#x443;" d="M335 249 l161 314 l133 -47 l-307 -604 l-94 -80 l-185 0 l25 145 l123 0 l20 17 l11 22 l-25 0 l-119 488 l151 59 l76 -314 l1 -69 l4 0 l25 69 Z" /><glyph glyph-name="afii10086" unicode="&#x444;" d="M227 -135 l60 119 l5 29 l-48 -13 l-98 0 l-88 106 l59 331 l124 106 l98 0 l44 -13 l9 54 l74 146 l138 -48 l-60 -119 l-6 -33 l48 13 l98 0 l88 -106 l-59 -331 l-124 -106 l-98 0 l-44 13 l-9 -50 l-74 -146 l-137 48 ZM284 398 l-23 -19 l-38 -215 l16 -19 l65 0 l17 4 l43 245 l-15 4 l-65 0 ZM606 379 l-15 19 l-65 0 l-17 -4 l-43 -245 l15 -4 l65 0 l22 19 l38 215 Z" /><glyph glyph-name="afii10087" unicode="&#x445;" d="M381 -26 l-95 151 l-6 38 l-4 0 l-18 -38 l-149 -151 l-102 96 l197 201 l-126 202 l136 95 l95 -153 l5 -38 l4 0 l19 38 l149 153 l102 -95 l-198 -202 l127 -201 l-136 -96 Z" /><glyph glyph-name="afii10088" unicode="&#x446;" d="M551 164 l51 -73 l-43 -241 l-155 0 l35 198 l-10 15 l-66 -63 l-215 0 l-90 107 l77 436 l155 0 l-67 -379 l16 -19 l109 0 l54 52 l61 346 l155 0 l-67 -379 Z" /><glyph glyph-name="afii10089" unicode="&#x447;" d="M398 301 l42 242 l155 0 l-95 -543 l-155 0 l29 165 q-17 -5 -49 -13 l-163 0 l-87 106 l50 285 l155 0 l-40 -227 l16 -19 l125 0 q2 0 7.5 1.5 q5.5 1.5 9.5 2.5 Z" /><glyph glyph-name="afii10090" unicode="&#x448;" d="M822 169 l9 -156 l-128 -28 l-4 78 l-66 -63 l-170 0 l-39 51 l-55 -51 l-221 0 l-90 107 l77 436 l155 0 l-67 -379 l16 -19 l98 0 l32 29 l65 369 l155 0 l-65 -369 l22 -29 l72 0 l54 52 l61 346 l155 0 l-66 -374 Z" /><glyph glyph-name="afii10091" unicode="&#x449;" d="M821 164 l51 -73 l-43 -241 l-155 0 l35 198 l-10 15 l-66 -63 l-170 0 l-39 51 l-55 -51 l-221 0 l-90 107 l77 436 l155 0 l-67 -379 l16 -19 l98 0 l32 29 l65 369 l155 0 l-65 -369 l22 -29 l72 0 l54 52 l61 346 l155 0 l-67 -379 Z" /><glyph glyph-name="afii10092" unicode="&#x44a;" d="M150 90 l55 308 l-135 0 l25 145 l290 0 l-30 -170 l221 0 l88 -107 l-28 -159 l-125 -107 l-286 0 l-75 90 ZM331 125 l135 0 l22 19 l15 85 l-16 19 l-154 0 l-18 -104 l16 -19 Z" /><glyph glyph-name="afii10093" unicode="&#x44b;" d="M833 543 l-95 -543 l-155 0 l95 543 l155 0 ZM130 0 l-75 90 l80 453 l155 0 l-30 -170 l221 0 l88 -107 l-28 -159 l-125 -107 l-286 0 ZM236 125 l135 0 l22 19 l15 85 l-16 19 l-154 0 l-18 -104 l16 -19 Z" /><glyph glyph-name="afii10094" unicode="&#x44c;" d="M130 0 l-75 90 l80 453 l155 0 l-30 -170 l221 0 l88 -107 l-28 -159 l-125 -107 l-286 0 ZM236 125 l135 0 l22 19 l15 85 l-16 19 l-154 0 l-18 -104 l16 -19 Z" /><glyph glyph-name="afii10095" unicode="&#x44d;" d="M71 175 l118 -40 l151 0 l23 19 l9 53 l-162 0 l22 125 l162 0 l10 57 l-16 19 l-134 0 l-22 -19 l-11 -64 l-155 0 l19 111 l127 107 l266 0 l89 -107 l-58 -329 l-126 -107 l-236 0 l-139 46 l63 129 Z" /><glyph glyph-name="afii10096" unicode="&#x44e;" d="M741 108 l-126 -108 l-253 0 l-88 108 l15 89 l-60 0 l-34 -197 l-155 0 l95 543 l155 0 l-35 -201 l60 0 l16 93 l126 108 l253 0 l88 -108 l-57 -327 ZM454 145 l119 0 l22 19 l38 215 l-15 19 l-119 0 l-23 -19 l-38 -215 l16 -19 Z" /><glyph glyph-name="afii10097" unicode="&#x44f;" d="M255 315 l157 0 l18 103 l-157 0 l-17 -15 l-13 -72 l12 -16 ZM168 190 l-23 0 l-68 81 l34 191 l96 81 l400 0 l-95 -543 l-155 0 l33 190 l-18 0 l-180 -161 l-115 -54 l-41 121 l81 38 l51 45 l39 25 l-1 3 l-38 -17 Z" /><glyph glyph-name="afii10071" unicode="&#x451;" d="M386 135 l132 40 l19 -129 l-155 -46 l-234 0 l-90 107 l58 329 l127 107 l266 0 l89 -107 l-24 -139 l-115 -97 l-229 0 l-8 -46 l15 -19 l149 0 ZM287 418 l-22 -19 l-13 -74 l158 0 l16 14 l11 60 l-16 19 l-134 0 ZM207 637 l13 75 l49 42 l71 0 l40 -42 l-13 -75 l-50 -42 l-76 0 l-34 42 ZM419 637 l13 75 l49 42 l71 0 l40 -42 l-13 -75 l-50 -42 l-76 0 l-34 42 Z" /><glyph glyph-name="afii10099" unicode="&#x452;" d="M431 140 l21 119 l-15 19 l-103 0 l-57 -37 l-42 -241 l-155 0 l81 460 l-90 0 l21 120 l83 0 l-15 98 l155 48 l22 -146 l135 0 l-21 -120 l-135 0 l-13 -74 l56 37 l169 0 l89 -107 l-39 -222 l-97 -108 l-170 -56 l-24 139 l114 38 l30 33 Z" /><glyph glyph-name="afii10100" unicode="&#x453;" d="M275 598 l130 170 l145 0 l-150 -170 l-125 0 ZM387 363 l9 11 l3 14 l-17 20 l-123 0 l-137 -43 l-20 130 l153 48 l219 0 l88 -107 l-20 -117 l-58 -74 l-271 -63 l-11 -12 l-2 -15 l16 -20 l123 0 l138 43 l20 -130 l-153 -48 l-219 0 l-89 107 l21 119 l58 74 l272 63 Z" /><glyph glyph-name="afii10101" unicode="&#x454;" d="M388 135 l132 40 l19 -129 l-155 -46 l-236 0 l-90 107 l58 329 l127 107 l266 0 l89 -107 l-19 -111 l-155 0 l11 64 l-16 19 l-134 0 l-22 -19 l-10 -57 l162 0 l-22 -125 l-162 0 l-9 -53 l15 -19 l151 0 Z" /><glyph glyph-name="afii10102" unicode="&#x455;" d="M238 374 l7 -11 l248 -63 l32 -74 l-21 -119 l-125 -107 l-224 0 l-137 48 l66 130 l122 -43 l128 0 l24 20 l2 15 l-5 12 l-249 63 l-32 74 l20 117 l126 107 l225 0 l137 -48 l-66 -130 l-123 43 l-129 0 l-23 -20 l-3 -14 Z" /><glyph glyph-name="afii10103" unicode="&#x456;" d="M126 381 l-18 119 l154 48 l22 -146 l-70 -402 l-155 0 l67 381 ZM167 627 l13 75 l50 42 l71 0 l39 -42 l-13 -75 l-49 -42 l-76 0 l-35 42 Z" /><glyph glyph-name="afii10104" unicode="&#x457;" d="M126 381 l-18 119 l154 48 l22 -146 l-70 -402 l-155 0 l67 381 ZM61 627 l13 75 l50 42 l71 0 l39 -42 l-13 -75 l-49 -42 l-76 0 l-35 42 ZM273 627 l13 75 l50 42 l71 0 l39 -42 l-13 -75 l-49 -42 l-76 0 l-35 42 Z" /><glyph glyph-name="afii10105" unicode="&#x458;" d="M154 381 l-18 119 l154 48 l22 -146 l-73 -419 l-98 -108 l-195 -65 l-24 139 l140 47 l30 33 l62 352 ZM195 627 l13 75 l50 42 l71 0 l39 -42 l-13 -75 l-49 -42 l-76 0 l-35 42 Z" /><glyph glyph-name="afii10106" unicode="&#x459;" d="M462 0 l-75 90 l55 308 l-89 0 l-88 -291 l-91 -80 l-139 -47 l-25 138 l80 27 l39 34 l109 364 l384 0 l-31 -180 l186 0 l88 -107 l-27 -149 l-125 -107 l-251 0 ZM568 125 l100 0 l22 19 l13 75 l-16 19 l-119 0 l-16 -94 l16 -19 Z" /><glyph glyph-name="afii10107" unicode="&#x45a;" d="M368 90 l22 123 l-139 0 l-37 -213 l-155 0 l69 396 l-18 119 l155 48 l22 -146 l-10 -59 l139 0 l32 185 l155 0 l-34 -195 l194 0 l88 -107 l-24 -134 l-125 -107 l-259 0 l-75 90 ZM549 125 l108 0 l22 19 l10 60 l-15 19 l-127 0 l-14 -79 l16 -19 Z" /><glyph glyph-name="afii10108" unicode="&#x45b;" d="M451 460 l-135 0 l-13 -74 l56 37 l169 0 l89 -107 l-55 -316 l-155 0 l45 259 l-15 19 l-103 0 l-57 -37 l-42 -241 l-155 0 l81 460 l-90 0 l21 120 l83 0 l-15 98 l155 48 l22 -146 l135 0 l-21 -120 Z" /><glyph glyph-name="afii10109" unicode="&#x45c;" d="M253 332 l11 0 l159 176 l126 60 l45 -133 l-85 -41 l-113 -125 l73 -123 l68 -38 l-92 -133 l-95 54 l-107 178 l-12 0 l-36 -207 l-155 0 l95 543 l155 0 l-37 -211 ZM304 562 l130 170 l145 0 l-150 -170 l-125 0 Z" /><glyph glyph-name="afii10110" unicode="&#x45e;" d="M335 249 l161 314 l133 -47 l-307 -604 l-94 -80 l-185 0 l25 145 l123 0 l20 17 l11 22 l-25 0 l-119 488 l151 59 l76 -314 l1 -69 l4 0 l25 69 ZM492 601 l-239 0 l-62 75 l18 105 l135 0 l-8 -45 l13 -15 l91 0 l17 15 l8 45 l135 0 l-18 -105 l-90 -75 Z" /><glyph glyph-name="afii10193" unicode="&#x45f;" d="M358 0 l-27 -150 l-155 0 l27 150 l-163 0 l95 543 l155 0 l-72 -408 l172 0 l72 408 l155 0 l-95 -543 l-164 0 Z" /><glyph glyph-name="afii10050" unicode="&#x490;" d="M502 710 l16 90 l155 0 l-42 -235 l-327 0 l-99 -565 l-155 0 l125 710 l327 0 Z" /><glyph glyph-name="afii10098" unicode="&#x491;" d="M385 543 l14 80 l155 0 l-39 -226 l-249 0 l-70 -397 l-156 0 l95 543 l250 0 Z" /><glyph glyph-name="endash" unicode="&#x2013;" d="M52 242 l22 126 l546 0 l-22 -126 l-546 0 Z" /><glyph glyph-name="emdash" unicode="&#x2014;" d="M52 242 l22 126 l732 0 l-22 -126 l-732 0 Z" /><glyph glyph-name="quoteleft" unicode="&#x2018;" d="M325 710 l-116 -290 l-145 0 l156 290 l105 0 Z" /><glyph glyph-name="quoteright" unicode="&#x2019;" d="M74 420 l116 290 l145 0 l-156 -290 l-105 0 Z" /><glyph glyph-name="quotesinglbase" unicode="&#x201a;" d="M-31 -180 l115 290 l145 0 l-156 -290 l-104 0 Z" /><glyph glyph-name="quotedblleft" unicode="&#x201c;" d="M525 710 l-116 -290 l-145 0 l156 290 l105 0 ZM325 710 l-116 -290 l-145 0 l156 290 l105 0 Z" /><glyph glyph-name="quotedblright" unicode="&#x201d;" d="M74 420 l116 290 l145 0 l-156 -290 l-105 0 ZM274 420 l116 290 l145 0 l-156 -290 l-105 0 Z" /><glyph glyph-name="quotedblbase" unicode="&#x201e;" d="M-31 -180 l115 290 l145 0 l-156 -290 l-104 0 ZM168 -180 l116 290 l145 0 l-156 -290 l-105 0 Z" /><glyph glyph-name="dagger" unicode="&#x2020;" d="M57 385 l24 135 l152 0 l34 190 l156 0 l-34 -190 l152 0 l-24 -135 l-152 0 l-97 -553 l-156 0 l97 553 l-152 0 Z" /><glyph glyph-name="daggerdbl" unicode="&#x2021;" d="M57 385 l24 135 l152 0 l34 190 l156 0 l-34 -190 l152 0 l-24 -135 l-152 0 l-40 -228 l152 0 l-24 -135 l-152 0 l-33 -190 l-156 0 l33 190 l-152 0 l24 135 l152 0 l40 228 l-152 0 Z" /><glyph glyph-name="bullet" unicode="&#x2022;" d="M218 520 l146 0 l80 -97 l-24 -136 l-114 -97 l-146 0 l-80 97 l24 136 l114 97 Z" /><glyph glyph-name="ellipsis" unicode="&#x2026;" d="M24 27 l15 85 l50 42 l81 0 l39 -42 l-15 -85 l-49 -42 l-86 0 l-35 42 ZM254 27 l15 85 l50 42 l81 0 l39 -42 l-15 -85 l-49 -42 l-86 0 l-35 42 ZM484 27 l15 85 l50 42 l81 0 l39 -42 l-15 -85 l-49 -42 l-86 0 l-35 42 Z" /><glyph glyph-name="perthousand" unicode="&#x2030;" d="M641 215 l-27 -23 l-9 -54 l19 -23 l54 0 l27 23 l9 54 l-19 23 l-54 0 ZM735 735 l103 -91 l-633 -669 l-103 91 l633 669 ZM616 330 l146 0 l80 -97 l-24 -136 l-114 -97 l-146 0 l-80 97 l24 136 l114 97 ZM262 595 l-27 -23 l-9 -54 l19 -23 l54 0 l27 23 l9 54 l-19 23 l-54 0 ZM237 710 l146 0 l80 -97 l-24 -136 l-114 -97 l-146 0 l-80 97 l24 136 l114 97 ZM1016 215 l-27 -23 l-9 -54 l19 -23 l54 0 l27 23 l9 54 l-19 23 l-54 0 ZM991 330 l146 0 l80 -97 l-24 -136 l-114 -97 l-146 0 l-80 97 l24 136 l114 97 Z" /><glyph glyph-name="guilsinglleft" unicode="&#x2039;" d="M49 223 l14 80 l302 233 l79 -110 l-212 -163 l154 -163 l-117 -110 l-220 233 Z" /><glyph glyph-name="guilsinglright" unicode="&#x203a;" d="M412 303 l-14 -80 l-302 -233 l-79 110 l212 163 l-154 163 l117 110 l220 -233 Z" /><glyph glyph-name="Euro" unicode="&#x20ac;" d="M66 377 l15 85 l40 0 l21 120 l151 128 l289 0 l105 -128 l-23 -132 l-155 0 l13 75 l-33 40 l-155 0 l-47 -40 l-11 -63 l200 0 l-15 -85 l-200 0 l-8 -44 l190 0 l-15 -85 l-190 0 l-11 -63 l33 -40 l162 0 l113 96 l87 -106 l-158 -135 l-296 0 l-106 128 l21 120 l-50 0 l15 85 l50 0 l8 44 l-40 0 Z" /><glyph glyph-name="afii61352" unicode="&#x2116;" d="M706 210 l22 125 l334 0 l-22 -125 l-334 0 ZM913 595 l-27 -23 l-9 -54 l19 -23 l54 0 l27 23 l9 54 l-19 23 l-54 0 ZM888 710 l146 0 l80 -97 l-24 -136 l-114 -97 l-146 0 l-80 97 l24 136 l114 97 ZM270 372 l-65 -372 l-155 0 l125 710 l139 0 l167 -373 l14 -66 l4 0 l1 67 l66 372 l155 0 l-125 -710 l-139 0 l-168 373 l-14 66 l-4 0 l-1 -67 Z" /><glyph glyph-name="trademark" unicode="&#x2122;" d="M115 710 l345 0 l-24 -135 l-95 0 l-38 -215 l-155 0 l38 215 l-95 0 l24 135 ZM592 470 l-19 -110 l-135 0 l62 350 l145 0 l38 -127 l6 -38 l4 0 l18 38 l84 127 l145 0 l-62 -350 l-135 0 l19 110 l21 57 l-4 0 l-75 -114 l-74 0 l-35 114 l-4 0 l1 -57 Z" /></font>
</defs>
</svg>
