<?xml version="1.0" standalone="no"?><!DOCTYPE svg PUBLIC "-//W3C//DTD SVG 1.1//EN" "http://www.w3.org/Graphics/SVG/1.1/DTD/svg11.dtd" ><svg xmlns="http://www.w3.org/2000/svg"><metadata></metadata><defs><font id="2.000;ADBO;SourceHanSansCN-Medium;ADOBE" horiz-adv-x="2122"><font-face font-family="Source Han Sans CN Medium" font-weight="500" font-stretch="normal" units-per-em="2048" panose-1="2 11 6 0 0 0 0 0 0 0" ascent="2376" descent="-590" x-height="0" bbox="-1982 -575 2013 2261" underline-thickness="102" underline-position="-307" unicode-range="U+0020-ff40" /><missing-glyph horiz-adv-x="2048" d="M205 -246 l0 2048 l1638 0 l0 -2048 l-1638 0 ZM1024 862 l651 838 l-1302 0 l651 -838 ZM1090 778 l651 -837 l0 1675 l-651 -838 ZM373 -143 l1302 0 l-651 837 l-651 -837 ZM307 1616 l0 -1675 l651 837 l-651 838 Z" /><glyph glyph-name="" unicode="  " d="" /><glyph glyph-name="" unicode="!" d="M272 481 l-32 819 l-7 244 l238 0 l-8 -244 l-33 -819 l-158 0 ZM350 -27 q-66 0 -110.5 46 q-44.5 46 -44.5 118 q0 74 44.5 121 q44.5 47 110.5 47 q68 0 114 -47 q46 -47 46 -121 q0 -72 -46 -118 q-46 -46 -114 -46 Z" /><glyph glyph-name="" unicode="&quot;" d="M236 938 l-48 408 l-6 241 l244 0 l-6 -241 l-47 -408 l-137 0 ZM686 938 l-47 408 l-8 241 l246 0 l-7 -241 l-47 -408 l-137 0 Z" /><glyph glyph-name="" unicode="#" d="M205 0 l55 459 l-178 0 l0 157 l197 0 l40 314 l-192 0 l0 157 l209 0 l53 410 l143 0 l-49 -410 l283 0 l53 410 l146 0 l-52 -410 l185 0 l0 -157 l-203 0 l-39 -314 l197 0 l0 -157 l-215 0 l-56 -459 l-147 0 l55 459 l-282 0 l-58 -459 l-145 0 ZM424 616 l285 0 l39 314 l-285 0 l-39 -314 Z" /><glyph glyph-name="" unicode="$" d="M508 -252 l0 227 q-108 11 -214.5 59 q-106.5 48 -182.5 118 l106 161 q78 -64 163.5 -105.5 q85.5 -41.5 182.5 -41.5 q120 0 179 56.5 q59 56.5 59 156.5 q0 83 -46 138.5 q-46 55.5 -118 97 q-72 41.5 -153 81 q-81 39.5 -153 90 q-72 50.5 -117.5 123.5 q-45.5 73 -45.5 183 q0 159 92.5 265 q92.5 106 247.5 132 l0 231 l164 0 l0 -229 q110 -14 188 -62.5 q78 -48.5 141 -115.5 l-120 -137 q-65 59 -125 91.5 q-60 32.5 -148 32.5 q-98 0 -155.5 -52 q-57.5 -52 -57.5 -146 q0 -75 46 -124 q46 -49 118 -86.5 q72 -37.5 153 -76 q81 -38.5 153 -91 q72 -52.5 117.5 -131 q45.5 -78.5 45.5 -198.5 q0 -164 -93.5 -274 q-93.5 -110 -262.5 -139 l0 -234 l-164 0 Z" /><glyph glyph-name="" unicode="%" d="M426 582 q-158 0 -255 126 q-97 126 -97 353 q0 227 97 351 q97 124 255 124 q158 0 256 -124 q98 -124 98 -351 q0 -227 -98 -353 q-98 -126 -256 -126 ZM426 721 q80 0 131 83 q51 83 51 257 q0 175 -51 255.5 q-51 80.5 -131 80.5 q-78 0 -129 -80.5 q-51 -80.5 -51 -255.5 q0 -174 51 -257 q51 -83 129 -83 ZM473 -27 l825 1563 l150 0 l-825 -1563 l-150 0 ZM1497 -27 q-158 0 -256 125 q-98 125 -98 353 q0 227 98 351 q98 124 256 124 q157 0 254.5 -124 q97.5 -124 97.5 -351 q0 -228 -97.5 -353 q-97.5 -125 -254.5 -125 ZM1497 111 q78 0 129 83 q51 83 51 257 q0 175 -51 255 q-51 80 -129 80 q-80 0 -130 -80 q-50 -80 -50 -255 q0 -174 50 -257 q50 -83 130 -83 Z" /><glyph glyph-name="" unicode="&amp;" d="M461 1169 q0 -55 17.5 -114.5 q17.5 -59.5 47.5 -122.5 q97 63 166.5 130.5 q69.5 67.5 69.5 160.5 q0 61 -31 106 q-31 45 -98 45 q-77 0 -124.5 -58 q-47.5 -58 -47.5 -147 ZM541 -27 q-145 0 -250.5 55.5 q-105.5 55.5 -163 150.5 q-57.5 95 -57.5 214 q0 104 40.5 182.5 q40.5 78.5 107 139.5 q66.5 61 142.5 112 q-46 89 -72 175.5 q-26 86.5 -26 164.5 q0 103 45.5 186.5 q45.5 83.5 128 133 q82.5 49.5 193.5 49.5 q150 0 234.5 -86.5 q84.5 -86.5 84.5 -224.5 q0 -100 -49 -177.5 q-49 -77.5 -125.5 -141.5 q-76.5 -64 -159.5 -124 q73 -101 167 -198 q94 -97 194 -176 q132 172 201 417 l217 0 q-43 -146 -107 -280 q-64 -134 -153 -252 q73 -46 144 -79 q71 -33 132 -48 l-61 -193 q-172 42 -359 166 q-89 -77 -200.5 -121.5 q-111.5 -44.5 -247.5 -44.5 ZM295 408 q0 -113 79 -181.5 q79 -68.5 195 -68.5 q69 0 135 27 q66 27 125 75 q-104 89 -199.5 193 q-95.5 104 -172.5 215 q-69 -59 -115.5 -121.5 q-46.5 -62.5 -46.5 -138.5 Z" /><glyph glyph-name="" unicode="&#39;" d="M236 938 l-48 408 l-6 241 l244 0 l-6 -241 l-47 -408 l-137 0 Z" /><glyph glyph-name="" unicode="(" d="M485 -408 q-142 234 -222.5 488.5 q-80.5 254.5 -80.5 560.5 q0 303 80.5 559 q80.5 256 222.5 488 l148 -64 q-132 -221 -195 -473.5 q-63 -252.5 -63 -509.5 q0 -258 63 -510.5 q63 -252.5 195 -472.5 l-148 -66 Z" /><glyph glyph-name="" unicode=")" d="M242 -408 l-148 66 q132 220 195 472.5 q63 252.5 63 510.5 q0 257 -63 509.5 q-63 252.5 -195 473.5 l148 64 q144 -232 224.5 -488 q80.5 -256 80.5 -559 q0 -306 -80.5 -560.5 q-80.5 -254.5 -224.5 -488.5 Z" /><glyph glyph-name="" unicode="*" d="M326 918 l-107 77 l131 224 l-231 98 l41 125 l246 -58 l22 256 l133 0 l23 -256 l245 58 l41 -125 l-231 -98 l133 -224 l-106 -77 l-170 198 l-170 -198 Z" /><glyph glyph-name="" unicode="+" d="M494 233 l0 443 l-416 0 l0 170 l416 0 l0 442 l180 0 l0 -442 l416 0 l0 -170 l-416 0 l0 -443 l-180 0 Z" /><glyph glyph-name="" unicode="," d="M162 -410 l-53 134 q106 43 164.5 117 q58.5 74 58.5 163 q-8 -2 -23 -2 q-63 0 -110 39 q-47 39 -47 113 q0 69 48 110 q48 41 115 41 q86 0 134.5 -68 q48.5 -68 48.5 -186 q0 -161 -89 -281 q-89 -120 -247 -180 Z" /><glyph glyph-name="" unicode="-­&#x2011;" d="M96 492 l0 174 l541 0 l0 -174 l-541 0 Z" /><glyph glyph-name="" unicode="." d="M305 -27 q-66 0 -112 46 q-46 46 -46 118 q0 74 46 121 q46 47 112 47 q66 0 112 -47 q46 -47 46 -121 q0 -72 -46 -118 q-46 -46 -112 -46 Z" /><glyph glyph-name="" unicode="/" d="M25 -369 l569 2005 l164 0 l-570 -2005 l-163 0 Z" /><glyph glyph-name="" unicode="0" d="M584 -27 q-222 0 -355 197 q-133 197 -133 590 q0 391 133 583.5 q133 192.5 355 192.5 q221 0 354 -193 q133 -193 133 -583 q0 -393 -133 -590 q-133 -197 -354 -197 ZM584 160 q76 0 135.5 59 q59.5 59 93 191 q33.5 132 33.5 350 q0 216 -33.5 345.5 q-33.5 129.5 -93 187 q-59.5 57.5 -135.5 57.5 q-77 0 -136 -57.5 q-59 -57.5 -92.5 -187 q-33.5 -129.5 -33.5 -345.5 q0 -218 33.5 -350 q33.5 -132 92.5 -191 q59 -59 136 -59 Z" /><glyph glyph-name="" unicode="1" d="M176 0 l0 195 l330 0 l0 1048 l-270 0 l0 150 q106 20 184.5 47.5 q78.5 27.5 142.5 68.5 l178 0 l0 -1314 l295 0 l0 -195 l-860 0 Z" /><glyph glyph-name="" unicode="2" d="M90 0 l0 137 q333 295 503.5 521.5 q170.5 226.5 170.5 412.5 q0 123 -64.5 200 q-64.5 77 -191.5 77 q-89 0 -163 -49.5 q-74 -49.5 -134 -118.5 l-133 131 q97 106 204 165.5 q107 59.5 255 59.5 q138 0 240 -56.5 q102 -56.5 158 -158 q56 -101.5 56 -238.5 q0 -145 -71 -293.5 q-71 -148.5 -195.5 -299.5 q-124.5 -151 -284.5 -304 q59 7 125 11 q66 4 121 4 l377 0 l0 -201 l-973 0 Z" /><glyph glyph-name="" unicode="3" d="M549 -27 q-178 0 -297 61.5 q-119 61.5 -195 145.5 l115 152 q66 -68 153 -117 q87 -49 203 -49 q128 0 207.5 67 q79.5 67 79.5 185 q0 83 -40.5 144.5 q-40.5 61.5 -138 95.5 q-97.5 34 -267.5 34 l0 174 q148 0 234.5 34.5 q86.5 34.5 123.5 94.5 q37 60 37 135 q0 100 -62 158 q-62 58 -170 60 q-87 -2 -161.5 -40.5 q-74.5 -38.5 -139.5 -101.5 l-122 148 q89 80 195 131 q106 51 237 51 q135 0 239 -45.5 q104 -45.5 162.5 -132.5 q58.5 -87 58.5 -211 q0 -131 -70 -220.5 q-70 -89.5 -190 -133.5 l0 -11 q131 -32 221.5 -128 q90.5 -96 90.5 -248 q0 -137 -68.5 -233.5 q-68.5 -96.5 -183 -148 q-114.5 -51.5 -252.5 -51.5 Z" /><glyph glyph-name="" unicode="4" d="M279 588 l415 0 l0 395 q0 61 3.5 145.5 q3.5 84.5 7.5 147.5 l-9 0 q-27 -58 -57.5 -116.5 q-30.5 -58.5 -63.5 -117.5 l-296 -454 ZM694 0 l0 406 l-653 0 l0 157 l600 946 l274 0 l0 -921 l191 0 l0 -182 l-191 0 l0 -406 l-221 0 Z" /><glyph glyph-name="" unicode="5" d="M549 -27 q-178 0 -296 61.5 q-118 61.5 -198 139.5 l113 154 q64 -65 149 -113.5 q85 -48.5 203 -48.5 q128 0 213.5 85.5 q85.5 85.5 85.5 235.5 q0 151 -78.5 233.5 q-78.5 82.5 -208.5 82.5 q-72 0 -123.5 -21.5 q-51.5 -21.5 -117.5 -64.5 l-115 76 l45 716 l764 0 l0 -200 l-559 0 l-35 -387 q49 24 97.5 38.5 q48.5 14.5 109.5 14.5 q126 0 230 -51 q104 -51 166.5 -157.5 q62.5 -106.5 62.5 -270.5 q0 -167 -72 -284 q-72 -117 -188 -178 q-116 -61 -248 -61 Z" /><glyph glyph-name="" unicode="6" d="M612 770 q-64 0 -138.5 -39.5 q-74.5 -39.5 -141.5 -136.5 q18 -224 95.5 -332 q77.5 -108 199.5 -108 q98 0 166.5 84 q68.5 84 68.5 231 q0 144 -64 222.5 q-64 78.5 -186 78.5 ZM629 -27 q-144 0 -262 81.5 q-118 81.5 -188 248 q-70 166.5 -70 422.5 q0 217 46.5 371.5 q46.5 154.5 126.5 251.5 q80 97 182.5 142.5 q102.5 45.5 213.5 45.5 q126 0 219 -47 q93 -47 158 -115 l-129 -143 q-42 49 -106 80.5 q-64 31.5 -130 31.5 q-96 0 -176.5 -54 q-80.5 -54 -130.5 -180 q-50 -126 -55 -341 q66 81 156 127.5 q90 46.5 171 46.5 q191 0 307.5 -117.5 q116.5 -117.5 116.5 -355.5 q0 -150 -61.5 -261 q-61.5 -111 -163.5 -173 q-102 -62 -225 -62 Z" /><glyph glyph-name="" unicode="7" d="M395 0 q10 207 35.5 380.5 q25.5 173.5 72.5 328 q47 154.5 122 301.5 q75 147 184 299 l-709 0 l0 200 l971 0 l0 -145 q-133 -165 -214.5 -317 q-81.5 -152 -126 -309 q-44.5 -157 -64.5 -337 q-20 -180 -29 -401 l-242 0 Z" /><glyph glyph-name="" unicode="8" d="M586 -27 q-142 0 -253 52 q-111 52 -175 142.5 q-64 90.5 -64 207.5 q0 99 38.5 177 q38.5 78 100.5 134.5 q62 56.5 132 93.5 l0 11 q-85 59 -144 145.5 q-59 86.5 -59 206.5 q0 118 56 205 q56 87 153.5 135.5 q97.5 48.5 220.5 48.5 q131 0 226.5 -51 q95.5 -51 147.5 -141 q52 -90 52 -207 q0 -77 -30 -145 q-30 -68 -76 -121.5 q-46 -53.5 -93 -88.5 l0 -10 q68 -38 125.5 -92 q57.5 -54 93 -129.5 q35.5 -75.5 35.5 -177.5 q0 -112 -61 -201.5 q-61 -89.5 -171 -142 q-110 -52.5 -255 -52.5 ZM684 838 q135 126 135 280 q0 105 -60.5 174.5 q-60.5 69.5 -170.5 69.5 q-92 0 -153.5 -59 q-61.5 -59 -61.5 -160 q0 -82 42.5 -138 q42.5 -56 113.5 -95.5 q71 -39.5 155 -71.5 ZM590 143 q117 0 188.5 63 q71.5 63 71.5 169 q0 92 -50 151.5 q-50 59.5 -134 102 q-84 42.5 -187 84.5 q-78 -54 -127 -135.5 q-49 -81.5 -49 -180.5 q0 -112 82.5 -183 q82.5 -71 204.5 -71 Z" /><glyph glyph-name="" unicode="9" d="M307 1040 q0 -144 63 -223.5 q63 -79.5 181 -79.5 q71 0 146.5 44 q75.5 44 140.5 141 q-17 222 -96.5 327 q-79.5 105 -202.5 105 q-97 0 -164.5 -83 q-67.5 -83 -67.5 -231 ZM498 -27 q-131 0 -225 46.5 q-94 46.5 -160 113.5 l129 146 q44 -51 109.5 -82 q65.5 -31 135.5 -31 q92 0 170 54.5 q78 54.5 128 181 q50 126.5 57 341.5 q-66 -81 -156 -128.5 q-90 -47.5 -176 -47.5 q-189 0 -305.5 118.5 q-116.5 118.5 -116.5 354.5 q0 150 61.5 261.5 q61.5 111.5 163.5 173 q102 61.5 224 61.5 q144 0 262.5 -78.5 q118.5 -78.5 189 -240.5 q70.5 -162 70.5 -412 q0 -223 -46 -381 q-46 -158 -125.5 -257.5 q-79.5 -99.5 -180 -146.5 q-100.5 -47 -209.5 -47 Z" /><glyph glyph-name="" unicode=":" d="M305 778 q-66 0 -112 46.5 q-46 46.5 -46 117.5 q0 72 46 120 q46 48 112 48 q66 0 112 -48 q46 -48 46 -120 q0 -71 -46 -117.5 q-46 -46.5 -112 -46.5 ZM305 -27 q-66 0 -112 46 q-46 46 -46 118 q0 74 46 121 q46 47 112 47 q66 0 112 -47 q46 -47 46 -121 q0 -72 -46 -118 q-46 -46 -112 -46 Z" /><glyph glyph-name="" unicode=";" d="M305 778 q-66 0 -112 46.5 q-46 46.5 -46 117.5 q0 72 46 120 q46 48 112 48 q66 0 112 -48 q46 -48 46 -120 q0 -71 -46 -117.5 q-46 -46.5 -112 -46.5 ZM162 -410 l-53 134 q106 43 164.5 117 q58.5 74 58.5 163 q-8 -2 -23 -2 q-63 0 -110 39 q-47 39 -47 113 q0 69 48 110 q48 41 115 41 q86 0 134.5 -68 q48.5 -68 48.5 -186 q0 -161 -89 -281 q-89 -120 -247 -180 Z" /><glyph glyph-name="" unicode="&lt;" d="M1090 283 l-1012 393 l0 178 l1012 393 l0 -198 l-461 -166 l-310 -115 l0 -8 l310 -113 l461 -166 l0 -198 Z" /><glyph glyph-name="" unicode="=" d="M78 930 l0 170 l1012 0 l0 -170 l-1012 0 ZM78 422 l0 170 l1012 0 l0 -170 l-1012 0 Z" /><glyph glyph-name="" unicode="&gt;" d="M78 283 l0 198 l461 166 l311 113 l0 8 l-311 115 l-461 166 l0 198 l1012 -393 l0 -178 l-1012 -393 Z" /><glyph glyph-name="" unicode="?" d="M365 481 q-15 103 11.5 184 q26.5 81 74.5 147 q48 66 99 124.5 q51 58.5 86.5 117.5 q35.5 59 35.5 126 q0 86 -52 142 q-52 56 -149 56 q-72 0 -134.5 -34 q-62.5 -34 -113.5 -91 l-133 121 q75 86 177.5 141.5 q102.5 55.5 230.5 55.5 q179 0 291 -97.5 q112 -97.5 112 -277.5 q0 -90 -36.5 -160.5 q-36.5 -70.5 -89 -132.5 q-52.5 -62 -103.5 -124.5 q-51 -62.5 -81 -134 q-30 -71.5 -20 -163.5 l-206 0 ZM471 -27 q-68 0 -113 46 q-45 46 -45 118 q0 74 45 121 q45 47 113 47 q66 0 112 -47 q46 -47 46 -121 q0 -72 -46 -118 q-46 -46 -112 -46 Z" /><glyph glyph-name="" unicode="@" d="M946 -369 q-170 0 -320.5 53.5 q-150.5 53.5 -265.5 158.5 q-115 105 -180 262 q-65 157 -65 364 q0 235 78 426 q78 191 215 327.5 q137 136.5 315 209.5 q178 73 377 73 q237 0 411.5 -99 q174.5 -99 269.5 -275.5 q95 -176.5 95 -407.5 q0 -153 -43.5 -268.5 q-43.5 -115.5 -115 -193 q-71.5 -77.5 -156 -116.5 q-84.5 -39 -166.5 -39 q-96 0 -164 44.5 q-68 44.5 -82 130.5 l-6 0 q-52 -66 -128.5 -111 q-76.5 -45 -150.5 -45 q-123 0 -204.5 86.5 q-81.5 86.5 -81.5 245.5 q0 96 32.5 192 q32.5 96 92.5 175 q60 79 142.5 127 q82.5 48 182.5 48 q58 0 105 -27 q47 -27 77 -85 l4 0 l29 94 l152 0 l-97 -473 q-30 -128 0 -188 q30 -60 119 -60 q72 0 141 55 q69 55 114.5 156.5 q45.5 101.5 45.5 243.5 q0 180 -69.5 324.5 q-69.5 144.5 -211 229.5 q-141.5 85 -356.5 85 q-151 0 -293.5 -62 q-142.5 -62 -256.5 -177.5 q-114 -115.5 -181 -277 q-67 -161.5 -67 -360.5 q0 -226 90.5 -381 q90.5 -155 245 -234 q154.5 -79 346.5 -79 q99 0 194 27.5 q95 27.5 170 70.5 l60 -135 q-203 -115 -443 -115 ZM911 281 q45 0 92.5 28.5 q47.5 28.5 102.5 96.5 l61 350 q-51 86 -135 86 q-83 0 -143.5 -59 q-60.5 -59 -93.5 -145.5 q-33 -86.5 -33 -168.5 q0 -100 42.5 -144 q42.5 -44 106.5 -44 Z" /><glyph glyph-name="" unicode="A" d="M487 819 l-61 -203 l412 0 l-60 203 q-38 123 -72.5 248.5 q-34.5 125.5 -68.5 253.5 l-10 0 q-33 -129 -68 -254 q-35 -125 -72 -248 ZM0 0 l500 1509 l274 0 l500 -1509 l-252 0 l-127 430 l-524 0 l-129 -430 l-242 0 Z" /><glyph glyph-name="" unicode="B" d="M199 0 l0 1509 l467 0 q154 0 274.5 -36 q120.5 -36 189 -118 q68.5 -82 68.5 -218 q0 -108 -57 -200 q-57 -92 -158 -126 l0 -10 q129 -28 213 -116.5 q84 -88.5 84 -242.5 q0 -149 -75 -247 q-75 -98 -205.5 -146.5 q-130.5 -48.5 -297.5 -48.5 l-503 0 ZM436 879 l203 0 q172 0 249 60.5 q77 60.5 77 166.5 q0 118 -80 167.5 q-80 49.5 -240 49.5 l-209 0 l0 -444 ZM436 186 l240 0 q176 0 273.5 65 q97.5 65 97.5 204 q0 127 -95.5 186 q-95.5 59 -275.5 59 l-240 0 l0 -514 Z" /><glyph glyph-name="" unicode="C" d="M786 -27 q-189 0 -340.5 91.5 q-151.5 91.5 -240 265 q-88.5 173.5 -88.5 420.5 q0 245 90.5 421.5 q90.5 176.5 244.5 270.5 q154 94 345 94 q141 0 250 -57.5 q109 -57.5 178 -132.5 l-129 -152 q-59 60 -131 97.5 q-72 37.5 -164 37.5 q-130 0 -229.5 -69 q-99.5 -69 -155.5 -197 q-56 -128 -56 -305 q0 -269 117.5 -423.5 q117.5 -154.5 317.5 -154.5 q104 0 185 43 q81 43 148 117 l127 -150 q-90 -104 -206.5 -160.5 q-116.5 -56.5 -262.5 -56.5 Z" /><glyph glyph-name="" unicode="D" d="M199 0 l0 1509 l391 0 q347 0 537 -190.5 q190 -190.5 190 -558.5 q0 -367 -188.5 -563.5 q-188.5 -196.5 -526.5 -196.5 l-403 0 ZM436 195 l137 0 q243 0 370.5 142 q127.5 142 127.5 423 q0 282 -127.5 418.5 q-127.5 136.5 -370.5 136.5 l-137 0 l0 -1120 Z" /><glyph glyph-name="" unicode="E" d="M199 0 l0 1509 l891 0 l0 -200 l-654 0 l0 -420 l553 0 l0 -201 l-553 0 l0 -487 l676 0 l0 -201 l-913 0 Z" /><glyph glyph-name="" unicode="F" d="M199 0 l0 1509 l893 0 l0 -200 l-656 0 l0 -461 l557 0 l0 -199 l-557 0 l0 -649 l-237 0 Z" /><glyph glyph-name="" unicode="G" d="M813 -27 q-201 0 -358 91.5 q-157 91.5 -247.5 265 q-90.5 173.5 -90.5 420.5 q0 245 92.5 421.5 q92.5 176.5 251.5 270.5 q159 94 358 94 q160 0 270 -59 q110 -59 179 -131 l-127 -152 q-57 57 -131 96 q-74 39 -183 39 q-140 0 -245 -69 q-105 -69 -163.5 -197 q-58.5 -128 -58.5 -305 q0 -269 122 -423.5 q122 -154.5 356 -154.5 q69 0 133 19.5 q64 19.5 104 54.5 l0 354 l-299 0 l0 195 l514 0 l0 -653 q-75 -76 -198.5 -126.5 q-123.5 -50.5 -278.5 -50.5 Z" /><glyph glyph-name="" unicode="H" d="M199 0 l0 1509 l237 0 l0 -616 l645 0 l0 616 l238 0 l0 -1509 l-238 0 l0 686 l-645 0 l0 -686 l-237 0 Z" /><glyph glyph-name="" unicode="I" d="M199 0 l0 1509 l237 0 l0 -1509 l-237 0 Z" /><glyph glyph-name="" unicode="J" d="M498 -27 q-152 0 -259 63 q-107 63 -178 187 l166 121 q48 -87 109 -125.5 q61 -38.5 135 -38.5 q114 0 170.5 68.5 q56.5 68.5 56.5 234.5 l0 1026 l238 0 l0 -1048 q0 -135 -45.5 -246 q-45.5 -111 -142.5 -176.5 q-97 -65.5 -250 -65.5 Z" /><glyph glyph-name="" unicode="K" d="M199 0 l0 1509 l237 0 l0 -714 l6 0 l574 714 l264 0 l-467 -583 l545 -926 l-264 0 l-426 739 l-232 -284 l0 -455 l-237 0 Z" /><glyph glyph-name="" unicode="L" d="M199 0 l0 1509 l237 0 l0 -1308 l639 0 l0 -201 l-876 0 Z" /><glyph glyph-name="" unicode="M" d="M199 0 l0 1509 l272 0 l277 -764 q26 -75 50 -151 q24 -76 50 -152 l10 0 q26 76 49 152 q23 76 49 151 l273 764 l274 0 l0 -1509 l-221 0 l0 745 q0 68 5 150.5 q5 82.5 12.5 165.5 q7.5 83 13.5 151 l-8 0 l-121 -348 l-262 -719 l-148 0 l-264 719 l-119 348 l-8 0 q5 -68 12 -151 q7 -83 12 -165.5 q5 -82.5 5 -150.5 l0 -745 l-213 0 Z" /><glyph glyph-name="" unicode="N" d="M199 0 l0 1509 l243 0 l500 -886 l158 -320 l10 0 q-9 117 -20 248 q-11 131 -11 254 l0 704 l226 0 l0 -1509 l-244 0 l-500 889 l-158 315 l-10 0 q9 -117 20 -243.5 q11 -126.5 11 -249.5 l0 -711 l-225 0 Z" /><glyph glyph-name="" unicode="O" d="M772 -27 q-193 0 -341 95.5 q-148 95.5 -231 272 q-83 176.5 -83 419.5 q0 242 83 416 q83 174 231 267 q148 93 341 93 q194 0 342 -93 q148 -93 232 -267 q84 -174 84 -416 q0 -243 -84 -419.5 q-84 -176.5 -232 -272 q-148 -95.5 -342 -95.5 ZM772 180 q125 0 218 71.5 q93 71.5 144.5 202 q51.5 130.5 51.5 306.5 q0 266 -113.5 417.5 q-113.5 151.5 -300.5 151.5 q-187 0 -299.5 -151.5 q-112.5 -151.5 -112.5 -417.5 q0 -176 51 -306.5 q51 -130.5 143.5 -202 q92.5 -71.5 217.5 -71.5 Z" /><glyph glyph-name="" unicode="P" d="M199 0 l0 1509 l456 0 q168 0 298 -43 q130 -43 204 -143 q74 -100 74 -270 q0 -165 -73.5 -271.5 q-73.5 -106.5 -202 -158.5 q-128.5 -52 -291.5 -52 l-228 0 l0 -571 l-237 0 ZM436 762 l205 0 q181 0 268.5 71 q87.5 71 87.5 220 q0 149 -92 206.5 q-92 57.5 -272 57.5 l-197 0 l0 -555 Z" /><glyph glyph-name="" unicode="Q" d="M772 168 q125 0 218 72 q93 72 144.5 205 q51.5 133 51.5 315 q0 266 -113.5 417.5 q-113.5 151.5 -300.5 151.5 q-187 0 -299.5 -151.5 q-112.5 -151.5 -112.5 -417.5 q0 -182 51 -315 q51 -133 143.5 -205 q92.5 -72 217.5 -72 ZM1245 -391 q-219 0 -367.5 105.5 q-148.5 105.5 -218.5 267.5 q-162 27 -284.5 128.5 q-122.5 101.5 -190 266.5 q-67.5 165 -67.5 383 q0 242 83 416 q83 174 231 267 q148 93 341 93 q194 0 342 -93 q148 -93 232 -267 q84 -174 84 -416 q0 -212 -65 -374 q-65 -162 -181 -264 q-116 -102 -271 -134 q51 -96 148 -140.5 q97 -44.5 211 -44.5 q49 0 89 7 q40 7 71 16 l45 -178 q-37 -17 -97.5 -28 q-60.5 -11 -134.5 -11 Z" /><glyph glyph-name="" unicode="R" d="M199 0 l0 1509 l493 0 q156 0 279 -41.5 q123 -41.5 194.5 -137.5 q71.5 -96 71.5 -259 q0 -175 -86.5 -281 q-86.5 -106 -228.5 -151 l368 -639 l-268 0 l-342 608 l-244 0 l0 -608 l-237 0 ZM436 799 l228 0 q164 0 250.5 67.5 q86.5 67.5 86.5 204.5 q0 137 -86.5 191.5 q-86.5 54.5 -250.5 54.5 l-228 0 l0 -518 Z" /><glyph glyph-name="" unicode="S" d="M629 -27 q-155 0 -294.5 58.5 q-139.5 58.5 -242.5 163.5 l139 163 q82 -81 187.5 -129.5 q105.5 -48.5 214.5 -48.5 q137 0 211 59 q74 59 74 154 q0 69 -31.5 111 q-31.5 42 -86.5 71 q-55 29 -124 60 l-209 90 q-73 31 -143.5 81.5 q-70.5 50.5 -117 127.5 q-46.5 77 -46.5 186 q0 119 64 213 q64 94 176 148.5 q112 54.5 255 54.5 q132 0 251.5 -51.5 q119.5 -51.5 205.5 -138.5 l-125 -152 q-71 63 -151.5 99 q-80.5 36 -180.5 36 q-115 0 -184.5 -51.5 q-69.5 -51.5 -69.5 -140.5 q0 -66 35.5 -107.5 q35.5 -41.5 91.5 -69.5 q56 -28 117 -53 l207 -88 q134 -57 220.5 -149 q86.5 -92 86.5 -258 q0 -121 -64 -220.5 q-64 -99.5 -182.5 -159 q-118.5 -59.5 -283.5 -59.5 Z" /><glyph glyph-name="" unicode="T" d="M506 0 l0 1309 l-443 0 l0 200 l1125 0 l0 -200 l-445 0 l0 -1309 l-237 0 Z" /><glyph glyph-name="" unicode="U" d="M752 -27 q-167 0 -293.5 66 q-126.5 66 -197.5 214 q-71 148 -71 394 l0 862 l238 0 l0 -878 q0 -170 41.5 -268.5 q41.5 -98.5 114.5 -140.5 q73 -42 168 -42 q95 0 169.5 42 q74.5 42 117 140.5 q42.5 98.5 42.5 268.5 l0 878 l230 0 l0 -862 q0 -246 -70.5 -394 q-70.5 -148 -196 -214 q-125.5 -66 -292.5 -66 Z" /><glyph glyph-name="" unicode="V" d="M469 0 l-473 1509 l252 0 l223 -782 q38 -129 68.5 -246 q30.5 -117 68.5 -248 l10 0 q40 131 70.5 248 q30.5 117 67.5 246 l223 782 l242 0 l-471 -1509 l-281 0 Z" /><glyph glyph-name="" unicode="W" d="M354 0 l-307 1509 l244 0 l141 -786 q20 -120 40 -241 q20 -121 40 -242 l8 0 q25 121 50.5 242 q25.5 121 52.5 241 l194 786 l211 0 l195 -786 q26 -118 51 -239.5 q25 -121.5 51 -243.5 l10 0 q19 122 38.5 243.5 q19.5 121.5 37.5 239.5 l143 786 l228 0 l-297 -1509 l-293 0 l-203 838 q-20 89 -37 174.5 q-17 85.5 -32 171.5 l-9 0 q-17 -86 -35 -171.5 q-18 -85.5 -36 -174.5 l-199 -838 l-287 0 Z" /><glyph glyph-name="" unicode="X" d="M33 0 l432 778 l-406 731 l265 0 l182 -354 q28 -52 54.5 -106 q26.5 -54 60.5 -121 l10 0 q29 67 52.5 121 q23.5 54 49.5 106 l178 354 l250 0 l-405 -743 l434 -766 l-264 0 l-199 375 q-29 58 -59.5 117 q-30.5 59 -65.5 129 l-8 0 q-31 -70 -60 -129 q-29 -59 -57 -117 l-192 -375 l-252 0 Z" /><glyph glyph-name="" unicode="Y" d="M446 0 l0 571 l-452 938 l254 0 l174 -401 q35 -85 69 -165.5 q34 -80.5 72 -166.5 l8 0 q37 86 73.5 166.5 q36.5 80.5 70.5 165.5 l176 401 l248 0 l-455 -938 l0 -571 l-238 0 Z" /><glyph glyph-name="" unicode="Z" d="M96 0 l0 143 l756 1166 l-686 0 l0 200 l979 0 l0 -143 l-754 -1165 l762 0 l0 -201 l-1057 0 Z" /><glyph glyph-name="" unicode="[" d="M213 -350 l0 1980 l432 0 l0 -129 l-256 0 l0 -1720 l256 0 l0 -131 l-432 0 Z" /><glyph glyph-name="" unicode="\" d="M610 -369 l-569 2005 l164 0 l569 -2005 l-164 0 Z" /><glyph glyph-name="" unicode="]" d="M82 -350 l0 131 l256 0 l0 1720 l-256 0 l0 129 l434 0 l0 -1980 l-434 0 Z" /><glyph glyph-name="" unicode="^" d="M131 647 l352 897 l201 0 l352 -897 l-200 0 l-138 371 l-110 309 l-10 0 l-109 -309 l-137 -371 l-201 0 Z" /><glyph glyph-name="" unicode="_" d="M27 -299 l0 145 l1097 0 l0 -145 l-1097 0 Z" /><glyph glyph-name="" unicode="`" d="M645 1319 l-379 356 l162 156 l336 -395 l-119 -117 Z" /><glyph glyph-name="" unicode="a" d="M444 -27 q-146 0 -238.5 88.5 q-92.5 88.5 -92.5 237.5 q0 181 161 280 q161 99 512 138 q-1 65 -20 121 q-19 56 -65.5 90.5 q-46.5 34.5 -129.5 34.5 q-89 0 -171 -34.5 q-82 -34.5 -154 -80.5 l-88 160 q87 55 203 101 q116 46 251 46 q211 0 310.5 -126.5 q99.5 -126.5 99.5 -350.5 l0 -678 l-193 0 l-18 129 l-8 0 q-77 -66 -167 -111 q-90 -45 -192 -45 ZM516 160 q74 0 137.5 34 q63.5 34 132.5 97 l0 276 q-250 -29 -348 -92.5 q-98 -63.5 -98 -159.5 q0 -83 50.5 -119 q50.5 -36 125.5 -36 Z" /><glyph glyph-name="" unicode="b" d="M702 -27 q-76 0 -157.5 38 q-81.5 38 -153.5 106 l-6 0 l-23 -117 l-184 0 l0 1632 l236 0 l0 -432 l-8 -192 q72 63 159 105 q87 42 176 42 q143 0 242.5 -71 q99.5 -71 152 -200 q52.5 -129 52.5 -302 q0 -194 -68.5 -330 q-68.5 -136 -179.5 -207.5 q-111 -71.5 -238 -71.5 ZM657 168 q123 0 205 105.5 q82 105.5 82 304.5 q0 176 -61.5 278 q-61.5 102 -202.5 102 q-129 0 -266 -137 l0 -551 q64 -56 127.5 -79 q63.5 -23 115.5 -23 Z" /><glyph glyph-name="" unicode="c" d="M637 -27 q-153 0 -275 69.5 q-122 69.5 -193 201.5 q-71 132 -71 319 q0 188 77.5 320 q77.5 132 204.5 202 q127 70 275 70 q108 0 188.5 -37.5 q80.5 -37.5 141.5 -91.5 l-117 -154 q-46 42 -95 65.5 q-49 23.5 -105 23.5 q-96 0 -169.5 -50 q-73.5 -50 -115 -139.5 q-41.5 -89.5 -41.5 -208.5 q0 -180 89 -288.5 q89 -108.5 228 -108.5 q71 0 133.5 29.5 q62.5 29.5 112.5 72.5 l99 -155 q-79 -69 -174.5 -104.5 q-95.5 -35.5 -192.5 -35.5 Z" /><glyph glyph-name="" unicode="d" d="M567 -27 q-212 0 -338.5 154.5 q-126.5 154.5 -126.5 435.5 q0 182 68.5 315 q68.5 133 179 205 q110.5 72 236.5 72 q96 0 165 -34.5 q69 -34.5 138 -92.5 l-10 186 l0 418 l235 0 l0 -1632 l-192 0 l-19 127 l-8 0 q-63 -65 -147.5 -109.5 q-84.5 -44.5 -180.5 -44.5 ZM623 168 q136 0 256 137 l0 551 q-63 57 -124 79.5 q-61 22.5 -124 22.5 q-79 0 -143.5 -47.5 q-64.5 -47.5 -103 -135.5 q-38.5 -88 -38.5 -210 q0 -192 72 -294.5 q72 -102.5 205 -102.5 Z" /><glyph glyph-name="" unicode="e" d="M647 -27 q-152 0 -276.5 70 q-124.5 70 -198.5 202 q-74 132 -74 318 q0 182 74 315 q74 133 191.5 205 q117.5 72 248.5 72 q150 0 252.5 -67 q102.5 -67 155.5 -187 q53 -120 53 -278 q0 -36 -4 -68 q-4 -32 -8 -53 l-731 0 q14 -162 108 -253 q94 -91 240 -91 q75 0 141 22 q66 22 127 62 l82 -150 q-78 -52 -174 -85.5 q-96 -33.5 -207 -33.5 ZM328 666 l540 0 q0 144 -64.5 224.5 q-64.5 80.5 -187.5 80.5 q-106 0 -188.5 -79 q-82.5 -79 -99.5 -226 Z" /><glyph glyph-name="" unicode="f" d="M217 0 l0 938 l-154 0 l0 176 l154 12 l0 142 q0 173 84 282 q84 109 272 109 q57 0 109 -11 q52 -11 90 -26 l-47 -178 q-64 29 -123 29 q-149 0 -149 -203 l0 -144 l227 0 l0 -188 l-227 0 l0 -938 l-236 0 Z" /><glyph glyph-name="" unicode="g" d="M563 -506 q-135 0 -240.5 33.5 q-105.5 33.5 -166 99.5 q-60.5 66 -60.5 164 q0 71 43 134.5 q43 63.5 121 111.5 l0 10 q-43 26 -72.5 71.5 q-29.5 45.5 -29.5 114.5 q0 67 39.5 121.5 q39.5 54.5 87.5 87.5 l0 9 q-59 44 -104.5 121.5 q-45.5 77.5 -45.5 179.5 q0 127 60.5 217 q60.5 90 160 138 q99.5 48 215.5 48 q48 0 90 -8 q42 -8 74 -21 l400 0 l0 -176 l-215 0 q32 -34 52.5 -88 q20.5 -54 20.5 -119 q0 -122 -56.5 -209 q-56.5 -87 -152 -132.5 q-95.5 -45.5 -213.5 -45.5 q-81 0 -157 35 q-28 -24 -45 -50.5 q-17 -26.5 -17 -68.5 q0 -50 40.5 -80 q40.5 -30 148.5 -30 l207 0 q199 0 302 -65 q103 -65 103 -210 q0 -108 -72.5 -197.5 q-72.5 -89.5 -205 -142.5 q-132.5 -53 -312.5 -53 ZM571 508 q88 0 150.5 65 q62.5 65 62.5 179 q0 112 -62 174.5 q-62 62.5 -151 62.5 q-89 0 -151 -62 q-62 -62 -62 -175 q0 -114 63 -179 q63 -65 150 -65 ZM598 -350 q147 0 237.5 61 q90.5 61 90.5 139 q0 71 -54 97 q-54 26 -157 26 l-170 0 q-40 0 -78 4.5 q-38 4.5 -74 12.5 q-50 -37 -73 -79 q-23 -42 -23 -85 q0 -83 80.5 -129.5 q80.5 -46.5 220.5 -46.5 Z" /><glyph glyph-name="" unicode="h" d="M178 0 l0 1632 l236 0 l0 -432 l-11 -223 q74 71 162 124.5 q88 53.5 203 53.5 q180 0 263 -115.5 q83 -115.5 83 -330.5 l0 -709 l-235 0 l0 680 q0 146 -45.5 209 q-45.5 63 -145.5 63 q-78 0 -139.5 -39 q-61.5 -39 -134.5 -114 l0 -799 l-236 0 Z" /><glyph glyph-name="" unicode="i" d="M178 0 l0 1126 l236 0 l0 -1126 l-236 0 ZM295 1337 q-65 0 -105 38.5 q-40 38.5 -40 103.5 q0 63 40 101 q40 38 105 38 q64 0 105.5 -38 q41.5 -38 41.5 -101 q0 -65 -41.5 -103.5 q-41.5 -38.5 -105.5 -38.5 Z" /><glyph glyph-name="" unicode="j" d="M76 -485 q-57 0 -100.5 9 q-43.5 9 -73.5 21 l43 176 q23 -6 48.5 -12 q25.5 -6 53.5 -6 q78 0 105.5 54.5 q27.5 54.5 27.5 154.5 l0 1214 l236 0 l0 -1210 q0 -118 -33 -208.5 q-33 -90.5 -107.5 -141.5 q-74.5 -51 -199.5 -51 ZM295 1337 q-65 0 -105 38.5 q-40 38.5 -40 103.5 q0 63 40 101 q40 38 105 38 q64 0 105.5 -38 q41.5 -38 41.5 -101 q0 -65 -41.5 -103.5 q-41.5 -38.5 -105.5 -38.5 Z" /><glyph glyph-name="" unicode="k" d="M178 0 l0 1632 l230 0 l0 -1052 l8 0 l440 546 l260 0 l-383 -456 l426 -670 l-256 0 l-305 510 l-190 -219 l0 -291 l-230 0 Z" /><glyph glyph-name="" unicode="l" d="M412 -27 q-128 0 -181 77 q-53 77 -53 214 l0 1368 l236 0 l0 -1380 q0 -48 16.5 -67 q16.5 -19 38.5 -19 q8 0 16 0.5 q8 0.5 23 3.5 l31 -178 q-22 -8 -52.5 -13.5 q-30.5 -5.5 -74.5 -5.5 Z" /><glyph glyph-name="" unicode="m" d="M178 0 l0 1126 l193 0 l18 -157 l6 0 q72 77 158 131.5 q86 54.5 190 54.5 q126 0 200.5 -55 q74.5 -55 111.5 -152 q83 89 171.5 148 q88.5 59 194.5 59 q177 0 261.5 -115.5 q84.5 -115.5 84.5 -330.5 l0 -709 l-235 0 l0 680 q0 146 -46.5 209 q-46.5 63 -142.5 63 q-112 0 -253 -153 l0 -799 l-236 0 l0 680 q0 146 -46 209 q-46 63 -142 63 q-114 0 -252 -153 l0 -799 l-236 0 Z" /><glyph glyph-name="" unicode="n" d="M178 0 l0 1126 l193 0 l18 -155 l6 0 q79 75 168.5 129.5 q89.5 54.5 204.5 54.5 q180 0 263 -115.5 q83 -115.5 83 -330.5 l0 -709 l-235 0 l0 680 q0 146 -45.5 209 q-45.5 63 -145.5 63 q-78 0 -139.5 -39 q-61.5 -39 -134.5 -114 l0 -799 l-236 0 Z" /><glyph glyph-name="" unicode="o" d="M629 -27 q-140 0 -261 69.5 q-121 69.5 -195.5 201.5 q-74.5 132 -74.5 319 q0 188 74.5 320 q74.5 132 195.5 202 q121 70 261 70 q139 0 260 -70 q121 -70 195.5 -202 q74.5 -132 74.5 -320 q0 -187 -74.5 -319 q-74.5 -132 -195.5 -201.5 q-121 -69.5 -260 -69.5 ZM629 166 q133 0 211 108.5 q78 108.5 78 288.5 q0 178 -78 288 q-78 110 -211 110 q-132 0 -209.5 -110 q-77.5 -110 -77.5 -288 q0 -180 77.5 -288.5 q77.5 -108.5 209.5 -108.5 Z" /><glyph glyph-name="" unicode="p" d="M178 -457 l0 1583 l193 0 l18 -122 l6 0 q74 61 163.5 106 q89.5 45 184.5 45 q143 0 242 -71 q99 -71 151 -200 q52 -129 52 -302 q0 -194 -68.5 -330 q-68.5 -136 -179.5 -207.5 q-111 -71.5 -238 -71.5 q-75 0 -149.5 33 q-74.5 33 -146.5 94 l8 -192 l0 -365 l-236 0 ZM657 168 q123 0 205 105.5 q82 105.5 82 304.5 q0 176 -61.5 278 q-61.5 102 -202.5 102 q-126 0 -266 -137 l0 -551 q66 -56 128.5 -79 q62.5 -23 114.5 -23 Z" /><glyph glyph-name="" unicode="q" d="M879 -457 l0 383 l10 195 q-65 -63 -148 -105.5 q-83 -42.5 -174 -42.5 q-212 0 -338.5 154.5 q-126.5 154.5 -126.5 435.5 q0 182 68.5 315 q68.5 133 179 205 q110.5 72 236.5 72 q95 0 169 -35 q74 -35 146 -102 l6 0 l21 108 l186 0 l0 -1583 l-235 0 ZM623 168 q136 0 256 137 l0 551 q-63 57 -124 79.5 q-61 22.5 -124 22.5 q-79 0 -143.5 -47.5 q-64.5 -47.5 -103 -135.5 q-38.5 -88 -38.5 -210 q0 -192 72 -294.5 q72 -102.5 205 -102.5 Z" /><glyph glyph-name="" unicode="r" d="M178 0 l0 1126 l193 0 l18 -202 l6 0 q60 109 144.5 170 q84.5 61 175.5 61 q41 0 71 -6 q30 -6 56 -19 l-43 -204 q-29 9 -54 13.5 q-25 4.5 -59 4.5 q-69 0 -144.5 -54 q-75.5 -54 -127.5 -188 l0 -702 l-236 0 Z" /><glyph glyph-name="" unicode="s" d="M483 -27 q-116 0 -228.5 44 q-112.5 44 -195.5 112 l111 152 q75 -59 152 -94 q77 -35 167 -35 q102 0 150.5 43.5 q48.5 43.5 48.5 107.5 q0 51 -36.5 85.5 q-36.5 34.5 -93.5 60 q-57 25.5 -118 49.5 q-75 28 -148.5 68 q-73.5 40 -121 102 q-47.5 62 -47.5 157 q0 142 107 236 q107 94 294 94 q112 0 204.5 -39.5 q92.5 -39.5 160.5 -93.5 l-111 -145 q-58 43 -119 70.5 q-61 27.5 -131 27.5 q-93 0 -137.5 -40.5 q-44.5 -40.5 -44.5 -98.5 q0 -49 33 -80 q33 -31 86 -53.5 q53 -22.5 115 -45.5 q78 -29 154.5 -68 q76.5 -39 126.5 -103 q50 -64 50 -171 q0 -94 -49 -171.5 q-49 -77.5 -144 -124 q-95 -46.5 -235 -46.5 Z" /><glyph glyph-name="" unicode="t" d="M557 -27 q-190 0 -266 108.5 q-76 108.5 -76 287.5 l0 569 l-164 0 l0 176 l176 12 l27 312 l197 0 l0 -312 l292 0 l0 -188 l-292 0 l0 -571 q0 -102 38 -153.5 q38 -51.5 125 -51.5 q30 0 63.5 8 q33.5 8 57.5 18 l43 -174 q-47 -15 -103.5 -28 q-56.5 -13 -117.5 -13 Z" /><glyph glyph-name="" unicode="u" d="M510 -27 q-181 0 -263.5 115 q-82.5 115 -82.5 330 l0 708 l235 0 l0 -680 q0 -144 44.5 -207 q44.5 -63 144.5 -63 q78 0 138.5 39.5 q60.5 39.5 131.5 128.5 l0 782 l236 0 l0 -1126 l-193 0 l-18 170 l-6 0 q-77 -89 -164.5 -143 q-87.5 -54 -202.5 -54 Z" /><glyph glyph-name="" unicode="v" d="M426 0 l-399 1126 l241 0 l193 -606 q24 -83 49 -168 q25 -85 49 -168 l8 0 q25 83 50.5 168 q25.5 85 48.5 168 l192 606 l229 0 l-389 -1126 l-272 0 Z" /><glyph glyph-name="" unicode="w" d="M360 0 l-305 1126 l238 0 l149 -608 q17 -83 31.5 -161.5 q14.5 -78.5 30.5 -159.5 l8 0 q18 81 36 160.5 q18 79.5 38 160.5 l159 608 l218 0 l161 -608 q20 -83 38 -161.5 q18 -78.5 38 -159.5 l8 0 q17 81 32 159.5 q15 78.5 34 161.5 l145 608 l221 0 l-290 -1126 l-283 0 l-143 557 q-20 80 -37 159 q-17 79 -35 167 l-10 0 q-17 -88 -33.5 -168 q-16.5 -80 -38.5 -160 l-137 -555 l-273 0 Z" /><glyph glyph-name="" unicode="x" d="M31 0 l364 588 l-338 538 l254 0 l135 -225 q25 -47 52 -95 q27 -48 55 -95 l8 0 q23 47 47 95 q24 48 47 95 l119 225 l246 0 l-338 -565 l362 -561 l-256 0 l-147 240 q-28 49 -57 100 q-29 51 -60 98 l-10 0 q-26 -47 -52 -97.5 q-26 -50.5 -52 -100.5 l-131 -240 l-248 0 Z" /><glyph glyph-name="" unicode="y" d="M229 -471 q-43 0 -77.5 6 q-34.5 6 -63.5 16 l45 185 q15 -5 38 -11 q23 -6 44 -6 q92 0 148.5 60.5 q56.5 60.5 87.5 150.5 l22 78 l-446 1118 l241 0 l209 -579 q25 -75 50.5 -157 q25.5 -82 52.5 -161 l10 0 q21 77 43.5 159 q22.5 82 44.5 159 l180 579 l229 0 l-413 -1194 q-44 -120 -102 -211 q-58 -91 -141 -141.5 q-83 -50.5 -202 -50.5 Z" /><glyph glyph-name="" unicode="z" d="M76 0 l0 127 l557 811 l-496 0 l0 188 l791 0 l0 -125 l-555 -813 l573 0 l0 -188 l-870 0 Z" /><glyph glyph-name="" unicode="{" d="M530 -350 q-142 0 -209 66 q-67 66 -67 247 q0 125 10 220 q10 95 10 208 q0 66 -40.5 121.5 q-40.5 55.5 -155.5 56.5 l0 144 q77 1 119.5 27 q42.5 26 59.5 65.5 q17 39.5 17 81.5 q0 115 -10 210 q-10 95 -10 220 q0 181 67 247 q67 66 209 66 l115 0 l0 -129 l-53 0 q-88 0 -118 -44.5 q-30 -44.5 -30 -151.5 q0 -100 6.5 -195 q6.5 -95 6.5 -209 q0 -118 -35 -177 q-35 -59 -115 -79 l0 -10 q80 -20 115 -79.5 q35 -59.5 35 -176.5 q0 -114 -6.5 -209 q-6.5 -95 -6.5 -195 q0 -107 30 -150.5 q30 -43.5 118 -43.5 l53 0 l0 -131 l-115 0 Z" /><glyph glyph-name="" unicode="|" d="M209 -575 l0 2304 l158 0 l0 -2304 l-158 0 Z" /><glyph glyph-name="" unicode="}" d="M82 -350 l0 131 l53 0 q88 0 118 43.5 q30 43.5 30 150.5 q0 100 -5.5 195 q-5.5 95 -5.5 209 q0 117 34 176.5 q34 59.5 114 79.5 l0 10 q-80 20 -114 79 q-34 59 -34 177 q0 114 5.5 209 q5.5 95 5.5 195 q0 107 -30 151.5 q-30 44.5 -118 44.5 l-53 0 l0 129 l115 0 q142 0 210 -66 q68 -66 68 -247 q0 -125 -10 -220 q-10 -95 -10 -210 q0 -42 17 -81.5 q17 -39.5 59.5 -65.5 q42.5 -26 119.5 -27 l0 -144 q-115 -1 -155.5 -56.5 q-40.5 -55.5 -40.5 -121.5 q0 -113 10 -208 q10 -95 10 -220 q0 -181 -68 -247 q-68 -66 -210 -66 l-115 0 Z" /><glyph glyph-name="" unicode="~" d="M784 580 q-69 0 -123 28.5 q-54 28.5 -100 65.5 q-46 37 -90 65.5 q-44 28.5 -92 28.5 q-100 0 -174 -137 l-127 92 q69 117 148 167 q79 50 157 50 q69 0 123 -28.5 q54 -28.5 100 -65.5 q46 -37 90 -65.5 q44 -28.5 92 -28.5 q98 0 173 139 l129 -96 q-71 -114 -150 -164.5 q-79 -50.5 -156 -50.5 Z" /><glyph glyph-name="" unicode="¡" d="M233 -416 l7 244 l32 819 l158 0 l33 -819 l8 -244 l-238 0 ZM350 823 q-66 0 -110.5 47 q-44.5 47 -44.5 119 q0 72 44.5 119 q44.5 47 110.5 47 q68 0 114 -47 q46 -47 46 -119 q0 -72 -46 -119 q-46 -47 -114 -47 Z" /><glyph glyph-name="" unicode="¢" d="M612 -82 l0 236 q-212 24 -342.5 168 q-130.5 144 -130.5 389 q0 159 62.5 276.5 q62.5 117.5 169.5 188.5 q107 71 241 92 l0 237 l142 0 l0 -231 q95 -6 169 -43.5 q74 -37.5 128 -87.5 l-113 -146 q-83 77 -184 86 l0 -741 q64 6 119 34.5 q55 28.5 98 63.5 l100 -147 q-67 -62 -149 -98 q-82 -36 -168 -45 l0 -232 l-142 0 ZM371 711 q0 -137 64 -230.5 q64 -93.5 177 -126.5 l0 713 q-113 -32 -177 -126 q-64 -94 -64 -230 Z" /><glyph glyph-name="" unicode="£" d="M121 0 l0 145 q112 59 178 163 q66 104 66 233 q0 54 -13 106 l-231 0 l0 144 l155 10 l33 0 q-20 64 -36.5 128.5 q-16.5 64.5 -16.5 127.5 q0 135 56.5 233.5 q56.5 98.5 157.5 151.5 q101 53 235 53 q124 0 213 -49 q89 -49 155 -129 l-133 -129 q-43 51 -94.5 81.5 q-51.5 30.5 -122.5 30.5 q-114 0 -177 -67.5 q-63 -67.5 -63 -185.5 q0 -63 14 -123 q14 -60 31 -123 l361 0 l0 -154 l-326 0 q5 -26 7.5 -53.5 q2.5 -27.5 2.5 -56.5 q0 -109 -32 -184 q-32 -75 -97 -144 l0 -8 l631 0 l0 -201 l-954 0 Z" /><glyph glyph-name="" unicode="¤" d="M178 223 l-121 123 l146 148 q-82 110 -82 264 q0 155 80 264 l-144 149 l121 123 l158 -159 q110 77 248 77 q134 0 247 -77 l158 159 l121 -123 l-145 -149 q82 -107 82 -264 q0 -79 -22 -145 q-22 -66 -60 -119 l145 -148 l-121 -123 l-160 160 q-110 -76 -245 -76 q-138 0 -248 76 l-158 -160 ZM584 477 q103 0 176.5 76.5 q73.5 76.5 73.5 204.5 q0 127 -73.5 205.5 q-73.5 78.5 -176.5 78.5 q-103 0 -176.5 -78.5 q-73.5 -78.5 -73.5 -205.5 q0 -128 73.5 -204.5 q73.5 -76.5 176.5 -76.5 Z" /><glyph glyph-name="" unicode="¥" d="M465 0 l0 356 l-367 0 l0 125 l367 0 l0 144 l-367 0 l0 125 l312 0 l-365 716 l246 0 l160 -366 q32 -75 63.5 -152 q31.5 -77 67.5 -155 l8 0 q35 79 67 155.5 q32 76.5 66 151.5 l162 366 l237 0 l-366 -716 l313 0 l0 -125 l-369 0 l0 -144 l369 0 l0 -125 l-369 0 l0 -356 l-235 0 Z" /><glyph glyph-name="" unicode="¦" d="M209 684 l0 1045 l158 0 l0 -1045 l-158 0 ZM209 -575 l0 1060 l158 0 l0 -1060 l-158 0 Z" /><glyph glyph-name="" unicode="§" d="M1378 1356 q-46 27 -129.5 55.5 q-83.5 28.5 -193.5 28.5 q-112 0 -176 -50 q-64 -50 -64 -108 q0 -80 80.5 -123 q80.5 -43 214.5 -80 q186 -50 298 -132 q112 -82 112 -234 q0 -89 -40.5 -164.5 q-40.5 -75.5 -103.5 -124.5 q33 -25 61.5 -80 q28.5 -55 28.5 -127 q0 -118 -68 -198.5 q-68 -80.5 -176.5 -122 q-108.5 -41.5 -230.5 -41.5 q-117 0 -221 25 q-104 25 -178 77 l61 154 q45 -33 133 -66 q88 -33 205 -33 q123 0 192.5 51.5 q69.5 51.5 69.5 131.5 q0 70 -63.5 118 q-63.5 48 -235.5 101 q-132 40 -228 87.5 q-96 47.5 -148 115 q-52 67.5 -52 167.5 q0 66 40.5 142 q40.5 76 127.5 133 q-38 29 -62 85 q-24 56 -24 109 q0 102 57.5 179 q57.5 77 161.5 120 q104 43 242 43 q114 0 206 -25 q92 -25 157 -59 l-54 -155 ZM717 821 q0 -38 19.5 -72 q19.5 -34 74 -67.5 q54.5 -33.5 160.5 -69.5 q220 -72 282 -106 q36 29 56 73.5 q20 44.5 20 90.5 q0 59 -37 100 q-37 41 -96.5 70 q-59.5 29 -129.5 51.5 q-70 22.5 -137.5 44 q-67.5 21.5 -117.5 47.5 q-94 -70 -94 -162 Z" /><glyph glyph-name="" unicode="¨" d="M399 1339 q-56 0 -93.5 38 q-37.5 38 -37.5 91 q0 56 37.5 93.5 q37.5 37.5 93.5 37.5 q56 0 92.5 -37.5 q36.5 -37.5 36.5 -93.5 q0 -53 -36.5 -91 q-36.5 -38 -92.5 -38 ZM860 1339 q-57 0 -94 38 q-37 38 -37 91 q0 56 37 93.5 q37 37.5 94 37.5 q57 0 93 -37.5 q36 -37.5 36 -93.5 q0 -53 -36 -91 q-36 -38 -93 -38 Z" /><glyph glyph-name="" unicode="©" d="M858 -23 q-150 0 -285 53.5 q-135 53.5 -239 154 q-104 100.5 -163.5 242.5 q-59.5 142 -59.5 318 q0 177 59.5 317.5 q59.5 140.5 163.5 239.5 q104 99 239 151 q135 52 285 52 q151 0 286.5 -52.5 q135.5 -52.5 239.5 -151.5 q104 -99 164 -239.5 q60 -140.5 60 -316.5 q0 -176 -60 -318 q-60 -142 -164 -242.5 q-104 -100.5 -239.5 -154 q-135.5 -53.5 -286.5 -53.5 ZM858 86 q173 0 315.5 82.5 q142.5 82.5 227 231 q84.5 148.5 84.5 345.5 q0 197 -84.5 344 q-84.5 147 -227 228.5 q-142.5 81.5 -315.5 81.5 q-172 0 -314 -81.5 q-142 -81.5 -226.5 -228.5 q-84.5 -147 -84.5 -344 q0 -197 84.5 -345.5 q84.5 -148.5 226.5 -231 q142 -82.5 314 -82.5 ZM881 289 q-121 0 -217.5 54.5 q-96.5 54.5 -152.5 156.5 q-56 102 -56 243 q0 136 60.5 234 q60.5 98 158.5 151.5 q98 53.5 211 53.5 q100 0 168.5 -38 q68.5 -38 124.5 -93 l-95 -107 q-44 43 -86.5 66.5 q-42.5 23.5 -99.5 23.5 q-121 0 -191.5 -82.5 q-70.5 -82.5 -70.5 -208.5 q0 -139 68.5 -222 q68.5 -83 183.5 -83 q69 0 120.5 27.5 q51.5 27.5 100.5 66.5 l80 -116 q-63 -54 -136 -90.5 q-73 -36.5 -171 -36.5 Z" /><glyph glyph-name="" unicode="ª" d="M309 877 q-104 0 -166.5 62 q-62.5 62 -62.5 159 q0 121 107.5 187 q107.5 66 340.5 87 q-1 66 -29.5 108 q-28.5 42 -101.5 42 q-58 0 -118 -23.5 q-60 -23.5 -109 -52.5 l-61 115 q61 38 142.5 68 q81.5 30 172.5 30 q140 0 208 -82 q68 -82 68 -236 l0 -446 l-135 0 l-20 84 l-8 0 q-45 -42 -102 -72 q-57 -30 -126 -30 ZM362 1012 q81 0 166 82 l0 174 q-158 -17 -219 -58 q-61 -41 -61 -98 q0 -51 30.5 -75.5 q30.5 -24.5 83.5 -24.5 Z" /><glyph glyph-name="" unicode="«" d="M420 145 l-314 351 l0 172 l314 348 l94 -80 l-266 -356 l266 -359 l-94 -76 ZM805 145 l-311 351 l0 172 l311 348 l96 -80 l-266 -356 l266 -359 l-96 -76 Z" /><glyph glyph-name="" unicode="¬" d="M907 233 l0 443 l-829 0 l0 170 l1012 0 l0 -613 l-183 0 Z" /><glyph glyph-name="" unicode="®" d="M502 731 q-122 0 -222.5 57.5 q-100.5 57.5 -160.5 160 q-60 102.5 -60 237.5 q0 135 60 238.5 q60 103.5 160.5 162 q100.5 58.5 222.5 58.5 q121 0 221 -58.5 q100 -58.5 159.5 -162 q59.5 -103.5 59.5 -238.5 q0 -135 -59.5 -237.5 q-59.5 -102.5 -159.5 -160 q-100 -57.5 -221 -57.5 ZM502 821 q96 0 172.5 46 q76.5 46 121 128 q44.5 82 44.5 191 q0 108 -44.5 191 q-44.5 83 -121 129 q-76.5 46 -172.5 46 q-98 0 -174.5 -46 q-76.5 -46 -121 -129 q-44.5 -83 -44.5 -191 q0 -109 44.5 -191 q44.5 -82 121 -128 q76.5 -46 174.5 -46 ZM328 961 l0 462 l184 0 q74 0 128 -34.5 q54 -34.5 54 -114.5 q0 -42 -23 -77 q-23 -35 -63 -50 l105 -186 l-115 0 l-80 155 l-84 0 l0 -155 l-106 0 ZM434 1194 l55 0 q91 0 91 72 q0 32 -20 52.5 q-20 20.5 -66 20.5 l-60 0 l0 -145 Z" /><glyph glyph-name="" unicode="¯" d="M313 1376 l0 160 l633 0 l0 -160 l-633 0 Z" /><glyph glyph-name="" unicode="°" d="M395 967 q-82 0 -151 38 q-69 38 -110.5 107 q-41.5 69 -41.5 160 q0 91 41.5 159.5 q41.5 68.5 110.5 107 q69 38.5 151 38.5 q82 0 150.5 -38.5 q68.5 -38.5 109.5 -107 q41 -68.5 41 -159.5 q0 -91 -41 -160 q-41 -69 -109.5 -107 q-68.5 -38 -150.5 -38 ZM395 1090 q74 0 120 51 q46 51 46 131 q0 81 -46 132.5 q-46 51.5 -120 51.5 q-75 0 -121.5 -51.5 q-46.5 -51.5 -46.5 -132.5 q0 -80 46.5 -131 q46.5 -51 121.5 -51 Z" /><glyph glyph-name="" unicode="±" d="M1110 942 l0 -545 l-172 0 l0 545 l-651 0 l0 170 l651 0 l0 543 l172 0 l0 -543 l651 0 l0 -170 l-651 0 ZM1772 29 l-1485 0 l0 170 l1485 0 l0 -170 Z" /><glyph glyph-name="" unicode="²" d="M115 895 l0 100 q198 174 306.5 290.5 q108.5 116.5 108.5 213.5 q0 80 -42 127 q-42 47 -117 47 q-54 0 -100 -35.5 q-46 -35.5 -85 -89.5 l-104 97 q58 81 138.5 129.5 q80.5 48.5 176.5 48.5 q139 0 223.5 -76.5 q84.5 -76.5 84.5 -220.5 q0 -122 -87.5 -234 q-87.5 -112 -216.5 -245 l347 0 l0 -152 l-633 0 Z" /><glyph glyph-name="" unicode="³" d="M420 868 q-112 0 -201 48.5 q-89 48.5 -143 127.5 l114 89 q84 -125 216 -125 q67 0 115 37.5 q48 37.5 48 105.5 q0 147 -258 147 l0 109 q106 0 166 40.5 q60 40.5 60 106.5 q0 59 -40 93 q-40 34 -108 34 q-47 0 -92 -28.5 q-45 -28.5 -80 -73.5 l-104 92 q61 71 133.5 111.5 q72.5 40.5 171.5 40.5 q80 0 147 -30 q67 -30 107.5 -85 q40.5 -55 40.5 -131 q0 -77 -41 -130 q-41 -53 -109 -85 q74 -23 129.5 -79 q55.5 -56 55.5 -142 q0 -83 -45 -144.5 q-45 -61.5 -119.5 -95 q-74.5 -33.5 -163.5 -33.5 Z" /><glyph glyph-name="" unicode="´" d="M614 1319 l-120 117 l335 395 l164 -156 l-379 -356 Z" /><glyph glyph-name="" unicode="µ" d="M178 -410 l0 1536 l236 0 l0 -680 q0 -138 43 -204 q43 -66 141 -66 q71 0 134 37.5 q63 37.5 130 157.5 l0 755 l238 0 q-2 -145 -5.5 -299 q-3.5 -154 -6.5 -300 q-3 -146 -3 -269 q0 -51 23.5 -71.5 q23.5 -20.5 65.5 -20.5 q32 0 69 14 l29 -178 q-29 -12 -65 -20.5 q-36 -8.5 -91 -8.5 q-199 0 -229 209 l-6 0 q-56 -103 -130.5 -152.5 q-74.5 -49.5 -160.5 -49.5 q-60 0 -109 17 q-49 17 -86 73 q1 -103 3 -178.5 q2 -75.5 6.5 -146 q4.5 -70.5 11.5 -155.5 l-238 0 Z" /><glyph glyph-name="" unicode="¶" d="M928 608 q-63 0 -138 26 q-75 26 -143 80 q-68 54 -112 137.5 q-44 83.5 -46 199.5 q-1 92 28 184 q29 92 102 168.5 q73 76.5 201 123 q128 46.5 325 46.5 q104 0 173 -4.5 q69 -4.5 114 -14.5 l0 -1669 l-158 0 l0 1532 l-170 0 l0 -1532 l-158 0 l0 723 l-18 0 Z" /><glyph glyph-name="" unicode="¸" d="M430 -530 l-20 106 q141 9 193 34.5 q52 25.5 52 76.5 q0 41 -38 66.5 q-38 25.5 -138 39.5 l103 213 l147 0 l-67 -151 q81 -20 125 -57 q44 -37 44 -107 q0 -106 -104.5 -159 q-104.5 -53 -296.5 -62 Z" /><glyph glyph-name="" unicode="¹" d="M391 895 l0 690 l-196 0 l0 115 q79 14 129.5 35.5 q50.5 21.5 101.5 58.5 l145 0 l0 -899 l-180 0 Z" /><glyph glyph-name="" unicode="º" d="M422 877 q-96 0 -178 46.5 q-82 46.5 -131.5 134 q-49.5 87.5 -49.5 210.5 q0 124 49.5 211.5 q49.5 87.5 131.5 133.5 q82 46 178 46 q95 0 176 -46 q81 -46 130.5 -133.5 q49.5 -87.5 49.5 -211.5 q0 -123 -49.5 -210.5 q-49.5 -87.5 -130.5 -134 q-81 -46.5 -176 -46.5 ZM422 1016 q87 0 133.5 70 q46.5 70 46.5 182 q0 113 -46.5 183.5 q-46.5 70.5 -133.5 70.5 q-88 0 -134 -70.5 q-46 -70.5 -46 -183.5 q0 -112 46 -182 q46 -70 134 -70 Z" /><glyph glyph-name="" unicode="»" d="M219 145 l-96 76 l268 359 l-268 356 l96 80 l313 -348 l0 -172 l-313 -351 ZM606 145 l-96 76 l266 359 l-266 356 l96 80 l314 -348 l0 -172 l-314 -351 Z" /><glyph glyph-name="" unicode="¼" d="M332 610 l0 690 l-199 0 l0 113 q82 14 132.5 37 q50.5 23 101.5 59 l143 0 l0 -899 l-178 0 ZM420 -27 l825 1563 l150 0 l-826 -1563 l-149 0 ZM1235 350 l233 0 l0 144 l13 256 l-11 0 l-108 -185 l-127 -215 ZM1468 0 l0 227 l-409 0 l0 90 l360 582 l209 0 l0 -549 l135 0 l0 -123 l-135 0 l0 -227 l-160 0 Z" /><glyph glyph-name="" unicode="½" d="M332 610 l0 690 l-199 0 l0 113 q82 14 132.5 37 q50.5 23 101.5 59 l143 0 l0 -899 l-178 0 ZM375 -27 l827 1563 l150 0 l-828 -1563 l-149 0 ZM1151 0 l0 100 q197 174 306.5 290 q109.5 116 109.5 214 q0 80 -43 127 q-43 47 -117 47 q-54 0 -100 -35.5 q-46 -35.5 -84 -89.5 l-105 95 q57 81 137.5 129.5 q80.5 48.5 176.5 48.5 q138 0 223.5 -76 q85.5 -76 85.5 -219 q0 -82 -40 -158 q-40 -76 -108.5 -154 q-68.5 -78 -154.5 -167 l346 0 l0 -152 l-633 0 Z" /><glyph glyph-name="" unicode="¾" d="M416 582 q-114 0 -202.5 49 q-88.5 49 -141.5 129 l112 88 q42 -60 96.5 -93.5 q54.5 -33.5 120.5 -33.5 q68 0 116 38 q48 38 48 107 q0 72 -67 110 q-67 38 -193 38 l0 108 q108 0 167.5 41 q59.5 41 59.5 107 q0 57 -40.5 92 q-40.5 35 -106.5 35 q-49 0 -93 -29 q-44 -29 -79 -74 l-104 92 q61 71 133.5 110.5 q72.5 39.5 169.5 39.5 q80 0 147.5 -29.5 q67.5 -29.5 108.5 -84 q41 -54.5 41 -130.5 q0 -78 -42 -130.5 q-42 -52.5 -108 -86.5 q74 -23 128 -79 q54 -56 54 -142 q0 -83 -44.5 -144 q-44.5 -61 -118.5 -94.5 q-74 -33.5 -162 -33.5 ZM496 -27 l827 1563 l147 0 l-827 -1563 l-147 0 ZM1266 350 l231 0 l0 144 l12 256 l-10 0 l-106 -185 l-127 -215 ZM1497 0 l0 227 l-410 0 l0 90 l363 582 l209 0 l0 -549 l133 0 l0 -123 l-133 0 l0 -227 l-162 0 Z" /><glyph glyph-name="" unicode="¿" d="M508 -444 q-178 0 -290 97.5 q-112 97.5 -112 278.5 q0 89 36.5 159 q36.5 70 89 132 q52.5 62 103 124.5 q50.5 62.5 80.5 135 q30 72.5 19 164.5 l209 0 q14 -103 -13 -183.5 q-27 -80.5 -75 -146.5 q-48 -66 -99 -125 q-51 -59 -86.5 -117.5 q-35.5 -58.5 -35.5 -125.5 q0 -86 52 -143.5 q52 -57.5 149 -57.5 q72 0 133.5 34 q61.5 34 113.5 91 l133 -121 q-75 -86 -177.5 -141 q-102.5 -55 -229.5 -55 ZM535 823 q-67 0 -111.5 47 q-44.5 47 -44.5 119 q0 72 44.5 119 q44.5 47 111.5 47 q67 0 113 -47 q46 -47 46 -119 q0 -72 -46 -119 q-46 -47 -113 -47 Z" /><glyph glyph-name="" unicode="À" d="M487 819 l-61 -203 l412 0 l-60 203 q-38 123 -72.5 248.5 q-34.5 125.5 -68.5 253.5 l-10 0 q-33 -129 -68 -254 q-35 -125 -72 -248 ZM0 0 l500 1509 l274 0 l500 -1509 l-252 0 l-127 430 l-524 0 l-129 -430 l-242 0 ZM668 1593 l-371 267 l129 157 l348 -305 l-106 -119 Z" /><glyph glyph-name="" unicode="Á" d="M487 819 l-61 -203 l412 0 l-60 203 q-38 123 -72.5 248.5 q-34.5 125.5 -68.5 253.5 l-10 0 q-33 -129 -68 -254 q-35 -125 -72 -248 ZM0 0 l500 1509 l274 0 l500 -1509 l-252 0 l-127 430 l-524 0 l-129 -430 l-242 0 ZM600 1593 l-104 119 l346 305 l131 -157 l-373 -267 Z" /><glyph glyph-name="" unicode="Â" d="M487 819 l-61 -203 l412 0 l-60 203 q-38 123 -72.5 248.5 q-34.5 125.5 -68.5 253.5 l-10 0 q-33 -129 -68 -254 q-35 -125 -72 -248 ZM0 0 l500 1509 l274 0 l500 -1509 l-252 0 l-127 430 l-524 0 l-129 -430 l-242 0 ZM381 1599 l-102 72 l229 256 l252 0 l229 -256 l-102 -72 l-248 209 l-10 0 l-248 -209 Z" /><glyph glyph-name="" unicode="Ã" d="M487 819 l-61 -203 l412 0 l-60 203 q-38 123 -72.5 248.5 q-34.5 125.5 -68.5 253.5 l-10 0 q-33 -129 -68 -254 q-35 -125 -72 -248 ZM0 0 l500 1509 l274 0 l500 -1509 l-252 0 l-127 430 l-524 0 l-129 -430 l-242 0 ZM805 1622 q-64 0 -110.5 23 q-46.5 23 -83.5 53.5 q-37 30.5 -70 54 q-33 23.5 -70 23.5 q-40 0 -68.5 -35 q-28.5 -35 -35.5 -107 l-154 13 q6 144 74 220.5 q68 76.5 176 76.5 q64 0 111 -23 q47 -23 83.5 -53 q36.5 -30 69.5 -53 q33 -23 70 -23 q86 0 104 139 l156 -12 q-6 -144 -75.5 -220.5 q-69.5 -76.5 -176.5 -76.5 Z" /><glyph glyph-name="" unicode="Ä" d="M487 819 l-61 -203 l412 0 l-60 203 q-38 123 -72.5 248.5 q-34.5 125.5 -68.5 253.5 l-10 0 q-33 -129 -68 -254 q-35 -125 -72 -248 ZM0 0 l500 1509 l274 0 l500 -1509 l-252 0 l-127 430 l-524 0 l-129 -430 l-242 0 ZM391 1638 q-54 0 -90.5 35.5 q-36.5 35.5 -36.5 91.5 q0 56 36.5 91.5 q36.5 35.5 90.5 35.5 q55 0 92 -35.5 q37 -35.5 37 -91.5 q0 -56 -37 -91.5 q-37 -35.5 -92 -35.5 ZM877 1638 q-56 0 -92.5 35.5 q-36.5 35.5 -36.5 91.5 q0 56 36.5 91.5 q36.5 35.5 92.5 35.5 q55 0 91 -35.5 q36 -35.5 36 -91.5 q0 -56 -36 -91.5 q-36 -35.5 -91 -35.5 Z" /><glyph glyph-name="" unicode="Å" d="M487 819 l-61 -203 l412 0 l-60 203 q-38 123 -72.5 248.5 q-34.5 125.5 -68.5 253.5 l-10 0 q-33 -129 -68 -254 q-35 -125 -72 -248 ZM0 0 l500 1509 l274 0 l500 -1509 l-252 0 l-127 430 l-524 0 l-129 -430 l-242 0 ZM635 1706 q44 0 76 30 q32 30 32 87 q0 53 -32 84.5 q-32 31.5 -76 31.5 q-48 0 -80.5 -31.5 q-32.5 -31.5 -32.5 -84.5 q0 -57 32.5 -87 q32.5 -30 80.5 -30 ZM635 1608 q-105 0 -170.5 58 q-65.5 58 -65.5 157 q0 98 65.5 156.5 q65.5 58.5 170.5 58.5 q101 0 168 -58.5 q67 -58.5 67 -156.5 q0 -99 -67 -157 q-67 -58 -168 -58 Z" /><glyph glyph-name="" unicode="Æ" d="M678 852 l-127 -254 l362 0 l0 727 l-8 0 q-57 -120 -113.5 -239 q-56.5 -119 -113.5 -234 ZM4 0 l768 1509 l1002 0 l0 -200 l-621 0 l0 -420 l518 0 l0 -201 l-518 0 l0 -487 l643 0 l0 -201 l-883 0 l0 412 l-454 0 l-205 -412 l-250 0 Z" /><glyph glyph-name="" unicode="Ç" d="M586 -530 l-21 106 q142 9 194 34.5 q52 25.5 52 76.5 q0 41 -38.5 66.5 q-38.5 25.5 -139.5 39.5 l90 182 q-174 16 -311 111.5 q-137 95.5 -216 263 q-79 167.5 -79 400.5 q0 245 90.5 421.5 q90.5 176.5 244.5 270.5 q154 94 345 94 q141 0 250 -57.5 q109 -57.5 178 -132.5 l-129 -152 q-59 60 -131 97.5 q-72 37.5 -164 37.5 q-130 0 -229.5 -69 q-99.5 -69 -155.5 -197 q-56 -128 -56 -305 q0 -269 117.5 -423.5 q117.5 -154.5 317.5 -154.5 q104 0 185 43 q81 43 148 117 l127 -150 q-76 -89 -172 -143 q-96 -54 -213 -70 l-55 -122 q82 -20 127 -57 q45 -37 45 -107 q0 -106 -105.5 -159 q-105.5 -53 -295.5 -62 Z" /><glyph glyph-name="" unicode="È" d="M199 0 l0 1509 l891 0 l0 -200 l-654 0 l0 -420 l553 0 l0 -201 l-553 0 l0 -487 l676 0 l0 -201 l-913 0 ZM702 1593 l-372 267 l131 157 l346 -305 l-105 -119 Z" /><glyph glyph-name="" unicode="É" d="M199 0 l0 1509 l891 0 l0 -200 l-654 0 l0 -420 l553 0 l0 -201 l-553 0 l0 -487 l676 0 l0 -201 l-913 0 ZM633 1593 l-105 119 l346 305 l132 -157 l-373 -267 Z" /><glyph glyph-name="" unicode="Ê" d="M199 0 l0 1509 l891 0 l0 -200 l-654 0 l0 -420 l553 0 l0 -201 l-553 0 l0 -487 l676 0 l0 -201 l-913 0 ZM414 1599 l-101 72 l230 256 l252 0 l229 -256 l-102 -72 l-250 209 l-8 0 l-250 -209 Z" /><glyph glyph-name="" unicode="Ë" d="M199 0 l0 1509 l891 0 l0 -200 l-654 0 l0 -420 l553 0 l0 -201 l-553 0 l0 -487 l676 0 l0 -201 l-913 0 ZM426 1638 q-55 0 -91 35.5 q-36 35.5 -36 91.5 q0 56 36 91.5 q36 35.5 91 35.5 q55 0 91 -35.5 q36 -35.5 36 -91.5 q0 -56 -36 -91.5 q-36 -35.5 -91 -35.5 ZM911 1638 q-56 0 -92.5 35.5 q-36.5 35.5 -36.5 91.5 q0 56 36.5 91.5 q36.5 35.5 92.5 35.5 q56 0 91.5 -35.5 q35.5 -35.5 35.5 -91.5 q0 -56 -35.5 -91.5 q-35.5 -35.5 -91.5 -35.5 Z" /><glyph glyph-name="" unicode="Ì" d="M199 0 l0 1509 l237 0 l0 -1509 l-237 0 ZM352 1593 l-370 267 l129 157 l348 -305 l-107 -119 Z" /><glyph glyph-name="" unicode="Í" d="M199 0 l0 1509 l237 0 l0 -1509 l-237 0 ZM285 1593 l-105 119 l346 305 l131 -157 l-372 -267 Z" /><glyph glyph-name="" unicode="Î" d="M199 0 l0 1509 l237 0 l0 -1509 l-237 0 ZM66 1599 l-103 72 l230 256 l251 0 l232 -256 l-105 -72 l-247 209 l-11 0 l-247 -209 Z" /><glyph glyph-name="" unicode="Ï" d="M199 0 l0 1509 l237 0 l0 -1509 l-237 0 ZM76 1638 q-56 0 -91.5 35.5 q-35.5 35.5 -35.5 91.5 q0 56 35.5 91.5 q35.5 35.5 91.5 35.5 q57 0 93 -35.5 q36 -35.5 36 -91.5 q0 -56 -36 -91.5 q-36 -35.5 -93 -35.5 ZM561 1638 q-57 0 -93 35.5 q-36 35.5 -36 91.5 q0 56 36 91.5 q36 35.5 93 35.5 q55 0 91 -35.5 q36 -35.5 36 -91.5 q0 -56 -36 -91.5 q-36 -35.5 -91 -35.5 Z" /><glyph glyph-name="" unicode="Ð" d="M252 0 l0 725 l-180 0 l0 115 l180 10 l0 659 l391 0 q347 0 537 -190.5 q190 -190.5 190 -558.5 q0 -367 -188.5 -563.5 q-188.5 -196.5 -526.5 -196.5 l-403 0 ZM489 195 l138 0 q242 0 369.5 142 q127.5 142 127.5 423 q0 282 -127.5 418.5 q-127.5 136.5 -369.5 136.5 l-138 0 l0 -465 l326 0 l0 -125 l-326 0 l0 -530 Z" /><glyph glyph-name="" unicode="Ñ" d="M199 0 l0 1509 l243 0 l500 -886 l158 -320 l10 0 q-9 117 -20 248 q-11 131 -11 254 l0 704 l226 0 l0 -1509 l-244 0 l-500 889 l-158 315 l-10 0 q9 -117 20 -243.5 q11 -126.5 11 -249.5 l0 -711 l-225 0 ZM942 1622 q-64 0 -110.5 23 q-46.5 23 -83 53.5 q-36.5 30.5 -70 54 q-33.5 23.5 -70.5 23.5 q-40 0 -68 -35 q-28 -35 -34 -107 l-156 13 q6 144 74.5 220.5 q68.5 76.5 177.5 76.5 q64 0 110.5 -23 q46.5 -23 83 -53 q36.5 -30 69.5 -53 q33 -23 71 -23 q40 0 67.5 34.5 q27.5 34.5 34.5 104.5 l156 -12 q-6 -144 -75 -220.5 q-69 -76.5 -177 -76.5 Z" /><glyph glyph-name="" unicode="Ò" d="M772 -27 q-193 0 -341 95.5 q-148 95.5 -231 272 q-83 176.5 -83 419.5 q0 242 83 416 q83 174 231 267 q148 93 341 93 q194 0 342 -93 q148 -93 232 -267 q84 -174 84 -416 q0 -243 -84 -419.5 q-84 -176.5 -232 -272 q-148 -95.5 -342 -95.5 ZM772 180 q125 0 218 71.5 q93 71.5 144.5 202 q51.5 130.5 51.5 306.5 q0 266 -113.5 417.5 q-113.5 151.5 -300.5 151.5 q-187 0 -299.5 -151.5 q-112.5 -151.5 -112.5 -417.5 q0 -176 51 -306.5 q51 -130.5 143.5 -202 q92.5 -71.5 217.5 -71.5 ZM807 1593 l-373 267 l129 157 l348 -305 l-104 -119 Z" /><glyph glyph-name="" unicode="Ó" d="M772 -27 q-193 0 -341 95.5 q-148 95.5 -231 272 q-83 176.5 -83 419.5 q0 242 83 416 q83 174 231 267 q148 93 341 93 q194 0 342 -93 q148 -93 232 -267 q84 -174 84 -416 q0 -243 -84 -419.5 q-84 -176.5 -232 -272 q-148 -95.5 -342 -95.5 ZM772 180 q125 0 218 71.5 q93 71.5 144.5 202 q51.5 130.5 51.5 306.5 q0 266 -113.5 417.5 q-113.5 151.5 -300.5 151.5 q-187 0 -299.5 -151.5 q-112.5 -151.5 -112.5 -417.5 q0 -176 51 -306.5 q51 -130.5 143.5 -202 q92.5 -71.5 217.5 -71.5 ZM737 1593 l-104 119 l348 305 l129 -157 l-373 -267 Z" /><glyph glyph-name="" unicode="Ô" d="M772 -27 q-193 0 -341 95.5 q-148 95.5 -231 272 q-83 176.5 -83 419.5 q0 242 83 416 q83 174 231 267 q148 93 341 93 q194 0 342 -93 q148 -93 232 -267 q84 -174 84 -416 q0 -243 -84 -419.5 q-84 -176.5 -232 -272 q-148 -95.5 -342 -95.5 ZM772 180 q125 0 218 71.5 q93 71.5 144.5 202 q51.5 130.5 51.5 306.5 q0 266 -113.5 417.5 q-113.5 151.5 -300.5 151.5 q-187 0 -299.5 -151.5 q-112.5 -151.5 -112.5 -417.5 q0 -176 51 -306.5 q51 -130.5 143.5 -202 q92.5 -71.5 217.5 -71.5 ZM518 1599 l-102 72 l231 256 l252 0 l229 -256 l-102 -72 l-250 209 l-8 0 l-250 -209 Z" /><glyph glyph-name="" unicode="Õ" d="M772 -27 q-193 0 -341 95.5 q-148 95.5 -231 272 q-83 176.5 -83 419.5 q0 242 83 416 q83 174 231 267 q148 93 341 93 q194 0 342 -93 q148 -93 232 -267 q84 -174 84 -416 q0 -243 -84 -419.5 q-84 -176.5 -232 -272 q-148 -95.5 -342 -95.5 ZM772 180 q125 0 218 71.5 q93 71.5 144.5 202 q51.5 130.5 51.5 306.5 q0 266 -113.5 417.5 q-113.5 151.5 -300.5 151.5 q-187 0 -299.5 -151.5 q-112.5 -151.5 -112.5 -417.5 q0 -176 51 -306.5 q51 -130.5 143.5 -202 q92.5 -71.5 217.5 -71.5 ZM942 1622 q-64 0 -110.5 23 q-46.5 23 -83 53.5 q-36.5 30.5 -70 54 q-33.5 23.5 -70.5 23.5 q-40 0 -68 -35 q-28 -35 -34 -107 l-156 13 q8 144 75.5 220.5 q67.5 76.5 176.5 76.5 q64 0 110.5 -23 q46.5 -23 83 -53 q36.5 -30 69.5 -53 q33 -23 71 -23 q84 0 102 139 l156 -12 q-6 -144 -75 -220.5 q-69 -76.5 -177 -76.5 Z" /><glyph glyph-name="" unicode="Ö" d="M772 -27 q-193 0 -341 95.5 q-148 95.5 -231 272 q-83 176.5 -83 419.5 q0 242 83 416 q83 174 231 267 q148 93 341 93 q194 0 342 -93 q148 -93 232 -267 q84 -174 84 -416 q0 -243 -84 -419.5 q-84 -176.5 -232 -272 q-148 -95.5 -342 -95.5 ZM772 180 q125 0 218 71.5 q93 71.5 144.5 202 q51.5 130.5 51.5 306.5 q0 266 -113.5 417.5 q-113.5 151.5 -300.5 151.5 q-187 0 -299.5 -151.5 q-112.5 -151.5 -112.5 -417.5 q0 -176 51 -306.5 q51 -130.5 143.5 -202 q92.5 -71.5 217.5 -71.5 ZM530 1638 q-55 0 -91 35.5 q-36 35.5 -36 91.5 q0 56 36 91.5 q36 35.5 91 35.5 q56 0 91.5 -35.5 q35.5 -35.5 35.5 -91.5 q0 -56 -35.5 -91.5 q-35.5 -35.5 -91.5 -35.5 ZM1014 1638 q-56 0 -91.5 35.5 q-35.5 35.5 -35.5 91.5 q0 56 35.5 91.5 q35.5 35.5 91.5 35.5 q57 0 93 -35.5 q36 -35.5 36 -91.5 q0 -56 -36 -91.5 q-36 -35.5 -93 -35.5 Z" /><glyph glyph-name="" unicode="×" d="M1026 653 l-547 -544 l-121 118 l547 547 l-547 545 l123 121 l545 -547 l545 547 l121 -121 l-547 -545 l547 -547 l-121 -118 l-545 544 Z" /><glyph glyph-name="" unicode="Ø" d="M236 -76 l-127 96 l161 207 q-72 100 -110.5 234 q-38.5 134 -38.5 299 q0 242 83 416 q83 174 231 267 q148 93 341 93 q238 0 406 -139 l145 188 l129 -98 l-164 -211 q68 -97 105 -226.5 q37 -129.5 37 -289.5 q0 -243 -84 -419.5 q-84 -176.5 -232 -272 q-148 -95.5 -342 -95.5 q-232 0 -395 136 l-145 -185 ZM365 760 q0 -97 16 -180.5 q16 -83.5 45 -151.5 l616 791 q-107 110 -266 110 q-187 0 -299 -151.5 q-112 -151.5 -112 -417.5 ZM776 180 q126 0 219 71.5 q93 71.5 144 202 q51 130.5 51 306.5 q0 92 -14.5 171.5 q-14.5 79.5 -40.5 143.5 l-617 -788 q51 -51 116 -79 q65 -28 142 -28 Z" /><glyph glyph-name="" unicode="Ù" d="M752 -27 q-167 0 -293.5 66 q-126.5 66 -197.5 214 q-71 148 -71 394 l0 862 l238 0 l0 -878 q0 -170 41.5 -268.5 q41.5 -98.5 114.5 -140.5 q73 -42 168 -42 q95 0 169.5 42 q74.5 42 117 140.5 q42.5 98.5 42.5 268.5 l0 878 l230 0 l0 -862 q0 -246 -70.5 -394 q-70.5 -148 -196 -214 q-125.5 -66 -292.5 -66 ZM784 1593 l-372 267 l129 157 l348 -305 l-105 -119 Z" /><glyph glyph-name="" unicode="Ú" d="M752 -27 q-167 0 -293.5 66 q-126.5 66 -197.5 214 q-71 148 -71 394 l0 862 l238 0 l0 -878 q0 -170 41.5 -268.5 q41.5 -98.5 114.5 -140.5 q73 -42 168 -42 q95 0 169.5 42 q74.5 42 117 140.5 q42.5 98.5 42.5 268.5 l0 878 l230 0 l0 -862 q0 -246 -70.5 -394 q-70.5 -148 -196 -214 q-125.5 -66 -292.5 -66 ZM715 1593 l-105 119 l346 305 l131 -157 l-372 -267 Z" /><glyph glyph-name="" unicode="Û" d="M752 -27 q-167 0 -293.5 66 q-126.5 66 -197.5 214 q-71 148 -71 394 l0 862 l238 0 l0 -878 q0 -170 41.5 -268.5 q41.5 -98.5 114.5 -140.5 q73 -42 168 -42 q95 0 169.5 42 q74.5 42 117 140.5 q42.5 98.5 42.5 268.5 l0 878 l230 0 l0 -862 q0 -246 -70.5 -394 q-70.5 -148 -196 -214 q-125.5 -66 -292.5 -66 ZM496 1599 l-103 72 l230 256 l254 0 l227 -256 l-103 -72 l-247 209 l-11 0 l-247 -209 Z" /><glyph glyph-name="" unicode="Ü" d="M752 -27 q-167 0 -293.5 66 q-126.5 66 -197.5 214 q-71 148 -71 394 l0 862 l238 0 l0 -878 q0 -170 41.5 -268.5 q41.5 -98.5 114.5 -140.5 q73 -42 168 -42 q95 0 169.5 42 q74.5 42 117 140.5 q42.5 98.5 42.5 268.5 l0 878 l230 0 l0 -862 q0 -246 -70.5 -394 q-70.5 -148 -196 -214 q-125.5 -66 -292.5 -66 ZM506 1638 q-55 0 -90 35.5 q-35 35.5 -35 91.5 q0 56 35 91.5 q35 35.5 90 35.5 q57 0 93 -35.5 q36 -35.5 36 -91.5 q0 -56 -36 -91.5 q-36 -35.5 -93 -35.5 ZM991 1638 q-55 0 -91 35.5 q-36 35.5 -36 91.5 q0 56 36 91.5 q36 35.5 91 35.5 q56 0 91.5 -35.5 q35.5 -35.5 35.5 -91.5 q0 -56 -35.5 -91.5 q-35.5 -35.5 -91.5 -35.5 Z" /><glyph glyph-name="" unicode="Ý" d="M446 0 l0 571 l-452 938 l254 0 l174 -401 q35 -85 69 -165.5 q34 -80.5 72 -166.5 l8 0 q37 86 73.5 166.5 q36.5 80.5 70.5 165.5 l176 401 l248 0 l-455 -938 l0 -571 l-238 0 ZM532 1593 l-106 119 l348 305 l129 -157 l-371 -267 Z" /><glyph glyph-name="" unicode="Þ" d="M199 0 l0 1509 l237 0 l0 -247 l252 0 q166 0 294 -43 q128 -43 200.5 -142.5 q72.5 -99.5 72.5 -269.5 q0 -165 -74 -271.5 q-74 -106.5 -202 -158 q-128 -51.5 -291 -51.5 l-252 0 l0 -326 l-237 0 ZM436 516 l228 0 q181 0 268.5 71 q87.5 71 87.5 220 q0 149 -89 206.5 q-89 57.5 -267 57.5 l-228 0 l0 -555 Z" /><glyph glyph-name="" unicode="ß" d="M915 -27 q-96 0 -176 29.5 q-80 29.5 -155 81.5 l88 162 q121 -94 237 -94 q83 0 128.5 48.5 q45.5 48.5 45.5 112.5 q0 60 -31.5 100.5 q-31.5 40.5 -82 70.5 q-50.5 30 -106.5 59 q-56 29 -106 65.5 q-50 36.5 -82 89.5 q-32 53 -32 131 q0 74 29 128 q29 54 66.5 101.5 q37.5 47.5 66.5 99.5 q29 52 29 122 q0 80 -45.5 133 q-45.5 53 -133.5 53 q-116 0 -180.5 -85.5 q-64.5 -85.5 -64.5 -250.5 l0 -1130 l-232 0 l0 1167 q0 218 122 353 q122 135 357 135 q133 0 223 -48.5 q90 -48.5 136.5 -128 q46.5 -79.5 46.5 -173.5 q0 -86 -30 -146.5 q-30 -60.5 -69.5 -108 q-39.5 -47.5 -69.5 -93.5 q-30 -46 -30 -101 q0 -50 32 -84 q32 -34 81.5 -61.5 q49.5 -27.5 105.5 -57.5 q56 -30 106 -71.5 q50 -41.5 82 -103 q32 -61.5 32 -152.5 q0 -100 -46 -179.5 q-46 -79.5 -133 -126.5 q-87 -47 -209 -47 Z" /><glyph glyph-name="" unicode="à" d="M444 -27 q-146 0 -238.5 88.5 q-92.5 88.5 -92.5 237.5 q0 181 161 280 q161 99 512 138 q-1 65 -20 121 q-19 56 -65.5 90.5 q-46.5 34.5 -129.5 34.5 q-89 0 -171 -34.5 q-82 -34.5 -154 -80.5 l-88 160 q87 55 203 101 q116 46 251 46 q211 0 310.5 -126.5 q99.5 -126.5 99.5 -350.5 l0 -678 l-193 0 l-18 129 l-8 0 q-77 -66 -167 -111 q-90 -45 -192 -45 ZM516 160 q74 0 137.5 34 q63.5 34 132.5 97 l0 276 q-250 -29 -348 -92.5 q-98 -63.5 -98 -159.5 q0 -83 50.5 -119 q50.5 -36 125.5 -36 ZM637 1319 l-377 356 l162 156 l334 -395 l-119 -117 Z" /><glyph glyph-name="" unicode="á" d="M444 -27 q-146 0 -238.5 88.5 q-92.5 88.5 -92.5 237.5 q0 181 161 280 q161 99 512 138 q-1 65 -20 121 q-19 56 -65.5 90.5 q-46.5 34.5 -129.5 34.5 q-89 0 -171 -34.5 q-82 -34.5 -154 -80.5 l-88 160 q87 55 203 101 q116 46 251 46 q211 0 310.5 -126.5 q99.5 -126.5 99.5 -350.5 l0 -678 l-193 0 l-18 129 l-8 0 q-77 -66 -167 -111 q-90 -45 -192 -45 ZM516 160 q74 0 137.5 34 q63.5 34 132.5 97 l0 276 q-250 -29 -348 -92.5 q-98 -63.5 -98 -159.5 q0 -83 50.5 -119 q50.5 -36 125.5 -36 ZM608 1319 l-121 117 l336 395 l164 -156 l-379 -356 Z" /><glyph glyph-name="" unicode="â" d="M444 -27 q-146 0 -238.5 88.5 q-92.5 88.5 -92.5 237.5 q0 181 161 280 q161 99 512 138 q-1 65 -20 121 q-19 56 -65.5 90.5 q-46.5 34.5 -129.5 34.5 q-89 0 -171 -34.5 q-82 -34.5 -154 -80.5 l-88 160 q87 55 203 101 q116 46 251 46 q211 0 310.5 -126.5 q99.5 -126.5 99.5 -350.5 l0 -678 l-193 0 l-18 129 l-8 0 q-77 -66 -167 -111 q-90 -45 -192 -45 ZM516 160 q74 0 137.5 34 q63.5 34 132.5 97 l0 276 q-250 -29 -348 -92.5 q-98 -63.5 -98 -159.5 q0 -83 50.5 -119 q50.5 -36 125.5 -36 ZM246 1393 l258 315 l237 0 l258 -315 l-96 -90 l-276 245 l-9 0 l-276 -245 l-96 90 Z" /><glyph glyph-name="" unicode="ã" d="M444 -27 q-146 0 -238.5 88.5 q-92.5 88.5 -92.5 237.5 q0 181 161 280 q161 99 512 138 q-1 65 -20 121 q-19 56 -65.5 90.5 q-46.5 34.5 -129.5 34.5 q-89 0 -171 -34.5 q-82 -34.5 -154 -80.5 l-88 160 q87 55 203 101 q116 46 251 46 q211 0 310.5 -126.5 q99.5 -126.5 99.5 -350.5 l0 -678 l-193 0 l-18 129 l-8 0 q-77 -66 -167 -111 q-90 -45 -192 -45 ZM516 160 q74 0 137.5 34 q63.5 34 132.5 97 l0 276 q-250 -29 -348 -92.5 q-98 -63.5 -98 -159.5 q0 -83 50.5 -119 q50.5 -36 125.5 -36 ZM784 1327 q-59 0 -103.5 27 q-44.5 27 -80 62 q-35.5 35 -68.5 62 q-33 27 -69 27 q-46 0 -69 -43.5 q-23 -43.5 -27 -122.5 l-154 11 q5 147 64 235 q59 88 184 88 q58 0 102 -27 q44 -27 80 -62 q36 -35 69 -62 q33 -27 70 -27 q46 0 69 44.5 q23 44.5 30 119.5 l151 -8 q-4 -146 -63.5 -235 q-59.5 -89 -184.5 -89 Z" /><glyph glyph-name="" unicode="ä" d="M444 -27 q-146 0 -238.5 88.5 q-92.5 88.5 -92.5 237.5 q0 181 161 280 q161 99 512 138 q-1 65 -20 121 q-19 56 -65.5 90.5 q-46.5 34.5 -129.5 34.5 q-89 0 -171 -34.5 q-82 -34.5 -154 -80.5 l-88 160 q87 55 203 101 q116 46 251 46 q211 0 310.5 -126.5 q99.5 -126.5 99.5 -350.5 l0 -678 l-193 0 l-18 129 l-8 0 q-77 -66 -167 -111 q-90 -45 -192 -45 ZM516 160 q74 0 137.5 34 q63.5 34 132.5 97 l0 276 q-250 -29 -348 -92.5 q-98 -63.5 -98 -159.5 q0 -83 50.5 -119 q50.5 -36 125.5 -36 ZM391 1339 q-55 0 -92 38 q-37 38 -37 91 q0 56 37 93.5 q37 37.5 92 37.5 q57 0 94 -37.5 q37 -37.5 37 -93.5 q0 -53 -37 -91 q-37 -38 -94 -38 ZM854 1339 q-57 0 -94 38 q-37 38 -37 91 q0 56 37 93.5 q37 37.5 94 37.5 q55 0 92 -37.5 q37 -37.5 37 -93.5 q0 -53 -37 -91 q-37 -38 -92 -38 Z" /><glyph glyph-name="" unicode="å" d="M444 -27 q-146 0 -238.5 88.5 q-92.5 88.5 -92.5 237.5 q0 181 161 280 q161 99 512 138 q-1 65 -20 121 q-19 56 -65.5 90.5 q-46.5 34.5 -129.5 34.5 q-89 0 -171 -34.5 q-82 -34.5 -154 -80.5 l-88 160 q87 55 203 101 q116 46 251 46 q211 0 310.5 -126.5 q99.5 -126.5 99.5 -350.5 l0 -678 l-193 0 l-18 129 l-8 0 q-77 -66 -167 -111 q-90 -45 -192 -45 ZM516 160 q74 0 137.5 34 q63.5 34 132.5 97 l0 276 q-250 -29 -348 -92.5 q-98 -63.5 -98 -159.5 q0 -83 50.5 -119 q50.5 -36 125.5 -36 ZM623 1284 q-126 0 -197.5 65.5 q-71.5 65.5 -71.5 163.5 q0 100 71.5 166 q71.5 66 197.5 66 q126 0 197 -66 q71 -66 71 -166 q0 -98 -71 -163.5 q-71 -65.5 -197 -65.5 ZM623 1382 q50 0 85 36 q35 36 35 95 q0 60 -35 97 q-35 37 -85 37 q-51 0 -87 -37 q-36 -37 -36 -97 q0 -59 36 -95 q36 -36 87 -36 Z" /><glyph glyph-name="" unicode="æ" d="M459 -27 q-146 0 -239 88.5 q-93 88.5 -93 235.5 q0 183 160 283 q160 100 506 139 q-2 64 -21 119.5 q-19 55.5 -64.5 90 q-45.5 34.5 -127.5 34.5 q-86 0 -167 -34.5 q-81 -34.5 -153 -80.5 l-88 160 q86 55 199 101 q113 46 237 46 q119 0 199.5 -59.5 q80.5 -59.5 120.5 -159.5 q67 103 158 161 q91 58 200 58 q142 0 240 -68.5 q98 -68.5 148 -190 q50 -121.5 50 -280.5 q0 -33 -3.5 -63 q-3.5 -30 -8.5 -51 l-704 0 q10 -158 101.5 -249 q91.5 -91 223.5 -91 q77 0 139 24 q62 24 123 64 l84 -158 q-78 -52 -171.5 -85.5 q-93.5 -33.5 -202.5 -33.5 q-139 0 -234.5 59 q-95.5 59 -161.5 140 q-229 -199 -450 -199 ZM530 160 q71 0 152.5 38.5 q81.5 38.5 148.5 108.5 q-18 42 -27.5 97 q-9.5 55 -10.5 110 l-2 53 q-237 -29 -337 -92 q-100 -63 -100 -160 q0 -83 50.5 -119 q50.5 -36 125.5 -36 ZM1008 651 l512 0 q0 152 -61.5 236 q-61.5 84 -178.5 84 q-104 0 -180.5 -84.5 q-76.5 -84.5 -91.5 -235.5 Z" /><glyph glyph-name="" unicode="ç" d="M401 -530 l-22 106 q141 9 193.5 34.5 q52.5 25.5 52.5 76.5 q0 41 -38.5 66.5 q-38.5 25.5 -137.5 39.5 l92 189 q-128 20 -228 94 q-100 74 -157.5 197 q-57.5 123 -57.5 290 q0 188 77.5 320 q77.5 132 204.5 202 q127 70 275 70 q108 0 188.5 -37.5 q80.5 -37.5 141.5 -91.5 l-117 -154 q-46 42 -95 65.5 q-49 23.5 -105 23.5 q-96 0 -169.5 -50 q-73.5 -50 -115 -139.5 q-41.5 -89.5 -41.5 -208.5 q0 -180 89 -288.5 q89 -108.5 228 -108.5 q71 0 133.5 29.5 q62.5 29.5 112.5 72.5 l99 -155 q-140 -122 -320 -138 l-53 -120 q81 -20 125.5 -57 q44.5 -37 44.5 -107 q0 -106 -104 -159 q-104 -53 -296 -62 Z" /><glyph glyph-name="" unicode="è" d="M647 -27 q-152 0 -276.5 70 q-124.5 70 -198.5 202 q-74 132 -74 318 q0 182 74 315 q74 133 191.5 205 q117.5 72 248.5 72 q150 0 252.5 -67 q102.5 -67 155.5 -187 q53 -120 53 -278 q0 -36 -4 -68 q-4 -32 -8 -53 l-731 0 q14 -162 108 -253 q94 -91 240 -91 q75 0 141 22 q66 22 127 62 l82 -150 q-78 -52 -174 -85.5 q-96 -33.5 -207 -33.5 ZM328 666 l540 0 q0 144 -64.5 224.5 q-64.5 80.5 -187.5 80.5 q-106 0 -188.5 -79 q-82.5 -79 -99.5 -226 ZM627 1319 l-379 356 l162 156 l333 -395 l-116 -117 Z" /><glyph glyph-name="" unicode="é" d="M647 -27 q-152 0 -276.5 70 q-124.5 70 -198.5 202 q-74 132 -74 318 q0 182 74 315 q74 133 191.5 205 q117.5 72 248.5 72 q150 0 252.5 -67 q102.5 -67 155.5 -187 q53 -120 53 -278 q0 -36 -4 -68 q-4 -32 -8 -53 l-731 0 q14 -162 108 -253 q94 -91 240 -91 q75 0 141 22 q66 22 127 62 l82 -150 q-78 -52 -174 -85.5 q-96 -33.5 -207 -33.5 ZM328 666 l540 0 q0 144 -64.5 224.5 q-64.5 80.5 -187.5 80.5 q-106 0 -188.5 -79 q-82.5 -79 -99.5 -226 ZM596 1319 l-119 117 l334 395 l164 -156 l-379 -356 Z" /><glyph glyph-name="" unicode="ê" d="M647 -27 q-152 0 -276.5 70 q-124.5 70 -198.5 202 q-74 132 -74 318 q0 182 74 315 q74 133 191.5 205 q117.5 72 248.5 72 q150 0 252.5 -67 q102.5 -67 155.5 -187 q53 -120 53 -278 q0 -36 -4 -68 q-4 -32 -8 -53 l-731 0 q14 -162 108 -253 q94 -91 240 -91 q75 0 141 22 q66 22 127 62 l82 -150 q-78 -52 -174 -85.5 q-96 -33.5 -207 -33.5 ZM328 666 l540 0 q0 144 -64.5 224.5 q-64.5 80.5 -187.5 80.5 q-106 0 -188.5 -79 q-82.5 -79 -99.5 -226 ZM233 1393 l259 315 l237 0 l258 -315 l-96 -90 l-277 245 l-8 0 l-276 -245 l-97 90 Z" /><glyph glyph-name="" unicode="ë" d="M647 -27 q-152 0 -276.5 70 q-124.5 70 -198.5 202 q-74 132 -74 318 q0 182 74 315 q74 133 191.5 205 q117.5 72 248.5 72 q150 0 252.5 -67 q102.5 -67 155.5 -187 q53 -120 53 -278 q0 -36 -4 -68 q-4 -32 -8 -53 l-731 0 q14 -162 108 -253 q94 -91 240 -91 q75 0 141 22 q66 22 127 62 l82 -150 q-78 -52 -174 -85.5 q-96 -33.5 -207 -33.5 ZM328 666 l540 0 q0 144 -64.5 224.5 q-64.5 80.5 -187.5 80.5 q-106 0 -188.5 -79 q-82.5 -79 -99.5 -226 ZM379 1339 q-55 0 -92 38 q-37 38 -37 91 q0 56 37 93.5 q37 37.5 92 37.5 q57 0 94 -37.5 q37 -37.5 37 -93.5 q0 -53 -37 -91 q-37 -38 -94 -38 ZM842 1339 q-57 0 -94 38 q-37 38 -37 91 q0 56 37 93.5 q37 37.5 94 37.5 q57 0 94 -37.5 q37 -37.5 37 -93.5 q0 -53 -37 -91 q-37 -38 -94 -38 Z" /><glyph glyph-name="" unicode="ì" d="M178 0 l0 1126 l236 0 l0 -1126 l-236 0 ZM311 1319 l-379 356 l162 156 l334 -395 l-117 -117 Z" /><glyph glyph-name="" unicode="í" d="M178 0 l0 1126 l236 0 l0 -1126 l-236 0 ZM281 1319 l-119 117 l334 395 l163 -156 l-378 -356 Z" /><glyph glyph-name="" unicode="î" d="M178 0 l0 1126 l236 0 l0 -1126 l-236 0 ZM-80 1393 l256 315 l240 0 l256 -315 l-94 -90 l-279 245 l-8 0 l-277 -245 l-94 90 Z" /><glyph glyph-name="" unicode="ï" d="M178 0 l0 1126 l236 0 l0 -1126 l-236 0 ZM66 1339 q-57 0 -94.5 38 q-37.5 38 -37.5 91 q0 56 37.5 93.5 q37.5 37.5 94.5 37.5 q55 0 92 -37.5 q37 -37.5 37 -93.5 q0 -53 -37 -91 q-37 -38 -92 -38 ZM526 1339 q-56 0 -92.5 38 q-36.5 38 -36.5 91 q0 56 36.5 93.5 q36.5 37.5 92.5 37.5 q57 0 94 -37.5 q37 -37.5 37 -93.5 q0 -53 -37 -91 q-37 -38 -94 -38 Z" /><glyph glyph-name="" unicode="ð" d="M334 516 q0 -107 40.5 -186 q40.5 -79 107.5 -121.5 q67 -42.5 147 -42.5 q138 0 210 113.5 q72 113.5 72 308.5 q0 32 -1 62.5 q-1 30.5 -3 58.5 q-67 87 -137.5 117 q-70.5 30 -140.5 30 q-139 0 -217 -93 q-78 -93 -78 -247 ZM623 -27 q-135 0 -250.5 65.5 q-115.5 65.5 -186.5 187 q-71 121.5 -71 290.5 q0 159 63.5 275 q63.5 116 171 179.5 q107.5 63.5 238.5 63.5 q81 0 157 -32 q76 -32 129 -101 q-30 125 -88.5 222.5 q-58.5 97.5 -140.5 176.5 l-326 -165 l-65 110 l285 146 q-54 41 -115 78.5 q-61 37.5 -127 72.5 l104 148 q83 -43 164.5 -94.5 q81.5 -51.5 155.5 -112.5 l328 168 l63 -113 l-289 -147 q137 -139 224.5 -331.5 q87.5 -192.5 87.5 -459.5 q0 -186 -63.5 -327.5 q-63.5 -141.5 -178.5 -220.5 q-115 -79 -270 -79 Z" /><glyph glyph-name="" unicode="ñ" d="M178 0 l0 1126 l193 0 l18 -155 l6 0 q79 75 168.5 129.5 q89.5 54.5 204.5 54.5 q180 0 263 -115.5 q83 -115.5 83 -330.5 l0 -709 l-235 0 l0 680 q0 146 -45.5 209 q-45.5 63 -145.5 63 q-78 0 -139.5 -39 q-61.5 -39 -134.5 -114 l0 -799 l-236 0 ZM854 1327 q-59 0 -103.5 27 q-44.5 27 -80.5 62 q-36 35 -68.5 62 q-32.5 27 -69.5 27 q-46 0 -68.5 -43.5 q-22.5 -43.5 -27.5 -122.5 l-155 11 q4 147 64.5 235 q60.5 88 184.5 88 q59 0 103 -27 q44 -27 80 -62 q36 -35 69 -62 q33 -27 70 -27 q45 0 68.5 44.5 q23.5 44.5 27.5 119.5 l154 -8 q-5 -146 -64.5 -235 q-59.5 -89 -183.5 -89 Z" /><glyph glyph-name="" unicode="ò" d="M629 -27 q-140 0 -261 69.5 q-121 69.5 -195.5 201.5 q-74.5 132 -74.5 319 q0 188 74.5 320 q74.5 132 195.5 202 q121 70 261 70 q139 0 260 -70 q121 -70 195.5 -202 q74.5 -132 74.5 -320 q0 -187 -74.5 -319 q-74.5 -132 -195.5 -201.5 q-121 -69.5 -260 -69.5 ZM629 166 q133 0 211 108.5 q78 108.5 78 288.5 q0 178 -78 288 q-78 110 -211 110 q-132 0 -209.5 -110 q-77.5 -110 -77.5 -288 q0 -180 77.5 -288.5 q77.5 -108.5 209.5 -108.5 ZM645 1319 l-379 356 l162 156 l336 -395 l-119 -117 Z" /><glyph glyph-name="" unicode="ó" d="M629 -27 q-140 0 -261 69.5 q-121 69.5 -195.5 201.5 q-74.5 132 -74.5 319 q0 188 74.5 320 q74.5 132 195.5 202 q121 70 261 70 q139 0 260 -70 q121 -70 195.5 -202 q74.5 -132 74.5 -320 q0 -187 -74.5 -319 q-74.5 -132 -195.5 -201.5 q-121 -69.5 -260 -69.5 ZM629 166 q133 0 211 108.5 q78 108.5 78 288.5 q0 178 -78 288 q-78 110 -211 110 q-132 0 -209.5 -110 q-77.5 -110 -77.5 -288 q0 -180 77.5 -288.5 q77.5 -108.5 209.5 -108.5 ZM614 1319 l-120 117 l335 395 l164 -156 l-379 -356 Z" /><glyph glyph-name="" unicode="ô" d="M629 -27 q-140 0 -261 69.5 q-121 69.5 -195.5 201.5 q-74.5 132 -74.5 319 q0 188 74.5 320 q74.5 132 195.5 202 q121 70 261 70 q139 0 260 -70 q121 -70 195.5 -202 q74.5 -132 74.5 -320 q0 -187 -74.5 -319 q-74.5 -132 -195.5 -201.5 q-121 -69.5 -260 -69.5 ZM629 166 q133 0 211 108.5 q78 108.5 78 288.5 q0 178 -78 288 q-78 110 -211 110 q-132 0 -209.5 -110 q-77.5 -110 -77.5 -288 q0 -180 77.5 -288.5 q77.5 -108.5 209.5 -108.5 ZM252 1393 l258 315 l238 0 l258 -315 l-95 -90 l-278 245 l-8 0 l-277 -245 l-96 90 Z" /><glyph glyph-name="" unicode="õ" d="M629 -27 q-140 0 -261 69.5 q-121 69.5 -195.5 201.5 q-74.5 132 -74.5 319 q0 188 74.5 320 q74.5 132 195.5 202 q121 70 261 70 q139 0 260 -70 q121 -70 195.5 -202 q74.5 -132 74.5 -320 q0 -187 -74.5 -319 q-74.5 -132 -195.5 -201.5 q-121 -69.5 -260 -69.5 ZM629 166 q133 0 211 108.5 q78 108.5 78 288.5 q0 178 -78 288 q-78 110 -211 110 q-132 0 -209.5 -110 q-77.5 -110 -77.5 -288 q0 -180 77.5 -288.5 q77.5 -108.5 209.5 -108.5 ZM791 1327 q-59 0 -103 27 q-44 27 -79.5 62 q-35.5 35 -68.5 62 q-33 27 -69 27 q-46 0 -70 -43.5 q-24 -43.5 -28 -122.5 l-154 11 q5 147 64.5 235 q59.5 88 183.5 88 q59 0 103.5 -27 q44.5 -27 80.5 -62 q36 -35 68.5 -62 q32.5 -27 68.5 -27 q47 0 70.5 44.5 q23.5 44.5 28.5 119.5 l153 -8 q-6 -146 -65.5 -235 q-59.5 -89 -183.5 -89 Z" /><glyph glyph-name="" unicode="ö" d="M629 -27 q-140 0 -261 69.5 q-121 69.5 -195.5 201.5 q-74.5 132 -74.5 319 q0 188 74.5 320 q74.5 132 195.5 202 q121 70 261 70 q139 0 260 -70 q121 -70 195.5 -202 q74.5 -132 74.5 -320 q0 -187 -74.5 -319 q-74.5 -132 -195.5 -201.5 q-121 -69.5 -260 -69.5 ZM629 166 q133 0 211 108.5 q78 108.5 78 288.5 q0 178 -78 288 q-78 110 -211 110 q-132 0 -209.5 -110 q-77.5 -110 -77.5 -288 q0 -180 77.5 -288.5 q77.5 -108.5 209.5 -108.5 ZM399 1339 q-56 0 -93.5 38 q-37.5 38 -37.5 91 q0 56 37.5 93.5 q37.5 37.5 93.5 37.5 q56 0 92.5 -37.5 q36.5 -37.5 36.5 -93.5 q0 -53 -36.5 -91 q-36.5 -38 -92.5 -38 ZM860 1339 q-57 0 -94 38 q-37 38 -37 91 q0 56 37 93.5 q37 37.5 94 37.5 q57 0 93 -37.5 q36 -37.5 36 -93.5 q0 -53 -36 -91 q-36 -38 -93 -38 Z" /><glyph glyph-name="" unicode="÷" d="M1024 1452 q66 0 114 -47 q48 -47 48 -113 q0 -67 -48 -114.5 q-48 -47.5 -114 -47.5 q-66 0 -114 47.5 q-48 47.5 -48 114.5 q0 66 48 113 q48 47 114 47 ZM1761 688 l-1474 0 l0 170 l1474 0 l0 -170 ZM1024 414 q66 0 114 -47 q48 -47 48 -113 q0 -68 -48 -115 q-48 -47 -114 -47 q-66 0 -114 47 q-48 47 -48 115 q0 66 48 113 q48 47 114 47 Z" /><glyph glyph-name="" unicode="ø" d="M330 573 q0 -134 41 -229 l448 549 q-79 76 -190 76 q-132 0 -215.5 -109.5 q-83.5 -109.5 -83.5 -286.5 ZM203 -55 l-97 75 l119 146 q-58 74 -92.5 173.5 q-34.5 99.5 -34.5 223.5 q0 188 74.5 320 q74.5 132 195.5 202 q121 70 261 70 q178 0 317 -108 l109 135 l98 -76 l-119 -145 q57 -76 91 -175.5 q34 -99.5 34 -222.5 q0 -187 -74.5 -319 q-74.5 -132 -195.5 -201.5 q-121 -69.5 -260 -69.5 q-178 0 -316 107 l-110 -135 ZM629 160 q133 0 217 108 q84 108 84 283 q0 137 -41 231 l-449 -546 q76 -76 189 -76 Z" /><glyph glyph-name="" unicode="ù" d="M510 -27 q-181 0 -263.5 115 q-82.5 115 -82.5 330 l0 708 l235 0 l0 -680 q0 -144 44.5 -207 q44.5 -63 144.5 -63 q78 0 138.5 39.5 q60.5 39.5 131.5 128.5 l0 782 l236 0 l0 -1126 l-193 0 l-18 170 l-6 0 q-77 -89 -164.5 -143 q-87.5 -54 -202.5 -54 ZM649 1319 l-379 356 l162 156 l336 -395 l-119 -117 Z" /><glyph glyph-name="" unicode="ú" d="M510 -27 q-181 0 -263.5 115 q-82.5 115 -82.5 330 l0 708 l235 0 l0 -680 q0 -144 44.5 -207 q44.5 -63 144.5 -63 q78 0 138.5 39.5 q60.5 39.5 131.5 128.5 l0 782 l236 0 l0 -1126 l-193 0 l-18 170 l-6 0 q-77 -89 -164.5 -143 q-87.5 -54 -202.5 -54 ZM621 1319 l-121 117 l336 395 l161 -156 l-376 -356 Z" /><glyph glyph-name="" unicode="û" d="M510 -27 q-181 0 -263.5 115 q-82.5 115 -82.5 330 l0 708 l235 0 l0 -680 q0 -144 44.5 -207 q44.5 -63 144.5 -63 q78 0 138.5 39.5 q60.5 39.5 131.5 128.5 l0 782 l236 0 l0 -1126 l-193 0 l-18 170 l-6 0 q-77 -89 -164.5 -143 q-87.5 -54 -202.5 -54 ZM258 1393 l258 315 l238 0 l258 -315 l-97 -90 l-276 245 l-10 0 l-277 -245 l-94 90 Z" /><glyph glyph-name="" unicode="ü" d="M510 -27 q-181 0 -263.5 115 q-82.5 115 -82.5 330 l0 708 l235 0 l0 -680 q0 -144 44.5 -207 q44.5 -63 144.5 -63 q78 0 138.5 39.5 q60.5 39.5 131.5 128.5 l0 782 l236 0 l0 -1126 l-193 0 l-18 170 l-6 0 q-77 -89 -164.5 -143 q-87.5 -54 -202.5 -54 ZM401 1339 q-55 0 -92 38 q-37 38 -37 91 q0 56 37 93.5 q37 37.5 92 37.5 q57 0 94 -37.5 q37 -37.5 37 -93.5 q0 -53 -37 -91 q-37 -38 -94 -38 ZM866 1339 q-57 0 -94 38 q-37 38 -37 91 q0 56 37 93.5 q37 37.5 94 37.5 q56 0 92.5 -37.5 q36.5 -37.5 36.5 -93.5 q0 -53 -36.5 -91 q-36.5 -38 -92.5 -38 Z" /><glyph glyph-name="" unicode="ý" d="M229 -471 q-43 0 -77.5 6 q-34.5 6 -63.5 16 l45 185 q15 -5 38 -11 q23 -6 44 -6 q92 0 148.5 60.5 q56.5 60.5 87.5 150.5 l22 78 l-446 1118 l241 0 l209 -579 q25 -75 50.5 -157 q25.5 -82 52.5 -161 l10 0 q21 77 43.5 159 q22.5 82 44.5 159 l180 579 l229 0 l-413 -1194 q-44 -120 -102 -211 q-58 -91 -141 -141.5 q-83 -50.5 -202 -50.5 ZM561 1319 l-119 117 l336 395 l164 -156 l-381 -356 Z" /><glyph glyph-name="" unicode="þ" d="M178 -457 l0 2089 l236 0 l0 -430 l-6 -182 q70 55 153 95 q83 40 170 40 q147 0 249 -71 q102 -71 155 -200 q53 -129 53 -302 q0 -194 -68.5 -330 q-68.5 -136 -179.5 -207.5 q-111 -71.5 -238 -71.5 q-79 0 -151.5 31 q-72.5 31 -142.5 88 l6 -184 l0 -365 l-236 0 ZM657 168 q123 0 205 105.5 q82 105.5 82 304.5 q0 176 -61.5 278 q-61.5 102 -202.5 102 q-126 0 -266 -137 l0 -551 q66 -56 128.5 -79 q62.5 -23 114.5 -23 Z" /><glyph glyph-name="" unicode="ÿ" d="M229 -471 q-43 0 -77.5 6 q-34.5 6 -63.5 16 l45 185 q15 -5 38 -11 q23 -6 44 -6 q92 0 148.5 60.5 q56.5 60.5 87.5 150.5 l22 78 l-446 1118 l241 0 l209 -579 q25 -75 50.5 -157 q25.5 -82 52.5 -161 l10 0 q21 77 43.5 159 q22.5 82 44.5 159 l180 579 l229 0 l-413 -1194 q-44 -120 -102 -211 q-58 -91 -141 -141.5 q-83 -50.5 -202 -50.5 ZM346 1339 q-57 0 -93 38 q-36 38 -36 91 q0 56 36 93.5 q36 37.5 93 37.5 q57 0 93 -37.5 q36 -37.5 36 -93.5 q0 -53 -36 -91 q-36 -38 -93 -38 ZM809 1339 q-58 0 -94.5 38 q-36.5 38 -36.5 91 q0 56 36.5 93.5 q36.5 37.5 94.5 37.5 q57 0 93 -37.5 q36 -37.5 36 -93.5 q0 -53 -36 -91 q-36 -38 -93 -38 Z" /><glyph glyph-name="" unicode="&#x100;" d="M487 819 l-61 -203 l412 0 l-60 203 q-38 123 -72.5 248.5 q-34.5 125.5 -68.5 253.5 l-10 0 q-33 -129 -68 -254 q-35 -125 -72 -248 ZM0 0 l500 1509 l274 0 l500 -1509 l-252 0 l-127 430 l-524 0 l-129 -430 l-242 0 ZM313 1683 l0 158 l641 0 l0 -158 l-641 0 Z" /><glyph glyph-name="" unicode="&#x101;" d="M444 -27 q-146 0 -238.5 88.5 q-92.5 88.5 -92.5 237.5 q0 181 161 280 q161 99 512 138 q-1 65 -20 121 q-19 56 -65.5 90.5 q-46.5 34.5 -129.5 34.5 q-89 0 -171 -34.5 q-82 -34.5 -154 -80.5 l-88 160 q87 55 203 101 q116 46 251 46 q211 0 310.5 -126.5 q99.5 -126.5 99.5 -350.5 l0 -678 l-193 0 l-18 129 l-8 0 q-77 -66 -167 -111 q-90 -45 -192 -45 ZM516 160 q74 0 137.5 34 q63.5 34 132.5 97 l0 276 q-250 -29 -348 -92.5 q-98 -63.5 -98 -159.5 q0 -83 50.5 -119 q50.5 -36 125.5 -36 ZM307 1376 l0 160 l631 0 l0 -160 l-631 0 Z" /><glyph glyph-name="" unicode="&#x102;" d="M487 819 l-61 -203 l412 0 l-60 203 q-38 123 -72.5 248.5 q-34.5 125.5 -68.5 253.5 l-10 0 q-33 -129 -68 -254 q-35 -125 -72 -248 ZM0 0 l500 1509 l274 0 l500 -1509 l-252 0 l-127 430 l-524 0 l-129 -430 l-242 0 ZM635 1618 q-164 0 -249 86 q-85 86 -99 217 l135 25 q14 -79 67.5 -131 q53.5 -52 145.5 -52 q92 0 144.5 52 q52.5 52 66.5 131 l137 -25 q-14 -131 -99.5 -217 q-85.5 -86 -248.5 -86 Z" /><glyph glyph-name="" unicode="&#x103;" d="M444 -27 q-146 0 -238.5 88.5 q-92.5 88.5 -92.5 237.5 q0 181 161 280 q161 99 512 138 q-1 65 -20 121 q-19 56 -65.5 90.5 q-46.5 34.5 -129.5 34.5 q-89 0 -171 -34.5 q-82 -34.5 -154 -80.5 l-88 160 q87 55 203 101 q116 46 251 46 q211 0 310.5 -126.5 q99.5 -126.5 99.5 -350.5 l0 -678 l-193 0 l-18 129 l-8 0 q-77 -66 -167 -111 q-90 -45 -192 -45 ZM516 160 q74 0 137.5 34 q63.5 34 132.5 97 l0 276 q-250 -29 -348 -92.5 q-98 -63.5 -98 -159.5 q0 -83 50.5 -119 q50.5 -36 125.5 -36 ZM623 1315 q-126 0 -205.5 50.5 q-79.5 50.5 -119 131.5 q-39.5 81 -44.5 172 l141 23 q13 -85 67.5 -153.5 q54.5 -68.5 160.5 -68.5 q106 0 160.5 68.5 q54.5 68.5 66.5 153.5 l141 -23 q-5 -91 -44 -172 q-39 -81 -118.5 -131.5 q-79.5 -50.5 -205.5 -50.5 Z" /><glyph glyph-name="" unicode="&#x110;" d="M252 0 l0 725 l-180 0 l0 115 l180 10 l0 659 l391 0 q347 0 537 -190.5 q190 -190.5 190 -558.5 q0 -367 -188.5 -563.5 q-188.5 -196.5 -526.5 -196.5 l-403 0 ZM489 195 l138 0 q242 0 369.5 142 q127.5 142 127.5 423 q0 282 -127.5 418.5 q-127.5 136.5 -369.5 136.5 l-138 0 l0 -465 l326 0 l0 -125 l-326 0 l0 -530 Z" /><glyph glyph-name="" unicode="&#x111;" d="M567 -27 q-212 0 -338.5 145 q-126.5 145 -126.5 398 q0 164 68.5 285.5 q68.5 121.5 179 188.5 q110.5 67 236.5 67 q96 0 165 -33.5 q69 -33.5 138 -91.5 l-10 184 l0 191 l-363 0 l0 125 l363 0 l0 200 l235 0 l0 -200 l164 0 l0 -115 l-164 -10 l0 -1307 l-196 0 l-19 119 l-6 0 q-63 -62 -146 -104 q-83 -42 -180 -42 ZM623 168 q136 0 256 137 l0 453 q-63 57 -124 80.5 q-61 23.5 -124 23.5 q-79 0 -143.5 -43 q-64.5 -43 -103 -120.5 q-38.5 -77.5 -38.5 -180.5 q0 -163 72 -256.5 q72 -93.5 205 -93.5 Z" /><glyph glyph-name="" unicode="&#x112;" d="M199 0 l0 1509 l891 0 l0 -200 l-654 0 l0 -420 l553 0 l0 -201 l-553 0 l0 -487 l676 0 l0 -201 l-913 0 ZM348 1683 l0 158 l641 0 l0 -158 l-641 0 Z" /><glyph glyph-name="" unicode="&#x113;" d="M647 -27 q-152 0 -276.5 70 q-124.5 70 -198.5 202 q-74 132 -74 318 q0 182 74 315 q74 133 191.5 205 q117.5 72 248.5 72 q150 0 252.5 -67 q102.5 -67 155.5 -187 q53 -120 53 -278 q0 -36 -4 -68 q-4 -32 -8 -53 l-731 0 q14 -162 108 -253 q94 -91 240 -91 q75 0 141 22 q66 22 127 62 l82 -150 q-78 -52 -174 -85.5 q-96 -33.5 -207 -33.5 ZM328 666 l540 0 q0 144 -64.5 224.5 q-64.5 80.5 -187.5 80.5 q-106 0 -188.5 -79 q-82.5 -79 -99.5 -226 ZM295 1376 l0 160 l633 0 l0 -160 l-633 0 Z" /><glyph glyph-name="" unicode="&#x11a;" d="M199 0 l0 1509 l891 0 l0 -200 l-654 0 l0 -420 l553 0 l0 -201 l-553 0 l0 -487 l676 0 l0 -201 l-913 0 ZM543 1624 l-230 258 l101 70 l250 -207 l8 0 l250 207 l102 -70 l-229 -258 l-252 0 Z" /><glyph glyph-name="" unicode="&#x11b;" d="M647 -27 q-152 0 -276.5 70 q-124.5 70 -198.5 202 q-74 132 -74 318 q0 182 74 315 q74 133 191.5 205 q117.5 72 248.5 72 q150 0 252.5 -67 q102.5 -67 155.5 -187 q53 -120 53 -278 q0 -36 -4 -68 q-4 -32 -8 -53 l-731 0 q14 -162 108 -253 q94 -91 240 -91 q75 0 141 22 q66 22 127 62 l82 -150 q-78 -52 -174 -85.5 q-96 -33.5 -207 -33.5 ZM328 666 l540 0 q0 144 -64.5 224.5 q-64.5 80.5 -187.5 80.5 q-106 0 -188.5 -79 q-82.5 -79 -99.5 -226 ZM492 1325 l-259 315 l97 89 l276 -246 l8 0 l277 246 l96 -89 l-258 -315 l-237 0 Z" /><glyph glyph-name="" unicode="&#x128;" d="M199 0 l0 1509 l237 0 l0 -1509 l-237 0 ZM489 1622 q-63 0 -110 23 q-47 23 -83.5 53.5 q-36.5 30.5 -69.5 54 q-33 23.5 -70 23.5 q-40 0 -68.5 -35 q-28.5 -35 -34.5 -107 l-155 13 q6 144 74 220.5 q68 76.5 178 76.5 q63 0 109.5 -23 q46.5 -23 83 -53 q36.5 -30 69 -53 q32.5 -23 69.5 -23 q88 0 103 139 l157 -12 q-7 -144 -75.5 -220.5 q-68.5 -76.5 -176.5 -76.5 Z" /><glyph glyph-name="" unicode="&#x129;" d="M178 0 l0 1126 l236 0 l0 -1126 l-236 0 ZM457 1327 q-59 0 -103.5 27 q-44.5 27 -80 62 q-35.5 35 -68 62 q-32.5 27 -68.5 27 q-46 0 -69.5 -43.5 q-23.5 -43.5 -28.5 -122.5 l-154 11 q6 147 65 235 q59 88 185 88 q59 0 103 -27 q44 -27 79.5 -62 q35.5 -35 68.5 -62 q33 -27 69 -27 q46 0 69.5 44.5 q23.5 44.5 28.5 119.5 l154 -8 q-5 -146 -65.5 -235 q-60.5 -89 -184.5 -89 Z" /><glyph glyph-name="" unicode="&#x12a;" d="M199 0 l0 1509 l237 0 l0 -1509 l-237 0 ZM-2 1683 l0 158 l643 0 l0 -158 l-643 0 Z" /><glyph glyph-name="" unicode="&#x12b;" d="M178 0 l0 1126 l236 0 l0 -1126 l-236 0 ZM-20 1376 l0 160 l632 0 l0 -160 l-632 0 Z" /><glyph glyph-name="" unicode="&#x143;" d="M199 0 l0 1509 l243 0 l500 -886 l158 -320 l10 0 q-9 117 -20 248 q-11 131 -11 254 l0 704 l226 0 l0 -1509 l-244 0 l-500 889 l-158 315 l-10 0 q9 -117 20 -243.5 q11 -126.5 11 -249.5 l0 -711 l-225 0 ZM737 1593 l-104 119 l346 305 l131 -157 l-373 -267 Z" /><glyph glyph-name="" unicode="&#x144;" d="M178 0 l0 1126 l193 0 l18 -155 l6 0 q79 75 168.5 129.5 q89.5 54.5 204.5 54.5 q180 0 263 -115.5 q83 -115.5 83 -330.5 l0 -709 l-235 0 l0 680 q0 146 -45.5 209 q-45.5 63 -145.5 63 q-78 0 -139.5 -39 q-61.5 -39 -134.5 -114 l0 -799 l-236 0 ZM678 1319 l-121 117 l336 395 l164 -156 l-379 -356 Z" /><glyph glyph-name="" unicode="&#x147;" d="M199 0 l0 1509 l243 0 l500 -886 l158 -320 l10 0 q-9 117 -20 248 q-11 131 -11 254 l0 704 l226 0 l0 -1509 l-244 0 l-500 889 l-158 315 l-10 0 q9 -117 20 -243.5 q11 -126.5 11 -249.5 l0 -711 l-225 0 ZM647 1624 l-231 258 l102 70 l250 -207 l8 0 l250 207 l102 -70 l-231 -258 l-250 0 Z" /><glyph glyph-name="" unicode="&#x148;" d="M178 0 l0 1126 l193 0 l18 -155 l6 0 q79 75 168.5 129.5 q89.5 54.5 204.5 54.5 q180 0 263 -115.5 q83 -115.5 83 -330.5 l0 -709 l-235 0 l0 680 q0 146 -45.5 209 q-45.5 63 -145.5 63 q-78 0 -139.5 -39 q-61.5 -39 -134.5 -114 l0 -799 l-236 0 ZM573 1325 l-258 315 l97 89 l276 -246 l8 0 l277 246 l96 -89 l-258 -315 l-238 0 Z" /><glyph glyph-name="" unicode="&#x14c;" d="M772 -27 q-193 0 -341 95.5 q-148 95.5 -231 272 q-83 176.5 -83 419.5 q0 242 83 416 q83 174 231 267 q148 93 341 93 q194 0 342 -93 q148 -93 232 -267 q84 -174 84 -416 q0 -243 -84 -419.5 q-84 -176.5 -232 -272 q-148 -95.5 -342 -95.5 ZM772 180 q125 0 218 71.5 q93 71.5 144.5 202 q51.5 130.5 51.5 306.5 q0 266 -113.5 417.5 q-113.5 151.5 -300.5 151.5 q-187 0 -299.5 -151.5 q-112.5 -151.5 -112.5 -417.5 q0 -176 51 -306.5 q51 -130.5 143.5 -202 q92.5 -71.5 217.5 -71.5 ZM451 1683 l0 158 l643 0 l0 -158 l-643 0 Z" /><glyph glyph-name="" unicode="&#x14d;" d="M629 -27 q-140 0 -261 69.5 q-121 69.5 -195.5 201.5 q-74.5 132 -74.5 319 q0 188 74.5 320 q74.5 132 195.5 202 q121 70 261 70 q139 0 260 -70 q121 -70 195.5 -202 q74.5 -132 74.5 -320 q0 -187 -74.5 -319 q-74.5 -132 -195.5 -201.5 q-121 -69.5 -260 -69.5 ZM629 166 q133 0 211 108.5 q78 108.5 78 288.5 q0 178 -78 288 q-78 110 -211 110 q-132 0 -209.5 -110 q-77.5 -110 -77.5 -288 q0 -180 77.5 -288.5 q77.5 -108.5 209.5 -108.5 ZM313 1376 l0 160 l633 0 l0 -160 l-633 0 Z" /><glyph glyph-name="" unicode="&#x14e;" d="M772 -27 q-193 0 -341 95.5 q-148 95.5 -231 272 q-83 176.5 -83 419.5 q0 242 83 416 q83 174 231 267 q148 93 341 93 q194 0 342 -93 q148 -93 232 -267 q84 -174 84 -416 q0 -243 -84 -419.5 q-84 -176.5 -232 -272 q-148 -95.5 -342 -95.5 ZM772 180 q125 0 218 71.5 q93 71.5 144.5 202 q51.5 130.5 51.5 306.5 q0 266 -113.5 417.5 q-113.5 151.5 -300.5 151.5 q-187 0 -299.5 -151.5 q-112.5 -151.5 -112.5 -417.5 q0 -176 51 -306.5 q51 -130.5 143.5 -202 q92.5 -71.5 217.5 -71.5 ZM772 1618 q-163 0 -248 86 q-85 86 -100 217 l137 25 q14 -79 66.5 -131 q52.5 -52 144.5 -52 q92 0 144.5 52 q52.5 52 66.5 131 l137 -25 q-14 -131 -99.5 -217 q-85.5 -86 -248.5 -86 Z" /><glyph glyph-name="" unicode="&#x14f;" d="M629 -27 q-140 0 -261 69.5 q-121 69.5 -195.5 201.5 q-74.5 132 -74.5 319 q0 188 74.5 320 q74.5 132 195.5 202 q121 70 261 70 q139 0 260 -70 q121 -70 195.5 -202 q74.5 -132 74.5 -320 q0 -187 -74.5 -319 q-74.5 -132 -195.5 -201.5 q-121 -69.5 -260 -69.5 ZM629 166 q133 0 211 108.5 q78 108.5 78 288.5 q0 178 -78 288 q-78 110 -211 110 q-132 0 -209.5 -110 q-77.5 -110 -77.5 -288 q0 -180 77.5 -288.5 q77.5 -108.5 209.5 -108.5 ZM629 1315 q-126 0 -205 50.5 q-79 50.5 -118.5 131.5 q-39.5 81 -45.5 172 l141 23 q13 -85 67.5 -153.5 q54.5 -68.5 160.5 -68.5 q106 0 161.5 68.5 q55.5 68.5 67.5 153.5 l139 -23 q-5 -91 -43.5 -172 q-38.5 -81 -118 -131.5 q-79.5 -50.5 -206.5 -50.5 Z" /><glyph glyph-name="" unicode="&#x152;" d="M852 0 q-224 0 -389.5 88 q-165.5 88 -255.5 257.5 q-90 169.5 -90 414.5 q0 246 90.5 412.5 q90.5 166.5 258.5 251.5 q168 85 398 85 l965 0 l0 -200 l-617 0 l0 -420 l517 0 l0 -201 l-517 0 l0 -487 l641 0 l0 -201 l-1001 0 ZM881 195 l94 0 l0 1120 l-94 0 q-249 0 -385 -135.5 q-136 -135.5 -136 -419.5 q0 -283 136 -424 q136 -141 385 -141 Z" /><glyph glyph-name="" unicode="&#x153;" d="M610 -27 q-138 0 -254.5 69.5 q-116.5 69.5 -187 201.5 q-70.5 132 -70.5 319 q0 188 71.5 320 q71.5 132 189 202 q117.5 70 255.5 70 q126 0 230.5 -66.5 q104.5 -66.5 167.5 -189.5 q64 120 165 188 q101 68 218 68 q141 0 239.5 -68.5 q98.5 -68.5 149.5 -190 q51 -121.5 51 -280.5 q0 -66 -10 -114 l-711 0 q11 -158 103.5 -249 q92.5 -91 224.5 -91 q75 0 139 24 q64 24 127 64 l82 -158 q-77 -52 -172.5 -85.5 q-95.5 -33.5 -206.5 -33.5 q-121 0 -226 68 q-105 68 -171 186 q-137 -254 -404 -254 ZM614 166 q126 0 203.5 108.5 q77.5 108.5 77.5 288.5 q0 178 -77.5 288 q-77.5 110 -203.5 110 q-122 0 -198 -110 q-76 -110 -76 -288 q0 -180 76 -288.5 q76 -108.5 198 -108.5 ZM1114 651 l516 0 q0 152 -62.5 236 q-62.5 84 -178.5 84 q-106 0 -183 -84.5 q-77 -84.5 -92 -235.5 Z" /><glyph glyph-name="" unicode="&#x168;" d="M752 -27 q-167 0 -293.5 66 q-126.5 66 -197.5 214 q-71 148 -71 394 l0 862 l238 0 l0 -878 q0 -170 41.5 -268.5 q41.5 -98.5 114.5 -140.5 q73 -42 168 -42 q95 0 169.5 42 q74.5 42 117 140.5 q42.5 98.5 42.5 268.5 l0 878 l230 0 l0 -862 q0 -246 -70.5 -394 q-70.5 -148 -196 -214 q-125.5 -66 -292.5 -66 ZM920 1622 q-65 0 -112 23 q-47 23 -83.5 53.5 q-36.5 30.5 -69 54 q-32.5 23.5 -69.5 23.5 q-40 0 -68.5 -35 q-28.5 -35 -34.5 -107 l-155 13 q6 144 74.5 220.5 q68.5 76.5 177.5 76.5 q63 0 109 -23 q46 -23 82.5 -53 q36.5 -30 69.5 -53 q33 -23 70 -23 q87 0 105 139 l155 -12 q-7 -144 -75.5 -220.5 q-68.5 -76.5 -175.5 -76.5 Z" /><glyph glyph-name="" unicode="&#x169;" d="M510 -27 q-181 0 -263.5 115 q-82.5 115 -82.5 330 l0 708 l235 0 l0 -680 q0 -144 44.5 -207 q44.5 -63 144.5 -63 q78 0 138.5 39.5 q60.5 39.5 131.5 128.5 l0 782 l236 0 l0 -1126 l-193 0 l-18 170 l-6 0 q-77 -89 -164.5 -143 q-87.5 -54 -202.5 -54 ZM797 1327 q-59 0 -103.5 27 q-44.5 27 -80.5 62 q-36 35 -69 62 q-33 27 -69 27 q-46 0 -69 -43.5 q-23 -43.5 -29 -122.5 l-154 11 q5 147 65.5 235 q60.5 88 184.5 88 q58 0 102 -27 q44 -27 80 -62 q36 -35 69.5 -62 q33.5 -27 70.5 -27 q44 0 67 44.5 q23 44.5 29 119.5 l153 -8 q-4 -146 -64 -235 q-60 -89 -183 -89 Z" /><glyph glyph-name="" unicode="&#x16a;" d="M752 -27 q-167 0 -293.5 66 q-126.5 66 -197.5 214 q-71 148 -71 394 l0 862 l238 0 l0 -878 q0 -170 41.5 -268.5 q41.5 -98.5 114.5 -140.5 q73 -42 168 -42 q95 0 169.5 42 q74.5 42 117 140.5 q42.5 98.5 42.5 268.5 l0 878 l230 0 l0 -862 q0 -246 -70.5 -394 q-70.5 -148 -196 -214 q-125.5 -66 -292.5 -66 ZM428 1683 l0 158 l641 0 l0 -158 l-641 0 Z" /><glyph glyph-name="" unicode="&#x16b;" d="M510 -27 q-181 0 -263.5 115 q-82.5 115 -82.5 330 l0 708 l235 0 l0 -680 q0 -144 44.5 -207 q44.5 -63 144.5 -63 q78 0 138.5 39.5 q60.5 39.5 131.5 128.5 l0 782 l236 0 l0 -1126 l-193 0 l-18 170 l-6 0 q-77 -89 -164.5 -143 q-87.5 -54 -202.5 -54 ZM317 1376 l0 160 l633 0 l0 -160 l-633 0 Z" /><glyph glyph-name="" unicode="&#x16c;" d="M752 -27 q-167 0 -293.5 66 q-126.5 66 -197.5 214 q-71 148 -71 394 l0 862 l238 0 l0 -878 q0 -170 41.5 -268.5 q41.5 -98.5 114.5 -140.5 q73 -42 168 -42 q95 0 169.5 42 q74.5 42 117 140.5 q42.5 98.5 42.5 268.5 l0 878 l230 0 l0 -862 q0 -246 -70.5 -394 q-70.5 -148 -196 -214 q-125.5 -66 -292.5 -66 ZM748 1618 q-163 0 -248 86 q-85 86 -99 217 l138 25 q13 -79 65.5 -131 q52.5 -52 143.5 -52 q92 0 145.5 52 q53.5 52 67.5 131 l137 -25 q-16 -131 -101 -217 q-85 -86 -249 -86 Z" /><glyph glyph-name="" unicode="&#x16d;" d="M510 -27 q-181 0 -263.5 115 q-82.5 115 -82.5 330 l0 708 l235 0 l0 -680 q0 -144 44.5 -207 q44.5 -63 144.5 -63 q78 0 138.5 39.5 q60.5 39.5 131.5 128.5 l0 782 l236 0 l0 -1126 l-193 0 l-18 170 l-6 0 q-77 -89 -164.5 -143 q-87.5 -54 -202.5 -54 ZM635 1315 q-126 0 -205.5 50.5 q-79.5 50.5 -119.5 131.5 q-40 81 -46 172 l144 23 q12 -85 66.5 -153.5 q54.5 -68.5 160.5 -68.5 q106 0 159.5 68.5 q53.5 68.5 65.5 153.5 l144 -23 q-7 -91 -46 -172 q-39 -81 -118 -131.5 q-79 -50.5 -205 -50.5 Z" /><glyph glyph-name="" unicode="&#x192;" d="M227 -223 q-117 3 -178 37 l39 174 q26 -11 53.5 -16 q27.5 -5 57.5 -7 q99 2 144 85 q45 83 65 265 l51 453 l-193 0 l0 166 l162 10 l49 0 l15 119 q26 238 118.5 355.5 q92.5 117.5 290.5 117.5 q49 0 101 -13 q52 -13 85 -28 l-49 -180 q-23 11 -52 21 q-29 10 -71 10 q-95 0 -139.5 -78 q-44.5 -78 -56.5 -187 l-17 -137 l273 0 l0 -176 l-291 0 l-59 -512 q-16 -139 -56.5 -247.5 q-40.5 -108.5 -122 -170 q-81.5 -61.5 -219.5 -61.5 Z" /><glyph glyph-name="" unicode="&#x1a0;" d="M776 -27 q-193 0 -341 95.5 q-148 95.5 -231 272 q-83 176.5 -83 419.5 q0 242 83 416 q83 174 231 267 q148 93 341 93 q170 0 307 -72 q86 19 129 61.5 q43 42.5 43 121.5 q0 78 -34 137 l182 78 q24 -39 40.5 -90.5 q16.5 -51.5 16.5 -108.5 q0 -117 -66 -186.5 q-66 -69.5 -188 -100.5 q108 -100 168 -256 q60 -156 60 -360 q0 -243 -84 -419.5 q-84 -176.5 -232 -272 q-148 -95.5 -342 -95.5 ZM776 180 q126 0 219 71.5 q93 71.5 144 202 q51 130.5 51 306.5 q0 266 -112.5 417.5 q-112.5 151.5 -301.5 151.5 q-187 0 -299 -151.5 q-112 -151.5 -112 -417.5 q0 -176 50.5 -306.5 q50.5 -130.5 143 -202 q92.5 -71.5 217.5 -71.5 Z" /><glyph glyph-name="" unicode="&#x1a1;" d="M629 -27 q-140 0 -261 69.5 q-121 69.5 -195.5 201.5 q-74.5 132 -74.5 319 q0 188 74.5 320 q74.5 132 195.5 202 q121 70 261 70 q115 0 219 -47 q87 17 136.5 67.5 q49.5 50.5 49.5 147.5 q0 73 -35 127 l179 82 q24 -37 41.5 -88 q17.5 -51 17.5 -105 q0 -92 -37.5 -156 q-37.5 -64 -97 -104 q-59.5 -40 -125.5 -59 q83 -75 132.5 -190.5 q49.5 -115.5 49.5 -266.5 q0 -187 -74.5 -319 q-74.5 -132 -195.5 -201.5 q-121 -69.5 -260 -69.5 ZM629 166 q133 0 211 108.5 q78 108.5 78 288.5 q0 178 -78 288 q-78 110 -211 110 q-132 0 -209.5 -110 q-77.5 -110 -77.5 -288 q0 -180 77.5 -288.5 q77.5 -108.5 209.5 -108.5 Z" /><glyph glyph-name="" unicode="&#x1af;" d="M1311 1413 l0 -766 q0 -246 -70.5 -394 q-70.5 -148 -196 -214 q-125.5 -66 -292.5 -66 q-167 0 -293.5 66 q-126.5 66 -197.5 214 q-71 148 -71 394 l0 862 l238 0 l0 -878 q0 -170 41.5 -268.5 q41.5 -98.5 114.5 -140.5 q73 -42 168 -42 q95 0 169.5 42 q74.5 42 117 140.5 q42.5 98.5 42.5 268.5 l0 878 l101 0 q87 8 144.5 46 q57.5 38 57.5 137 q0 38 -9.5 74.5 q-9.5 36.5 -24.5 64.5 l182 78 q24 -39 40.5 -91.5 q16.5 -52.5 16.5 -109.5 q0 -134 -78.5 -201.5 q-78.5 -67.5 -199.5 -93.5 Z" /><glyph glyph-name="" unicode="&#x1b0;" d="M510 -27 q-181 0 -263.5 115 q-82.5 115 -82.5 330 l0 708 l235 0 l0 -680 q0 -144 44.5 -207 q44.5 -63 144.5 -63 q78 0 138.5 39.5 q60.5 39.5 131.5 128.5 l0 782 l68 0 q50 7 94 27.5 q44 20.5 71 66 q27 45.5 27 126.5 q0 33 -10.5 66.5 q-10.5 33.5 -26.5 60.5 l181 81 q24 -36 41.5 -87 q17.5 -51 17.5 -105 q0 -93 -33 -157 q-33 -64 -85 -103 q-52 -39 -109 -58 l0 -1044 l-193 0 l-18 170 l-6 0 q-77 -89 -164.5 -143 q-87.5 -54 -202.5 -54 Z" /><glyph glyph-name="" unicode="&#x1cd;" d="M487 819 l-61 -203 l412 0 l-60 203 q-38 123 -72.5 248.5 q-34.5 125.5 -68.5 253.5 l-10 0 q-33 -129 -68 -254 q-35 -125 -72 -248 ZM0 0 l500 1509 l274 0 l500 -1509 l-252 0 l-127 430 l-524 0 l-129 -430 l-242 0 ZM508 1624 l-229 258 l102 70 l248 -207 l10 0 l248 207 l102 -70 l-229 -258 l-252 0 Z" /><glyph glyph-name="" unicode="&#x1ce;" d="M444 -27 q-146 0 -238.5 88.5 q-92.5 88.5 -92.5 237.5 q0 181 161 280 q161 99 512 138 q-1 65 -20 121 q-19 56 -65.5 90.5 q-46.5 34.5 -129.5 34.5 q-89 0 -171 -34.5 q-82 -34.5 -154 -80.5 l-88 160 q87 55 203 101 q116 46 251 46 q211 0 310.5 -126.5 q99.5 -126.5 99.5 -350.5 l0 -678 l-193 0 l-18 129 l-8 0 q-77 -66 -167 -111 q-90 -45 -192 -45 ZM516 160 q74 0 137.5 34 q63.5 34 132.5 97 l0 276 q-250 -29 -348 -92.5 q-98 -63.5 -98 -159.5 q0 -83 50.5 -119 q50.5 -36 125.5 -36 ZM504 1325 l-258 315 l96 89 l276 -246 l9 0 l276 246 l96 -89 l-258 -315 l-237 0 Z" /><glyph glyph-name="" unicode="&#x1cf;" d="M199 0 l0 1509 l237 0 l0 -1509 l-237 0 ZM193 1624 l-230 258 l103 70 l247 -207 l11 0 l247 207 l105 -70 l-232 -258 l-251 0 Z" /><glyph glyph-name="" unicode="&#x1d0;" d="M178 0 l0 1126 l236 0 l0 -1126 l-236 0 ZM176 1325 l-256 315 l94 89 l277 -246 l8 0 l279 246 l94 -89 l-256 -315 l-240 0 Z" /><glyph glyph-name="" unicode="&#x1d1;" d="M772 -27 q-193 0 -341 95.5 q-148 95.5 -231 272 q-83 176.5 -83 419.5 q0 242 83 416 q83 174 231 267 q148 93 341 93 q194 0 342 -93 q148 -93 232 -267 q84 -174 84 -416 q0 -243 -84 -419.5 q-84 -176.5 -232 -272 q-148 -95.5 -342 -95.5 ZM772 180 q125 0 218 71.5 q93 71.5 144.5 202 q51.5 130.5 51.5 306.5 q0 266 -113.5 417.5 q-113.5 151.5 -300.5 151.5 q-187 0 -299.5 -151.5 q-112.5 -151.5 -112.5 -417.5 q0 -176 51 -306.5 q51 -130.5 143.5 -202 q92.5 -71.5 217.5 -71.5 ZM647 1624 l-231 258 l102 70 l250 -207 l8 0 l250 207 l102 -70 l-229 -258 l-252 0 Z" /><glyph glyph-name="" unicode="&#x1d2;" d="M629 -27 q-140 0 -261 69.5 q-121 69.5 -195.5 201.5 q-74.5 132 -74.5 319 q0 188 74.5 320 q74.5 132 195.5 202 q121 70 261 70 q139 0 260 -70 q121 -70 195.5 -202 q74.5 -132 74.5 -320 q0 -187 -74.5 -319 q-74.5 -132 -195.5 -201.5 q-121 -69.5 -260 -69.5 ZM629 166 q133 0 211 108.5 q78 108.5 78 288.5 q0 178 -78 288 q-78 110 -211 110 q-132 0 -209.5 -110 q-77.5 -110 -77.5 -288 q0 -180 77.5 -288.5 q77.5 -108.5 209.5 -108.5 ZM510 1325 l-258 315 l96 89 l277 -246 l8 0 l278 246 l95 -89 l-258 -315 l-238 0 Z" /><glyph glyph-name="" unicode="&#x1d3;" d="M752 -27 q-167 0 -293.5 66 q-126.5 66 -197.5 214 q-71 148 -71 394 l0 862 l238 0 l0 -878 q0 -170 41.5 -268.5 q41.5 -98.5 114.5 -140.5 q73 -42 168 -42 q95 0 169.5 42 q74.5 42 117 140.5 q42.5 98.5 42.5 268.5 l0 878 l230 0 l0 -862 q0 -246 -70.5 -394 q-70.5 -148 -196 -214 q-125.5 -66 -292.5 -66 ZM623 1624 l-230 258 l103 70 l247 -207 l11 0 l247 207 l103 -70 l-227 -258 l-254 0 Z" /><glyph glyph-name="" unicode="&#x1d4;" d="M510 -27 q-181 0 -263.5 115 q-82.5 115 -82.5 330 l0 708 l235 0 l0 -680 q0 -144 44.5 -207 q44.5 -63 144.5 -63 q78 0 138.5 39.5 q60.5 39.5 131.5 128.5 l0 782 l236 0 l0 -1126 l-193 0 l-18 170 l-6 0 q-77 -89 -164.5 -143 q-87.5 -54 -202.5 -54 ZM516 1325 l-258 315 l94 89 l277 -246 l10 0 l276 246 l97 -89 l-258 -315 l-238 0 Z" /><glyph glyph-name="" unicode="&#x1d5;" d="M752 -27 q-167 0 -293.5 66 q-126.5 66 -197.5 214 q-71 148 -71 394 l0 862 l238 0 l0 -878 q0 -170 41.5 -268.5 q41.5 -98.5 114.5 -140.5 q73 -42 168 -42 q95 0 169.5 42 q74.5 42 117 140.5 q42.5 98.5 42.5 268.5 l0 878 l230 0 l0 -862 q0 -246 -70.5 -394 q-70.5 -148 -196 -214 q-125.5 -66 -292.5 -66 ZM506 1638 q-49 0 -82 32 q-33 32 -33 83 q0 51 33 84 q33 33 82 33 q51 0 84 -33 q33 -33 33 -84 q0 -51 -33 -83 q-33 -32 -84 -32 ZM428 1991 l0 123 l641 0 l0 -123 l-641 0 ZM991 1638 q-50 0 -83.5 32 q-33.5 32 -33.5 83 q0 51 33.5 84 q33.5 33 83.5 33 q51 0 84 -33 q33 -33 33 -84 q0 -51 -33 -83 q-33 -32 -84 -32 Z" /><glyph glyph-name="" unicode="&#x1d6;" d="M510 -27 q-181 0 -263.5 115 q-82.5 115 -82.5 330 l0 708 l235 0 l0 -680 q0 -144 44.5 -207 q44.5 -63 144.5 -63 q78 0 138.5 39.5 q60.5 39.5 131.5 128.5 l0 782 l236 0 l0 -1126 l-193 0 l-18 170 l-6 0 q-77 -89 -164.5 -143 q-87.5 -54 -202.5 -54 ZM401 1343 q-49 0 -81.5 33 q-32.5 33 -32.5 82 q0 49 32.5 83 q32.5 34 81.5 34 q51 0 85 -34 q34 -34 34 -83 q0 -49 -34 -82 q-34 -33 -85 -33 ZM315 1733 l0 122 l635 0 l0 -122 l-635 0 ZM866 1343 q-50 0 -84 33 q-34 33 -34 82 q0 49 34 83 q34 34 84 34 q49 0 82 -34 q33 -34 33 -83 q0 -49 -33 -82 q-33 -33 -82 -33 Z" /><glyph glyph-name="" unicode="&#x1d7;" d="M752 -27 q-167 0 -293.5 66 q-126.5 66 -197.5 214 q-71 148 -71 394 l0 862 l238 0 l0 -878 q0 -170 41.5 -268.5 q41.5 -98.5 114.5 -140.5 q73 -42 168 -42 q95 0 169.5 42 q74.5 42 117 140.5 q42.5 98.5 42.5 268.5 l0 878 l230 0 l0 -862 q0 -246 -70.5 -394 q-70.5 -148 -196 -214 q-125.5 -66 -292.5 -66 ZM506 1638 q-49 0 -82 32 q-33 32 -33 83 q0 51 33 84 q33 33 82 33 q51 0 84 -33 q33 -33 33 -84 q0 -51 -33 -83 q-33 -32 -84 -32 ZM754 1898 l-105 68 l219 295 l150 -98 l-264 -265 ZM991 1638 q-50 0 -83.5 32 q-33.5 32 -33.5 83 q0 51 33.5 84 q33.5 33 83.5 33 q51 0 84 -33 q33 -33 33 -84 q0 -51 -33 -83 q-33 -32 -84 -32 Z" /><glyph glyph-name="" unicode="&#x1d8;" d="M510 -27 q-181 0 -263.5 115 q-82.5 115 -82.5 330 l0 708 l235 0 l0 -680 q0 -144 44.5 -207 q44.5 -63 144.5 -63 q78 0 138.5 39.5 q60.5 39.5 131.5 128.5 l0 782 l236 0 l0 -1126 l-193 0 l-18 170 l-6 0 q-77 -89 -164.5 -143 q-87.5 -54 -202.5 -54 ZM401 1343 q-49 0 -81.5 33 q-32.5 33 -32.5 82 q0 49 32.5 83 q32.5 34 81.5 34 q51 0 85 -34 q34 -34 34 -83 q0 -49 -34 -82 q-34 -33 -85 -33 ZM627 1628 l-95 66 l187 276 l133 -90 l-225 -252 ZM866 1343 q-50 0 -84 33 q-34 33 -34 82 q0 49 34 83 q34 34 84 34 q49 0 82 -34 q33 -34 33 -83 q0 -49 -33 -82 q-33 -33 -82 -33 Z" /><glyph glyph-name="" unicode="&#x1d9;" d="M752 -27 q-167 0 -293.5 66 q-126.5 66 -197.5 214 q-71 148 -71 394 l0 862 l238 0 l0 -878 q0 -170 41.5 -268.5 q41.5 -98.5 114.5 -140.5 q73 -42 168 -42 q95 0 169.5 42 q74.5 42 117 140.5 q42.5 98.5 42.5 268.5 l0 878 l230 0 l0 -862 q0 -246 -70.5 -394 q-70.5 -148 -196 -214 q-125.5 -66 -292.5 -66 ZM647 1944 l-223 225 l94 72 l225 -173 l11 0 l225 173 l96 -72 l-223 -225 l-205 0 ZM506 1638 q-49 0 -82 32 q-33 32 -33 83 q0 51 33 84 q33 33 82 33 q51 0 84 -33 q33 -33 33 -84 q0 -51 -33 -83 q-33 -32 -84 -32 ZM991 1638 q-50 0 -83.5 32 q-33.5 32 -33.5 83 q0 51 33.5 84 q33.5 33 83.5 33 q51 0 84 -33 q33 -33 33 -84 q0 -51 -33 -83 q-33 -32 -84 -32 Z" /><glyph glyph-name="" unicode="&#x1da;" d="M510 -27 q-181 0 -263.5 115 q-82.5 115 -82.5 330 l0 708 l235 0 l0 -680 q0 -144 44.5 -207 q44.5 -63 144.5 -63 q78 0 138.5 39.5 q60.5 39.5 131.5 128.5 l0 782 l236 0 l0 -1126 l-193 0 l-18 170 l-6 0 q-77 -89 -164.5 -143 q-87.5 -54 -202.5 -54 ZM539 1671 l-213 211 l80 78 l223 -164 l10 0 l223 164 l82 -78 l-215 -211 l-190 0 ZM401 1343 q-49 0 -81.5 33 q-32.5 33 -32.5 82 q0 49 32.5 83 q32.5 34 81.5 34 q51 0 85 -34 q34 -34 34 -83 q0 -49 -34 -82 q-34 -33 -85 -33 ZM866 1343 q-50 0 -84 33 q-34 33 -34 82 q0 49 34 83 q34 34 84 34 q49 0 82 -34 q33 -34 33 -83 q0 -49 -33 -82 q-33 -33 -82 -33 Z" /><glyph glyph-name="" unicode="&#x1db;" d="M752 -27 q-167 0 -293.5 66 q-126.5 66 -197.5 214 q-71 148 -71 394 l0 862 l238 0 l0 -878 q0 -170 41.5 -268.5 q41.5 -98.5 114.5 -140.5 q73 -42 168 -42 q95 0 169.5 42 q74.5 42 117 140.5 q42.5 98.5 42.5 268.5 l0 878 l230 0 l0 -862 q0 -246 -70.5 -394 q-70.5 -148 -196 -214 q-125.5 -66 -292.5 -66 ZM506 1638 q-49 0 -82 32 q-33 32 -33 83 q0 51 33 84 q33 33 82 33 q51 0 84 -33 q33 -33 33 -84 q0 -51 -33 -83 q-33 -32 -84 -32 ZM743 1898 l-262 265 l148 98 l221 -295 l-107 -68 ZM991 1638 q-50 0 -83.5 32 q-33.5 32 -33.5 83 q0 51 33.5 84 q33.5 33 83.5 33 q51 0 84 -33 q33 -33 33 -84 q0 -51 -33 -83 q-33 -32 -84 -32 Z" /><glyph glyph-name="" unicode="&#x1dc;" d="M510 -27 q-181 0 -263.5 115 q-82.5 115 -82.5 330 l0 708 l235 0 l0 -680 q0 -144 44.5 -207 q44.5 -63 144.5 -63 q78 0 138.5 39.5 q60.5 39.5 131.5 128.5 l0 782 l236 0 l0 -1126 l-193 0 l-18 170 l-6 0 q-77 -89 -164.5 -143 q-87.5 -54 -202.5 -54 ZM401 1343 q-49 0 -81.5 33 q-32.5 33 -32.5 82 q0 49 32.5 83 q32.5 34 81.5 34 q51 0 85 -34 q34 -34 34 -83 q0 -49 -34 -82 q-34 -33 -85 -33 ZM641 1628 l-223 252 l131 90 l186 -276 l-94 -66 ZM866 1343 q-50 0 -84 33 q-34 33 -34 82 q0 49 34 83 q34 34 84 34 q49 0 82 -34 q33 -34 33 -83 q0 -49 -33 -82 q-33 -33 -82 -33 Z" /><glyph glyph-name="" unicode="&#x1f8;" d="M199 0 l0 1509 l243 0 l500 -886 l158 -320 l10 0 q-9 117 -20 248 q-11 131 -11 254 l0 704 l226 0 l0 -1509 l-244 0 l-500 889 l-158 315 l-10 0 q9 -117 20 -243.5 q11 -126.5 11 -249.5 l0 -711 l-225 0 ZM805 1593 l-371 267 l129 157 l348 -305 l-106 -119 Z" /><glyph glyph-name="" unicode="&#x1f9;" d="M178 0 l0 1126 l193 0 l18 -155 l6 0 q79 75 168.5 129.5 q89.5 54.5 204.5 54.5 q180 0 263 -115.5 q83 -115.5 83 -330.5 l0 -709 l-235 0 l0 680 q0 146 -45.5 209 q-45.5 63 -145.5 63 q-78 0 -139.5 -39 q-61.5 -39 -134.5 -114 l0 -799 l-236 0 ZM707 1319 l-377 356 l162 156 l333 -395 l-118 -117 Z" /><glyph glyph-name="" unicode="&#x251;" d="M567 -27 q-212 0 -338.5 154.5 q-126.5 154.5 -126.5 435.5 q0 182 68.5 315 q68.5 133 180 205 q111.5 72 239.5 72 q92 0 165.5 -35 q73.5 -35 145.5 -104 l6 0 l19 110 l188 0 l0 -874 q0 -48 14 -67 q14 -19 37 -19 q8 0 14.5 0.5 q6.5 0.5 20.5 3.5 l31 -178 q-23 -6 -51.5 -12.5 q-28.5 -6.5 -65.5 -6.5 q-84 0 -135 37 q-51 37 -70 123 l-6 0 q-63 -63 -148.5 -111.5 q-85.5 -48.5 -187.5 -48.5 ZM623 168 q136 0 256 137 l0 551 q-63 57 -124 79.5 q-61 22.5 -124 22.5 q-79 0 -143.5 -47.5 q-64.5 -47.5 -103 -135.5 q-38.5 -88 -38.5 -210 q0 -192 72 -294.5 q72 -102.5 205 -102.5 Z" /><glyph glyph-name="" unicode="&#x261;" d="M592 -494 q-102 0 -210 31.5 q-108 31.5 -200 91.5 l82 162 q82 -52 166.5 -75 q84.5 -23 161.5 -23 q144 0 214 75.5 q70 75.5 73 198.5 l4 191 q-62 -60 -143 -101 q-81 -41 -173 -41 q-141 0 -245.5 69.5 q-104.5 69.5 -162 196 q-57.5 126.5 -57.5 298.5 q0 176 69.5 305 q69.5 129 181 199.5 q111.5 70.5 237.5 70.5 q92 0 164.5 -33.5 q72.5 -33.5 140.5 -99.5 l8 0 l19 104 l192 0 l0 -1151 q0 -221 -136 -345 q-136 -124 -386 -124 ZM623 211 q134 0 256 139 l0 506 q-63 57 -124 79.5 q-61 22.5 -124 22.5 q-80 0 -145 -46 q-65 -46 -103.5 -131 q-38.5 -85 -38.5 -199 q0 -172 73 -271.5 q73 -99.5 206 -99.5 Z" /><glyph glyph-name="" unicode="&#x2c7;" d="M907 1675 l250 0 l-543 -827 l-546 829 l239 0 l307 -495 l293 493 Z" /><glyph glyph-name="" unicode="&#x2c9;" d="M635 1454 l776 0 l0 -117 l-776 0 l0 117 Z" /><glyph glyph-name="" unicode="&#x2ca;" d="M903 1745 l105 -123 l-633 -647 l-154 168 l682 602 Z" /><glyph glyph-name="" unicode="&#x2cb;" d="M369 1696 l659 -623 l-121 -121 l-694 588 l156 156 Z" /><glyph glyph-name="" unicode="&#x2d9;" d="M514 586 q-88 1 -143.5 60 q-55.5 59 -55.5 134 q-1 82 53 144.5 q54 62.5 146 62.5 q92 0 144 -62.5 q52 -62.5 51 -144.5 q1 -78 -51 -135.5 q-52 -57.5 -144 -58.5 Z" /><glyph glyph-name="" unicode="&#x2ea;" d="M993 879 l0 -197 l-471 0 l0 -2 l-203 0 l0 1042 l203 0 l0 -843 l471 0 Z" /><glyph glyph-name="" unicode="&#x2eb;" d="M993 1339 l0 -196 l-471 0 l0 -463 l-203 0 l0 1042 l203 0 l0 -383 l471 0 Z" /><glyph glyph-name="" unicode="&#x300;" d="M369 1491 l659 -623 l-121 -120 l-694 587 l156 156 Z" /><glyph glyph-name="" unicode="&#x301;" d="M903 1540 l105 -123 l-633 -647 l-154 168 l682 602 Z" /><glyph glyph-name="" unicode="&#x304;" d="M-315 1376 l0 160 l630 0 l0 -160 l-630 0 Z" /><glyph glyph-name="" unicode="&#x307;" d="M616 1335 q-87 2 -142.5 61 q-55.5 59 -55.5 136 q-2 80 52 142.5 q54 62.5 146 62.5 q93 0 145 -62.5 q52 -62.5 50 -142.5 q2 -80 -50 -137.5 q-52 -57.5 -145 -59.5 Z" /><glyph glyph-name="" unicode="&#x30c;" d="M907 1470 l250 0 l-543 -827 l-546 830 l239 0 l307 -496 l293 493 Z" /><glyph glyph-name="" unicode="&#x391;" d="M487 819 l-61 -203 l412 0 l-60 203 q-38 123 -72.5 248.5 q-34.5 125.5 -68.5 253.5 l-10 0 q-33 -129 -68 -254 q-35 -125 -72 -248 ZM0 0 l500 1509 l274 0 l500 -1509 l-252 0 l-127 430 l-524 0 l-129 -430 l-242 0 Z" /><glyph glyph-name="" unicode="&#x392;" d="M199 0 l0 1509 l467 0 q154 0 274.5 -36 q120.5 -36 189 -118 q68.5 -82 68.5 -218 q0 -108 -57 -200 q-57 -92 -158 -126 l0 -10 q129 -28 213 -116.5 q84 -88.5 84 -242.5 q0 -149 -75 -247 q-75 -98 -205.5 -146.5 q-130.5 -48.5 -297.5 -48.5 l-503 0 ZM436 879 l203 0 q172 0 249 60.5 q77 60.5 77 166.5 q0 118 -80 167.5 q-80 49.5 -240 49.5 l-209 0 l0 -444 ZM436 186 l240 0 q176 0 273.5 65 q97.5 65 97.5 204 q0 127 -95.5 186 q-95.5 59 -275.5 59 l-240 0 l0 -514 Z" /><glyph glyph-name="" unicode="&#x393;" d="M199 0 l0 1509 l893 0 l0 -200 l-656 0 l0 -1309 l-237 0 Z" /><glyph glyph-name="" unicode="&#x394;" d="M72 0 l0 143 l485 1366 l279 0 l485 -1366 l0 -143 l-1249 0 ZM328 201 l731 0 l-213 635 l-150 473 l-8 0 l-149 -473 l-211 -635 Z" /><glyph glyph-name="" unicode="&#x395;" d="M199 0 l0 1509 l891 0 l0 -200 l-654 0 l0 -420 l553 0 l0 -201 l-553 0 l0 -487 l676 0 l0 -201 l-913 0 Z" /><glyph glyph-name="" unicode="&#x396;" d="M96 0 l0 143 l756 1166 l-686 0 l0 200 l979 0 l0 -143 l-754 -1165 l762 0 l0 -201 l-1057 0 Z" /><glyph glyph-name="" unicode="&#x397;" d="M199 0 l0 1509 l237 0 l0 -616 l645 0 l0 616 l238 0 l0 -1509 l-238 0 l0 686 l-645 0 l0 -686 l-237 0 Z" /><glyph glyph-name="" unicode="&#x398;" d="M524 686 l0 207 l496 0 l0 -207 l-496 0 ZM772 -27 q-193 0 -341 95.5 q-148 95.5 -231 272 q-83 176.5 -83 419.5 q0 242 83 416 q83 174 231 267 q148 93 341 93 q194 0 342 -93 q148 -93 232 -267 q84 -174 84 -416 q0 -243 -84 -419.5 q-84 -176.5 -232 -272 q-148 -95.5 -342 -95.5 ZM772 180 q125 0 218 71.5 q93 71.5 144.5 202 q51.5 130.5 51.5 306.5 q0 266 -113.5 417.5 q-113.5 151.5 -300.5 151.5 q-187 0 -299.5 -151.5 q-112.5 -151.5 -112.5 -417.5 q0 -176 51 -306.5 q51 -130.5 143.5 -202 q92.5 -71.5 217.5 -71.5 Z" /><glyph glyph-name="" unicode="&#x399;" d="M199 0 l0 1509 l237 0 l0 -1509 l-237 0 Z" /><glyph glyph-name="" unicode="&#x39a;" d="M199 0 l0 1509 l237 0 l0 -714 l6 0 l574 714 l264 0 l-467 -583 l545 -926 l-264 0 l-426 739 l-232 -284 l0 -455 l-237 0 Z" /><glyph glyph-name="" unicode="&#x39b;" d="M-4 0 l471 1509 l281 0 l473 -1509 l-252 0 l-226 782 q-36 129 -66.5 246 q-30.5 117 -70.5 248 l-8 0 q-40 -131 -71 -248 q-31 -117 -66 -246 l-223 -782 l-242 0 Z" /><glyph glyph-name="" unicode="&#x39c;" d="M199 0 l0 1509 l272 0 l277 -764 q26 -75 50 -151 q24 -76 50 -152 l10 0 q26 76 49 152 q23 76 49 151 l273 764 l274 0 l0 -1509 l-221 0 l0 745 q0 68 5 150.5 q5 82.5 12.5 165.5 q7.5 83 13.5 151 l-8 0 l-121 -348 l-262 -719 l-148 0 l-264 719 l-119 348 l-8 0 q5 -68 12 -151 q7 -83 12 -165.5 q5 -82.5 5 -150.5 l0 -745 l-213 0 Z" /><glyph glyph-name="" unicode="&#x39d;" d="M199 0 l0 1509 l243 0 l500 -886 l158 -320 l10 0 q-9 117 -20 248 q-11 131 -11 254 l0 704 l226 0 l0 -1509 l-244 0 l-500 889 l-158 315 l-10 0 q9 -117 20 -243.5 q11 -126.5 11 -249.5 l0 -711 l-225 0 Z" /><glyph glyph-name="" unicode="&#x39e;" d="M115 0 l0 201 l1026 0 l0 -201 l-1026 0 ZM285 688 l0 201 l688 0 l0 -201 l-688 0 ZM139 1309 l0 200 l977 0 l0 -200 l-977 0 Z" /><glyph glyph-name="" unicode="&#x39f;" d="M772 -27 q-193 0 -341 95.5 q-148 95.5 -231 272 q-83 176.5 -83 419.5 q0 242 83 416 q83 174 231 267 q148 93 341 93 q194 0 342 -93 q148 -93 232 -267 q84 -174 84 -416 q0 -243 -84 -419.5 q-84 -176.5 -232 -272 q-148 -95.5 -342 -95.5 ZM772 180 q125 0 218 71.5 q93 71.5 144.5 202 q51.5 130.5 51.5 306.5 q0 266 -113.5 417.5 q-113.5 151.5 -300.5 151.5 q-187 0 -299.5 -151.5 q-112.5 -151.5 -112.5 -417.5 q0 -176 51 -306.5 q51 -130.5 143.5 -202 q92.5 -71.5 217.5 -71.5 Z" /><glyph glyph-name="" unicode="&#x3a0;" d="M199 0 l0 1509 l1101 0 l0 -1509 l-237 0 l0 1309 l-627 0 l0 -1309 l-237 0 Z" /><glyph glyph-name="" unicode="&#x3a1;" d="M199 0 l0 1509 l456 0 q168 0 298 -43 q130 -43 204 -143 q74 -100 74 -270 q0 -165 -73.5 -271.5 q-73.5 -106.5 -202 -158.5 q-128.5 -52 -291.5 -52 l-228 0 l0 -571 l-237 0 ZM436 762 l205 0 q181 0 268.5 71 q87.5 71 87.5 220 q0 149 -92 206.5 q-92 57.5 -272 57.5 l-197 0 l0 -555 Z" /><glyph glyph-name="" unicode="&#x3a3;" d="M96 0 l0 143 l504 621 l-494 602 l0 143 l992 0 l0 -200 l-692 0 l434 -539 l-443 -569 l766 0 l0 -201 l-1067 0 Z" /><glyph glyph-name="" unicode="&#x3a4;" d="M506 0 l0 1309 l-443 0 l0 200 l1125 0 l0 -200 l-445 0 l0 -1309 l-237 0 Z" /><glyph glyph-name="" unicode="&#x3a5;" d="M446 0 l0 571 l-452 938 l254 0 l174 -401 q35 -85 69 -165.5 q34 -80.5 72 -166.5 l8 0 q37 86 73.5 166.5 q36.5 80.5 70.5 165.5 l176 401 l248 0 l-455 -938 l0 -571 l-238 0 Z" /><glyph glyph-name="" unicode="&#x3a6;" d="M737 -49 l0 211 q-188 10 -329 84 q-141 74 -219 204.5 q-78 130.5 -78 309.5 q0 180 78 308 q78 128 219 199.5 q141 71.5 329 82.5 l0 209 l213 0 l0 -209 q189 -11 329.5 -82.5 q140.5 -71.5 218 -200 q77.5 -128.5 77.5 -307.5 q0 -178 -77.5 -308 q-77.5 -130 -218 -204.5 q-140.5 -74.5 -329.5 -85.5 l0 -211 l-213 0 ZM340 760 q0 -177 107 -290 q107 -113 290 -128 l0 827 q-183 -13 -290 -122 q-107 -109 -107 -287 ZM1348 760 q0 178 -108 287 q-108 109 -290 122 l0 -827 q182 15 290 128 q108 113 108 290 Z" /><glyph glyph-name="" unicode="&#x3a7;" d="M33 0 l432 778 l-406 731 l265 0 l182 -354 q28 -52 54.5 -106 q26.5 -54 60.5 -121 l10 0 q29 67 52.5 121 q23.5 54 49.5 106 l178 354 l250 0 l-405 -743 l434 -766 l-264 0 l-199 375 q-29 58 -59.5 117 q-30.5 59 -65.5 129 l-8 0 q-31 -70 -60 -129 q-29 -59 -57 -117 l-192 -375 l-252 0 Z" /><glyph glyph-name="" unicode="&#x3a8;" d="M711 0 l0 547 q-269 14 -421.5 154.5 q-152.5 140.5 -152.5 437.5 l0 370 l234 0 l0 -360 q0 -211 86 -307 q86 -96 254 -107 l0 774 l225 0 l0 -774 q169 11 254.5 107 q85.5 96 85.5 307 l0 360 l233 0 l0 -370 q0 -297 -152 -437.5 q-152 -140.5 -421 -154.5 l0 -547 l-225 0 Z" /><glyph glyph-name="" unicode="&#x3a9;" d="M104 0 l0 195 l287 0 l0 8 q-60 59 -119 147 q-59 88 -98 204 q-39 116 -39 259 q0 211 81.5 374 q81.5 163 229.5 256 q148 93 347 93 q198 0 346 -93 q148 -93 229.5 -256 q81.5 -163 81.5 -374 q0 -143 -38.5 -259 q-38.5 -116 -97 -204 q-58.5 -88 -118.5 -147 l0 -8 l287 0 l0 -195 l-561 0 l0 172 q126 104 205 254.5 q79 150.5 79 368.5 q0 153 -49 274 q-49 121 -141.5 190.5 q-92.5 69.5 -222.5 69.5 q-129 0 -221.5 -69.5 q-92.5 -69.5 -141.5 -190.5 q-49 -121 -49 -274 q0 -218 79.5 -368.5 q79.5 -150.5 205.5 -254.5 l0 -172 l-562 0 Z" /><glyph glyph-name="" unicode="&#x3b1;" d="M539 -27 q-197 0 -319 149 q-122 149 -122 427 q0 190 70 326 q70 136 183 208 q113 72 243 72 q103 0 195 -62.5 q92 -62.5 141 -209.5 l8 0 l43 243 l233 0 q-23 -106 -48 -224 q-25 -118 -46.5 -233.5 q-21.5 -115.5 -35 -216.5 q-13.5 -101 -13.5 -173 q0 -57 31.5 -85 q31.5 -28 79.5 -28 q36 0 75 16 l33 -178 q-26 -12 -66 -21.5 q-40 -9.5 -96 -9.5 q-106 0 -171 51 q-65 51 -72 164 l-8 0 q-123 -215 -338 -215 ZM590 168 q66 0 127 43 q61 43 101.5 114.5 q40.5 71.5 47.5 157.5 l17 207 q-43 158 -113 213 q-70 55 -145 55 q-72 0 -136.5 -44.5 q-64.5 -44.5 -105.5 -135 q-41 -90.5 -41 -227.5 q0 -187 65.5 -285 q65.5 -98 182.5 -98 Z" /><glyph glyph-name="" unicode="&#x3b2;" d="M172 -410 l0 1524 q0 156 52 279 q52 123 159 194.5 q107 71.5 272 71.5 q115 0 217 -44 q102 -44 166 -133 q64 -89 64 -227 q0 -121 -56 -214 q-56 -93 -159 -156 l0 -11 q155 -24 250.5 -138.5 q95.5 -114.5 95.5 -286.5 q0 -156 -64.5 -262 q-64.5 -106 -167 -160 q-102.5 -54 -215.5 -54 q-101 0 -203 35.5 q-102 35.5 -190 130.5 q6 -141 10 -275.5 q4 -134.5 7 -273.5 l-238 0 ZM725 168 q112 0 193 77 q81 77 81 218 q0 121 -70.5 203 q-70.5 82 -213.5 82 q-60 0 -109 -15 l-31 178 q109 21 174 71 q65 50 94 116.5 q29 66.5 29 138.5 q0 118 -65 177 q-65 59 -150 59 q-119 0 -186.5 -100.5 q-67.5 -100.5 -69.5 -282.5 q-4 -191 -6 -379.5 q-2 -188.5 -2 -378.5 q77 -99 164.5 -131.5 q87.5 -32.5 167.5 -32.5 Z" /><glyph glyph-name="" unicode="&#x3b3;" d="M444 -410 q6 51 8.5 90.5 q2.5 39.5 3.5 85.5 q1 46 1 113 q0 130 -37 291.5 q-37 161.5 -100.5 331 q-63.5 169.5 -144 324.5 q-80.5 155 -167.5 272 l240 57 q63 -91 130.5 -232.5 q67.5 -141.5 125 -310 q57.5 -168.5 92.5 -340.5 l10 0 q103 202 175.5 415.5 q72.5 213.5 88.5 438.5 l236 0 q-23 -142 -56 -270.5 q-33 -128.5 -83.5 -257 q-50.5 -128.5 -125 -270.5 q-74.5 -142 -179.5 -312 q15 -103 20.5 -216 q5.5 -113 5.5 -210 l-244 0 Z" /><glyph glyph-name="" unicode="&#x3b4;" d="M623 -27 q-134 0 -250 61 q-116 61 -188 176 q-72 115 -72 275 q0 130 54.5 230.5 q54.5 100.5 147 170.5 q92.5 70 203.5 109 q-75 55 -141 115 q-66 60 -107 131 q-41 71 -41 158 q0 106 92.5 183 q92.5 77 290.5 77 q223 0 490 -90 l-55 -183 q-137 50 -244.5 72.5 q-107.5 22.5 -192.5 22.5 q-83 0 -121 -29.5 q-38 -29.5 -38 -69.5 q0 -54 45.5 -104 q45.5 -50 121 -104 q75.5 -54 164.5 -119 q99 -71 178 -147.5 q79 -76.5 126 -173 q47 -96.5 47 -226.5 q0 -160 -61 -280 q-61 -120 -175.5 -187.5 q-114.5 -67.5 -273.5 -67.5 ZM338 492 q0 -102 40.5 -175 q40.5 -73 106.5 -112 q66 -39 142 -39 q133 0 203.5 90 q70.5 90 70.5 250 q0 127 -64.5 214.5 q-64.5 87.5 -158.5 160.5 q-158 -37 -249 -136.5 q-91 -99.5 -91 -252.5 Z" /><glyph glyph-name="" unicode="&#x3b5;" d="M590 -27 q-140 0 -251.5 40.5 q-111.5 40.5 -176 116.5 q-64.5 76 -64.5 183 q0 120 66.5 185.5 q66.5 65.5 163.5 91.5 l0 10 q-88 31 -132 100 q-44 69 -44 146 q0 105 62 173.5 q62 68.5 163.5 102 q101.5 33.5 220.5 33.5 q101 0 197 -32.5 q96 -32.5 176 -88.5 l-90 -155 q-63 44 -131 68 q-68 24 -142 24 q-95 0 -159 -40.5 q-64 -40.5 -64 -115.5 q0 -69 54.5 -109 q54.5 -40 170.5 -40 q65 0 148 6 l0 -176 q-99 6 -183 6 q-243 0 -243 -166 q0 -83 74.5 -130.5 q74.5 -47.5 207.5 -47.5 q73 0 144.5 23 q71.5 23 146.5 83 l99 -153 q-105 -79 -202 -108.5 q-97 -29.5 -212 -29.5 Z" /><glyph glyph-name="" unicode="&#x3b6;" d="M850 -426 l-186 70 q56 72 83 114 q27 42 27 88 q0 33 -20 55 q-20 22 -73 40.5 q-53 18.5 -153 40.5 q-111 22 -207.5 76.5 q-96.5 54.5 -155.5 163.5 q-59 109 -59 294 q0 121 51 251 q51 130 137 256.5 q86 126.5 192 238.5 q106 112 216 196 q-44 -1 -110.5 -1.5 q-66.5 -0.5 -142 -2 q-75.5 -1.5 -146.5 -4 q-71 -2.5 -125 -6.5 l0 188 l787 0 l0 -188 l-13 0 q-109 -73 -216 -183.5 q-107 -110.5 -195 -239 q-88 -128.5 -140.5 -256.5 q-52.5 -128 -52.5 -237 q0 -119 36 -191 q36 -72 106 -111 q70 -39 174 -58 q165 -32 242 -88 q77 -56 77 -176 q0 -54 -31 -142 q-31 -88 -102 -188 Z" /><glyph glyph-name="" unicode="&#x3b7;" d="M860 -410 q5 182 9 375.5 q4 193.5 6 377.5 q2 184 2 337 q0 146 -38 209 q-38 63 -130 63 q-83 0 -148.5 -50.5 q-65.5 -50.5 -146.5 -174.5 l0 -727 l-236 0 l0 807 q0 67 -4 148.5 q-4 81.5 -16 170.5 l213 0 l18 -223 l6 0 q83 122 175 187 q92 65 214 65 q168 0 241 -115.5 q73 -115.5 73 -330.5 l0 -1119 l-238 0 Z" /><glyph glyph-name="" unicode="&#x3b8;" d="M610 -27 q-221 0 -351 206 q-130 206 -130 642 q0 415 130 626.5 q130 211.5 351 211.5 q223 0 353.5 -211.5 q130.5 -211.5 130.5 -626.5 q0 -436 -130.5 -642 q-130.5 -206 -353.5 -206 ZM610 1468 q-67 0 -121.5 -53.5 q-54.5 -53.5 -87.5 -177 q-33 -123.5 -39 -332.5 l500 0 q-6 209 -40 332.5 q-34 123.5 -88.5 177 q-54.5 53.5 -123.5 53.5 ZM610 166 q69 0 124 53 q55 53 89.5 179 q34.5 126 40.5 345 l-504 0 q7 -219 40.5 -345 q33.5 -126 88 -179 q54.5 -53 121.5 -53 Z" /><glyph glyph-name="" unicode="&#x3b9;" d="M426 -27 q-140 0 -194 79 q-54 79 -54 220 l0 854 l238 0 q-3 -145 -7.5 -299 q-4.5 -154 -8 -300 q-3.5 -146 -3.5 -269 q0 -51 22 -71.5 q22 -20.5 62 -20.5 q36 0 70 14 l31 -178 q-30 -12 -65.5 -20.5 q-35.5 -8.5 -90.5 -8.5 Z" /><glyph glyph-name="" unicode="&#x3ba;" d="M178 0 l0 807 q0 67 -4.5 153.5 q-4.5 86.5 -19.5 165.5 l233 0 q12 -47 16.5 -119 q4.5 -72 4.5 -149 l0 -307 l10 0 q87 147 192.5 275 q105.5 128 223.5 215 q118 87 243 114 l19 -221 q-91 -28 -182 -89.5 q-91 -61.5 -191 -164.5 q56 -112 132.5 -235 q76.5 -123 161.5 -239 q85 -116 167 -206 l-262 -20 q-82 96 -175 239 q-93 143 -172 297 q-18 -23 -37.5 -46.5 q-19.5 -23.5 -39.5 -49.5 q-56 -66 -77.5 -154.5 q-21.5 -88.5 -23.5 -204.5 l0 -61 l-219 0 Z" /><glyph glyph-name="" unicode="&#x3bb;" d="M287 -20 l-252 20 l487 1145 l-10 43 q-40 133 -100 202.5 q-60 69.5 -148 69.5 q-49 0 -83 -10.5 q-34 -10.5 -66 -26.5 l-58 195 q46 18 97.5 29.5 q51.5 11.5 136.5 11.5 q176 0 278.5 -119.5 q102.5 -119.5 178.5 -363.5 l419 -1176 l-252 0 l-282 879 l-10 0 l-336 -899 Z" /><glyph glyph-name="" unicode="&#x3bc;" d="M178 -410 l0 1536 l236 0 l0 -680 q0 -138 43 -204 q43 -66 141 -66 q71 0 134 37.5 q63 37.5 130 157.5 l0 755 l238 0 q-2 -145 -5.5 -299 q-3.5 -154 -6.5 -300 q-3 -146 -3 -269 q0 -51 23.5 -71.5 q23.5 -20.5 65.5 -20.5 q32 0 69 14 l29 -178 q-29 -12 -65 -20.5 q-36 -8.5 -91 -8.5 q-199 0 -229 209 l-6 0 q-56 -103 -130.5 -152.5 q-74.5 -49.5 -160.5 -49.5 q-60 0 -109 17 q-49 17 -86 73 q1 -103 3 -178.5 q2 -75.5 6.5 -146 q4.5 -70.5 11.5 -155.5 l-238 0 Z" /><glyph glyph-name="" unicode="&#x3bd;" d="M438 0 q-39 207 -103.5 405 q-64.5 198 -148 374.5 q-83.5 176.5 -178.5 318.5 l240 57 q54 -87 105.5 -200 q51.5 -113 96.5 -237.5 q45 -124.5 80.5 -247 q35.5 -122.5 57.5 -228.5 l10 0 q95 207 163 437.5 q68 230.5 87 446.5 l235 0 q-31 -197 -84 -378 q-53 -181 -134.5 -363.5 q-81.5 -182.5 -198.5 -384.5 l-228 0 Z" /><glyph glyph-name="" unicode="&#x3be;" d="M862 -426 l-186 70 q57 72 83.5 114 q26.5 42 26.5 88 q0 50 -48.5 77.5 q-48.5 27.5 -194.5 58.5 q-119 23 -217.5 71 q-98.5 48 -157.5 137.5 q-59 89.5 -59 235.5 q0 108 45.5 197 q45.5 89 121.5 151.5 q76 62.5 166 89.5 l0 8 q-101 42 -163 125.5 q-62 83.5 -62 200.5 q0 83 38.5 151.5 q38.5 68.5 109.5 108.5 q-57 -1 -101 -2.5 q-44 -1.5 -91.5 -4 q-47.5 -2.5 -115.5 -7.5 l0 188 l920 0 l0 -188 l-264 0 q-106 0 -182 -67 q-76 -67 -76 -187 q0 -73 37 -132 q37 -59 96 -93.5 q59 -34.5 125 -34.5 q46 0 77.5 3.5 q31.5 3.5 77.5 12.5 l0 -192 q-47 10 -86 13 q-39 3 -84 3 q-90 0 -169.5 -37.5 q-79.5 -37.5 -129 -107 q-49.5 -69.5 -49.5 -166.5 q0 -101 42.5 -157.5 q42.5 -56.5 119 -86 q76.5 -29.5 178.5 -47.5 q172 -32 239.5 -88 q67.5 -56 67.5 -176 q0 -54 -32 -142 q-32 -88 -103 -188 Z" /><glyph glyph-name="" unicode="&#x3bf;" d="M623 -27 q-143 0 -262 69 q-119 69 -191 201 q-72 132 -72 320 q0 189 72 321 q72 132 191 201.5 q119 69.5 262 69.5 q141 0 260 -69.5 q119 -69.5 191.5 -201.5 q72.5 -132 72.5 -321 q0 -188 -72.5 -320 q-72.5 -132 -191.5 -201 q-119 -69 -260 -69 ZM623 166 q136 0 208 108 q72 108 72 289 q0 180 -72 289 q-72 109 -208 109 q-137 0 -209 -109 q-72 -109 -72 -289 q0 -181 72 -289 q72 -108 209 -108 Z" /><glyph glyph-name="" unicode="&#x3c0;" d="M1143 -27 q-151 0 -213 82.5 q-62 82.5 -62 231.5 q0 38 2 111.5 q2 73.5 4 166 q2 92.5 4 189.5 q2 97 3 182 l-357 0 q0 -226 -20 -472 q-20 -246 -43 -476 l-238 12 q40 235 60 478 q20 243 20 458 l-254 0 l0 178 l162 12 l1118 0 l0 -190 l-221 0 q-5 -89 -8.5 -190 q-3.5 -101 -5 -196 q-1.5 -95 -2 -168.5 q-0.5 -73.5 -0.5 -107.5 q0 -59 26 -83.5 q26 -24.5 78 -24.5 q30 0 88 12 l29 -178 q-29 -11 -72 -19 q-43 -8 -98 -8 Z" /><glyph glyph-name="" unicode="&#x3c1;" d="M168 -410 l0 975 q0 200 68 331 q68 131 184 195 q116 64 258 64 q238 0 368 -153 q130 -153 130 -420 q0 -194 -67 -330 q-67 -136 -173.5 -207.5 q-106.5 -71.5 -224.5 -71.5 q-85 0 -167.5 32.5 q-82.5 32.5 -154.5 117.5 q5 -146 9 -268.5 q4 -122.5 8 -264.5 l-238 0 ZM664 168 q112 0 191 105.5 q79 105.5 79 304.5 q0 176 -63.5 278 q-63.5 102 -202.5 102 q-114 0 -195.5 -98 q-81.5 -98 -81.5 -289 l0 -270 q71 -83 139 -108 q68 -25 134 -25 Z" /><glyph glyph-name="" unicode="&#x3c2;" d="M752 -420 l-189 70 q57 74 89 124.5 q32 50.5 32 96.5 q0 55 -31.5 92.5 q-31.5 37.5 -122.5 65.5 q-78 26 -154.5 65 q-76.5 39 -139.5 101.5 q-63 62.5 -100.5 158 q-37.5 95.5 -37.5 234.5 q0 181 72.5 307.5 q72.5 126.5 191 193 q118.5 66.5 259.5 66.5 q109 0 189 -37.5 q80 -37.5 138 -91.5 l-117 -154 q-46 42 -92 65.5 q-46 23.5 -104 23.5 q-132 0 -212.5 -102 q-80.5 -102 -80.5 -271 q0 -121 38.5 -191.5 q38.5 -70.5 104 -110 q65.5 -39.5 146.5 -67.5 q97 -33 154.5 -68.5 q57.5 -35.5 82.5 -88.5 q25 -53 25 -136 q0 -58 -34.5 -152 q-34.5 -94 -106.5 -194 Z" /><glyph glyph-name="" unicode="&#x3c3;" d="M612 -27 q-139 0 -256 67 q-117 67 -187.5 196 q-70.5 129 -70.5 315 q0 197 75 324 q75 127 195 189 q120 62 257 62 l624 0 l0 -196 q-93 7 -172.5 13 q-79.5 6 -171.5 7 l0 -10 q99 -55 153 -164 q54 -109 54 -258 q0 -172 -65.5 -294 q-65.5 -122 -178.5 -186.5 q-113 -64.5 -256 -64.5 ZM614 166 q122 0 197.5 99.5 q75.5 99.5 75.5 273.5 q0 105 -31.5 195 q-31.5 90 -92 145 q-60.5 55 -147.5 55 q-119 0 -196.5 -93 q-77.5 -93 -77.5 -290 q0 -180 76.5 -282.5 q76.5 -102.5 195.5 -102.5 Z" /><glyph glyph-name="" unicode="&#x3c4;" d="M680 -27 q-143 0 -199.5 82.5 q-56.5 82.5 -56.5 231.5 l0 651 l-365 0 l0 176 l164 12 l799 0 l0 -188 l-369 0 q-4 -175 -6 -345.5 q-2 -170.5 -2 -318.5 q0 -59 24 -83.5 q24 -24.5 68 -24.5 q54 0 115 18 l33 -180 q-40 -12 -92.5 -21.5 q-52.5 -9.5 -112.5 -9.5 Z" /><glyph glyph-name="" unicode="&#x3c5;" d="M582 -27 q-217 0 -330 118.5 q-113 118.5 -113 338.5 q0 94 4 188 q4 94 4 189 q0 67 -3.5 148.5 q-3.5 81.5 -18.5 170.5 l229 0 q13 -58 16 -124.5 q3 -66.5 3 -143.5 q0 -57 -3.5 -134 q-3.5 -77 -7.5 -158.5 q-4 -81.5 -4 -151.5 q0 -132 67.5 -190 q67.5 -58 158.5 -58 q112 0 182 95.5 q70 95.5 70 301.5 q0 122 -19 252.5 q-19 130.5 -69 284.5 l229 55 q46 -144 71 -290 q25 -146 25 -294 q0 -287 -133 -442.5 q-133 -155.5 -358 -155.5 Z" /><glyph glyph-name="" unicode="&#x3c6;" d="M694 -410 l0 390 q-115 5 -222 45.5 q-107 40.5 -191 115 q-84 74.5 -133.5 181 q-49.5 106.5 -49.5 243.5 q0 137 49.5 243 q49.5 106 133.5 179.5 q84 73.5 191 114 q107 40.5 222 45.5 l0 291 l219 0 l0 -291 q158 -7 294 -76 q136 -69 219 -196 q83 -127 83 -310 q0 -137 -49 -243.5 q-49 -106.5 -133 -181 q-84 -74.5 -191 -115 q-107 -40.5 -223 -45.5 l0 -390 l-219 0 ZM342 565 q0 -187 101 -293 q101 -106 251 -112 l0 809 q-150 -6 -251 -112 q-101 -106 -101 -292 ZM1268 565 q0 186 -99 292 q-99 106 -256 112 l0 -809 q101 4 181 53 q80 49 127 138 q47 89 47 214 Z" /><glyph glyph-name="" unicode="&#x3c7;" d="M262 -436 l-242 26 l443 787 l-436 721 l231 57 l317 -567 l9 0 l262 538 l246 0 l-396 -743 l465 -766 l-229 -53 l-348 622 l-9 0 l-313 -622 Z" /><glyph glyph-name="" unicode="&#x3c8;" d="M702 -410 l0 383 q-196 3 -318.5 75.5 q-122.5 72.5 -179.5 195.5 q-57 123 -57 278 l0 285 q0 67 -3 148.5 q-3 81.5 -15 170.5 l227 0 q11 -58 14 -124.5 q3 -66.5 3 -143.5 q0 -56 -1 -123.5 q-1 -67.5 -2 -128.5 q-1 -61 -1 -100 q0 -149 80 -246.5 q80 -97.5 253 -97.5 l0 1276 l218 0 l0 -1276 q169 4 260.5 111.5 q91.5 107.5 91.5 340.5 q0 119 -18.5 230 q-18.5 111 -67.5 256 l229 55 q48 -137 71 -264 q23 -127 23 -268 q0 -308 -153.5 -475.5 q-153.5 -167.5 -435.5 -174.5 l0 -383 l-218 0 Z" /><glyph glyph-name="" unicode="&#x3c9;" d="M516 -27 q-178 0 -291.5 144 q-113.5 144 -113.5 428 q0 166 56 323.5 q56 157.5 140 286.5 l217 -92 q-90 -137 -140 -267 q-50 -130 -50 -296 q0 -157 53.5 -245.5 q53.5 -88.5 140.5 -88.5 q79 0 133 59 q54 59 54 199 q0 74 -5 141.5 q-5 67.5 -16 161.5 l254 0 q-11 -94 -16.5 -161.5 q-5.5 -67.5 -5.5 -141.5 q0 -148 51.5 -203 q51.5 -55 128.5 -55 q84 0 138 92.5 q54 92.5 54 278.5 q0 107 -16.5 192.5 q-16.5 85.5 -54 166 q-37.5 80.5 -99.5 173.5 l215 86 q88 -132 140.5 -273 q52.5 -141 52.5 -331 q0 -286 -106.5 -432 q-106.5 -146 -290.5 -146 q-99 0 -184 48.5 q-85 48.5 -130 158.5 l-8 0 q-43 -110 -123.5 -158.5 q-80.5 -48.5 -177.5 -48.5 Z" /><glyph glyph-name="" unicode="&#x401;" d="M199 0 l0 1509 l891 0 l0 -200 l-654 0 l0 -420 l553 0 l0 -201 l-553 0 l0 -487 l676 0 l0 -201 l-913 0 ZM426 1638 q-55 0 -91 35.5 q-36 35.5 -36 91.5 q0 56 36 91.5 q36 35.5 91 35.5 q55 0 91 -35.5 q36 -35.5 36 -91.5 q0 -56 -36 -91.5 q-36 -35.5 -91 -35.5 ZM911 1638 q-56 0 -92.5 35.5 q-36.5 35.5 -36.5 91.5 q0 56 36.5 91.5 q36.5 35.5 92.5 35.5 q56 0 91.5 -35.5 q35.5 -35.5 35.5 -91.5 q0 -56 -35.5 -91.5 q-35.5 -35.5 -91.5 -35.5 Z" /><glyph glyph-name="" unicode="&#x410;" d="M487 819 l-61 -203 l412 0 l-60 203 q-38 123 -72.5 248.5 q-34.5 125.5 -68.5 253.5 l-10 0 q-33 -129 -68 -254 q-35 -125 -72 -248 ZM0 0 l500 1509 l274 0 l500 -1509 l-252 0 l-127 430 l-524 0 l-129 -430 l-242 0 Z" /><glyph glyph-name="" unicode="&#x411;" d="M199 0 l0 1509 l960 0 l0 -200 l-723 0 l0 -420 l262 0 q160 0 287 -41.5 q127 -41.5 201 -135.5 q74 -94 74 -249 q0 -161 -70 -263.5 q-70 -102.5 -194.5 -151 q-124.5 -48.5 -286.5 -48.5 l-510 0 ZM436 186 l240 0 q175 0 262.5 65.5 q87.5 65.5 87.5 207.5 q0 133 -90 191.5 q-90 58.5 -266 58.5 l-234 0 l0 -523 Z" /><glyph glyph-name="" unicode="&#x412;" d="M199 0 l0 1509 l467 0 q154 0 274.5 -36 q120.5 -36 189 -118 q68.5 -82 68.5 -218 q0 -108 -57 -200 q-57 -92 -158 -126 l0 -10 q129 -28 213 -116.5 q84 -88.5 84 -242.5 q0 -149 -75 -247 q-75 -98 -205.5 -146.5 q-130.5 -48.5 -297.5 -48.5 l-503 0 ZM436 879 l203 0 q172 0 249 60.5 q77 60.5 77 166.5 q0 118 -80 167.5 q-80 49.5 -240 49.5 l-209 0 l0 -444 ZM436 186 l240 0 q176 0 273.5 65 q97.5 65 97.5 204 q0 127 -95.5 186 q-95.5 59 -275.5 59 l-240 0 l0 -514 Z" /><glyph glyph-name="" unicode="&#x413;" d="M199 0 l0 1509 l893 0 l0 -200 l-656 0 l0 -1309 l-237 0 Z" /><glyph glyph-name="" unicode="&#x414;" d="M547 702 q-68 -352 -166 -501 l651 0 l0 1108 l-383 0 q-20 -117 -35 -210.5 q-15 -93.5 -30.5 -187 q-15.5 -93.5 -36.5 -209.5 ZM283 0 l0 -432 l-209 0 l-23 487 l0 146 l70 0 q32 12 66.5 64 q34.5 52 71 165 q36.5 113 73.5 307 q20 109 36 199.5 q16 90.5 31 177.5 q15 87 31 182.5 q16 95.5 35 212.5 l805 0 l0 -1308 l172 0 l0 -146 l-23 -487 l-211 0 l0 432 l-925 0 Z" /><glyph glyph-name="" unicode="&#x415;" d="M199 0 l0 1509 l891 0 l0 -200 l-654 0 l0 -420 l553 0 l0 -201 l-553 0 l0 -487 l676 0 l0 -201 l-913 0 Z" /><glyph glyph-name="" unicode="&#x416;" d="M12 0 l453 797 l-152 340 q-50 113 -94.5 143.5 q-44.5 30.5 -93.5 30.5 q-11 0 -27 -2 q-16 -2 -32 -9 l-37 220 q18 9 43.5 12.5 q25.5 3.5 50.5 3.5 q74 0 135.5 -23 q61.5 -23 116 -83.5 q54.5 -60.5 106.5 -172.5 l172 -372 l183 0 l0 624 l227 0 l0 -624 l182 0 l172 372 q52 112 107 172.5 q55 60.5 117 83.5 q62 23 137 23 q23 0 48.5 -3.5 q25.5 -3.5 45.5 -12.5 l-41 -220 q-14 7 -30.5 9 q-16.5 2 -26.5 2 q-51 0 -94.5 -30.5 q-43.5 -30.5 -92.5 -143.5 l-153 -340 l454 -797 l-260 0 l-366 692 l-199 0 l0 -692 l-227 0 l0 692 l-197 0 l-369 -692 l-258 0 Z" /><glyph glyph-name="" unicode="&#x417;" d="M637 -27 q-158 0 -294 51 q-136 51 -251 164 l129 164 q97 -93 195 -132.5 q98 -39.5 219 -39.5 q138 0 234 68.5 q96 68.5 96 197.5 q0 131 -95.5 192.5 q-95.5 61.5 -273.5 61.5 l-180 0 l0 179 l135 0 q180 0 258 59.5 q78 59.5 78 171.5 q0 111 -77 165 q-77 54 -194 54 q-99 0 -184 -36 q-85 -36 -156 -97 l-122 158 q87 83 208.5 132.5 q121.5 49.5 260.5 49.5 q228 0 362.5 -104 q134.5 -104 134.5 -287 q0 -117 -55 -206.5 q-55 -89.5 -160 -129.5 l0 -10 q126 -28 208.5 -123 q82.5 -95 82.5 -244 q0 -147 -74.5 -249.5 q-74.5 -102.5 -201 -156 q-126.5 -53.5 -283.5 -53.5 Z" /><glyph glyph-name="" unicode="&#x418;" d="M199 0 l0 1509 l233 0 l0 -704 q0 -123 -10.5 -254 q-10.5 -131 -18.5 -248 l9 0 l159 315 l506 891 l252 0 l0 -1509 l-235 0 l0 711 q0 123 10.5 249.5 q10.5 126.5 19.5 243.5 l-10 0 l-158 -313 l-507 -891 l-250 0 Z" /><glyph glyph-name="" unicode="&#x419;" d="M199 0 l0 1509 l233 0 l0 -704 q0 -123 -10.5 -254 q-10.5 -131 -18.5 -248 l9 0 l159 315 l506 891 l252 0 l0 -1509 l-235 0 l0 711 q0 123 10.5 249.5 q10.5 126.5 19.5 243.5 l-10 0 l-158 -313 l-507 -891 l-250 0 ZM772 1630 q-133 0 -211.5 43 q-78.5 43 -114 112.5 q-35.5 69.5 -40.5 151.5 l200 0 q5 -76 42.5 -128 q37.5 -52 123.5 -52 q86 0 123.5 52 q37.5 52 42.5 128 l201 0 q-4 -82 -39.5 -151.5 q-35.5 -69.5 -114.5 -112.5 q-79 -43 -213 -43 Z" /><glyph glyph-name="" unicode="&#x41a;" d="M199 0 l0 1509 l237 0 l0 -624 l230 0 l206 372 q63 112 117 172.5 q54 60.5 111.5 83.5 q57.5 23 130.5 23 q24 0 50 -3.5 q26 -3.5 46 -12.5 l-41 -215 q-17 4 -31.5 5 q-14.5 1 -25.5 1 q-34 0 -61 -12.5 q-27 -12.5 -57 -50 q-30 -37.5 -71 -111.5 l-188 -336 l512 -801 l-254 0 l-444 692 l-230 0 l0 -692 l-237 0 Z" /><glyph glyph-name="" unicode="&#x41b;" d="M137 -27 q-43 0 -77 4.5 q-34 4.5 -66 16.5 l45 217 q34 -12 65 -12 q30 0 56 12.5 q26 12.5 50.5 52 q24.5 39.5 49 117 q24.5 77.5 51.5 207.5 q46 229 86.5 455.5 q40.5 226.5 83.5 465.5 l793 0 l0 -1509 l-238 0 l0 1309 l-370 0 q-36 -192 -68 -376.5 q-32 -184.5 -66 -369.5 q-45 -237 -98.5 -365 q-53.5 -128 -125 -176.5 q-71.5 -48.5 -171.5 -48.5 Z" /><glyph glyph-name="" unicode="&#x41c;" d="M199 0 l0 1509 l272 0 l277 -764 q26 -75 50 -151 q24 -76 50 -152 l10 0 q26 76 49 152 q23 76 49 151 l273 764 l274 0 l0 -1509 l-221 0 l0 745 q0 68 5 150.5 q5 82.5 12.5 165.5 q7.5 83 13.5 151 l-8 0 l-121 -348 l-262 -719 l-148 0 l-264 719 l-119 348 l-8 0 q5 -68 12 -151 q7 -83 12 -165.5 q5 -82.5 5 -150.5 l0 -745 l-213 0 Z" /><glyph glyph-name="" unicode="&#x41d;" d="M199 0 l0 1509 l237 0 l0 -616 l645 0 l0 616 l238 0 l0 -1509 l-238 0 l0 686 l-645 0 l0 -686 l-237 0 Z" /><glyph glyph-name="" unicode="&#x41e;" d="M772 -27 q-193 0 -341 95.5 q-148 95.5 -231 272 q-83 176.5 -83 419.5 q0 242 83 416 q83 174 231 267 q148 93 341 93 q194 0 342 -93 q148 -93 232 -267 q84 -174 84 -416 q0 -243 -84 -419.5 q-84 -176.5 -232 -272 q-148 -95.5 -342 -95.5 ZM772 180 q125 0 218 71.5 q93 71.5 144.5 202 q51.5 130.5 51.5 306.5 q0 266 -113.5 417.5 q-113.5 151.5 -300.5 151.5 q-187 0 -299.5 -151.5 q-112.5 -151.5 -112.5 -417.5 q0 -176 51 -306.5 q51 -130.5 143.5 -202 q92.5 -71.5 217.5 -71.5 Z" /><glyph glyph-name="" unicode="&#x41f;" d="M199 0 l0 1509 l1101 0 l0 -1509 l-237 0 l0 1309 l-627 0 l0 -1309 l-237 0 Z" /><glyph glyph-name="" unicode="&#x420;" d="M199 0 l0 1509 l456 0 q168 0 298 -43 q130 -43 204 -143 q74 -100 74 -270 q0 -165 -73.5 -271.5 q-73.5 -106.5 -202 -158.5 q-128.5 -52 -291.5 -52 l-228 0 l0 -571 l-237 0 ZM436 762 l205 0 q181 0 268.5 71 q87.5 71 87.5 220 q0 149 -92 206.5 q-92 57.5 -272 57.5 l-197 0 l0 -555 Z" /><glyph glyph-name="" unicode="&#x421;" d="M786 -27 q-189 0 -340.5 91.5 q-151.5 91.5 -240 265 q-88.5 173.5 -88.5 420.5 q0 245 90.5 421.5 q90.5 176.5 244.5 270.5 q154 94 345 94 q141 0 250 -57.5 q109 -57.5 178 -132.5 l-129 -152 q-59 60 -131 97.5 q-72 37.5 -164 37.5 q-130 0 -229.5 -69 q-99.5 -69 -155.5 -197 q-56 -128 -56 -305 q0 -269 117.5 -423.5 q117.5 -154.5 317.5 -154.5 q104 0 185 43 q81 43 148 117 l127 -150 q-90 -104 -206.5 -160.5 q-116.5 -56.5 -262.5 -56.5 Z" /><glyph glyph-name="" unicode="&#x422;" d="M506 0 l0 1309 l-443 0 l0 200 l1125 0 l0 -200 l-445 0 l0 -1309 l-237 0 Z" /><glyph glyph-name="" unicode="&#x423;" d="M328 -27 q-54 0 -92 6.5 q-38 6.5 -70 18.5 l47 211 q18 -8 40.5 -13.5 q22.5 -5.5 59.5 -5.5 q66 0 108.5 26 q42.5 26 72.5 81 l28 70 l-512 1142 l250 0 l250 -600 l117 -317 l10 0 l111 317 l229 600 l240 0 l-486 -1214 q-61 -151 -155.5 -236.5 q-94.5 -85.5 -247.5 -85.5 Z" /><glyph glyph-name="" unicode="&#x424;" d="M752 -27 l0 211 q-303 13 -474.5 160 q-171.5 147 -171.5 416 q0 269 171.5 412.5 q171.5 143.5 474.5 154.5 l0 209 l206 0 l0 -209 q302 -12 474 -155 q172 -143 172 -412 q0 -269 -172 -416 q-172 -147 -474 -160 l0 -211 l-206 0 ZM332 760 q0 -185 110 -286.5 q110 -101.5 310 -108.5 l0 782 q-200 -8 -310 -105.5 q-110 -97.5 -110 -281.5 ZM1376 760 q0 184 -109 281.5 q-109 97.5 -309 105.5 l0 -782 q200 9 309 109.5 q109 100.5 109 285.5 Z" /><glyph glyph-name="" unicode="&#x425;" d="M33 0 l432 778 l-406 731 l265 0 l182 -354 q28 -52 54.5 -106 q26.5 -54 60.5 -121 l10 0 q29 67 52.5 121 q23.5 54 49.5 106 l178 354 l250 0 l-405 -743 l434 -766 l-264 0 l-199 375 q-29 58 -59.5 117 q-30.5 59 -65.5 129 l-8 0 q-31 -70 -60 -129 q-29 -59 -57 -117 l-192 -375 l-252 0 Z" /><glyph glyph-name="" unicode="&#x426;" d="M1217 -432 l0 432 l-1018 0 l0 1509 l237 0 l0 -1308 l602 0 l0 1308 l238 0 l0 -1308 l172 0 l0 -146 l-23 -487 l-208 0 Z" /><glyph glyph-name="" unicode="&#x427;" d="M965 0 l0 655 q-53 -9 -114.5 -14.5 q-61.5 -5.5 -145.5 -5.5 q-173 0 -297 49.5 q-124 49.5 -191 161 q-67 111.5 -67 299.5 l0 364 l233 0 l0 -364 q0 -180 88 -249 q88 -69 258 -69 q77 0 135 6.5 q58 6.5 101 14.5 l0 661 l237 0 l0 -1509 l-237 0 Z" /><glyph glyph-name="" unicode="&#x428;" d="M199 0 l0 1509 l231 0 l0 -1308 l467 0 l0 1308 l229 0 l0 -1308 l467 0 l0 1308 l234 0 l0 -1509 l-1628 0 Z" /><glyph glyph-name="" unicode="&#x429;" d="M199 0 l0 1509 l231 0 l0 -1308 l467 0 l0 1308 l229 0 l0 -1308 l467 0 l0 1308 l234 0 l0 -1308 l174 0 l0 -146 l-23 -487 l-211 0 l0 432 l-1568 0 Z" /><glyph glyph-name="" unicode="&#x42a;" d="M535 0 l0 1309 l-472 0 l0 200 l709 0 l0 -598 l221 0 q161 0 291.5 -46 q130.5 -46 207.5 -142.5 q77 -96.5 77 -249.5 q0 -167 -72 -271.5 q-72 -104.5 -199 -153 q-127 -48.5 -292 -48.5 l-471 0 ZM772 190 l211 0 q174 0 264 66.5 q90 66.5 90 210.5 q0 254 -368 254 l-197 0 l0 -531 Z" /><glyph glyph-name="" unicode="&#x42b;" d="M199 0 l0 1509 l237 0 l0 -598 l207 0 q167 0 295 -44.5 q128 -44.5 200 -141 q72 -96.5 72 -252.5 q0 -167 -71.5 -271.5 q-71.5 -104.5 -199.5 -153 q-128 -48.5 -296 -48.5 l-444 0 ZM436 190 l185 0 q173 0 264.5 66.5 q91.5 66.5 91.5 210.5 q0 132 -90.5 193 q-90.5 61 -272.5 61 l-178 0 l0 -531 ZM1442 0 l0 1509 l237 0 l0 -1509 l-237 0 Z" /><glyph glyph-name="" unicode="&#x42c;" d="M199 0 l0 1509 l237 0 l0 -598 l250 0 q167 0 295 -44.5 q128 -44.5 200 -141 q72 -96.5 72 -252.5 q0 -167 -71.5 -271.5 q-71.5 -104.5 -199 -153 q-127.5 -48.5 -294.5 -48.5 l-489 0 ZM436 190 l228 0 q173 0 265.5 66.5 q92.5 66.5 92.5 210.5 q0 132 -90.5 193 q-90.5 61 -272.5 61 l-223 0 l0 -531 Z" /><glyph glyph-name="" unicode="&#x42d;" d="M557 -27 q-152 0 -272.5 56.5 q-120.5 56.5 -216.5 160.5 l127 150 q72 -74 158.5 -117 q86.5 -43 197.5 -43 q184 0 294 125 q110 125 126 383 l-602 0 l0 201 l598 0 q-25 218 -132.5 329 q-107.5 111 -285.5 111 q-95 0 -176.5 -37 q-81.5 -37 -147.5 -98 l-127 152 q76 75 197 132.5 q121 57.5 264 57.5 q191 0 337 -88 q146 -88 229 -263 q83 -175 83 -435 q0 -258 -85.5 -431 q-85.5 -173 -233 -259.5 q-147.5 -86.5 -332.5 -86.5 Z" /><glyph glyph-name="" unicode="&#x42e;" d="M1372 180 q122 0 209 71.5 q87 71.5 133.5 202 q46.5 130.5 46.5 306.5 q0 266 -103 417.5 q-103 151.5 -286 151.5 q-181 0 -285 -151.5 q-104 -151.5 -104 -417.5 q0 -176 47 -306.5 q47 -130.5 134 -202 q87 -71.5 208 -71.5 ZM1372 -27 q-180 0 -316 86 q-136 86 -216 246 q-80 160 -92 381 l-312 0 l0 -686 l-237 0 l0 1509 l237 0 l0 -616 l316 0 q20 203 102 346.5 q82 143.5 214 220 q132 76.5 304 76.5 q191 0 333.5 -93 q142.5 -93 222 -267 q79.5 -174 79.5 -416 q0 -243 -79.5 -419.5 q-79.5 -176.5 -222 -272 q-142.5 -95.5 -333.5 -95.5 Z" /><glyph glyph-name="" unicode="&#x42f;" d="M930 0 l0 608 l-244 0 l-369 -608 l-274 0 l412 637 q-143 43 -234.5 148 q-91.5 105 -91.5 286 q0 163 71.5 259 q71.5 96 194.5 137.5 q123 41.5 279 41.5 l493 0 l0 -1509 l-237 0 ZM700 799 l230 0 l0 518 l-230 0 q-162 0 -248.5 -54.5 q-86.5 -54.5 -86.5 -191.5 q0 -137 86.5 -204.5 q86.5 -67.5 248.5 -67.5 Z" /><glyph glyph-name="" unicode="&#x430;" d="M444 -27 q-146 0 -238.5 88.5 q-92.5 88.5 -92.5 237.5 q0 181 161 280 q161 99 512 138 q-1 65 -20 121 q-19 56 -65.5 90.5 q-46.5 34.5 -129.5 34.5 q-89 0 -171 -34.5 q-82 -34.5 -154 -80.5 l-88 160 q87 55 203 101 q116 46 251 46 q211 0 310.5 -126.5 q99.5 -126.5 99.5 -350.5 l0 -678 l-193 0 l-18 129 l-8 0 q-77 -66 -167 -111 q-90 -45 -192 -45 ZM516 160 q74 0 137.5 34 q63.5 34 132.5 97 l0 276 q-250 -29 -348 -92.5 q-98 -63.5 -98 -159.5 q0 -83 50.5 -119 q50.5 -36 125.5 -36 Z" /><glyph glyph-name="" unicode="&#x431;" d="M340 639 q0 -227 79.5 -350 q79.5 -123 231.5 -123 q120 0 193.5 107 q73.5 107 73.5 282 q0 167 -70 257.5 q-70 90.5 -199 90.5 q-75 0 -154.5 -40.5 q-79.5 -40.5 -154.5 -141.5 q0 -20 0 -40.5 q0 -20.5 0 -41.5 ZM655 -27 q-258 0 -399 187 q-141 187 -141 528 q0 221 32 374.5 q32 153.5 93.5 253.5 q61.5 100 148 159 q86.5 59 195.5 90.5 q109 31.5 237 50.5 q97 14 145.5 27.5 q48.5 13.5 100.5 37.5 l47 -208 q-44 -33 -107.5 -50.5 q-63.5 -17.5 -134.5 -27.5 q-131 -20 -224.5 -41.5 q-93.5 -21.5 -155.5 -67.5 q-62 -46 -96.5 -136 q-34.5 -90 -47.5 -245 q71 86 166.5 131 q95.5 45 198.5 45 q129 0 230 -62 q101 -62 159.5 -179.5 q58.5 -117.5 58.5 -284.5 q0 -177 -67.5 -307.5 q-67.5 -130.5 -182 -202.5 q-114.5 -72 -256.5 -72 Z" /><glyph glyph-name="" unicode="&#x432;" d="M178 0 l0 1126 l447 0 q124 0 220.5 -28 q96.5 -28 152 -91.5 q55.5 -63.5 55.5 -168.5 q0 -88 -49 -150 q-49 -62 -140 -88 l0 -10 q99 -23 166.5 -85.5 q67.5 -62.5 67.5 -180.5 q0 -114 -59 -185.5 q-59 -71.5 -161.5 -105 q-102.5 -33.5 -232.5 -33.5 l-467 0 ZM408 666 l188 0 q123 0 175 39 q52 39 52 108 q0 72 -51 112 q-51 40 -166 40 l-198 0 l0 -299 ZM408 164 l217 0 q124 0 183.5 46.5 q59.5 46.5 59.5 127.5 q0 75 -63 119.5 q-63 44.5 -189 44.5 l-208 0 l0 -338 Z" /><glyph glyph-name="" unicode="&#x433;" d="M178 0 l0 1126 l723 0 l0 -188 l-487 0 l0 -938 l-236 0 Z" /><glyph glyph-name="" unicode="&#x434;" d="M455 596 q-17 -146 -47 -245.5 q-30 -99.5 -68 -162.5 l475 0 l0 750 l-323 0 l-37 -342 ZM266 0 l0 -395 l-203 0 l-24 432 l0 151 l59 0 q31 17 57.5 57 q26.5 40 49 132.5 q22.5 92.5 43.5 267.5 l59 481 l744 0 l0 -938 l168 0 l0 -151 l-23 -432 l-203 0 l0 395 l-727 0 Z" /><glyph glyph-name="" unicode="&#x435;" d="M647 -27 q-152 0 -276.5 70 q-124.5 70 -198.5 202 q-74 132 -74 318 q0 182 74 315 q74 133 191.5 205 q117.5 72 248.5 72 q150 0 252.5 -67 q102.5 -67 155.5 -187 q53 -120 53 -278 q0 -36 -4 -68 q-4 -32 -8 -53 l-731 0 q14 -162 108 -253 q94 -91 240 -91 q75 0 141 22 q66 22 127 62 l82 -150 q-78 -52 -174 -85.5 q-96 -33.5 -207 -33.5 ZM328 666 l540 0 q0 144 -64.5 224.5 q-64.5 80.5 -187.5 80.5 q-106 0 -188.5 -79 q-82.5 -79 -99.5 -226 Z" /><glyph glyph-name="" unicode="&#x436;" d="M27 0 l354 586 l-82 200 q-35 90 -74 117 q-39 27 -82 27 q-12 0 -20 -2.5 q-8 -2.5 -19 -5.5 l-41 219 q32 14 76 14 q100 0 177 -49 q77 -49 139 -191 l98 -237 l154 0 l0 448 l211 0 l0 -448 l153 0 l100 237 q62 142 138 191 q76 49 178 49 q45 0 74 -14 l-39 -219 q-11 3 -19 5.5 q-8 2.5 -20 2.5 q-43 0 -82 -27 q-39 -27 -74 -117 l-82 -200 l357 -586 l-256 0 l-269 492 l-159 0 l0 -492 l-211 0 l0 492 l-158 0 l-270 -492 l-252 0 Z" /><glyph glyph-name="" unicode="&#x437;" d="M508 -27 q-117 0 -222 30 q-105 30 -208 110 l98 151 q74 -60 153.5 -83 q79.5 -23 157.5 -23 q108 0 183 47.5 q75 47.5 75 130.5 q0 166 -251 166 l-164 0 l0 164 l139 0 q117 0 176.5 41 q59.5 41 59.5 114 q0 74 -58.5 112 q-58.5 38 -154.5 38 q-91 0 -159.5 -23 q-68.5 -23 -135.5 -69 l-93 153 q83 59 181.5 91 q98.5 32 218.5 32 q113 0 211 -33.5 q98 -33.5 157.5 -102 q59.5 -68.5 59.5 -173.5 q0 -79 -47 -146.5 q-47 -67.5 -137 -99.5 l0 -10 q101 -26 166 -91.5 q65 -65.5 65 -185.5 q0 -106 -66.5 -182 q-66.5 -76 -174 -117 q-107.5 -41 -230.5 -41 Z" /><glyph glyph-name="" unicode="&#x438;" d="M178 0 l0 1126 l228 0 l0 -419 q0 -88 -7.5 -195.5 q-7.5 -107.5 -13.5 -214.5 l8 0 q29 51 71.5 120 q42.5 69 72.5 120 l383 589 l217 0 l0 -1126 l-228 0 l0 420 q0 87 7.5 194.5 q7.5 107.5 15.5 216.5 l-10 0 q-31 -52 -72 -121 q-41 -69 -72 -118 l-385 -592 l-215 0 Z" /><glyph glyph-name="" unicode="&#x439;" d="M178 0 l0 1126 l228 0 l0 -419 q0 -88 -7.5 -195.5 q-7.5 -107.5 -13.5 -214.5 l8 0 q29 51 71.5 120 q42.5 69 72.5 120 l383 589 l217 0 l0 -1126 l-228 0 l0 420 q0 87 7.5 194.5 q7.5 107.5 15.5 216.5 l-10 0 q-31 -52 -72 -121 q-41 -69 -72 -118 l-385 -592 l-215 0 ZM664 1319 q-130 0 -210.5 49.5 q-80.5 49.5 -118.5 131.5 q-38 82 -42 179 l188 0 q3 -96 42 -161.5 q39 -65.5 141 -65.5 q102 0 141.5 65.5 q39.5 65.5 42.5 161.5 l188 0 q-4 -97 -42.5 -179 q-38.5 -82 -119 -131.5 q-80.5 -49.5 -210.5 -49.5 Z" /><glyph glyph-name="" unicode="&#x43a;" d="M178 0 l0 1126 l236 0 l0 -448 l182 0 l109 237 q46 101 92.5 152.5 q46.5 51.5 100.5 69.5 q54 18 122 18 q45 0 74 -14 l-39 -219 q-11 3 -19 5.5 q-8 2.5 -20 2.5 q-45 0 -81.5 -25 q-36.5 -25 -76.5 -119 l-84 -194 l383 -592 l-258 0 l-297 492 l-188 0 l0 -492 l-236 0 Z" /><glyph glyph-name="" unicode="&#x43b;" d="M133 -27 q-34 0 -60 5 q-26 5 -53 14 l41 215 q13 -3 25.5 -5.5 q12.5 -2.5 28.5 -2.5 q55 0 92 51 q37 51 51 166 q22 176 42.5 354 q20.5 178 41.5 356 l735 0 l0 -1126 l-237 0 l0 938 l-314 0 q-17 -144 -34 -291 q-17 -147 -35 -295 q-53 -379 -324 -379 Z" /><glyph glyph-name="" unicode="&#x43c;" d="M178 0 l0 1126 l268 0 l197 -483 q25 -69 49 -135.5 q24 -66.5 45 -130.5 l11 0 q24 64 48.5 130.5 q24.5 66.5 47.5 135.5 l188 483 l271 0 l0 -1126 l-213 0 l0 438 q0 54 4 129 q4 75 10 153 q6 78 10 138 l-8 0 q-25 -69 -53.5 -142.5 q-28.5 -73.5 -53.5 -140.5 l-188 -471 l-143 0 l-191 471 q-24 67 -53.5 141.5 q-29.5 74.5 -52.5 141.5 l-11 0 q5 -60 11 -138 q6 -78 11 -153 q5 -75 5 -129 l0 -438 l-209 0 Z" /><glyph glyph-name="" unicode="&#x43d;" d="M178 0 l0 1126 l236 0 l0 -440 l483 0 l0 440 l236 0 l0 -1126 l-236 0 l0 479 l-483 0 l0 -479 l-236 0 Z" /><glyph glyph-name="" unicode="&#x43e;" d="M629 -27 q-140 0 -261 69.5 q-121 69.5 -195.5 201.5 q-74.5 132 -74.5 319 q0 188 74.5 320 q74.5 132 195.5 202 q121 70 261 70 q139 0 260 -70 q121 -70 195.5 -202 q74.5 -132 74.5 -320 q0 -187 -74.5 -319 q-74.5 -132 -195.5 -201.5 q-121 -69.5 -260 -69.5 ZM629 166 q133 0 211 108.5 q78 108.5 78 288.5 q0 178 -78 288 q-78 110 -211 110 q-132 0 -209.5 -110 q-77.5 -110 -77.5 -288 q0 -180 77.5 -288.5 q77.5 -108.5 209.5 -108.5 Z" /><glyph glyph-name="" unicode="&#x43f;" d="M178 0 l0 1126 l934 0 l0 -1126 l-235 0 l0 938 l-463 0 l0 -938 l-236 0 Z" /><glyph glyph-name="" unicode="&#x440;" d="M178 -457 l0 1583 l193 0 l18 -122 l6 0 q74 61 163.5 106 q89.5 45 184.5 45 q143 0 242 -71 q99 -71 151 -200 q52 -129 52 -302 q0 -194 -68.5 -330 q-68.5 -136 -179.5 -207.5 q-111 -71.5 -238 -71.5 q-75 0 -149.5 33 q-74.5 33 -146.5 94 l8 -192 l0 -365 l-236 0 ZM657 168 q123 0 205 105.5 q82 105.5 82 304.5 q0 176 -61.5 278 q-61.5 102 -202.5 102 q-126 0 -266 -137 l0 -551 q66 -56 128.5 -79 q62.5 -23 114.5 -23 Z" /><glyph glyph-name="" unicode="&#x441;" d="M637 -27 q-153 0 -275 69.5 q-122 69.5 -193 201.5 q-71 132 -71 319 q0 188 77.5 320 q77.5 132 204.5 202 q127 70 275 70 q108 0 188.5 -37.5 q80.5 -37.5 141.5 -91.5 l-117 -154 q-46 42 -95 65.5 q-49 23.5 -105 23.5 q-96 0 -169.5 -50 q-73.5 -50 -115 -139.5 q-41.5 -89.5 -41.5 -208.5 q0 -180 89 -288.5 q89 -108.5 228 -108.5 q71 0 133.5 29.5 q62.5 29.5 112.5 72.5 l99 -155 q-79 -69 -174.5 -104.5 q-95.5 -35.5 -192.5 -35.5 Z" /><glyph glyph-name="" unicode="&#x442;" d="M424 0 l0 938 l-365 0 l0 188 l963 0 l0 -188 l-363 0 l0 -938 l-235 0 Z" /><glyph glyph-name="" unicode="&#x443;" d="M229 -471 q-43 0 -77.5 6 q-34.5 6 -63.5 16 l45 185 q15 -5 38 -11 q23 -6 44 -6 q92 0 148.5 60.5 q56.5 60.5 87.5 150.5 l22 78 l-446 1118 l241 0 l209 -579 q25 -75 50.5 -157 q25.5 -82 52.5 -161 l10 0 q21 77 43.5 159 q22.5 82 44.5 159 l180 579 l229 0 l-413 -1194 q-44 -120 -102 -211 q-58 -91 -141 -141.5 q-83 -50.5 -202 -50.5 Z" /><glyph glyph-name="" unicode="&#x444;" d="M745 -457 l0 340 l7 168 q-46 -32 -101.5 -55 q-55.5 -23 -118.5 -23 q-195 0 -312.5 154.5 q-117.5 154.5 -117.5 435.5 q0 182 60.5 315 q60.5 133 158.5 205 q98 72 211 72 q67 0 119.5 -21.5 q52.5 -21.5 100.5 -54.5 l-7 166 l0 387 l232 0 l0 -387 l-8 -172 q53 35 115.5 58.5 q62.5 23.5 123.5 23.5 q131 0 223 -71 q92 -71 140.5 -200 q48.5 -129 48.5 -302 q0 -194 -60.5 -330 q-60.5 -136 -159 -207.5 q-98.5 -71.5 -214.5 -71.5 q-110 0 -217 76 l8 -166 l0 -340 l-232 0 ZM588 168 q44 0 84 16 q40 16 80 56 l0 653 q-42 37 -85.5 51 q-43.5 14 -86.5 14 q-99 0 -166.5 -105 q-67.5 -105 -67.5 -288 q0 -192 63.5 -294.5 q63.5 -102.5 178.5 -102.5 ZM1139 168 q104 0 171.5 105.5 q67.5 105.5 67.5 304.5 q0 176 -55.5 278 q-55.5 102 -175.5 102 q-43 0 -87 -14.5 q-44 -14.5 -91 -52.5 l0 -658 q46 -38 90 -51.5 q44 -13.5 80 -13.5 Z" /><glyph glyph-name="" unicode="&#x445;" d="M31 0 l364 588 l-338 538 l254 0 l135 -225 q25 -47 52 -95 q27 -48 55 -95 l8 0 q23 47 47 95 q24 48 47 95 l119 225 l246 0 l-338 -565 l362 -561 l-256 0 l-147 240 q-28 49 -57 100 q-29 51 -60 98 l-10 0 q-26 -47 -52 -97.5 q-26 -50.5 -52 -100.5 l-131 -240 l-248 0 Z" /><glyph glyph-name="" unicode="&#x446;" d="M1042 -395 l0 395 l-864 0 l0 1126 l236 0 l0 -938 l448 0 l0 938 l236 0 l0 -938 l170 0 l0 -151 l-25 -432 l-201 0 Z" /><glyph glyph-name="" unicode="&#x447;" d="M795 0 l0 428 q-56 -11 -98 -15.5 q-42 -4.5 -117 -4.5 q-209 0 -330 93.5 q-121 93.5 -121 311.5 l0 313 l236 0 l0 -313 q0 -114 62.5 -165.5 q62.5 -51.5 201.5 -51.5 q46 0 84.5 4.5 q38.5 4.5 81.5 13.5 l0 512 l235 0 l0 -1126 l-235 0 Z" /><glyph glyph-name="" unicode="&#x448;" d="M178 0 l0 1126 l232 0 l0 -938 l360 0 l0 938 l225 0 l0 -938 l359 0 l0 938 l235 0 l0 -1126 l-1411 0 Z" /><glyph glyph-name="" unicode="&#x449;" d="M178 0 l0 1126 l232 0 l0 -938 l360 0 l0 938 l225 0 l0 -938 l359 0 l0 938 l235 0 l0 -938 l168 0 l0 -151 l-22 -432 l-205 0 l0 395 l-1352 0 Z" /><glyph glyph-name="" unicode="&#x44a;" d="M440 0 l0 938 l-381 0 l0 188 l617 0 l0 -397 l166 0 q134 0 237.5 -36.5 q103.5 -36.5 162 -116 q58.5 -79.5 58.5 -207.5 q0 -131 -58.5 -212.5 q-58.5 -81.5 -162 -119 q-103.5 -37.5 -237.5 -37.5 l-402 0 ZM676 184 l147 0 q250 0 250 185 q0 182 -250 182 l-147 0 l0 -367 Z" /><glyph glyph-name="" unicode="&#x44b;" d="M178 0 l0 1126 l236 0 l0 -397 l133 0 q134 0 237.5 -36.5 q103.5 -36.5 162.5 -116 q59 -79.5 59 -207.5 q0 -131 -59 -212.5 q-59 -81.5 -162.5 -119 q-103.5 -37.5 -237.5 -37.5 l-369 0 ZM414 184 l114 0 q250 0 250 185 q0 182 -250 182 l-114 0 l0 -367 ZM1188 0 l0 1126 l235 0 l0 -1126 l-235 0 Z" /><glyph glyph-name="" unicode="&#x44c;" d="M178 0 l0 1126 l236 0 l0 -397 l184 0 q134 0 237.5 -36.5 q103.5 -36.5 162.5 -116 q59 -79.5 59 -207.5 q0 -131 -59 -212.5 q-59 -81.5 -162.5 -119 q-103.5 -37.5 -237.5 -37.5 l-420 0 ZM414 184 l166 0 q247 0 247 185 q0 182 -247 182 l-166 0 l0 -367 Z" /><glyph glyph-name="" unicode="&#x44d;" d="M424 -27 q-106 0 -202.5 35.5 q-96.5 35.5 -168.5 104.5 l92 141 q50 -42 115 -69 q65 -27 141 -27 q140 0 229 83.5 q89 83.5 103 260.5 l-465 0 l0 164 l461 0 q-21 156 -104 230.5 q-83 74.5 -207 74.5 q-77 0 -133.5 -25 q-56.5 -25 -104.5 -63 l-106 137 q58 57 148 96 q90 39 208 39 q145 0 265 -64.5 q120 -64.5 191.5 -196 q71.5 -131.5 71.5 -331.5 q0 -197 -69.5 -328 q-69.5 -131 -190 -196.5 q-120.5 -65.5 -274.5 -65.5 Z" /><glyph glyph-name="" unicode="&#x44e;" d="M1120 166 q126 0 196 108.5 q70 108.5 70 288.5 q0 178 -70 288 q-70 110 -196 110 q-123 0 -196.5 -110 q-73.5 -110 -73.5 -288 q0 -180 73.5 -288.5 q73.5 -108.5 196.5 -108.5 ZM1133 -27 q-133 0 -240.5 59.5 q-107.5 59.5 -176.5 171 q-69 111.5 -85 269.5 l-217 0 l0 -473 l-236 0 l0 1126 l236 0 l0 -446 l221 0 q20 149 89.5 255.5 q69.5 106.5 175 163 q105.5 56.5 233.5 56.5 q137 0 249.5 -70 q112.5 -70 179 -202 q66.5 -132 66.5 -320 q0 -187 -66.5 -319 q-66.5 -132 -179 -201.5 q-112.5 -69.5 -249.5 -69.5 Z" /><glyph glyph-name="" unicode="&#x44f;" d="M795 0 l0 422 l-183 0 q0 0 -1 0 q-1 0 -1 0 l-284 -422 l-265 0 l330 459 q-100 37 -167.5 115.5 q-67.5 78.5 -67.5 205.5 q0 129 59 205 q59 76 160.5 108.5 q101.5 32.5 228.5 32.5 l426 0 l0 -1126 l-235 0 ZM639 586 l156 0 l0 362 l-156 0 q-118 0 -184 -41.5 q-66 -41.5 -66 -132.5 q0 -89 66 -138.5 q66 -49.5 184 -49.5 Z" /><glyph glyph-name="" unicode="&#x451;" d="M647 -27 q-152 0 -276.5 70 q-124.5 70 -198.5 202 q-74 132 -74 318 q0 182 74 315 q74 133 191.5 205 q117.5 72 248.5 72 q150 0 252.5 -67 q102.5 -67 155.5 -187 q53 -120 53 -278 q0 -36 -4 -68 q-4 -32 -8 -53 l-731 0 q14 -162 108 -253 q94 -91 240 -91 q75 0 141 22 q66 22 127 62 l82 -150 q-78 -52 -174 -85.5 q-96 -33.5 -207 -33.5 ZM328 666 l540 0 q0 144 -64.5 224.5 q-64.5 80.5 -187.5 80.5 q-106 0 -188.5 -79 q-82.5 -79 -99.5 -226 ZM379 1339 q-55 0 -92 38 q-37 38 -37 91 q0 56 37 93.5 q37 37.5 92 37.5 q57 0 94 -37.5 q37 -37.5 37 -93.5 q0 -53 -37 -91 q-37 -38 -94 -38 ZM842 1339 q-57 0 -94 38 q-37 38 -37 91 q0 56 37 93.5 q37 37.5 94 37.5 q57 0 94 -37.5 q37 -37.5 37 -93.5 q0 -53 -37 -91 q-37 -38 -94 -38 Z" /><glyph glyph-name="" unicode="&#x1e3e;" d="M199 0 l0 1509 l272 0 l277 -764 q26 -75 50 -151 q24 -76 50 -152 l10 0 q26 76 49 152 q23 76 49 151 l273 764 l274 0 l0 -1509 l-221 0 l0 745 q0 68 5 150.5 q5 82.5 12.5 165.5 q7.5 83 13.5 151 l-8 0 l-121 -348 l-262 -719 l-148 0 l-264 719 l-119 348 l-8 0 q5 -68 12 -151 q7 -83 12 -165.5 q5 -82.5 5 -150.5 l0 -745 l-213 0 ZM815 1593 l-106 119 l348 305 l129 -157 l-371 -267 Z" /><glyph glyph-name="" unicode="&#x1e3f;" d="M178 0 l0 1126 l193 0 l18 -157 l6 0 q72 77 158 131.5 q86 54.5 190 54.5 q126 0 200.5 -55 q74.5 -55 111.5 -152 q83 89 171.5 148 q88.5 59 194.5 59 q177 0 261.5 -115.5 q84.5 -115.5 84.5 -330.5 l0 -709 l-235 0 l0 680 q0 146 -46.5 209 q-46.5 63 -142.5 63 q-112 0 -253 -153 l0 -799 l-236 0 l0 680 q0 146 -46 209 q-46 63 -142 63 q-114 0 -252 -153 l0 -799 l-236 0 ZM977 1319 l-119 117 l334 395 l164 -156 l-379 -356 Z" /><glyph glyph-name="" unicode="&#x1ea0;" d="M487 819 l-61 -203 l412 0 l-60 203 q-38 123 -72.5 248.5 q-34.5 125.5 -68.5 253.5 l-10 0 q-33 -129 -68 -254 q-35 -125 -72 -248 ZM0 0 l500 1509 l274 0 l500 -1509 l-252 0 l-127 430 l-524 0 l-129 -430 l-242 0 ZM635 -489 q-66 0 -107 38.5 q-41 38.5 -41 104.5 q0 61 41 99 q41 38 107 38 q64 0 104.5 -38 q40.5 -38 40.5 -99 q0 -66 -40.5 -104.5 q-40.5 -38.5 -104.5 -38.5 Z" /><glyph glyph-name="" unicode="&#x1ea1;" d="M444 -27 q-146 0 -238.5 88.5 q-92.5 88.5 -92.5 237.5 q0 181 161 280 q161 99 512 138 q-1 65 -20 121 q-19 56 -65.5 90.5 q-46.5 34.5 -129.5 34.5 q-89 0 -171 -34.5 q-82 -34.5 -154 -80.5 l-88 160 q87 55 203 101 q116 46 251 46 q211 0 310.5 -126.5 q99.5 -126.5 99.5 -350.5 l0 -678 l-193 0 l-18 129 l-8 0 q-77 -66 -167 -111 q-90 -45 -192 -45 ZM516 160 q74 0 137.5 34 q63.5 34 132.5 97 l0 276 q-250 -29 -348 -92.5 q-98 -63.5 -98 -159.5 q0 -83 50.5 -119 q50.5 -36 125.5 -36 ZM578 -489 q-63 0 -104.5 38.5 q-41.5 38.5 -41.5 104.5 q0 61 41.5 99 q41.5 38 104.5 38 q64 0 105.5 -38 q41.5 -38 41.5 -99 q0 -66 -41.5 -104.5 q-41.5 -38.5 -105.5 -38.5 Z" /><glyph glyph-name="" unicode="&#x1ea2;" d="M487 819 l-61 -203 l412 0 l-60 203 q-38 123 -72.5 248.5 q-34.5 125.5 -68.5 253.5 l-10 0 q-33 -129 -68 -254 q-35 -125 -72 -248 ZM0 0 l500 1509 l274 0 l500 -1509 l-252 0 l-127 430 l-524 0 l-129 -430 l-242 0 ZM553 1602 l-23 104 q53 12 88 32 q35 20 35 60 q0 83 -190 92 l24 129 q342 -12 342 -194 q0 -71 -38.5 -116 q-38.5 -45 -101.5 -70.5 q-63 -25.5 -136 -36.5 Z" /><glyph glyph-name="" unicode="&#x1ea3;" d="M444 -27 q-146 0 -238.5 88.5 q-92.5 88.5 -92.5 237.5 q0 181 161 280 q161 99 512 138 q-1 65 -20 121 q-19 56 -65.5 90.5 q-46.5 34.5 -129.5 34.5 q-89 0 -171 -34.5 q-82 -34.5 -154 -80.5 l-88 160 q87 55 203 101 q116 46 251 46 q211 0 310.5 -126.5 q99.5 -126.5 99.5 -350.5 l0 -678 l-193 0 l-18 129 l-8 0 q-77 -66 -167 -111 q-90 -45 -192 -45 ZM516 160 q74 0 137.5 34 q63.5 34 132.5 97 l0 276 q-250 -29 -348 -92.5 q-98 -63.5 -98 -159.5 q0 -83 50.5 -119 q50.5 -36 125.5 -36 ZM541 1315 l-23 104 q52 13 87.5 35.5 q35.5 22.5 35.5 65.5 q0 95 -190 104 l14 152 q178 -7 266 -68.5 q88 -61.5 88 -169.5 q0 -71 -39 -116.5 q-39 -45.5 -103 -71 q-64 -25.5 -136 -35.5 Z" /><glyph glyph-name="" unicode="&#x1ea4;" d="M487 819 l-61 -203 l412 0 l-60 203 q-38 123 -72.5 248.5 q-34.5 125.5 -68.5 253.5 l-10 0 q-33 -129 -68 -254 q-35 -125 -72 -248 ZM936 1755 l-80 86 l225 209 l93 -104 l-238 -191 ZM0 0 l500 1509 l274 0 l500 -1509 l-252 0 l-127 430 l-524 0 l-129 -430 l-242 0 ZM414 1599 l-95 72 l213 213 l205 0 l211 -213 l-94 -72 l-215 162 l-10 0 l-215 -162 Z" /><glyph glyph-name="" unicode="&#x1ea5;" d="M444 -27 q-146 0 -238.5 88.5 q-92.5 88.5 -92.5 237.5 q0 181 161 280 q161 99 512 138 q-1 65 -20 121 q-19 56 -65.5 90.5 q-46.5 34.5 -129.5 34.5 q-89 0 -171 -34.5 q-82 -34.5 -154 -80.5 l-88 160 q87 55 203 101 q116 46 251 46 q211 0 310.5 -126.5 q99.5 -126.5 99.5 -350.5 l0 -678 l-193 0 l-18 129 l-8 0 q-77 -66 -167 -111 q-90 -45 -192 -45 ZM516 160 q74 0 137.5 34 q63.5 34 132.5 97 l0 276 q-250 -29 -348 -92.5 q-98 -63.5 -98 -159.5 q0 -83 50.5 -119 q50.5 -36 125.5 -36 ZM379 1311 l-78 90 l227 211 l189 0 l227 -211 l-80 -90 l-237 159 l-9 0 l-239 -159 ZM961 1468 l-97 76 l197 283 l133 -92 l-233 -267 Z" /><glyph glyph-name="" unicode="&#x1ea6;" d="M487 819 l-61 -203 l412 0 l-60 203 q-38 123 -72.5 248.5 q-34.5 125.5 -68.5 253.5 l-10 0 q-33 -129 -68 -254 q-35 -125 -72 -248 ZM334 1755 l-215 195 l90 100 l203 -213 l-78 -82 ZM0 0 l500 1509 l274 0 l500 -1509 l-252 0 l-127 430 l-524 0 l-129 -430 l-242 0 ZM414 1599 l-95 72 l213 213 l205 0 l211 -213 l-94 -72 l-215 162 l-10 0 l-215 -162 Z" /><glyph glyph-name="" unicode="&#x1ea7;" d="M444 -27 q-146 0 -238.5 88.5 q-92.5 88.5 -92.5 237.5 q0 181 161 280 q161 99 512 138 q-1 65 -20 121 q-19 56 -65.5 90.5 q-46.5 34.5 -129.5 34.5 q-89 0 -171 -34.5 q-82 -34.5 -154 -80.5 l-88 160 q87 55 203 101 q116 46 251 46 q211 0 310.5 -126.5 q99.5 -126.5 99.5 -350.5 l0 -678 l-193 0 l-18 129 l-8 0 q-77 -66 -167 -111 q-90 -45 -192 -45 ZM516 160 q74 0 137.5 34 q63.5 34 132.5 97 l0 276 q-250 -29 -348 -92.5 q-98 -63.5 -98 -159.5 q0 -83 50.5 -119 q50.5 -36 125.5 -36 ZM379 1311 l-78 90 l227 211 l189 0 l227 -211 l-80 -90 l-237 159 l-9 0 l-239 -159 ZM285 1468 l-256 263 l131 96 l221 -279 l-96 -80 Z" /><glyph glyph-name="" unicode="&#x1ea8;" d="M487 819 l-61 -203 l412 0 l-60 203 q-38 123 -72.5 248.5 q-34.5 125.5 -68.5 253.5 l-10 0 q-33 -129 -68 -254 q-35 -125 -72 -248 ZM915 1735 l-24 88 q38 9 65 25.5 q27 16.5 27 52.5 q0 41 -36 60 q-36 19 -122 24 l23 110 q152 -6 224.5 -50 q72.5 -44 72.5 -124 q0 -92 -69.5 -133 q-69.5 -41 -160.5 -53 ZM0 0 l500 1509 l274 0 l500 -1509 l-252 0 l-127 430 l-524 0 l-129 -430 l-242 0 ZM414 1599 l-95 72 l213 213 l205 0 l211 -213 l-94 -72 l-215 162 l-10 0 l-215 -162 Z" /><glyph glyph-name="" unicode="&#x1ea9;" d="M444 -27 q-146 0 -238.5 88.5 q-92.5 88.5 -92.5 237.5 q0 181 161 280 q161 99 512 138 q-1 65 -20 121 q-19 56 -65.5 90.5 q-46.5 34.5 -129.5 34.5 q-89 0 -171 -34.5 q-82 -34.5 -154 -80.5 l-88 160 q87 55 203 101 q116 46 251 46 q211 0 310.5 -126.5 q99.5 -126.5 99.5 -350.5 l0 -678 l-193 0 l-18 129 l-8 0 q-77 -66 -167 -111 q-90 -45 -192 -45 ZM516 160 q74 0 137.5 34 q63.5 34 132.5 97 l0 276 q-250 -29 -348 -92.5 q-98 -63.5 -98 -159.5 q0 -83 50.5 -119 q50.5 -36 125.5 -36 ZM379 1311 l-78 90 l227 211 l189 0 l227 -211 l-80 -90 l-237 159 l-9 0 l-239 -159 ZM905 1470 l-22 91 q40 10 65 29 q25 19 25 52 q0 42 -35.5 63 q-35.5 21 -120.5 28 l21 108 q299 -9 299 -172 q0 -66 -33.5 -105.5 q-33.5 -39.5 -86 -60.5 q-52.5 -21 -112.5 -33 Z" /><glyph glyph-name="" unicode="&#x1eaa;" d="M487 819 l-61 -203 l412 0 l-60 203 q-38 123 -72.5 248.5 q-34.5 125.5 -68.5 253.5 l-10 0 q-33 -129 -68 -254 q-35 -125 -72 -248 ZM0 0 l500 1509 l274 0 l500 -1509 l-252 0 l-127 430 l-524 0 l-129 -430 l-242 0 ZM414 1599 l-95 72 l213 203 l205 0 l211 -203 l-94 -72 l-215 152 l-10 0 l-215 -152 ZM780 1933 q-69 0 -116 27.5 q-47 27.5 -84.5 54.5 q-37.5 27 -79.5 27 q-39 0 -58 -25.5 q-19 -25.5 -26 -74.5 l-121 14 q5 103 51 164 q46 61 141 61 q70 0 117 -27.5 q47 -27.5 84.5 -55 q37.5 -27.5 79.5 -27.5 q38 0 57 25.5 q19 25.5 27 74.5 l121 -14 q-5 -102 -51 -163 q-46 -61 -142 -61 Z" /><glyph glyph-name="" unicode="&#x1eab;" d="M444 -27 q-146 0 -238.5 88.5 q-92.5 88.5 -92.5 237.5 q0 181 161 280 q161 99 512 138 q-1 65 -20 121 q-19 56 -65.5 90.5 q-46.5 34.5 -129.5 34.5 q-89 0 -171 -34.5 q-82 -34.5 -154 -80.5 l-88 160 q87 55 203 101 q116 46 251 46 q211 0 310.5 -126.5 q99.5 -126.5 99.5 -350.5 l0 -678 l-193 0 l-18 129 l-8 0 q-77 -66 -167 -111 q-90 -45 -192 -45 ZM516 160 q74 0 137.5 34 q63.5 34 132.5 97 l0 276 q-250 -29 -348 -92.5 q-98 -63.5 -98 -159.5 q0 -83 50.5 -119 q50.5 -36 125.5 -36 ZM379 1311 l-78 90 l227 201 l189 0 l227 -201 l-80 -90 l-237 149 l-9 0 l-239 -149 ZM766 1640 q-66 0 -112.5 24.5 q-46.5 24.5 -85 48.5 q-38.5 24 -79.5 24 q-32 0 -48 -22.5 q-16 -22.5 -25 -72.5 l-117 13 q9 103 52 161 q43 58 126 58 q67 0 113.5 -24 q46.5 -24 85 -48 q38.5 -24 80.5 -24 q56 0 71 94 l119 -10 q-11 -103 -54 -162.5 q-43 -59.5 -126 -59.5 Z" /><glyph glyph-name="" unicode="&#x1eac;" d="M487 819 l-61 -203 l412 0 l-60 203 q-38 123 -72.5 248.5 q-34.5 125.5 -68.5 253.5 l-10 0 q-33 -129 -68 -254 q-35 -125 -72 -248 ZM0 0 l500 1509 l274 0 l500 -1509 l-252 0 l-127 430 l-524 0 l-129 -430 l-242 0 ZM381 1599 l-102 72 l229 256 l252 0 l229 -256 l-102 -72 l-248 209 l-10 0 l-248 -209 ZM635 -489 q-66 0 -107 38.5 q-41 38.5 -41 104.5 q0 61 41 99 q41 38 107 38 q64 0 104.5 -38 q40.5 -38 40.5 -99 q0 -66 -40.5 -104.5 q-40.5 -38.5 -104.5 -38.5 Z" /><glyph glyph-name="" unicode="&#x1ead;" d="M444 -27 q-146 0 -238.5 88.5 q-92.5 88.5 -92.5 237.5 q0 181 161 280 q161 99 512 138 q-1 65 -20 121 q-19 56 -65.5 90.5 q-46.5 34.5 -129.5 34.5 q-89 0 -171 -34.5 q-82 -34.5 -154 -80.5 l-88 160 q87 55 203 101 q116 46 251 46 q211 0 310.5 -126.5 q99.5 -126.5 99.5 -350.5 l0 -678 l-193 0 l-18 129 l-8 0 q-77 -66 -167 -111 q-90 -45 -192 -45 ZM516 160 q74 0 137.5 34 q63.5 34 132.5 97 l0 276 q-250 -29 -348 -92.5 q-98 -63.5 -98 -159.5 q0 -83 50.5 -119 q50.5 -36 125.5 -36 ZM246 1393 l258 315 l237 0 l258 -315 l-96 -90 l-276 245 l-9 0 l-276 -245 l-96 90 ZM578 -489 q-63 0 -104.5 38.5 q-41.5 38.5 -41.5 104.5 q0 61 41.5 99 q41.5 38 104.5 38 q64 0 105.5 -38 q41.5 -38 41.5 -99 q0 -66 -41.5 -104.5 q-41.5 -38.5 -105.5 -38.5 Z" /><glyph glyph-name="" unicode="&#x1eae;" d="M487 819 l-61 -203 l412 0 l-60 203 q-38 123 -72.5 248.5 q-34.5 125.5 -68.5 253.5 l-10 0 q-33 -129 -68 -254 q-35 -125 -72 -248 ZM0 0 l500 1509 l274 0 l500 -1509 l-252 0 l-127 430 l-524 0 l-129 -430 l-242 0 ZM635 1618 q-164 0 -249 86 q-85 86 -99 217 l123 25 q16 -85 72 -140 q56 -55 153 -55 q95 0 150.5 55 q55.5 55 72.5 140 l125 -25 q-14 -131 -99.5 -217 q-85.5 -86 -248.5 -86 ZM651 1851 l-116 80 l219 283 l149 -98 l-252 -265 Z" /><glyph glyph-name="" unicode="&#x1eaf;" d="M444 -27 q-146 0 -238.5 88.5 q-92.5 88.5 -92.5 237.5 q0 181 161 280 q161 99 512 138 q-1 65 -20 121 q-19 56 -65.5 90.5 q-46.5 34.5 -129.5 34.5 q-89 0 -171 -34.5 q-82 -34.5 -154 -80.5 l-88 160 q87 55 203 101 q116 46 251 46 q211 0 310.5 -126.5 q99.5 -126.5 99.5 -350.5 l0 -678 l-193 0 l-18 129 l-8 0 q-77 -66 -167 -111 q-90 -45 -192 -45 ZM516 160 q74 0 137.5 34 q63.5 34 132.5 97 l0 276 q-250 -29 -348 -92.5 q-98 -63.5 -98 -159.5 q0 -83 50.5 -119 q50.5 -36 125.5 -36 ZM623 1315 q-126 0 -205.5 50.5 q-79.5 50.5 -119 131.5 q-39.5 81 -44.5 172 l129 23 q14 -91 71.5 -162.5 q57.5 -71.5 168.5 -71.5 q110 0 167.5 71.5 q57.5 71.5 69.5 162.5 l131 -23 q-5 -91 -44 -172 q-39 -81 -118.5 -131.5 q-79.5 -50.5 -205.5 -50.5 ZM621 1579 l-107 76 l205 299 l143 -109 l-241 -266 Z" /><glyph glyph-name="" unicode="&#x1eb0;" d="M487 819 l-61 -203 l412 0 l-60 203 q-38 123 -72.5 248.5 q-34.5 125.5 -68.5 253.5 l-10 0 q-33 -129 -68 -254 q-35 -125 -72 -248 ZM0 0 l500 1509 l274 0 l500 -1509 l-252 0 l-127 430 l-524 0 l-129 -430 l-242 0 ZM635 1618 q-164 0 -249 86 q-85 86 -99 217 l123 25 q16 -85 72 -140 q56 -55 153 -55 q95 0 150.5 55 q55.5 55 72.5 140 l125 -25 q-14 -131 -99.5 -217 q-85.5 -86 -248.5 -86 ZM616 1851 l-249 265 l147 98 l219 -283 l-117 -80 Z" /><glyph glyph-name="" unicode="&#x1eb1;" d="M444 -27 q-146 0 -238.5 88.5 q-92.5 88.5 -92.5 237.5 q0 181 161 280 q161 99 512 138 q-1 65 -20 121 q-19 56 -65.5 90.5 q-46.5 34.5 -129.5 34.5 q-89 0 -171 -34.5 q-82 -34.5 -154 -80.5 l-88 160 q87 55 203 101 q116 46 251 46 q211 0 310.5 -126.5 q99.5 -126.5 99.5 -350.5 l0 -678 l-193 0 l-18 129 l-8 0 q-77 -66 -167 -111 q-90 -45 -192 -45 ZM516 160 q74 0 137.5 34 q63.5 34 132.5 97 l0 276 q-250 -29 -348 -92.5 q-98 -63.5 -98 -159.5 q0 -83 50.5 -119 q50.5 -36 125.5 -36 ZM623 1315 q-126 0 -205.5 50.5 q-79.5 50.5 -119 131.5 q-39.5 81 -44.5 172 l129 23 q14 -91 71.5 -162.5 q57.5 -71.5 168.5 -71.5 q110 0 167.5 71.5 q57.5 71.5 69.5 162.5 l131 -23 q-5 -91 -44 -172 q-39 -81 -118.5 -131.5 q-79.5 -50.5 -205.5 -50.5 ZM625 1579 l-242 266 l143 109 l205 -299 l-106 -76 Z" /><glyph glyph-name="" unicode="&#x1eb2;" d="M487 819 l-61 -203 l412 0 l-60 203 q-38 123 -72.5 248.5 q-34.5 125.5 -68.5 253.5 l-10 0 q-33 -129 -68 -254 q-35 -125 -72 -248 ZM0 0 l500 1509 l274 0 l500 -1509 l-252 0 l-127 430 l-524 0 l-129 -430 l-242 0 ZM635 1618 q-164 0 -249 86 q-85 86 -99 217 l123 25 q16 -85 72 -140 q56 -55 153 -55 q95 0 150.5 55 q55.5 55 72.5 140 l125 -25 q-14 -131 -99.5 -217 q-85.5 -86 -248.5 -86 ZM575 1847 l-26 88 q40 10 68 27 q28 17 28 51 q0 42 -37.5 62 q-37.5 20 -122.5 24 l23 109 q152 -5 224.5 -49.5 q72.5 -44.5 72.5 -122.5 q0 -94 -69.5 -135 q-69.5 -41 -160.5 -54 Z" /><glyph glyph-name="" unicode="&#x1eb3;" d="M444 -27 q-146 0 -238.5 88.5 q-92.5 88.5 -92.5 237.5 q0 181 161 280 q161 99 512 138 q-1 65 -20 121 q-19 56 -65.5 90.5 q-46.5 34.5 -129.5 34.5 q-89 0 -171 -34.5 q-82 -34.5 -154 -80.5 l-88 160 q87 55 203 101 q116 46 251 46 q211 0 310.5 -126.5 q99.5 -126.5 99.5 -350.5 l0 -678 l-193 0 l-18 129 l-8 0 q-77 -66 -167 -111 q-90 -45 -192 -45 ZM516 160 q74 0 137.5 34 q63.5 34 132.5 97 l0 276 q-250 -29 -348 -92.5 q-98 -63.5 -98 -159.5 q0 -83 50.5 -119 q50.5 -36 125.5 -36 ZM623 1315 q-126 0 -205.5 50.5 q-79.5 50.5 -119 131.5 q-39.5 81 -44.5 172 l129 23 q14 -91 71.5 -162.5 q57.5 -71.5 168.5 -71.5 q110 0 167.5 71.5 q57.5 71.5 69.5 162.5 l131 -23 q-5 -91 -44 -172 q-39 -81 -118.5 -131.5 q-79.5 -50.5 -205.5 -50.5 ZM555 1581 l-20 94 q44 9 72 28.5 q28 19.5 28 53.5 q0 42 -38 63 q-38 21 -132 27 l20 138 q312 -13 312 -201 q0 -67 -34.5 -108 q-34.5 -41 -90 -63 q-55.5 -22 -117.5 -32 Z" /><glyph glyph-name="" unicode="&#x1eb4;" d="M487 819 l-61 -203 l412 0 l-60 203 q-38 123 -72.5 248.5 q-34.5 125.5 -68.5 253.5 l-10 0 q-33 -129 -68 -254 q-35 -125 -72 -248 ZM0 0 l500 1509 l274 0 l500 -1509 l-252 0 l-127 430 l-524 0 l-129 -430 l-242 0 ZM635 1626 q-164 0 -246.5 73.5 q-82.5 73.5 -93.5 174.5 l123 22 q14 -58 64 -102.5 q50 -44.5 153 -44.5 q101 0 151 44.5 q50 44.5 64 102.5 l123 -22 q-11 -101 -93 -174.5 q-82 -73.5 -245 -73.5 ZM780 1944 q-69 0 -116 27.5 q-47 27.5 -84.5 55 q-37.5 27.5 -79.5 27.5 q-39 0 -58 -25.5 q-19 -25.5 -26 -74.5 l-121 14 q5 102 51 162.5 q46 60.5 141 60.5 q70 0 117 -27 q47 -27 84.5 -54 q37.5 -27 79.5 -27 q38 0 57 25.5 q19 25.5 27 74.5 l121 -14 q-5 -103 -51 -164 q-46 -61 -142 -61 Z" /><glyph glyph-name="" unicode="&#x1eb5;" d="M444 -27 q-146 0 -238.5 88.5 q-92.5 88.5 -92.5 237.5 q0 181 161 280 q161 99 512 138 q-1 65 -20 121 q-19 56 -65.5 90.5 q-46.5 34.5 -129.5 34.5 q-89 0 -171 -34.5 q-82 -34.5 -154 -80.5 l-88 160 q87 55 203 101 q116 46 251 46 q211 0 310.5 -126.5 q99.5 -126.5 99.5 -350.5 l0 -678 l-193 0 l-18 129 l-8 0 q-77 -66 -167 -111 q-90 -45 -192 -45 ZM516 160 q74 0 137.5 34 q63.5 34 132.5 97 l0 276 q-250 -29 -348 -92.5 q-98 -63.5 -98 -159.5 q0 -83 50.5 -119 q50.5 -36 125.5 -36 ZM623 1315 q-116 0 -188.5 37 q-72.5 37 -108.5 94.5 q-36 57.5 -43 120.5 l127 20 q10 -52 60 -97.5 q50 -45.5 153 -45.5 q103 0 153 45.5 q50 45.5 60 97.5 l127 -20 q-8 -63 -44.5 -120.5 q-36.5 -57.5 -109 -94.5 q-72.5 -37 -186.5 -37 ZM766 1638 q-66 0 -112.5 24.5 q-46.5 24.5 -85 48.5 q-38.5 24 -79.5 24 q-32 0 -48 -23.5 q-16 -23.5 -25 -71.5 l-127 13 q9 101 55 160 q46 59 133 59 q67 0 113.5 -24 q46.5 -24 85 -48 q38.5 -24 80.5 -24 q56 0 71 94 l129 -12 q-9 -102 -55.5 -161 q-46.5 -59 -134.5 -59 Z" /><glyph glyph-name="" unicode="&#x1eb6;" d="M487 819 l-61 -203 l412 0 l-60 203 q-38 123 -72.5 248.5 q-34.5 125.5 -68.5 253.5 l-10 0 q-33 -129 -68 -254 q-35 -125 -72 -248 ZM0 0 l500 1509 l274 0 l500 -1509 l-252 0 l-127 430 l-524 0 l-129 -430 l-242 0 ZM635 1618 q-164 0 -249 86 q-85 86 -99 217 l135 25 q14 -79 67.5 -131 q53.5 -52 145.5 -52 q92 0 144.5 52 q52.5 52 66.5 131 l137 -25 q-14 -131 -99.5 -217 q-85.5 -86 -248.5 -86 ZM635 -489 q-66 0 -107 38.5 q-41 38.5 -41 104.5 q0 61 41 99 q41 38 107 38 q64 0 104.5 -38 q40.5 -38 40.5 -99 q0 -66 -40.5 -104.5 q-40.5 -38.5 -104.5 -38.5 Z" /><glyph glyph-name="" unicode="&#x1eb7;" d="M444 -27 q-146 0 -238.5 88.5 q-92.5 88.5 -92.5 237.5 q0 181 161 280 q161 99 512 138 q-1 65 -20 121 q-19 56 -65.5 90.5 q-46.5 34.5 -129.5 34.5 q-89 0 -171 -34.5 q-82 -34.5 -154 -80.5 l-88 160 q87 55 203 101 q116 46 251 46 q211 0 310.5 -126.5 q99.5 -126.5 99.5 -350.5 l0 -678 l-193 0 l-18 129 l-8 0 q-77 -66 -167 -111 q-90 -45 -192 -45 ZM516 160 q74 0 137.5 34 q63.5 34 132.5 97 l0 276 q-250 -29 -348 -92.5 q-98 -63.5 -98 -159.5 q0 -83 50.5 -119 q50.5 -36 125.5 -36 ZM623 1315 q-126 0 -205.5 50.5 q-79.5 50.5 -119 131.5 q-39.5 81 -44.5 172 l141 23 q13 -85 67.5 -153.5 q54.5 -68.5 160.5 -68.5 q106 0 160.5 68.5 q54.5 68.5 66.5 153.5 l141 -23 q-5 -91 -44 -172 q-39 -81 -118.5 -131.5 q-79.5 -50.5 -205.5 -50.5 ZM578 -489 q-63 0 -104.5 38.5 q-41.5 38.5 -41.5 104.5 q0 61 41.5 99 q41.5 38 104.5 38 q64 0 105.5 -38 q41.5 -38 41.5 -99 q0 -66 -41.5 -104.5 q-41.5 -38.5 -105.5 -38.5 Z" /><glyph glyph-name="" unicode="&#x1eb8;" d="M199 0 l0 1509 l891 0 l0 -200 l-654 0 l0 -420 l553 0 l0 -201 l-553 0 l0 -487 l676 0 l0 -201 l-913 0 ZM684 -489 q-64 0 -104.5 38.5 q-40.5 38.5 -40.5 104.5 q0 61 40.5 99 q40.5 38 104.5 38 q65 0 105 -38 q40 -38 40 -99 q0 -66 -40 -104.5 q-40 -38.5 -105 -38.5 Z" /><glyph glyph-name="" unicode="&#x1eb9;" d="M647 -27 q-152 0 -276.5 70 q-124.5 70 -198.5 202 q-74 132 -74 318 q0 182 74 315 q74 133 191.5 205 q117.5 72 248.5 72 q150 0 252.5 -67 q102.5 -67 155.5 -187 q53 -120 53 -278 q0 -36 -4 -68 q-4 -32 -8 -53 l-731 0 q14 -162 108 -253 q94 -91 240 -91 q75 0 141 22 q66 22 127 62 l82 -150 q-78 -52 -174 -85.5 q-96 -33.5 -207 -33.5 ZM328 666 l540 0 q0 144 -64.5 224.5 q-64.5 80.5 -187.5 80.5 q-106 0 -188.5 -79 q-82.5 -79 -99.5 -226 ZM610 -489 q-64 0 -104.5 38.5 q-40.5 38.5 -40.5 104.5 q0 61 40.5 99 q40.5 38 104.5 38 q65 0 106.5 -38 q41.5 -38 41.5 -99 q0 -66 -41.5 -104.5 q-41.5 -38.5 -106.5 -38.5 Z" /><glyph glyph-name="" unicode="&#x1eba;" d="M199 0 l0 1509 l891 0 l0 -200 l-654 0 l0 -420 l553 0 l0 -201 l-553 0 l0 -487 l676 0 l0 -201 l-913 0 ZM588 1602 l-23 104 q51 12 86 32 q35 20 35 60 q0 83 -188 92 l24 129 q340 -12 340 -194 q0 -71 -38 -116 q-38 -45 -101 -70.5 q-63 -25.5 -135 -36.5 Z" /><glyph glyph-name="" unicode="&#x1ebb;" d="M647 -27 q-152 0 -276.5 70 q-124.5 70 -198.5 202 q-74 132 -74 318 q0 182 74 315 q74 133 191.5 205 q117.5 72 248.5 72 q150 0 252.5 -67 q102.5 -67 155.5 -187 q53 -120 53 -278 q0 -36 -4 -68 q-4 -32 -8 -53 l-731 0 q14 -162 108 -253 q94 -91 240 -91 q75 0 141 22 q66 22 127 62 l82 -150 q-78 -52 -174 -85.5 q-96 -33.5 -207 -33.5 ZM328 666 l540 0 q0 144 -64.5 224.5 q-64.5 80.5 -187.5 80.5 q-106 0 -188.5 -79 q-82.5 -79 -99.5 -226 ZM530 1315 l-22 104 q51 13 86 35.5 q35 22.5 35 65.5 q0 95 -189 104 l13 152 q178 -7 266 -68.5 q88 -61.5 88 -169.5 q0 -71 -39 -116.5 q-39 -45.5 -102 -71 q-63 -25.5 -136 -35.5 Z" /><glyph glyph-name="" unicode="&#x1ebc;" d="M199 0 l0 1509 l891 0 l0 -200 l-654 0 l0 -420 l553 0 l0 -201 l-553 0 l0 -487 l676 0 l0 -201 l-913 0 ZM838 1622 q-64 0 -110.5 23 q-46.5 23 -83 53.5 q-36.5 30.5 -70 54 q-33.5 23.5 -70.5 23.5 q-40 0 -67.5 -35 q-27.5 -35 -35.5 -107 l-155 13 q7 144 75.5 220.5 q68.5 76.5 176.5 76.5 q63 0 110 -23 q47 -23 83.5 -53 q36.5 -30 70 -53 q33.5 -23 69.5 -23 q87 0 105 139 l154 -12 q-7 -144 -75 -220.5 q-68 -76.5 -177 -76.5 Z" /><glyph glyph-name="" unicode="&#x1ebd;" d="M647 -27 q-152 0 -276.5 70 q-124.5 70 -198.5 202 q-74 132 -74 318 q0 182 74 315 q74 133 191.5 205 q117.5 72 248.5 72 q150 0 252.5 -67 q102.5 -67 155.5 -187 q53 -120 53 -278 q0 -36 -4 -68 q-4 -32 -8 -53 l-731 0 q14 -162 108 -253 q94 -91 240 -91 q75 0 141 22 q66 22 127 62 l82 -150 q-78 -52 -174 -85.5 q-96 -33.5 -207 -33.5 ZM328 666 l540 0 q0 144 -64.5 224.5 q-64.5 80.5 -187.5 80.5 q-106 0 -188.5 -79 q-82.5 -79 -99.5 -226 ZM772 1327 q-59 0 -103.5 27 q-44.5 27 -80 62 q-35.5 35 -68 62 q-32.5 27 -67.5 27 q-48 0 -71 -43.5 q-23 -43.5 -28 -122.5 l-153 11 q4 147 63.5 235 q59.5 88 184.5 88 q59 0 103 -27 q44 -27 80 -62 q36 -35 69 -62 q33 -27 69 -27 q46 0 69 44.5 q23 44.5 29 119.5 l154 -8 q-5 -146 -65 -235 q-60 -89 -185 -89 Z" /><glyph glyph-name="" unicode="&#x1ebe;" d="M199 0 l0 1509 l891 0 l0 -200 l-654 0 l0 -420 l553 0 l0 -201 l-553 0 l0 -487 l676 0 l0 -201 l-913 0 ZM449 1599 l-95 72 l211 213 l205 0 l213 -213 l-96 -72 l-215 162 l-8 0 l-215 -162 ZM969 1755 l-78 86 l225 209 l90 -104 l-237 -191 Z" /><glyph glyph-name="" unicode="&#x1ebf;" d="M647 -27 q-152 0 -276.5 70 q-124.5 70 -198.5 202 q-74 132 -74 318 q0 182 74 315 q74 133 191.5 205 q117.5 72 248.5 72 q150 0 252.5 -67 q102.5 -67 155.5 -187 q53 -120 53 -278 q0 -36 -4 -68 q-4 -32 -8 -53 l-731 0 q14 -162 108 -253 q94 -91 240 -91 q75 0 141 22 q66 22 127 62 l82 -150 q-78 -52 -174 -85.5 q-96 -33.5 -207 -33.5 ZM328 666 l540 0 q0 144 -64.5 224.5 q-64.5 80.5 -187.5 80.5 q-106 0 -188.5 -79 q-82.5 -79 -99.5 -226 ZM369 1311 l-78 90 l225 211 l191 0 l225 -211 l-80 -90 l-238 159 l-8 0 l-237 -159 ZM948 1468 l-94 76 l195 283 l133 -92 l-234 -267 Z" /><glyph glyph-name="" unicode="&#x1ec0;" d="M199 0 l0 1509 l891 0 l0 -200 l-654 0 l0 -420 l553 0 l0 -201 l-553 0 l0 -487 l676 0 l0 -201 l-913 0 ZM449 1599 l-95 72 l211 213 l205 0 l213 -213 l-96 -72 l-215 162 l-8 0 l-215 -162 ZM367 1755 l-215 195 l92 100 l202 -213 l-79 -82 Z" /><glyph glyph-name="" unicode="&#x1ec1;" d="M647 -27 q-152 0 -276.5 70 q-124.5 70 -198.5 202 q-74 132 -74 318 q0 182 74 315 q74 133 191.5 205 q117.5 72 248.5 72 q150 0 252.5 -67 q102.5 -67 155.5 -187 q53 -120 53 -278 q0 -36 -4 -68 q-4 -32 -8 -53 l-731 0 q14 -162 108 -253 q94 -91 240 -91 q75 0 141 22 q66 22 127 62 l82 -150 q-78 -52 -174 -85.5 q-96 -33.5 -207 -33.5 ZM328 666 l540 0 q0 144 -64.5 224.5 q-64.5 80.5 -187.5 80.5 q-106 0 -188.5 -79 q-82.5 -79 -99.5 -226 ZM369 1311 l-78 90 l225 211 l191 0 l225 -211 l-80 -90 l-238 159 l-8 0 l-237 -159 ZM272 1468 l-256 263 l134 96 l219 -279 l-97 -80 Z" /><glyph glyph-name="" unicode="&#x1ec2;" d="M199 0 l0 1509 l891 0 l0 -200 l-654 0 l0 -420 l553 0 l0 -201 l-553 0 l0 -487 l676 0 l0 -201 l-913 0 ZM449 1599 l-95 72 l211 213 l205 0 l213 -213 l-96 -72 l-215 162 l-8 0 l-215 -162 ZM948 1735 l-24 88 q40 9 67 25.5 q27 16.5 27 52.5 q0 41 -37 60 q-37 19 -123 24 l25 110 q295 -12 295 -174 q0 -92 -69 -133 q-69 -41 -161 -53 Z" /><glyph glyph-name="" unicode="&#x1ec3;" d="M647 -27 q-152 0 -276.5 70 q-124.5 70 -198.5 202 q-74 132 -74 318 q0 182 74 315 q74 133 191.5 205 q117.5 72 248.5 72 q150 0 252.5 -67 q102.5 -67 155.5 -187 q53 -120 53 -278 q0 -36 -4 -68 q-4 -32 -8 -53 l-731 0 q14 -162 108 -253 q94 -91 240 -91 q75 0 141 22 q66 22 127 62 l82 -150 q-78 -52 -174 -85.5 q-96 -33.5 -207 -33.5 ZM328 666 l540 0 q0 144 -64.5 224.5 q-64.5 80.5 -187.5 80.5 q-106 0 -188.5 -79 q-82.5 -79 -99.5 -226 ZM369 1311 l-78 90 l225 211 l191 0 l225 -211 l-80 -90 l-238 159 l-8 0 l-237 -159 ZM893 1470 l-21 91 q39 10 64 29 q25 19 25 52 q0 42 -35 63 q-35 21 -121 28 l20 108 q299 -9 299 -172 q0 -66 -32.5 -105.5 q-32.5 -39.5 -85.5 -60.5 q-53 -21 -113 -33 Z" /><glyph glyph-name="" unicode="&#x1ec4;" d="M199 0 l0 1509 l891 0 l0 -200 l-654 0 l0 -420 l553 0 l0 -201 l-553 0 l0 -487 l676 0 l0 -201 l-913 0 ZM449 1599 l-95 72 l211 203 l205 0 l213 -203 l-96 -72 l-215 152 l-8 0 l-215 -152 ZM815 1933 q-71 0 -118 27.5 q-47 27.5 -85 54.5 q-38 27 -80 27 q-38 0 -56.5 -25.5 q-18.5 -25.5 -24.5 -74.5 l-121 14 q4 103 49.5 164 q45.5 61 140.5 61 q71 0 118 -27.5 q47 -27.5 85 -55 q38 -27.5 80 -27.5 q38 0 57 25.5 q19 25.5 27 74.5 l121 -14 q-7 -102 -52.5 -163 q-45.5 -61 -140.5 -61 Z" /><glyph glyph-name="" unicode="&#x1ec5;" d="M647 -27 q-152 0 -276.5 70 q-124.5 70 -198.5 202 q-74 132 -74 318 q0 182 74 315 q74 133 191.5 205 q117.5 72 248.5 72 q150 0 252.5 -67 q102.5 -67 155.5 -187 q53 -120 53 -278 q0 -36 -4 -68 q-4 -32 -8 -53 l-731 0 q14 -162 108 -253 q94 -91 240 -91 q75 0 141 22 q66 22 127 62 l82 -150 q-78 -52 -174 -85.5 q-96 -33.5 -207 -33.5 ZM328 666 l540 0 q0 144 -64.5 224.5 q-64.5 80.5 -187.5 80.5 q-106 0 -188.5 -79 q-82.5 -79 -99.5 -226 ZM369 1311 l-78 90 l225 201 l191 0 l225 -201 l-80 -90 l-238 149 l-8 0 l-237 -149 ZM756 1640 q-66 0 -113 24.5 q-47 24.5 -86 48.5 q-39 24 -80 24 q-56 0 -74 -95 l-114 13 q9 103 51 161 q42 58 125 58 q66 0 113 -24 q47 -24 85.5 -48 q38.5 -24 79.5 -24 q59 0 74 94 l117 -10 q-9 -103 -52 -162.5 q-43 -59.5 -126 -59.5 Z" /><glyph glyph-name="" unicode="&#x1ec6;" d="M199 0 l0 1509 l891 0 l0 -200 l-654 0 l0 -420 l553 0 l0 -201 l-553 0 l0 -487 l676 0 l0 -201 l-913 0 ZM414 1599 l-101 72 l230 256 l252 0 l229 -256 l-102 -72 l-250 209 l-8 0 l-250 -209 ZM684 -489 q-64 0 -104.5 38.5 q-40.5 38.5 -40.5 104.5 q0 61 40.5 99 q40.5 38 104.5 38 q65 0 105 -38 q40 -38 40 -99 q0 -66 -40 -104.5 q-40 -38.5 -105 -38.5 Z" /><glyph glyph-name="" unicode="&#x1ec7;" d="M647 -27 q-152 0 -276.5 70 q-124.5 70 -198.5 202 q-74 132 -74 318 q0 182 74 315 q74 133 191.5 205 q117.5 72 248.5 72 q150 0 252.5 -67 q102.5 -67 155.5 -187 q53 -120 53 -278 q0 -36 -4 -68 q-4 -32 -8 -53 l-731 0 q14 -162 108 -253 q94 -91 240 -91 q75 0 141 22 q66 22 127 62 l82 -150 q-78 -52 -174 -85.5 q-96 -33.5 -207 -33.5 ZM328 666 l540 0 q0 144 -64.5 224.5 q-64.5 80.5 -187.5 80.5 q-106 0 -188.5 -79 q-82.5 -79 -99.5 -226 ZM233 1393 l259 315 l237 0 l258 -315 l-96 -90 l-277 245 l-8 0 l-276 -245 l-97 90 ZM610 -489 q-64 0 -104.5 38.5 q-40.5 38.5 -40.5 104.5 q0 61 40.5 99 q40.5 38 104.5 38 q65 0 106.5 -38 q41.5 -38 41.5 -99 q0 -66 -41.5 -104.5 q-41.5 -38.5 -106.5 -38.5 Z" /><glyph glyph-name="" unicode="&#x1ec8;" d="M199 0 l0 1509 l237 0 l0 -1509 l-237 0 ZM238 1602 l-23 104 q51 12 86 32 q35 20 35 60 q0 83 -189 92 l25 129 q340 -12 340 -194 q0 -71 -38.5 -116 q-38.5 -45 -101 -70.5 q-62.5 -25.5 -134.5 -36.5 Z" /><glyph glyph-name="" unicode="&#x1ec9;" d="M178 0 l0 1126 l236 0 l0 -1126 l-236 0 ZM213 1315 l-23 104 q53 13 88 35.5 q35 22.5 35 65.5 q0 95 -188 104 l12 152 q178 -7 266.5 -68.5 q88.5 -61.5 88.5 -169.5 q0 -71 -39 -116.5 q-39 -45.5 -102.5 -71 q-63.5 -25.5 -137.5 -35.5 Z" /><glyph glyph-name="" unicode="&#x1eca;" d="M199 0 l0 1509 l237 0 l0 -1509 l-237 0 ZM319 -489 q-64 0 -105.5 38.5 q-41.5 38.5 -41.5 104.5 q0 61 41.5 99 q41.5 38 105.5 38 q63 0 104.5 -38 q41.5 -38 41.5 -99 q0 -66 -41.5 -104.5 q-41.5 -38.5 -104.5 -38.5 Z" /><glyph glyph-name="" unicode="&#x1ecb;" d="M178 0 l0 1126 l236 0 l0 -1126 l-236 0 ZM295 1337 q-65 0 -105 38.5 q-40 38.5 -40 103.5 q0 63 40 101 q40 38 105 38 q64 0 105.5 -38 q41.5 -38 41.5 -101 q0 -65 -41.5 -103.5 q-41.5 -38.5 -105.5 -38.5 ZM293 -489 q-65 0 -105.5 38.5 q-40.5 38.5 -40.5 104.5 q0 61 40.5 99 q40.5 38 105.5 38 q64 0 105.5 -38 q41.5 -38 41.5 -99 q0 -66 -41.5 -104.5 q-41.5 -38.5 -105.5 -38.5 Z" /><glyph glyph-name="" unicode="&#x1ecc;" d="M772 -27 q-193 0 -341 95.5 q-148 95.5 -231 272 q-83 176.5 -83 419.5 q0 242 83 416 q83 174 231 267 q148 93 341 93 q194 0 342 -93 q148 -93 232 -267 q84 -174 84 -416 q0 -243 -84 -419.5 q-84 -176.5 -232 -272 q-148 -95.5 -342 -95.5 ZM772 180 q125 0 218 71.5 q93 71.5 144.5 202 q51.5 130.5 51.5 306.5 q0 266 -113.5 417.5 q-113.5 151.5 -300.5 151.5 q-187 0 -299.5 -151.5 q-112.5 -151.5 -112.5 -417.5 q0 -176 51 -306.5 q51 -130.5 143.5 -202 q92.5 -71.5 217.5 -71.5 ZM772 -489 q-63 0 -104 38.5 q-41 38.5 -41 104.5 q0 61 41 99 q41 38 104 38 q65 0 106.5 -38 q41.5 -38 41.5 -99 q0 -66 -41.5 -104.5 q-41.5 -38.5 -106.5 -38.5 Z" /><glyph glyph-name="" unicode="&#x1ecd;" d="M629 -27 q-140 0 -261 69.5 q-121 69.5 -195.5 201.5 q-74.5 132 -74.5 319 q0 188 74.5 320 q74.5 132 195.5 202 q121 70 261 70 q139 0 260 -70 q121 -70 195.5 -202 q74.5 -132 74.5 -320 q0 -187 -74.5 -319 q-74.5 -132 -195.5 -201.5 q-121 -69.5 -260 -69.5 ZM629 166 q133 0 211 108.5 q78 108.5 78 288.5 q0 178 -78 288 q-78 110 -211 110 q-132 0 -209.5 -110 q-77.5 -110 -77.5 -288 q0 -180 77.5 -288.5 q77.5 -108.5 209.5 -108.5 ZM629 -489 q-63 0 -104.5 38.5 q-41.5 38.5 -41.5 104.5 q0 61 41.5 99 q41.5 38 104.5 38 q64 0 105.5 -38 q41.5 -38 41.5 -99 q0 -66 -41.5 -104.5 q-41.5 -38.5 -105.5 -38.5 Z" /><glyph glyph-name="" unicode="&#x1ece;" d="M772 -27 q-193 0 -341 95.5 q-148 95.5 -231 272 q-83 176.5 -83 419.5 q0 242 83 416 q83 174 231 267 q148 93 341 93 q194 0 342 -93 q148 -93 232 -267 q84 -174 84 -416 q0 -243 -84 -419.5 q-84 -176.5 -232 -272 q-148 -95.5 -342 -95.5 ZM772 180 q125 0 218 71.5 q93 71.5 144.5 202 q51.5 130.5 51.5 306.5 q0 266 -113.5 417.5 q-113.5 151.5 -300.5 151.5 q-187 0 -299.5 -151.5 q-112.5 -151.5 -112.5 -417.5 q0 -176 51 -306.5 q51 -130.5 143.5 -202 q92.5 -71.5 217.5 -71.5 ZM690 1602 l-22 104 q52 12 87.5 32 q35.5 20 35.5 60 q0 83 -191 92 l27 129 q340 -12 340 -194 q0 -71 -38.5 -116 q-38.5 -45 -101.5 -70.5 q-63 -25.5 -137 -36.5 Z" /><glyph glyph-name="" unicode="&#x1ecf;" d="M629 -27 q-140 0 -261 69.5 q-121 69.5 -195.5 201.5 q-74.5 132 -74.5 319 q0 188 74.5 320 q74.5 132 195.5 202 q121 70 261 70 q139 0 260 -70 q121 -70 195.5 -202 q74.5 -132 74.5 -320 q0 -187 -74.5 -319 q-74.5 -132 -195.5 -201.5 q-121 -69.5 -260 -69.5 ZM629 166 q133 0 211 108.5 q78 108.5 78 288.5 q0 178 -78 288 q-78 110 -211 110 q-132 0 -209.5 -110 q-77.5 -110 -77.5 -288 q0 -180 77.5 -288.5 q77.5 -108.5 209.5 -108.5 ZM549 1315 l-23 104 q51 13 86 35.5 q35 22.5 35 65.5 q0 95 -188 104 l14 152 q177 -7 264.5 -68.5 q87.5 -61.5 87.5 -169.5 q0 -71 -38.5 -116.5 q-38.5 -45.5 -101.5 -71 q-63 -25.5 -136 -35.5 Z" /><glyph glyph-name="" unicode="&#x1ed0;" d="M772 -27 q-193 0 -341 95.5 q-148 95.5 -231 272 q-83 176.5 -83 419.5 q0 242 83 416 q83 174 231 267 q148 93 341 93 q194 0 342 -93 q148 -93 232 -267 q84 -174 84 -416 q0 -243 -84 -419.5 q-84 -176.5 -232 -272 q-148 -95.5 -342 -95.5 ZM772 180 q125 0 218 71.5 q93 71.5 144.5 202 q51.5 130.5 51.5 306.5 q0 266 -113.5 417.5 q-113.5 151.5 -300.5 151.5 q-187 0 -299.5 -151.5 q-112.5 -151.5 -112.5 -417.5 q0 -176 51 -306.5 q51 -130.5 143.5 -202 q92.5 -71.5 217.5 -71.5 ZM553 1599 l-94 72 l211 213 l204 0 l211 -213 l-94 -72 l-215 162 l-8 0 l-215 -162 ZM1073 1755 l-80 86 l228 209 l90 -104 l-238 -191 Z" /><glyph glyph-name="" unicode="&#x1ed1;" d="M629 -27 q-140 0 -261 69.5 q-121 69.5 -195.5 201.5 q-74.5 132 -74.5 319 q0 188 74.5 320 q74.5 132 195.5 202 q121 70 261 70 q139 0 260 -70 q121 -70 195.5 -202 q74.5 -132 74.5 -320 q0 -187 -74.5 -319 q-74.5 -132 -195.5 -201.5 q-121 -69.5 -260 -69.5 ZM629 166 q133 0 211 108.5 q78 108.5 78 288.5 q0 178 -78 288 q-78 110 -211 110 q-132 0 -209.5 -110 q-77.5 -110 -77.5 -288 q0 -180 77.5 -288.5 q77.5 -108.5 209.5 -108.5 ZM387 1311 l-78 90 l226 211 l190 0 l225 -211 l-80 -90 l-237 159 l-8 0 l-238 -159 ZM969 1468 l-97 76 l195 283 l133 -92 l-231 -267 Z" /><glyph glyph-name="" unicode="&#x1ed2;" d="M772 -27 q-193 0 -341 95.5 q-148 95.5 -231 272 q-83 176.5 -83 419.5 q0 242 83 416 q83 174 231 267 q148 93 341 93 q194 0 342 -93 q148 -93 232 -267 q84 -174 84 -416 q0 -243 -84 -419.5 q-84 -176.5 -232 -272 q-148 -95.5 -342 -95.5 ZM772 180 q125 0 218 71.5 q93 71.5 144.5 202 q51.5 130.5 51.5 306.5 q0 266 -113.5 417.5 q-113.5 151.5 -300.5 151.5 q-187 0 -299.5 -151.5 q-112.5 -151.5 -112.5 -417.5 q0 -176 51 -306.5 q51 -130.5 143.5 -202 q92.5 -71.5 217.5 -71.5 ZM553 1599 l-94 72 l211 213 l204 0 l211 -213 l-94 -72 l-215 162 l-8 0 l-215 -162 ZM471 1755 l-215 195 l92 100 l203 -213 l-80 -82 Z" /><glyph glyph-name="" unicode="&#x1ed3;" d="M629 -27 q-140 0 -261 69.5 q-121 69.5 -195.5 201.5 q-74.5 132 -74.5 319 q0 188 74.5 320 q74.5 132 195.5 202 q121 70 261 70 q139 0 260 -70 q121 -70 195.5 -202 q74.5 -132 74.5 -320 q0 -187 -74.5 -319 q-74.5 -132 -195.5 -201.5 q-121 -69.5 -260 -69.5 ZM629 166 q133 0 211 108.5 q78 108.5 78 288.5 q0 178 -78 288 q-78 110 -211 110 q-132 0 -209.5 -110 q-77.5 -110 -77.5 -288 q0 -180 77.5 -288.5 q77.5 -108.5 209.5 -108.5 ZM387 1311 l-78 90 l226 211 l190 0 l225 -211 l-80 -90 l-237 159 l-8 0 l-238 -159 ZM291 1468 l-254 263 l131 96 l219 -279 l-96 -80 Z" /><glyph glyph-name="" unicode="&#x1ed4;" d="M772 -27 q-193 0 -341 95.5 q-148 95.5 -231 272 q-83 176.5 -83 419.5 q0 242 83 416 q83 174 231 267 q148 93 341 93 q194 0 342 -93 q148 -93 232 -267 q84 -174 84 -416 q0 -243 -84 -419.5 q-84 -176.5 -232 -272 q-148 -95.5 -342 -95.5 ZM772 180 q125 0 218 71.5 q93 71.5 144.5 202 q51.5 130.5 51.5 306.5 q0 266 -113.5 417.5 q-113.5 151.5 -300.5 151.5 q-187 0 -299.5 -151.5 q-112.5 -151.5 -112.5 -417.5 q0 -176 51 -306.5 q51 -130.5 143.5 -202 q92.5 -71.5 217.5 -71.5 ZM553 1599 l-94 72 l211 213 l204 0 l211 -213 l-94 -72 l-215 162 l-8 0 l-215 -162 ZM1053 1735 l-25 88 q38 9 66 25.5 q28 16.5 28 52.5 q0 41 -36.5 60 q-36.5 19 -122.5 24 l24 110 q295 -12 295 -174 q0 -92 -68.5 -133 q-68.5 -41 -160.5 -53 Z" /><glyph glyph-name="" unicode="&#x1ed5;" d="M629 -27 q-140 0 -261 69.5 q-121 69.5 -195.5 201.5 q-74.5 132 -74.5 319 q0 188 74.5 320 q74.5 132 195.5 202 q121 70 261 70 q139 0 260 -70 q121 -70 195.5 -202 q74.5 -132 74.5 -320 q0 -187 -74.5 -319 q-74.5 -132 -195.5 -201.5 q-121 -69.5 -260 -69.5 ZM629 166 q133 0 211 108.5 q78 108.5 78 288.5 q0 178 -78 288 q-78 110 -211 110 q-132 0 -209.5 -110 q-77.5 -110 -77.5 -288 q0 -180 77.5 -288.5 q77.5 -108.5 209.5 -108.5 ZM387 1311 l-78 90 l226 211 l190 0 l225 -211 l-80 -90 l-237 159 l-8 0 l-238 -159 ZM911 1470 l-20 91 q40 10 64 29 q24 19 24 52 q0 42 -35.5 63 q-35.5 21 -120.5 28 l21 108 q299 -9 299 -172 q0 -66 -33 -105.5 q-33 -39.5 -85.5 -60.5 q-52.5 -21 -113.5 -33 Z" /><glyph glyph-name="" unicode="&#x1ed6;" d="M772 -27 q-193 0 -341 95.5 q-148 95.5 -231 272 q-83 176.5 -83 419.5 q0 242 83 416 q83 174 231 267 q148 93 341 93 q194 0 342 -93 q148 -93 232 -267 q84 -174 84 -416 q0 -243 -84 -419.5 q-84 -176.5 -232 -272 q-148 -95.5 -342 -95.5 ZM772 180 q125 0 218 71.5 q93 71.5 144.5 202 q51.5 130.5 51.5 306.5 q0 266 -113.5 417.5 q-113.5 151.5 -300.5 151.5 q-187 0 -299.5 -151.5 q-112.5 -151.5 -112.5 -417.5 q0 -176 51 -306.5 q51 -130.5 143.5 -202 q92.5 -71.5 217.5 -71.5 ZM553 1599 l-94 72 l211 203 l204 0 l211 -203 l-94 -72 l-215 152 l-8 0 l-215 -152 ZM920 1933 q-71 0 -118.5 27.5 q-47.5 27.5 -85 54.5 q-37.5 27 -79.5 27 q-38 0 -57 -25.5 q-19 -25.5 -25 -74.5 l-121 14 q5 103 50 164 q45 61 141 61 q69 0 116.5 -27.5 q47.5 -27.5 85.5 -55 q38 -27.5 80 -27.5 q70 0 82 100 l121 -14 q-5 -102 -50 -163 q-45 -61 -140 -61 Z" /><glyph glyph-name="" unicode="&#x1ed7;" d="M629 -27 q-140 0 -261 69.5 q-121 69.5 -195.5 201.5 q-74.5 132 -74.5 319 q0 188 74.5 320 q74.5 132 195.5 202 q121 70 261 70 q139 0 260 -70 q121 -70 195.5 -202 q74.5 -132 74.5 -320 q0 -187 -74.5 -319 q-74.5 -132 -195.5 -201.5 q-121 -69.5 -260 -69.5 ZM629 166 q133 0 211 108.5 q78 108.5 78 288.5 q0 178 -78 288 q-78 110 -211 110 q-132 0 -209.5 -110 q-77.5 -110 -77.5 -288 q0 -180 77.5 -288.5 q77.5 -108.5 209.5 -108.5 ZM387 1311 l-78 90 l226 201 l190 0 l225 -201 l-80 -90 l-237 149 l-8 0 l-238 -149 ZM774 1640 q-65 0 -112.5 24.5 q-47.5 24.5 -86 48.5 q-38.5 24 -79.5 24 q-33 0 -49 -22.5 q-16 -22.5 -25 -72.5 l-115 13 q9 103 51.5 161 q42.5 58 126.5 58 q66 0 112.5 -24 q46.5 -24 85 -48 q38.5 -24 79.5 -24 q58 0 74 94 l116 -10 q-10 -103 -52.5 -162.5 q-42.5 -59.5 -125.5 -59.5 Z" /><glyph glyph-name="" unicode="&#x1ed8;" d="M772 -27 q-193 0 -341 95.5 q-148 95.5 -231 272 q-83 176.5 -83 419.5 q0 242 83 416 q83 174 231 267 q148 93 341 93 q194 0 342 -93 q148 -93 232 -267 q84 -174 84 -416 q0 -243 -84 -419.5 q-84 -176.5 -232 -272 q-148 -95.5 -342 -95.5 ZM772 180 q125 0 218 71.5 q93 71.5 144.5 202 q51.5 130.5 51.5 306.5 q0 266 -113.5 417.5 q-113.5 151.5 -300.5 151.5 q-187 0 -299.5 -151.5 q-112.5 -151.5 -112.5 -417.5 q0 -176 51 -306.5 q51 -130.5 143.5 -202 q92.5 -71.5 217.5 -71.5 ZM518 1599 l-102 72 l231 256 l252 0 l229 -256 l-102 -72 l-250 209 l-8 0 l-250 -209 ZM772 -489 q-63 0 -104 38.5 q-41 38.5 -41 104.5 q0 61 41 99 q41 38 104 38 q65 0 106.5 -38 q41.5 -38 41.5 -99 q0 -66 -41.5 -104.5 q-41.5 -38.5 -106.5 -38.5 Z" /><glyph glyph-name="" unicode="&#x1ed9;" d="M629 -27 q-140 0 -261 69.5 q-121 69.5 -195.5 201.5 q-74.5 132 -74.5 319 q0 188 74.5 320 q74.5 132 195.5 202 q121 70 261 70 q139 0 260 -70 q121 -70 195.5 -202 q74.5 -132 74.5 -320 q0 -187 -74.5 -319 q-74.5 -132 -195.5 -201.5 q-121 -69.5 -260 -69.5 ZM629 166 q133 0 211 108.5 q78 108.5 78 288.5 q0 178 -78 288 q-78 110 -211 110 q-132 0 -209.5 -110 q-77.5 -110 -77.5 -288 q0 -180 77.5 -288.5 q77.5 -108.5 209.5 -108.5 ZM252 1393 l258 315 l238 0 l258 -315 l-95 -90 l-278 245 l-8 0 l-277 -245 l-96 90 ZM629 -489 q-63 0 -104.5 38.5 q-41.5 38.5 -41.5 104.5 q0 61 41.5 99 q41.5 38 104.5 38 q64 0 105.5 -38 q41.5 -38 41.5 -99 q0 -66 -41.5 -104.5 q-41.5 -38.5 -105.5 -38.5 Z" /><glyph glyph-name="" unicode="&#x1eda;" d="M776 -27 q-193 0 -341 95.5 q-148 95.5 -231 272 q-83 176.5 -83 419.5 q0 242 83 416 q83 174 231 267 q148 93 341 93 q170 0 307 -72 q86 19 129 61.5 q43 42.5 43 121.5 q0 78 -34 137 l182 78 q24 -39 40.5 -90.5 q16.5 -51.5 16.5 -108.5 q0 -117 -66 -186.5 q-66 -69.5 -188 -100.5 q108 -100 168 -256 q60 -156 60 -360 q0 -243 -84 -419.5 q-84 -176.5 -232 -272 q-148 -95.5 -342 -95.5 ZM776 180 q126 0 219 71.5 q93 71.5 144 202 q51 130.5 51 306.5 q0 266 -112.5 417.5 q-112.5 151.5 -301.5 151.5 q-187 0 -299 -151.5 q-112 -151.5 -112 -417.5 q0 -176 50.5 -306.5 q50.5 -130.5 143 -202 q92.5 -71.5 217.5 -71.5 ZM743 1593 l-106 119 l348 305 l129 -157 l-371 -267 Z" /><glyph glyph-name="" unicode="&#x1edb;" d="M629 -27 q-140 0 -261 69.5 q-121 69.5 -195.5 201.5 q-74.5 132 -74.5 319 q0 188 74.5 320 q74.5 132 195.5 202 q121 70 261 70 q115 0 219 -47 q87 17 136.5 67.5 q49.5 50.5 49.5 147.5 q0 73 -35 127 l179 82 q24 -37 41.5 -88 q17.5 -51 17.5 -105 q0 -92 -37.5 -156 q-37.5 -64 -97 -104 q-59.5 -40 -125.5 -59 q83 -75 132.5 -190.5 q49.5 -115.5 49.5 -266.5 q0 -187 -74.5 -319 q-74.5 -132 -195.5 -201.5 q-121 -69.5 -260 -69.5 ZM629 166 q133 0 211 108.5 q78 108.5 78 288.5 q0 178 -78 288 q-78 110 -211 110 q-132 0 -209.5 -110 q-77.5 -110 -77.5 -288 q0 -180 77.5 -288.5 q77.5 -108.5 209.5 -108.5 ZM618 1319 l-118 117 l336 395 l161 -156 l-379 -356 Z" /><glyph glyph-name="" unicode="&#x1edc;" d="M776 -27 q-193 0 -341 95.5 q-148 95.5 -231 272 q-83 176.5 -83 419.5 q0 242 83 416 q83 174 231 267 q148 93 341 93 q170 0 307 -72 q86 19 129 61.5 q43 42.5 43 121.5 q0 78 -34 137 l182 78 q24 -39 40.5 -90.5 q16.5 -51.5 16.5 -108.5 q0 -117 -66 -186.5 q-66 -69.5 -188 -100.5 q108 -100 168 -256 q60 -156 60 -360 q0 -243 -84 -419.5 q-84 -176.5 -232 -272 q-148 -95.5 -342 -95.5 ZM776 180 q126 0 219 71.5 q93 71.5 144 202 q51 130.5 51 306.5 q0 266 -112.5 417.5 q-112.5 151.5 -301.5 151.5 q-187 0 -299 -151.5 q-112 -151.5 -112 -417.5 q0 -176 50.5 -306.5 q50.5 -130.5 143 -202 q92.5 -71.5 217.5 -71.5 ZM811 1593 l-373 267 l131 157 l346 -305 l-104 -119 Z" /><glyph glyph-name="" unicode="&#x1edd;" d="M629 -27 q-140 0 -261 69.5 q-121 69.5 -195.5 201.5 q-74.5 132 -74.5 319 q0 188 74.5 320 q74.5 132 195.5 202 q121 70 261 70 q115 0 219 -47 q87 17 136.5 67.5 q49.5 50.5 49.5 147.5 q0 73 -35 127 l179 82 q24 -37 41.5 -88 q17.5 -51 17.5 -105 q0 -92 -37.5 -156 q-37.5 -64 -97 -104 q-59.5 -40 -125.5 -59 q83 -75 132.5 -190.5 q49.5 -115.5 49.5 -266.5 q0 -187 -74.5 -319 q-74.5 -132 -195.5 -201.5 q-121 -69.5 -260 -69.5 ZM629 166 q133 0 211 108.5 q78 108.5 78 288.5 q0 178 -78 288 q-78 110 -211 110 q-132 0 -209.5 -110 q-77.5 -110 -77.5 -288 q0 -180 77.5 -288.5 q77.5 -108.5 209.5 -108.5 ZM649 1319 l-379 356 l164 156 l334 -395 l-119 -117 Z" /><glyph glyph-name="" unicode="&#x1ede;" d="M776 -27 q-193 0 -341 95.5 q-148 95.5 -231 272 q-83 176.5 -83 419.5 q0 242 83 416 q83 174 231 267 q148 93 341 93 q170 0 307 -72 q86 19 129 61.5 q43 42.5 43 121.5 q0 78 -34 137 l182 78 q24 -39 40.5 -90.5 q16.5 -51.5 16.5 -108.5 q0 -117 -66 -186.5 q-66 -69.5 -188 -100.5 q108 -100 168 -256 q60 -156 60 -360 q0 -243 -84 -419.5 q-84 -176.5 -232 -272 q-148 -95.5 -342 -95.5 ZM696 1602 l-24 104 q52 12 87.5 32 q35.5 20 35.5 60 q0 83 -189 92 l25 129 q340 -12 340 -194 q0 -71 -38.5 -116 q-38.5 -45 -101 -70.5 q-62.5 -25.5 -135.5 -36.5 ZM776 180 q126 0 219 71.5 q93 71.5 144 202 q51 130.5 51 306.5 q0 266 -112.5 417.5 q-112.5 151.5 -301.5 151.5 q-187 0 -299 -151.5 q-112 -151.5 -112 -417.5 q0 -176 50.5 -306.5 q50.5 -130.5 143 -202 q92.5 -71.5 217.5 -71.5 Z" /><glyph glyph-name="" unicode="&#x1edf;" d="M629 -27 q-140 0 -261 69.5 q-121 69.5 -195.5 201.5 q-74.5 132 -74.5 319 q0 188 74.5 320 q74.5 132 195.5 202 q121 70 261 70 q115 0 219 -47 q87 17 136.5 67.5 q49.5 50.5 49.5 147.5 q0 73 -35 127 l179 82 q24 -37 41.5 -88 q17.5 -51 17.5 -105 q0 -92 -37.5 -156 q-37.5 -64 -97 -104 q-59.5 -40 -125.5 -59 q83 -75 132.5 -190.5 q49.5 -115.5 49.5 -266.5 q0 -187 -74.5 -319 q-74.5 -132 -195.5 -201.5 q-121 -69.5 -260 -69.5 ZM551 1315 l-21 104 q51 13 86 35.5 q35 22.5 35 65.5 q0 95 -188 104 l14 152 q177 -7 264.5 -68.5 q87.5 -61.5 87.5 -169.5 q0 -71 -38.5 -116.5 q-38.5 -45.5 -102 -71 q-63.5 -25.5 -137.5 -35.5 ZM629 166 q133 0 211 108.5 q78 108.5 78 288.5 q0 178 -78 288 q-78 110 -211 110 q-132 0 -209.5 -110 q-77.5 -110 -77.5 -288 q0 -180 77.5 -288.5 q77.5 -108.5 209.5 -108.5 Z" /><glyph glyph-name="" unicode="&#x1ee0;" d="M776 -27 q-193 0 -341 95.5 q-148 95.5 -231 272 q-83 176.5 -83 419.5 q0 242 83 416 q83 174 231 267 q148 93 341 93 q170 0 307 -72 q86 19 129 61.5 q43 42.5 43 121.5 q0 78 -34 137 l182 78 q24 -39 40.5 -90.5 q16.5 -51.5 16.5 -108.5 q0 -117 -66 -186.5 q-66 -69.5 -188 -100.5 q108 -100 168 -256 q60 -156 60 -360 q0 -243 -84 -419.5 q-84 -176.5 -232 -272 q-148 -95.5 -342 -95.5 ZM776 180 q126 0 219 71.5 q93 71.5 144 202 q51 130.5 51 306.5 q0 266 -112.5 417.5 q-112.5 151.5 -301.5 151.5 q-187 0 -299 -151.5 q-112 -151.5 -112 -417.5 q0 -176 50.5 -306.5 q50.5 -130.5 143 -202 q92.5 -71.5 217.5 -71.5 ZM924 1622 q-64 0 -110.5 23 q-46.5 23 -83 53.5 q-36.5 30.5 -70 54 q-33.5 23.5 -70.5 23.5 q-40 0 -68 -35 q-28 -35 -35 -107 l-155 13 q6 144 74 220.5 q68 76.5 176 76.5 q64 0 111 -23 q47 -23 83.5 -53 q36.5 -30 70 -53 q33.5 -23 71.5 -23 q39 0 66.5 34.5 q27.5 34.5 35.5 104.5 l156 -12 q-7 -144 -76 -220.5 q-69 -76.5 -176 -76.5 Z" /><glyph glyph-name="" unicode="&#x1ee1;" d="M629 -27 q-140 0 -261 69.5 q-121 69.5 -195.5 201.5 q-74.5 132 -74.5 319 q0 188 74.5 320 q74.5 132 195.5 202 q121 70 261 70 q115 0 219 -47 q87 17 136.5 67.5 q49.5 50.5 49.5 147.5 q0 73 -35 127 l179 82 q24 -37 41.5 -88 q17.5 -51 17.5 -105 q0 -92 -37.5 -156 q-37.5 -64 -97 -104 q-59.5 -40 -125.5 -59 q83 -75 132.5 -190.5 q49.5 -115.5 49.5 -266.5 q0 -187 -74.5 -319 q-74.5 -132 -195.5 -201.5 q-121 -69.5 -260 -69.5 ZM629 166 q133 0 211 108.5 q78 108.5 78 288.5 q0 178 -78 288 q-78 110 -211 110 q-132 0 -209.5 -110 q-77.5 -110 -77.5 -288 q0 -180 77.5 -288.5 q77.5 -108.5 209.5 -108.5 ZM745 1327 q-59 0 -103 27 q-44 27 -80 62 q-36 35 -69 62 q-33 27 -69 27 q-46 0 -70 -43.5 q-24 -43.5 -28 -122.5 l-154 11 q5 147 65 235 q60 88 185 88 q58 0 102 -27 q44 -27 80 -62 q36 -35 69.5 -62 q33.5 -27 69.5 -27 q45 0 68.5 44.5 q23.5 44.5 28.5 119.5 l153 -8 q-6 -146 -64.5 -235 q-58.5 -89 -183.5 -89 Z" /><glyph glyph-name="" unicode="&#x1ee2;" d="M776 -27 q-193 0 -341 95.5 q-148 95.5 -231 272 q-83 176.5 -83 419.5 q0 242 83 416 q83 174 231 267 q148 93 341 93 q170 0 307 -72 q86 19 129 61.5 q43 42.5 43 121.5 q0 78 -34 137 l182 78 q24 -39 40.5 -90.5 q16.5 -51.5 16.5 -108.5 q0 -117 -66 -186.5 q-66 -69.5 -188 -100.5 q108 -100 168 -256 q60 -156 60 -360 q0 -243 -84 -419.5 q-84 -176.5 -232 -272 q-148 -95.5 -342 -95.5 ZM770 -489 q-64 0 -104.5 38.5 q-40.5 38.5 -40.5 104.5 q0 61 40.5 99 q40.5 38 104.5 38 q65 0 105 -38 q40 -38 40 -99 q0 -66 -40 -104.5 q-40 -38.5 -105 -38.5 ZM776 180 q126 0 219 71.5 q93 71.5 144 202 q51 130.5 51 306.5 q0 266 -112.5 417.5 q-112.5 151.5 -301.5 151.5 q-187 0 -299 -151.5 q-112 -151.5 -112 -417.5 q0 -176 50.5 -306.5 q50.5 -130.5 143 -202 q92.5 -71.5 217.5 -71.5 Z" /><glyph glyph-name="" unicode="&#x1ee3;" d="M629 -27 q-140 0 -261 69.5 q-121 69.5 -195.5 201.5 q-74.5 132 -74.5 319 q0 188 74.5 320 q74.5 132 195.5 202 q121 70 261 70 q115 0 219 -47 q87 17 136.5 67.5 q49.5 50.5 49.5 147.5 q0 73 -35 127 l179 82 q24 -37 41.5 -88 q17.5 -51 17.5 -105 q0 -92 -37.5 -156 q-37.5 -64 -97 -104 q-59.5 -40 -125.5 -59 q83 -75 132.5 -190.5 q49.5 -115.5 49.5 -266.5 q0 -187 -74.5 -319 q-74.5 -132 -195.5 -201.5 q-121 -69.5 -260 -69.5 ZM635 -489 q-65 0 -106.5 38.5 q-41.5 38.5 -41.5 104.5 q0 61 41.5 99 q41.5 38 106.5 38 q63 0 104 -38 q41 -38 41 -99 q0 -66 -41 -104.5 q-41 -38.5 -104 -38.5 ZM629 166 q133 0 211 108.5 q78 108.5 78 288.5 q0 178 -78 288 q-78 110 -211 110 q-132 0 -209.5 -110 q-77.5 -110 -77.5 -288 q0 -180 77.5 -288.5 q77.5 -108.5 209.5 -108.5 Z" /><glyph glyph-name="" unicode="&#x1ee4;" d="M752 -27 q-167 0 -293.5 66 q-126.5 66 -197.5 214 q-71 148 -71 394 l0 862 l238 0 l0 -878 q0 -170 41.5 -268.5 q41.5 -98.5 114.5 -140.5 q73 -42 168 -42 q95 0 169.5 42 q74.5 42 117 140.5 q42.5 98.5 42.5 268.5 l0 878 l230 0 l0 -862 q0 -246 -70.5 -394 q-70.5 -148 -196 -214 q-125.5 -66 -292.5 -66 ZM748 -489 q-63 0 -104.5 38.5 q-41.5 38.5 -41.5 104.5 q0 61 41.5 99 q41.5 38 104.5 38 q66 0 107.5 -38 q41.5 -38 41.5 -99 q0 -66 -41.5 -104.5 q-41.5 -38.5 -107.5 -38.5 Z" /><glyph glyph-name="" unicode="&#x1ee5;" d="M510 -27 q-181 0 -263.5 115 q-82.5 115 -82.5 330 l0 708 l235 0 l0 -680 q0 -144 44.5 -207 q44.5 -63 144.5 -63 q78 0 138.5 39.5 q60.5 39.5 131.5 128.5 l0 782 l236 0 l0 -1126 l-193 0 l-18 170 l-6 0 q-77 -89 -164.5 -143 q-87.5 -54 -202.5 -54 ZM633 -489 q-63 0 -104.5 38.5 q-41.5 38.5 -41.5 104.5 q0 61 41.5 99 q41.5 38 104.5 38 q64 0 105.5 -38 q41.5 -38 41.5 -99 q0 -66 -41.5 -104.5 q-41.5 -38.5 -105.5 -38.5 Z" /><glyph glyph-name="" unicode="&#x1ee6;" d="M752 -27 q-167 0 -293.5 66 q-126.5 66 -197.5 214 q-71 148 -71 394 l0 862 l238 0 l0 -878 q0 -170 41.5 -268.5 q41.5 -98.5 114.5 -140.5 q73 -42 168 -42 q95 0 169.5 42 q74.5 42 117 140.5 q42.5 98.5 42.5 268.5 l0 878 l230 0 l0 -862 q0 -246 -70.5 -394 q-70.5 -148 -196 -214 q-125.5 -66 -292.5 -66 ZM668 1602 l-25 104 q54 12 88.5 32 q34.5 20 34.5 60 q0 83 -188 92 l26 129 q340 -12 340 -194 q0 -71 -38.5 -116 q-38.5 -45 -101.5 -70.5 q-63 -25.5 -136 -36.5 Z" /><glyph glyph-name="" unicode="&#x1ee7;" d="M510 -27 q-181 0 -263.5 115 q-82.5 115 -82.5 330 l0 708 l235 0 l0 -680 q0 -144 44.5 -207 q44.5 -63 144.5 -63 q78 0 138.5 39.5 q60.5 39.5 131.5 128.5 l0 782 l236 0 l0 -1126 l-193 0 l-18 170 l-6 0 q-77 -89 -164.5 -143 q-87.5 -54 -202.5 -54 ZM553 1315 l-23 104 q53 13 88 35.5 q35 22.5 35 65.5 q0 95 -190 104 l14 152 q177 -7 265.5 -68.5 q88.5 -61.5 88.5 -169.5 q0 -71 -39 -116.5 q-39 -45.5 -102.5 -71 q-63.5 -25.5 -136.5 -35.5 Z" /><glyph glyph-name="" unicode="&#x1ee8;" d="M1311 1413 l0 -766 q0 -246 -70.5 -394 q-70.5 -148 -196 -214 q-125.5 -66 -292.5 -66 q-167 0 -293.5 66 q-126.5 66 -197.5 214 q-71 148 -71 394 l0 862 l238 0 l0 -878 q0 -170 41.5 -268.5 q41.5 -98.5 114.5 -140.5 q73 -42 168 -42 q95 0 169.5 42 q74.5 42 117 140.5 q42.5 98.5 42.5 268.5 l0 878 l101 0 q87 8 144.5 46 q57.5 38 57.5 137 q0 38 -9.5 74.5 q-9.5 36.5 -24.5 64.5 l182 78 q24 -39 40.5 -91.5 q16.5 -52.5 16.5 -109.5 q0 -134 -78.5 -201.5 q-78.5 -67.5 -199.5 -93.5 ZM717 1593 l-105 119 l346 305 l132 -157 l-373 -267 Z" /><glyph glyph-name="" unicode="&#x1ee9;" d="M510 -27 q-181 0 -263.5 115 q-82.5 115 -82.5 330 l0 708 l235 0 l0 -680 q0 -144 44.5 -207 q44.5 -63 144.5 -63 q78 0 138.5 39.5 q60.5 39.5 131.5 128.5 l0 782 l68 0 q50 7 94 27.5 q44 20.5 71 66 q27 45.5 27 126.5 q0 33 -10.5 66.5 q-10.5 33.5 -26.5 60.5 l181 81 q24 -36 41.5 -87 q17.5 -51 17.5 -105 q0 -93 -33 -157 q-33 -64 -85 -103 q-52 -39 -109 -58 l0 -1044 l-193 0 l-18 170 l-6 0 q-77 -89 -164.5 -143 q-87.5 -54 -202.5 -54 ZM614 1319 l-118 117 l333 395 l164 -156 l-379 -356 Z" /><glyph glyph-name="" unicode="&#x1eea;" d="M1311 1413 l0 -766 q0 -246 -70.5 -394 q-70.5 -148 -196 -214 q-125.5 -66 -292.5 -66 q-167 0 -293.5 66 q-126.5 66 -197.5 214 q-71 148 -71 394 l0 862 l238 0 l0 -878 q0 -170 41.5 -268.5 q41.5 -98.5 114.5 -140.5 q73 -42 168 -42 q95 0 169.5 42 q74.5 42 117 140.5 q42.5 98.5 42.5 268.5 l0 878 l101 0 q87 8 144.5 46 q57.5 38 57.5 137 q0 38 -9.5 74.5 q-9.5 36.5 -24.5 64.5 l182 78 q24 -39 40.5 -91.5 q16.5 -52.5 16.5 -109.5 q0 -134 -78.5 -201.5 q-78.5 -67.5 -199.5 -93.5 ZM786 1593 l-372 267 l129 157 l348 -305 l-105 -119 Z" /><glyph glyph-name="" unicode="&#x1eeb;" d="M510 -27 q-181 0 -263.5 115 q-82.5 115 -82.5 330 l0 708 l235 0 l0 -680 q0 -144 44.5 -207 q44.5 -63 144.5 -63 q78 0 138.5 39.5 q60.5 39.5 131.5 128.5 l0 782 l68 0 q50 7 94 27.5 q44 20.5 71 66 q27 45.5 27 126.5 q0 33 -10.5 66.5 q-10.5 33.5 -26.5 60.5 l181 81 q24 -36 41.5 -87 q17.5 -51 17.5 -105 q0 -93 -33 -157 q-33 -64 -85 -103 q-52 -39 -109 -58 l0 -1044 l-193 0 l-18 170 l-6 0 q-77 -89 -164.5 -143 q-87.5 -54 -202.5 -54 ZM645 1319 l-379 356 l162 156 l336 -395 l-119 -117 Z" /><glyph glyph-name="" unicode="&#x1eec;" d="M1311 1413 l0 -766 q0 -246 -70.5 -394 q-70.5 -148 -196 -214 q-125.5 -66 -292.5 -66 q-167 0 -293.5 66 q-126.5 66 -197.5 214 q-71 148 -71 394 l0 862 l238 0 l0 -878 q0 -170 41.5 -268.5 q41.5 -98.5 114.5 -140.5 q73 -42 168 -42 q95 0 169.5 42 q74.5 42 117 140.5 q42.5 98.5 42.5 268.5 l0 878 l101 0 q87 8 144.5 46 q57.5 38 57.5 137 q0 38 -9.5 74.5 q-9.5 36.5 -24.5 64.5 l182 78 q24 -39 40.5 -91.5 q16.5 -52.5 16.5 -109.5 q0 -134 -78.5 -201.5 q-78.5 -67.5 -199.5 -93.5 ZM670 1602 l-23 104 q52 12 86.5 32 q34.5 20 34.5 60 q0 83 -186 92 l24 129 q340 -12 340 -194 q0 -71 -38.5 -116 q-38.5 -45 -101.5 -70.5 q-63 -25.5 -136 -36.5 Z" /><glyph glyph-name="" unicode="&#x1eed;" d="M510 -27 q-181 0 -263.5 115 q-82.5 115 -82.5 330 l0 708 l235 0 l0 -680 q0 -144 44.5 -207 q44.5 -63 144.5 -63 q78 0 138.5 39.5 q60.5 39.5 131.5 128.5 l0 782 l68 0 q50 7 94 27.5 q44 20.5 71 66 q27 45.5 27 126.5 q0 33 -10.5 66.5 q-10.5 33.5 -26.5 60.5 l181 81 q24 -36 41.5 -87 q17.5 -51 17.5 -105 q0 -93 -33 -157 q-33 -64 -85 -103 q-52 -39 -109 -58 l0 -1044 l-193 0 l-18 170 l-6 0 q-77 -89 -164.5 -143 q-87.5 -54 -202.5 -54 ZM549 1315 l-25 104 q53 13 88 35.5 q35 22.5 35 65.5 q0 95 -188 104 l14 152 q177 -7 265.5 -68.5 q88.5 -61.5 88.5 -169.5 q0 -71 -39 -116.5 q-39 -45.5 -102.5 -71 q-63.5 -25.5 -136.5 -35.5 Z" /><glyph glyph-name="" unicode="&#x1eee;" d="M1311 1413 l0 -766 q0 -246 -70.5 -394 q-70.5 -148 -196 -214 q-125.5 -66 -292.5 -66 q-167 0 -293.5 66 q-126.5 66 -197.5 214 q-71 148 -71 394 l0 862 l238 0 l0 -878 q0 -170 41.5 -268.5 q41.5 -98.5 114.5 -140.5 q73 -42 168 -42 q95 0 169.5 42 q74.5 42 117 140.5 q42.5 98.5 42.5 268.5 l0 878 l101 0 q87 8 144.5 46 q57.5 38 57.5 137 q0 38 -9.5 74.5 q-9.5 36.5 -24.5 64.5 l182 78 q24 -39 40.5 -91.5 q16.5 -52.5 16.5 -109.5 q0 -134 -78.5 -201.5 q-78.5 -67.5 -199.5 -93.5 ZM922 1622 q-64 0 -110.5 23 q-46.5 23 -83.5 53.5 q-37 30.5 -70 54 q-33 23.5 -70 23.5 q-40 0 -68 -35 q-28 -35 -35 -107 l-155 13 q6 144 74.5 220.5 q68.5 76.5 177.5 76.5 q63 0 110 -23 q47 -23 83.5 -53 q36.5 -30 69 -53 q32.5 -23 68.5 -23 q87 0 105 139 l156 -12 q-8 -144 -75.5 -220.5 q-67.5 -76.5 -176.5 -76.5 Z" /><glyph glyph-name="" unicode="&#x1eef;" d="M510 -27 q-181 0 -263.5 115 q-82.5 115 -82.5 330 l0 708 l235 0 l0 -680 q0 -144 44.5 -207 q44.5 -63 144.5 -63 q78 0 138.5 39.5 q60.5 39.5 131.5 128.5 l0 782 l68 0 q50 7 94 27.5 q44 20.5 71 66 q27 45.5 27 126.5 q0 33 -10.5 66.5 q-10.5 33.5 -26.5 60.5 l181 81 q24 -36 41.5 -87 q17.5 -51 17.5 -105 q0 -93 -33 -157 q-33 -64 -85 -103 q-52 -39 -109 -58 l0 -1044 l-193 0 l-18 170 l-6 0 q-77 -89 -164.5 -143 q-87.5 -54 -202.5 -54 ZM780 1327 q-59 0 -103.5 27 q-44.5 27 -80 62 q-35.5 35 -68 62 q-32.5 27 -67.5 27 q-48 0 -71 -43.5 q-23 -43.5 -28 -122.5 l-153 11 q5 147 64 235 q59 88 184 88 q59 0 103.5 -27 q44.5 -27 80 -62 q35.5 -35 68.5 -62 q33 -27 69 -27 q46 0 69 44.5 q23 44.5 30 119.5 l153 -8 q-4 -146 -64.5 -235 q-60.5 -89 -185.5 -89 Z" /><glyph glyph-name="" unicode="&#x1ef0;" d="M1311 1413 l0 -766 q0 -246 -70.5 -394 q-70.5 -148 -196 -214 q-125.5 -66 -292.5 -66 q-167 0 -293.5 66 q-126.5 66 -197.5 214 q-71 148 -71 394 l0 862 l238 0 l0 -878 q0 -170 41.5 -268.5 q41.5 -98.5 114.5 -140.5 q73 -42 168 -42 q95 0 169.5 42 q74.5 42 117 140.5 q42.5 98.5 42.5 268.5 l0 878 l101 0 q87 8 144.5 46 q57.5 38 57.5 137 q0 38 -9.5 74.5 q-9.5 36.5 -24.5 64.5 l182 78 q24 -39 40.5 -91.5 q16.5 -52.5 16.5 -109.5 q0 -134 -78.5 -201.5 q-78.5 -67.5 -199.5 -93.5 ZM748 -489 q-63 0 -104.5 38.5 q-41.5 38.5 -41.5 104.5 q0 61 41.5 99 q41.5 38 104.5 38 q66 0 107.5 -38 q41.5 -38 41.5 -99 q0 -66 -41.5 -104.5 q-41.5 -38.5 -107.5 -38.5 Z" /><glyph glyph-name="" unicode="&#x1ef1;" d="M510 -27 q-181 0 -263.5 115 q-82.5 115 -82.5 330 l0 708 l235 0 l0 -680 q0 -144 44.5 -207 q44.5 -63 144.5 -63 q78 0 138.5 39.5 q60.5 39.5 131.5 128.5 l0 782 l68 0 q50 7 94 27.5 q44 20.5 71 66 q27 45.5 27 126.5 q0 33 -10.5 66.5 q-10.5 33.5 -26.5 60.5 l181 81 q24 -36 41.5 -87 q17.5 -51 17.5 -105 q0 -93 -33 -157 q-33 -64 -85 -103 q-52 -39 -109 -58 l0 -1044 l-193 0 l-18 170 l-6 0 q-77 -89 -164.5 -143 q-87.5 -54 -202.5 -54 ZM662 -489 q-65 0 -105.5 38.5 q-40.5 38.5 -40.5 104.5 q0 61 40.5 99 q40.5 38 105.5 38 q64 0 105.5 -38 q41.5 -38 41.5 -99 q0 -66 -41.5 -104.5 q-41.5 -38.5 -105.5 -38.5 Z" /><glyph glyph-name="" unicode="&#x1ef2;" d="M446 0 l0 571 l-452 938 l254 0 l174 -401 q35 -85 69 -165.5 q34 -80.5 72 -166.5 l8 0 q37 86 73.5 166.5 q36.5 80.5 70.5 165.5 l176 401 l248 0 l-455 -938 l0 -571 l-238 0 ZM600 1593 l-373 267 l131 157 l347 -305 l-105 -119 Z" /><glyph glyph-name="" unicode="&#x1ef3;" d="M592 1319 l-379 356 l162 156 l336 -395 l-119 -117 ZM1087 1126 l-413 -1194 q-44 -120 -102 -211 q-58 -91 -141 -141.5 q-83 -50.5 -202 -50.5 q-43 0 -77.5 6 q-34.5 6 -63.5 16 l45 185 q15 -5 38 -11 q23 -6 44 -6 q92 0 148.5 60.5 q56.5 60.5 87.5 150.5 l22 78 l-446 1118 l241 0 l209 -579 q25 -75 50.5 -157 q25.5 -82 52.5 -161 l10 0 l88 318 l180 579 l229 0 Z" /><glyph glyph-name="" unicode="&#x1ef4;" d="M446 0 l0 571 l-452 938 l254 0 l174 -401 q35 -85 69 -165.5 q34 -80.5 72 -166.5 l8 0 q37 86 73.5 166.5 q36.5 80.5 70.5 165.5 l176 401 l248 0 l-455 -938 l0 -571 l-238 0 ZM569 -489 q-64 0 -104.5 38.5 q-40.5 38.5 -40.5 104.5 q0 61 40.5 99 q40.5 38 104.5 38 q66 0 107 -38 q41 -38 41 -99 q0 -66 -41 -104.5 q-41 -38.5 -107 -38.5 Z" /><glyph glyph-name="" unicode="&#x1ef5;" d="M942 -477 q-64 0 -104.5 38.5 q-40.5 38.5 -40.5 102.5 q0 63 40.5 101 q40.5 38 104.5 38 q66 0 107 -38 q41 -38 41 -101 q0 -64 -41 -102.5 q-41 -38.5 -107 -38.5 ZM1087 1126 l-413 -1194 q-44 -120 -102 -211 q-58 -91 -141 -141.5 q-83 -50.5 -202 -50.5 q-43 0 -77.5 6 q-34.5 6 -63.5 16 l45 185 q15 -5 38 -11 q23 -6 44 -6 q92 0 148.5 60.5 q56.5 60.5 87.5 150.5 l22 78 l-446 1118 l241 0 l209 -579 q25 -75 50.5 -157 q25.5 -82 52.5 -161 l10 0 l88 318 l180 579 l229 0 Z" /><glyph glyph-name="" unicode="&#x1ef6;" d="M446 0 l0 571 l-452 938 l254 0 l174 -401 q35 -85 69 -165.5 q34 -80.5 72 -166.5 l8 0 q37 86 73.5 166.5 q36.5 80.5 70.5 165.5 l176 401 l248 0 l-455 -938 l0 -571 l-238 0 ZM485 1602 l-24 104 q52 12 86.5 32 q34.5 20 34.5 60 q0 83 -189 92 l27 129 q340 -12 340 -194 q0 -71 -38.5 -116 q-38.5 -45 -101 -70.5 q-62.5 -25.5 -135.5 -36.5 Z" /><glyph glyph-name="" unicode="&#x1ef7;" d="M496 1315 l-25 104 q52 13 87.5 35.5 q35.5 22.5 35.5 65.5 q0 95 -188 104 l14 152 q176 -7 265 -68.5 q89 -61.5 89 -169.5 q0 -71 -39 -116.5 q-39 -45.5 -102.5 -71 q-63.5 -25.5 -136.5 -35.5 ZM1087 1126 l-413 -1194 q-44 -120 -102 -211 q-58 -91 -141 -141.5 q-83 -50.5 -202 -50.5 q-43 0 -77.5 6 q-34.5 6 -63.5 16 l45 185 q15 -5 38 -11 q23 -6 44 -6 q92 0 148.5 60.5 q56.5 60.5 87.5 150.5 l22 78 l-446 1118 l241 0 l209 -579 q25 -75 50.5 -157 q25.5 -82 52.5 -161 l10 0 l88 318 l180 579 l229 0 Z" /><glyph glyph-name="" unicode="&#x1ef8;" d="M446 0 l0 571 l-452 938 l254 0 l174 -401 q35 -85 69 -165.5 q34 -80.5 72 -166.5 l8 0 q37 86 73.5 166.5 q36.5 80.5 70.5 165.5 l176 401 l248 0 l-455 -938 l0 -571 l-238 0 ZM735 1622 q-64 0 -110.5 23 q-46.5 23 -83 53.5 q-36.5 30.5 -70 54 q-33.5 23.5 -70.5 23.5 q-40 0 -67 -35 q-27 -35 -35 -107 l-156 13 q7 144 75 220.5 q68 76.5 177 76.5 q64 0 110.5 -23 q46.5 -23 83.5 -53 q37 -30 70 -53 q33 -23 70 -23 q40 0 67.5 34.5 q27.5 34.5 34.5 104.5 l158 -12 q-7 -144 -76 -220.5 q-69 -76.5 -178 -76.5 Z" /><glyph glyph-name="" unicode="&#x1ef9;" d="M834 1659 l153 -8 q-4 -146 -64.5 -235 q-60.5 -89 -183.5 -89 q-59 0 -103.5 27 q-44.5 27 -80 62 q-35.5 35 -68.5 62 q-33 27 -69 27 q-46 0 -69 -43.5 q-23 -43.5 -30 -122.5 l-153 11 q4 147 64.5 235 q60.5 88 185.5 88 q58 0 102 -27 q44 -27 79.5 -62 q35.5 -35 68.5 -62 q33 -27 69 -27 q46 0 70 44.5 q24 44.5 29 119.5 ZM1087 1126 l-413 -1194 q-44 -120 -102 -211 q-58 -91 -141 -141.5 q-83 -50.5 -202 -50.5 q-43 0 -77.5 6 q-34.5 6 -63.5 16 l45 185 q15 -5 38 -11 q23 -6 44 -6 q92 0 148.5 60.5 q56.5 60.5 87.5 150.5 l22 78 l-446 1118 l241 0 l209 -579 q25 -75 50.5 -157 q25.5 -82 52.5 -161 l10 0 l88 318 l180 579 l229 0 Z" /><glyph glyph-name="" unicode="&#x2010;" d="M1280 733 l-512 0 l0 90 l512 0 l0 -90 Z" /><glyph glyph-name="" unicode="&#x2012;&#x2013;" d="M96 502 l0 157 l912 0 l0 -157 l-912 0 Z" /><glyph glyph-name="" unicode="&#x2014;" d="M96 502 l0 157 l1649 0 l0 -157 l-1649 0 Z" /><glyph glyph-name="" unicode="&#x2015;" d="M1898 733 l-1748 0 l0 90 l1748 0 l0 -90 Z" /></font>
</defs>
</svg>
