<?xml version="1.0" standalone="no"?><!DOCTYPE svg PUBLIC "-//W3C//DTD SVG 1.1//EN" "http://www.w3.org/Graphics/SVG/1.1/DTD/svg11.dtd" ><svg xmlns="http://www.w3.org/2000/svg"><metadata></metadata><defs><font id="2.004;ADBO;SourceHanSansCN-Bold;ADOBE" horiz-adv-x="2179"><font-face font-family="Source Han Sans CN" font-weight="700" font-stretch="normal" units-per-em="2048" panose-1="2 11 8 0 0 0 0 0 0 0" ascent="2376" descent="-590" x-height="0" bbox="-1991 -582 2081 2318" underline-thickness="102" underline-position="-307" unicode-range="U+0020-ff40" /><missing-glyph horiz-adv-x="2048" d="M205 -246 l0 2048 l1638 0 l0 -2048 l-1638 0 ZM1024 862 l651 838 l-1302 0 l651 -838 ZM1090 778 l651 -837 l0 1675 l-651 -838 ZM373 -143 l1302 0 l-651 837 l-651 -837 ZM307 1616 l0 -1675 l651 837 l-651 838 Z" /><glyph glyph-name="" unicode="  " d="" /><glyph glyph-name="" unicode="!" d="M281 516 l-43 756 l-11 287 l303 0 l-10 -287 l-43 -756 l-196 0 ZM379 -29 q-80 0 -133 57 q-53 57 -53 140 q0 84 53 140.5 q53 56.5 133 56.5 q81 0 133.5 -56.5 q52.5 -56.5 52.5 -140.5 q0 -83 -52.5 -140 q-52.5 -57 -133.5 -57 Z" /><glyph glyph-name="" unicode="&quot;" d="M248 870 l-60 443 l-10 282 l307 0 l-10 -282 l-59 -443 l-168 0 ZM760 870 l-60 443 l-10 282 l307 0 l-10 -282 l-59 -443 l-168 0 Z" /><glyph glyph-name="" unicode="#" d="M203 0 l53 444 l-176 0 l0 197 l199 0 l34 281 l-186 0 l0 194 l211 0 l49 395 l176 0 l-47 -395 l258 0 l51 395 l176 0 l-47 -395 l185 0 l0 -194 l-209 0 l-35 -281 l197 0 l0 -197 l-222 0 l-51 -444 l-180 0 l53 444 l-258 0 l-53 -444 l-178 0 ZM457 641 l258 0 l35 281 l-258 0 l-35 -281 Z" /><glyph glyph-name="" unicode="$" d="M504 -254 l0 229 q-105 13 -214.5 59 q-109.5 46 -191.5 120 l133 204 q85 -67 167 -104 q82 -37 171 -37 q209 0 209 180 q0 69 -44.5 117.5 q-44.5 48.5 -115.5 87.5 q-71 39 -150 78.5 q-79 39.5 -150 91 q-71 51.5 -115.5 125 q-44.5 73.5 -44.5 180.5 q0 168 92.5 277.5 q92.5 109.5 253.5 140.5 l0 238 l203 0 l0 -234 q110 -15 191.5 -65 q81.5 -50 148.5 -119 l-152 -174 q-63 58 -122.5 88.5 q-59.5 30.5 -139.5 30.5 q-91 0 -140 -42 q-49 -42 -49 -128 q0 -63 45 -106 q45 -43 116 -78.5 q71 -35.5 150.5 -73.5 q79.5 -38 150.5 -90.5 q71 -52.5 116 -129.5 q45 -77 45 -192 q0 -168 -92 -284.5 q-92 -116.5 -268 -151.5 l0 -238 l-203 0 Z" /><glyph glyph-name="" unicode="%" d="M434 584 q-163 0 -265.5 127 q-102.5 127 -102.5 356 q0 227 102.5 352 q102.5 125 265.5 125 q163 0 267 -125 q104 -125 104 -352 q0 -229 -104 -356 q-104 -127 -267 -127 ZM434 754 q66 0 112 73 q46 73 46 240 q0 166 -46 236.5 q-46 70.5 -112 70.5 q-66 0 -112 -70.5 q-46 -70.5 -46 -236.5 q0 -167 46 -240 q46 -73 112 -73 ZM483 -29 l826 1573 l178 0 l-823 -1573 l-181 0 ZM1538 -29 q-163 0 -267 127.5 q-104 127.5 -104 356.5 q0 227 104 353 q104 126 267 126 q161 0 265 -126 q104 -126 104 -353 q0 -229 -104 -356.5 q-104 -127.5 -265 -127.5 ZM1538 143 q66 0 111 73 q45 73 45 239 q0 169 -45 238 q-45 69 -111 69 q-68 0 -113 -69 q-45 -69 -45 -238 q0 -166 45 -239 q45 -73 113 -73 Z" /><glyph glyph-name="" unicode="&amp;" d="M557 -29 q-159 0 -269.5 59 q-110.5 59 -168.5 157 q-58 98 -58 214 q0 106 40 184.5 q40 78.5 104.5 138.5 q64.5 60 140.5 110 q-44 84 -69 167 q-25 83 -25 158 q0 106 48.5 193.5 q48.5 87.5 137 139.5 q88.5 52 209.5 52 q161 0 256.5 -91.5 q95.5 -91.5 95.5 -240.5 q0 -100 -47.5 -177.5 q-47.5 -77.5 -122 -140.5 q-74.5 -63 -155.5 -118 q67 -86 151 -166 q84 -80 176 -149 q60 80 108 176.5 q48 96.5 77 210.5 l276 0 q-43 -143 -106 -273.5 q-63 -130.5 -152 -248.5 q74 -42 142 -70 q68 -28 127 -39 l-72 -246 q-189 41 -381 160 q-94 -74 -208.5 -117 q-114.5 -43 -254.5 -43 ZM813 279 q-95 79 -181.5 169 q-86.5 90 -158.5 185 q-55 -48 -90 -100 q-35 -52 -35 -113 q0 -97 68.5 -156 q68.5 -59 177.5 -59 q57 0 112 19 q55 19 107 55 ZM555 958 q89 54 150 112.5 q61 58.5 61 141.5 q0 57 -27 94 q-27 37 -86 37 q-66 0 -109.5 -50 q-43.5 -50 -43.5 -132 q0 -47 14.5 -98.5 q14.5 -51.5 40.5 -104.5 Z" /><glyph glyph-name="" unicode="&#39;" d="M248 870 l-60 443 l-10 282 l307 0 l-10 -282 l-59 -443 l-168 0 Z" /><glyph glyph-name="" unicode="(" d="M481 -414 q-146 237 -226.5 494.5 q-80.5 257.5 -80.5 564.5 q0 307 80.5 565 q80.5 258 226.5 496 l187 -80 q-129 -224 -189.5 -476.5 q-60.5 -252.5 -60.5 -504.5 q0 -252 60.5 -503.5 q60.5 -251.5 189.5 -475.5 l-187 -80 Z" /><glyph glyph-name="" unicode=")" d="M293 -414 l-187 80 q130 224 190 475.5 q60 251.5 60 503.5 q0 252 -60 504.5 q-60 252.5 -190 476.5 l187 80 q146 -238 226.5 -496 q80.5 -258 80.5 -565 q0 -307 -80.5 -564.5 q-80.5 -257.5 -226.5 -494.5 Z" /><glyph glyph-name="" unicode="*" d="M338 856 l-129 94 l135 234 l-242 108 l50 152 l258 -58 l28 269 l162 0 l25 -269 l262 58 l49 -152 l-246 -108 l139 -234 l-129 -94 l-182 205 l-180 -205 Z" /><glyph glyph-name="" unicode="+" d="M492 225 l0 434 l-412 0 l0 215 l412 0 l0 437 l223 0 l0 -437 l413 0 l0 -215 l-413 0 l0 -434 l-223 0 Z" /><glyph glyph-name="" unicode="," d="M172 -438 l-63 164 q118 46 182 120.5 q64 74.5 65 163.5 l-20 -2 q-74 0 -131.5 46 q-57.5 46 -57.5 132 q0 82 58 130.5 q58 48.5 139 48.5 q103 0 159 -79 q56 -79 56 -218 q0 -180 -100.5 -311.5 q-100.5 -131.5 -286.5 -194.5 Z" /><glyph glyph-name="" unicode="-­&#x2011;" d="M100 477 l0 217 l559 0 l0 -217 l-559 0 Z" /><glyph glyph-name="" unicode="." d="M334 -29 q-82 0 -135.5 57 q-53.5 57 -53.5 140 q0 84 53.5 140.5 q53.5 56.5 135.5 56.5 q80 0 133 -56.5 q53 -56.5 53 -140.5 q0 -83 -53 -140 q-53 -57 -133 -57 Z" /><glyph glyph-name="" unicode="/" d="M29 -371 l510 2022 l198 0 l-508 -2022 l-200 0 Z" /><glyph glyph-name="" unicode="0" d="M604 -29 q-232 0 -373 201 q-141 201 -141 594 q0 392 141 585 q141 193 373 193 q232 0 373 -194 q141 -194 141 -584 q0 -393 -141 -594 q-141 -201 -373 -201 ZM604 207 q66 0 117 50.5 q51 50.5 80.5 172.5 q29.5 122 29.5 336 q0 211 -29.5 330 q-29.5 119 -80.5 168 q-51 49 -117 49 q-65 0 -117 -49 q-52 -49 -82 -168 q-30 -119 -30 -330 q0 -214 30 -336 q30 -122 82 -172.5 q52 -50.5 117 -50.5 Z" /><glyph glyph-name="" unicode="1" d="M168 0 l0 246 l328 0 l0 956 l-277 0 l0 189 q115 20 197.5 50 q82.5 30 154.5 77 l224 0 l0 -1272 l284 0 l0 -246 l-911 0 Z" /><glyph glyph-name="" unicode="2" d="M88 0 l0 174 q310 277 482.5 494.5 q172.5 217.5 172.5 394.5 q0 112 -59 178 q-59 66 -168 66 q-83 0 -151.5 -46.5 q-68.5 -46.5 -124.5 -109.5 l-168 162 q106 113 217 172 q111 59 266 59 q143 0 250.5 -58 q107.5 -58 167 -162.5 q59.5 -104.5 59.5 -246.5 q0 -137 -69 -279 q-69 -142 -183.5 -284 q-114.5 -142 -253.5 -278 q59 7 127.5 12.5 q68.5 5.5 122.5 5.5 l328 0 l0 -254 l-1016 0 Z" /><glyph glyph-name="" unicode="3" d="M559 -29 q-178 0 -302 60.5 q-124 60.5 -204 150.5 l142 191 q67 -66 150 -111 q83 -45 187 -45 q116 0 187.5 55 q71.5 55 71.5 156 q0 75 -36 129 q-36 54 -126 83.5 q-90 29.5 -254 29.5 l0 217 q207 0 286.5 64 q79.5 64 79.5 167 q0 89 -53 139 q-53 50 -149 50 q-82 0 -150.5 -35.5 q-68.5 -35.5 -134.5 -97.5 l-156 186 q99 84 210 134 q111 50 245 50 q220 0 355.5 -104 q135.5 -104 135.5 -299 q0 -123 -66 -211 q-66 -88 -185 -135 l0 -11 q127 -35 214 -129.5 q87 -94.5 87 -244.5 q0 -140 -73 -238 q-73 -98 -194.5 -149.5 q-121.5 -51.5 -267.5 -51.5 Z" /><glyph glyph-name="" unicode="4" d="M690 0 l0 393 l-647 0 l0 205 l565 920 l363 0 l0 -895 l180 0 l0 -230 l-180 0 l0 -393 l-281 0 ZM690 623 l0 309 q0 66 4 157 q4 91 8 158 l-10 0 q-55 -123 -121 -248 l-235 -376 l354 0 Z" /><glyph glyph-name="" unicode="5" d="M567 -29 q-181 0 -304.5 61.5 q-123.5 61.5 -209.5 145.5 l140 193 q64 -63 146.5 -108.5 q82.5 -45.5 186.5 -45.5 q119 0 194 72.5 q75 72.5 75 206.5 q0 132 -71.5 203 q-71.5 71 -184.5 71 q-66 0 -113 -17.5 q-47 -17.5 -115 -60.5 l-137 88 l41 738 l811 0 l0 -254 l-551 0 l-29 -322 q85 41 183 41 q128 0 234 -51 q106 -51 169.5 -157 q63.5 -106 63.5 -271 q0 -169 -74.5 -288 q-74.5 -119 -195 -182 q-120.5 -63 -259.5 -63 Z" /><glyph glyph-name="" unicode="6" d="M647 -29 q-143 0 -267.5 80.5 q-124.5 80.5 -201 250 q-76.5 169.5 -76.5 435.5 q0 212 48 365 q48 153 130.5 251 q82.5 98 188 144.5 q105.5 46.5 219.5 46.5 q140 0 242 -50.5 q102 -50.5 170 -121.5 l-160 -180 q-40 44 -103.5 77.5 q-63.5 33.5 -127.5 33.5 q-88 0 -161 -48.5 q-73 -48.5 -118.5 -160 q-45.5 -111.5 -52.5 -299.5 q63 76 150 117.5 q87 41.5 159 41.5 q127 0 225.5 -51 q98.5 -51 154.5 -156.5 q56 -105.5 56 -267.5 q0 -155 -65 -269 q-65 -114 -173 -176.5 q-108 -62.5 -237 -62.5 ZM383 582 q21 -208 92 -295.5 q71 -87.5 166 -87.5 q86 0 146.5 71 q60.5 71 60.5 209 q0 135 -59.5 198.5 q-59.5 63.5 -157.5 63.5 q-60 0 -125.5 -36.5 q-65.5 -36.5 -122.5 -122.5 Z" /><glyph glyph-name="" unicode="7" d="M381 0 q10 197 34 363.5 q24 166.5 69.5 315 q45.5 148.5 118.5 291.5 q73 143 181 294 l-682 0 l0 254 l1008 0 l0 -185 q-132 -161 -212 -307.5 q-80 -146.5 -123 -298.5 q-43 -152 -62 -328.5 q-19 -176.5 -29 -398.5 l-303 0 Z" /><glyph glyph-name="" unicode="8" d="M604 -29 q-146 0 -261 52 q-115 52 -181 143.5 q-66 91.5 -66 210.5 q0 146 77 243 q77 97 183 152 l0 10 q-87 63 -143.5 151 q-56.5 88 -56.5 208 q0 123 59 213 q59 90 162 139 q103 49 235 49 q134 0 233 -50.5 q99 -50.5 153.5 -141 q54.5 -90.5 54.5 -211.5 q0 -112 -60.5 -202.5 q-60.5 -90.5 -134.5 -143.5 l0 -11 q106 -56 181 -153 q75 -97 75 -252 q0 -115 -64 -206.5 q-64 -91.5 -178.5 -145.5 q-114.5 -54 -267.5 -54 ZM698 866 q56 57 82.5 122 q26.5 65 26.5 132 q0 92 -53 151.5 q-53 59.5 -148 59.5 q-77 0 -130.5 -49 q-53.5 -49 -53.5 -141 q0 -106 79 -166.5 q79 -60.5 197 -108.5 ZM610 184 q97 0 160.5 52.5 q63.5 52.5 63.5 150.5 q0 79 -44 131 q-44 52 -120 92 q-76 40 -174 82 q-62 -50 -101 -123 q-39 -73 -39 -159 q0 -103 74 -164.5 q74 -61.5 180 -61.5 Z" /><glyph glyph-name="" unicode="9" d="M522 -29 q-141 0 -244.5 51.5 q-103.5 51.5 -171.5 120.5 l160 183 q42 -46 107 -77.5 q65 -31.5 133 -31.5 q84 0 154.5 48 q70.5 48 115 159.5 q44.5 111.5 51.5 300.5 q-60 -77 -147 -120.5 q-87 -43.5 -164 -43.5 q-190 0 -312 118 q-122 118 -122 359 q0 156 65 269.5 q65 113.5 173.5 175 q108.5 61.5 238.5 61.5 q144 0 268.5 -78 q124.5 -78 200.5 -244 q76 -166 76 -429 q0 -215 -48 -370.5 q-48 -155.5 -130 -255.5 q-82 -100 -186.5 -148 q-104.5 -48 -217.5 -48 ZM823 940 q-20 206 -91.5 291.5 q-71.5 85.5 -168.5 85.5 q-84 0 -144.5 -69.5 q-60.5 -69.5 -60.5 -209.5 q0 -133 58.5 -197.5 q58.5 -64.5 156.5 -64.5 q62 0 128.5 37.5 q66.5 37.5 121.5 126.5 Z" /><glyph glyph-name="" unicode=":" d="M334 750 q-82 0 -135.5 55.5 q-53.5 55.5 -53.5 138.5 q0 85 53.5 141 q53.5 56 135.5 56 q80 0 133 -56 q53 -56 53 -141 q0 -83 -53 -138.5 q-53 -55.5 -133 -55.5 ZM334 -29 q-82 0 -135.5 57 q-53.5 57 -53.5 140 q0 84 53.5 140.5 q53.5 56.5 135.5 56.5 q80 0 133 -56.5 q53 -56.5 53 -140.5 q0 -83 -53 -140 q-53 -57 -133 -57 Z" /><glyph glyph-name="" unicode=";" d="M334 750 q-82 0 -135.5 55.5 q-53.5 55.5 -53.5 138.5 q0 85 53.5 141 q53.5 56 135.5 56 q80 0 133 -56 q53 -56 53 -141 q0 -83 -53 -138.5 q-53 -55.5 -133 -55.5 ZM172 -438 l-63 164 q118 46 182 120.5 q64 74.5 65 163.5 l-20 -2 q-74 0 -131.5 46 q-57.5 46 -57.5 132 q0 82 58 130.5 q58 48.5 139 48.5 q103 0 159 -79 q56 -79 56 -218 q0 -180 -100.5 -311.5 q-100.5 -131.5 -286.5 -194.5 Z" /><glyph glyph-name="" unicode="&lt;" d="M1128 258 l-1048 408 l0 213 l1048 405 l0 -250 l-430 -145 l-315 -113 l0 -8 l315 -113 l430 -147 l0 -250 Z" /><glyph glyph-name="" unicode="=" d="M80 926 l0 213 l1048 0 l0 -213 l-1048 0 ZM80 395 l0 215 l1048 0 l0 -215 l-1048 0 Z" /><glyph glyph-name="" unicode="&gt;" d="M80 258 l0 250 l430 147 l313 113 l0 8 l-313 113 l-430 145 l0 250 l1048 -405 l0 -213 l-1048 -408 Z" /><glyph glyph-name="" unicode="?" d="M362 516 q-14 100 11.5 178 q25.5 78 72.5 141 q47 63 96.5 118.5 q49.5 55.5 84.5 108.5 q35 53 35 112 q0 76 -47.5 121.5 q-47.5 45.5 -127.5 45.5 q-67 0 -122.5 -31.5 q-55.5 -31.5 -104.5 -84.5 l-168 153 q80 91 189.5 149 q109.5 58 242.5 58 q123 0 220 -43 q97 -43 152.5 -130 q55.5 -87 55.5 -218 q0 -87 -35.5 -155 q-35.5 -68 -88 -126.5 q-52.5 -58.5 -102.5 -116.5 q-50 -58 -80.5 -125.5 q-30.5 -67.5 -20.5 -154.5 l-263 0 ZM496 -29 q-82 0 -135.5 57 q-53.5 57 -53.5 140 q0 84 53.5 140.5 q53.5 56.5 135.5 56.5 q79 0 132.5 -56.5 q53.5 -56.5 53.5 -140.5 q0 -83 -53.5 -140 q-53.5 -57 -132.5 -57 Z" /><glyph glyph-name="" unicode="@" d="M979 -389 q-174 0 -330 53.5 q-156 53.5 -277 161 q-121 107.5 -190 270 q-69 162.5 -69 379.5 q0 241 81.5 437 q81.5 196 224 336.5 q142.5 140.5 328.5 216 q186 75.5 394 75.5 q247 0 427.5 -103.5 q180.5 -103.5 279 -286 q98.5 -182.5 98.5 -421.5 q0 -157 -46 -275.5 q-46 -118.5 -121 -198 q-75 -79.5 -165 -119.5 q-90 -40 -178 -40 q-99 0 -171 45 q-72 45 -87 131 l-7 0 q-50 -67 -129 -111 q-79 -44 -153 -44 q-131 0 -214 92 q-83 92 -83 252 q0 103 34 202.5 q34 99.5 96.5 180.5 q62.5 81 147 129.5 q84.5 48.5 185.5 48.5 q58 0 103.5 -27.5 q45.5 -27.5 76.5 -87.5 l4 0 l33 97 l184 0 l-100 -500 q-54 -219 110 -219 q71 0 137.5 53 q66.5 53 109 150.5 q42.5 97.5 42.5 230.5 q0 173 -66.5 318 q-66.5 145 -208 232 q-141.5 87 -364.5 87 q-150 0 -292.5 -61.5 q-142.5 -61.5 -256 -176.5 q-113.5 -115 -181 -276 q-67.5 -161 -67.5 -359 q0 -228 93.5 -380.5 q93.5 -152.5 248.5 -229 q155 -76.5 340 -76.5 q96 0 191.5 27 q95.5 27 169.5 65 l68 -165 q-105 -59 -216.5 -86 q-111.5 -27 -234.5 -27 ZM954 307 q40 0 80.5 26.5 q40.5 26.5 89.5 88.5 l60 328 q-44 75 -121 75 q-75 0 -129.5 -55.5 q-54.5 -55.5 -84.5 -136.5 q-30 -81 -30 -156 q0 -86 37 -128 q37 -42 98 -42 Z" /><glyph glyph-name="" unicode="A" d="M-8 0 l485 1518 l359 0 l485 -1518 l-320 0 l-106 389 l-489 0 l-107 -389 l-307 0 ZM471 625 l360 0 l-45 166 q-35 118 -67 246 q-32 128 -66 249 l-8 0 q-31 -124 -63 -250.5 q-32 -126.5 -66 -244.5 l-45 -166 Z" /><glyph glyph-name="" unicode="B" d="M186 0 l0 1518 l502 0 q156 0 280 -35 q124 -35 196.5 -117 q72.5 -82 72.5 -223 q0 -106 -55 -200.5 q-55 -94.5 -152 -129.5 l0 -8 q123 -29 203 -117.5 q80 -88.5 80 -241.5 q0 -152 -77 -251 q-77 -99 -209.5 -147 q-132.5 -48 -299.5 -48 l-541 0 ZM489 899 l179 0 q144 0 209 54 q65 54 65 145 q0 100 -68 143 q-68 43 -204 43 l-181 0 l0 -385 ZM489 233 l211 0 q154 0 236 57 q82 57 82 175 q0 110 -80.5 160.5 q-80.5 50.5 -237.5 50.5 l-211 0 l0 -443 Z" /><glyph glyph-name="" unicode="C" d="M803 -29 q-191 0 -348 90 q-157 90 -250.5 264 q-93.5 174 -93.5 427 q0 187 55.5 334 q55.5 147 153 249.5 q97.5 102.5 224.5 155.5 q127 53 271 53 q146 0 258.5 -59 q112.5 -59 186.5 -135 l-158 -193 q-59 55 -127 91 q-68 36 -154 36 q-114 0 -204.5 -62.5 q-90.5 -62.5 -142.5 -179.5 q-52 -117 -52 -280 q0 -247 106.5 -388 q106.5 -141 286.5 -141 q98 0 174.5 42 q76.5 42 136.5 108 l162 -188 q-94 -109 -215 -166.5 q-121 -57.5 -270 -57.5 Z" /><glyph glyph-name="" unicode="D" d="M186 0 l0 1518 l416 0 q349 0 549.5 -185 q200.5 -185 200.5 -567 q0 -256 -90 -426 q-90 -170 -254.5 -255 q-164.5 -85 -389.5 -85 l-432 0 ZM489 246 l93 0 q213 0 336.5 121.5 q123.5 121.5 123.5 398.5 q0 184 -55.5 296 q-55.5 112 -159 162 q-103.5 50 -245.5 50 l-93 0 l0 -1028 Z" /><glyph glyph-name="" unicode="E" d="M186 0 l0 1518 l930 0 l0 -254 l-627 0 l0 -351 l531 0 l0 -254 l-531 0 l0 -405 l650 0 l0 -254 l-953 0 Z" /><glyph glyph-name="" unicode="F" d="M186 0 l0 1518 l934 0 l0 -254 l-631 0 l0 -396 l539 0 l0 -254 l-539 0 l0 -614 l-303 0 Z" /><glyph glyph-name="" unicode="G" d="M838 -29 q-206 0 -370.5 90 q-164.5 90 -260.5 264 q-96 174 -96 427 q0 249 97.5 426.5 q97.5 177.5 262.5 271.5 q165 94 367 94 q164 0 279.5 -59.5 q115.5 -59.5 189.5 -134.5 l-162 -193 q-57 54 -126.5 90.5 q-69.5 36.5 -170.5 36.5 q-127 0 -223 -62.5 q-96 -62.5 -149.5 -179.5 q-53.5 -117 -53.5 -280 q0 -247 112 -388 q112 -141 336 -141 q54 0 106 15 q52 15 83 43 l0 299 l-268 0 l0 248 l540 0 l0 -684 q-78 -77 -207.5 -130 q-129.5 -53 -285.5 -53 Z" /><glyph glyph-name="" unicode="H" d="M186 0 l0 1518 l303 0 l0 -600 l574 0 l0 600 l301 0 l0 -1518 l-301 0 l0 655 l-574 0 l0 -655 l-303 0 Z" /><glyph glyph-name="" unicode="I" d="M186 0 l0 1518 l303 0 l0 -1518 l-303 0 Z" /><glyph glyph-name="" unicode="J" d="M516 -29 q-164 0 -279 66.5 q-115 66.5 -190 200.5 l207 153 q43 -83 102 -120.5 q59 -37.5 123 -37.5 q100 0 151.5 62 q51.5 62 51.5 219 l0 1004 l303 0 l0 -1029 q0 -142 -49.5 -259.5 q-49.5 -117.5 -153 -188 q-103.5 -70.5 -266.5 -70.5 Z" /><glyph glyph-name="" unicode="K" d="M186 0 l0 1518 l303 0 l0 -660 l7 0 l501 660 l334 0 l-463 -598 l545 -920 l-332 0 l-393 682 l-199 -256 l0 -426 l-303 0 Z" /><glyph glyph-name="" unicode="L" d="M186 0 l0 1518 l303 0 l0 -1264 l617 0 l0 -254 l-920 0 Z" /><glyph glyph-name="" unicode="M" d="M186 0 l0 1518 l336 0 l258 -713 q25 -69 47 -143 q22 -74 45 -146 l11 0 q24 72 45.5 146 q21.5 74 44.5 143 l254 713 l336 0 l0 -1518 l-277 0 l0 633 q0 73 6.5 161.5 q6.5 88.5 15.5 176.5 q9 88 17 159 l-10 0 l-123 -356 l-234 -637 l-174 0 l-235 637 l-121 356 l-8 0 q7 -71 16 -159 q9 -88 16 -176.5 q7 -88.5 7 -161.5 l0 -633 l-273 0 Z" /><glyph glyph-name="" unicode="N" d="M186 0 l0 1518 l310 0 l440 -809 l154 -328 l10 0 q-13 118 -27 259.5 q-14 141.5 -14 270.5 l0 607 l287 0 l0 -1518 l-310 0 l-436 811 l-154 326 l-10 0 q9 -123 24 -260.5 q15 -137.5 15 -268.5 l0 -608 l-289 0 Z" /><glyph glyph-name="" unicode="O" d="M788 -29 q-200 0 -353 96 q-153 96 -238.5 274 q-85.5 178 -85.5 425 q0 246 85.5 420 q85.5 174 238.5 266 q153 92 353 92 q201 0 354 -92 q153 -92 238.5 -266 q85.5 -174 85.5 -420 q0 -247 -85.5 -425 q-85.5 -178 -238.5 -274 q-153 -96 -354 -96 ZM788 233 q113 0 196 66 q83 66 128 185.5 q45 119.5 45 281.5 q0 243 -100 380.5 q-100 137.5 -269 137.5 q-168 0 -267 -137.5 q-99 -137.5 -99 -380.5 q0 -243 99 -388 q99 -145 267 -145 Z" /><glyph glyph-name="" unicode="P" d="M186 0 l0 1518 l498 0 q168 0 302.5 -45 q134.5 -45 213 -149 q78.5 -104 78.5 -284 q0 -173 -78.5 -284 q-78.5 -111 -211.5 -164 q-133 -53 -296 -53 l-203 0 l0 -539 l-303 0 ZM489 778 l183 0 q309 0 309 262 q0 132 -81.5 184 q-81.5 52 -237.5 52 l-173 0 l0 -498 Z" /><glyph glyph-name="" unicode="Q" d="M788 219 q169 0 269 145 q100 145 100 402 q0 243 -100 380.5 q-100 137.5 -269 137.5 q-168 0 -267 -137.5 q-99 -137.5 -99 -380.5 q0 -257 99 -402 q99 -145 267 -145 ZM1278 -412 q-232 0 -392 112 q-160 112 -237 284 q-162 31 -283 133.5 q-121 102.5 -188 267 q-67 164.5 -67 381.5 q0 246 85.5 420 q85.5 174 238.5 266 q153 92 353 92 q201 0 354 -92 q153 -92 238.5 -266 q85.5 -174 85.5 -420 q0 -208 -61.5 -367.5 q-61.5 -159.5 -173.5 -262.5 q-112 -103 -262 -142 q52 -86 146.5 -125 q94.5 -39 197.5 -39 q49 0 91 8 q42 8 75 19 l55 -224 q-40 -20 -106.5 -32.5 q-66.5 -12.5 -149.5 -12.5 Z" /><glyph glyph-name="" unicode="R" d="M489 813 l197 0 q146 0 223.5 61 q77.5 61 77.5 183 q0 123 -77.5 171 q-77.5 48 -223.5 48 l-197 0 l0 -463 ZM1012 0 l-312 573 l-211 0 l0 -573 l-303 0 l0 1518 l527 0 q159 0 289 -43 q130 -43 206 -143.5 q76 -100.5 76 -274.5 q0 -171 -79 -278.5 q-79 -107.5 -210 -157.5 l355 -621 l-338 0 Z" /><glyph glyph-name="" unicode="S" d="M639 -29 q-152 0 -297 57 q-145 57 -256 165 l174 208 q80 -75 182.5 -121.5 q102.5 -46.5 202.5 -46.5 q118 0 180 47.5 q62 47.5 62 127.5 q0 56 -29.5 90.5 q-29.5 34.5 -81 60 q-51.5 25.5 -119.5 53.5 l-200 88 q-77 31 -148 84 q-71 53 -116.5 132 q-45.5 79 -45.5 190 q0 123 67.5 222 q67.5 99 186 157.5 q118.5 58.5 271.5 58.5 q133 0 259 -51.5 q126 -51.5 218 -144.5 l-154 -189 q-72 59 -150 92 q-78 33 -173 33 q-100 0 -157.5 -42 q-57.5 -42 -57.5 -118 q0 -54 32 -88.5 q32 -34.5 85.5 -60 q53.5 -25.5 117.5 -51.5 l199 -80 q138 -57 221.5 -153.5 q83.5 -96.5 83.5 -260.5 q0 -124 -66.5 -228.5 q-66.5 -104.5 -191 -167.5 q-124.5 -63 -299.5 -63 Z" /><glyph glyph-name="" unicode="T" d="M487 0 l0 1264 l-426 0 l0 254 l1158 0 l0 -254 l-428 0 l0 -1264 l-304 0 Z" /><glyph glyph-name="" unicode="U" d="M770 -29 q-280 0 -435 167.5 q-155 167.5 -155 543.5 l0 836 l301 0 l0 -863 q0 -157 35 -249.5 q35 -92.5 100 -132.5 q65 -40 154 -40 q88 0 154 40 q66 40 102.5 132.5 q36.5 92.5 36.5 249.5 l0 863 l291 0 l0 -836 q0 -376 -153.5 -543.5 q-153.5 -167.5 -430.5 -167.5 Z" /><glyph glyph-name="" unicode="V" d="M453 0 l-463 1518 l319 0 l199 -740 q35 -126 63.5 -244 q28.5 -118 63.5 -245 l10 0 q37 127 65.5 245 q28.5 118 63.5 244 l197 740 l307 0 l-463 -1518 l-362 0 Z" /><glyph glyph-name="" unicode="W" d="M330 0 l-291 1518 l309 0 l117 -742 q18 -120 36.5 -240 q18.5 -120 35.5 -243 l8 0 q23 123 47 244 q24 121 49 239 l174 742 l260 0 l176 -742 q26 -117 49 -238.5 q23 -121.5 48 -244.5 l10 0 q17 123 34 244 q17 121 33 239 l121 742 l287 0 l-281 -1518 l-376 0 l-170 752 q-19 87 -35.5 174.5 q-16.5 87.5 -28.5 173.5 l-8 0 q-17 -86 -34 -173.5 q-17 -87.5 -34 -174.5 l-166 -752 l-370 0 Z" /><glyph glyph-name="" unicode="X" d="M31 0 l424 780 l-402 738 l338 0 l152 -316 q27 -52 53 -109.5 q26 -57.5 59 -127.5 l9 0 q27 70 52 127.5 q25 57.5 50 109.5 l143 316 l320 0 l-400 -750 l426 -768 l-335 0 l-170 336 q-28 58 -57.5 119.5 q-29.5 61.5 -61.5 130.5 l-8 0 q-30 -69 -56.5 -130.5 q-26.5 -61.5 -54.5 -119.5 l-162 -336 l-319 0 Z" /><glyph glyph-name="" unicode="Y" d="M444 0 l0 555 l-456 963 l321 0 l152 -371 q32 -85 64 -166.5 q32 -81.5 67 -169.5 l8 0 q35 88 68 169.5 q33 81.5 67 166.5 l152 371 l315 0 l-457 -963 l0 -555 l-301 0 Z" /><glyph glyph-name="" unicode="Z" d="M88 0 l0 182 l707 1082 l-639 0 l0 254 l1011 0 l0 -183 l-706 -1081 l713 0 l0 -254 l-1086 0 Z" /><glyph glyph-name="" unicode="[" d="M207 -352 l0 1997 l469 0 l0 -162 l-244 0 l0 -1676 l244 0 l0 -159 l-469 0 Z" /><glyph glyph-name="" unicode="\" d="M565 -371 l-508 2022 l199 0 l510 -2022 l-201 0 Z" /><glyph glyph-name="" unicode="]" d="M98 -352 l0 159 l244 0 l0 1676 l-244 0 l0 162 l467 0 l0 -1997 l-467 0 Z" /><glyph glyph-name="" unicode="^" d="M123 643 l358 916 l246 0 l356 -916 l-249 0 l-117 328 l-109 313 l-10 0 l-106 -313 l-119 -328 l-250 0 Z" /><glyph glyph-name="" unicode="_" d="M29 -317 l0 174 l1104 0 l0 -174 l-1104 0 Z" /><glyph glyph-name="" unicode="`" d="M633 1331 l-406 363 l205 198 l348 -415 l-147 -146 Z" /><glyph glyph-name="" unicode="a" d="M442 -29 q-102 0 -178 44.5 q-76 44.5 -118 122 q-42 77.5 -42 175.5 q0 183 157 284 q157 101 503 138 q-3 85 -46 142 q-43 57 -149 57 q-80 0 -157.5 -31.5 q-77.5 -31.5 -157.5 -79.5 l-107 201 q100 61 221 106.5 q121 45.5 257 45.5 q218 0 329 -128.5 q111 -128.5 111 -377.5 l0 -670 l-246 0 l-20 123 l-11 0 q-73 -66 -159.5 -109 q-86.5 -43 -186.5 -43 ZM543 207 q64 0 115.5 29.5 q51.5 29.5 105.5 82.5 l0 230 q-211 -25 -292 -80 q-81 -55 -81 -133 q0 -68 43 -98.5 q43 -30.5 109 -30.5 Z" /><glyph glyph-name="" unicode="b" d="M737 -29 q-162 0 -305 150 l-10 0 l-25 -121 l-235 0 l0 1634 l301 0 l0 -411 l-10 -185 q69 62 152 100 q83 38 167 38 q141 0 242.5 -72.5 q101.5 -72.5 156 -203.5 q54.5 -131 54.5 -306 q0 -198 -69.5 -337 q-69.5 -139 -181 -212.5 q-111.5 -73.5 -237.5 -73.5 ZM672 219 q101 0 172 90.5 q71 90.5 71 278.5 q0 164 -54.5 252 q-54.5 88 -172.5 88 q-58 0 -112.5 -29.5 q-54.5 -29.5 -112.5 -87.5 l0 -506 q52 -47 106.5 -66.5 q54.5 -19.5 102.5 -19.5 Z" /><glyph glyph-name="" unicode="c" d="M649 -29 q-157 0 -284 71.5 q-127 71.5 -201 206 q-74 134.5 -74 324.5 q0 191 81.5 325.5 q81.5 134.5 215 206 q133.5 71.5 289.5 71.5 q106 0 188.5 -36.5 q82.5 -36.5 145.5 -92.5 l-144 -191 q-43 35 -84.5 54.5 q-41.5 19.5 -89.5 19.5 q-132 0 -213.5 -97.5 q-81.5 -97.5 -81.5 -259.5 q0 -162 80.5 -259 q80.5 -97 204.5 -97 q63 0 119.5 26 q56.5 26 103.5 66 l119 -198 q-81 -73 -180.5 -106.5 q-99.5 -33.5 -194.5 -33.5 Z" /><glyph glyph-name="" unicode="d" d="M565 -29 q-215 0 -342 160 q-127 160 -127 442 q0 187 69 322 q69 135 179.5 208 q110.5 73 233.5 73 q96 0 162.5 -34.5 q66.5 -34.5 127.5 -90.5 l-10 180 l0 403 l301 0 l0 -1634 l-246 0 l-22 119 l-8 0 q-63 -63 -146 -105.5 q-83 -42.5 -172 -42.5 ZM643 219 q60 0 113 27 q53 27 102 92 l0 504 q-52 47 -106 66.5 q-54 19.5 -109 19.5 q-97 0 -167 -90 q-70 -90 -70 -260 q0 -180 61.5 -269.5 q61.5 -89.5 175.5 -89.5 Z" /><glyph glyph-name="" unicode="e" d="M662 -29 q-161 0 -290.5 72 q-129.5 72 -205.5 206.5 q-76 134.5 -76 323.5 q0 139 44.5 250.5 q44.5 111.5 120.5 190 q76 78.5 171.5 120.5 q95.5 42 198.5 42 q157 0 264 -71 q107 -71 161 -195 q54 -124 54 -283 q0 -89 -14 -140 l-707 0 q18 -139 104 -210.5 q86 -71.5 215 -71.5 q70 0 131.5 19.5 q61.5 19.5 124.5 58.5 l103 -185 q-85 -58 -189.5 -92.5 q-104.5 -34.5 -209.5 -34.5 ZM377 690 l469 0 q0 115 -52.5 183.5 q-52.5 68.5 -164.5 68.5 q-91 0 -162.5 -63.5 q-71.5 -63.5 -89.5 -188.5 Z" /><glyph glyph-name="" unicode="f" d="M57 909 l0 224 l156 12 l0 94 q0 119 39.5 215 q39.5 96 127 152.5 q87.5 56.5 230.5 56.5 q68 0 124.5 -12 q56.5 -12 94.5 -27 l-55 -225 q-56 26 -123 26 q-66 0 -102.5 -42.5 q-36.5 -42.5 -36.5 -137.5 l0 -98 l219 0 l0 -238 l-219 0 l0 -909 l-299 0 l0 909 l-156 0 Z" /><glyph glyph-name="" unicode="g" d="M565 -498 q-135 0 -243 31.5 q-108 31.5 -171 97 q-63 65.5 -63 166.5 q0 148 164 238 l0 10 q-46 29 -75.5 75.5 q-29.5 46.5 -29.5 119.5 q0 63 37.5 119.5 q37.5 56.5 89.5 93.5 l0 8 q-59 43 -106 121 q-47 78 -47 180 q0 134 65 226 q65 92 170 140 q105 48 226 48 q50 0 94.5 -8.5 q44.5 -8.5 81.5 -20.5 l411 0 l0 -221 l-194 0 q21 -29 36 -75 q15 -46 15 -99 q0 -130 -59.5 -216.5 q-59.5 -86.5 -160 -130 q-100.5 -43.5 -224.5 -43.5 q-33 0 -71 6.5 q-38 6.5 -77 20.5 q-21 -20 -35 -41.5 q-14 -21.5 -14 -58.5 q0 -45 40 -68.5 q40 -23.5 140 -23.5 l197 0 q207 0 317.5 -68.5 q110.5 -68.5 110.5 -218.5 q0 -116 -76.5 -208 q-76.5 -92 -216.5 -146 q-140 -54 -332 -54 ZM582 549 q76 0 129 55 q53 55 53 158 q0 100 -53 153.5 q-53 53.5 -129 53.5 q-76 0 -127.5 -53.5 q-51.5 -53.5 -51.5 -153.5 q0 -103 52.5 -158 q52.5 -55 126.5 -55 ZM610 -305 q131 0 211 49 q80 49 80 115 q0 61 -49 82.5 q-49 21.5 -141 21.5 l-142 0 q-97 0 -157 14 q-74 -59 -74 -135 q0 -70 74 -108.5 q74 -38.5 198 -38.5 Z" /><glyph glyph-name="" unicode="h" d="M162 0 l0 1634 l301 0 l0 -411 l-14 -215 q67 64 155 116 q88 52 205 52 q186 0 270 -122.5 q84 -122.5 84 -338.5 l0 -715 l-301 0 l0 678 q0 134 -38.5 187 q-38.5 53 -123.5 53 q-69 0 -121.5 -33.5 q-52.5 -33.5 -115.5 -96.5 l0 -788 l-301 0 Z" /><glyph glyph-name="" unicode="i" d="M162 0 l0 1147 l301 0 l0 -1147 l-301 0 ZM313 1333 q-80 0 -127 44.5 q-47 44.5 -47 119.5 q0 74 47 119 q47 45 127 45 q77 0 125.5 -45 q48.5 -45 48.5 -119 q0 -75 -48.5 -119.5 q-48.5 -44.5 -125.5 -44.5 Z" /><glyph glyph-name="" unicode="j" d="M82 -469 q-66 0 -112.5 9.5 q-46.5 9.5 -80.5 23.5 l54 221 q23 -8 46.5 -12 q23.5 -4 49.5 -4 q72 0 98.5 48.5 q26.5 48.5 26.5 145.5 l0 1184 l303 0 l0 -1176 q0 -124 -36 -223.5 q-36 -99.5 -120.5 -158 q-84.5 -58.5 -228.5 -58.5 ZM313 1333 q-76 0 -125 44.5 q-49 44.5 -49 119.5 q0 74 49 119 q49 45 125 45 q79 0 127.5 -45 q48.5 -45 48.5 -119 q0 -75 -48.5 -119.5 q-48.5 -44.5 -127.5 -44.5 Z" /><glyph glyph-name="" unicode="k" d="M162 0 l0 1634 l297 0 l0 -979 l8 0 l391 492 l330 0 l-393 -473 l430 -674 l-328 0 l-279 477 l-159 -186 l0 -291 l-297 0 Z" /><glyph glyph-name="" unicode="l" d="M446 -29 q-158 0 -221 95.5 q-63 95.5 -63 255.5 l0 1312 l301 0 l0 -1325 q0 -52 19 -72 q19 -20 40 -20 q9 0 17.5 0.5 q8.5 0.5 23.5 3.5 l37 -223 q-26 -11 -63.5 -19 q-37.5 -8 -90.5 -8 Z" /><glyph glyph-name="" unicode="m" d="M162 0 l0 1147 l246 0 l22 -154 l6 0 q72 76 156 129.5 q84 53.5 196 53.5 q123 0 198.5 -53 q75.5 -53 115.5 -148 q80 83 168 142 q88 59 198 59 q183 0 269 -122.5 q86 -122.5 86 -338.5 l0 -715 l-299 0 l0 678 q0 134 -39.5 187 q-39.5 53 -120.5 53 q-101 0 -221 -130 l0 -788 l-299 0 l0 678 q0 134 -39.5 187 q-39.5 53 -122.5 53 q-102 0 -219 -130 l0 -788 l-301 0 Z" /><glyph glyph-name="" unicode="n" d="M162 0 l0 1147 l246 0 l22 -152 l6 0 q75 74 165.5 127.5 q90.5 53.5 207.5 53.5 q186 0 270 -122.5 q84 -122.5 84 -338.5 l0 -715 l-301 0 l0 678 q0 134 -38.5 187 q-38.5 53 -123.5 53 q-69 0 -121.5 -33.5 q-52.5 -33.5 -115.5 -96.5 l0 -788 l-301 0 Z" /><glyph glyph-name="" unicode="o" d="M641 -29 q-144 0 -270 71.5 q-126 71.5 -203.5 206 q-77.5 134.5 -77.5 324.5 q0 191 77.5 325.5 q77.5 134.5 203.5 206 q126 71.5 270 71.5 q143 0 269 -71.5 q126 -71.5 204 -206 q78 -134.5 78 -325.5 q0 -190 -78 -324.5 q-78 -134.5 -204 -206 q-126 -71.5 -269 -71.5 ZM641 217 q117 0 180.5 97 q63.5 97 63.5 259 q0 162 -63.5 259.5 q-63.5 97.5 -180.5 97.5 q-118 0 -181 -97.5 q-63 -97.5 -63 -259.5 q0 -162 63 -259 q63 -97 181 -97 Z" /><glyph glyph-name="" unicode="p" d="M162 -440 l0 1587 l246 0 l22 -119 l6 0 q72 62 158 105 q86 43 180 43 q140 0 241 -73 q101 -73 155.5 -204 q54.5 -131 54.5 -307 q0 -197 -69.5 -335.5 q-69.5 -138.5 -181 -212 q-111.5 -73.5 -237.5 -73.5 q-75 0 -147.5 32.5 q-72.5 32.5 -136.5 92.5 l10 -186 l0 -350 l-301 0 ZM672 219 q101 0 172 90.5 q71 90.5 71 278.5 q0 164 -54.5 252 q-54.5 88 -172.5 88 q-58 0 -112.5 -29.5 q-54.5 -29.5 -112.5 -87.5 l0 -506 q55 -47 108 -66.5 q53 -19.5 101 -19.5 Z" /><glyph glyph-name="" unicode="q" d="M858 -440 l0 364 l10 185 q-60 -60 -140 -99 q-80 -39 -163 -39 q-215 0 -342 160 q-127 160 -127 442 q0 187 69 322 q69 135 179.5 208 q110.5 73 233.5 73 q95 0 168.5 -35 q73.5 -35 142.5 -107 l8 0 l27 113 l235 0 l0 -1587 l-301 0 ZM643 219 q60 0 113 27 q53 27 102 92 l0 504 q-52 47 -106 66.5 q-54 19.5 -109 19.5 q-97 0 -167 -90 q-70 -90 -70 -260 q0 -180 61.5 -269.5 q61.5 -89.5 175.5 -89.5 Z" /><glyph glyph-name="" unicode="r" d="M162 0 l0 1147 l246 0 l22 -203 l6 0 q63 112 150 172 q87 60 176 60 q47 0 77.5 -7 q30.5 -7 55.5 -18 l-49 -260 q-31 9 -58.5 13.5 q-27.5 4.5 -64.5 4.5 q-66 0 -138.5 -50.5 q-72.5 -50.5 -121.5 -174.5 l0 -684 l-301 0 Z" /><glyph glyph-name="" unicode="s" d="M489 -29 q-115 0 -232.5 44.5 q-117.5 44.5 -203.5 115.5 l137 191 q77 -59 151.5 -92 q74.5 -33 156.5 -33 q86 0 126 33.5 q40 33.5 40 86.5 q0 43 -35 73 q-35 30 -90 53 q-55 23 -115 46 q-73 28 -143.5 69.5 q-70.5 41.5 -117 106 q-46.5 64.5 -46.5 160.5 q0 103 52.5 182 q52.5 79 148.5 124 q96 45 227 45 q124 0 221 -43 q97 -43 168 -99 l-135 -182 q-62 43 -122.5 70.5 q-60.5 27.5 -123.5 27.5 q-78 0 -116 -30.5 q-38 -30.5 -38 -79.5 q0 -63 68 -94.5 q68 -31.5 160 -65.5 q75 -29 149 -69 q74 -40 122 -106 q48 -66 48 -171 q0 -102 -52 -184 q-52 -82 -154 -130.5 q-102 -48.5 -251 -48.5 Z" /><glyph glyph-name="" unicode="t" d="M582 -29 q-137 0 -219.5 54.5 q-82.5 54.5 -120 150.5 q-37.5 96 -37.5 223 l0 510 l-162 0 l0 224 l178 14 l35 309 l248 0 l0 -309 l284 0 l0 -238 l-284 0 l0 -508 q0 -192 158 -192 q27 0 58 7.5 q31 7.5 54 16.5 l51 -219 q-47 -13 -107.5 -28 q-60.5 -15 -135.5 -15 Z" /><glyph glyph-name="" unicode="u" d="M504 -29 q-186 0 -270 122.5 q-84 122.5 -84 338.5 l0 715 l299 0 l0 -678 q0 -134 39.5 -187 q39.5 -53 123.5 -53 q69 0 121 33.5 q52 33.5 111 110.5 l0 774 l301 0 l0 -1147 l-246 0 l-22 166 l-9 0 q-73 -88 -159.5 -141.5 q-86.5 -53.5 -204.5 -53.5 Z" /><glyph glyph-name="" unicode="v" d="M420 0 l-391 1147 l303 0 l166 -572 q24 -84 46.5 -172 q22.5 -88 47.5 -176 l10 0 q23 88 46 176 q23 88 46 172 l168 572 l289 0 l-383 -1147 l-348 0 Z" /><glyph glyph-name="" unicode="w" d="M352 0 l-295 1147 l299 0 l127 -565 q14 -85 27 -168.5 q13 -83.5 27 -167.5 l10 0 q17 84 33.5 168.5 q16.5 84.5 37.5 167.5 l140 565 l266 0 l143 -565 q20 -85 37 -168.5 q17 -83.5 37 -167.5 l8 0 q16 84 29 167.5 q13 83.5 29 168.5 l123 565 l280 0 l-283 -1147 l-354 0 l-121 500 q-18 81 -34 162 q-16 81 -33 174 l-11 0 q-15 -93 -29.5 -174.5 q-14.5 -81.5 -31.5 -161.5 l-117 -500 l-344 0 Z" /><glyph glyph-name="" unicode="x" d="M33 0 l358 596 l-336 551 l324 0 l115 -203 q24 -49 50 -98 q26 -49 52 -96 l8 0 q20 47 42 96 q22 49 42 98 l96 203 l312 0 l-336 -584 l358 -563 l-323 0 l-127 211 q-26 51 -54.5 101 q-28.5 50 -56.5 98 l-10 0 q-25 -48 -48.5 -98 q-23.5 -50 -47.5 -101 l-105 -211 l-313 0 Z" /><glyph glyph-name="" unicode="y" d="M262 -459 q-51 0 -87.5 6 q-36.5 6 -70.5 15 l56 231 q15 -4 37.5 -9 q22.5 -5 42.5 -5 q87 0 138.5 49.5 q51.5 49.5 76.5 124.5 l20 70 l-446 1124 l303 0 l182 -533 q26 -76 49 -158 q23 -82 47 -165 l11 0 q18 80 39 162 q21 82 42 161 l158 533 l289 0 l-408 -1182 q-50 -135 -112 -229.5 q-62 -94.5 -150.5 -144.5 q-88.5 -50 -216.5 -50 Z" /><glyph glyph-name="" unicode="z" d="M84 0 l0 160 l514 749 l-457 0 l0 238 l832 0 l0 -162 l-514 -747 l532 0 l0 -238 l-907 0 Z" /><glyph glyph-name="" unicode="{" d="M541 -352 q-149 0 -219 68.5 q-70 68.5 -70 254.5 q0 83 5 147.5 q5 64.5 10 126 q5 61.5 5 136.5 q0 66 -41.5 119.5 q-41.5 53.5 -154.5 56.5 l0 178 q113 3 154.5 57 q41.5 54 41.5 117 q0 75 -5 137 q-5 62 -10 126.5 q-5 64.5 -5 146.5 q0 187 70 256.5 q70 69.5 219 69.5 l135 0 l0 -162 l-47 0 q-80 0 -106.5 -37.5 q-26.5 -37.5 -26.5 -138.5 q0 -97 4 -188.5 q4 -91.5 4 -200.5 q0 -128 -39 -187.5 q-39 -59.5 -123 -81.5 l0 -8 q84 -21 123 -81 q39 -60 39 -187 q0 -108 -4 -199.5 q-4 -91.5 -4 -189.5 q0 -100 26.5 -138.5 q26.5 -38.5 106.5 -38.5 l47 0 l0 -159 l-135 0 Z" /><glyph glyph-name="" unicode="|" d="M205 -582 l0 2325 l196 0 l0 -2325 l-196 0 Z" /><glyph glyph-name="" unicode="}" d="M98 -352 l0 159 l47 0 q79 0 106.5 38.5 q27.5 38.5 27.5 138.5 q0 98 -5.5 189.5 q-5.5 91.5 -5.5 199.5 q0 127 40 187 q40 60 124 81 l0 8 q-84 22 -124 81.5 q-40 59.5 -40 187.5 q0 109 5.5 200.5 q5.5 91.5 5.5 188.5 q0 101 -27.5 138.5 q-27.5 37.5 -106.5 37.5 l-47 0 l0 162 l133 0 q149 0 220 -69.5 q71 -69.5 71 -256.5 q0 -82 -5 -146.5 q-5 -64.5 -10 -126.5 q-5 -62 -5 -137 q0 -63 41.5 -117 q41.5 -54 156.5 -57 l0 -178 q-115 -3 -156.5 -56.5 q-41.5 -53.5 -41.5 -119.5 q0 -75 5 -136.5 q5 -61.5 10 -126 q5 -64.5 5 -147.5 q0 -186 -71 -254.5 q-71 -68.5 -220 -68.5 l-133 0 Z" /><glyph glyph-name="" unicode="~" d="M803 569 q-71 0 -125 27.5 q-54 27.5 -99 64 q-45 36.5 -87.5 64 q-42.5 27.5 -90.5 27.5 q-95 0 -172 -138 l-157 119 q80 126 164.5 179 q84.5 53 169.5 53 q70 0 124 -27.5 q54 -27.5 99 -63 q45 -35.5 87.5 -63 q42.5 -27.5 90.5 -27.5 q96 0 170 136 l160 -121 q-80 -125 -165.5 -177.5 q-85.5 -52.5 -168.5 -52.5 Z" /><glyph glyph-name="" unicode="¡" d="M227 -410 l11 285 l43 754 l196 0 l43 -754 l10 -285 l-303 0 ZM379 782 q-80 0 -133 57 q-53 57 -53 140 q0 84 53 140.5 q53 56.5 133 56.5 q81 0 133.5 -56.5 q52.5 -56.5 52.5 -140.5 q0 -83 -52.5 -140 q-52.5 -57 -133.5 -57 Z" /><glyph glyph-name="" unicode="¢" d="M631 -90 l0 227 q-223 29 -356.5 178 q-133.5 149 -133.5 400 q0 164 64 284 q64 120 174.5 194 q110.5 74 251.5 97 l0 232 l170 0 l0 -224 q92 -7 166 -43.5 q74 -36.5 127 -87.5 l-140 -186 q-73 68 -153 74 l0 -680 q55 7 102 33 q47 26 84 57 l125 -189 q-68 -61 -149 -95.5 q-81 -34.5 -162 -45.5 l0 -225 l-170 0 ZM631 395 l0 639 q-97 -35 -148 -119 q-51 -84 -51 -200 q0 -117 52 -200.5 q52 -83.5 147 -119.5 Z" /><glyph glyph-name="" unicode="£" d="M123 639 l0 178 l156 12 l24 0 q-18 54 -31.5 107.5 q-13.5 53.5 -13.5 105.5 q0 144 61 247.5 q61 103.5 168.5 159.5 q107.5 56 247.5 56 q129 0 223.5 -49.5 q94.5 -49.5 167.5 -136.5 l-165 -162 q-42 48 -89.5 75.5 q-47.5 27.5 -107.5 27.5 q-101 0 -160 -59.5 q-59 -59.5 -59 -174.5 q0 -49 9.5 -98 q9.5 -49 23.5 -99 l354 0 l0 -190 l-314 0 q7 -40 7 -84 q0 -94 -26.5 -160.5 q-26.5 -66.5 -86.5 -132.5 l0 -8 l614 0 l0 -254 l-1011 0 l0 186 q109 51 178 149 q69 98 69 224 q0 20 -1.5 40 q-1.5 20 -6.5 40 l-231 0 Z" /><glyph glyph-name="" unicode="¤" d="M203 205 l-152 153 l144 146 q-80 107 -80 262 q0 151 78 260 l-142 145 l152 152 l159 -160 q54 31 116 48.5 q62 17.5 126 17.5 q63 0 125.5 -17.5 q62.5 -17.5 116.5 -48.5 l160 160 l151 -152 l-145 -145 q82 -110 82 -260 q0 -78 -22 -143 q-22 -65 -60 -119 l145 -146 l-151 -153 l-162 164 q-56 -33 -117 -48.5 q-61 -15.5 -123 -15.5 q-134 0 -239 64 l-162 -164 ZM604 516 q91 0 156 68 q65 68 65 182 q0 112 -65 181 q-65 69 -156 69 q-94 0 -158.5 -69 q-64.5 -69 -64.5 -181 q0 -114 64.5 -182 q64.5 -68 158.5 -68 Z" /><glyph glyph-name="" unicode="¥" d="M455 0 l0 348 l-363 0 l0 150 l363 0 l0 133 l-363 0 l0 149 l293 0 l-350 697 l311 0 l135 -332 q29 -77 59 -154 q30 -77 64 -155 l8 0 q31 79 62 156.5 q31 77.5 61 152.5 l135 332 l304 0 l-355 -697 l297 0 l0 -149 l-364 0 l0 -133 l364 0 l0 -150 l-364 0 l0 -348 l-297 0 Z" /><glyph glyph-name="" unicode="¦" d="M205 711 l0 1032 l196 0 l0 -1032 l-196 0 ZM205 -582 l0 1063 l196 0 l0 -1063 l-196 0 Z" /><glyph glyph-name="" unicode="§" d="M1391 1337 q-51 28 -131 51 q-80 23 -189 23 q-106 0 -163.5 -38.5 q-57.5 -38.5 -57.5 -92.5 q0 -65 69.5 -103 q69.5 -38 196.5 -75 q126 -37 222.5 -85.5 q96.5 -48.5 151 -122.5 q54.5 -74 54.5 -185 q0 -91 -42 -164.5 q-42 -73.5 -109 -122.5 q32 -26 64 -82 q32 -56 32 -131 q0 -98 -44.5 -168 q-44.5 -70 -118 -115 q-73.5 -45 -161.5 -66.5 q-88 -21.5 -176 -21.5 q-110 0 -221.5 23 q-111.5 23 -196.5 80 l64 190 q51 -31 144.5 -64.5 q93.5 -33.5 207.5 -33.5 q106 0 169 40 q63 40 63 107 q0 62 -61 104.5 q-61 42.5 -210 88.5 q-128 39 -229 87.5 q-101 48.5 -159 120.5 q-58 72 -58 181 q0 72 43.5 150 q43.5 78 134.5 130 q-37 31 -63.5 88.5 q-26.5 57.5 -26.5 118.5 q0 111 63 191 q63 80 173.5 123 q110.5 43 252.5 43 q106 0 198.5 -20.5 q92.5 -20.5 166.5 -57.5 l-53 -191 ZM737 815 q0 -55 47.5 -101 q47.5 -46 178.5 -89 q96 -34 167.5 -59 q71.5 -25 106.5 -44 q34 22 53 60 q19 38 19 80 q0 63 -52 106 q-52 43 -130.5 73 q-78.5 30 -160.5 56.5 q-82 26.5 -143 56.5 q-40 -26 -63 -61.5 q-23 -35.5 -23 -77.5 Z" /><glyph glyph-name="" unicode="¨" d="M395 1333 q-66 0 -108.5 44.5 q-42.5 44.5 -42.5 107.5 q0 64 42.5 108.5 q42.5 44.5 108.5 44.5 q68 0 111 -44.5 q43 -44.5 43 -108.5 q0 -63 -43 -107.5 q-43 -44.5 -111 -44.5 ZM885 1333 q-66 0 -109 44.5 q-43 44.5 -43 107.5 q0 64 43 108.5 q43 44.5 109 44.5 q67 0 110 -44.5 q43 -44.5 43 -108.5 q0 -63 -43 -107.5 q-43 -44.5 -110 -44.5 Z" /><glyph glyph-name="" unicode="©" d="M868 -20 q-152 0 -289.5 53.5 q-137.5 53.5 -243 154.5 q-105.5 101 -166 244 q-60.5 143 -60.5 322 q0 179 60.5 321.5 q60.5 142.5 166 242 q105.5 99.5 243 152 q137.5 52.5 289.5 52.5 q154 0 291.5 -53 q137.5 -53 243.5 -152.5 q106 -99.5 166.5 -241.5 q60.5 -142 60.5 -321 q0 -179 -60.5 -322 q-60.5 -143 -166.5 -244 q-106 -101 -243.5 -154.5 q-137.5 -53.5 -291.5 -53.5 ZM868 109 q172 0 312.5 80.5 q140.5 80.5 223.5 225.5 q83 145 83 339 q0 193 -83 336.5 q-83 143.5 -223.5 223 q-140.5 79.5 -312.5 79.5 q-171 0 -310.5 -79.5 q-139.5 -79.5 -222.5 -223 q-83 -143.5 -83 -336.5 q0 -194 83 -339 q83 -145 222.5 -225.5 q139.5 -80.5 310.5 -80.5 ZM895 295 q-127 0 -227 55.5 q-100 55.5 -157.5 157.5 q-57.5 102 -57.5 244 q0 136 62.5 236 q62.5 100 163.5 155 q101 55 218 55 q104 0 176 -40 q72 -40 127 -97 l-115 -129 q-41 40 -80 62 q-39 22 -90 22 q-116 0 -178.5 -76 q-62.5 -76 -62.5 -188 q0 -128 62.5 -202.5 q62.5 -74.5 166.5 -74.5 q63 0 108 24.5 q45 24.5 93 59.5 l98 -141 q-66 -54 -139.5 -88.5 q-73.5 -34.5 -167.5 -34.5 Z" /><glyph glyph-name="" unicode="ª" d="M305 864 q-106 0 -168.5 67 q-62.5 67 -62.5 163 q0 123 104 189.5 q104 66.5 336 86.5 q-3 57 -30.5 90 q-27.5 33 -90.5 33 q-52 0 -107.5 -21.5 q-55.5 -21.5 -109.5 -50.5 l-78 142 q72 43 156.5 71.5 q84.5 28.5 173.5 28.5 q146 0 223.5 -84 q77.5 -84 77.5 -252 l0 -442 l-172 0 l-20 80 l-9 0 q-44 -43 -99.5 -72 q-55.5 -29 -123.5 -29 ZM377 1030 q37 0 69.5 18 q32.5 18 67.5 52 l0 147 q-134 -15 -184.5 -51 q-50.5 -36 -50.5 -84 q0 -82 98 -82 Z" /><glyph glyph-name="" unicode="«" d="M424 137 l-311 342 l0 213 l311 342 l115 -94 l-260 -354 l260 -359 l-115 -90 ZM844 137 l-314 342 l0 213 l314 342 l112 -94 l-260 -354 l260 -359 l-112 -90 Z" /><glyph glyph-name="" unicode="¬" d="M905 225 l0 434 l-825 0 l0 215 l1048 0 l0 -649 l-223 0 Z" /><glyph glyph-name="" unicode="®" d="M524 729 q-125 0 -228 59.5 q-103 59.5 -164.5 164.5 q-61.5 105 -61.5 241 q0 136 61.5 241.5 q61.5 105.5 164.5 165.5 q103 60 228 60 q125 0 228 -60 q103 -60 164 -165.5 q61 -105.5 61 -241.5 q0 -136 -61 -241 q-61 -105 -164 -164.5 q-103 -59.5 -228 -59.5 ZM524 834 q98 0 174 44.5 q76 44.5 120 125.5 q44 81 44 190 q0 109 -44 190 q-44 81 -120 125.5 q-76 44.5 -174 44.5 q-97 0 -173.5 -44.5 q-76.5 -44.5 -120.5 -125.5 q-44 -81 -44 -190 q0 -109 44 -190 q44 -81 120.5 -125.5 q76.5 -44.5 173.5 -44.5 ZM342 967 l0 463 l199 0 q76 0 131 -37 q55 -37 55 -117 q0 -40 -22 -75 q-22 -35 -62 -50 l98 -184 l-129 0 l-73 147 l-74 0 l0 -147 l-123 0 ZM465 1200 l49 0 q40 0 60 19.5 q20 19.5 20 48.5 q0 29 -18 47 q-18 18 -58 18 l-53 0 l0 -133 Z" /><glyph glyph-name="" unicode="¯" d="M307 1380 l0 195 l668 0 l0 -195 l-668 0 Z" /><glyph glyph-name="" unicode="°" d="M416 944 q-90 0 -164 41.5 q-74 41.5 -118 114 q-44 72.5 -44 168.5 q0 95 44 168.5 q44 73.5 118 115 q74 41.5 164 41.5 q88 0 161 -41.5 q73 -41.5 116.5 -115 q43.5 -73.5 43.5 -168.5 q0 -96 -43.5 -168.5 q-43.5 -72.5 -116.5 -114 q-73 -41.5 -161 -41.5 ZM416 1092 q70 0 114.5 48.5 q44.5 48.5 44.5 127.5 q0 78 -44.5 127 q-44.5 49 -114.5 49 q-72 0 -117 -49 q-45 -49 -45 -127 q0 -79 45 -127.5 q45 -48.5 117 -48.5 Z" /><glyph glyph-name="" unicode="±" d="M1751 938 l-623 0 l0 -518 l-208 0 l0 518 l-623 0 l0 207 l623 0 l0 518 l208 0 l0 -518 l623 0 l0 -207 ZM1767 227 l0 -209 l-1470 0 l0 209 l1470 0 Z" /><glyph glyph-name="" unicode="²" d="M109 885 l0 121 q184 155 294.5 269.5 q110.5 114.5 110.5 203.5 q0 72 -37 113.5 q-37 41.5 -104 41.5 q-51 0 -94 -31 q-43 -31 -80 -83 l-127 114 q64 89 148 137 q84 48 186 48 q145 0 235 -79 q90 -79 90 -224 q0 -116 -78.5 -221.5 q-78.5 -105.5 -187.5 -223.5 l303 0 l0 -186 l-659 0 Z" /><glyph glyph-name="" unicode="³" d="M428 856 q-117 0 -209.5 48 q-92.5 48 -148.5 134 l137 107 q80 -117 201 -117 q59 0 102 32 q43 32 43 89 q0 131 -236 131 l0 131 q94 0 147.5 33.5 q53.5 33.5 53.5 93.5 q0 51 -34 81 q-34 30 -93 30 q-46 0 -85.5 -28.5 q-39.5 -28.5 -72.5 -70.5 l-127 115 q70 77 144.5 115.5 q74.5 38.5 177.5 38.5 q84 0 154.5 -30 q70.5 -30 112.5 -86 q42 -56 42 -134 q0 -75 -37 -126.5 q-37 -51.5 -102 -86.5 q72 -26 123 -82 q51 -56 51 -139 q0 -84 -47.5 -147 q-47.5 -63 -126 -97.5 q-78.5 -34.5 -170.5 -34.5 Z" /><glyph glyph-name="" unicode="´" d="M649 1331 l-149 146 l350 415 l205 -198 l-406 -363 Z" /><glyph glyph-name="" unicode="µ" d="M162 -412 l0 1559 l301 0 l0 -678 q0 -129 37.5 -184.5 q37.5 -55.5 122.5 -55.5 q63 0 116 36 q53 36 107 134 l0 748 l303 0 q-3 -140 -8 -292 q-5 -152 -9 -293 q-4 -141 -4 -249 q0 -55 26.5 -75.5 q26.5 -20.5 72.5 -20.5 q34 0 71 14 l37 -223 q-33 -15 -75.5 -26 q-42.5 -11 -108.5 -11 q-227 0 -272 201 l-7 0 q-47 -94 -115.5 -142 q-68.5 -48 -148.5 -48 q-49 0 -91 13 q-42 13 -75 54 q1 -92 3.5 -165 q2.5 -73 7.5 -143 q5 -70 14 -153 l-305 0 Z" /><glyph glyph-name="" unicode="¶" d="M891 614 q-53 0 -121.5 25.5 q-68.5 25.5 -133 79 q-64.5 53.5 -107.5 137 q-43 83.5 -46 199.5 q-1 93 28 187 q29 94 103 171.5 q74 77.5 204 124.5 q130 47 331 47 q104 0 180 -6 q76 -6 127 -16 l0 -1678 l-192 0 l0 1510 l-166 0 l0 -1510 l-193 0 l0 729 l-14 0 Z" /><glyph glyph-name="" unicode="¸" d="M422 -549 l-25 127 q139 9 190.5 32.5 q51.5 23.5 51.5 74.5 q0 36 -37 61.5 q-37 25.5 -141 40.5 l110 221 l179 0 l-66 -151 q83 -20 128.5 -59 q45.5 -39 45.5 -111 q0 -116 -114.5 -171.5 q-114.5 -55.5 -321.5 -64.5 Z" /><glyph glyph-name="" unicode="¹" d="M387 885 l0 669 l-203 0 l0 138 q89 13 142 36.5 q53 23.5 108 63.5 l178 0 l0 -907 l-225 0 Z" /><glyph glyph-name="" unicode="º" d="M430 864 q-98 0 -183 48 q-85 48 -137.5 137 q-52.5 89 -52.5 213 q0 126 52.5 215.5 q52.5 89.5 137.5 137.5 q85 48 183 48 q97 0 181.5 -48 q84.5 -48 137 -137.5 q52.5 -89.5 52.5 -215.5 q0 -124 -52.5 -213 q-52.5 -89 -137 -137 q-84.5 -48 -181.5 -48 ZM430 1036 q75 0 112.5 63 q37.5 63 37.5 163 q0 104 -37.5 167.5 q-37.5 63.5 -112.5 63.5 q-77 0 -114 -63.5 q-37 -63.5 -37 -167.5 q0 -100 37 -163 q37 -63 114 -63 Z" /><glyph glyph-name="" unicode="»" d="M240 137 l-115 90 l262 359 l-262 354 l115 94 l315 -342 l0 -213 l-315 -342 ZM657 137 l-112 90 l260 359 l-260 354 l112 94 l318 -342 l0 -213 l-318 -342 Z" /><glyph glyph-name="" unicode="¼" d="M324 612 l0 668 l-205 0 l0 139 q89 14 141 36.5 q52 22.5 109 62.5 l176 0 l0 -906 l-221 0 ZM428 -29 l823 1573 l181 0 l-826 -1573 l-178 0 ZM1493 0 l0 213 l-414 0 l0 111 l342 583 l271 0 l0 -547 l135 0 l0 -147 l-135 0 l0 -213 l-199 0 ZM1493 360 l0 115 l14 266 l-10 0 l-98 -182 l-109 -199 l203 0 Z" /><glyph glyph-name="" unicode="½" d="M324 612 l0 668 l-205 0 l0 139 q89 14 141 36.5 q52 22.5 109 62.5 l176 0 l0 -906 l-221 0 ZM389 -29 l823 1573 l181 0 l-826 -1573 l-178 0 ZM1180 0 l0 123 q184 155 295.5 268.5 q111.5 113.5 111.5 202.5 q0 72 -38 114 q-38 42 -105 42 q-49 0 -92.5 -32.5 q-43.5 -32.5 -81.5 -84.5 l-127 117 q64 89 149 136.5 q85 47.5 185 47.5 q146 0 235.5 -78.5 q89.5 -78.5 89.5 -224.5 q0 -117 -77.5 -221.5 q-77.5 -104.5 -188.5 -221.5 l303 0 l0 -188 l-659 0 Z" /><glyph glyph-name="" unicode="¾" d="M422 584 q-117 0 -210.5 48 q-93.5 48 -150.5 134 l138 106 q85 -118 202 -118 q60 0 102 32 q42 32 42 91 q0 133 -234 133 l0 129 q94 0 147.5 32.5 q53.5 32.5 53.5 92.5 q0 50 -34 80 q-34 30 -91 30 q-48 0 -87.5 -27.5 q-39.5 -27.5 -72.5 -68.5 l-129 115 q71 73 146 112 q75 39 178 39 q83 0 153.5 -30 q70.5 -30 113 -86 q42.5 -56 42.5 -134 q0 -73 -37.5 -125 q-37.5 -52 -101.5 -86 q72 -27 122 -83 q50 -56 50 -138 q0 -84 -47 -146.5 q-47 -62.5 -125 -97 q-78 -34.5 -170 -34.5 ZM492 -29 l823 1573 l178 0 l-825 -1573 l-176 0 ZM1518 0 l0 213 l-414 0 l0 111 l340 583 l270 0 l0 -547 l137 0 l0 -147 l-137 0 l0 -213 l-196 0 ZM1518 360 l0 115 l14 266 l-10 0 l-101 -182 l-108 -199 l205 0 Z" /><glyph glyph-name="" unicode="¿" d="M528 -438 q-124 0 -220.5 42.5 q-96.5 42.5 -152 129.5 q-55.5 87 -55.5 219 q0 87 36 155 q36 68 88 126 q52 58 102 116.5 q50 58.5 80 125.5 q30 67 20 153 l264 0 q14 -99 -12 -176 q-26 -77 -72.5 -140 q-46.5 -63 -96 -118 q-49.5 -55 -84 -109 q-34.5 -54 -34.5 -113 q0 -76 47 -122 q47 -46 127 -46 q68 0 122 32 q54 32 104 83 l167 -151 q-81 -93 -188.5 -150 q-107.5 -57 -241.5 -57 ZM557 782 q-80 0 -133 57 q-53 57 -53 140 q0 84 53 140.5 q53 56.5 133 56.5 q81 0 134.5 -56.5 q53.5 -56.5 53.5 -140.5 q0 -83 -53.5 -140 q-53.5 -57 -134.5 -57 Z" /><glyph glyph-name="" unicode="À" d="M682 1591 l-408 273 l162 196 l379 -317 l-133 -152 ZM-8 0 l485 1518 l359 0 l485 -1518 l-320 0 l-106 389 l-489 0 l-107 -389 l-307 0 ZM471 625 l360 0 l-45 166 q-35 118 -67 246 q-32 128 -66 249 l-8 0 q-31 -124 -63 -250.5 q-32 -126.5 -66 -244.5 l-45 -166 Z" /><glyph glyph-name="" unicode="Á" d="M625 1591 l-133 152 l378 317 l160 -196 l-405 -273 ZM-8 0 l485 1518 l359 0 l485 -1518 l-320 0 l-106 389 l-489 0 l-107 -389 l-307 0 ZM471 625 l360 0 l-45 166 q-35 118 -67 246 q-32 128 -66 249 l-8 0 q-31 -124 -63 -250.5 q-32 -126.5 -66 -244.5 l-45 -166 Z" /><glyph glyph-name="" unicode="Â" d="M401 1602 l-127 84 l218 256 l323 0 l217 -256 l-129 -84 l-246 198 l-10 0 l-246 -198 ZM-8 0 l485 1518 l359 0 l485 -1518 l-320 0 l-106 389 l-489 0 l-107 -389 l-307 0 ZM471 625 l360 0 l-45 166 q-35 118 -67 246 q-32 128 -66 249 l-8 0 q-31 -124 -63 -250.5 q-32 -126.5 -66 -244.5 l-45 -166 Z" /><glyph glyph-name="" unicode="Ã" d="M821 1620 q-63 0 -110 21.5 q-47 21.5 -83.5 49.5 q-36.5 28 -68 49 q-31.5 21 -63.5 21 q-37 0 -62 -28.5 q-25 -28.5 -33 -96.5 l-194 17 q9 163 85.5 241 q76.5 78 192.5 78 q63 0 110 -21 q47 -21 84 -49 q37 -28 68.5 -49.5 q31.5 -21.5 63.5 -21.5 q37 0 60.5 28.5 q23.5 28.5 31.5 96.5 l197 -14 q-8 -166 -85 -244 q-77 -78 -194 -78 ZM-8 0 l485 1518 l359 0 l485 -1518 l-320 0 l-106 389 l-489 0 l-107 -389 l-307 0 ZM471 625 l360 0 l-45 166 q-35 118 -67 246 q-32 128 -66 249 l-8 0 q-31 -124 -63 -250.5 q-32 -126.5 -66 -244.5 l-45 -166 Z" /><glyph glyph-name="" unicode="Ä" d="M399 1636 q-64 0 -105.5 42.5 q-41.5 42.5 -41.5 107.5 q0 63 41.5 106 q41.5 43 105.5 43 q66 0 108 -43 q42 -43 42 -106 q0 -65 -42 -107.5 q-42 -42.5 -108 -42.5 ZM905 1636 q-64 0 -106.5 42.5 q-42.5 42.5 -42.5 107.5 q0 63 42.5 106 q42.5 43 106.5 43 q66 0 108 -43 q42 -43 42 -106 q0 -65 -42 -107.5 q-42 -42.5 -108 -42.5 ZM-8 0 l485 1518 l359 0 l485 -1518 l-320 0 l-106 389 l-489 0 l-107 -389 l-307 0 ZM471 625 l360 0 l-45 166 q-35 118 -67 246 q-32 128 -66 249 l-8 0 q-31 -124 -63 -250.5 q-32 -126.5 -66 -244.5 l-45 -166 Z" /><glyph glyph-name="" unicode="Å" d="M653 1618 q-112 0 -182 62 q-70 62 -70 163 q0 105 70 165 q70 60 182 60 q111 0 182.5 -60 q71.5 -60 71.5 -165 q0 -101 -71.5 -163 q-71.5 -62 -182.5 -62 ZM653 1737 q42 0 72.5 28 q30.5 28 30.5 78 q0 51 -30.5 81 q-30.5 30 -72.5 30 q-43 0 -72.5 -30 q-29.5 -30 -29.5 -81 q0 -50 29.5 -78 q29.5 -28 72.5 -28 ZM-8 0 l485 1518 l359 0 l485 -1518 l-320 0 l-106 389 l-489 0 l-107 -389 l-307 0 ZM471 625 l360 0 l-45 166 q-35 118 -67 246 q-32 128 -66 249 l-8 0 q-31 -124 -63 -250.5 q-32 -126.5 -66 -244.5 l-45 -166 Z" /><glyph glyph-name="" unicode="Æ" d="M-18 0 l741 1518 l1083 0 l0 -254 l-598 0 l0 -351 l504 0 l0 -254 l-504 0 l0 -405 l623 0 l0 -254 l-924 0 l0 373 l-432 0 l-176 -373 l-317 0 ZM586 608 l321 0 l0 680 l-10 0 q-51 -115 -101.5 -228.5 q-50.5 -113.5 -101.5 -219.5 l-108 -232 Z" /><glyph glyph-name="" unicode="Ç" d="M582 -549 l-25 127 q138 9 190 32.5 q52 23.5 52 74.5 q0 36 -37 61.5 q-37 25.5 -141 40.5 l94 188 q-170 21 -307 116 q-137 95 -217 261 q-80 166 -80 400 q0 187 55.5 334 q55.5 147 153 249.5 q97.5 102.5 224.5 155.5 q127 53 271 53 q146 0 258.5 -59 q112.5 -59 186.5 -135 l-158 -193 q-59 55 -127 91 q-68 36 -154 36 q-114 0 -204.5 -62.5 q-90.5 -62.5 -142.5 -179.5 q-52 -117 -52 -280 q0 -247 106.5 -388 q106.5 -141 286.5 -141 q98 0 174.5 42 q76.5 42 136.5 108 l162 -188 q-158 -187 -393 -218 l-53 -120 q86 -20 131 -59 q45 -39 45 -111 q0 -116 -114.5 -171.5 q-114.5 -55.5 -321.5 -64.5 Z" /><glyph glyph-name="" unicode="È" d="M186 0 l0 1518 l930 0 l0 -254 l-627 0 l0 -351 l531 0 l0 -254 l-531 0 l0 -405 l650 0 l0 -254 l-953 0 ZM702 1591 l-405 273 l162 196 l377 -317 l-134 -152 Z" /><glyph glyph-name="" unicode="É" d="M186 0 l0 1518 l930 0 l0 -254 l-627 0 l0 -351 l531 0 l0 -254 l-531 0 l0 -405 l650 0 l0 -254 l-953 0 ZM645 1591 l-133 152 l379 317 l162 -196 l-408 -273 Z" /><glyph glyph-name="" unicode="Ê" d="M186 0 l0 1518 l930 0 l0 -254 l-627 0 l0 -351 l531 0 l0 -254 l-531 0 l0 -405 l650 0 l0 -254 l-953 0 ZM424 1602 l-129 84 l215 256 l328 0 l215 -256 l-129 -84 l-246 198 l-10 0 l-244 -198 Z" /><glyph glyph-name="" unicode="Ë" d="M186 0 l0 1518 l930 0 l0 -254 l-627 0 l0 -351 l531 0 l0 -254 l-531 0 l0 -405 l650 0 l0 -254 l-953 0 ZM420 1636 q-65 0 -106.5 42.5 q-41.5 42.5 -41.5 107.5 q0 63 41.5 106 q41.5 43 106.5 43 q66 0 108.5 -43 q42.5 -43 42.5 -106 q0 -65 -42.5 -107.5 q-42.5 -42.5 -108.5 -42.5 ZM928 1636 q-66 0 -108 42.5 q-42 42.5 -42 107.5 q0 63 42 106 q42 43 108 43 q64 0 105.5 -43 q41.5 -43 41.5 -106 q0 -65 -41.5 -107.5 q-41.5 -42.5 -105.5 -42.5 Z" /><glyph glyph-name="" unicode="Ì" d="M186 0 l0 1518 l303 0 l0 -1518 l-303 0 ZM369 1591 l-406 273 l162 196 l377 -317 l-133 -152 Z" /><glyph glyph-name="" unicode="Í" d="M186 0 l0 1518 l303 0 l0 -1518 l-303 0 ZM311 1591 l-133 152 l381 317 l160 -196 l-408 -273 Z" /><glyph glyph-name="" unicode="Î" d="M186 0 l0 1518 l303 0 l0 -1518 l-303 0 ZM90 1602 l-129 84 l217 256 l326 0 l219 -256 l-131 -84 l-248 198 l-8 0 l-246 -198 Z" /><glyph glyph-name="" unicode="Ï" d="M186 0 l0 1518 l303 0 l0 -1518 l-303 0 ZM88 1636 q-66 0 -106.5 42.5 q-40.5 42.5 -40.5 107.5 q0 63 40.5 106 q40.5 43 106.5 43 q66 0 108 -43 q42 -43 42 -106 q0 -65 -42 -107.5 q-42 -42.5 -108 -42.5 ZM592 1636 q-65 0 -106.5 42.5 q-41.5 42.5 -41.5 107.5 q0 63 41.5 106 q41.5 43 106.5 43 q66 0 108.5 -43 q42.5 -43 42.5 -106 q0 -65 -42.5 -107.5 q-42.5 -42.5 -108.5 -42.5 Z" /><glyph glyph-name="" unicode="Ð" d="M244 0 l0 713 l-176 0 l0 137 l176 10 l0 658 l415 0 q348 0 548 -185 q200 -185 200 -567 q0 -256 -90 -426 q-90 -170 -254 -255 q-164 -85 -387 -85 l-432 0 ZM545 246 l94 0 q213 0 336 121.5 q123 121.5 123 398.5 q0 276 -123 392 q-123 116 -336 116 l-94 0 l0 -414 l305 0 l0 -147 l-305 0 l0 -467 Z" /><glyph glyph-name="" unicode="Ñ" d="M186 0 l0 1518 l310 0 l440 -809 l154 -328 l10 0 q-13 118 -27 259.5 q-14 141.5 -14 270.5 l0 607 l287 0 l0 -1518 l-310 0 l-436 811 l-154 326 l-10 0 q9 -123 24 -260.5 q15 -137.5 15 -268.5 l0 -608 l-289 0 ZM952 1620 q-63 0 -110.5 21.5 q-47.5 21.5 -84.5 49.5 q-37 28 -68.5 49 q-31.5 21 -63.5 21 q-37 0 -61.5 -28.5 q-24.5 -28.5 -31.5 -96.5 l-196 17 q9 163 86.5 241 q77.5 78 193.5 78 q63 0 109.5 -21 q46.5 -21 83 -49 q36.5 -28 68.5 -49.5 q32 -21.5 65 -21.5 q35 0 59.5 28.5 q24.5 28.5 30.5 96.5 l197 -14 q-8 -166 -84.5 -244 q-76.5 -78 -192.5 -78 Z" /><glyph glyph-name="" unicode="Ò" d="M788 -29 q-200 0 -353 96 q-153 96 -238.5 274 q-85.5 178 -85.5 425 q0 246 85.5 420 q85.5 174 238.5 266 q153 92 353 92 q201 0 354 -92 q153 -92 238.5 -266 q85.5 -174 85.5 -420 q0 -247 -85.5 -425 q-85.5 -178 -238.5 -274 q-153 -96 -354 -96 ZM788 233 q113 0 196 66 q83 66 128 185.5 q45 119.5 45 281.5 q0 243 -100 380.5 q-100 137.5 -269 137.5 q-168 0 -267 -137.5 q-99 -137.5 -99 -380.5 q0 -243 99 -388 q99 -145 267 -145 ZM817 1591 l-407 273 l161 196 l379 -317 l-133 -152 Z" /><glyph glyph-name="" unicode="Ó" d="M788 -29 q-200 0 -353 96 q-153 96 -238.5 274 q-85.5 178 -85.5 425 q0 246 85.5 420 q85.5 174 238.5 266 q153 92 353 92 q201 0 354 -92 q153 -92 238.5 -266 q85.5 -174 85.5 -420 q0 -247 -85.5 -425 q-85.5 -178 -238.5 -274 q-153 -96 -354 -96 ZM788 233 q113 0 196 66 q83 66 128 185.5 q45 119.5 45 281.5 q0 243 -100 380.5 q-100 137.5 -269 137.5 q-168 0 -267 -137.5 q-99 -137.5 -99 -380.5 q0 -243 99 -388 q99 -145 267 -145 ZM760 1591 l-133 152 l379 317 l161 -196 l-407 -273 Z" /><glyph glyph-name="" unicode="Ô" d="M788 -29 q-200 0 -353 96 q-153 96 -238.5 274 q-85.5 178 -85.5 425 q0 246 85.5 420 q85.5 174 238.5 266 q153 92 353 92 q201 0 354 -92 q153 -92 238.5 -266 q85.5 -174 85.5 -420 q0 -247 -85.5 -425 q-85.5 -178 -238.5 -274 q-153 -96 -354 -96 ZM788 233 q113 0 196 66 q83 66 128 185.5 q45 119.5 45 281.5 q0 243 -100 380.5 q-100 137.5 -269 137.5 q-168 0 -267 -137.5 q-99 -137.5 -99 -380.5 q0 -243 99 -388 q99 -145 267 -145 ZM539 1602 l-131 84 l219 256 l323 0 l219 -256 l-129 -84 l-247 198 l-9 0 l-245 -198 Z" /><glyph glyph-name="" unicode="Õ" d="M788 -29 q-200 0 -353 96 q-153 96 -238.5 274 q-85.5 178 -85.5 425 q0 246 85.5 420 q85.5 174 238.5 266 q153 92 353 92 q201 0 354 -92 q153 -92 238.5 -266 q85.5 -174 85.5 -420 q0 -247 -85.5 -425 q-85.5 -178 -238.5 -274 q-153 -96 -354 -96 ZM788 233 q113 0 196 66 q83 66 128 185.5 q45 119.5 45 281.5 q0 243 -100 380.5 q-100 137.5 -269 137.5 q-168 0 -267 -137.5 q-99 -137.5 -99 -380.5 q0 -243 99 -388 q99 -145 267 -145 ZM956 1620 q-63 0 -109.5 21.5 q-46.5 21.5 -83.5 49.5 q-37 28 -68.5 49 q-31.5 21 -63.5 21 q-36 0 -61 -28.5 q-25 -28.5 -31 -96.5 l-197 17 q9 163 85 241 q76 78 191 78 q64 0 111.5 -21 q47.5 -21 84.5 -49 q37 -28 68.5 -49.5 q31.5 -21.5 63.5 -21.5 q36 0 60.5 28.5 q24.5 28.5 33.5 96.5 l195 -14 q-9 -166 -86 -244 q-77 -78 -193 -78 Z" /><glyph glyph-name="" unicode="Ö" d="M788 -29 q-200 0 -353 96 q-153 96 -238.5 274 q-85.5 178 -85.5 425 q0 246 85.5 420 q85.5 174 238.5 266 q153 92 353 92 q201 0 354 -92 q153 -92 238.5 -266 q85.5 -174 85.5 -420 q0 -247 -85.5 -425 q-85.5 -178 -238.5 -274 q-153 -96 -354 -96 ZM788 233 q113 0 196 66 q83 66 128 185.5 q45 119.5 45 281.5 q0 243 -100 380.5 q-100 137.5 -269 137.5 q-168 0 -267 -137.5 q-99 -137.5 -99 -380.5 q0 -243 99 -388 q99 -145 267 -145 ZM537 1636 q-66 0 -108 42.5 q-42 42.5 -42 107.5 q0 63 42 106 q42 43 108 43 q66 0 107.5 -43 q41.5 -43 41.5 -106 q0 -65 -41.5 -107.5 q-41.5 -42.5 -107.5 -42.5 ZM1040 1636 q-64 0 -105.5 42.5 q-41.5 42.5 -41.5 107.5 q0 63 41.5 106 q41.5 43 105.5 43 q66 0 108 -43 q42 -43 42 -106 q0 -65 -42 -107.5 q-42 -42.5 -108 -42.5 Z" /><glyph glyph-name="" unicode="×" d="M1552 104 l-526 527 l-526 -527 l-148 148 l527 526 l-527 527 l148 147 l526 -526 l526 526 l148 -147 l-526 -527 l526 -526 l-148 -148 Z" /><glyph glyph-name="" unicode="Ø" d="M793 -29 q-114 0 -212 31.5 q-98 31.5 -180 89.5 l-143 -180 l-160 121 l162 205 q-69 99 -107 232 q-38 133 -38 296 q0 246 85.5 420 q85.5 174 238.5 266 q153 92 354 92 q236 0 403 -129 l152 191 l159 -121 l-172 -217 q65 -96 99 -222 q34 -126 34 -280 q0 -247 -85.5 -425 q-85.5 -178 -238 -274 q-152.5 -96 -351.5 -96 ZM793 233 q111 0 193.5 66 q82.5 66 127.5 185.5 q45 119.5 45 281.5 q0 138 -33 240 l-548 -691 q91 -82 215 -82 ZM465 494 l555 698 q-92 92 -227 92 q-169 0 -270 -137.5 q-101 -137.5 -101 -380.5 q0 -156 43 -272 Z" /><glyph glyph-name="" unicode="Ù" d="M770 -29 q-280 0 -435 167.5 q-155 167.5 -155 543.5 l0 836 l301 0 l0 -863 q0 -157 35 -249.5 q35 -92.5 100 -132.5 q65 -40 154 -40 q88 0 154 40 q66 40 102.5 132.5 q36.5 92.5 36.5 249.5 l0 863 l291 0 l0 -836 q0 -376 -153.5 -543.5 q-153.5 -167.5 -430.5 -167.5 ZM795 1591 l-408 273 l162 196 l377 -317 l-131 -152 Z" /><glyph glyph-name="" unicode="Ú" d="M770 -29 q-280 0 -435 167.5 q-155 167.5 -155 543.5 l0 836 l301 0 l0 -863 q0 -157 35 -249.5 q35 -92.5 100 -132.5 q65 -40 154 -40 q88 0 154 40 q66 40 102.5 132.5 q36.5 92.5 36.5 249.5 l0 863 l291 0 l0 -836 q0 -376 -153.5 -543.5 q-153.5 -167.5 -430.5 -167.5 ZM735 1591 l-131 152 l377 317 l164 -196 l-410 -273 Z" /><glyph glyph-name="" unicode="Û" d="M770 -29 q-280 0 -435 167.5 q-155 167.5 -155 543.5 l0 836 l301 0 l0 -863 q0 -157 35 -249.5 q35 -92.5 100 -132.5 q65 -40 154 -40 q88 0 154 40 q66 40 102.5 132.5 q36.5 92.5 36.5 249.5 l0 863 l291 0 l0 -836 q0 -376 -153.5 -543.5 q-153.5 -167.5 -430.5 -167.5 ZM516 1602 l-131 84 l217 256 l326 0 l217 -256 l-129 -84 l-246 198 l-10 0 l-244 -198 Z" /><glyph glyph-name="" unicode="Ü" d="M770 -29 q-280 0 -435 167.5 q-155 167.5 -155 543.5 l0 836 l301 0 l0 -863 q0 -157 35 -249.5 q35 -92.5 100 -132.5 q65 -40 154 -40 q88 0 154 40 q66 40 102.5 132.5 q36.5 92.5 36.5 249.5 l0 863 l291 0 l0 -836 q0 -376 -153.5 -543.5 q-153.5 -167.5 -430.5 -167.5 ZM512 1636 q-65 0 -106 42.5 q-41 42.5 -41 107.5 q0 63 41 106 q41 43 106 43 q66 0 109 -43 q43 -43 43 -106 q0 -65 -43 -107.5 q-43 -42.5 -109 -42.5 ZM1018 1636 q-65 0 -106.5 42.5 q-41.5 42.5 -41.5 107.5 q0 63 41.5 106 q41.5 43 106.5 43 q64 0 105.5 -43 q41.5 -43 41.5 -106 q0 -65 -41.5 -107.5 q-41.5 -42.5 -105.5 -42.5 Z" /><glyph glyph-name="" unicode="Ý" d="M444 0 l0 555 l-456 963 l321 0 l152 -371 q32 -85 64 -166.5 q32 -81.5 67 -169.5 l8 0 q35 88 68 169.5 q33 81.5 67 166.5 l152 371 l315 0 l-457 -963 l0 -555 l-301 0 ZM565 1591 l-133 152 l379 317 l162 -196 l-408 -273 Z" /><glyph glyph-name="" unicode="Þ" d="M186 0 l0 1518 l303 0 l0 -238 l228 0 q165 0 297.5 -44 q132.5 -44 210.5 -148 q78 -104 78 -283 q0 -174 -79.5 -285.5 q-79.5 -111.5 -212 -165 q-132.5 -53.5 -294.5 -53.5 l-228 0 l0 -301 l-303 0 ZM489 543 l205 0 q158 0 234 65.5 q76 65.5 76 196.5 q0 132 -78 183.5 q-78 51.5 -232 51.5 l-205 0 l0 -497 Z" /><glyph glyph-name="" unicode="ß" d="M956 -29 q-99 0 -181.5 29 q-82.5 29 -162.5 80 l107 205 q118 -88 227 -88 q69 0 108.5 38 q39.5 38 39.5 95 q0 60 -43 99 q-43 39 -105.5 71.5 q-62.5 32.5 -125.5 72 q-63 39.5 -105.5 98.5 q-42.5 59 -42.5 152 q0 70 26 121.5 q26 51.5 60.5 96 q34.5 44.5 61 94.5 q26.5 50 26.5 116 q0 74 -41.5 122 q-41.5 48 -118.5 48 q-111 0 -169 -82 q-58 -82 -58 -229 l0 -1110 l-297 0 l0 1149 q0 148 58 263.5 q58 115.5 175 181 q117 65.5 293 65.5 q148 0 247.5 -53 q99.5 -53 150.5 -138.5 q51 -85.5 51 -183.5 q0 -84 -29 -143.5 q-29 -59.5 -66.5 -105 q-37.5 -45.5 -66.5 -87 q-29 -41.5 -29 -90.5 q0 -51 42.5 -85.5 q42.5 -34.5 105.5 -66.5 q63 -32 126 -75 q63 -43 105.5 -111.5 q42.5 -68.5 42.5 -177.5 q0 -102 -47 -186.5 q-47 -84.5 -138.5 -134.5 q-91.5 -50 -226.5 -50 Z" /><glyph glyph-name="" unicode="à" d="M442 -29 q-102 0 -178 44.5 q-76 44.5 -118 122 q-42 77.5 -42 175.5 q0 183 157 284 q157 101 503 138 q-3 85 -46 142 q-43 57 -149 57 q-80 0 -157.5 -31.5 q-77.5 -31.5 -157.5 -79.5 l-107 201 q100 61 221 106.5 q121 45.5 257 45.5 q218 0 329 -128.5 q111 -128.5 111 -377.5 l0 -670 l-246 0 l-20 123 l-11 0 q-73 -66 -159.5 -109 q-86.5 -43 -186.5 -43 ZM543 207 q64 0 115.5 29.5 q51.5 29.5 105.5 82.5 l0 230 q-211 -25 -292 -80 q-81 -55 -81 -133 q0 -68 43 -98.5 q43 -30.5 109 -30.5 ZM629 1331 l-406 363 l205 198 l350 -415 l-149 -146 Z" /><glyph glyph-name="" unicode="á" d="M442 -29 q-102 0 -178 44.5 q-76 44.5 -118 122 q-42 77.5 -42 175.5 q0 183 157 284 q157 101 503 138 q-3 85 -46 142 q-43 57 -149 57 q-80 0 -157.5 -31.5 q-77.5 -31.5 -157.5 -79.5 l-107 201 q100 61 221 106.5 q121 45.5 257 45.5 q218 0 329 -128.5 q111 -128.5 111 -377.5 l0 -670 l-246 0 l-20 123 l-11 0 q-73 -66 -159.5 -109 q-86.5 -43 -186.5 -43 ZM543 207 q64 0 115.5 29.5 q51.5 29.5 105.5 82.5 l0 230 q-211 -25 -292 -80 q-81 -55 -81 -133 q0 -68 43 -98.5 q43 -30.5 109 -30.5 ZM645 1331 l-149 146 l348 415 l207 -198 l-406 -363 Z" /><glyph glyph-name="" unicode="â" d="M442 -29 q-102 0 -178 44.5 q-76 44.5 -118 122 q-42 77.5 -42 175.5 q0 183 157 284 q157 101 503 138 q-3 85 -46 142 q-43 57 -149 57 q-80 0 -157.5 -31.5 q-77.5 -31.5 -157.5 -79.5 l-107 201 q100 61 221 106.5 q121 45.5 257 45.5 q218 0 329 -128.5 q111 -128.5 111 -377.5 l0 -670 l-246 0 l-20 123 l-11 0 q-73 -66 -159.5 -109 q-86.5 -43 -186.5 -43 ZM543 207 q64 0 115.5 29.5 q51.5 29.5 105.5 82.5 l0 230 q-211 -25 -292 -80 q-81 -55 -81 -133 q0 -68 43 -98.5 q43 -30.5 109 -30.5 ZM229 1417 l254 309 l305 0 l254 -309 l-114 -108 l-287 225 l-8 0 l-285 -225 l-119 108 Z" /><glyph glyph-name="" unicode="ã" d="M442 -29 q-102 0 -178 44.5 q-76 44.5 -118 122 q-42 77.5 -42 175.5 q0 183 157 284 q157 101 503 138 q-3 85 -46 142 q-43 57 -149 57 q-80 0 -157.5 -31.5 q-77.5 -31.5 -157.5 -79.5 l-107 201 q100 61 221 106.5 q121 45.5 257 45.5 q218 0 329 -128.5 q111 -128.5 111 -377.5 l0 -670 l-246 0 l-20 123 l-11 0 q-73 -66 -159.5 -109 q-86.5 -43 -186.5 -43 ZM543 207 q64 0 115.5 29.5 q51.5 29.5 105.5 82.5 l0 230 q-211 -25 -292 -80 q-81 -55 -81 -133 q0 -68 43 -98.5 q43 -30.5 109 -30.5 ZM795 1335 q-57 0 -101 24.5 q-44 24.5 -80 56 q-36 31.5 -67 55.5 q-31 24 -62 24 q-79 0 -88 -143 l-190 12 q4 167 72 254.5 q68 87.5 198 87.5 q57 0 101.5 -24 q44.5 -24 80.5 -56 q36 -32 67.5 -56 q31.5 -24 61.5 -24 q76 0 89 140 l190 -9 q-5 -167 -73.5 -254.5 q-68.5 -87.5 -198.5 -87.5 Z" /><glyph glyph-name="" unicode="ä" d="M442 -29 q-102 0 -178 44.5 q-76 44.5 -118 122 q-42 77.5 -42 175.5 q0 183 157 284 q157 101 503 138 q-3 85 -46 142 q-43 57 -149 57 q-80 0 -157.5 -31.5 q-77.5 -31.5 -157.5 -79.5 l-107 201 q100 61 221 106.5 q121 45.5 257 45.5 q218 0 329 -128.5 q111 -128.5 111 -377.5 l0 -670 l-246 0 l-20 123 l-11 0 q-73 -66 -159.5 -109 q-86.5 -43 -186.5 -43 ZM543 207 q64 0 115.5 29.5 q51.5 29.5 105.5 82.5 l0 230 q-211 -25 -292 -80 q-81 -55 -81 -133 q0 -68 43 -98.5 q43 -30.5 109 -30.5 ZM391 1333 q-66 0 -108.5 44.5 q-42.5 44.5 -42.5 107.5 q0 64 42.5 108.5 q42.5 44.5 108.5 44.5 q68 0 110 -44.5 q42 -44.5 42 -108.5 q0 -63 -42 -107.5 q-42 -44.5 -110 -44.5 ZM881 1333 q-66 0 -109 44.5 q-43 44.5 -43 107.5 q0 64 43 108.5 q43 44.5 109 44.5 q67 0 110 -44.5 q43 -44.5 43 -108.5 q0 -63 -43 -107.5 q-43 -44.5 -110 -44.5 Z" /><glyph glyph-name="" unicode="å" d="M442 -29 q-102 0 -178 44.5 q-76 44.5 -118 122 q-42 77.5 -42 175.5 q0 183 157 284 q157 101 503 138 q-3 85 -46 142 q-43 57 -149 57 q-80 0 -157.5 -31.5 q-77.5 -31.5 -157.5 -79.5 l-107 201 q100 61 221 106.5 q121 45.5 257 45.5 q218 0 329 -128.5 q111 -128.5 111 -377.5 l0 -670 l-246 0 l-20 123 l-11 0 q-73 -66 -159.5 -109 q-86.5 -43 -186.5 -43 ZM543 207 q64 0 115.5 29.5 q51.5 29.5 105.5 82.5 l0 230 q-211 -25 -292 -80 q-81 -55 -81 -133 q0 -68 43 -98.5 q43 -30.5 109 -30.5 ZM637 1305 q-141 0 -216 68 q-75 68 -75 169 q0 100 75 169 q75 69 216 69 q141 0 216 -69 q75 -69 75 -169 q0 -101 -75 -169 q-75 -68 -216 -68 ZM637 1421 q44 0 76 33 q32 33 32 88 q0 55 -32 89 q-32 34 -76 34 q-45 0 -78 -34 q-33 -34 -33 -89 q0 -55 33 -88 q33 -33 78 -33 Z" /><glyph glyph-name="" unicode="æ" d="M457 -29 q-103 0 -180 44.5 q-77 44.5 -119.5 121.5 q-42.5 77 -42.5 174 q0 185 156.5 287 q156.5 102 498.5 137 q-5 85 -45.5 142 q-40.5 57 -146.5 57 q-77 0 -153.5 -31.5 q-76.5 -31.5 -156.5 -79.5 l-110 201 q101 61 216.5 106.5 q115.5 45.5 241.5 45.5 q114 0 195 -53 q81 -53 129 -142 q71 92 156.5 143.5 q85.5 51.5 191.5 51.5 q150 0 250.5 -73 q100.5 -73 151.5 -198.5 q51 -125.5 51 -283.5 q0 -42 -4 -77 q-4 -35 -11 -57 l-682 0 q16 -135 98 -206.5 q82 -71.5 197 -71.5 q71 0 131 24 q60 24 123 62 l105 -197 q-86 -58 -189 -92.5 q-103 -34.5 -209 -34.5 q-132 0 -229.5 54 q-97.5 54 -165.5 137 q-121 -100 -228.5 -145.5 q-107.5 -45.5 -219.5 -45.5 ZM555 207 q63 0 129.5 31.5 q66.5 31.5 120.5 87.5 q-14 36 -23.5 82 q-9.5 46 -11.5 92 l-2 49 q-198 -25 -280 -80 q-82 -55 -82 -133 q0 -68 40.5 -98.5 q40.5 -30.5 108.5 -30.5 ZM1044 674 l439 0 q0 124 -51 196 q-51 72 -154 72 q-89 0 -154.5 -68 q-65.5 -68 -79.5 -200 Z" /><glyph glyph-name="" unicode="ç" d="M385 -549 l-25 127 q139 9 190.5 32.5 q51.5 23.5 51.5 74.5 q0 36 -37 61.5 q-37 25.5 -141 40.5 l98 197 q-126 26 -223.5 103 q-97.5 77 -153 200 q-55.5 123 -55.5 286 q0 191 81.5 325.5 q81.5 134.5 215 206 q133.5 71.5 289.5 71.5 q106 0 188.5 -36.5 q82.5 -36.5 145.5 -92.5 l-144 -191 q-43 35 -84.5 54.5 q-41.5 19.5 -89.5 19.5 q-132 0 -213.5 -97.5 q-81.5 -97.5 -81.5 -259.5 q0 -162 80.5 -259 q80.5 -97 204.5 -97 q63 0 119.5 26 q56.5 26 103.5 66 l119 -198 q-71 -63 -156 -96.5 q-85 -33.5 -170 -41.5 l-51 -116 q85 -20 129.5 -59 q44.5 -39 44.5 -111 q0 -116 -113.5 -171.5 q-113.5 -55.5 -322.5 -64.5 Z" /><glyph glyph-name="" unicode="è" d="M662 -29 q-161 0 -290.5 72 q-129.5 72 -205.5 206.5 q-76 134.5 -76 323.5 q0 139 44.5 250.5 q44.5 111.5 120.5 190 q76 78.5 171.5 120.5 q95.5 42 198.5 42 q157 0 264 -71 q107 -71 161 -195 q54 -124 54 -283 q0 -89 -14 -140 l-707 0 q18 -139 104 -210.5 q86 -71.5 215 -71.5 q70 0 131.5 19.5 q61.5 19.5 124.5 58.5 l103 -185 q-85 -58 -189.5 -92.5 q-104.5 -34.5 -209.5 -34.5 ZM377 690 l469 0 q0 115 -52.5 183.5 q-52.5 68.5 -164.5 68.5 q-91 0 -162.5 -63.5 q-71.5 -63.5 -89.5 -188.5 ZM612 1331 l-405 363 l205 198 l348 -415 l-148 -146 Z" /><glyph glyph-name="" unicode="é" d="M662 -29 q-161 0 -290.5 72 q-129.5 72 -205.5 206.5 q-76 134.5 -76 323.5 q0 139 44.5 250.5 q44.5 111.5 120.5 190 q76 78.5 171.5 120.5 q95.5 42 198.5 42 q157 0 264 -71 q107 -71 161 -195 q54 -124 54 -283 q0 -89 -14 -140 l-707 0 q18 -139 104 -210.5 q86 -71.5 215 -71.5 q70 0 131.5 19.5 q61.5 19.5 124.5 58.5 l103 -185 q-85 -58 -189.5 -92.5 q-104.5 -34.5 -209.5 -34.5 ZM377 690 l469 0 q0 115 -52.5 183.5 q-52.5 68.5 -164.5 68.5 q-91 0 -162.5 -63.5 q-71.5 -63.5 -89.5 -188.5 ZM631 1331 l-152 146 l350 415 l205 -198 l-403 -363 Z" /><glyph glyph-name="" unicode="ê" d="M662 -29 q-161 0 -290.5 72 q-129.5 72 -205.5 206.5 q-76 134.5 -76 323.5 q0 139 44.5 250.5 q44.5 111.5 120.5 190 q76 78.5 171.5 120.5 q95.5 42 198.5 42 q157 0 264 -71 q107 -71 161 -195 q54 -124 54 -283 q0 -89 -14 -140 l-707 0 q18 -139 104 -210.5 q86 -71.5 215 -71.5 q70 0 131.5 19.5 q61.5 19.5 124.5 58.5 l103 -185 q-85 -58 -189.5 -92.5 q-104.5 -34.5 -209.5 -34.5 ZM377 690 l469 0 q0 115 -52.5 183.5 q-52.5 68.5 -164.5 68.5 q-91 0 -162.5 -63.5 q-71.5 -63.5 -89.5 -188.5 ZM211 1417 l256 309 l307 0 l254 -309 l-117 -108 l-286 225 l-11 0 l-284 -225 l-119 108 Z" /><glyph glyph-name="" unicode="ë" d="M662 -29 q-161 0 -290.5 72 q-129.5 72 -205.5 206.5 q-76 134.5 -76 323.5 q0 139 44.5 250.5 q44.5 111.5 120.5 190 q76 78.5 171.5 120.5 q95.5 42 198.5 42 q157 0 264 -71 q107 -71 161 -195 q54 -124 54 -283 q0 -89 -14 -140 l-707 0 q18 -139 104 -210.5 q86 -71.5 215 -71.5 q70 0 131.5 19.5 q61.5 19.5 124.5 58.5 l103 -185 q-85 -58 -189.5 -92.5 q-104.5 -34.5 -209.5 -34.5 ZM377 690 l469 0 q0 115 -52.5 183.5 q-52.5 68.5 -164.5 68.5 q-91 0 -162.5 -63.5 q-71.5 -63.5 -89.5 -188.5 ZM373 1333 q-65 0 -108.5 44.5 q-43.5 44.5 -43.5 107.5 q0 64 43.5 108.5 q43.5 44.5 108.5 44.5 q67 0 111 -44.5 q44 -44.5 44 -108.5 q0 -63 -44 -107.5 q-44 -44.5 -111 -44.5 ZM866 1333 q-66 0 -109.5 44.5 q-43.5 44.5 -43.5 107.5 q0 64 43.5 108.5 q43.5 44.5 109.5 44.5 q66 0 110 -44.5 q44 -44.5 44 -108.5 q0 -63 -44 -107.5 q-44 -44.5 -110 -44.5 Z" /><glyph glyph-name="" unicode="ì" d="M162 0 l0 1147 l301 0 l0 -1147 l-301 0 ZM305 1331 l-407 363 l206 198 l349 -415 l-148 -146 Z" /><glyph glyph-name="" unicode="í" d="M162 0 l0 1147 l301 0 l0 -1147 l-301 0 ZM322 1331 l-150 146 l348 415 l207 -198 l-405 -363 Z" /><glyph glyph-name="" unicode="î" d="M162 0 l0 1147 l301 0 l0 -1147 l-301 0 ZM-94 1417 l252 309 l309 0 l252 -309 l-117 -108 l-285 225 l-10 0 l-287 -225 l-114 108 Z" /><glyph glyph-name="" unicode="ï" d="M162 0 l0 1147 l301 0 l0 -1147 l-301 0 ZM68 1333 q-68 0 -111 44.5 q-43 44.5 -43 107.5 q0 64 43 108.5 q43 44.5 111 44.5 q66 0 108.5 -44.5 q42.5 -44.5 42.5 -108.5 q0 -63 -42.5 -107.5 q-42.5 -44.5 -108.5 -44.5 ZM559 1333 q-67 0 -110 44.5 q-43 44.5 -43 107.5 q0 64 43 108.5 q43 44.5 110 44.5 q66 0 109 -44.5 q43 -44.5 43 -108.5 q0 -63 -43 -107.5 q-43 -44.5 -109 -44.5 Z" /><glyph glyph-name="" unicode="ð" d="M883 711 q-59 67 -120.5 91.5 q-61.5 24.5 -125.5 24.5 q-117 0 -186.5 -78 q-69.5 -78 -69.5 -223 q0 -147 77 -228 q77 -81 183 -81 q115 0 180.5 96.5 q65.5 96.5 65.5 282.5 q0 29 -1.5 58 q-1.5 29 -2.5 57 ZM301 1118 l-78 135 l275 142 q-49 35 -105.5 68 q-56.5 33 -118.5 65 l134 186 q82 -43 164 -93 q82 -50 157 -110 l330 168 l80 -135 l-285 -143 q138 -140 225.5 -332 q87.5 -192 87.5 -455 q0 -188 -65.5 -333 q-65.5 -145 -185.5 -227.5 q-120 -82.5 -285 -82.5 q-141 0 -260 67.5 q-119 67.5 -192 192 q-73 124.5 -73 295.5 q0 164 66 282 q66 118 174 181.5 q108 63.5 234 63.5 q70 0 139.5 -26 q69.5 -26 120.5 -83 q-31 103 -84 187 q-53 84 -125 155 l-330 -168 Z" /><glyph glyph-name="" unicode="ñ" d="M162 0 l0 1147 l246 0 l22 -152 l6 0 q75 74 165.5 127.5 q90.5 53.5 207.5 53.5 q186 0 270 -122.5 q84 -122.5 84 -338.5 l0 -715 l-301 0 l0 678 q0 134 -38.5 187 q-38.5 53 -123.5 53 q-69 0 -121.5 -33.5 q-52.5 -33.5 -115.5 -96.5 l0 -788 l-301 0 ZM874 1335 q-56 0 -100.5 24.5 q-44.5 24.5 -80 56 q-35.5 31.5 -67 55.5 q-31.5 24 -63.5 24 q-77 0 -86 -143 l-190 12 q3 167 71.5 254.5 q68.5 87.5 200.5 87.5 q56 0 100 -24 q44 -24 79.5 -56 q35.5 -32 67 -56 q31.5 -24 62.5 -24 q73 0 88 140 l189 -9 q-3 -167 -72 -254.5 q-69 -87.5 -199 -87.5 Z" /><glyph glyph-name="" unicode="ò" d="M641 -29 q-144 0 -270 71.5 q-126 71.5 -203.5 206 q-77.5 134.5 -77.5 324.5 q0 191 77.5 325.5 q77.5 134.5 203.5 206 q126 71.5 270 71.5 q143 0 269 -71.5 q126 -71.5 204 -206 q78 -134.5 78 -325.5 q0 -190 -78 -324.5 q-78 -134.5 -204 -206 q-126 -71.5 -269 -71.5 ZM641 217 q117 0 180.5 97 q63.5 97 63.5 259 q0 162 -63.5 259.5 q-63.5 97.5 -180.5 97.5 q-118 0 -181 -97.5 q-63 -97.5 -63 -259.5 q0 -162 63 -259 q63 -97 181 -97 ZM633 1331 l-406 363 l205 198 l348 -415 l-147 -146 Z" /><glyph glyph-name="" unicode="ó" d="M641 -29 q-144 0 -270 71.5 q-126 71.5 -203.5 206 q-77.5 134.5 -77.5 324.5 q0 191 77.5 325.5 q77.5 134.5 203.5 206 q126 71.5 270 71.5 q143 0 269 -71.5 q126 -71.5 204 -206 q78 -134.5 78 -325.5 q0 -190 -78 -324.5 q-78 -134.5 -204 -206 q-126 -71.5 -269 -71.5 ZM641 217 q117 0 180.5 97 q63.5 97 63.5 259 q0 162 -63.5 259.5 q-63.5 97.5 -180.5 97.5 q-118 0 -181 -97.5 q-63 -97.5 -63 -259.5 q0 -162 63 -259 q63 -97 181 -97 ZM649 1331 l-149 146 l350 415 l205 -198 l-406 -363 Z" /><glyph glyph-name="" unicode="ô" d="M641 -29 q-144 0 -270 71.5 q-126 71.5 -203.5 206 q-77.5 134.5 -77.5 324.5 q0 191 77.5 325.5 q77.5 134.5 203.5 206 q126 71.5 270 71.5 q143 0 269 -71.5 q126 -71.5 204 -206 q78 -134.5 78 -325.5 q0 -190 -78 -324.5 q-78 -134.5 -204 -206 q-126 -71.5 -269 -71.5 ZM641 217 q117 0 180.5 97 q63.5 97 63.5 259 q0 162 -63.5 259.5 q-63.5 97.5 -180.5 97.5 q-118 0 -181 -97.5 q-63 -97.5 -63 -259.5 q0 -162 63 -259 q63 -97 181 -97 ZM233 1417 l256 309 l304 0 l256 -309 l-115 -108 l-289 225 l-10 0 l-285 -225 l-117 108 Z" /><glyph glyph-name="" unicode="õ" d="M641 -29 q-144 0 -270 71.5 q-126 71.5 -203.5 206 q-77.5 134.5 -77.5 324.5 q0 191 77.5 325.5 q77.5 134.5 203.5 206 q126 71.5 270 71.5 q143 0 269 -71.5 q126 -71.5 204 -206 q78 -134.5 78 -325.5 q0 -190 -78 -324.5 q-78 -134.5 -204 -206 q-126 -71.5 -269 -71.5 ZM641 217 q117 0 180.5 97 q63.5 97 63.5 259 q0 162 -63.5 259.5 q-63.5 97.5 -180.5 97.5 q-118 0 -181 -97.5 q-63 -97.5 -63 -259.5 q0 -162 63 -259 q63 -97 181 -97 ZM799 1335 q-56 0 -100 24.5 q-44 24.5 -80 56 q-36 31.5 -67.5 55.5 q-31.5 24 -64.5 24 q-77 0 -86 -143 l-190 12 q5 167 73.5 254.5 q68.5 87.5 198.5 87.5 q56 0 100 -24 q44 -24 80 -56 q36 -32 67.5 -56 q31.5 -24 64.5 -24 q73 0 88 140 l188 -9 q-5 -167 -73.5 -254.5 q-68.5 -87.5 -198.5 -87.5 Z" /><glyph glyph-name="" unicode="ö" d="M641 -29 q-144 0 -270 71.5 q-126 71.5 -203.5 206 q-77.5 134.5 -77.5 324.5 q0 191 77.5 325.5 q77.5 134.5 203.5 206 q126 71.5 270 71.5 q143 0 269 -71.5 q126 -71.5 204 -206 q78 -134.5 78 -325.5 q0 -190 -78 -324.5 q-78 -134.5 -204 -206 q-126 -71.5 -269 -71.5 ZM641 217 q117 0 180.5 97 q63.5 97 63.5 259 q0 162 -63.5 259.5 q-63.5 97.5 -180.5 97.5 q-118 0 -181 -97.5 q-63 -97.5 -63 -259.5 q0 -162 63 -259 q63 -97 181 -97 ZM395 1333 q-66 0 -108.5 44.5 q-42.5 44.5 -42.5 107.5 q0 64 42.5 108.5 q42.5 44.5 108.5 44.5 q68 0 111 -44.5 q43 -44.5 43 -108.5 q0 -63 -43 -107.5 q-43 -44.5 -111 -44.5 ZM885 1333 q-66 0 -109 44.5 q-43 44.5 -43 107.5 q0 64 43 108.5 q43 44.5 109 44.5 q67 0 110 -44.5 q43 -44.5 43 -108.5 q0 -63 -43 -107.5 q-43 -44.5 -110 -44.5 Z" /><glyph glyph-name="" unicode="÷" d="M1024 1470 q74 0 126 -53 q52 -53 52 -125 q0 -73 -52 -125.5 q-52 -52.5 -126 -52.5 q-74 0 -126 52.5 q-52 52.5 -52 125.5 q0 72 52 125 q52 53 126 53 ZM1751 881 l0 -209 l-1454 0 l0 209 l1454 0 ZM1024 438 q74 0 126 -52 q52 -52 52 -126 q0 -72 -52 -125 q-52 -53 -126 -53 q-74 0 -126 53 q-52 53 -52 125 q0 74 52 126 q52 52 126 52 Z" /><glyph glyph-name="" unicode="ø" d="M223 -57 l-114 90 l112 137 q-61 75 -96 177 q-35 102 -35 226 q0 191 77.5 325.5 q77.5 134.5 203.5 206 q126 71.5 270 71.5 q171 0 313 -99 l105 129 l115 -92 l-113 -139 q60 -75 95.5 -176 q35.5 -101 35.5 -226 q0 -190 -78 -324.5 q-78 -134.5 -204 -206 q-126 -71.5 -269 -71.5 q-174 0 -313 99 l-105 -127 ZM641 207 q117 0 187.5 95.5 q70.5 95.5 70.5 252.5 q0 111 -25 190 l-389 -479 q63 -59 156 -59 ZM408 401 l389 482 q-64 57 -156 57 q-118 0 -188 -97 q-70 -97 -70 -253 q0 -109 25 -189 Z" /><glyph glyph-name="" unicode="ù" d="M504 -29 q-186 0 -270 122.5 q-84 122.5 -84 338.5 l0 715 l299 0 l0 -678 q0 -134 39.5 -187 q39.5 -53 123.5 -53 q69 0 121 33.5 q52 33.5 111 110.5 l0 774 l301 0 l0 -1147 l-246 0 l-22 166 l-9 0 q-73 -88 -159.5 -141.5 q-86.5 -53.5 -204.5 -53.5 ZM643 1331 l-403 363 l204 198 l349 -415 l-150 -146 Z" /><glyph glyph-name="" unicode="ú" d="M504 -29 q-186 0 -270 122.5 q-84 122.5 -84 338.5 l0 715 l299 0 l0 -678 q0 -134 39.5 -187 q39.5 -53 123.5 -53 q69 0 121 33.5 q52 33.5 111 110.5 l0 774 l301 0 l0 -1147 l-246 0 l-22 166 l-9 0 q-73 -88 -159.5 -141.5 q-86.5 -53.5 -204.5 -53.5 ZM664 1331 l-152 146 l350 415 l205 -198 l-403 -363 Z" /><glyph glyph-name="" unicode="û" d="M504 -29 q-186 0 -270 122.5 q-84 122.5 -84 338.5 l0 715 l299 0 l0 -678 q0 -134 39.5 -187 q39.5 -53 123.5 -53 q69 0 121 33.5 q52 33.5 111 110.5 l0 774 l301 0 l0 -1147 l-246 0 l-22 166 l-9 0 q-73 -88 -159.5 -141.5 q-86.5 -53.5 -204.5 -53.5 ZM246 1417 l254 309 l305 0 l256 -309 l-119 -108 l-285 225 l-10 0 l-285 -225 l-116 108 Z" /><glyph glyph-name="" unicode="ü" d="M504 -29 q-186 0 -270 122.5 q-84 122.5 -84 338.5 l0 715 l299 0 l0 -678 q0 -134 39.5 -187 q39.5 -53 123.5 -53 q69 0 121 33.5 q52 33.5 111 110.5 l0 774 l301 0 l0 -1147 l-246 0 l-22 166 l-9 0 q-73 -88 -159.5 -141.5 q-86.5 -53.5 -204.5 -53.5 ZM408 1333 q-66 0 -109 44.5 q-43 44.5 -43 107.5 q0 64 43 108.5 q43 44.5 109 44.5 q66 0 108.5 -44.5 q42.5 -44.5 42.5 -108.5 q0 -63 -42.5 -107.5 q-42.5 -44.5 -108.5 -44.5 ZM899 1333 q-66 0 -110 44.5 q-44 44.5 -44 107.5 q0 64 44 108.5 q44 44.5 110 44.5 q66 0 109 -44.5 q43 -44.5 43 -108.5 q0 -63 -43 -107.5 q-43 -44.5 -109 -44.5 Z" /><glyph glyph-name="" unicode="ý" d="M262 -459 q-51 0 -87.5 6 q-36.5 6 -70.5 15 l56 231 q15 -4 37.5 -9 q22.5 -5 42.5 -5 q87 0 138.5 49.5 q51.5 49.5 76.5 124.5 l20 70 l-446 1124 l303 0 l182 -533 q26 -76 49 -158 q23 -82 47 -165 l11 0 q18 80 39 162 q21 82 42 161 l158 533 l289 0 l-408 -1182 q-50 -135 -112 -229.5 q-62 -94.5 -150.5 -144.5 q-88.5 -50 -216.5 -50 ZM612 1331 l-147 146 l348 415 l205 -198 l-406 -363 Z" /><glyph glyph-name="" unicode="þ" d="M162 -440 l0 2074 l301 0 l0 -409 l-8 -174 q66 53 143 89 q77 36 160 36 q146 0 250.5 -73 q104.5 -73 160.5 -204 q56 -131 56 -307 q0 -197 -69.5 -335.5 q-69.5 -138.5 -181 -212 q-111.5 -73.5 -237.5 -73.5 q-83 0 -151 30.5 q-68 30.5 -131 84.5 l8 -176 l0 -350 l-301 0 ZM672 219 q101 0 172 90.5 q71 90.5 71 278.5 q0 164 -54.5 252 q-54.5 88 -172.5 88 q-58 0 -112.5 -29.5 q-54.5 -29.5 -112.5 -87.5 l0 -506 q55 -47 108 -66.5 q53 -19.5 101 -19.5 Z" /><glyph glyph-name="" unicode="ÿ" d="M262 -459 q-51 0 -87.5 6 q-36.5 6 -70.5 15 l56 231 q15 -4 37.5 -9 q22.5 -5 42.5 -5 q87 0 138.5 49.5 q51.5 49.5 76.5 124.5 l20 70 l-446 1124 l303 0 l182 -533 q26 -76 49 -158 q23 -82 47 -165 l11 0 q18 80 39 162 q21 82 42 161 l158 533 l289 0 l-408 -1182 q-50 -135 -112 -229.5 q-62 -94.5 -150.5 -144.5 q-88.5 -50 -216.5 -50 ZM360 1333 q-67 0 -110 44.5 q-43 44.5 -43 107.5 q0 64 43 108.5 q43 44.5 110 44.5 q66 0 109 -44.5 q43 -44.5 43 -108.5 q0 -63 -43 -107.5 q-43 -44.5 -109 -44.5 ZM852 1333 q-69 0 -111.5 44.5 q-42.5 44.5 -42.5 107.5 q0 64 42.5 108.5 q42.5 44.5 111.5 44.5 q66 0 109 -44.5 q43 -44.5 43 -108.5 q0 -63 -43 -107.5 q-43 -44.5 -109 -44.5 Z" /><glyph glyph-name="" unicode="&#x100;" d="M311 1686 l0 194 l682 0 l0 -194 l-682 0 ZM-8 0 l485 1518 l359 0 l485 -1518 l-320 0 l-106 389 l-489 0 l-107 -389 l-307 0 ZM471 625 l360 0 l-45 166 q-35 118 -67 246 q-32 128 -66 249 l-8 0 q-31 -124 -63 -250.5 q-32 -126.5 -66 -244.5 l-45 -166 Z" /><glyph glyph-name="" unicode="&#x101;" d="M442 -29 q-102 0 -178 44.5 q-76 44.5 -118 122 q-42 77.5 -42 175.5 q0 183 157 284 q157 101 503 138 q-3 85 -46 142 q-43 57 -149 57 q-80 0 -157.5 -31.5 q-77.5 -31.5 -157.5 -79.5 l-107 201 q100 61 221 106.5 q121 45.5 257 45.5 q218 0 329 -128.5 q111 -128.5 111 -377.5 l0 -670 l-246 0 l-20 123 l-11 0 q-73 -66 -159.5 -109 q-86.5 -43 -186.5 -43 ZM543 207 q64 0 115.5 29.5 q51.5 29.5 105.5 82.5 l0 230 q-211 -25 -292 -80 q-81 -55 -81 -133 q0 -68 43 -98.5 q43 -30.5 109 -30.5 ZM303 1380 l0 195 l668 0 l0 -195 l-668 0 Z" /><glyph glyph-name="" unicode="&#x102;" d="M653 1624 q-170 0 -260.5 84.5 q-90.5 84.5 -107.5 228.5 l168 29 q13 -74 64.5 -119 q51.5 -45 135.5 -45 q85 0 135.5 45 q50.5 45 65.5 119 l166 -29 q-14 -144 -105 -228.5 q-91 -84.5 -262 -84.5 ZM-8 0 l485 1518 l359 0 l485 -1518 l-320 0 l-106 389 l-489 0 l-107 -389 l-307 0 ZM471 625 l360 0 l-45 166 q-35 118 -67 246 q-32 128 -66 249 l-8 0 q-31 -124 -63 -250.5 q-32 -126.5 -66 -244.5 l-45 -166 Z" /><glyph glyph-name="" unicode="&#x103;" d="M442 -29 q-102 0 -178 44.5 q-76 44.5 -118 122 q-42 77.5 -42 175.5 q0 183 157 284 q157 101 503 138 q-3 85 -46 142 q-43 57 -149 57 q-80 0 -157.5 -31.5 q-77.5 -31.5 -157.5 -79.5 l-107 201 q100 61 221 106.5 q121 45.5 257 45.5 q218 0 329 -128.5 q111 -128.5 111 -377.5 l0 -670 l-246 0 l-20 123 l-11 0 q-73 -66 -159.5 -109 q-86.5 -43 -186.5 -43 ZM543 207 q64 0 115.5 29.5 q51.5 29.5 105.5 82.5 l0 230 q-211 -25 -292 -80 q-81 -55 -81 -133 q0 -68 43 -98.5 q43 -30.5 109 -30.5 ZM637 1327 q-130 0 -214 50 q-84 50 -125.5 132.5 q-41.5 82.5 -45.5 182.5 l174 26 q11 -78 62 -139 q51 -61 149 -61 q97 0 148 61 q51 61 63 139 l174 -26 q-5 -100 -46.5 -182.5 q-41.5 -82.5 -124.5 -132.5 q-83 -50 -214 -50 Z" /><glyph glyph-name="" unicode="&#x110;" d="M244 0 l0 713 l-176 0 l0 137 l176 10 l0 658 l415 0 q348 0 548 -185 q200 -185 200 -567 q0 -256 -90 -426 q-90 -170 -254 -255 q-164 -85 -387 -85 l-432 0 ZM545 246 l94 0 q213 0 336 121.5 q123 121.5 123 398.5 q0 276 -123 392 q-123 116 -336 116 l-94 0 l0 -414 l305 0 l0 -147 l-305 0 l0 -467 Z" /><glyph glyph-name="" unicode="&#x111;" d="M643 219 q60 0 113 27 q53 27 102 92 l0 395 q-52 49 -106 68.5 q-54 19.5 -109 19.5 q-97 0 -167 -79 q-70 -79 -70 -218 q0 -146 61.5 -225.5 q61.5 -79.5 175.5 -79.5 ZM504 1303 l0 149 l354 0 l0 182 l301 0 l0 -182 l160 0 l0 -137 l-160 -10 l0 -1305 l-252 0 l-20 111 l-8 0 q-60 -62 -141 -101 q-81 -39 -173 -39 q-143 0 -248.5 68 q-105.5 68 -163 191.5 q-57.5 123.5 -57.5 291.5 q0 164 69 286.5 q69 122.5 179.5 190.5 q110.5 68 233.5 68 q96 0 162.5 -33 q66.5 -33 127.5 -88 l-10 178 l0 179 l-354 0 Z" /><glyph glyph-name="" unicode="&#x112;" d="M186 0 l0 1518 l930 0 l0 -254 l-627 0 l0 -351 l531 0 l0 -254 l-531 0 l0 -405 l650 0 l0 -254 l-953 0 ZM334 1686 l0 194 l680 0 l0 -194 l-680 0 Z" /><glyph glyph-name="" unicode="&#x113;" d="M662 -29 q-161 0 -290.5 72 q-129.5 72 -205.5 206.5 q-76 134.5 -76 323.5 q0 139 44.5 250.5 q44.5 111.5 120.5 190 q76 78.5 171.5 120.5 q95.5 42 198.5 42 q157 0 264 -71 q107 -71 161 -195 q54 -124 54 -283 q0 -89 -14 -140 l-707 0 q18 -139 104 -210.5 q86 -71.5 215 -71.5 q70 0 131.5 19.5 q61.5 19.5 124.5 58.5 l103 -185 q-85 -58 -189.5 -92.5 q-104.5 -34.5 -209.5 -34.5 ZM377 690 l469 0 q0 115 -52.5 183.5 q-52.5 68.5 -164.5 68.5 q-91 0 -162.5 -63.5 q-71.5 -63.5 -89.5 -188.5 ZM287 1380 l0 195 l669 0 l0 -195 l-669 0 Z" /><glyph glyph-name="" unicode="&#x11a;" d="M186 0 l0 1518 l930 0 l0 -254 l-627 0 l0 -351 l531 0 l0 -254 l-531 0 l0 -405 l650 0 l0 -254 l-953 0 ZM510 1632 l-215 260 l129 82 l244 -200 l10 0 l246 200 l129 -82 l-215 -260 l-328 0 Z" /><glyph glyph-name="" unicode="&#x11b;" d="M662 -29 q-161 0 -290.5 72 q-129.5 72 -205.5 206.5 q-76 134.5 -76 323.5 q0 139 44.5 250.5 q44.5 111.5 120.5 190 q76 78.5 171.5 120.5 q95.5 42 198.5 42 q157 0 264 -71 q107 -71 161 -195 q54 -124 54 -283 q0 -89 -14 -140 l-707 0 q18 -139 104 -210.5 q86 -71.5 215 -71.5 q70 0 131.5 19.5 q61.5 19.5 124.5 58.5 l103 -185 q-85 -58 -189.5 -92.5 q-104.5 -34.5 -209.5 -34.5 ZM377 690 l469 0 q0 115 -52.5 183.5 q-52.5 68.5 -164.5 68.5 q-91 0 -162.5 -63.5 q-71.5 -63.5 -89.5 -188.5 ZM467 1339 l-256 310 l119 108 l284 -227 l11 0 l286 227 l117 -108 l-254 -310 l-307 0 Z" /><glyph glyph-name="" unicode="&#x128;" d="M186 0 l0 1518 l303 0 l0 -1518 l-303 0 ZM510 1620 q-64 0 -111 21.5 q-47 21.5 -83.5 49.5 q-36.5 28 -68.5 49 q-32 21 -65 21 q-35 0 -60.5 -28.5 q-25.5 -28.5 -31.5 -96.5 l-194 17 q7 163 84 241 q77 78 194 78 q62 0 109 -21 q47 -21 84 -49 q37 -28 68.5 -49.5 q31.5 -21.5 64.5 -21.5 q37 0 60.5 28.5 q23.5 28.5 31.5 96.5 l196 -14 q-9 -166 -86 -244 q-77 -78 -192 -78 Z" /><glyph glyph-name="" unicode="&#x129;" d="M162 0 l0 1147 l301 0 l0 -1147 l-301 0 ZM469 1335 q-57 0 -100.5 24.5 q-43.5 24.5 -79 56 q-35.5 31.5 -66 55.5 q-30.5 24 -61.5 24 q-79 0 -88 -143 l-193 12 q6 167 74.5 254.5 q68.5 87.5 200.5 87.5 q56 0 100 -24 q44 -24 80 -56 q36 -32 67 -56 q31 -24 62 -24 q77 0 86 140 l190 -9 q-3 -167 -71.5 -254.5 q-68.5 -87.5 -200.5 -87.5 Z" /><glyph glyph-name="" unicode="&#x12a;" d="M186 0 l0 1518 l303 0 l0 -1518 l-303 0 ZM0 1686 l0 194 l682 0 l0 -194 l-682 0 Z" /><glyph glyph-name="" unicode="&#x12b;" d="M162 0 l0 1147 l301 0 l0 -1147 l-301 0 ZM-23 1380 l0 195 l668 0 l0 -195 l-668 0 Z" /><glyph glyph-name="" unicode="&#x143;" d="M186 0 l0 1518 l310 0 l440 -809 l154 -328 l10 0 q-13 118 -27 259.5 q-14 141.5 -14 270.5 l0 607 l287 0 l0 -1518 l-310 0 l-436 811 l-154 326 l-10 0 q9 -123 24 -260.5 q15 -137.5 15 -268.5 l0 -608 l-289 0 ZM756 1591 l-135 152 l378 317 l160 -196 l-403 -273 Z" /><glyph glyph-name="" unicode="&#x144;" d="M162 0 l0 1147 l246 0 l22 -152 l6 0 q75 74 165.5 127.5 q90.5 53.5 207.5 53.5 q186 0 270 -122.5 q84 -122.5 84 -338.5 l0 -715 l-301 0 l0 678 q0 134 -38.5 187 q-38.5 53 -123.5 53 q-69 0 -121.5 -33.5 q-52.5 -33.5 -115.5 -96.5 l0 -788 l-301 0 ZM725 1331 l-150 146 l349 415 l204 -198 l-403 -363 Z" /><glyph glyph-name="" unicode="&#x147;" d="M186 0 l0 1518 l310 0 l440 -809 l154 -328 l10 0 q-13 118 -27 259.5 q-14 141.5 -14 270.5 l0 607 l287 0 l0 -1518 l-310 0 l-436 811 l-154 326 l-10 0 q9 -123 24 -260.5 q15 -137.5 15 -268.5 l0 -608 l-289 0 ZM621 1632 l-220 260 l131 82 l246 -200 l8 0 l248 200 l129 -82 l-219 -260 l-323 0 Z" /><glyph glyph-name="" unicode="&#x148;" d="M162 0 l0 1147 l246 0 l22 -152 l6 0 q75 74 165.5 127.5 q90.5 53.5 207.5 53.5 q186 0 270 -122.5 q84 -122.5 84 -338.5 l0 -715 l-301 0 l0 678 q0 134 -38.5 187 q-38.5 53 -123.5 53 q-69 0 -121.5 -33.5 q-52.5 -33.5 -115.5 -96.5 l0 -788 l-301 0 ZM563 1339 l-254 310 l117 108 l287 -227 l8 0 l287 227 l114 -108 l-256 -310 l-303 0 Z" /><glyph glyph-name="" unicode="&#x14c;" d="M788 -29 q-200 0 -353 96 q-153 96 -238.5 274 q-85.5 178 -85.5 425 q0 246 85.5 420 q85.5 174 238.5 266 q153 92 353 92 q201 0 354 -92 q153 -92 238.5 -266 q85.5 -174 85.5 -420 q0 -247 -85.5 -425 q-85.5 -178 -238.5 -274 q-153 -96 -354 -96 ZM788 233 q113 0 196 66 q83 66 128 185.5 q45 119.5 45 281.5 q0 243 -100 380.5 q-100 137.5 -269 137.5 q-168 0 -267 -137.5 q-99 -137.5 -99 -380.5 q0 -243 99 -388 q99 -145 267 -145 ZM449 1686 l0 194 l679 0 l0 -194 l-679 0 Z" /><glyph glyph-name="" unicode="&#x14d;" d="M641 -29 q-144 0 -270 71.5 q-126 71.5 -203.5 206 q-77.5 134.5 -77.5 324.5 q0 191 77.5 325.5 q77.5 134.5 203.5 206 q126 71.5 270 71.5 q143 0 269 -71.5 q126 -71.5 204 -206 q78 -134.5 78 -325.5 q0 -190 -78 -324.5 q-78 -134.5 -204 -206 q-126 -71.5 -269 -71.5 ZM641 217 q117 0 180.5 97 q63.5 97 63.5 259 q0 162 -63.5 259.5 q-63.5 97.5 -180.5 97.5 q-118 0 -181 -97.5 q-63 -97.5 -63 -259.5 q0 -162 63 -259 q63 -97 181 -97 ZM307 1380 l0 195 l668 0 l0 -195 l-668 0 Z" /><glyph glyph-name="" unicode="&#x14e;" d="M788 -29 q-200 0 -353 96 q-153 96 -238.5 274 q-85.5 178 -85.5 425 q0 246 85.5 420 q85.5 174 238.5 266 q153 92 353 92 q201 0 354 -92 q153 -92 238.5 -266 q85.5 -174 85.5 -420 q0 -247 -85.5 -425 q-85.5 -178 -238.5 -274 q-153 -96 -354 -96 ZM788 233 q113 0 196 66 q83 66 128 185.5 q45 119.5 45 281.5 q0 243 -100 380.5 q-100 137.5 -269 137.5 q-168 0 -267 -137.5 q-99 -137.5 -99 -380.5 q0 -243 99 -388 q99 -145 267 -145 ZM788 1624 q-168 0 -259.5 84.5 q-91.5 84.5 -108.5 228.5 l168 29 q15 -74 66.5 -119 q51.5 -45 133.5 -45 q83 0 135 45 q52 45 66 119 l168 -29 q-17 -144 -108.5 -228.5 q-91.5 -84.5 -260.5 -84.5 Z" /><glyph glyph-name="" unicode="&#x14f;" d="M641 -29 q-144 0 -270 71.5 q-126 71.5 -203.5 206 q-77.5 134.5 -77.5 324.5 q0 191 77.5 325.5 q77.5 134.5 203.5 206 q126 71.5 270 71.5 q143 0 269 -71.5 q126 -71.5 204 -206 q78 -134.5 78 -325.5 q0 -190 -78 -324.5 q-78 -134.5 -204 -206 q-126 -71.5 -269 -71.5 ZM641 217 q117 0 180.5 97 q63.5 97 63.5 259 q0 162 -63.5 259.5 q-63.5 97.5 -180.5 97.5 q-118 0 -181 -97.5 q-63 -97.5 -63 -259.5 q0 -162 63 -259 q63 -97 181 -97 ZM641 1327 q-131 0 -214.5 50 q-83.5 50 -125 132.5 q-41.5 82.5 -45.5 182.5 l174 26 q12 -78 62.5 -139 q50.5 -61 148.5 -61 q98 0 148.5 61 q50.5 61 62.5 139 l174 -26 q-5 -100 -46 -182.5 q-41 -82.5 -124 -132.5 q-83 -50 -215 -50 Z" /><glyph glyph-name="" unicode="&#x152;" d="M864 0 q-220 0 -390 85 q-170 85 -266.5 255 q-96.5 170 -96.5 426 q0 255 97 421.5 q97 166.5 270.5 248.5 q173.5 82 402.5 82 l983 0 l0 -254 l-594 0 l0 -351 l499 0 l0 -254 l-499 0 l0 -405 l618 0 l0 -254 l-1024 0 ZM897 246 l72 0 l0 1028 l-72 0 q-145 0 -252 -50 q-107 -50 -165 -161.5 q-58 -111.5 -58 -296.5 q0 -280 128.5 -400 q128.5 -120 346.5 -120 Z" /><glyph glyph-name="" unicode="&#x153;" d="M618 -29 q-143 0 -263 71.5 q-120 71.5 -192.5 206 q-72.5 134.5 -72.5 324.5 q0 191 73.5 325.5 q73.5 134.5 195 206 q121.5 71.5 266.5 71.5 q124 0 222 -60 q98 -60 161 -168 q69 108 166.5 168 q97.5 60 207.5 60 q149 0 250 -73 q101 -73 153 -198.5 q52 -125.5 52 -283.5 q0 -42 -5 -77 q-5 -35 -9 -57 l-686 0 q15 -135 98.5 -206.5 q83.5 -71.5 200.5 -71.5 q69 0 129 24 q60 24 125 62 l102 -197 q-84 -58 -188.5 -92.5 q-104.5 -34.5 -210.5 -34.5 q-111 0 -211.5 59.5 q-100.5 59.5 -169.5 164.5 q-69 -109 -166 -166.5 q-97 -57.5 -228 -57.5 ZM625 217 q106 0 169.5 97 q63.5 97 63.5 259 q0 162 -63.5 259.5 q-63.5 97.5 -169.5 97.5 q-106 0 -168 -97.5 q-62 -97.5 -62 -259.5 q0 -162 62 -259 q62 -97 168 -97 ZM1137 674 l440 0 q0 124 -51 196 q-51 72 -154 72 q-90 0 -156 -68 q-66 -68 -79 -200 Z" /><glyph glyph-name="" unicode="&#x168;" d="M770 -29 q-280 0 -435 167.5 q-155 167.5 -155 543.5 l0 836 l301 0 l0 -863 q0 -157 35 -249.5 q35 -92.5 100 -132.5 q65 -40 154 -40 q88 0 154 40 q66 40 102.5 132.5 q36.5 92.5 36.5 249.5 l0 863 l291 0 l0 -836 q0 -376 -153.5 -543.5 q-153.5 -167.5 -430.5 -167.5 ZM934 1620 q-64 0 -111.5 21.5 q-47.5 21.5 -84 49.5 q-36.5 28 -67.5 49 q-31 21 -63 21 q-37 0 -61.5 -28.5 q-24.5 -28.5 -32.5 -96.5 l-195 17 q8 163 85 241 q77 78 192 78 q63 0 110 -21 q47 -21 84.5 -49 q37.5 -28 69 -49.5 q31.5 -21.5 64.5 -21.5 q35 0 60 28.5 q25 28.5 34 96.5 l194 -14 q-9 -166 -86 -244 q-77 -78 -192 -78 Z" /><glyph glyph-name="" unicode="&#x169;" d="M504 -29 q-186 0 -270 122.5 q-84 122.5 -84 338.5 l0 715 l299 0 l0 -678 q0 -134 39.5 -187 q39.5 -53 123.5 -53 q69 0 121 33.5 q52 33.5 111 110.5 l0 774 l301 0 l0 -1147 l-246 0 l-22 166 l-9 0 q-73 -88 -159.5 -141.5 q-86.5 -53.5 -204.5 -53.5 ZM811 1335 q-57 0 -101.5 24.5 q-44.5 24.5 -80 56 q-35.5 31.5 -66.5 55.5 q-31 24 -61 24 q-42 0 -62 -35 q-20 -35 -26 -108 l-193 12 q5 167 74.5 254.5 q69.5 87.5 200.5 87.5 q56 0 100.5 -24 q44.5 -24 80 -56 q35.5 -32 66.5 -56 q31 -24 62 -24 q76 0 88 140 l190 -9 q-4 -167 -72.5 -254.5 q-68.5 -87.5 -199.5 -87.5 Z" /><glyph glyph-name="" unicode="&#x16a;" d="M770 -29 q-280 0 -435 167.5 q-155 167.5 -155 543.5 l0 836 l301 0 l0 -863 q0 -157 35 -249.5 q35 -92.5 100 -132.5 q65 -40 154 -40 q88 0 154 40 q66 40 102.5 132.5 q36.5 92.5 36.5 249.5 l0 863 l291 0 l0 -836 q0 -376 -153.5 -543.5 q-153.5 -167.5 -430.5 -167.5 ZM426 1686 l0 194 l680 0 l0 -194 l-680 0 Z" /><glyph glyph-name="" unicode="&#x16b;" d="M504 -29 q-186 0 -270 122.5 q-84 122.5 -84 338.5 l0 715 l299 0 l0 -678 q0 -134 39.5 -187 q39.5 -53 123.5 -53 q69 0 121 33.5 q52 33.5 111 110.5 l0 774 l301 0 l0 -1147 l-246 0 l-22 166 l-9 0 q-73 -88 -159.5 -141.5 q-86.5 -53.5 -204.5 -53.5 ZM319 1380 l0 195 l668 0 l0 -195 l-668 0 Z" /><glyph glyph-name="" unicode="&#x16c;" d="M770 -29 q-280 0 -435 167.5 q-155 167.5 -155 543.5 l0 836 l301 0 l0 -863 q0 -157 35 -249.5 q35 -92.5 100 -132.5 q65 -40 154 -40 q88 0 154 40 q66 40 102.5 132.5 q36.5 92.5 36.5 249.5 l0 863 l291 0 l0 -836 q0 -376 -153.5 -543.5 q-153.5 -167.5 -430.5 -167.5 ZM764 1624 q-169 0 -260 84.5 q-91 84.5 -107 228.5 l168 29 q16 -74 66 -119 q50 -45 133 -45 q84 0 136 45 q52 45 65 119 l170 -29 q-17 -144 -109 -228.5 q-92 -84.5 -262 -84.5 Z" /><glyph glyph-name="" unicode="&#x16d;" d="M504 -29 q-186 0 -270 122.5 q-84 122.5 -84 338.5 l0 715 l299 0 l0 -678 q0 -134 39.5 -187 q39.5 -53 123.5 -53 q69 0 121 33.5 q52 33.5 111 110.5 l0 774 l301 0 l0 -1147 l-246 0 l-22 166 l-9 0 q-73 -88 -159.5 -141.5 q-86.5 -53.5 -204.5 -53.5 ZM653 1327 q-131 0 -214 50 q-83 50 -125 132.5 q-42 82.5 -48 182.5 l176 26 q11 -78 62 -139 q51 -61 149 -61 q99 0 148.5 61 q49.5 61 60.5 139 l176 -26 q-5 -100 -46.5 -182.5 q-41.5 -82.5 -125 -132.5 q-83.5 -50 -213.5 -50 Z" /><glyph glyph-name="" unicode="&#x192;" d="M264 737 l0 209 l168 12 l39 0 l12 107 q28 249 130 364 q102 115 319 115 q46 0 103.5 -12.5 q57.5 -12.5 92.5 -28.5 l-59 -225 q-21 8 -49.5 17.5 q-28.5 9.5 -65.5 9.5 q-84 0 -126.5 -61 q-42.5 -61 -53.5 -154 l-14 -132 l252 0 l0 -221 l-279 0 l-55 -471 q-16 -138 -58.5 -249.5 q-42.5 -111.5 -129.5 -176.5 q-87 -65 -236 -65 q-132 3 -193 37 l43 223 q27 -11 53 -16 q26 -5 54 -7 q59 2 96.5 33 q37.5 31 59 104 q21.5 73 34.5 201 l45 387 l-182 0 Z" /><glyph glyph-name="" unicode="&#x1a0;" d="M793 233 q111 0 193.5 66 q82.5 66 127.5 185.5 q45 119.5 45 281.5 q0 243 -99.5 380.5 q-99.5 137.5 -266.5 137.5 q-169 0 -270 -137.5 q-101 -137.5 -101 -380.5 q0 -162 45.5 -281.5 q45.5 -119.5 129 -185.5 q83.5 -66 196.5 -66 ZM793 -29 q-201 0 -354 96 q-153 96 -238.5 274 q-85.5 178 -85.5 425 q0 246 85.5 420 q85.5 174 238.5 266 q153 92 354 92 q175 0 315 -71 q77 19 115.5 58 q38.5 39 38.5 118 q0 41 -10.5 79 q-10.5 38 -24.5 66 l225 92 q25 -38 44.5 -95.5 q19.5 -57.5 19.5 -123.5 q0 -120 -67 -191 q-67 -71 -196 -108 q102 -100 158.5 -252 q56.5 -152 56.5 -350 q0 -247 -85.5 -425 q-85.5 -178 -238 -274 q-152.5 -96 -351.5 -96 Z" /><glyph glyph-name="" unicode="&#x1a1;" d="M641 217 q117 0 180.5 97 q63.5 97 63.5 259 q0 162 -63.5 259.5 q-63.5 97.5 -180.5 97.5 q-118 0 -181 -97.5 q-63 -97.5 -63 -259.5 q0 -162 63 -259 q63 -97 181 -97 ZM641 -29 q-144 0 -270 71.5 q-126 71.5 -203.5 206 q-77.5 134.5 -77.5 324.5 q0 191 77.5 325.5 q77.5 134.5 203.5 206 q126 71.5 270 71.5 q116 0 223 -48 q77 17 122.5 66.5 q45.5 49.5 45.5 144.5 q0 39 -9.5 72 q-9.5 33 -25.5 59 l224 99 q26 -37 45.5 -93 q19.5 -56 19.5 -114 q0 -140 -80 -220.5 q-80 -80.5 -190 -115.5 q80 -77 128 -191 q48 -114 48 -262 q0 -190 -78 -324.5 q-78 -134.5 -204 -206 q-126 -71.5 -269 -71.5 Z" /><glyph glyph-name="" unicode="&#x1af;" d="M770 -29 q-280 0 -435 167.5 q-155 167.5 -155 543.5 l0 836 l301 0 l0 -863 q0 -157 35 -249.5 q35 -92.5 100 -132.5 q65 -40 154 -40 q88 0 154 40 q66 40 102.5 132.5 q36.5 92.5 36.5 249.5 l0 863 l135 0 q52 4 97.5 18.5 q45.5 14.5 73.5 51 q28 36.5 28 106.5 q0 41 -10.5 80 q-10.5 39 -24.5 65 l225 94 q25 -38 45.5 -96 q20.5 -58 20.5 -123 q0 -140 -82 -211.5 q-82 -71.5 -217 -99.5 l0 -721 q0 -376 -153.5 -543.5 q-153.5 -167.5 -430.5 -167.5 Z" /><glyph glyph-name="" unicode="&#x1b0;" d="M504 -29 q-186 0 -270 122.5 q-84 122.5 -84 338.5 l0 715 l299 0 l0 -678 q0 -134 39.5 -187 q39.5 -53 123.5 -53 q69 0 121 33.5 q52 33.5 111 110.5 l0 774 l92 0 q46 4 90 21.5 q44 17.5 72 63 q28 45.5 28 132.5 q0 37 -11.5 70 q-11.5 33 -24.5 59 l225 98 q26 -37 44.5 -92.5 q18.5 -55.5 18.5 -114.5 q0 -138 -68 -219.5 q-68 -81.5 -165 -113.5 l0 -1051 l-246 0 l-22 166 l-9 0 q-73 -88 -159.5 -141.5 q-86.5 -53.5 -204.5 -53.5 Z" /><glyph glyph-name="" unicode="&#x1cd;" d="M492 1632 l-218 260 l127 82 l246 -200 l10 0 l246 200 l129 -82 l-217 -260 l-323 0 ZM-8 0 l485 1518 l359 0 l485 -1518 l-320 0 l-106 389 l-489 0 l-107 -389 l-307 0 ZM471 625 l360 0 l-45 166 q-35 118 -67 246 q-32 128 -66 249 l-8 0 q-31 -124 -63 -250.5 q-32 -126.5 -66 -244.5 l-45 -166 Z" /><glyph glyph-name="" unicode="&#x1ce;" d="M442 -29 q-102 0 -178 44.5 q-76 44.5 -118 122 q-42 77.5 -42 175.5 q0 183 157 284 q157 101 503 138 q-3 85 -46 142 q-43 57 -149 57 q-80 0 -157.5 -31.5 q-77.5 -31.5 -157.5 -79.5 l-107 201 q100 61 221 106.5 q121 45.5 257 45.5 q218 0 329 -128.5 q111 -128.5 111 -377.5 l0 -670 l-246 0 l-20 123 l-11 0 q-73 -66 -159.5 -109 q-86.5 -43 -186.5 -43 ZM543 207 q64 0 115.5 29.5 q51.5 29.5 105.5 82.5 l0 230 q-211 -25 -292 -80 q-81 -55 -81 -133 q0 -68 43 -98.5 q43 -30.5 109 -30.5 ZM483 1339 l-254 310 l119 108 l285 -227 l8 0 l287 227 l114 -108 l-254 -310 l-305 0 Z" /><glyph glyph-name="" unicode="&#x1cf;" d="M186 0 l0 1518 l303 0 l0 -1518 l-303 0 ZM178 1632 l-217 260 l129 82 l246 -200 l8 0 l248 200 l131 -82 l-219 -260 l-326 0 Z" /><glyph glyph-name="" unicode="&#x1d0;" d="M162 0 l0 1147 l301 0 l0 -1147 l-301 0 ZM158 1339 l-252 310 l114 108 l287 -227 l10 0 l285 227 l117 -108 l-252 -310 l-309 0 Z" /><glyph glyph-name="" unicode="&#x1d1;" d="M788 -29 q-200 0 -353 96 q-153 96 -238.5 274 q-85.5 178 -85.5 425 q0 246 85.5 420 q85.5 174 238.5 266 q153 92 353 92 q201 0 354 -92 q153 -92 238.5 -266 q85.5 -174 85.5 -420 q0 -247 -85.5 -425 q-85.5 -178 -238.5 -274 q-153 -96 -354 -96 ZM788 233 q113 0 196 66 q83 66 128 185.5 q45 119.5 45 281.5 q0 243 -100 380.5 q-100 137.5 -269 137.5 q-168 0 -267 -137.5 q-99 -137.5 -99 -380.5 q0 -243 99 -388 q99 -145 267 -145 ZM627 1632 l-219 260 l131 82 l245 -200 l9 0 l247 200 l129 -82 l-219 -260 l-323 0 Z" /><glyph glyph-name="" unicode="&#x1d2;" d="M641 -29 q-144 0 -270 71.5 q-126 71.5 -203.5 206 q-77.5 134.5 -77.5 324.5 q0 191 77.5 325.5 q77.5 134.5 203.5 206 q126 71.5 270 71.5 q143 0 269 -71.5 q126 -71.5 204 -206 q78 -134.5 78 -325.5 q0 -190 -78 -324.5 q-78 -134.5 -204 -206 q-126 -71.5 -269 -71.5 ZM641 217 q117 0 180.5 97 q63.5 97 63.5 259 q0 162 -63.5 259.5 q-63.5 97.5 -180.5 97.5 q-118 0 -181 -97.5 q-63 -97.5 -63 -259.5 q0 -162 63 -259 q63 -97 181 -97 ZM489 1339 l-256 310 l117 108 l285 -227 l10 0 l289 227 l115 -108 l-256 -310 l-304 0 Z" /><glyph glyph-name="" unicode="&#x1d3;" d="M770 -29 q-280 0 -435 167.5 q-155 167.5 -155 543.5 l0 836 l301 0 l0 -863 q0 -157 35 -249.5 q35 -92.5 100 -132.5 q65 -40 154 -40 q88 0 154 40 q66 40 102.5 132.5 q36.5 92.5 36.5 249.5 l0 863 l291 0 l0 -836 q0 -376 -153.5 -543.5 q-153.5 -167.5 -430.5 -167.5 ZM602 1632 l-217 260 l131 82 l244 -200 l10 0 l246 200 l129 -82 l-217 -260 l-326 0 Z" /><glyph glyph-name="" unicode="&#x1d4;" d="M504 -29 q-186 0 -270 122.5 q-84 122.5 -84 338.5 l0 715 l299 0 l0 -678 q0 -134 39.5 -187 q39.5 -53 123.5 -53 q69 0 121 33.5 q52 33.5 111 110.5 l0 774 l301 0 l0 -1147 l-246 0 l-22 166 l-9 0 q-73 -88 -159.5 -141.5 q-86.5 -53.5 -204.5 -53.5 ZM500 1339 l-254 310 l116 108 l285 -227 l10 0 l285 227 l119 -108 l-256 -310 l-305 0 Z" /><glyph glyph-name="" unicode="&#x1d5;" d="M770 -29 q-280 0 -435 167.5 q-155 167.5 -155 543.5 l0 836 l301 0 l0 -863 q0 -157 35 -249.5 q35 -92.5 100 -132.5 q65 -40 154 -40 q88 0 154 40 q66 40 102.5 132.5 q36.5 92.5 36.5 249.5 l0 863 l291 0 l0 -836 q0 -376 -153.5 -543.5 q-153.5 -167.5 -430.5 -167.5 ZM512 1636 q-58 0 -94.5 38.5 q-36.5 38.5 -36.5 94.5 q0 57 36.5 95.5 q36.5 38.5 94.5 38.5 q58 0 96.5 -38.5 q38.5 -38.5 38.5 -95.5 q0 -56 -38.5 -94.5 q-38.5 -38.5 -96.5 -38.5 ZM426 2019 l0 146 l680 0 l0 -146 l-680 0 ZM1018 1636 q-59 0 -96 38.5 q-37 38.5 -37 94.5 q0 57 37 95.5 q37 38.5 96 38.5 q58 0 95.5 -38.5 q37.5 -38.5 37.5 -95.5 q0 -56 -37.5 -94.5 q-37.5 -38.5 -95.5 -38.5 Z" /><glyph glyph-name="" unicode="&#x1d6;" d="M504 -29 q-186 0 -270 122.5 q-84 122.5 -84 338.5 l0 715 l299 0 l0 -678 q0 -134 39.5 -187 q39.5 -53 123.5 -53 q69 0 121 33.5 q52 33.5 111 110.5 l0 774 l301 0 l0 -1147 l-246 0 l-22 166 l-9 0 q-73 -88 -159.5 -141.5 q-86.5 -53.5 -204.5 -53.5 ZM408 1337 q-59 0 -96.5 38 q-37.5 38 -37.5 93 q0 59 37.5 96.5 q37.5 37.5 96.5 37.5 q58 0 96.5 -37.5 q38.5 -37.5 38.5 -96.5 q0 -55 -38.5 -93 q-38.5 -38 -96.5 -38 ZM317 1753 l0 145 l670 0 l0 -145 l-670 0 ZM899 1337 q-58 0 -96.5 38 q-38.5 38 -38.5 93 q0 59 38.5 96.5 q38.5 37.5 96.5 37.5 q58 0 95.5 -37.5 q37.5 -37.5 37.5 -96.5 q0 -55 -37.5 -93 q-37.5 -38 -95.5 -38 Z" /><glyph glyph-name="" unicode="&#x1d7;" d="M770 -29 q-280 0 -435 167.5 q-155 167.5 -155 543.5 l0 836 l301 0 l0 -863 q0 -157 35 -249.5 q35 -92.5 100 -132.5 q65 -40 154 -40 q88 0 154 40 q66 40 102.5 132.5 q36.5 92.5 36.5 249.5 l0 863 l291 0 l0 -836 q0 -376 -153.5 -543.5 q-153.5 -167.5 -430.5 -167.5 ZM512 1636 q-58 0 -94.5 38.5 q-36.5 38.5 -36.5 94.5 q0 57 36.5 95.5 q36.5 38.5 94.5 38.5 q58 0 96.5 -38.5 q38.5 -38.5 38.5 -95.5 q0 -56 -38.5 -94.5 q-38.5 -38.5 -96.5 -38.5 ZM778 1915 l-131 84 l223 319 l187 -118 l-279 -285 ZM1018 1636 q-59 0 -96 38.5 q-37 38.5 -37 94.5 q0 57 37 95.5 q37 38.5 96 38.5 q58 0 95.5 -38.5 q37.5 -38.5 37.5 -95.5 q0 -56 -37.5 -94.5 q-37.5 -38.5 -95.5 -38.5 Z" /><glyph glyph-name="" unicode="&#x1d8;" d="M504 -29 q-186 0 -270 122.5 q-84 122.5 -84 338.5 l0 715 l299 0 l0 -678 q0 -134 39.5 -187 q39.5 -53 123.5 -53 q69 0 121 33.5 q52 33.5 111 110.5 l0 774 l301 0 l0 -1147 l-246 0 l-22 166 l-9 0 q-73 -88 -159.5 -141.5 q-86.5 -53.5 -204.5 -53.5 ZM408 1337 q-59 0 -96.5 38 q-37.5 38 -37.5 93 q0 59 37.5 96.5 q37.5 37.5 96.5 37.5 q58 0 96.5 -37.5 q38.5 -37.5 38.5 -96.5 q0 -55 -38.5 -93 q-38.5 -38 -96.5 -38 ZM659 1651 l-114 75 l182 297 l162 -106 l-230 -266 ZM899 1337 q-58 0 -96.5 38 q-38.5 38 -38.5 93 q0 59 38.5 96.5 q38.5 37.5 96.5 37.5 q58 0 95.5 -37.5 q37.5 -37.5 37.5 -96.5 q0 -55 -37.5 -93 q-37.5 -38 -95.5 -38 Z" /><glyph glyph-name="" unicode="&#x1d9;" d="M770 -29 q-280 0 -435 167.5 q-155 167.5 -155 543.5 l0 836 l301 0 l0 -863 q0 -157 35 -249.5 q35 -92.5 100 -132.5 q65 -40 154 -40 q88 0 154 40 q66 40 102.5 132.5 q36.5 92.5 36.5 249.5 l0 863 l291 0 l0 -836 q0 -376 -153.5 -543.5 q-153.5 -167.5 -430.5 -167.5 ZM635 1974 l-217 234 l121 84 l221 -172 l10 0 l223 172 l119 -84 l-215 -234 l-262 0 ZM512 1636 q-58 0 -94.5 38.5 q-36.5 38.5 -36.5 94.5 q0 57 36.5 95.5 q36.5 38.5 94.5 38.5 q58 0 96.5 -38.5 q38.5 -38.5 38.5 -95.5 q0 -56 -38.5 -94.5 q-38.5 -38.5 -96.5 -38.5 ZM1018 1636 q-59 0 -96 38.5 q-37 38.5 -37 94.5 q0 57 37 95.5 q37 38.5 96 38.5 q58 0 95.5 -38.5 q37.5 -38.5 37.5 -95.5 q0 -56 -37.5 -94.5 q-37.5 -38.5 -95.5 -38.5 Z" /><glyph glyph-name="" unicode="&#x1da;" d="M504 -29 q-186 0 -270 122.5 q-84 122.5 -84 338.5 l0 715 l299 0 l0 -678 q0 -134 39.5 -187 q39.5 -53 123.5 -53 q69 0 121 33.5 q52 33.5 111 110.5 l0 774 l301 0 l0 -1147 l-246 0 l-22 166 l-9 0 q-73 -88 -159.5 -141.5 q-86.5 -53.5 -204.5 -53.5 ZM532 1704 l-213 211 l99 92 l229 -156 l10 0 l230 156 l100 -92 l-213 -211 l-242 0 ZM408 1337 q-59 0 -96.5 38 q-37.5 38 -37.5 93 q0 59 37.5 96.5 q37.5 37.5 96.5 37.5 q58 0 96.5 -37.5 q38.5 -37.5 38.5 -96.5 q0 -55 -38.5 -93 q-38.5 -38 -96.5 -38 ZM899 1337 q-58 0 -96.5 38 q-38.5 38 -38.5 93 q0 59 38.5 96.5 q38.5 37.5 96.5 37.5 q58 0 95.5 -37.5 q37.5 -37.5 37.5 -96.5 q0 -55 -37.5 -93 q-37.5 -38 -95.5 -38 Z" /><glyph glyph-name="" unicode="&#x1db;" d="M770 -29 q-280 0 -435 167.5 q-155 167.5 -155 543.5 l0 836 l301 0 l0 -863 q0 -157 35 -249.5 q35 -92.5 100 -132.5 q65 -40 154 -40 q88 0 154 40 q66 40 102.5 132.5 q36.5 92.5 36.5 249.5 l0 863 l291 0 l0 -836 q0 -376 -153.5 -543.5 q-153.5 -167.5 -430.5 -167.5 ZM512 1636 q-58 0 -94.5 38.5 q-36.5 38.5 -36.5 94.5 q0 57 36.5 95.5 q36.5 38.5 94.5 38.5 q58 0 96.5 -38.5 q38.5 -38.5 38.5 -95.5 q0 -56 -38.5 -94.5 q-38.5 -38.5 -96.5 -38.5 ZM752 1915 l-279 285 l189 118 l223 -319 l-133 -84 ZM1018 1636 q-59 0 -96 38.5 q-37 38.5 -37 94.5 q0 57 37 95.5 q37 38.5 96 38.5 q58 0 95.5 -38.5 q37.5 -38.5 37.5 -95.5 q0 -56 -37.5 -94.5 q-37.5 -38.5 -95.5 -38.5 Z" /><glyph glyph-name="" unicode="&#x1dc;" d="M504 -29 q-186 0 -270 122.5 q-84 122.5 -84 338.5 l0 715 l299 0 l0 -678 q0 -134 39.5 -187 q39.5 -53 123.5 -53 q69 0 121 33.5 q52 33.5 111 110.5 l0 774 l301 0 l0 -1147 l-246 0 l-22 166 l-9 0 q-73 -88 -159.5 -141.5 q-86.5 -53.5 -204.5 -53.5 ZM408 1337 q-59 0 -96.5 38 q-37.5 38 -37.5 93 q0 59 37.5 96.5 q37.5 37.5 96.5 37.5 q58 0 96.5 -37.5 q38.5 -37.5 38.5 -96.5 q0 -55 -38.5 -93 q-38.5 -38 -96.5 -38 ZM645 1651 l-229 266 l164 106 l182 -297 l-117 -75 ZM899 1337 q-58 0 -96.5 38 q-38.5 38 -38.5 93 q0 59 38.5 96.5 q38.5 37.5 96.5 37.5 q58 0 95.5 -37.5 q37.5 -37.5 37.5 -96.5 q0 -55 -37.5 -93 q-37.5 -38 -95.5 -38 Z" /><glyph glyph-name="" unicode="&#x1f8;" d="M186 0 l0 1518 l310 0 l440 -809 l154 -328 l10 0 q-13 118 -27 259.5 q-14 141.5 -14 270.5 l0 607 l287 0 l0 -1518 l-310 0 l-436 811 l-154 326 l-10 0 q9 -123 24 -260.5 q15 -137.5 15 -268.5 l0 -608 l-289 0 ZM811 1591 l-405 273 l159 196 l381 -317 l-135 -152 Z" /><glyph glyph-name="" unicode="&#x1f9;" d="M162 0 l0 1147 l246 0 l22 -152 l6 0 q75 74 165.5 127.5 q90.5 53.5 207.5 53.5 q186 0 270 -122.5 q84 -122.5 84 -338.5 l0 -715 l-301 0 l0 678 q0 134 -38.5 187 q-38.5 53 -123.5 53 q-69 0 -121.5 -33.5 q-52.5 -33.5 -115.5 -96.5 l0 -788 l-301 0 ZM707 1331 l-404 363 l205 198 l348 -415 l-149 -146 Z" /><glyph glyph-name="" unicode="&#x251;" d="M565 -29 q-215 0 -342 160 q-127 160 -127 442 q0 187 69.5 322 q69.5 135 181.5 208 q112 73 239 73 q168 0 303 -142 l8 0 l23 113 l239 0 l0 -838 q0 -52 14.5 -72 q14.5 -20 38.5 -20 q8 0 13.5 0.5 q5.5 0.5 19.5 3.5 l37 -223 q-28 -9 -61.5 -18 q-33.5 -9 -79.5 -9 q-187 0 -242 158 l-6 0 q-60 -61 -144 -109.5 q-84 -48.5 -184 -48.5 ZM643 219 q60 0 113 27 q53 27 102 92 l0 504 q-52 47 -106 66.5 q-54 19.5 -109 19.5 q-97 0 -167 -90 q-70 -90 -70 -260 q0 -180 61.5 -269.5 q61.5 -89.5 175.5 -89.5 Z" /><glyph glyph-name="" unicode="&#x261;" d="M596 -481 q-98 0 -212.5 31 q-114.5 31 -211.5 96 l100 198 q82 -47 166 -68.5 q84 -21.5 158 -21.5 q134 0 196 65.5 q62 65.5 66 168.5 l6 164 q-60 -57 -136.5 -92 q-76.5 -35 -162.5 -35 q-143 0 -248.5 71 q-105.5 71 -163 198.5 q-57.5 127.5 -57.5 297.5 q0 177 70.5 308 q70.5 131 182.5 203.5 q112 72.5 237 72.5 q170 0 299 -136 l8 0 l22 107 l244 0 l0 -1139 q0 -233 -147 -361 q-147 -128 -416 -128 ZM643 268 q60 0 111.5 27.5 q51.5 27.5 103.5 93.5 l0 453 q-52 47 -106 66.5 q-54 19.5 -109 19.5 q-98 0 -170 -87.5 q-72 -87.5 -72 -244.5 q0 -154 64 -241 q64 -87 178 -87 Z" /><glyph glyph-name="" unicode="&#x2c7;" d="M1196 1677 l-324 0 l-258 -440 l-272 442 l-309 0 l583 -864 l580 862 Z" /><glyph glyph-name="" unicode="&#x2c9;" d="M635 1462 l776 0 l0 -135 l-776 0 l0 135 Z" /><glyph glyph-name="" unicode="&#x2ca;" d="M1030 1591 l-135 156 l-696 -610 l198 -211 l633 665 Z" /><glyph glyph-name="" unicode="&#x2cb;" d="M1047 1073 l-644 651 l-202 -194 l690 -615 l156 158 Z" /><glyph glyph-name="" unicode="&#x2d9;" d="M516 573 q95 2 149 63 q54 61 54 144 q0 88 -54 152.5 q-54 64.5 -151 64.5 q-97 0 -153 -65.5 q-56 -65.5 -56 -151.5 q0 -81 60 -143 q60 -62 151 -64 Z" /><glyph glyph-name="" unicode="&#x2ea;" d="M295 1726 l256 0 l0 -796 l457 0 l0 -250 l-713 0 l0 1046 Z" /><glyph glyph-name="" unicode="&#x2eb;" d="M295 1726 l256 0 l0 -360 l457 0 l0 -250 l-457 0 l0 -436 l-256 0 l0 1046 Z" /><glyph glyph-name="" unicode="&#x300;" d="M1047 868 l-644 652 l-202 -195 l690 -614 l156 157 Z" /><glyph glyph-name="" unicode="&#x301;" d="M1030 1386 l-135 156 l-696 -610 l198 -211 l633 665 Z" /><glyph glyph-name="" unicode="&#x304;" d="M-334 1380 l0 195 l668 0 l0 -195 l-668 0 Z" /><glyph glyph-name="" unicode="&#x307;" d="M618 1321 q96 1 149.5 62.5 q53.5 61.5 53.5 144.5 q0 86 -54 150.5 q-54 64.5 -151 66.5 q-96 0 -152 -65.5 q-56 -65.5 -56 -151.5 q0 -82 60 -144 q60 -62 150 -63 Z" /><glyph glyph-name="" unicode="&#x30c;" d="M1196 1473 l-324 0 l-258 -441 l-272 443 l-309 0 l583 -865 l580 863 Z" /><glyph glyph-name="" unicode="&#x391;" d="M-8 0 l485 1518 l359 0 l485 -1518 l-320 0 l-106 389 l-489 0 l-107 -389 l-307 0 ZM471 625 l360 0 l-45 166 q-35 118 -67 246 q-32 128 -66 249 l-8 0 q-31 -124 -63 -250.5 q-32 -126.5 -66 -244.5 l-45 -166 Z" /><glyph glyph-name="" unicode="&#x392;" d="M186 0 l0 1518 l502 0 q156 0 280 -35 q124 -35 196.5 -117 q72.5 -82 72.5 -223 q0 -106 -55 -200.5 q-55 -94.5 -152 -129.5 l0 -8 q123 -29 203 -117.5 q80 -88.5 80 -241.5 q0 -152 -77 -251 q-77 -99 -209.5 -147 q-132.5 -48 -299.5 -48 l-541 0 ZM489 899 l179 0 q144 0 209 54 q65 54 65 145 q0 100 -68 143 q-68 43 -204 43 l-181 0 l0 -385 ZM489 233 l211 0 q154 0 236 57 q82 57 82 175 q0 110 -80.5 160.5 q-80.5 50.5 -237.5 50.5 l-211 0 l0 -443 Z" /><glyph glyph-name="" unicode="&#x393;" d="M186 0 l0 1518 l934 0 l0 -254 l-631 0 l0 -1264 l-303 0 Z" /><glyph glyph-name="" unicode="&#x394;" d="M78 0 l0 182 l471 1336 l356 0 l471 -1336 l0 -182 l-1298 0 ZM401 254 l646 0 l-183 563 l-139 461 l-8 0 l-137 -461 l-179 -563 Z" /><glyph glyph-name="" unicode="&#x395;" d="M186 0 l0 1518 l930 0 l0 -254 l-627 0 l0 -351 l531 0 l0 -254 l-531 0 l0 -405 l650 0 l0 -254 l-953 0 Z" /><glyph glyph-name="" unicode="&#x396;" d="M88 0 l0 182 l707 1082 l-639 0 l0 254 l1011 0 l0 -183 l-706 -1081 l713 0 l0 -254 l-1086 0 Z" /><glyph glyph-name="" unicode="&#x397;" d="M186 0 l0 1518 l303 0 l0 -600 l574 0 l0 600 l301 0 l0 -1518 l-301 0 l0 655 l-574 0 l0 -655 l-303 0 Z" /><glyph glyph-name="" unicode="&#x398;" d="M551 655 l0 263 l475 0 l0 -263 l-475 0 ZM788 -29 q-200 0 -353 96 q-153 96 -238.5 274 q-85.5 178 -85.5 425 q0 246 85.5 420 q85.5 174 238.5 266 q153 92 353 92 q201 0 354 -92 q153 -92 238.5 -266 q85.5 -174 85.5 -420 q0 -247 -85.5 -425 q-85.5 -178 -238.5 -274 q-153 -96 -354 -96 ZM788 233 q113 0 196 66 q83 66 128 185.5 q45 119.5 45 281.5 q0 243 -100 380.5 q-100 137.5 -269 137.5 q-168 0 -267 -137.5 q-99 -137.5 -99 -380.5 q0 -243 99 -388 q99 -145 267 -145 Z" /><glyph glyph-name="" unicode="&#x399;" d="M186 0 l0 1518 l303 0 l0 -1518 l-303 0 Z" /><glyph glyph-name="" unicode="&#x39a;" d="M186 0 l0 1518 l303 0 l0 -660 l7 0 l501 660 l334 0 l-463 -598 l545 -920 l-332 0 l-393 682 l-199 -256 l0 -426 l-303 0 Z" /><glyph glyph-name="" unicode="&#x39b;" d="M-10 0 l461 1518 l362 0 l465 -1518 l-320 0 l-198 739 q-36 126 -64 244 q-28 118 -65 246 l-8 0 q-37 -128 -66.5 -246 q-29.5 -118 -62.5 -244 l-197 -739 l-307 0 Z" /><glyph glyph-name="" unicode="&#x39c;" d="M186 0 l0 1518 l336 0 l258 -713 q25 -69 47 -143 q22 -74 45 -146 l11 0 q24 72 45.5 146 q21.5 74 44.5 143 l254 713 l336 0 l0 -1518 l-277 0 l0 633 q0 73 6.5 161.5 q6.5 88.5 15.5 176.5 q9 88 17 159 l-10 0 l-123 -356 l-234 -637 l-174 0 l-235 637 l-121 356 l-8 0 q7 -71 16 -159 q9 -88 16 -176.5 q7 -88.5 7 -161.5 l0 -633 l-273 0 Z" /><glyph glyph-name="" unicode="&#x39d;" d="M186 0 l0 1518 l310 0 l440 -809 l154 -328 l10 0 q-13 118 -27 259.5 q-14 141.5 -14 270.5 l0 607 l287 0 l0 -1518 l-310 0 l-436 811 l-154 326 l-10 0 q9 -123 24 -260.5 q15 -137.5 15 -268.5 l0 -608 l-289 0 Z" /><glyph glyph-name="" unicode="&#x39e;" d="M121 0 l0 254 l1063 0 l0 -254 l-1063 0 ZM283 659 l0 254 l737 0 l0 -254 l-737 0 ZM145 1264 l0 254 l1014 0 l0 -254 l-1014 0 Z" /><glyph glyph-name="" unicode="&#x39f;" d="M788 -29 q-200 0 -353 96 q-153 96 -238.5 274 q-85.5 178 -85.5 425 q0 246 85.5 420 q85.5 174 238.5 266 q153 92 353 92 q201 0 354 -92 q153 -92 238.5 -266 q85.5 -174 85.5 -420 q0 -247 -85.5 -425 q-85.5 -178 -238.5 -274 q-153 -96 -354 -96 ZM788 233 q113 0 196 66 q83 66 128 185.5 q45 119.5 45 281.5 q0 243 -100 380.5 q-100 137.5 -269 137.5 q-168 0 -267 -137.5 q-99 -137.5 -99 -380.5 q0 -243 99 -388 q99 -145 267 -145 Z" /><glyph glyph-name="" unicode="&#x3a0;" d="M186 0 l0 1518 l1155 0 l0 -1518 l-301 0 l0 1264 l-551 0 l0 -1264 l-303 0 Z" /><glyph glyph-name="" unicode="&#x3a1;" d="M186 0 l0 1518 l498 0 q168 0 302.5 -45 q134.5 -45 213 -149 q78.5 -104 78.5 -284 q0 -173 -78.5 -284 q-78.5 -111 -211.5 -164 q-133 -53 -296 -53 l-203 0 l0 -539 l-303 0 ZM489 778 l183 0 q309 0 309 262 q0 132 -81.5 184 q-81.5 52 -237.5 52 l-173 0 l0 -498 Z" /><glyph glyph-name="" unicode="&#x3a3;" d="M90 0 l0 182 l485 586 l-475 567 l0 183 l1022 0 l0 -254 l-645 0 l402 -488 l-408 -522 l717 0 l0 -254 l-1098 0 Z" /><glyph glyph-name="" unicode="&#x3a4;" d="M487 0 l0 1264 l-426 0 l0 254 l1158 0 l0 -254 l-428 0 l0 -1264 l-304 0 Z" /><glyph glyph-name="" unicode="&#x3a5;" d="M444 0 l0 555 l-456 963 l321 0 l152 -371 q32 -85 64 -166.5 q32 -81.5 67 -169.5 l8 0 q35 88 68 169.5 q33 81.5 67 166.5 l152 371 l315 0 l-457 -963 l0 -555 l-301 0 Z" /><glyph glyph-name="" unicode="&#x3a6;" d="M735 -51 l0 207 q-187 13 -327 88.5 q-140 75.5 -217.5 207.5 q-77.5 132 -77.5 314 q0 181 77.5 310 q77.5 129 217.5 202.5 q140 73.5 327 87.5 l0 203 l269 0 l0 -203 q188 -13 328.5 -86.5 q140.5 -73.5 218 -203 q77.5 -129.5 77.5 -310.5 q0 -182 -77.5 -314 q-77.5 -132 -218 -207.5 q-140.5 -75.5 -328.5 -88.5 l0 -207 l-269 0 ZM735 383 l0 754 q-153 -19 -244.5 -116.5 q-91.5 -97.5 -91.5 -254.5 q0 -158 91.5 -260.5 q91.5 -102.5 244.5 -122.5 ZM1004 1137 l0 -754 q153 20 245 122.5 q92 102.5 92 260.5 q0 157 -92 254.5 q-92 97.5 -245 116.5 Z" /><glyph glyph-name="" unicode="&#x3a7;" d="M31 0 l424 780 l-402 738 l338 0 l152 -316 q27 -52 53 -109.5 q26 -57.5 59 -127.5 l9 0 q27 70 52 127.5 q25 57.5 50 109.5 l143 316 l320 0 l-400 -750 l426 -768 l-335 0 l-170 336 q-28 58 -57.5 119.5 q-29.5 61.5 -61.5 130.5 l-8 0 q-30 -69 -56.5 -130.5 q-26.5 -61.5 -54.5 -119.5 l-162 -336 l-319 0 Z" /><glyph glyph-name="" unicode="&#x3a8;" d="M715 0 l0 524 q-275 19 -430.5 166.5 q-155.5 147.5 -155.5 454.5 l0 373 l293 0 l0 -357 q0 -203 75 -292 q75 -89 218 -103 l0 752 l282 0 l0 -752 q143 14 217 103 q74 89 74 292 l0 357 l297 0 l0 -373 q0 -307 -156.5 -454.5 q-156.5 -147.5 -431.5 -166.5 l0 -524 l-282 0 Z" /><glyph glyph-name="" unicode="&#x3a9;" d="M104 0 l0 246 l269 0 l0 8 q-55 54 -109 137 q-54 83 -90.5 192.5 q-36.5 109.5 -36.5 243.5 q0 211 84.5 373 q84.5 162 237 253 q152.5 91 356.5 91 q204 0 357 -91 q153 -91 238 -253 q85 -162 85 -373 q0 -134 -36 -243.5 q-36 -109.5 -90.5 -192.5 q-54.5 -83 -108.5 -137 l0 -8 l268 0 l0 -246 l-598 0 l0 219 q121 108 187.5 246.5 q66.5 138.5 66.5 333.5 q0 140 -44 249.5 q-44 109.5 -126.5 172.5 q-82.5 63 -198.5 63 q-115 0 -197 -63 q-82 -63 -125.5 -172.5 q-43.5 -109.5 -43.5 -249.5 q0 -195 67 -333.5 q67 -138.5 186 -246.5 l0 -219 l-598 0 Z" /><glyph glyph-name="" unicode="&#x3b1;" d="M545 -29 q-206 0 -330.5 156.5 q-124.5 156.5 -124.5 437.5 q0 192 71.5 328.5 q71.5 136.5 187 209.5 q115.5 73 247.5 73 q100 0 186 -58.5 q86 -58.5 140 -191.5 l8 0 l41 221 l295 0 q-23 -103 -48.5 -218 q-25.5 -115 -48 -227.5 q-22.5 -112.5 -37 -210 q-14.5 -97.5 -14.5 -165.5 q0 -60 31.5 -84.5 q31.5 -24.5 79.5 -24.5 q40 0 78 14 l36 -223 q-29 -14 -75 -25.5 q-46 -11.5 -111 -11.5 q-114 0 -184 47 q-70 47 -90 156 l-11 0 q-119 -203 -327 -203 ZM614 219 q58 0 110.5 37 q52.5 37 87.5 100 q35 63 40 140 l14 202 q-38 125 -95.5 177.5 q-57.5 52.5 -131.5 52.5 q-60 0 -115.5 -38.5 q-55.5 -38.5 -91 -118.5 q-35.5 -80 -35.5 -204 q0 -176 59 -262 q59 -86 158 -86 Z" /><glyph glyph-name="" unicode="&#x3b2;" d="M158 -412 l0 1510 q0 160 55.5 288 q55.5 128 171 202.5 q115.5 74.5 293.5 74.5 q122 0 232 -44.5 q110 -44.5 179.5 -136.5 q69.5 -92 69.5 -235 q0 -118 -53 -207.5 q-53 -89.5 -150 -150.5 l0 -10 q95 -18 169 -75 q74 -57 116.5 -145.5 q42.5 -88.5 42.5 -199.5 q0 -164 -67 -272 q-67 -108 -172 -162 q-105 -54 -218 -54 q-96 0 -197.5 33.5 q-101.5 33.5 -189.5 128.5 q6 -141 12 -274.5 q6 -133.5 11 -270.5 l-305 0 ZM743 219 q100 0 173 65.5 q73 65.5 73 194.5 q0 103 -61 174.5 q-61 71.5 -180 71.5 q-58 0 -101 -14 l-37 223 q145 23 202.5 104 q57.5 81 57.5 181 q0 104 -58.5 155 q-58.5 51 -133.5 51 q-109 0 -167 -93.5 q-58 -93.5 -62 -256.5 q-5 -176 -7 -351.5 q-2 -175.5 -2 -354.5 q71 -91 150.5 -120.5 q79.5 -29.5 152.5 -29.5 Z" /><glyph glyph-name="" unicode="&#x3b3;" d="M436 -412 q6 50 9.5 91.5 q3.5 41.5 4.5 91.5 q1 50 1 125 q0 117 -36 272.5 q-36 155.5 -98 324.5 q-62 169 -143 328.5 q-81 159.5 -172 284.5 l307 70 q57 -84 117 -215.5 q60 -131.5 114 -291 q54 -159.5 93 -327.5 l10 0 q94 187 152 387.5 q58 200.5 73 417.5 l297 0 q-23 -146 -55.5 -275.5 q-32.5 -129.5 -81.5 -258.5 q-49 -129 -124 -272 q-75 -143 -185 -316 q17 -106 23 -223 q6 -117 6 -214 l-312 0 Z" /><glyph glyph-name="" unicode="&#x3b4;" d="M631 -29 q-142 0 -262.5 63 q-120.5 63 -194.5 181 q-74 118 -74 283 q0 125 51.5 220 q51.5 95 137 162.5 q85.5 67.5 188.5 108.5 q-68 50 -128 109 q-60 59 -97 130.5 q-37 71.5 -37 160.5 q0 110 99 192 q99 82 311 82 q118 0 247.5 -25.5 q129.5 -25.5 253.5 -66.5 l-67 -225 q-128 44 -238.5 68 q-110.5 24 -197.5 24 q-68 0 -97.5 -22 q-29.5 -22 -29.5 -54 q0 -47 45.5 -93 q45.5 -46 120 -97.5 q74.5 -51.5 161.5 -114.5 q102 -74 179.5 -150 q77.5 -76 121 -170 q43.5 -94 43.5 -221 q0 -162 -64 -284.5 q-64 -122.5 -184 -191.5 q-120 -69 -288 -69 ZM676 850 q-134 -34 -211.5 -121 q-77.5 -87 -77.5 -227 q0 -137 75.5 -211 q75.5 -74 176.5 -74 q107 0 170 75 q63 75 63 224 q0 111 -55 189.5 q-55 78.5 -141 144.5 Z" /><glyph glyph-name="" unicode="&#x3b5;" d="M612 -29 q-146 0 -264.5 40.5 q-118.5 40.5 -188 119 q-69.5 78.5 -69.5 193.5 q0 118 63 183 q63 65 162 91 l0 10 q-87 29 -131.5 100.5 q-44.5 71.5 -44.5 143.5 q0 111 67 182.5 q67 71.5 176.5 106.5 q109.5 35 235.5 35 q103 0 204 -32 q101 -32 186 -89 l-113 -195 q-123 82 -262 82 q-88 0 -143.5 -34 q-55.5 -34 -55.5 -97 q0 -121 191 -121 q75 0 155 6 l0 -217 q-50 3 -98 5.5 q-48 2.5 -94 2.5 q-103 0 -153 -31 q-50 -31 -50 -102 q0 -72 67 -110.5 q67 -38.5 191 -38.5 q60 0 130.5 20 q70.5 20 139.5 74 l121 -190 q-109 -80 -209.5 -109 q-100.5 -29 -212.5 -29 Z" /><glyph glyph-name="" unicode="&#x3b6;" d="M885 -432 l-236 82 q52 69 80.5 112 q28.5 43 28.5 91 q0 31 -19 52 q-19 21 -69 38.5 q-50 17.5 -144 38.5 q-82 17 -158 51.5 q-76 34.5 -136.5 96 q-60.5 61.5 -96 158 q-35.5 96.5 -35.5 238.5 q0 109 45 228 q45 119 123.5 237 q78.5 118 182 226.5 q103.5 108.5 221.5 197.5 q-52 -1 -143 -3 q-91 -2 -188 -5.5 q-97 -3.5 -169 -9.5 l0 237 l829 0 l0 -237 l-10 0 q-113 -71 -217.5 -176.5 q-104.5 -105.5 -187 -225.5 q-82.5 -120 -130.5 -238 q-48 -118 -48 -214 q0 -106 29.5 -170 q29.5 -64 94 -99.5 q64.5 -35.5 168.5 -56.5 q172 -34 248 -96.5 q76 -62.5 76 -190.5 q0 -56 -33 -155.5 q-33 -99.5 -106 -206.5 Z" /><glyph glyph-name="" unicode="&#x3b7;" d="M838 -412 q6 182 11 380 q5 198 8 383.5 q3 185.5 3 326.5 q0 134 -33 187 q-33 53 -114 53 q-71 0 -127.5 -46 q-56.5 -46 -122.5 -147 l0 -725 l-301 0 l0 805 q0 67 -4.5 157.5 q-4.5 90.5 -18.5 184.5 l269 0 l22 -211 l6 0 q79 107 168 173.5 q89 66.5 209 66.5 q178 0 254 -122.5 q76 -122.5 76 -338.5 l0 -1127 l-305 0 Z" /><glyph glyph-name="" unicode="&#x3b8;" d="M629 -29 q-232 0 -370 210.5 q-138 210.5 -138 641.5 q0 423 138 631.5 q138 208.5 370 208.5 q232 0 372 -209.5 q140 -209.5 140 -630.5 q0 -431 -140 -641.5 q-140 -210.5 -372 -210.5 ZM629 217 q57 0 104 44 q47 44 77 154 q30 110 36 308 l-432 0 q6 -198 35.5 -308 q29.5 -110 75.5 -154 q46 -44 104 -44 ZM414 926 l432 0 q-6 193 -36 301 q-30 108 -77 151 q-47 43 -104 43 q-57 0 -103.5 -43 q-46.5 -43 -76 -151 q-29.5 -108 -35.5 -301 Z" /><glyph glyph-name="" unicode="&#x3b9;" d="M459 -29 q-171 0 -234 96.5 q-63 96.5 -63 258.5 l0 821 l305 0 q-5 -140 -10.5 -292 q-5.5 -152 -9 -293 q-3.5 -141 -3.5 -249 q0 -55 23 -75.5 q23 -20.5 70 -20.5 q13 0 32 3.5 q19 3.5 37 10.5 l37 -223 q-34 -15 -76 -26 q-42 -11 -108 -11 Z" /><glyph glyph-name="" unicode="&#x3ba;" d="M909 -25 q-72 90 -153.5 220.5 q-81.5 130.5 -159.5 283.5 l-41 -45 q-61 -66 -86 -154 q-25 -88 -25 -212 l0 -68 l-282 0 l0 805 q0 67 -5 160.5 q-5 93.5 -22 181.5 l299 0 q12 -52 16.5 -126.5 q4.5 -74.5 4.5 -154.5 l0 -252 l10 0 q86 140 188 259 q102 119 219 199.5 q117 80.5 248 103.5 l23 -283 q-91 -22 -175.5 -73 q-84.5 -51 -181.5 -140 q59 -113 136 -237 q77 -124 161 -240 q84 -116 164 -203 l-338 -25 Z" /><glyph glyph-name="" unicode="&#x3bb;" d="M356 -25 l-323 25 l493 1157 l-8 37 q-28 106 -87.5 160.5 q-59.5 54.5 -137.5 54.5 q-52 0 -87.5 -10 q-35.5 -10 -70.5 -27 l-69 244 q52 21 108.5 34 q56.5 13 153.5 13 q190 0 304 -117.5 q114 -117.5 189 -367.5 l416 -1178 l-324 0 l-249 821 l-9 0 l-299 -846 Z" /><glyph glyph-name="" unicode="&#x3bc;" d="M162 -412 l0 1559 l301 0 l0 -678 q0 -129 37.5 -184.5 q37.5 -55.5 122.5 -55.5 q63 0 116 36 q53 36 107 134 l0 748 l303 0 q-3 -140 -8 -292 q-5 -152 -9 -293 q-4 -141 -4 -249 q0 -55 26.5 -75.5 q26.5 -20.5 72.5 -20.5 q34 0 71 14 l37 -223 q-33 -15 -75.5 -26 q-42.5 -11 -108.5 -11 q-227 0 -272 201 l-7 0 q-47 -94 -115.5 -142 q-68.5 -48 -148.5 -48 q-49 0 -91 13 q-42 13 -75 54 q1 -92 3.5 -165 q2.5 -73 7.5 -143 q5 -70 14 -153 l-305 0 Z" /><glyph glyph-name="" unicode="&#x3bd;" d="M430 0 q-36 212 -101 412 q-65 200 -149.5 376.5 q-84.5 176.5 -177.5 317.5 l307 70 q49 -83 97 -191.5 q48 -108.5 90 -228 q42 -119.5 74.5 -236.5 q32.5 -117 52.5 -215 l8 0 q89 201 142.5 418 q53.5 217 70.5 424 l299 0 q-34 -203 -86 -385.5 q-52 -182.5 -134 -367.5 q-82 -185 -206 -394 l-287 0 Z" /><glyph glyph-name="" unicode="&#x3be;" d="M895 -432 l-238 82 q54 69 83.5 112 q29.5 43 29.5 91 q0 47 -48.5 73 q-48.5 26 -184.5 56 q-120 24 -218.5 73 q-98.5 49 -157.5 139 q-59 90 -59 236 q0 102 45 189 q45 87 119 148.5 q74 61.5 162 90.5 l0 10 q-101 40 -160 122.5 q-59 82.5 -59 191.5 q0 69 31.5 132 q31.5 63 91.5 101 q-49 -1 -89.5 -3 q-40.5 -2 -86 -5.5 q-45.5 -3.5 -111.5 -9.5 l0 237 l967 0 l0 -237 l-271 0 q-98 0 -163.5 -60 q-65.5 -60 -65.5 -166 q0 -60 30 -112.5 q30 -52.5 80.5 -84.5 q50.5 -32 112.5 -32 q48 0 82 4 q34 4 82 17 l0 -240 q-49 12 -91.5 15 q-42.5 3 -88.5 3 q-83 0 -153 -32.5 q-70 -32.5 -112 -92.5 q-42 -60 -42 -141 q0 -88 35.5 -137 q35.5 -49 106 -75 q70.5 -26 173.5 -46 q120 -22 186.5 -56.5 q66.5 -34.5 93.5 -90 q27 -55.5 27 -140.5 q0 -56 -32.5 -155.5 q-32.5 -99.5 -106.5 -206.5 Z" /><glyph glyph-name="" unicode="&#x3bf;" d="M637 -29 q-145 0 -270 71.5 q-125 71.5 -201 206 q-76 134.5 -76 324.5 q0 191 76 325.5 q76 134.5 201 206 q125 71.5 270 71.5 q145 0 270 -71.5 q125 -71.5 201 -206 q76 -134.5 76 -325.5 q0 -190 -76 -324.5 q-76 -134.5 -201 -206 q-125 -71.5 -270 -71.5 ZM637 217 q120 0 180 97 q60 97 60 259 q0 162 -60 259.5 q-60 97.5 -180 97.5 q-120 0 -180 -97.5 q-60 -97.5 -60 -259.5 q0 -162 60 -259 q60 -97 180 -97 Z" /><glyph glyph-name="" unicode="&#x3c0;" d="M1188 -29 q-175 0 -245.5 98.5 q-70.5 98.5 -70.5 266.5 q0 31 1.5 94 q1.5 63 3.5 145 q2 82 3.5 169 q1.5 87 2.5 165 l-305 0 q0 -216 -18.5 -456.5 q-18.5 -240.5 -41.5 -468.5 l-303 16 q42 233 62 470 q20 237 20 439 l-254 0 l0 224 l170 14 l1178 0 l0 -238 l-222 0 q-5 -82 -8 -173.5 q-3 -91.5 -4 -176 q-1 -84.5 -1.5 -147.5 q-0.5 -63 -0.5 -88 q0 -62 27 -84.5 q27 -22.5 78 -22.5 q15 0 36.5 3 q21.5 3 49.5 7 l36 -223 q-32 -12 -82.5 -22.5 q-50.5 -10.5 -111.5 -10.5 Z" /><glyph glyph-name="" unicode="&#x3c1;" d="M152 -412 l0 971 q0 211 71 347.5 q71 136.5 192.5 203 q121.5 66.5 272.5 66.5 q247 0 385.5 -154.5 q138.5 -154.5 138.5 -429.5 q0 -197 -68 -335.5 q-68 -138.5 -176.5 -212 q-108.5 -73.5 -228.5 -73.5 q-80 0 -159.5 30.5 q-79.5 30.5 -145.5 109.5 q6 -139 11.5 -264 q5.5 -125 11.5 -259 l-305 0 ZM672 219 q95 0 164 90.5 q69 90.5 69 278.5 q0 164 -55 252 q-55 88 -172 88 q-103 0 -173.5 -91.5 q-70.5 -91.5 -70.5 -256.5 l0 -250 q62 -69 120.5 -90 q58.5 -21 117.5 -21 Z" /><glyph glyph-name="" unicode="&#x3c2;" d="M788 -428 l-235 80 q51 70 83 120.5 q32 50.5 32 96.5 q0 55 -30 91 q-30 36 -110 60 q-79 28 -156.5 68.5 q-77.5 40.5 -141.5 104.5 q-64 64 -102 162 q-38 98 -38 241 q0 184 76.5 313.5 q76.5 129.5 203 198 q126.5 68.5 275.5 68.5 q109 0 193 -36.5 q84 -36.5 145 -92.5 l-145 -191 q-43 35 -84 54.5 q-41 19.5 -90 19.5 q-123 0 -195 -92 q-72 -92 -72 -242 q0 -107 32 -169.5 q32 -62.5 90.5 -99 q58.5 -36.5 135.5 -63.5 q105 -37 166 -76 q61 -39 87 -96 q26 -57 26 -147 q0 -60 -35 -163 q-35 -103 -111 -210 Z" /><glyph glyph-name="" unicode="&#x3c3;" d="M625 -29 q-147 0 -268.5 68 q-121.5 68 -194 199.5 q-72.5 131.5 -72.5 320.5 q0 200 78.5 330 q78.5 130 204 194 q125.5 64 266.5 64 l649 0 l0 -250 q-95 11 -170 17 q-75 6 -166 8 l0 -9 q91 -53 142 -157 q51 -104 51 -242 q0 -169 -67.5 -290.5 q-67.5 -121.5 -185 -187 q-117.5 -65.5 -267.5 -65.5 ZM629 217 q104 0 166.5 86.5 q62.5 86.5 62.5 241.5 q0 97 -26.5 178 q-26.5 81 -78 129.5 q-51.5 48.5 -124.5 48.5 q-103 0 -167.5 -81 q-64.5 -81 -64.5 -261 q0 -161 63.5 -251.5 q63.5 -90.5 168.5 -90.5 Z" /><glyph glyph-name="" unicode="&#x3c4;" d="M709 -29 q-168 0 -232.5 98.5 q-64.5 98.5 -64.5 266.5 l0 573 l-351 0 l0 224 l168 14 l834 0 l0 -238 l-358 0 q-5 -159 -9 -312.5 q-4 -153.5 -4 -272.5 q0 -62 24.5 -84.5 q24.5 -22.5 67.5 -22.5 q31 0 60.5 4 q29.5 4 64.5 15 l39 -228 q-49 -14 -109.5 -25.5 q-60.5 -11.5 -129.5 -11.5 Z" /><glyph glyph-name="" unicode="&#x3c5;" d="M598 -29 q-243 0 -358 131.5 q-115 131.5 -115 348.5 q0 89 4 177 q4 88 4 177 q0 67 -4 157.5 q-4 90.5 -20 184.5 l292 0 q13 -60 17 -130.5 q4 -70.5 4 -150.5 q0 -51 -3.5 -125 q-3.5 -74 -7 -156 q-3.5 -82 -3.5 -157 q0 -107 56 -159 q56 -52 134 -52 q100 0 158.5 87 q58.5 87 58.5 278 q0 115 -19 243 q-19 128 -65 283 l293 68 q41 -143 65.5 -289.5 q24.5 -146.5 24.5 -292.5 q0 -293 -135 -458 q-135 -165 -381 -165 Z" /><glyph glyph-name="" unicode="&#x3c6;" d="M700 207 l0 733 q-132 -6 -217.5 -101 q-85.5 -95 -85.5 -266 q0 -170 85.5 -265 q85.5 -95 217.5 -101 ZM700 -412 l0 394 q-119 6 -228.5 47 q-109.5 41 -195.5 116 q-86 75 -136 182.5 q-50 107.5 -50 245.5 q0 139 50 246 q50 107 136 182.5 q86 75.5 195.5 116.5 q109.5 41 228.5 47 l0 291 l277 0 l0 -291 q161 -7 300 -77.5 q139 -70.5 224.5 -200 q85.5 -129.5 85.5 -314.5 q0 -138 -50 -245.5 q-50 -107.5 -136 -183 q-86 -75.5 -195.5 -116.5 q-109.5 -41 -228.5 -46 l0 -394 l-277 0 ZM977 940 l0 -733 q132 6 217.5 101 q85.5 95 85.5 265 q0 171 -83 266 q-83 95 -220 101 Z" /><glyph glyph-name="" unicode="&#x3c7;" d="M328 -438 l-310 26 l443 795 l-441 723 l297 70 l289 -529 l8 0 l228 500 l313 0 l-397 -758 l465 -762 l-297 -65 l-312 579 l-8 0 l-278 -579 Z" /><glyph glyph-name="" unicode="&#x3c8;" d="M711 -412 l0 383 q-211 4 -337.5 82 q-126.5 78 -182.5 206 q-56 128 -56 282 l0 264 q0 67 -3.5 157.5 q-3.5 90.5 -18.5 184.5 l290 0 q13 -60 17 -130.5 q4 -70.5 4 -150.5 q0 -50 -1 -115.5 q-1 -65.5 -2 -128.5 q-1 -63 -1 -104 q0 -83 28.5 -152.5 q28.5 -69.5 92 -112 q63.5 -42.5 170.5 -44.5 l0 1247 l276 0 l0 -1247 q149 5 227 101.5 q78 96.5 78 320.5 q0 110 -18 221.5 q-18 111.5 -64 255.5 l291 68 q46 -134 69 -264.5 q23 -130.5 23 -268.5 q0 -319 -155.5 -492.5 q-155.5 -173.5 -450.5 -179.5 l0 -383 l-276 0 Z" /><glyph glyph-name="" unicode="&#x3c9;" d="M535 -29 q-196 0 -315.5 154 q-119.5 154 -119.5 448 q0 153 53.5 313.5 q53.5 160.5 133.5 289.5 l280 -111 q-87 -140 -134.5 -269.5 q-47.5 -129.5 -47.5 -281.5 q0 -135 43 -216 q43 -81 123 -81 q75 0 120.5 55 q45.5 55 45.5 177 q0 78 -7.5 142 q-7.5 64 -19.5 163 l318 0 q-13 -99 -19 -163 q-6 -64 -6 -142 q0 -131 41.5 -181.5 q41.5 -50.5 114.5 -50.5 q72 0 118 87 q46 87 46 257 q0 99 -15.5 180 q-15.5 81 -49.5 159.5 q-34 78.5 -91 170.5 l274 105 q82 -129 132.5 -270.5 q50.5 -141.5 50.5 -325.5 q0 -294 -110.5 -451.5 q-110.5 -157.5 -311.5 -157.5 q-102 0 -192 49.5 q-90 49.5 -138 165.5 l-8 0 q-45 -116 -126.5 -165.5 q-81.5 -49.5 -182.5 -49.5 Z" /><glyph glyph-name="" unicode="&#x401;" d="M186 0 l0 1518 l930 0 l0 -254 l-627 0 l0 -351 l531 0 l0 -254 l-531 0 l0 -405 l650 0 l0 -254 l-953 0 ZM420 1636 q-65 0 -106.5 42.5 q-41.5 42.5 -41.5 107.5 q0 63 41.5 106 q41.5 43 106.5 43 q66 0 108.5 -43 q42.5 -43 42.5 -106 q0 -65 -42.5 -107.5 q-42.5 -42.5 -108.5 -42.5 ZM928 1636 q-66 0 -108 42.5 q-42 42.5 -42 107.5 q0 63 42 106 q42 43 108 43 q64 0 105.5 -43 q41.5 -43 41.5 -106 q0 -65 -41.5 -107.5 q-41.5 -42.5 -105.5 -42.5 Z" /><glyph glyph-name="" unicode="&#x410;" d="M-8 0 l485 1518 l359 0 l485 -1518 l-320 0 l-106 389 l-489 0 l-107 -389 l-307 0 ZM471 625 l360 0 l-45 166 q-35 118 -67 246 q-32 128 -66 249 l-8 0 q-31 -124 -63 -250.5 q-32 -126.5 -66 -244.5 l-45 -166 Z" /><glyph glyph-name="" unicode="&#x411;" d="M186 0 l0 1518 l1010 0 l0 -254 l-707 0 l0 -351 l232 0 q160 0 290 -41.5 q130 -41.5 206.5 -137.5 q76.5 -96 76.5 -259 q0 -169 -73.5 -273.5 q-73.5 -104.5 -201 -153 q-127.5 -48.5 -288.5 -48.5 l-545 0 ZM489 233 l205 0 q152 0 228.5 57.5 q76.5 57.5 76.5 178.5 q0 120 -78 169.5 q-78 49.5 -229 49.5 l-203 0 l0 -455 Z" /><glyph glyph-name="" unicode="&#x412;" d="M186 0 l0 1518 l502 0 q156 0 280 -35 q124 -35 196.5 -117 q72.5 -82 72.5 -223 q0 -106 -55 -200.5 q-55 -94.5 -152 -129.5 l0 -8 q123 -29 203 -117.5 q80 -88.5 80 -241.5 q0 -152 -77 -251 q-77 -99 -209.5 -147 q-132.5 -48 -299.5 -48 l-541 0 ZM489 899 l179 0 q144 0 209 54 q65 54 65 145 q0 100 -68 143 q-68 43 -204 43 l-181 0 l0 -385 ZM489 233 l211 0 q154 0 236 57 q82 57 82 175 q0 110 -80.5 160.5 q-80.5 50.5 -237.5 50.5 l-211 0 l0 -443 Z" /><glyph glyph-name="" unicode="&#x413;" d="M186 0 l0 1518 l934 0 l0 -254 l-631 0 l0 -1264 l-303 0 Z" /><glyph glyph-name="" unicode="&#x414;" d="M334 0 l0 -436 l-268 0 l-27 502 l0 188 l70 0 q32 12 68 65 q36 53 73 165 q37 112 74 300 q26 138 45.5 247.5 q19.5 109.5 39 223 q19.5 113.5 46.5 263.5 l862 0 l0 -1264 l180 0 l0 -188 l-27 -502 l-268 0 l0 436 l-868 0 ZM434 254 l582 0 l0 1010 l-332 0 q-17 -103 -29.5 -181.5 q-12.5 -78.5 -26.5 -157.5 q-14 -79 -34 -182 q-59 -321 -160 -489 Z" /><glyph glyph-name="" unicode="&#x415;" d="M186 0 l0 1518 l930 0 l0 -254 l-627 0 l0 -351 l531 0 l0 -254 l-531 0 l0 -405 l650 0 l0 -254 l-953 0 Z" /><glyph glyph-name="" unicode="&#x416;" d="M6 0 l449 799 l-140 309 q-44 98 -86 126 q-42 28 -94 28 q-9 0 -26.5 -2 q-17.5 -2 -34.5 -7 l-49 273 q23 11 53 14.5 q30 3.5 59 3.5 q123 0 215.5 -55.5 q92.5 -55.5 169.5 -218.5 l170 -361 l152 0 l0 609 l289 0 l0 -609 l153 0 l168 361 q77 163 169.5 218.5 q92.5 55.5 215.5 55.5 q29 0 59.5 -3.5 q30.5 -3.5 53.5 -14.5 l-49 -273 q-19 5 -36 7 q-17 2 -28 2 q-52 0 -92.5 -28 q-40.5 -28 -83.5 -126 l-139 -309 l444 -799 l-323 0 l-338 666 l-174 0 l0 -666 l-289 0 l0 666 l-172 0 l-338 -666 l-328 0 Z" /><glyph glyph-name="" unicode="&#x417;" d="M641 -29 q-154 0 -295.5 50 q-141.5 50 -259.5 163 l160 209 q92 -86 187 -123 q95 -37 204 -37 q126 0 209.5 59.5 q83.5 59.5 83.5 170.5 q0 110 -80 161.5 q-80 51.5 -236 51.5 l-192 0 l0 223 l145 0 q155 0 221 51.5 q66 51.5 66 145.5 q0 96 -66.5 142 q-66.5 46 -171.5 46 q-93 0 -171 -33 q-78 -33 -152 -92 l-154 201 q97 87 222.5 135.5 q125.5 48.5 265.5 48.5 q249 0 385.5 -107 q136.5 -107 136.5 -294 q0 -112 -52 -201.5 q-52 -89.5 -149 -130.5 l0 -10 q118 -28 197.5 -122.5 q79.5 -94.5 79.5 -236.5 q0 -153 -78 -258 q-78 -105 -210 -159 q-132 -54 -296 -54 Z" /><glyph glyph-name="" unicode="&#x418;" d="M186 0 l0 1518 l299 0 l0 -607 q0 -129 -13.5 -270.5 q-13.5 -141.5 -22.5 -259.5 l8 0 l153 326 l443 811 l319 0 l0 -1518 l-299 0 l0 608 q0 131 13.5 268.5 q13.5 137.5 25.5 260.5 l-8 0 l-156 -324 l-442 -813 l-320 0 Z" /><glyph glyph-name="" unicode="&#x419;" d="M186 0 l0 1518 l299 0 l0 -607 q0 -129 -13.5 -270.5 q-13.5 -141.5 -22.5 -259.5 l8 0 l153 326 l443 811 l319 0 l0 -1518 l-299 0 l0 608 q0 131 13.5 268.5 q13.5 137.5 25.5 260.5 l-8 0 l-156 -324 l-442 -813 l-320 0 ZM788 1642 q-142 0 -227 42 q-85 42 -124.5 113.5 q-39.5 71.5 -43.5 160.5 l254 0 q5 -74 37 -119 q32 -45 104 -45 q73 0 106 45 q33 45 36 119 l254 0 q-4 -89 -43.5 -160.5 q-39.5 -71.5 -124.5 -113.5 q-85 -42 -228 -42 Z" /><glyph glyph-name="" unicode="&#x41a;" d="M186 0 l0 1518 l303 0 l0 -609 l193 0 l201 361 q60 106 118 166 q58 60 123 84 q65 24 146 24 q27 0 58 -3.5 q31 -3.5 54 -14.5 l-51 -273 q-18 7 -34 8 q-16 1 -27 1 q-52 0 -89 -29.5 q-37 -29.5 -89 -124.5 l-174 -303 l503 -805 l-319 0 l-420 666 l-193 0 l0 -666 l-303 0 Z" /><glyph glyph-name="" unicode="&#x41b;" d="M147 -29 q-103 0 -163 25 l53 270 q17 -4 32 -8 q15 -4 35 -4 q38 0 71 24 q33 24 65 104 q32 80 67 247 q46 221 85.5 441 q39.5 220 80.5 448 l850 0 l0 -1518 l-301 0 l0 1264 l-315 0 q-31 -174 -61 -338 q-30 -164 -60 -328 q-48 -248 -106.5 -384 q-58.5 -136 -138.5 -189.5 q-80 -53.5 -194 -53.5 Z" /><glyph glyph-name="" unicode="&#x41c;" d="M186 0 l0 1518 l336 0 l258 -713 q25 -69 47 -143 q22 -74 45 -146 l11 0 q24 72 45.5 146 q21.5 74 44.5 143 l254 713 l336 0 l0 -1518 l-277 0 l0 633 q0 73 6.5 161.5 q6.5 88.5 15.5 176.5 q9 88 17 159 l-10 0 l-123 -356 l-234 -637 l-174 0 l-235 637 l-121 356 l-8 0 q7 -71 16 -159 q9 -88 16 -176.5 q7 -88.5 7 -161.5 l0 -633 l-273 0 Z" /><glyph glyph-name="" unicode="&#x41d;" d="M186 0 l0 1518 l303 0 l0 -600 l574 0 l0 600 l301 0 l0 -1518 l-301 0 l0 655 l-574 0 l0 -655 l-303 0 Z" /><glyph glyph-name="" unicode="&#x41e;" d="M788 -29 q-200 0 -353 96 q-153 96 -238.5 274 q-85.5 178 -85.5 425 q0 246 85.5 420 q85.5 174 238.5 266 q153 92 353 92 q201 0 354 -92 q153 -92 238.5 -266 q85.5 -174 85.5 -420 q0 -247 -85.5 -425 q-85.5 -178 -238.5 -274 q-153 -96 -354 -96 ZM788 233 q113 0 196 66 q83 66 128 185.5 q45 119.5 45 281.5 q0 243 -100 380.5 q-100 137.5 -269 137.5 q-168 0 -267 -137.5 q-99 -137.5 -99 -380.5 q0 -243 99 -388 q99 -145 267 -145 Z" /><glyph glyph-name="" unicode="&#x41f;" d="M186 0 l0 1518 l1155 0 l0 -1518 l-301 0 l0 1264 l-551 0 l0 -1264 l-303 0 Z" /><glyph glyph-name="" unicode="&#x420;" d="M186 0 l0 1518 l498 0 q168 0 302.5 -45 q134.5 -45 213 -149 q78.5 -104 78.5 -284 q0 -173 -78.5 -284 q-78.5 -111 -211.5 -164 q-133 -53 -296 -53 l-203 0 l0 -539 l-303 0 ZM489 778 l183 0 q309 0 309 262 q0 132 -81.5 184 q-81.5 52 -237.5 52 l-173 0 l0 -498 Z" /><glyph glyph-name="" unicode="&#x421;" d="M803 -29 q-191 0 -348 90 q-157 90 -250.5 264 q-93.5 174 -93.5 427 q0 187 55.5 334 q55.5 147 153 249.5 q97.5 102.5 224.5 155.5 q127 53 271 53 q146 0 258.5 -59 q112.5 -59 186.5 -135 l-158 -193 q-59 55 -127 91 q-68 36 -154 36 q-114 0 -204.5 -62.5 q-90.5 -62.5 -142.5 -179.5 q-52 -117 -52 -280 q0 -247 106.5 -388 q106.5 -141 286.5 -141 q98 0 174.5 42 q76.5 42 136.5 108 l162 -188 q-94 -109 -215 -166.5 q-121 -57.5 -270 -57.5 Z" /><glyph glyph-name="" unicode="&#x422;" d="M487 0 l0 1264 l-426 0 l0 254 l1158 0 l0 -254 l-428 0 l0 -1264 l-304 0 Z" /><glyph glyph-name="" unicode="&#x423;" d="M352 -29 q-61 0 -104.5 8.5 q-43.5 8.5 -75.5 20.5 l55 264 q20 -7 43 -12.5 q23 -5.5 66 -5.5 q113 0 160 84 l24 57 l-514 1131 l318 0 l208 -506 l121 -346 l11 0 l116 346 l189 506 l303 0 l-477 -1192 q-66 -165 -170 -260 q-104 -95 -273 -95 Z" /><glyph glyph-name="" unicode="&#x424;" d="M745 -29 l0 211 q-298 16 -469.5 161.5 q-171.5 145.5 -171.5 422.5 q0 273 171.5 416.5 q171.5 143.5 469.5 156.5 l0 205 l263 0 l0 -205 q299 -13 471 -156.5 q172 -143.5 172 -416.5 q0 -277 -172 -422.5 q-172 -145.5 -471 -161.5 l0 -211 l-263 0 ZM745 406 l0 710 q-165 -9 -260.5 -96 q-95.5 -87 -95.5 -254 q0 -169 95.5 -259.5 q95.5 -90.5 260.5 -100.5 ZM1008 1116 l0 -710 q167 10 261.5 100.5 q94.5 90.5 94.5 259.5 q0 169 -94.5 255 q-94.5 86 -261.5 95 Z" /><glyph glyph-name="" unicode="&#x425;" d="M31 0 l424 780 l-402 738 l338 0 l152 -316 q27 -52 53 -109.5 q26 -57.5 59 -127.5 l9 0 q27 70 52 127.5 q25 57.5 50 109.5 l143 316 l320 0 l-400 -750 l426 -768 l-335 0 l-170 336 q-28 58 -57.5 119.5 q-29.5 61.5 -61.5 130.5 l-8 0 q-30 -69 -56.5 -130.5 q-26.5 -61.5 -54.5 -119.5 l-162 -336 l-319 0 Z" /><glyph glyph-name="" unicode="&#x426;" d="M1204 -436 l0 436 l-1018 0 l0 1518 l303 0 l0 -1264 l529 0 l0 1264 l303 0 l0 -1264 l178 0 l0 -188 l-26 -502 l-269 0 Z" /><glyph glyph-name="" unicode="&#x427;" d="M954 0 l0 586 q-50 -9 -105.5 -14 q-55.5 -5 -135.5 -5 q-177 0 -305 52 q-128 52 -196.5 170 q-68.5 118 -68.5 317 l0 412 l295 0 l0 -412 q0 -166 76 -231.5 q76 -65.5 229 -65.5 q71 0 121 5.5 q50 5.5 90 12.5 l0 691 l303 0 l0 -1518 l-303 0 Z" /><glyph glyph-name="" unicode="&#x428;" d="M186 0 l0 1518 l295 0 l0 -1264 l418 0 l0 1264 l289 0 l0 -1264 l416 0 l0 1264 l294 0 l0 -1518 l-1712 0 Z" /><glyph glyph-name="" unicode="&#x429;" d="M186 0 l0 1518 l295 0 l0 -1264 l418 0 l0 1264 l289 0 l0 -1264 l416 0 l0 1264 l294 0 l0 -1264 l183 0 l0 -188 l-27 -502 l-270 0 l0 436 l-1598 0 Z" /><glyph glyph-name="" unicode="&#x42a;" d="M516 0 l0 1264 l-455 0 l0 254 l758 0 l0 -572 l187 0 q161 0 296 -48 q135 -48 216 -149 q81 -101 81 -260 q0 -178 -76 -285.5 q-76 -107.5 -207.5 -155.5 q-131.5 -48 -297.5 -48 l-502 0 ZM819 240 l178 0 q151 0 229.5 57 q78.5 57 78.5 186 q0 222 -320 222 l-166 0 l0 -465 Z" /><glyph glyph-name="" unicode="&#x42b;" d="M186 0 l0 1518 l303 0 l0 -572 l173 0 q169 0 301.5 -46.5 q132.5 -46.5 208 -147.5 q75.5 -101 75.5 -263 q0 -178 -77 -285.5 q-77 -107.5 -210 -155.5 q-133 -48 -301 -48 l-473 0 ZM489 240 l148 0 q150 0 232.5 57 q82.5 57 82.5 186 q0 222 -319 222 l-144 0 l0 -465 ZM1458 0 l0 1518 l301 0 l0 -1518 l-301 0 Z" /><glyph glyph-name="" unicode="&#x42c;" d="M186 0 l0 1518 l303 0 l0 -572 l218 0 q170 0 302 -46.5 q132 -46.5 207.5 -147.5 q75.5 -101 75.5 -263 q0 -178 -77 -285.5 q-77 -107.5 -210 -155.5 q-133 -48 -300 -48 l-519 0 ZM489 240 l191 0 q152 0 234.5 57 q82.5 57 82.5 186 q0 222 -317 222 l-191 0 l0 -465 Z" /><glyph glyph-name="" unicode="&#x42d;" d="M371 659 l0 254 l555 0 q-26 189 -123.5 280 q-97.5 91 -255.5 91 q-89 0 -164 -34.5 q-75 -34.5 -139 -92.5 l-160 193 q80 76 206 135 q126 59 273 59 q193 0 344 -87 q151 -87 238.5 -263 q87.5 -176 87.5 -442 q0 -266 -90.5 -439 q-90.5 -173 -243.5 -257.5 q-153 -84.5 -340 -84.5 q-152 0 -277 57.5 q-125 57.5 -225 166.5 l160 188 q66 -66 148 -108 q82 -42 188 -42 q160 0 259.5 102.5 q99.5 102.5 119.5 323.5 l-561 0 Z" /><glyph glyph-name="" unicode="&#x42e;" d="M1413 233 q164 0 255 145 q91 145 91 388 q0 243 -91 380.5 q-91 137.5 -255 137.5 q-164 0 -255 -137.5 q-91 -137.5 -91 -380.5 q0 -243 91 -388 q91 -145 255 -145 ZM1413 -29 q-183 0 -321.5 82 q-138.5 82 -221.5 235 q-83 153 -100 367 l-281 0 l0 -655 l-303 0 l0 1518 l303 0 l0 -600 l285 0 q35 299 204 462.5 q169 163.5 435 163.5 q198 0 345 -92 q147 -92 228.5 -266 q81.5 -174 81.5 -420 q0 -247 -81.5 -425 q-81.5 -178 -228.5 -274 q-147 -96 -345 -96 Z" /><glyph glyph-name="" unicode="&#x42f;" d="M725 813 l197 0 l0 463 l-197 0 q-147 0 -225 -48 q-78 -48 -78 -171 q0 -122 78 -183 q78 -61 225 -61 ZM35 0 l397 614 q-135 48 -220 156.5 q-85 108.5 -85 286.5 q0 174 76.5 274.5 q76.5 100.5 206 143.5 q129.5 43 288.5 43 l527 0 l0 -1518 l-303 0 l0 573 l-201 0 l-342 -573 l-344 0 Z" /><glyph glyph-name="" unicode="&#x430;" d="M442 -29 q-102 0 -178 44.5 q-76 44.5 -118 122 q-42 77.5 -42 175.5 q0 183 157 284 q157 101 503 138 q-3 85 -46 142 q-43 57 -149 57 q-80 0 -157.5 -31.5 q-77.5 -31.5 -157.5 -79.5 l-107 201 q100 61 221 106.5 q121 45.5 257 45.5 q218 0 329 -128.5 q111 -128.5 111 -377.5 l0 -670 l-246 0 l-20 123 l-11 0 q-73 -66 -159.5 -109 q-86.5 -43 -186.5 -43 ZM543 207 q64 0 115.5 29.5 q51.5 29.5 105.5 82.5 l0 230 q-211 -25 -292 -80 q-81 -55 -81 -133 q0 -68 43 -98.5 q43 -30.5 109 -30.5 Z" /><glyph glyph-name="" unicode="&#x431;" d="M668 -29 q-271 0 -416.5 194.5 q-145.5 194.5 -145.5 545.5 q0 267 52 436.5 q52 169.5 147.5 267 q95.5 97.5 228 144.5 q132.5 47 293.5 69 q102 14 156.5 29 q54.5 15 108.5 41 l57 -264 q-46 -36 -115.5 -55 q-69.5 -19 -144.5 -29 q-126 -18 -213.5 -37 q-87.5 -19 -144 -57.5 q-56.5 -38.5 -87 -114 q-30.5 -75.5 -43.5 -205.5 q66 77 156.5 116.5 q90.5 39.5 190.5 39.5 q123 0 225 -61 q102 -61 162.5 -179.5 q60.5 -118.5 60.5 -292.5 q0 -176 -70 -308.5 q-70 -132.5 -189.5 -206 q-119.5 -73.5 -268.5 -73.5 ZM391 709 l0 -68 q0 -210 70.5 -317 q70.5 -107 200.5 -107 q104 0 163.5 93.5 q59.5 93.5 59.5 248.5 q0 161 -60 237 q-60 76 -168 76 q-64 0 -133.5 -36.5 q-69.5 -36.5 -132.5 -126.5 Z" /><glyph glyph-name="" unicode="&#x432;" d="M162 0 l0 1147 l473 0 q128 0 230.5 -28.5 q102.5 -28.5 162 -94.5 q59.5 -66 59.5 -178 q0 -79 -47 -144.5 q-47 -65.5 -145 -93.5 l0 -10 q104 -25 171 -87.5 q67 -62.5 67 -180.5 q0 -118 -63.5 -190.5 q-63.5 -72.5 -170 -106 q-106.5 -33.5 -237.5 -33.5 l-500 0 ZM455 690 l157 0 q100 0 143.5 33.5 q43.5 33.5 43.5 91.5 q0 62 -43 95.5 q-43 33.5 -140 33.5 l-161 0 l0 -254 ZM455 201 l188 0 q105 0 151 40.5 q46 40.5 46 106.5 q0 62 -49.5 100.5 q-49.5 38.5 -153.5 38.5 l-182 0 l0 -286 Z" /><glyph glyph-name="" unicode="&#x433;" d="M162 0 l0 1147 l768 0 l0 -238 l-467 0 l0 -909 l-301 0 Z" /><glyph glyph-name="" unicode="&#x434;" d="M319 0 l0 -399 l-258 0 l-30 440 l0 197 l67 0 q29 15 53.5 53.5 q24.5 38.5 46 128 q21.5 89.5 42.5 258.5 l55 469 l817 0 l0 -909 l178 0 l0 -197 l-28 -440 l-261 0 l0 399 l-682 0 ZM397 238 l414 0 l0 671 l-279 0 l-30 -297 q-16 -126 -42 -218 q-26 -92 -63 -156 Z" /><glyph glyph-name="" unicode="&#x435;" d="M662 -29 q-161 0 -290.5 72 q-129.5 72 -205.5 206.5 q-76 134.5 -76 323.5 q0 139 44.5 250.5 q44.5 111.5 120.5 190 q76 78.5 171.5 120.5 q95.5 42 198.5 42 q157 0 264 -71 q107 -71 161 -195 q54 -124 54 -283 q0 -89 -14 -140 l-707 0 q18 -139 104 -210.5 q86 -71.5 215 -71.5 q70 0 131.5 19.5 q61.5 19.5 124.5 58.5 l103 -185 q-85 -58 -189.5 -92.5 q-104.5 -34.5 -209.5 -34.5 ZM377 690 l469 0 q0 115 -52.5 183.5 q-52.5 68.5 -164.5 68.5 q-91 0 -162.5 -63.5 q-71.5 -63.5 -89.5 -188.5 Z" /><glyph glyph-name="" unicode="&#x436;" d="M20 0 l363 592 l-72 170 q-32 80 -69 103.5 q-37 23.5 -80 23.5 q-12 0 -22 -2.5 q-10 -2.5 -21 -5.5 l-49 278 q35 17 88 17 q113 0 196 -50.5 q83 -50.5 148 -191.5 l98 -223 l125 0 l0 436 l266 0 l0 -436 l125 0 l101 223 q62 141 145 191.5 q83 50.5 199 50.5 q24 0 45.5 -4 q21.5 -4 40.5 -13 l-48 -278 q-10 3 -20 5.5 q-10 2.5 -23 2.5 q-43 0 -80 -23.5 q-37 -23.5 -69 -103.5 l-74 -170 l365 -592 l-322 0 l-254 475 l-131 0 l0 -475 l-266 0 l0 475 l-129 0 l-254 -475 l-322 0 Z" /><glyph glyph-name="" unicode="&#x437;" d="M512 -29 q-117 0 -225 29 q-108 29 -217 111 l120 190 q73 -54 149.5 -75 q76.5 -21 143.5 -21 q99 0 166.5 38.5 q67.5 38.5 67.5 110.5 q0 133 -209 133 l-176 0 l0 203 l155 0 q191 0 191 129 q0 60 -49.5 91.5 q-49.5 31.5 -139.5 31.5 q-82 0 -149.5 -19.5 q-67.5 -19.5 -134.5 -62.5 l-113 195 q183 121 416 121 q120 0 224 -35 q104 -35 168.5 -106.5 q64.5 -71.5 64.5 -182.5 q0 -75 -44.5 -144 q-44.5 -69 -140.5 -100 l0 -10 q106 -26 169 -91 q63 -65 63 -183 q0 -113 -72 -191.5 q-72 -78.5 -186.5 -120 q-114.5 -41.5 -241.5 -41.5 Z" /><glyph glyph-name="" unicode="&#x438;" d="M162 0 l0 1147 l291 0 l0 -363 q0 -86 -8.5 -195 q-8.5 -109 -16.5 -216 l6 0 q29 52 69.5 122 q40.5 70 67.5 119 l334 533 l277 0 l0 -1147 l-291 0 l0 360 q0 88 8.5 196.5 q8.5 108.5 18.5 215.5 l-9 0 q-30 -51 -69.5 -121.5 q-39.5 -70.5 -67.5 -120.5 l-336 -530 l-274 0 Z" /><glyph glyph-name="" unicode="&#x439;" d="M162 0 l0 1147 l291 0 l0 -363 q0 -86 -8.5 -195 q-8.5 -109 -16.5 -216 l6 0 q29 52 69.5 122 q40.5 70 67.5 119 l334 533 l277 0 l0 -1147 l-291 0 l0 360 q0 88 8.5 196.5 q8.5 108.5 18.5 215.5 l-9 0 q-30 -51 -69.5 -121.5 q-39.5 -70.5 -67.5 -120.5 l-336 -530 l-274 0 ZM680 1331 q-198 0 -290.5 105 q-92.5 105 -98.5 268 l233 0 q3 -97 36.5 -154 q33.5 -57 119.5 -57 q86 0 119.5 57 q33.5 57 36.5 154 l233 0 q-5 -163 -97 -268 q-92 -105 -292 -105 Z" /><glyph glyph-name="" unicode="&#x43a;" d="M162 0 l0 1147 l301 0 l0 -436 l143 0 l105 223 q47 99 97 151 q50 52 110.5 71.5 q60.5 19.5 138.5 19.5 q23 0 45 -4 q22 -4 41 -13 l-47 -278 q-11 3 -21 5.5 q-10 2.5 -22 2.5 q-43 0 -79 -22 q-36 -22 -73 -105 l-70 -162 l388 -600 l-328 0 l-281 475 l-147 0 l0 -475 l-301 0 Z" /><glyph glyph-name="" unicode="&#x43b;" d="M143 -29 q-37 0 -66.5 7 q-29.5 7 -60.5 18 l52 270 q12 -3 25 -5.5 q13 -2.5 30 -2.5 q51 0 85 44 q34 44 48 147 q22 173 41 348 q19 175 39 350 l807 0 l0 -1147 l-299 0 l0 909 l-271 0 q-15 -135 -31 -271 q-16 -136 -36 -271 q-26 -192 -117 -294 q-91 -102 -246 -102 Z" /><glyph glyph-name="" unicode="&#x43c;" d="M162 0 l0 1147 l342 0 l168 -432 q21 -71 43.5 -135 q22.5 -64 42.5 -127 l10 0 q23 63 45 127 q22 64 43 135 l158 432 l342 0 l0 -1147 l-269 0 l0 354 q0 59 6 144.5 q6 85.5 13.5 172.5 q7.5 87 13.5 150 l-10 0 q-25 -73 -55.5 -154.5 q-30.5 -81.5 -55.5 -152.5 l-155 -412 l-170 0 l-160 412 q-25 71 -55.5 154 q-30.5 83 -55.5 153 l-8 0 q4 -63 11.5 -150 q7.5 -87 13.5 -172.5 q6 -85.5 6 -144.5 l0 -354 l-264 0 Z" /><glyph glyph-name="" unicode="&#x43d;" d="M162 0 l0 1147 l301 0 l0 -428 l416 0 l0 428 l301 0 l0 -1147 l-301 0 l0 457 l-416 0 l0 -457 l-301 0 Z" /><glyph glyph-name="" unicode="&#x43e;" d="M641 -29 q-144 0 -270 71.5 q-126 71.5 -203.5 206 q-77.5 134.5 -77.5 324.5 q0 191 77.5 325.5 q77.5 134.5 203.5 206 q126 71.5 270 71.5 q143 0 269 -71.5 q126 -71.5 204 -206 q78 -134.5 78 -325.5 q0 -190 -78 -324.5 q-78 -134.5 -204 -206 q-126 -71.5 -269 -71.5 ZM641 217 q117 0 180.5 97 q63.5 97 63.5 259 q0 162 -63.5 259.5 q-63.5 97.5 -180.5 97.5 q-118 0 -181 -97.5 q-63 -97.5 -63 -259.5 q0 -162 63 -259 q63 -97 181 -97 Z" /><glyph glyph-name="" unicode="&#x43f;" d="M162 0 l0 1147 l997 0 l0 -1147 l-299 0 l0 909 l-397 0 l0 -909 l-301 0 Z" /><glyph glyph-name="" unicode="&#x440;" d="M162 -440 l0 1587 l246 0 l22 -119 l6 0 q72 62 158 105 q86 43 180 43 q140 0 241 -73 q101 -73 155.5 -204 q54.5 -131 54.5 -307 q0 -197 -69.5 -335.5 q-69.5 -138.5 -181 -212 q-111.5 -73.5 -237.5 -73.5 q-75 0 -147.5 32.5 q-72.5 32.5 -136.5 92.5 l10 -186 l0 -350 l-301 0 ZM672 219 q101 0 172 90.5 q71 90.5 71 278.5 q0 164 -54.5 252 q-54.5 88 -172.5 88 q-58 0 -112.5 -29.5 q-54.5 -29.5 -112.5 -87.5 l0 -506 q55 -47 108 -66.5 q53 -19.5 101 -19.5 Z" /><glyph glyph-name="" unicode="&#x441;" d="M649 -29 q-157 0 -284 71.5 q-127 71.5 -201 206 q-74 134.5 -74 324.5 q0 191 81.5 325.5 q81.5 134.5 215 206 q133.5 71.5 289.5 71.5 q106 0 188.5 -36.5 q82.5 -36.5 145.5 -92.5 l-144 -191 q-43 35 -84.5 54.5 q-41.5 19.5 -89.5 19.5 q-132 0 -213.5 -97.5 q-81.5 -97.5 -81.5 -259.5 q0 -162 80.5 -259 q80.5 -97 204.5 -97 q63 0 119.5 26 q56.5 26 103.5 66 l119 -198 q-81 -73 -180.5 -106.5 q-99.5 -33.5 -194.5 -33.5 Z" /><glyph glyph-name="" unicode="&#x442;" d="M412 0 l0 909 l-351 0 l0 238 l1002 0 l0 -238 l-352 0 l0 -909 l-299 0 Z" /><glyph glyph-name="" unicode="&#x443;" d="M262 -459 q-51 0 -87.5 6 q-36.5 6 -70.5 15 l56 231 q15 -4 37.5 -9 q22.5 -5 42.5 -5 q87 0 138.5 49.5 q51.5 49.5 76.5 124.5 l20 70 l-446 1124 l303 0 l182 -533 q26 -76 49 -158 q23 -82 47 -165 l11 0 q18 80 39 162 q21 82 42 161 l158 533 l289 0 l-408 -1182 q-50 -135 -112 -229.5 q-62 -94.5 -150.5 -144.5 q-88.5 -50 -216.5 -50 Z" /><glyph glyph-name="" unicode="&#x444;" d="M743 -440 l0 313 l11 172 q-46 -29 -102.5 -51.5 q-56.5 -22.5 -114.5 -22.5 q-202 0 -321.5 160 q-119.5 160 -119.5 442 q0 187 63 322 q63 135 163.5 208 q100.5 73 214.5 73 q67 0 119.5 -20.5 q52.5 -20.5 97.5 -49.5 l-11 166 l0 362 l295 0 l0 -362 l-12 -174 q54 32 116 55 q62 23 124 23 q130 0 223.5 -73 q93.5 -73 143.5 -204 q50 -131 50 -307 q0 -197 -62 -335.5 q-62 -138.5 -163 -212 q-101 -73.5 -219 -73.5 q-109 0 -213 70 l12 -168 l0 -313 l-295 0 ZM612 219 q40 0 74 12.5 q34 12.5 68 44.5 l0 598 q-36 30 -74.5 42 q-38.5 12 -75.5 12 q-83 0 -140.5 -90 q-57.5 -90 -57.5 -260 q0 -180 54 -269.5 q54 -89.5 152 -89.5 ZM1171 219 q88 0 146.5 90.5 q58.5 90.5 58.5 278.5 q0 164 -48.5 252 q-48.5 88 -147.5 88 q-39 0 -76.5 -12.5 q-37.5 -12.5 -77.5 -45.5 l0 -598 q38 -30 76.5 -41.5 q38.5 -11.5 68.5 -11.5 Z" /><glyph glyph-name="" unicode="&#x445;" d="M33 0 l358 596 l-336 551 l324 0 l115 -203 q24 -49 50 -98 q26 -49 52 -96 l8 0 q20 47 42 96 q22 49 42 98 l96 203 l312 0 l-336 -584 l358 -563 l-323 0 l-127 211 q-26 51 -54.5 101 q-28.5 50 -56.5 98 l-10 0 q-25 -48 -48.5 -98 q-23.5 -50 -47.5 -101 l-105 -211 l-313 0 Z" /><glyph glyph-name="" unicode="&#x446;" d="M1038 -399 l0 399 l-876 0 l0 1147 l301 0 l0 -909 l383 0 l0 909 l301 0 l0 -909 l176 0 l0 -197 l-27 -440 l-258 0 Z" /><glyph glyph-name="" unicode="&#x447;" d="M793 0 l0 408 q-51 -11 -93.5 -15 q-42.5 -4 -115.5 -4 q-139 0 -243 43 q-104 43 -162 138 q-58 95 -58 249 l0 328 l297 0 l0 -328 q0 -98 54.5 -146 q54.5 -48 174.5 -48 q42 0 75.5 4.5 q33.5 4.5 70.5 13.5 l0 504 l299 0 l0 -1147 l-299 0 Z" /><glyph glyph-name="" unicode="&#x448;" d="M162 0 l0 1147 l297 0 l0 -909 l313 0 l0 909 l287 0 l0 -909 l313 0 l0 909 l299 0 l0 -1147 l-1509 0 Z" /><glyph glyph-name="" unicode="&#x449;" d="M162 0 l0 1147 l297 0 l0 -909 l313 0 l0 909 l287 0 l0 -909 l313 0 l0 909 l299 0 l0 -909 l178 0 l0 -197 l-28 -440 l-258 0 l0 399 l-1401 0 Z" /><glyph glyph-name="" unicode="&#x44a;" d="M422 0 l0 909 l-361 0 l0 238 l662 0 l0 -381 l139 0 q138 0 247 -37 q109 -37 171.5 -120.5 q62.5 -83.5 62.5 -221.5 q0 -142 -62.5 -227 q-62.5 -85 -171.5 -122.5 q-109 -37.5 -247 -37.5 l-440 0 ZM723 231 l121 0 q211 0 211 158 q0 154 -211 154 l-121 0 l0 -312 Z" /><glyph glyph-name="" unicode="&#x44b;" d="M162 0 l0 1147 l301 0 l0 -381 l104 0 q138 0 246.5 -37 q108.5 -37 172 -120.5 q63.5 -83.5 63.5 -221.5 q0 -142 -63.5 -227 q-63.5 -85 -172 -122.5 q-108.5 -37.5 -246.5 -37.5 l-405 0 ZM463 231 l88 0 q211 0 211 158 q0 154 -211 154 l-88 0 l0 -312 ZM1214 0 l0 1147 l302 0 l0 -1147 l-302 0 Z" /><glyph glyph-name="" unicode="&#x44c;" d="M162 0 l0 1147 l301 0 l0 -381 l151 0 q139 0 247.5 -37 q108.5 -37 171.5 -120.5 q63 -83.5 63 -221.5 q0 -142 -63 -227 q-63 -85 -171.5 -122.5 q-108.5 -37.5 -247.5 -37.5 l-452 0 ZM463 231 l133 0 q209 0 209 158 q0 154 -209 154 l-133 0 l0 -312 Z" /><glyph glyph-name="" unicode="&#x44d;" d="M274 487 l0 203 l424 0 q-23 134 -97.5 193 q-74.5 59 -186.5 59 q-65 0 -117 -20 q-52 -20 -96 -56 l-133 174 q61 59 155.5 97.5 q94.5 38.5 208.5 38.5 q155 0 281.5 -66.5 q126.5 -66.5 201 -200 q74.5 -133.5 74.5 -336.5 q0 -200 -72.5 -334 q-72.5 -134 -199 -201 q-126.5 -67 -287.5 -67 q-101 0 -202.5 33.5 q-101.5 33.5 -176.5 106.5 l111 178 q47 -37 108.5 -60.5 q61.5 -23.5 128.5 -23.5 q123 0 204 66 q81 66 99 216 l-428 0 Z" /><glyph glyph-name="" unicode="&#x44e;" d="M1157 217 q111 0 167 97 q56 97 56 259 q0 162 -56 259.5 q-56 97.5 -167 97.5 q-106 0 -167.5 -97.5 q-61.5 -97.5 -61.5 -259.5 q0 -162 61.5 -259 q61.5 -97 167.5 -97 ZM1174 -29 q-135 0 -244 57.5 q-109 57.5 -181 165 q-72 107.5 -94 259.5 l-192 0 l0 -453 l-301 0 l0 1147 l301 0 l0 -432 l196 0 q37 218 177.5 339.5 q140.5 121.5 337.5 121.5 q142 0 259 -71.5 q117 -71.5 187 -206 q70 -134.5 70 -325.5 q0 -190 -70 -324.5 q-70 -134.5 -187 -206 q-117 -71.5 -259 -71.5 Z" /><glyph glyph-name="" unicode="&#x44f;" d="M657 602 l127 0 l0 322 l-127 0 q-213 0 -213 -154 q0 -77 54.5 -122.5 q54.5 -45.5 158.5 -45.5 ZM45 0 l317 451 q-92 43 -153.5 123 q-61.5 80 -61.5 204 q0 138 63.5 219 q63.5 81 170 115.5 q106.5 34.5 237.5 34.5 l465 0 l0 -1147 l-299 0 l0 395 l-151 0 l-252 -395 l-336 0 Z" /><glyph glyph-name="" unicode="&#x451;" d="M662 -29 q-161 0 -290.5 72 q-129.5 72 -205.5 206.5 q-76 134.5 -76 323.5 q0 139 44.5 250.5 q44.5 111.5 120.5 190 q76 78.5 171.5 120.5 q95.5 42 198.5 42 q157 0 264 -71 q107 -71 161 -195 q54 -124 54 -283 q0 -89 -14 -140 l-707 0 q18 -139 104 -210.5 q86 -71.5 215 -71.5 q70 0 131.5 19.5 q61.5 19.5 124.5 58.5 l103 -185 q-85 -58 -189.5 -92.5 q-104.5 -34.5 -209.5 -34.5 ZM377 690 l469 0 q0 115 -52.5 183.5 q-52.5 68.5 -164.5 68.5 q-91 0 -162.5 -63.5 q-71.5 -63.5 -89.5 -188.5 ZM373 1333 q-65 0 -108.5 44.5 q-43.5 44.5 -43.5 107.5 q0 64 43.5 108.5 q43.5 44.5 108.5 44.5 q67 0 111 -44.5 q44 -44.5 44 -108.5 q0 -63 -44 -107.5 q-44 -44.5 -111 -44.5 ZM866 1333 q-66 0 -109.5 44.5 q-43.5 44.5 -43.5 107.5 q0 64 43.5 108.5 q43.5 44.5 109.5 44.5 q66 0 110 -44.5 q44 -44.5 44 -108.5 q0 -63 -44 -107.5 q-44 -44.5 -110 -44.5 Z" /><glyph glyph-name="" unicode="&#x1e3e;" d="M186 0 l0 1518 l336 0 l258 -713 q25 -69 47 -143 q22 -74 45 -146 l11 0 q24 72 45.5 146 q21.5 74 44.5 143 l254 713 l336 0 l0 -1518 l-277 0 l0 633 q0 73 6.5 161.5 q6.5 88.5 15.5 176.5 q9 88 17 159 l-10 0 l-123 -356 l-234 -637 l-174 0 l-235 637 l-121 356 l-8 0 q7 -71 16 -159 q9 -88 16 -176.5 q7 -88.5 7 -161.5 l0 -633 l-273 0 ZM846 1591 l-133 152 l377 317 l161 -196 l-405 -273 Z" /><glyph glyph-name="" unicode="&#x1e3f;" d="M162 0 l0 1147 l246 0 l22 -154 l6 0 q72 76 156 129.5 q84 53.5 196 53.5 q123 0 198.5 -53 q75.5 -53 115.5 -148 q80 83 168 142 q88 59 198 59 q183 0 269 -122.5 q86 -122.5 86 -338.5 l0 -715 l-299 0 l0 678 q0 134 -39.5 187 q-39.5 53 -120.5 53 q-101 0 -221 -130 l0 -788 l-299 0 l0 678 q0 134 -39.5 187 q-39.5 53 -122.5 53 q-102 0 -219 -130 l0 -788 l-301 0 ZM1028 1331 l-149 146 l348 415 l205 -198 l-404 -363 Z" /><glyph glyph-name="" unicode="&#x1ea0;" d="M653 -514 q-78 0 -127 45.5 q-49 45.5 -49 120.5 q0 75 49 119.5 q49 44.5 127 44.5 q77 0 125.5 -44.5 q48.5 -44.5 48.5 -119.5 q0 -75 -48.5 -120.5 q-48.5 -45.5 -125.5 -45.5 ZM-8 0 l485 1518 l359 0 l485 -1518 l-320 0 l-106 389 l-489 0 l-107 -389 l-307 0 ZM471 625 l360 0 l-45 166 q-35 118 -67 246 q-32 128 -66 249 l-8 0 q-31 -124 -63 -250.5 q-32 -126.5 -66 -244.5 l-45 -166 Z" /><glyph glyph-name="" unicode="&#x1ea1;" d="M442 -29 q-102 0 -178 44.5 q-76 44.5 -118 122 q-42 77.5 -42 175.5 q0 183 157 284 q157 101 503 138 q-3 85 -46 142 q-43 57 -149 57 q-80 0 -157.5 -31.5 q-77.5 -31.5 -157.5 -79.5 l-107 201 q100 61 221 106.5 q121 45.5 257 45.5 q218 0 329 -128.5 q111 -128.5 111 -377.5 l0 -670 l-246 0 l-20 123 l-11 0 q-73 -66 -159.5 -109 q-86.5 -43 -186.5 -43 ZM543 207 q64 0 115.5 29.5 q51.5 29.5 105.5 82.5 l0 230 q-211 -25 -292 -80 q-81 -55 -81 -133 q0 -68 43 -98.5 q43 -30.5 109 -30.5 ZM592 -514 q-78 0 -127 45.5 q-49 45.5 -49 120.5 q0 75 49 119.5 q49 44.5 127 44.5 q77 0 125.5 -44.5 q48.5 -44.5 48.5 -119.5 q0 -75 -48.5 -120.5 q-48.5 -45.5 -125.5 -45.5 Z" /><glyph glyph-name="" unicode="&#x1ea2;" d="M559 1610 l-22 123 q46 10 78 26.5 q32 16.5 32 52.5 q0 36 -45 57 q-45 21 -143 27 l35 154 q198 -6 284 -60.5 q86 -54.5 86 -146.5 q0 -76 -42 -124.5 q-42 -48.5 -111.5 -74.5 q-69.5 -26 -151.5 -34 ZM-8 0 l485 1518 l359 0 l485 -1518 l-320 0 l-106 389 l-489 0 l-107 -389 l-307 0 ZM471 625 l360 0 l-45 166 q-35 118 -67 246 q-32 128 -66 249 l-8 0 q-31 -124 -63 -250.5 q-32 -126.5 -66 -244.5 l-45 -166 Z" /><glyph glyph-name="" unicode="&#x1ea3;" d="M442 -29 q-102 0 -178 44.5 q-76 44.5 -118 122 q-42 77.5 -42 175.5 q0 183 157 284 q157 101 503 138 q-3 85 -46 142 q-43 57 -149 57 q-80 0 -157.5 -31.5 q-77.5 -31.5 -157.5 -79.5 l-107 201 q100 61 221 106.5 q121 45.5 257 45.5 q218 0 329 -128.5 q111 -128.5 111 -377.5 l0 -670 l-246 0 l-20 123 l-11 0 q-73 -66 -159.5 -109 q-86.5 -43 -186.5 -43 ZM543 207 q64 0 115.5 29.5 q51.5 29.5 105.5 82.5 l0 230 q-211 -25 -292 -80 q-81 -55 -81 -133 q0 -68 43 -98.5 q43 -30.5 109 -30.5 ZM543 1323 l-25 123 q46 9 78.5 29 q32.5 20 32.5 61 q0 43 -43.5 68.5 q-43.5 25.5 -143.5 29.5 l17 189 q209 -6 301 -78 q92 -72 92 -189 q0 -75 -43 -124 q-43 -49 -113.5 -75 q-70.5 -26 -152.5 -34 Z" /><glyph glyph-name="" unicode="&#x1ea4;" d="M432 1602 l-119 84 l209 223 l262 0 l209 -223 l-119 -84 l-217 163 l-10 0 l-215 -163 ZM985 1767 l-92 103 l231 205 l105 -125 l-244 -183 ZM-8 0 l485 1518 l359 0 l485 -1518 l-320 0 l-106 389 l-489 0 l-107 -389 l-307 0 ZM471 625 l360 0 l-45 166 q-35 118 -67 246 q-32 128 -66 249 l-8 0 q-31 -124 -63 -250.5 q-32 -126.5 -66 -244.5 l-45 -166 Z" /><glyph glyph-name="" unicode="&#x1ea5;" d="M442 -29 q-102 0 -178 44.5 q-76 44.5 -118 122 q-42 77.5 -42 175.5 q0 183 157 284 q157 101 503 138 q-3 85 -46 142 q-43 57 -149 57 q-80 0 -157.5 -31.5 q-77.5 -31.5 -157.5 -79.5 l-107 201 q100 61 221 106.5 q121 45.5 257 45.5 q218 0 329 -128.5 q111 -128.5 111 -377.5 l0 -670 l-246 0 l-20 123 l-11 0 q-73 -66 -159.5 -109 q-86.5 -43 -186.5 -43 ZM543 207 q64 0 115.5 29.5 q51.5 29.5 105.5 82.5 l0 230 q-211 -25 -292 -80 q-81 -55 -81 -133 q0 -68 43 -98.5 q43 -30.5 109 -30.5 ZM393 1317 l-96 110 l219 213 l240 0 l223 -213 l-98 -110 l-240 156 l-8 0 l-240 -156 ZM1018 1483 l-117 90 l191 291 l163 -107 l-237 -274 Z" /><glyph glyph-name="" unicode="&#x1ea6;" d="M432 1602 l-119 84 l209 223 l262 0 l209 -223 l-119 -84 l-217 163 l-10 0 l-215 -163 ZM319 1767 l-229 185 l105 123 l219 -207 l-95 -101 ZM-8 0 l485 1518 l359 0 l485 -1518 l-320 0 l-106 389 l-489 0 l-107 -389 l-307 0 ZM471 625 l360 0 l-45 166 q-35 118 -67 246 q-32 128 -66 249 l-8 0 q-31 -124 -63 -250.5 q-32 -126.5 -66 -244.5 l-45 -166 Z" /><glyph glyph-name="" unicode="&#x1ea7;" d="M442 -29 q-102 0 -178 44.5 q-76 44.5 -118 122 q-42 77.5 -42 175.5 q0 183 157 284 q157 101 503 138 q-3 85 -46 142 q-43 57 -149 57 q-80 0 -157.5 -31.5 q-77.5 -31.5 -157.5 -79.5 l-107 201 q100 61 221 106.5 q121 45.5 257 45.5 q218 0 329 -128.5 q111 -128.5 111 -377.5 l0 -670 l-246 0 l-20 123 l-11 0 q-73 -66 -159.5 -109 q-86.5 -43 -186.5 -43 ZM543 207 q64 0 115.5 29.5 q51.5 29.5 105.5 82.5 l0 230 q-211 -25 -292 -80 q-81 -55 -81 -133 q0 -68 43 -98.5 q43 -30.5 109 -30.5 ZM393 1317 l-96 110 l219 213 l240 0 l223 -213 l-98 -110 l-240 156 l-8 0 l-240 -156 ZM254 1483 l-250 270 l164 111 l205 -287 l-119 -94 Z" /><glyph glyph-name="" unicode="&#x1ea8;" d="M432 1602 l-119 84 l209 223 l262 0 l209 -223 l-119 -84 l-217 163 l-10 0 l-215 -163 ZM958 1745 l-26 102 q35 8 59.5 22 q24.5 14 24.5 48 q0 35 -35 54 q-35 19 -121 24 l29 129 q175 -6 249 -55 q74 -49 74 -127 q0 -99 -74.5 -142.5 q-74.5 -43.5 -179.5 -54.5 ZM-8 0 l485 1518 l359 0 l485 -1518 l-320 0 l-106 389 l-489 0 l-107 -389 l-307 0 ZM471 625 l360 0 l-45 166 q-35 118 -67 246 q-32 128 -66 249 l-8 0 q-31 -124 -63 -250.5 q-32 -126.5 -66 -244.5 l-45 -166 Z" /><glyph glyph-name="" unicode="&#x1ea9;" d="M442 -29 q-102 0 -178 44.5 q-76 44.5 -118 122 q-42 77.5 -42 175.5 q0 183 157 284 q157 101 503 138 q-3 85 -46 142 q-43 57 -149 57 q-80 0 -157.5 -31.5 q-77.5 -31.5 -157.5 -79.5 l-107 201 q100 61 221 106.5 q121 45.5 257 45.5 q218 0 329 -128.5 q111 -128.5 111 -377.5 l0 -670 l-246 0 l-20 123 l-11 0 q-73 -66 -159.5 -109 q-86.5 -43 -186.5 -43 ZM543 207 q64 0 115.5 29.5 q51.5 29.5 105.5 82.5 l0 230 q-211 -25 -292 -80 q-81 -55 -81 -133 q0 -68 43 -98.5 q43 -30.5 109 -30.5 ZM393 1317 l-96 110 l219 213 l240 0 l223 -213 l-98 -110 l-240 156 l-8 0 l-240 -156 ZM942 1493 l-22 106 q36 8 56.5 24 q20.5 16 20.5 48 q0 37 -33 56.5 q-33 19.5 -120 25.5 l26 129 q177 -4 252.5 -51 q75.5 -47 75.5 -127 q0 -73 -35.5 -115.5 q-35.5 -42.5 -93.5 -64 q-58 -21.5 -127 -31.5 Z" /><glyph glyph-name="" unicode="&#x1eaa;" d="M432 1602 l-119 84 l209 208 l262 0 l209 -208 l-119 -84 l-217 147 l-10 0 l-215 -147 ZM797 1950 q-67 0 -113.5 26 q-46.5 26 -83 52 q-36.5 26 -72.5 26 q-65 0 -77 -94 l-148 18 q13 244 207 244 q67 0 113.5 -26 q46.5 -26 82 -52 q35.5 -26 70.5 -26 q65 0 80 94 l148 -19 q-16 -243 -207 -243 ZM-8 0 l485 1518 l359 0 l485 -1518 l-320 0 l-106 389 l-489 0 l-107 -389 l-307 0 ZM471 625 l360 0 l-45 166 q-35 118 -67 246 q-32 128 -66 249 l-8 0 q-31 -124 -63 -250.5 q-32 -126.5 -66 -244.5 l-45 -166 Z" /><glyph glyph-name="" unicode="&#x1eab;" d="M442 -29 q-102 0 -178 44.5 q-76 44.5 -118 122 q-42 77.5 -42 175.5 q0 183 157 284 q157 101 503 138 q-3 85 -46 142 q-43 57 -149 57 q-80 0 -157.5 -31.5 q-77.5 -31.5 -157.5 -79.5 l-107 201 q100 61 221 106.5 q121 45.5 257 45.5 q218 0 329 -128.5 q111 -128.5 111 -377.5 l0 -670 l-246 0 l-20 123 l-11 0 q-73 -66 -159.5 -109 q-86.5 -43 -186.5 -43 ZM543 207 q64 0 115.5 29.5 q51.5 29.5 105.5 82.5 l0 230 q-211 -25 -292 -80 q-81 -55 -81 -133 q0 -68 43 -98.5 q43 -30.5 109 -30.5 ZM393 1317 l-96 110 l219 199 l240 0 l223 -199 l-98 -110 l-240 139 l-8 0 l-240 -139 ZM776 1661 q-64 0 -109 24 q-45 24 -80.5 48 q-35.5 24 -72.5 24 q-56 0 -74 -90 l-139 14 q25 244 197 244 q65 0 110 -24 q45 -24 80.5 -48 q35.5 -24 73.5 -24 q55 0 69 90 l144 -14 q-28 -244 -199 -244 Z" /><glyph glyph-name="" unicode="&#x1eac;" d="M401 1602 l-127 84 l218 256 l323 0 l217 -256 l-129 -84 l-246 198 l-10 0 l-246 -198 ZM653 -514 q-78 0 -127 45.5 q-49 45.5 -49 120.5 q0 75 49 119.5 q49 44.5 127 44.5 q77 0 125.5 -44.5 q48.5 -44.5 48.5 -119.5 q0 -75 -48.5 -120.5 q-48.5 -45.5 -125.5 -45.5 ZM-8 0 l485 1518 l359 0 l485 -1518 l-320 0 l-106 389 l-489 0 l-107 -389 l-307 0 ZM471 625 l360 0 l-45 166 q-35 118 -67 246 q-32 128 -66 249 l-8 0 q-31 -124 -63 -250.5 q-32 -126.5 -66 -244.5 l-45 -166 Z" /><glyph glyph-name="" unicode="&#x1ead;" d="M442 -29 q-102 0 -178 44.5 q-76 44.5 -118 122 q-42 77.5 -42 175.5 q0 183 157 284 q157 101 503 138 q-3 85 -46 142 q-43 57 -149 57 q-80 0 -157.5 -31.5 q-77.5 -31.5 -157.5 -79.5 l-107 201 q100 61 221 106.5 q121 45.5 257 45.5 q218 0 329 -128.5 q111 -128.5 111 -377.5 l0 -670 l-246 0 l-20 123 l-11 0 q-73 -66 -159.5 -109 q-86.5 -43 -186.5 -43 ZM543 207 q64 0 115.5 29.5 q51.5 29.5 105.5 82.5 l0 230 q-211 -25 -292 -80 q-81 -55 -81 -133 q0 -68 43 -98.5 q43 -30.5 109 -30.5 ZM229 1417 l254 309 l305 0 l254 -309 l-114 -108 l-287 225 l-8 0 l-285 -225 l-119 108 ZM592 -514 q-78 0 -127 45.5 q-49 45.5 -49 120.5 q0 75 49 119.5 q49 44.5 127 44.5 q77 0 125.5 -44.5 q48.5 -44.5 48.5 -119.5 q0 -75 -48.5 -120.5 q-48.5 -45.5 -125.5 -45.5 Z" /><glyph glyph-name="" unicode="&#x1eae;" d="M653 1624 q-170 0 -260.5 84.5 q-90.5 84.5 -107.5 228.5 l149 29 q19 -81 74.5 -130.5 q55.5 -49.5 144.5 -49.5 q89 0 145 49.5 q56 49.5 72 130.5 l150 -29 q-14 -144 -105 -228.5 q-91 -84.5 -262 -84.5 ZM682 1870 l-145 98 l221 303 l188 -117 l-264 -284 ZM-8 0 l485 1518 l359 0 l485 -1518 l-320 0 l-106 389 l-489 0 l-107 -389 l-307 0 ZM471 625 l360 0 l-45 166 q-35 118 -67 246 q-32 128 -66 249 l-8 0 q-31 -124 -63 -250.5 q-32 -126.5 -66 -244.5 l-45 -166 Z" /><glyph glyph-name="" unicode="&#x1eaf;" d="M442 -29 q-102 0 -178 44.5 q-76 44.5 -118 122 q-42 77.5 -42 175.5 q0 183 157 284 q157 101 503 138 q-3 85 -46 142 q-43 57 -149 57 q-80 0 -157.5 -31.5 q-77.5 -31.5 -157.5 -79.5 l-107 201 q100 61 221 106.5 q121 45.5 257 45.5 q218 0 329 -128.5 q111 -128.5 111 -377.5 l0 -670 l-246 0 l-20 123 l-11 0 q-73 -66 -159.5 -109 q-86.5 -43 -186.5 -43 ZM543 207 q64 0 115.5 29.5 q51.5 29.5 105.5 82.5 l0 230 q-211 -25 -292 -80 q-81 -55 -81 -133 q0 -68 43 -98.5 q43 -30.5 109 -30.5 ZM637 1327 q-130 0 -214 50 q-84 50 -125.5 132.5 q-41.5 82.5 -45.5 182.5 l158 26 q12 -86 66.5 -150.5 q54.5 -64.5 160.5 -64.5 q104 0 158.5 64.5 q54.5 64.5 66.5 150.5 l160 -26 q-5 -100 -46.5 -182.5 q-41.5 -82.5 -124.5 -132.5 q-83 -50 -214 -50 ZM649 1610 l-133 92 l211 319 l180 -133 l-258 -278 Z" /><glyph glyph-name="" unicode="&#x1eb0;" d="M653 1624 q-170 0 -260.5 84.5 q-90.5 84.5 -107.5 228.5 l149 29 q19 -81 74.5 -130.5 q55.5 -49.5 144.5 -49.5 q89 0 145 49.5 q56 49.5 72 130.5 l150 -29 q-14 -144 -105 -228.5 q-91 -84.5 -262 -84.5 ZM623 1870 l-263 284 l189 117 l221 -303 l-147 -98 ZM-8 0 l485 1518 l359 0 l485 -1518 l-320 0 l-106 389 l-489 0 l-107 -389 l-307 0 ZM471 625 l360 0 l-45 166 q-35 118 -67 246 q-32 128 -66 249 l-8 0 q-31 -124 -63 -250.5 q-32 -126.5 -66 -244.5 l-45 -166 Z" /><glyph glyph-name="" unicode="&#x1eb1;" d="M442 -29 q-102 0 -178 44.5 q-76 44.5 -118 122 q-42 77.5 -42 175.5 q0 183 157 284 q157 101 503 138 q-3 85 -46 142 q-43 57 -149 57 q-80 0 -157.5 -31.5 q-77.5 -31.5 -157.5 -79.5 l-107 201 q100 61 221 106.5 q121 45.5 257 45.5 q218 0 329 -128.5 q111 -128.5 111 -377.5 l0 -670 l-246 0 l-20 123 l-11 0 q-73 -66 -159.5 -109 q-86.5 -43 -186.5 -43 ZM543 207 q64 0 115.5 29.5 q51.5 29.5 105.5 82.5 l0 230 q-211 -25 -292 -80 q-81 -55 -81 -133 q0 -68 43 -98.5 q43 -30.5 109 -30.5 ZM637 1327 q-130 0 -214 50 q-84 50 -125.5 132.5 q-41.5 82.5 -45.5 182.5 l158 26 q12 -86 66.5 -150.5 q54.5 -64.5 160.5 -64.5 q104 0 158.5 64.5 q54.5 64.5 66.5 150.5 l160 -26 q-5 -100 -46.5 -182.5 q-41.5 -82.5 -124.5 -132.5 q-83 -50 -214 -50 ZM627 1610 l-260 278 l178 133 l213 -319 l-131 -92 Z" /><glyph glyph-name="" unicode="&#x1eb2;" d="M653 1624 q-170 0 -260.5 84.5 q-90.5 84.5 -107.5 228.5 l149 29 q19 -81 74.5 -130.5 q55.5 -49.5 144.5 -49.5 q89 0 145 49.5 q56 49.5 72 130.5 l150 -29 q-14 -144 -105 -228.5 q-91 -84.5 -262 -84.5 ZM584 1870 l-27 100 q35 8 59.5 23 q24.5 15 24.5 47 q0 37 -34 56 q-34 19 -122 24 l27 129 q177 -6 251.5 -55 q74.5 -49 74.5 -128 q0 -99 -75 -143 q-75 -44 -179 -53 ZM-8 0 l485 1518 l359 0 l485 -1518 l-320 0 l-106 389 l-489 0 l-107 -389 l-307 0 ZM471 625 l360 0 l-45 166 q-35 118 -67 246 q-32 128 -66 249 l-8 0 q-31 -124 -63 -250.5 q-32 -126.5 -66 -244.5 l-45 -166 Z" /><glyph glyph-name="" unicode="&#x1eb3;" d="M442 -29 q-102 0 -178 44.5 q-76 44.5 -118 122 q-42 77.5 -42 175.5 q0 183 157 284 q157 101 503 138 q-3 85 -46 142 q-43 57 -149 57 q-80 0 -157.5 -31.5 q-77.5 -31.5 -157.5 -79.5 l-107 201 q100 61 221 106.5 q121 45.5 257 45.5 q218 0 329 -128.5 q111 -128.5 111 -377.5 l0 -670 l-246 0 l-20 123 l-11 0 q-73 -66 -159.5 -109 q-86.5 -43 -186.5 -43 ZM543 207 q64 0 115.5 29.5 q51.5 29.5 105.5 82.5 l0 230 q-211 -25 -292 -80 q-81 -55 -81 -133 q0 -68 43 -98.5 q43 -30.5 109 -30.5 ZM637 1327 q-130 0 -214 50 q-84 50 -125.5 132.5 q-41.5 82.5 -45.5 182.5 l158 26 q12 -86 66.5 -150.5 q54.5 -64.5 160.5 -64.5 q104 0 158.5 64.5 q54.5 64.5 66.5 150.5 l160 -26 q-5 -100 -46.5 -182.5 q-41.5 -82.5 -124.5 -132.5 q-83 -50 -214 -50 ZM559 1610 l-18 108 q37 8 60.5 24 q23.5 16 23.5 48 q0 37 -36 56.5 q-36 19.5 -126 25.5 l26 168 q180 -8 257 -64.5 q77 -56.5 77 -152.5 q0 -72 -36 -115.5 q-36 -43.5 -96 -66 q-60 -22.5 -132 -31.5 Z" /><glyph glyph-name="" unicode="&#x1eb4;" d="M653 1634 q-170 0 -257 72 q-87 72 -99 184 l149 27 q14 -54 61.5 -93.5 q47.5 -39.5 145.5 -39.5 q99 0 145.5 39.5 q46.5 39.5 61.5 93.5 l148 -27 q-13 -112 -98.5 -184 q-85.5 -72 -256.5 -72 ZM797 1964 q-67 0 -113.5 26.5 q-46.5 26.5 -83 53.5 q-36.5 27 -72.5 27 q-65 0 -77 -97 l-148 19 q13 245 207 245 q67 0 113.5 -26 q46.5 -26 82 -52 q35.5 -26 70.5 -26 q65 0 80 94 l148 -18 q-16 -246 -207 -246 ZM-8 0 l485 1518 l359 0 l485 -1518 l-320 0 l-106 389 l-489 0 l-107 -389 l-307 0 ZM471 625 l360 0 l-45 166 q-35 118 -67 246 q-32 128 -66 249 l-8 0 q-31 -124 -63 -250.5 q-32 -126.5 -66 -244.5 l-45 -166 Z" /><glyph glyph-name="" unicode="&#x1eb5;" d="M442 -29 q-102 0 -178 44.5 q-76 44.5 -118 122 q-42 77.5 -42 175.5 q0 183 157 284 q157 101 503 138 q-3 85 -46 142 q-43 57 -149 57 q-80 0 -157.5 -31.5 q-77.5 -31.5 -157.5 -79.5 l-107 201 q100 61 221 106.5 q121 45.5 257 45.5 q218 0 329 -128.5 q111 -128.5 111 -377.5 l0 -670 l-246 0 l-20 123 l-11 0 q-73 -66 -159.5 -109 q-86.5 -43 -186.5 -43 ZM543 207 q64 0 115.5 29.5 q51.5 29.5 105.5 82.5 l0 230 q-211 -25 -292 -80 q-81 -55 -81 -133 q0 -68 43 -98.5 q43 -30.5 109 -30.5 ZM637 1327 q-119 0 -194 37.5 q-75 37.5 -113 97 q-38 59.5 -45 125.5 l153 25 q9 -48 55.5 -89.5 q46.5 -41.5 143.5 -41.5 q97 0 142.5 41.5 q45.5 41.5 58.5 89.5 l151 -25 q-7 -66 -45 -125.5 q-38 -59.5 -113 -97 q-75 -37.5 -194 -37.5 ZM776 1655 q-64 0 -109 25 q-45 25 -80.5 50 q-35.5 25 -72.5 25 q-56 0 -74 -92 l-155 14 q21 246 213 246 q65 0 110 -25 q45 -25 80.5 -50 q35.5 -25 73.5 -25 q54 0 69 92 l158 -14 q-25 -246 -213 -246 Z" /><glyph glyph-name="" unicode="&#x1eb6;" d="M653 1624 q-170 0 -260.5 84.5 q-90.5 84.5 -107.5 228.5 l168 29 q13 -74 64.5 -119 q51.5 -45 135.5 -45 q85 0 135.5 45 q50.5 45 65.5 119 l166 -29 q-14 -144 -105 -228.5 q-91 -84.5 -262 -84.5 ZM653 -514 q-78 0 -127 45.5 q-49 45.5 -49 120.5 q0 75 49 119.5 q49 44.5 127 44.5 q77 0 125.5 -44.5 q48.5 -44.5 48.5 -119.5 q0 -75 -48.5 -120.5 q-48.5 -45.5 -125.5 -45.5 ZM-8 0 l485 1518 l359 0 l485 -1518 l-320 0 l-106 389 l-489 0 l-107 -389 l-307 0 ZM471 625 l360 0 l-45 166 q-35 118 -67 246 q-32 128 -66 249 l-8 0 q-31 -124 -63 -250.5 q-32 -126.5 -66 -244.5 l-45 -166 Z" /><glyph glyph-name="" unicode="&#x1eb7;" d="M442 -29 q-102 0 -178 44.5 q-76 44.5 -118 122 q-42 77.5 -42 175.5 q0 183 157 284 q157 101 503 138 q-3 85 -46 142 q-43 57 -149 57 q-80 0 -157.5 -31.5 q-77.5 -31.5 -157.5 -79.5 l-107 201 q100 61 221 106.5 q121 45.5 257 45.5 q218 0 329 -128.5 q111 -128.5 111 -377.5 l0 -670 l-246 0 l-20 123 l-11 0 q-73 -66 -159.5 -109 q-86.5 -43 -186.5 -43 ZM543 207 q64 0 115.5 29.5 q51.5 29.5 105.5 82.5 l0 230 q-211 -25 -292 -80 q-81 -55 -81 -133 q0 -68 43 -98.5 q43 -30.5 109 -30.5 ZM637 1327 q-130 0 -214 50 q-84 50 -125.5 132.5 q-41.5 82.5 -45.5 182.5 l174 26 q11 -78 62 -139 q51 -61 149 -61 q97 0 148 61 q51 61 63 139 l174 -26 q-5 -100 -46.5 -182.5 q-41.5 -82.5 -124.5 -132.5 q-83 -50 -214 -50 ZM592 -514 q-78 0 -127 45.5 q-49 45.5 -49 120.5 q0 75 49 119.5 q49 44.5 127 44.5 q77 0 125.5 -44.5 q48.5 -44.5 48.5 -119.5 q0 -75 -48.5 -120.5 q-48.5 -45.5 -125.5 -45.5 Z" /><glyph glyph-name="" unicode="&#x1eb8;" d="M186 0 l0 1518 l930 0 l0 -254 l-627 0 l0 -351 l531 0 l0 -254 l-531 0 l0 -405 l650 0 l0 -254 l-953 0 ZM686 -514 q-77 0 -125.5 45.5 q-48.5 45.5 -48.5 120.5 q0 75 48.5 119.5 q48.5 44.5 125.5 44.5 q80 0 128 -44.5 q48 -44.5 48 -119.5 q0 -75 -48 -120.5 q-48 -45.5 -128 -45.5 Z" /><glyph glyph-name="" unicode="&#x1eb9;" d="M662 -29 q-161 0 -290.5 72 q-129.5 72 -205.5 206.5 q-76 134.5 -76 323.5 q0 139 44.5 250.5 q44.5 111.5 120.5 190 q76 78.5 171.5 120.5 q95.5 42 198.5 42 q157 0 264 -71 q107 -71 161 -195 q54 -124 54 -283 q0 -89 -14 -140 l-707 0 q18 -139 104 -210.5 q86 -71.5 215 -71.5 q70 0 131.5 19.5 q61.5 19.5 124.5 58.5 l103 -185 q-85 -58 -189.5 -92.5 q-104.5 -34.5 -209.5 -34.5 ZM377 690 l469 0 q0 115 -52.5 183.5 q-52.5 68.5 -164.5 68.5 q-91 0 -162.5 -63.5 q-71.5 -63.5 -89.5 -188.5 ZM621 -514 q-79 0 -128 45.5 q-49 45.5 -49 120.5 q0 75 49 119.5 q49 44.5 128 44.5 q78 0 126 -44.5 q48 -44.5 48 -119.5 q0 -75 -48 -120.5 q-48 -45.5 -126 -45.5 Z" /><glyph glyph-name="" unicode="&#x1eba;" d="M186 0 l0 1518 l930 0 l0 -254 l-627 0 l0 -351 l531 0 l0 -254 l-531 0 l0 -405 l650 0 l0 -254 l-953 0 ZM580 1610 l-23 123 q46 10 78.5 26.5 q32.5 16.5 32.5 52.5 q0 36 -44.5 57 q-44.5 21 -144.5 27 l35 154 q198 -6 285.5 -60.5 q87.5 -54.5 87.5 -146.5 q0 -76 -43 -124.5 q-43 -48.5 -112.5 -74.5 q-69.5 -26 -151.5 -34 Z" /><glyph glyph-name="" unicode="&#x1ebb;" d="M662 -29 q-161 0 -290.5 72 q-129.5 72 -205.5 206.5 q-76 134.5 -76 323.5 q0 139 44.5 250.5 q44.5 111.5 120.5 190 q76 78.5 171.5 120.5 q95.5 42 198.5 42 q157 0 264 -71 q107 -71 161 -195 q54 -124 54 -283 q0 -89 -14 -140 l-707 0 q18 -139 104 -210.5 q86 -71.5 215 -71.5 q70 0 131.5 19.5 q61.5 19.5 124.5 58.5 l103 -185 q-85 -58 -189.5 -92.5 q-104.5 -34.5 -209.5 -34.5 ZM377 690 l469 0 q0 115 -52.5 183.5 q-52.5 68.5 -164.5 68.5 q-91 0 -162.5 -63.5 q-71.5 -63.5 -89.5 -188.5 ZM526 1323 l-24 123 q47 9 79.5 29 q32.5 20 32.5 61 q0 43 -44 68.5 q-44 25.5 -144 29.5 l18 189 q208 -6 300 -78 q92 -72 92 -189 q0 -75 -43 -124 q-43 -49 -113.5 -75 q-70.5 -26 -153.5 -34 Z" /><glyph glyph-name="" unicode="&#x1ebc;" d="M186 0 l0 1518 l930 0 l0 -254 l-627 0 l0 -351 l531 0 l0 -254 l-531 0 l0 -405 l650 0 l0 -254 l-953 0 ZM842 1620 q-63 0 -110 21.5 q-47 21.5 -83.5 49.5 q-36.5 28 -68.5 49 q-32 21 -64 21 q-35 0 -59.5 -28.5 q-24.5 -28.5 -32.5 -96.5 l-195 17 q8 163 84 241 q76 78 193 78 q63 0 110 -21 q47 -21 84 -49 q37 -28 69 -49.5 q32 -21.5 65 -21.5 q35 0 58.5 28.5 q23.5 28.5 33.5 96.5 l194 -14 q-7 -166 -84.5 -244 q-77.5 -78 -193.5 -78 Z" /><glyph glyph-name="" unicode="&#x1ebd;" d="M662 -29 q-161 0 -290.5 72 q-129.5 72 -205.5 206.5 q-76 134.5 -76 323.5 q0 139 44.5 250.5 q44.5 111.5 120.5 190 q76 78.5 171.5 120.5 q95.5 42 198.5 42 q157 0 264 -71 q107 -71 161 -195 q54 -124 54 -283 q0 -89 -14 -140 l-707 0 q18 -139 104 -210.5 q86 -71.5 215 -71.5 q70 0 131.5 19.5 q61.5 19.5 124.5 58.5 l103 -185 q-85 -58 -189.5 -92.5 q-104.5 -34.5 -209.5 -34.5 ZM377 690 l469 0 q0 115 -52.5 183.5 q-52.5 68.5 -164.5 68.5 q-91 0 -162.5 -63.5 q-71.5 -63.5 -89.5 -188.5 ZM778 1335 q-57 0 -101 24.5 q-44 24.5 -79.5 56 q-35.5 31.5 -66.5 55.5 q-31 24 -62 24 q-76 0 -88 -143 l-191 12 q4 167 73 254.5 q69 87.5 200 87.5 q57 0 101 -24 q44 -24 80 -56 q36 -32 67.5 -56 q31.5 -24 62.5 -24 q74 0 86 140 l191 -9 q-5 -167 -73.5 -254.5 q-68.5 -87.5 -199.5 -87.5 Z" /><glyph glyph-name="" unicode="&#x1ebe;" d="M186 0 l0 1518 l930 0 l0 -254 l-627 0 l0 -351 l531 0 l0 -254 l-531 0 l0 -405 l650 0 l0 -254 l-953 0 ZM455 1602 l-121 84 l211 223 l260 0 l209 -223 l-119 -84 l-217 163 l-10 0 l-213 -163 ZM1008 1767 l-93 103 l230 205 l104 -125 l-241 -183 Z" /><glyph glyph-name="" unicode="&#x1ebf;" d="M662 -29 q-161 0 -290.5 72 q-129.5 72 -205.5 206.5 q-76 134.5 -76 323.5 q0 139 44.5 250.5 q44.5 111.5 120.5 190 q76 78.5 171.5 120.5 q95.5 42 198.5 42 q157 0 264 -71 q107 -71 161 -195 q54 -124 54 -283 q0 -89 -14 -140 l-707 0 q18 -139 104 -210.5 q86 -71.5 215 -71.5 q70 0 131.5 19.5 q61.5 19.5 124.5 58.5 l103 -185 q-85 -58 -189.5 -92.5 q-104.5 -34.5 -209.5 -34.5 ZM377 690 l469 0 q0 115 -52.5 183.5 q-52.5 68.5 -164.5 68.5 q-91 0 -162.5 -63.5 q-71.5 -63.5 -89.5 -188.5 ZM377 1317 l-96 110 l219 213 l239 0 l222 -213 l-97 -110 l-239 156 l-11 0 l-237 -156 ZM1001 1483 l-116 90 l190 291 l164 -107 l-238 -274 Z" /><glyph glyph-name="" unicode="&#x1ec0;" d="M186 0 l0 1518 l930 0 l0 -254 l-627 0 l0 -351 l531 0 l0 -254 l-531 0 l0 -405 l650 0 l0 -254 l-953 0 ZM455 1602 l-121 84 l211 223 l260 0 l209 -223 l-119 -84 l-217 163 l-10 0 l-213 -163 ZM340 1767 l-229 185 l106 123 l217 -207 l-94 -101 Z" /><glyph glyph-name="" unicode="&#x1ec1;" d="M662 -29 q-161 0 -290.5 72 q-129.5 72 -205.5 206.5 q-76 134.5 -76 323.5 q0 139 44.5 250.5 q44.5 111.5 120.5 190 q76 78.5 171.5 120.5 q95.5 42 198.5 42 q157 0 264 -71 q107 -71 161 -195 q54 -124 54 -283 q0 -89 -14 -140 l-707 0 q18 -139 104 -210.5 q86 -71.5 215 -71.5 q70 0 131.5 19.5 q61.5 19.5 124.5 58.5 l103 -185 q-85 -58 -189.5 -92.5 q-104.5 -34.5 -209.5 -34.5 ZM377 690 l469 0 q0 115 -52.5 183.5 q-52.5 68.5 -164.5 68.5 q-91 0 -162.5 -63.5 q-71.5 -63.5 -89.5 -188.5 ZM377 1317 l-96 110 l219 213 l239 0 l222 -213 l-97 -110 l-239 156 l-11 0 l-237 -156 ZM238 1483 l-248 270 l162 111 l202 -287 l-116 -94 Z" /><glyph glyph-name="" unicode="&#x1ec2;" d="M186 0 l0 1518 l930 0 l0 -254 l-627 0 l0 -351 l531 0 l0 -254 l-531 0 l0 -405 l650 0 l0 -254 l-953 0 ZM455 1602 l-121 84 l211 223 l260 0 l209 -223 l-119 -84 l-217 163 l-10 0 l-213 -163 ZM979 1745 l-27 102 q36 8 59 22 q23 14 23 48 q0 35 -33 54 q-33 19 -120 24 l28 129 q175 -6 249.5 -55 q74.5 -49 74.5 -127 q0 -99 -75 -142.5 q-75 -43.5 -179 -54.5 Z" /><glyph glyph-name="" unicode="&#x1ec3;" d="M662 -29 q-161 0 -290.5 72 q-129.5 72 -205.5 206.5 q-76 134.5 -76 323.5 q0 139 44.5 250.5 q44.5 111.5 120.5 190 q76 78.5 171.5 120.5 q95.5 42 198.5 42 q157 0 264 -71 q107 -71 161 -195 q54 -124 54 -283 q0 -89 -14 -140 l-707 0 q18 -139 104 -210.5 q86 -71.5 215 -71.5 q70 0 131.5 19.5 q61.5 19.5 124.5 58.5 l103 -185 q-85 -58 -189.5 -92.5 q-104.5 -34.5 -209.5 -34.5 ZM377 690 l469 0 q0 115 -52.5 183.5 q-52.5 68.5 -164.5 68.5 q-91 0 -162.5 -63.5 q-71.5 -63.5 -89.5 -188.5 ZM377 1317 l-96 110 l219 213 l239 0 l222 -213 l-97 -110 l-239 156 l-11 0 l-237 -156 ZM926 1493 l-23 106 q35 8 57.5 24 q22.5 16 22.5 48 q0 37 -34 56.5 q-34 19.5 -120 25.5 l27 129 q175 -4 250.5 -51 q75.5 -47 75.5 -127 q0 -73 -35 -115.5 q-35 -42.5 -93.5 -64 q-58.5 -21.5 -127.5 -31.5 Z" /><glyph glyph-name="" unicode="&#x1ec4;" d="M186 0 l0 1518 l930 0 l0 -254 l-627 0 l0 -351 l531 0 l0 -254 l-531 0 l0 -405 l650 0 l0 -254 l-953 0 ZM455 1602 l-121 84 l211 208 l260 0 l209 -208 l-119 -84 l-217 147 l-10 0 l-213 -147 ZM817 1950 q-67 0 -113.5 26 q-46.5 26 -82.5 52 q-36 26 -72 26 q-63 0 -78 -94 l-147 18 q12 244 206 244 q67 0 113.5 -26 q46.5 -26 82.5 -52 q36 -26 71 -26 q68 0 80 94 l147 -19 q-12 -243 -207 -243 Z" /><glyph glyph-name="" unicode="&#x1ec5;" d="M662 -29 q-161 0 -290.5 72 q-129.5 72 -205.5 206.5 q-76 134.5 -76 323.5 q0 139 44.5 250.5 q44.5 111.5 120.5 190 q76 78.5 171.5 120.5 q95.5 42 198.5 42 q157 0 264 -71 q107 -71 161 -195 q54 -124 54 -283 q0 -89 -14 -140 l-707 0 q18 -139 104 -210.5 q86 -71.5 215 -71.5 q70 0 131.5 19.5 q61.5 19.5 124.5 58.5 l103 -185 q-85 -58 -189.5 -92.5 q-104.5 -34.5 -209.5 -34.5 ZM377 690 l469 0 q0 115 -52.5 183.5 q-52.5 68.5 -164.5 68.5 q-91 0 -162.5 -63.5 q-71.5 -63.5 -89.5 -188.5 ZM377 1317 l-96 110 l219 199 l239 0 l222 -199 l-97 -110 l-239 139 l-11 0 l-237 -139 ZM762 1661 q-66 0 -111 24 q-45 24 -80.5 48 q-35.5 24 -72.5 24 q-54 0 -74 -90 l-139 14 q21 244 196 244 q65 0 109.5 -24 q44.5 -24 80.5 -48 q36 -24 72 -24 q58 0 72 90 l141 -14 q-21 -244 -194 -244 Z" /><glyph glyph-name="" unicode="&#x1ec6;" d="M186 0 l0 1518 l930 0 l0 -254 l-627 0 l0 -351 l531 0 l0 -254 l-531 0 l0 -405 l650 0 l0 -254 l-953 0 ZM424 1602 l-129 84 l215 256 l328 0 l215 -256 l-129 -84 l-246 198 l-10 0 l-244 -198 ZM686 -514 q-77 0 -125.5 45.5 q-48.5 45.5 -48.5 120.5 q0 75 48.5 119.5 q48.5 44.5 125.5 44.5 q80 0 128 -44.5 q48 -44.5 48 -119.5 q0 -75 -48 -120.5 q-48 -45.5 -128 -45.5 Z" /><glyph glyph-name="" unicode="&#x1ec7;" d="M662 -29 q-161 0 -290.5 72 q-129.5 72 -205.5 206.5 q-76 134.5 -76 323.5 q0 139 44.5 250.5 q44.5 111.5 120.5 190 q76 78.5 171.5 120.5 q95.5 42 198.5 42 q157 0 264 -71 q107 -71 161 -195 q54 -124 54 -283 q0 -89 -14 -140 l-707 0 q18 -139 104 -210.5 q86 -71.5 215 -71.5 q70 0 131.5 19.5 q61.5 19.5 124.5 58.5 l103 -185 q-85 -58 -189.5 -92.5 q-104.5 -34.5 -209.5 -34.5 ZM377 690 l469 0 q0 115 -52.5 183.5 q-52.5 68.5 -164.5 68.5 q-91 0 -162.5 -63.5 q-71.5 -63.5 -89.5 -188.5 ZM211 1417 l256 309 l307 0 l254 -309 l-117 -108 l-286 225 l-11 0 l-284 -225 l-119 108 ZM621 -514 q-79 0 -128 45.5 q-49 45.5 -49 120.5 q0 75 49 119.5 q49 44.5 128 44.5 q78 0 126 -44.5 q48 -44.5 48 -119.5 q0 -75 -48 -120.5 q-48 -45.5 -126 -45.5 Z" /><glyph glyph-name="" unicode="&#x1ec8;" d="M186 0 l0 1518 l303 0 l0 -1518 l-303 0 ZM248 1610 l-25 123 q46 10 78.5 26.5 q32.5 16.5 32.5 52.5 q0 36 -44.5 57 q-44.5 21 -144.5 27 l35 154 q198 -6 285.5 -60.5 q87.5 -54.5 87.5 -146.5 q0 -76 -42 -124.5 q-42 -48.5 -111.5 -74.5 q-69.5 -26 -151.5 -34 Z" /><glyph glyph-name="" unicode="&#x1ec9;" d="M162 0 l0 1147 l301 0 l0 -1147 l-301 0 ZM219 1323 l-24 123 q46 9 78 29 q32 20 32 61 q0 43 -43 68.5 q-43 25.5 -143 29.5 l16 189 q208 -6 299.5 -78 q91.5 -72 91.5 -189 q0 -75 -42.5 -124 q-42.5 -49 -112.5 -75 q-70 -26 -152 -34 Z" /><glyph glyph-name="" unicode="&#x1eca;" d="M186 0 l0 1518 l303 0 l0 -1518 l-303 0 ZM340 -514 q-75 0 -124.5 45.5 q-49.5 45.5 -49.5 120.5 q0 75 49.5 119.5 q49.5 44.5 124.5 44.5 q78 0 127 -44.5 q49 -44.5 49 -119.5 q0 -75 -49 -120.5 q-49 -45.5 -127 -45.5 Z" /><glyph glyph-name="" unicode="&#x1ecb;" d="M162 0 l0 1147 l301 0 l0 -1147 l-301 0 ZM313 1333 q-80 0 -127 44.5 q-47 44.5 -47 119.5 q0 74 47 119 q47 45 127 45 q77 0 125.5 -45 q48.5 -45 48.5 -119 q0 -75 -48.5 -119.5 q-48.5 -44.5 -125.5 -44.5 ZM311 -514 q-78 0 -127 45.5 q-49 45.5 -49 120.5 q0 75 49 119.5 q49 44.5 127 44.5 q77 0 126.5 -44.5 q49.5 -44.5 49.5 -119.5 q0 -75 -49.5 -120.5 q-49.5 -45.5 -126.5 -45.5 Z" /><glyph glyph-name="" unicode="&#x1ecc;" d="M788 -29 q-200 0 -353 96 q-153 96 -238.5 274 q-85.5 178 -85.5 425 q0 246 85.5 420 q85.5 174 238.5 266 q153 92 353 92 q201 0 354 -92 q153 -92 238.5 -266 q85.5 -174 85.5 -420 q0 -247 -85.5 -425 q-85.5 -178 -238.5 -274 q-153 -96 -354 -96 ZM788 233 q113 0 196 66 q83 66 128 185.5 q45 119.5 45 281.5 q0 243 -100 380.5 q-100 137.5 -269 137.5 q-168 0 -267 -137.5 q-99 -137.5 -99 -380.5 q0 -243 99 -388 q99 -145 267 -145 ZM788 -514 q-76 0 -125 45.5 q-49 45.5 -49 120.5 q0 75 49 119.5 q49 44.5 125 44.5 q79 0 127 -44.5 q48 -44.5 48 -119.5 q0 -75 -48 -120.5 q-48 -45.5 -127 -45.5 Z" /><glyph glyph-name="" unicode="&#x1ecd;" d="M641 -29 q-144 0 -270 71.5 q-126 71.5 -203.5 206 q-77.5 134.5 -77.5 324.5 q0 191 77.5 325.5 q77.5 134.5 203.5 206 q126 71.5 270 71.5 q143 0 269 -71.5 q126 -71.5 204 -206 q78 -134.5 78 -325.5 q0 -190 -78 -324.5 q-78 -134.5 -204 -206 q-126 -71.5 -269 -71.5 ZM641 217 q117 0 180.5 97 q63.5 97 63.5 259 q0 162 -63.5 259.5 q-63.5 97.5 -180.5 97.5 q-118 0 -181 -97.5 q-63 -97.5 -63 -259.5 q0 -162 63 -259 q63 -97 181 -97 ZM641 -514 q-77 0 -126.5 45.5 q-49.5 45.5 -49.5 120.5 q0 75 49.5 119.5 q49.5 44.5 126.5 44.5 q77 0 126.5 -44.5 q49.5 -44.5 49.5 -119.5 q0 -75 -49.5 -120.5 q-49.5 -45.5 -126.5 -45.5 Z" /><glyph glyph-name="" unicode="&#x1ece;" d="M788 -29 q-200 0 -353 96 q-153 96 -238.5 274 q-85.5 178 -85.5 425 q0 246 85.5 420 q85.5 174 238.5 266 q153 92 353 92 q201 0 354 -92 q153 -92 238.5 -266 q85.5 -174 85.5 -420 q0 -247 -85.5 -425 q-85.5 -178 -238.5 -274 q-153 -96 -354 -96 ZM788 233 q113 0 196 66 q83 66 128 185.5 q45 119.5 45 281.5 q0 243 -100 380.5 q-100 137.5 -269 137.5 q-168 0 -267 -137.5 q-99 -137.5 -99 -380.5 q0 -243 99 -388 q99 -145 267 -145 ZM696 1610 l-26 123 q46 10 79 26.5 q33 16.5 33 52.5 q0 36 -44 57 q-44 21 -144 27 l35 154 q198 -6 284 -60.5 q86 -54.5 86 -146.5 q0 -76 -42 -124.5 q-42 -48.5 -111 -74.5 q-69 -26 -150 -34 Z" /><glyph glyph-name="" unicode="&#x1ecf;" d="M641 -29 q-144 0 -270 71.5 q-126 71.5 -203.5 206 q-77.5 134.5 -77.5 324.5 q0 191 77.5 325.5 q77.5 134.5 203.5 206 q126 71.5 270 71.5 q143 0 269 -71.5 q126 -71.5 204 -206 q78 -134.5 78 -325.5 q0 -190 -78 -324.5 q-78 -134.5 -204 -206 q-126 -71.5 -269 -71.5 ZM641 217 q117 0 180.5 97 q63.5 97 63.5 259 q0 162 -63.5 259.5 q-63.5 97.5 -180.5 97.5 q-118 0 -181 -97.5 q-63 -97.5 -63 -259.5 q0 -162 63 -259 q63 -97 181 -97 ZM547 1323 l-25 123 q46 9 78.5 29 q32.5 20 32.5 61 q0 43 -43.5 68.5 q-43.5 25.5 -143.5 29.5 l19 189 q209 -6 300 -78 q91 -72 91 -189 q0 -75 -42.5 -124 q-42.5 -49 -113 -75 q-70.5 -26 -153.5 -34 Z" /><glyph glyph-name="" unicode="&#x1ed0;" d="M788 -29 q-200 0 -353 96 q-153 96 -238.5 274 q-85.5 178 -85.5 425 q0 246 85.5 420 q85.5 174 238.5 266 q153 92 353 92 q201 0 354 -92 q153 -92 238.5 -266 q85.5 -174 85.5 -420 q0 -247 -85.5 -425 q-85.5 -178 -238.5 -274 q-153 -96 -354 -96 ZM788 233 q113 0 196 66 q83 66 128 185.5 q45 119.5 45 281.5 q0 243 -100 380.5 q-100 137.5 -269 137.5 q-168 0 -267 -137.5 q-99 -137.5 -99 -380.5 q0 -243 99 -388 q99 -145 267 -145 ZM569 1602 l-120 84 l210 223 l261 0 l208 -223 l-118 -84 l-217 163 l-9 0 l-215 -163 ZM1122 1767 l-94 103 l232 205 l104 -125 l-242 -183 Z" /><glyph glyph-name="" unicode="&#x1ed1;" d="M641 -29 q-144 0 -270 71.5 q-126 71.5 -203.5 206 q-77.5 134.5 -77.5 324.5 q0 191 77.5 325.5 q77.5 134.5 203.5 206 q126 71.5 270 71.5 q143 0 269 -71.5 q126 -71.5 204 -206 q78 -134.5 78 -325.5 q0 -190 -78 -324.5 q-78 -134.5 -204 -206 q-126 -71.5 -269 -71.5 ZM641 217 q117 0 180.5 97 q63.5 97 63.5 259 q0 162 -63.5 259.5 q-63.5 97.5 -180.5 97.5 q-118 0 -181 -97.5 q-63 -97.5 -63 -259.5 q0 -162 63 -259 q63 -97 181 -97 ZM397 1317 l-96 110 l219 213 l240 0 l223 -213 l-98 -110 l-240 156 l-10 0 l-238 -156 ZM1022 1483 l-117 90 l191 291 l161 -107 l-235 -274 Z" /><glyph glyph-name="" unicode="&#x1ed2;" d="M788 -29 q-200 0 -353 96 q-153 96 -238.5 274 q-85.5 178 -85.5 425 q0 246 85.5 420 q85.5 174 238.5 266 q153 92 353 92 q201 0 354 -92 q153 -92 238.5 -266 q85.5 -174 85.5 -420 q0 -247 -85.5 -425 q-85.5 -178 -238.5 -274 q-153 -96 -354 -96 ZM788 233 q113 0 196 66 q83 66 128 185.5 q45 119.5 45 281.5 q0 243 -100 380.5 q-100 137.5 -269 137.5 q-168 0 -267 -137.5 q-99 -137.5 -99 -380.5 q0 -243 99 -388 q99 -145 267 -145 ZM569 1602 l-120 84 l210 223 l261 0 l208 -223 l-118 -84 l-217 163 l-9 0 l-215 -163 ZM455 1767 l-228 185 l105 123 l217 -207 l-94 -101 Z" /><glyph glyph-name="" unicode="&#x1ed3;" d="M641 -29 q-144 0 -270 71.5 q-126 71.5 -203.5 206 q-77.5 134.5 -77.5 324.5 q0 191 77.5 325.5 q77.5 134.5 203.5 206 q126 71.5 270 71.5 q143 0 269 -71.5 q126 -71.5 204 -206 q78 -134.5 78 -325.5 q0 -190 -78 -324.5 q-78 -134.5 -204 -206 q-126 -71.5 -269 -71.5 ZM641 217 q117 0 180.5 97 q63.5 97 63.5 259 q0 162 -63.5 259.5 q-63.5 97.5 -180.5 97.5 q-118 0 -181 -97.5 q-63 -97.5 -63 -259.5 q0 -162 63 -259 q63 -97 181 -97 ZM397 1317 l-96 110 l219 213 l240 0 l223 -213 l-98 -110 l-240 156 l-10 0 l-238 -156 ZM260 1483 l-250 270 l162 111 l203 -287 l-115 -94 Z" /><glyph glyph-name="" unicode="&#x1ed4;" d="M788 -29 q-200 0 -353 96 q-153 96 -238.5 274 q-85.5 178 -85.5 425 q0 246 85.5 420 q85.5 174 238.5 266 q153 92 353 92 q201 0 354 -92 q153 -92 238.5 -266 q85.5 -174 85.5 -420 q0 -247 -85.5 -425 q-85.5 -178 -238.5 -274 q-153 -96 -354 -96 ZM788 233 q113 0 196 66 q83 66 128 185.5 q45 119.5 45 281.5 q0 243 -100 380.5 q-100 137.5 -269 137.5 q-168 0 -267 -137.5 q-99 -137.5 -99 -380.5 q0 -243 99 -388 q99 -145 267 -145 ZM569 1602 l-120 84 l210 223 l261 0 l208 -223 l-118 -84 l-217 163 l-9 0 l-215 -163 ZM1094 1745 l-27 102 q35 8 58.5 22 q23.5 14 23.5 48 q0 35 -34 54 q-34 19 -120 24 l29 129 q175 -6 248.5 -55 q73.5 -49 73.5 -127 q0 -99 -74.5 -142.5 q-74.5 -43.5 -177.5 -54.5 Z" /><glyph glyph-name="" unicode="&#x1ed5;" d="M641 -29 q-144 0 -270 71.5 q-126 71.5 -203.5 206 q-77.5 134.5 -77.5 324.5 q0 191 77.5 325.5 q77.5 134.5 203.5 206 q126 71.5 270 71.5 q143 0 269 -71.5 q126 -71.5 204 -206 q78 -134.5 78 -325.5 q0 -190 -78 -324.5 q-78 -134.5 -204 -206 q-126 -71.5 -269 -71.5 ZM641 217 q117 0 180.5 97 q63.5 97 63.5 259 q0 162 -63.5 259.5 q-63.5 97.5 -180.5 97.5 q-118 0 -181 -97.5 q-63 -97.5 -63 -259.5 q0 -162 63 -259 q63 -97 181 -97 ZM397 1317 l-96 110 l219 213 l240 0 l223 -213 l-98 -110 l-240 156 l-10 0 l-238 -156 ZM946 1493 l-20 106 q33 8 55.5 24 q22.5 16 22.5 48 q0 37 -34 56.5 q-34 19.5 -120 25.5 l27 129 q175 -4 251 -51 q76 -47 76 -127 q0 -73 -36 -115.5 q-36 -42.5 -94.5 -64 q-58.5 -21.5 -127.5 -31.5 Z" /><glyph glyph-name="" unicode="&#x1ed6;" d="M788 -29 q-200 0 -353 96 q-153 96 -238.5 274 q-85.5 178 -85.5 425 q0 246 85.5 420 q85.5 174 238.5 266 q153 92 353 92 q201 0 354 -92 q153 -92 238.5 -266 q85.5 -174 85.5 -420 q0 -247 -85.5 -425 q-85.5 -178 -238.5 -274 q-153 -96 -354 -96 ZM788 233 q113 0 196 66 q83 66 128 185.5 q45 119.5 45 281.5 q0 243 -100 380.5 q-100 137.5 -269 137.5 q-168 0 -267 -137.5 q-99 -137.5 -99 -380.5 q0 -243 99 -388 q99 -145 267 -145 ZM569 1602 l-120 84 l210 208 l261 0 l208 -208 l-118 -84 l-217 147 l-9 0 l-215 -147 ZM932 1950 q-67 0 -113.5 26 q-46.5 26 -83 52 q-36.5 26 -71.5 26 q-66 0 -78 -94 l-148 18 q13 244 207 244 q67 0 113.5 -26 q46.5 -26 83 -52 q36.5 -26 71.5 -26 q66 0 78 94 l148 -19 q-13 -243 -207 -243 Z" /><glyph glyph-name="" unicode="&#x1ed7;" d="M641 -29 q-144 0 -270 71.5 q-126 71.5 -203.5 206 q-77.5 134.5 -77.5 324.5 q0 191 77.5 325.5 q77.5 134.5 203.5 206 q126 71.5 270 71.5 q143 0 269 -71.5 q126 -71.5 204 -206 q78 -134.5 78 -325.5 q0 -190 -78 -324.5 q-78 -134.5 -204 -206 q-126 -71.5 -269 -71.5 ZM641 217 q117 0 180.5 97 q63.5 97 63.5 259 q0 162 -63.5 259.5 q-63.5 97.5 -180.5 97.5 q-118 0 -181 -97.5 q-63 -97.5 -63 -259.5 q0 -162 63 -259 q63 -97 181 -97 ZM397 1317 l-96 110 l219 199 l240 0 l223 -199 l-98 -110 l-240 139 l-10 0 l-238 -139 ZM780 1661 q-64 0 -109 24 q-45 24 -80.5 48 q-35.5 24 -72.5 24 q-31 0 -47 -21 q-16 -21 -27 -69 l-139 14 q25 244 197 244 q65 0 110 -24 q45 -24 80 -48 q35 -24 72 -24 q56 0 74 90 l139 -14 q-25 -244 -197 -244 Z" /><glyph glyph-name="" unicode="&#x1ed8;" d="M788 -29 q-200 0 -353 96 q-153 96 -238.5 274 q-85.5 178 -85.5 425 q0 246 85.5 420 q85.5 174 238.5 266 q153 92 353 92 q201 0 354 -92 q153 -92 238.5 -266 q85.5 -174 85.5 -420 q0 -247 -85.5 -425 q-85.5 -178 -238.5 -274 q-153 -96 -354 -96 ZM788 233 q113 0 196 66 q83 66 128 185.5 q45 119.5 45 281.5 q0 243 -100 380.5 q-100 137.5 -269 137.5 q-168 0 -267 -137.5 q-99 -137.5 -99 -380.5 q0 -243 99 -388 q99 -145 267 -145 ZM539 1602 l-131 84 l219 256 l323 0 l219 -256 l-129 -84 l-247 198 l-9 0 l-245 -198 ZM788 -514 q-76 0 -125 45.5 q-49 45.5 -49 120.5 q0 75 49 119.5 q49 44.5 125 44.5 q79 0 127 -44.5 q48 -44.5 48 -119.5 q0 -75 -48 -120.5 q-48 -45.5 -127 -45.5 Z" /><glyph glyph-name="" unicode="&#x1ed9;" d="M641 -29 q-144 0 -270 71.5 q-126 71.5 -203.5 206 q-77.5 134.5 -77.5 324.5 q0 191 77.5 325.5 q77.5 134.5 203.5 206 q126 71.5 270 71.5 q143 0 269 -71.5 q126 -71.5 204 -206 q78 -134.5 78 -325.5 q0 -190 -78 -324.5 q-78 -134.5 -204 -206 q-126 -71.5 -269 -71.5 ZM641 217 q117 0 180.5 97 q63.5 97 63.5 259 q0 162 -63.5 259.5 q-63.5 97.5 -180.5 97.5 q-118 0 -181 -97.5 q-63 -97.5 -63 -259.5 q0 -162 63 -259 q63 -97 181 -97 ZM233 1417 l256 309 l304 0 l256 -309 l-115 -108 l-289 225 l-10 0 l-285 -225 l-117 108 ZM641 -514 q-77 0 -126.5 45.5 q-49.5 45.5 -49.5 120.5 q0 75 49.5 119.5 q49.5 44.5 126.5 44.5 q77 0 126.5 -44.5 q49.5 -44.5 49.5 -119.5 q0 -75 -49.5 -120.5 q-49.5 -45.5 -126.5 -45.5 Z" /><glyph glyph-name="" unicode="&#x1eda;" d="M793 233 q111 0 193.5 66 q82.5 66 127.5 185.5 q45 119.5 45 281.5 q0 243 -99.5 380.5 q-99.5 137.5 -266.5 137.5 q-169 0 -270 -137.5 q-101 -137.5 -101 -380.5 q0 -162 45.5 -281.5 q45.5 -119.5 129 -185.5 q83.5 -66 196.5 -66 ZM764 1591 l-135 152 l381 317 l159 -196 l-405 -273 ZM793 -29 q-201 0 -354 96 q-153 96 -238.5 274 q-85.5 178 -85.5 425 q0 246 85.5 420 q85.5 174 238.5 266 q153 92 354 92 q175 0 315 -71 q77 19 115.5 58 q38.5 39 38.5 118 q0 41 -10.5 79 q-10.5 38 -24.5 66 l225 92 q25 -38 44.5 -95.5 q19.5 -57.5 19.5 -123.5 q0 -120 -67 -191 q-67 -71 -196 -108 q102 -100 158.5 -252 q56.5 -152 56.5 -350 q0 -247 -85.5 -425 q-85.5 -178 -238 -274 q-152.5 -96 -351.5 -96 Z" /><glyph glyph-name="" unicode="&#x1edb;" d="M641 217 q117 0 180.5 97 q63.5 97 63.5 259 q0 162 -63.5 259.5 q-63.5 97.5 -180.5 97.5 q-118 0 -181 -97.5 q-63 -97.5 -63 -259.5 q0 -162 63 -259 q63 -97 181 -97 ZM657 1331 l-151 146 l352 415 l203 -198 l-404 -363 ZM641 -29 q-144 0 -270 71.5 q-126 71.5 -203.5 206 q-77.5 134.5 -77.5 324.5 q0 191 77.5 325.5 q77.5 134.5 203.5 206 q126 71.5 270 71.5 q116 0 223 -48 q77 17 122.5 66.5 q45.5 49.5 45.5 144.5 q0 39 -9.5 72 q-9.5 33 -25.5 59 l224 99 q26 -37 45.5 -93 q19.5 -56 19.5 -114 q0 -140 -80 -220.5 q-80 -80.5 -190 -115.5 q80 -77 128 -191 q48 -114 48 -262 q0 -190 -78 -324.5 q-78 -134.5 -204 -206 q-126 -71.5 -269 -71.5 Z" /><glyph glyph-name="" unicode="&#x1edc;" d="M793 233 q111 0 193.5 66 q82.5 66 127.5 185.5 q45 119.5 45 281.5 q0 243 -99.5 380.5 q-99.5 137.5 -266.5 137.5 q-169 0 -270 -137.5 q-101 -137.5 -101 -380.5 q0 -162 45.5 -281.5 q45.5 -119.5 129 -185.5 q83.5 -66 196.5 -66 ZM819 1591 l-405 273 l159 196 l381 -317 l-135 -152 ZM793 -29 q-201 0 -354 96 q-153 96 -238.5 274 q-85.5 178 -85.5 425 q0 246 85.5 420 q85.5 174 238.5 266 q153 92 354 92 q175 0 315 -71 q77 19 115.5 58 q38.5 39 38.5 118 q0 41 -10.5 79 q-10.5 38 -24.5 66 l225 92 q25 -38 44.5 -95.5 q19.5 -57.5 19.5 -123.5 q0 -120 -67 -191 q-67 -71 -196 -108 q102 -100 158.5 -252 q56.5 -152 56.5 -350 q0 -247 -85.5 -425 q-85.5 -178 -238 -274 q-152.5 -96 -351.5 -96 Z" /><glyph glyph-name="" unicode="&#x1edd;" d="M641 217 q117 0 180.5 97 q63.5 97 63.5 259 q0 162 -63.5 259.5 q-63.5 97.5 -180.5 97.5 q-118 0 -181 -97.5 q-63 -97.5 -63 -259.5 q0 -162 63 -259 q63 -97 181 -97 ZM639 1331 l-406 363 l205 198 l350 -415 l-149 -146 ZM641 -29 q-144 0 -270 71.5 q-126 71.5 -203.5 206 q-77.5 134.5 -77.5 324.5 q0 191 77.5 325.5 q77.5 134.5 203.5 206 q126 71.5 270 71.5 q116 0 223 -48 q77 17 122.5 66.5 q45.5 49.5 45.5 144.5 q0 39 -9.5 72 q-9.5 33 -25.5 59 l224 99 q26 -37 45.5 -93 q19.5 -56 19.5 -114 q0 -140 -80 -220.5 q-80 -80.5 -190 -115.5 q80 -77 128 -191 q48 -114 48 -262 q0 -190 -78 -324.5 q-78 -134.5 -204 -206 q-126 -71.5 -269 -71.5 Z" /><glyph glyph-name="" unicode="&#x1ede;" d="M793 233 q111 0 193.5 66 q82.5 66 127.5 185.5 q45 119.5 45 281.5 q0 243 -99.5 380.5 q-99.5 137.5 -266.5 137.5 q-169 0 -270 -137.5 q-101 -137.5 -101 -380.5 q0 -162 45.5 -281.5 q45.5 -119.5 129 -185.5 q83.5 -66 196.5 -66 ZM698 1610 l-24 123 q46 10 78 26.5 q32 16.5 32 52.5 q0 36 -44 57 q-44 21 -142 27 l33 154 q199 -6 284.5 -60.5 q85.5 -54.5 85.5 -146.5 q0 -76 -41.5 -124.5 q-41.5 -48.5 -110.5 -74.5 q-69 -26 -151 -34 ZM793 -29 q-201 0 -354 96 q-153 96 -238.5 274 q-85.5 178 -85.5 425 q0 246 85.5 420 q85.5 174 238.5 266 q153 92 354 92 q175 0 315 -71 q77 19 115.5 58 q38.5 39 38.5 118 q0 41 -10.5 79 q-10.5 38 -24.5 66 l225 92 q25 -38 44.5 -95.5 q19.5 -57.5 19.5 -123.5 q0 -120 -67 -191 q-67 -71 -196 -108 q102 -100 158.5 -252 q56.5 -152 56.5 -350 q0 -247 -85.5 -425 q-85.5 -178 -238 -274 q-152.5 -96 -351.5 -96 Z" /><glyph glyph-name="" unicode="&#x1edf;" d="M641 217 q117 0 180.5 97 q63.5 97 63.5 259 q0 162 -63.5 259.5 q-63.5 97.5 -180.5 97.5 q-118 0 -181 -97.5 q-63 -97.5 -63 -259.5 q0 -162 63 -259 q63 -97 181 -97 ZM553 1323 l-25 123 q48 9 79.5 29 q31.5 20 31.5 61 q0 43 -43 68.5 q-43 25.5 -141 29.5 l16 189 q207 -6 299 -78 q92 -72 92 -189 q0 -75 -42.5 -124 q-42.5 -49 -113 -75 q-70.5 -26 -153.5 -34 ZM641 -29 q-144 0 -270 71.5 q-126 71.5 -203.5 206 q-77.5 134.5 -77.5 324.5 q0 191 77.5 325.5 q77.5 134.5 203.5 206 q126 71.5 270 71.5 q116 0 223 -48 q77 17 122.5 66.5 q45.5 49.5 45.5 144.5 q0 39 -9.5 72 q-9.5 33 -25.5 59 l224 99 q26 -37 45.5 -93 q19.5 -56 19.5 -114 q0 -140 -80 -220.5 q-80 -80.5 -190 -115.5 q80 -77 128 -191 q48 -114 48 -262 q0 -190 -78 -324.5 q-78 -134.5 -204 -206 q-126 -71.5 -269 -71.5 Z" /><glyph glyph-name="" unicode="&#x1ee0;" d="M793 233 q111 0 193.5 66 q82.5 66 127.5 185.5 q45 119.5 45 281.5 q0 243 -99.5 380.5 q-99.5 137.5 -266.5 137.5 q-169 0 -270 -137.5 q-101 -137.5 -101 -380.5 q0 -162 45.5 -281.5 q45.5 -119.5 129 -185.5 q83.5 -66 196.5 -66 ZM926 1620 q-63 0 -110 21.5 q-47 21.5 -83.5 49.5 q-36.5 28 -68 49 q-31.5 21 -64.5 21 q-35 0 -59.5 -28.5 q-24.5 -28.5 -30.5 -96.5 l-197 17 q8 163 85 241 q77 78 192 78 q63 0 110 -21 q47 -21 84.5 -49 q37.5 -28 70 -49.5 q32.5 -21.5 65.5 -21.5 q35 0 58.5 28.5 q23.5 28.5 31.5 96.5 l196 -14 q-7 -166 -85.5 -244 q-78.5 -78 -194.5 -78 ZM793 -29 q-201 0 -354 96 q-153 96 -238.5 274 q-85.5 178 -85.5 425 q0 246 85.5 420 q85.5 174 238.5 266 q153 92 354 92 q175 0 315 -71 q77 19 115.5 58 q38.5 39 38.5 118 q0 41 -10.5 79 q-10.5 38 -24.5 66 l225 92 q25 -38 44.5 -95.5 q19.5 -57.5 19.5 -123.5 q0 -120 -67 -191 q-67 -71 -196 -108 q102 -100 158.5 -252 q56.5 -152 56.5 -350 q0 -247 -85.5 -425 q-85.5 -178 -238 -274 q-152.5 -96 -351.5 -96 Z" /><glyph glyph-name="" unicode="&#x1ee1;" d="M641 217 q117 0 180.5 97 q63.5 97 63.5 259 q0 162 -63.5 259.5 q-63.5 97.5 -180.5 97.5 q-118 0 -181 -97.5 q-63 -97.5 -63 -259.5 q0 -162 63 -259 q63 -97 181 -97 ZM733 1335 q-57 0 -101 24.5 q-44 24.5 -79.5 56 q-35.5 31.5 -66.5 55.5 q-31 24 -62 24 q-79 0 -88 -143 l-189 12 q4 167 72 254.5 q68 87.5 199 87.5 q57 0 101 -24 q44 -24 80 -56 q36 -32 67.5 -56 q31.5 -24 62.5 -24 q77 0 86 140 l191 -9 q-5 -167 -73 -254.5 q-68 -87.5 -200 -87.5 ZM641 -29 q-144 0 -270 71.5 q-126 71.5 -203.5 206 q-77.5 134.5 -77.5 324.5 q0 191 77.5 325.5 q77.5 134.5 203.5 206 q126 71.5 270 71.5 q116 0 223 -48 q77 17 122.5 66.5 q45.5 49.5 45.5 144.5 q0 39 -9.5 72 q-9.5 33 -25.5 59 l224 99 q26 -37 45.5 -93 q19.5 -56 19.5 -114 q0 -140 -80 -220.5 q-80 -80.5 -190 -115.5 q80 -77 128 -191 q48 -114 48 -262 q0 -190 -78 -324.5 q-78 -134.5 -204 -206 q-126 -71.5 -269 -71.5 Z" /><glyph glyph-name="" unicode="&#x1ee2;" d="M793 233 q111 0 193.5 66 q82.5 66 127.5 185.5 q45 119.5 45 281.5 q0 243 -99.5 380.5 q-99.5 137.5 -266.5 137.5 q-169 0 -270 -137.5 q-101 -137.5 -101 -380.5 q0 -162 45.5 -281.5 q45.5 -119.5 129 -185.5 q83.5 -66 196.5 -66 ZM788 -514 q-78 0 -127 45.5 q-49 45.5 -49 120.5 q0 75 49 119.5 q49 44.5 127 44.5 q76 0 125.5 -44.5 q49.5 -44.5 49.5 -119.5 q0 -75 -49.5 -120.5 q-49.5 -45.5 -125.5 -45.5 ZM793 -29 q-201 0 -354 96 q-153 96 -238.5 274 q-85.5 178 -85.5 425 q0 246 85.5 420 q85.5 174 238.5 266 q153 92 354 92 q175 0 315 -71 q77 19 115.5 58 q38.5 39 38.5 118 q0 41 -10.5 79 q-10.5 38 -24.5 66 l225 92 q25 -38 44.5 -95.5 q19.5 -57.5 19.5 -123.5 q0 -120 -67 -191 q-67 -71 -196 -108 q102 -100 158.5 -252 q56.5 -152 56.5 -350 q0 -247 -85.5 -425 q-85.5 -178 -238 -274 q-152.5 -96 -351.5 -96 Z" /><glyph glyph-name="" unicode="&#x1ee3;" d="M641 217 q117 0 180.5 97 q63.5 97 63.5 259 q0 162 -63.5 259.5 q-63.5 97.5 -180.5 97.5 q-118 0 -181 -97.5 q-63 -97.5 -63 -259.5 q0 -162 63 -259 q63 -97 181 -97 ZM649 -514 q-80 0 -128 45.5 q-48 45.5 -48 120.5 q0 75 48 119.5 q48 44.5 128 44.5 q77 0 125.5 -44.5 q48.5 -44.5 48.5 -119.5 q0 -75 -48.5 -120.5 q-48.5 -45.5 -125.5 -45.5 ZM641 -29 q-144 0 -270 71.5 q-126 71.5 -203.5 206 q-77.5 134.5 -77.5 324.5 q0 191 77.5 325.5 q77.5 134.5 203.5 206 q126 71.5 270 71.5 q116 0 223 -48 q77 17 122.5 66.5 q45.5 49.5 45.5 144.5 q0 39 -9.5 72 q-9.5 33 -25.5 59 l224 99 q26 -37 45.5 -93 q19.5 -56 19.5 -114 q0 -140 -80 -220.5 q-80 -80.5 -190 -115.5 q80 -77 128 -191 q48 -114 48 -262 q0 -190 -78 -324.5 q-78 -134.5 -204 -206 q-126 -71.5 -269 -71.5 Z" /><glyph glyph-name="" unicode="&#x1ee4;" d="M770 -29 q-280 0 -435 167.5 q-155 167.5 -155 543.5 l0 836 l301 0 l0 -863 q0 -157 35 -249.5 q35 -92.5 100 -132.5 q65 -40 154 -40 q88 0 154 40 q66 40 102.5 132.5 q36.5 92.5 36.5 249.5 l0 863 l291 0 l0 -836 q0 -376 -153.5 -543.5 q-153.5 -167.5 -430.5 -167.5 ZM764 -514 q-77 0 -125.5 45.5 q-48.5 45.5 -48.5 120.5 q0 75 48.5 119.5 q48.5 44.5 125.5 44.5 q78 0 127 -44.5 q49 -44.5 49 -119.5 q0 -75 -49 -120.5 q-49 -45.5 -127 -45.5 Z" /><glyph glyph-name="" unicode="&#x1ee5;" d="M504 -29 q-186 0 -270 122.5 q-84 122.5 -84 338.5 l0 715 l299 0 l0 -678 q0 -134 39.5 -187 q39.5 -53 123.5 -53 q69 0 121 33.5 q52 33.5 111 110.5 l0 774 l301 0 l0 -1147 l-246 0 l-22 166 l-9 0 q-73 -88 -159.5 -141.5 q-86.5 -53.5 -204.5 -53.5 ZM643 -514 q-77 0 -125.5 45.5 q-48.5 45.5 -48.5 120.5 q0 75 48.5 119.5 q48.5 44.5 125.5 44.5 q78 0 126 -44.5 q48 -44.5 48 -119.5 q0 -75 -48 -120.5 q-48 -45.5 -126 -45.5 Z" /><glyph glyph-name="" unicode="&#x1ee6;" d="M770 -29 q-280 0 -435 167.5 q-155 167.5 -155 543.5 l0 836 l301 0 l0 -863 q0 -157 35 -249.5 q35 -92.5 100 -132.5 q65 -40 154 -40 q88 0 154 40 q66 40 102.5 132.5 q36.5 92.5 36.5 249.5 l0 863 l291 0 l0 -836 q0 -376 -153.5 -543.5 q-153.5 -167.5 -430.5 -167.5 ZM672 1610 l-27 123 q48 10 80.5 26.5 q32.5 16.5 32.5 52.5 q0 36 -44 57 q-44 21 -143 27 l35 154 q197 -6 285 -60.5 q88 -54.5 88 -146.5 q0 -76 -42.5 -124.5 q-42.5 -48.5 -112.5 -74.5 q-70 -26 -152 -34 Z" /><glyph glyph-name="" unicode="&#x1ee7;" d="M504 -29 q-186 0 -270 122.5 q-84 122.5 -84 338.5 l0 715 l299 0 l0 -678 q0 -134 39.5 -187 q39.5 -53 123.5 -53 q69 0 121 33.5 q52 33.5 111 110.5 l0 774 l301 0 l0 -1147 l-246 0 l-22 166 l-9 0 q-73 -88 -159.5 -141.5 q-86.5 -53.5 -204.5 -53.5 ZM559 1323 l-22 123 q46 9 78 29 q32 20 32 61 q0 43 -45 68.5 q-45 25.5 -143 29.5 l16 189 q209 -6 301 -78 q92 -72 92 -189 q0 -75 -43 -124 q-43 -49 -113.5 -75 q-70.5 -26 -152.5 -34 Z" /><glyph glyph-name="" unicode="&#x1ee8;" d="M739 1591 l-133 152 l377 317 l162 -196 l-406 -273 ZM770 -29 q-280 0 -435 167.5 q-155 167.5 -155 543.5 l0 836 l301 0 l0 -863 q0 -157 35 -249.5 q35 -92.5 100 -132.5 q65 -40 154 -40 q88 0 154 40 q66 40 102.5 132.5 q36.5 92.5 36.5 249.5 l0 863 l135 0 q52 4 97.5 18.5 q45.5 14.5 73.5 51 q28 36.5 28 106.5 q0 41 -10.5 80 q-10.5 39 -24.5 65 l225 94 q25 -38 45.5 -96 q20.5 -58 20.5 -123 q0 -140 -82 -211.5 q-82 -71.5 -217 -99.5 l0 -721 q0 -376 -153.5 -543.5 q-153.5 -167.5 -430.5 -167.5 Z" /><glyph glyph-name="" unicode="&#x1ee9;" d="M655 1331 l-149 146 l348 415 l207 -198 l-406 -363 ZM504 -29 q-186 0 -270 122.5 q-84 122.5 -84 338.5 l0 715 l299 0 l0 -678 q0 -134 39.5 -187 q39.5 -53 123.5 -53 q69 0 121 33.5 q52 33.5 111 110.5 l0 774 l92 0 q46 4 90 21.5 q44 17.5 72 63 q28 45.5 28 132.5 q0 37 -11.5 70 q-11.5 33 -24.5 59 l225 98 q26 -37 44.5 -92.5 q18.5 -55.5 18.5 -114.5 q0 -138 -68 -219.5 q-68 -81.5 -165 -113.5 l0 -1051 l-246 0 l-22 166 l-9 0 q-73 -88 -159.5 -141.5 q-86.5 -53.5 -204.5 -53.5 Z" /><glyph glyph-name="" unicode="&#x1eea;" d="M795 1591 l-406 273 l162 196 l377 -317 l-133 -152 ZM770 -29 q-280 0 -435 167.5 q-155 167.5 -155 543.5 l0 836 l301 0 l0 -863 q0 -157 35 -249.5 q35 -92.5 100 -132.5 q65 -40 154 -40 q88 0 154 40 q66 40 102.5 132.5 q36.5 92.5 36.5 249.5 l0 863 l135 0 q52 4 97.5 18.5 q45.5 14.5 73.5 51 q28 36.5 28 106.5 q0 41 -10.5 80 q-10.5 39 -24.5 65 l225 94 q25 -38 45.5 -96 q20.5 -58 20.5 -123 q0 -140 -82 -211.5 q-82 -71.5 -217 -99.5 l0 -721 q0 -376 -153.5 -543.5 q-153.5 -167.5 -430.5 -167.5 Z" /><glyph glyph-name="" unicode="&#x1eeb;" d="M637 1331 l-406 363 l207 198 l350 -415 l-151 -146 ZM504 -29 q-186 0 -270 122.5 q-84 122.5 -84 338.5 l0 715 l299 0 l0 -678 q0 -134 39.5 -187 q39.5 -53 123.5 -53 q69 0 121 33.5 q52 33.5 111 110.5 l0 774 l92 0 q46 4 90 21.5 q44 17.5 72 63 q28 45.5 28 132.5 q0 37 -11.5 70 q-11.5 33 -24.5 59 l225 98 q26 -37 44.5 -92.5 q18.5 -55.5 18.5 -114.5 q0 -138 -68 -219.5 q-68 -81.5 -165 -113.5 l0 -1051 l-246 0 l-22 166 l-9 0 q-73 -88 -159.5 -141.5 q-86.5 -53.5 -204.5 -53.5 Z" /><glyph glyph-name="" unicode="&#x1eec;" d="M672 1610 l-23 123 q46 10 78.5 26.5 q32.5 16.5 32.5 52.5 q0 36 -45 57 q-45 21 -142 27 l35 154 q197 -6 284 -60.5 q87 -54.5 87 -146.5 q0 -76 -42 -124.5 q-42 -48.5 -111.5 -74.5 q-69.5 -26 -153.5 -34 ZM770 -29 q-280 0 -435 167.5 q-155 167.5 -155 543.5 l0 836 l301 0 l0 -863 q0 -157 35 -249.5 q35 -92.5 100 -132.5 q65 -40 154 -40 q88 0 154 40 q66 40 102.5 132.5 q36.5 92.5 36.5 249.5 l0 863 l135 0 q52 4 97.5 18.5 q45.5 14.5 73.5 51 q28 36.5 28 106.5 q0 41 -10.5 80 q-10.5 39 -24.5 65 l225 94 q25 -38 45.5 -96 q20.5 -58 20.5 -123 q0 -140 -82 -211.5 q-82 -71.5 -217 -99.5 l0 -721 q0 -376 -153.5 -543.5 q-153.5 -167.5 -430.5 -167.5 Z" /><glyph glyph-name="" unicode="&#x1eed;" d="M555 1323 l-27 123 q46 9 78.5 29 q32.5 20 32.5 61 q0 43 -44 68.5 q-44 25.5 -142 29.5 l18 189 q207 -6 299 -78 q92 -72 92 -189 q0 -75 -43 -124 q-43 -49 -113 -75 q-70 -26 -151 -34 ZM504 -29 q-186 0 -270 122.5 q-84 122.5 -84 338.5 l0 715 l299 0 l0 -678 q0 -134 39.5 -187 q39.5 -53 123.5 -53 q69 0 121 33.5 q52 33.5 111 110.5 l0 774 l92 0 q46 4 90 21.5 q44 17.5 72 63 q28 45.5 28 132.5 q0 37 -11.5 70 q-11.5 33 -24.5 59 l225 98 q26 -37 44.5 -92.5 q18.5 -55.5 18.5 -114.5 q0 -138 -68 -219.5 q-68 -81.5 -165 -113.5 l0 -1051 l-246 0 l-22 166 l-9 0 q-73 -88 -159.5 -141.5 q-86.5 -53.5 -204.5 -53.5 Z" /><glyph glyph-name="" unicode="&#x1eee;" d="M936 1620 q-64 0 -111.5 21.5 q-47.5 21.5 -84 49.5 q-36.5 28 -68 49 q-31.5 21 -64.5 21 q-37 0 -60.5 -28.5 q-23.5 -28.5 -31.5 -96.5 l-194 17 q7 163 84 241 q77 78 194 78 q62 0 109 -21 q47 -21 84 -49 q37 -28 68.5 -49.5 q31.5 -21.5 64.5 -21.5 q35 0 59.5 28.5 q24.5 28.5 32.5 96.5 l194 -14 q-7 -166 -83 -244 q-76 -78 -193 -78 ZM770 -29 q-280 0 -435 167.5 q-155 167.5 -155 543.5 l0 836 l301 0 l0 -863 q0 -157 35 -249.5 q35 -92.5 100 -132.5 q65 -40 154 -40 q88 0 154 40 q66 40 102.5 132.5 q36.5 92.5 36.5 249.5 l0 863 l135 0 q52 4 97.5 18.5 q45.5 14.5 73.5 51 q28 36.5 28 106.5 q0 41 -10.5 80 q-10.5 39 -24.5 65 l225 94 q25 -38 45.5 -96 q20.5 -58 20.5 -123 q0 -140 -82 -211.5 q-82 -71.5 -217 -99.5 l0 -721 q0 -376 -153.5 -543.5 q-153.5 -167.5 -430.5 -167.5 Z" /><glyph glyph-name="" unicode="&#x1eef;" d="M788 1335 q-56 0 -100 24.5 q-44 24.5 -79.5 56 q-35.5 31.5 -66.5 55.5 q-31 24 -61 24 q-41 0 -61.5 -35 q-20.5 -35 -28.5 -108 l-190 12 q4 167 73 254.5 q69 87.5 201 87.5 q57 0 101 -24 q44 -24 80 -56 q36 -32 67 -56 q31 -24 61 -24 q77 0 86 140 l191 -9 q-3 -167 -71.5 -254.5 q-68.5 -87.5 -201.5 -87.5 ZM504 -29 q-186 0 -270 122.5 q-84 122.5 -84 338.5 l0 715 l299 0 l0 -678 q0 -134 39.5 -187 q39.5 -53 123.5 -53 q69 0 121 33.5 q52 33.5 111 110.5 l0 774 l92 0 q46 4 90 21.5 q44 17.5 72 63 q28 45.5 28 132.5 q0 37 -11.5 70 q-11.5 33 -24.5 59 l225 98 q26 -37 44.5 -92.5 q18.5 -55.5 18.5 -114.5 q0 -138 -68 -219.5 q-68 -81.5 -165 -113.5 l0 -1051 l-246 0 l-22 166 l-9 0 q-73 -88 -159.5 -141.5 q-86.5 -53.5 -204.5 -53.5 Z" /><glyph glyph-name="" unicode="&#x1ef0;" d="M764 -514 q-77 0 -125.5 45.5 q-48.5 45.5 -48.5 120.5 q0 75 48.5 119.5 q48.5 44.5 125.5 44.5 q78 0 127 -44.5 q49 -44.5 49 -119.5 q0 -75 -49 -120.5 q-49 -45.5 -127 -45.5 ZM770 -29 q-280 0 -435 167.5 q-155 167.5 -155 543.5 l0 836 l301 0 l0 -863 q0 -157 35 -249.5 q35 -92.5 100 -132.5 q65 -40 154 -40 q88 0 154 40 q66 40 102.5 132.5 q36.5 92.5 36.5 249.5 l0 863 l135 0 q52 4 97.5 18.5 q45.5 14.5 73.5 51 q28 36.5 28 106.5 q0 41 -10.5 80 q-10.5 39 -24.5 65 l225 94 q25 -38 45.5 -96 q20.5 -58 20.5 -123 q0 -140 -82 -211.5 q-82 -71.5 -217 -99.5 l0 -721 q0 -376 -153.5 -543.5 q-153.5 -167.5 -430.5 -167.5 Z" /><glyph glyph-name="" unicode="&#x1ef1;" d="M684 -514 q-80 0 -128 45.5 q-48 45.5 -48 120.5 q0 75 48 119.5 q48 44.5 128 44.5 q77 0 125.5 -44.5 q48.5 -44.5 48.5 -119.5 q0 -75 -48.5 -120.5 q-48.5 -45.5 -125.5 -45.5 ZM504 -29 q-186 0 -270 122.5 q-84 122.5 -84 338.5 l0 715 l299 0 l0 -678 q0 -134 39.5 -187 q39.5 -53 123.5 -53 q69 0 121 33.5 q52 33.5 111 110.5 l0 774 l92 0 q46 4 90 21.5 q44 17.5 72 63 q28 45.5 28 132.5 q0 37 -11.5 70 q-11.5 33 -24.5 59 l225 98 q26 -37 44.5 -92.5 q18.5 -55.5 18.5 -114.5 q0 -138 -68 -219.5 q-68 -81.5 -165 -113.5 l0 -1051 l-246 0 l-22 166 l-9 0 q-73 -88 -159.5 -141.5 q-86.5 -53.5 -204.5 -53.5 Z" /><glyph glyph-name="" unicode="&#x1ef2;" d="M444 0 l0 555 l-456 963 l321 0 l152 -371 q32 -85 64 -166.5 q32 -81.5 67 -169.5 l8 0 q35 88 68 169.5 q33 81.5 67 166.5 l152 371 l315 0 l-457 -963 l0 -555 l-301 0 ZM623 1591 l-406 273 l162 196 l375 -317 l-131 -152 Z" /><glyph glyph-name="" unicode="&#x1ef3;" d="M262 -459 q-51 0 -87.5 6 q-36.5 6 -70.5 15 l56 231 q15 -4 37.5 -9 q22.5 -5 42.5 -5 q87 0 138.5 49.5 q51.5 49.5 76.5 124.5 l20 70 l-446 1124 l303 0 l182 -533 q26 -76 49 -158 q23 -82 47 -165 l11 0 q18 80 39 162 q21 82 42 161 l158 533 l289 0 l-408 -1182 q-50 -135 -112 -229.5 q-62 -94.5 -150.5 -144.5 q-88.5 -50 -216.5 -50 ZM596 1331 l-403 363 l202 198 l350 -415 l-149 -146 Z" /><glyph glyph-name="" unicode="&#x1ef4;" d="M444 0 l0 555 l-456 963 l321 0 l152 -371 q32 -85 64 -166.5 q32 -81.5 67 -169.5 l8 0 q35 88 68 169.5 q33 81.5 67 166.5 l152 371 l315 0 l-457 -963 l0 -555 l-301 0 ZM598 -514 q-77 0 -125.5 45.5 q-48.5 45.5 -48.5 120.5 q0 75 48.5 119.5 q48.5 44.5 125.5 44.5 q80 0 127 -44.5 q47 -44.5 47 -119.5 q0 -75 -47 -120.5 q-47 -45.5 -127 -45.5 Z" /><glyph glyph-name="" unicode="&#x1ef5;" d="M262 -459 q-51 0 -87.5 6 q-36.5 6 -70.5 15 l56 231 q15 -4 37.5 -9 q22.5 -5 42.5 -5 q87 0 138.5 49.5 q51.5 49.5 76.5 124.5 l20 70 l-446 1124 l303 0 l182 -533 q26 -76 49 -158 q23 -82 47 -165 l11 0 q18 80 39 162 q21 82 42 161 l158 533 l289 0 l-408 -1182 q-50 -135 -112 -229.5 q-62 -94.5 -150.5 -144.5 q-88.5 -50 -216.5 -50 ZM1004 -498 q-77 0 -127 46 q-50 46 -50 120 q0 74 50 118 q50 44 127 44 q78 0 126 -44 q48 -44 48 -118 q0 -74 -48 -120 q-48 -46 -126 -46 Z" /><glyph glyph-name="" unicode="&#x1ef6;" d="M444 0 l0 555 l-456 963 l321 0 l152 -371 q32 -85 64 -166.5 q32 -81.5 67 -169.5 l8 0 q35 88 68 169.5 q33 81.5 67 166.5 l152 371 l315 0 l-457 -963 l0 -555 l-301 0 ZM502 1610 l-25 123 q46 10 78.5 26.5 q32.5 16.5 32.5 52.5 q0 36 -44.5 57 q-44.5 21 -144.5 27 l35 154 q198 -6 285.5 -60.5 q87.5 -54.5 87.5 -146.5 q0 -76 -42.5 -124.5 q-42.5 -48.5 -112 -74.5 q-69.5 -26 -150.5 -34 Z" /><glyph glyph-name="" unicode="&#x1ef7;" d="M262 -459 q-51 0 -87.5 6 q-36.5 6 -70.5 15 l56 231 q15 -4 37.5 -9 q22.5 -5 42.5 -5 q87 0 138.5 49.5 q51.5 49.5 76.5 124.5 l20 70 l-446 1124 l303 0 l182 -533 q26 -76 49 -158 q23 -82 47 -165 l11 0 q18 80 39 162 q21 82 42 161 l158 533 l289 0 l-408 -1182 q-50 -135 -112 -229.5 q-62 -94.5 -150.5 -144.5 q-88.5 -50 -216.5 -50 ZM512 1323 l-27 123 q48 9 79.5 29 q31.5 20 31.5 61 q0 43 -43.5 68.5 q-43.5 25.5 -142.5 29.5 l18 189 q209 -6 301 -78 q92 -72 92 -189 q0 -75 -43 -124 q-43 -49 -113.5 -75 q-70.5 -26 -152.5 -34 Z" /><glyph glyph-name="" unicode="&#x1ef8;" d="M444 0 l0 555 l-456 963 l321 0 l152 -371 q32 -85 64 -166.5 q32 -81.5 67 -169.5 l8 0 q35 88 68 169.5 q33 81.5 67 166.5 l152 371 l315 0 l-457 -963 l0 -555 l-301 0 ZM762 1620 q-63 0 -110 21.5 q-47 21.5 -83.5 49.5 q-36.5 28 -68.5 49 q-32 21 -64 21 q-35 0 -59.5 -28.5 q-24.5 -28.5 -32.5 -96.5 l-194 17 q7 163 83 241 q76 78 193 78 q63 0 110 -21 q47 -21 84 -49 q37 -28 69 -49.5 q32 -21.5 65 -21.5 q35 0 59.5 28.5 q24.5 28.5 32.5 96.5 l194 -14 q-7 -166 -84 -244 q-77 -78 -194 -78 Z" /><glyph glyph-name="" unicode="&#x1ef9;" d="M262 -459 q-51 0 -87.5 6 q-36.5 6 -70.5 15 l56 231 q15 -4 37.5 -9 q22.5 -5 42.5 -5 q87 0 138.5 49.5 q51.5 49.5 76.5 124.5 l20 70 l-446 1124 l303 0 l182 -533 q26 -76 49 -158 q23 -82 47 -165 l11 0 q18 80 39 162 q21 82 42 161 l158 533 l289 0 l-408 -1182 q-50 -135 -112 -229.5 q-62 -94.5 -150.5 -144.5 q-88.5 -50 -216.5 -50 ZM764 1335 q-58 0 -102 24.5 q-44 24.5 -79.5 56 q-35.5 31.5 -67 55.5 q-31.5 24 -62.5 24 q-74 0 -88 -143 l-191 12 q5 167 74.5 254.5 q69.5 87.5 200.5 87.5 q56 0 99.5 -24 q43.5 -24 79 -56 q35.5 -32 67 -56 q31.5 -24 63.5 -24 q73 0 88 140 l188 -9 q-3 -167 -72 -254.5 q-69 -87.5 -198 -87.5 Z" /><glyph glyph-name="" unicode="&#x2010;" d="M1280 825 l0 -94 l-512 0 l0 94 l512 0 Z" /><glyph glyph-name="" unicode="&#x2012;&#x2013;" d="M100 492 l0 192 l916 0 l0 -192 l-916 0 Z" /><glyph glyph-name="" unicode="&#x2014;" d="M100 492 l0 192 l1659 0 l0 -192 l-1659 0 Z" /><glyph glyph-name="" unicode="&#x2015;" d="M1896 825 l0 -94 l-1744 0 l0 94 l1744 0 Z" /></font>
</defs>
</svg>
